<svg xmlns="http://www.w3.org/2000/svg" xmlns:xlink="http://www.w3.org/1999/xlink" width="134" height="132" viewBox="0 0 134 132">
  <defs>
    <filter id="Rect치ngulo_32695" x="0" y="0" width="134" height="132" filterUnits="userSpaceOnUse">
      <feOffset dy="2" input="SourceAlpha"/>
      <feGaussianBlur stdDeviation="1" result="blur"/>
      <feFlood flood-opacity="0.161"/>
      <feComposite operator="in" in2="blur"/>
      <feComposite in="SourceGraphic"/>
    </filter>
  </defs>
  <g id="Grupo_102177" data-name="Grupo 102177" transform="translate(-736 -1402)">
    <g transform="matrix(1, 0, 0, 1, 736, 1402)" filter="url(#Rect치ngulo_32695)">
      <rect id="Rect치ngulo_32695-2" data-name="Rect치ngulo 32695" width="128" height="126" rx="10" transform="translate(3 1)" fill="#fff"/>
    </g>
    <g id="Grupo_94253" data-name="Grupo 94253" transform="translate(763 1426)">
      <path id="Trazado_150293" data-name="Trazado 150293" d="M1392.543,149.68H1383.4a1.5,1.5,0,0,1-1.5-1.5V140.54a1.5,1.5,0,0,1,1.5-1.5h7.641a1.5,1.5,0,0,1,1.5,1.5Z" transform="translate(-1374.3 -131.437)" fill="#e1646a"/>
      <path id="Trazado_150294" data-name="Trazado 150294" d="M1432.211,149.674h-10.64v-9.142a1.5,1.5,0,0,1,1.5-1.5h7.641a1.5,1.5,0,0,1,1.5,1.5Z" transform="translate(-1403.329 -131.431)" fill="#00d2b4"/>
      <path id="Trazado_150295" data-name="Trazado 150295" d="M1471.879,149.674h-10.641v-9.142a1.5,1.5,0,0,1,1.5-1.5h7.641a1.5,1.5,0,0,1,1.5,1.5h0Z" transform="translate(-1432.355 -131.431)" fill="#e1646a"/>
      <path id="Trazado_150296" data-name="Trazado 150296" d="M1511.548,149.674h-10.641v-9.142a1.5,1.5,0,0,1,1.5-1.5h7.641a1.5,1.5,0,0,1,1.5,1.5Z" transform="translate(-1461.384 -131.431)" fill="#00b7a0"/>
      <path id="Trazado_150297" data-name="Trazado 150297" d="M1551.216,149.674h-10.64v-9.142a1.5,1.5,0,0,1,1.5-1.5h7.641a1.5,1.5,0,0,1,1.5,1.5Z" transform="translate(-1490.412 -131.431)" fill="#e1646a"/>
      <path id="Trazado_150298" data-name="Trazado 150298" d="M1589.385,149.674h-9.142v-9.142a1.5,1.5,0,0,1,1.5-1.5h7.641a1.5,1.5,0,0,1,1.5,1.5v7.641a1.5,1.5,0,0,1-1.5,1.5Z" transform="translate(-1519.439 -131.431)" fill="#00b7a0"/>
      <path id="Trazado_150299" data-name="Trazado 150299" d="M1392.543,189.347H1383.4a1.5,1.5,0,0,1-1.5-1.5v-7.641a1.5,1.5,0,0,1,1.5-1.5h9.142Z" transform="translate(-1374.3 -160.464)" fill="#00d2b4"/>
      <path id="Trazado_150300" data-name="Trazado 150300" d="M1421.571,177.011h10.64v10.64h-10.64Z" transform="translate(-1403.329 -159.222)" fill="#0075b0"/>
      <path id="Trazado_150301" data-name="Trazado 150301" d="M1461.238,178.7h10.641v10.64h-10.641Z" transform="translate(-1432.355 -160.459)" fill="#00d2b4"/>
      <path id="Trazado_150302" data-name="Trazado 150302" d="M1500.907,177.011h10.641v10.64h-10.641Z" transform="translate(-1461.384 -159.222)" fill="#0075b0"/>
      <path id="Trazado_150303" data-name="Trazado 150303" d="M1540.576,178.7h10.64v10.64h-10.64Z" transform="translate(-1490.412 -160.459)" fill="#00b7a0"/>
      <path id="Trazado_150304" data-name="Trazado 150304" d="M1589.385,189.342h-9.142V178.7h9.142a1.5,1.5,0,0,1,1.5,1.5v7.641a1.5,1.5,0,0,1-1.5,1.5Z" transform="translate(-1519.439 -160.459)" fill="#0075b0"/>
      <path id="Trazado_150305" data-name="Trazado 150305" d="M1392.543,229.016H1383.4a1.5,1.5,0,0,1-1.5-1.5v-7.641a1.5,1.5,0,0,1,1.5-1.5h9.142Z" transform="translate(-1374.3 -189.492)" fill="#e1646a"/>
      <path id="Trazado_150306" data-name="Trazado 150306" d="M1421.571,218.369h10.64V229.01h-10.64Z" transform="translate(-1403.329 -189.486)" fill="#00d2b4"/>
      <path id="Trazado_150307" data-name="Trazado 150307" d="M1461.238,218.369h10.641V229.01h-10.641Z" transform="translate(-1432.355 -189.486)" fill="#e1646a"/>
      <path id="Trazado_150308" data-name="Trazado 150308" d="M1500.907,218.369h10.641V229.01h-10.641Z" transform="translate(-1461.384 -189.486)" fill="#00b7a0"/>
      <path id="Trazado_150309" data-name="Trazado 150309" d="M1540.576,218.369h10.64V229.01h-10.64Z" transform="translate(-1490.412 -189.486)" fill="#e1646a"/>
      <path id="Trazado_150310" data-name="Trazado 150310" d="M1589.385,229.01h-9.142V218.369h9.142a1.5,1.5,0,0,1,1.5,1.5v7.641a1.5,1.5,0,0,1-1.5,1.5Z" transform="translate(-1519.439 -189.486)" fill="#00b7a0"/>
      <path id="Trazado_150311" data-name="Trazado 150311" d="M1392.543,268.679H1383.4a1.5,1.5,0,0,1-1.5-1.5v-7.641a1.5,1.5,0,0,1,1.5-1.5h9.143Z" transform="translate(-1374.3 -218.514)" fill="#00d2b4"/>
      <path id="Trazado_150312" data-name="Trazado 150312" d="M1421.571,256.347h10.64v10.641h-10.64Z" transform="translate(-1403.329 -217.277)" fill="#0075b0"/>
      <path id="Trazado_150313" data-name="Trazado 150313" d="M1461.238,258.038h10.641v10.641h-10.641Z" transform="translate(-1432.355 -218.514)" fill="#00d2b4"/>
      <path id="Trazado_150314" data-name="Trazado 150314" d="M1500.907,256.347h10.641v10.641h-10.641Z" transform="translate(-1461.384 -217.277)" fill="#0075b0"/>
      <path id="Trazado_150315" data-name="Trazado 150315" d="M1540.576,258.038h10.64v10.641h-10.64Z" transform="translate(-1490.412 -218.514)" fill="#00b7a0"/>
      <path id="Trazado_150316" data-name="Trazado 150316" d="M1589.385,268.679h-9.142V258.038h9.142a1.5,1.5,0,0,1,1.5,1.5v7.641a1.5,1.5,0,0,1-1.5,1.5Z" transform="translate(-1519.439 -218.514)" fill="#0075b0"/>
      <path id="Trazado_150317" data-name="Trazado 150317" d="M1392.543,308.352H1383.4a1.5,1.5,0,0,1-1.5-1.5v-7.641a1.5,1.5,0,0,1,1.5-1.5h9.142Z" transform="translate(-1374.3 -247.547)" fill="#e1646a"/>
      <path id="Trazado_150318" data-name="Trazado 150318" d="M1421.571,297.707h10.64v10.641h-10.64Z" transform="translate(-1403.329 -247.542)" fill="#00d2b4"/>
      <path id="Trazado_150319" data-name="Trazado 150319" d="M1461.238,297.707h10.641v10.641h-10.641Z" transform="translate(-1432.355 -247.542)" fill="#e1646a"/>
      <path id="Trazado_150320" data-name="Trazado 150320" d="M1500.907,297.707h10.641v10.641h-10.641Z" transform="translate(-1461.384 -247.542)" fill="#00b7a0"/>
      <path id="Trazado_150321" data-name="Trazado 150321" d="M1540.576,297.707h10.64v10.641h-10.64Z" transform="translate(-1490.412 -247.542)" fill="#e1646a"/>
      <path id="Trazado_150322" data-name="Trazado 150322" d="M1589.385,308.348h-9.142V297.707h9.142a1.5,1.5,0,0,1,1.5,1.5v7.641a1.5,1.5,0,0,1-1.5,1.5Z" transform="translate(-1519.439 -247.542)" fill="#00b7a0"/>
      <path id="Trazado_150323" data-name="Trazado 150323" d="M1391.05,348.021h-7.641a1.5,1.5,0,0,1-1.5-1.5v-7.641a1.5,1.5,0,0,1,1.5-1.5h9.142v9.142a1.5,1.5,0,0,1-1.5,1.5Z" transform="translate(-1374.306 -276.575)" fill="#00d2b4"/>
      <path id="Trazado_150324" data-name="Trazado 150324" d="M1430.717,346.324h-7.641a1.5,1.5,0,0,1-1.5-1.5v-9.142h10.64v9.142a1.5,1.5,0,0,1-1.5,1.5Z" transform="translate(-1403.333 -275.332)" fill="#0075b0"/>
      <path id="Trazado_150325" data-name="Trazado 150325" d="M1470.386,348.016h-7.641a1.5,1.5,0,0,1-1.5-1.5v-9.142h10.639v9.142A1.5,1.5,0,0,1,1470.386,348.016Z" transform="translate(-1432.361 -276.57)" fill="#00d2b4"/>
      <path id="Trazado_150326" data-name="Trazado 150326" d="M1510.049,348.016h-7.641a1.5,1.5,0,0,1-1.5-1.5h0v-9.142h10.641v9.142A1.5,1.5,0,0,1,1510.049,348.016Z" transform="translate(-1461.384 -276.57)" fill="#0075b0"/>
      <path id="Trazado_150327" data-name="Trazado 150327" d="M1549.722,348.016h-7.641a1.5,1.5,0,0,1-1.5-1.5v-9.142h10.64v9.142a1.5,1.5,0,0,1-1.5,1.5Z" transform="translate(-1490.417 -276.57)" fill="#00b7a0"/>
      <path id="Trazado_150328" data-name="Trazado 150328" d="M1589.391,348.016h-7.641a1.5,1.5,0,0,1-1.5-1.5v-9.142h9.142a1.5,1.5,0,0,1,1.5,1.5v7.641a1.5,1.5,0,0,1-1.5,1.5Z" transform="translate(-1519.444 -276.57)" fill="#0075b0"/>
      <path id="Trazado_150329" data-name="Trazado 150329" d="M1412.2,200.9h7.642a2.646,2.646,0,0,1,3,0h7.641a2.646,2.646,0,0,1,3,0h7.641a2.661,2.661,0,0,0,2.656-2.657V190.6a2.634,2.634,0,0,0-.465-1.5,2.639,2.639,0,0,0,.465-1.5v-7.641a2.634,2.634,0,0,0-.465-1.5,2.639,2.639,0,0,0,.465-1.5v-7.641a2.639,2.639,0,0,0-.465-1.5,2.639,2.639,0,0,0,.465-1.5v-7.641a2.639,2.639,0,0,0-.465-1.5,2.639,2.639,0,0,0,.465-1.5v-1.133a1.159,1.159,0,0,0-2.316,0v1.133a.341.341,0,0,1-.34.341h-7.979V147.7h7.984a.341.341,0,0,1,.341.341v1.045a1.159,1.159,0,1,0,2.316.111,1.048,1.048,0,0,0,0-.111v-1.045a2.639,2.639,0,0,0-.465-1.5,2.638,2.638,0,0,0,.465-1.5v-7.641a2.66,2.66,0,0,0-2.656-2.656h-7.641a2.647,2.647,0,0,1-3,0h-7.642a2.647,2.647,0,0,1-3,0H1412.2a2.647,2.647,0,0,1-3,0h-7.642a2.647,2.647,0,0,1-3,0h-7.641a2.647,2.647,0,0,1-3,0h-7.641a2.661,2.661,0,0,0-2.656,2.656v7.641a2.637,2.637,0,0,0,.465,1.5,2.641,2.641,0,0,0-.465,1.5v7.641a2.637,2.637,0,0,0,.465,1.5,2.641,2.641,0,0,0-.465,1.5v7.641a2.64,2.64,0,0,0,.465,1.5,2.641,2.641,0,0,0-.465,1.5v7.641a2.642,2.642,0,0,0,.465,1.5,2.641,2.641,0,0,0-.465,1.5V187.6a2.641,2.641,0,0,0,.465,1.5,2.637,2.637,0,0,0-.465,1.5v7.641a2.661,2.661,0,0,0,2.656,2.656h7.641a2.646,2.646,0,0,1,3,0h7.641a2.646,2.646,0,0,1,3,0h7.642a2.628,2.628,0,0,1,2.991,0Zm-32.262-13.3v-7.641a.341.341,0,0,1,.34-.341h7.984v8.326h-7.984a.341.341,0,0,1-.34-.341v0Zm0-10.64v-7.641a.341.341,0,0,1,.34-.341h7.984v8.326h-7.984a.341.341,0,0,1-.34-.343v0Zm0-10.641V158.68a.341.341,0,0,1,.34-.341h7.984v8.326h-7.984a.341.341,0,0,1-.34-.341v0Zm0-10.641V148.04a.341.341,0,0,1,.34-.341h7.984v8.326h-7.984a.341.341,0,0,1-.34-.341v0Zm61.527,13.638v7.641a.341.341,0,0,1-.341.341h-7.984V168.98h7.984a.341.341,0,0,1,.341.339Zm0,10.641V187.6a.341.341,0,0,1-.341.341h-7.984v-8.326h7.984a.341.341,0,0,1,.341.341v0Zm-50.887-10.98h1.386a1.159,1.159,0,1,0,0-2.316h-1.386v-8.326h8.326v8.326h-1.476a1.159,1.159,0,0,0,0,2.316h1.476v8.326h-8.326Zm40.247-2.316h-8.326v-8.326h8.326Zm-18.964,2.316h8.326v8.326h-8.326Zm8.326-2.316h-8.326v-8.326h8.326Zm-10.641,0h-8.326v-8.326h8.326Zm-8.326,2.316h8.326v8.326h-8.326Zm10.641,10.639h8.326v8.326h-8.326ZM1422.5,168.98h8.326v8.326H1422.5Zm8.326-12.957H1422.5V147.7h8.326Zm-10.64,0h-8.325V147.7h8.326Zm-10.641,0h-8.326V147.7h8.326Zm-10.641,0h-8.326V147.7h8.326Zm-8.326,23.6h8.326v8.326h-8.326Zm10.64,0h8.326v8.326h-8.326Zm18.625,18.965H1412.2a.341.341,0,0,1-.341-.34v-7.986h8.326v7.984a.342.342,0,0,1-.343.341h0Zm10.64,0h-7.641a.341.341,0,0,1-.341-.34v-7.986h1.37a1.159,1.159,0,0,0,0-2.316h-1.37v-8.326h8.326v8.326h-1.492a1.159,1.159,0,0,0,0,2.316h1.489v7.984a.341.341,0,0,1-.341.34Zm10.981-.34a.341.341,0,0,1-.341.34h-7.641a.34.34,0,0,1-.341-.34v-7.986h7.984a.341.341,0,0,1,.34.341Zm-.341-39.906a.341.341,0,0,1,.341.341v7.641a.341.341,0,0,1-.341.341h-7.984v-8.326Zm-7.641-21.281h7.641a.341.341,0,0,1,.341.34v7.641a.341.341,0,0,1-.341.341h-7.984V137.4a.341.341,0,0,1,.341-.34Zm-10.64,0h7.641a.341.341,0,0,1,.341.34v7.983h-8.327V137.4a.341.341,0,0,1,.342-.34h0Zm-10.641,0h7.641a.342.342,0,0,1,.341.34v7.983h-8.324V137.4a.341.341,0,0,1,.339-.34Zm-10.641,0h7.641a.34.34,0,0,1,.341.34v7.983h-8.326V137.4a.341.341,0,0,1,.342-.34Zm-10.64,0h7.641a.341.341,0,0,1,.341.34v7.983h-8.326V137.4a.34.34,0,0,1,.341-.34h0Zm-10.981.34a.341.341,0,0,1,.34-.34h7.641a.341.341,0,0,1,.341.34v7.983h-7.984a.341.341,0,0,1-.34-.341Zm7.984,61.187h-7.641a.341.341,0,0,1-.341-.34V190.6a.341.341,0,0,1,.341-.341h7.98v7.984a.341.341,0,0,1-.341.337Zm10.64,0h-7.642a.34.34,0,0,1-.341-.34v-7.986h8.326v7.984a.341.341,0,0,1-.341.341h0Zm10.64,0h-7.641a.341.341,0,0,1-.341-.34v-7.986h8.326v7.984a.341.341,0,0,1-.342.341h0Z" transform="translate(-1371.174 -128.296)"/>
      <path id="Trazado_150330" data-name="Trazado 150330" d="M1541.767,263.04a1.159,1.159,0,0,0-1.159,1.159h0v34.708h-35.186a1.159,1.159,0,0,0,0,2.316h36.345a1.159,1.159,0,0,0,1.16-1.159h0V264.2A1.16,1.16,0,0,0,1541.767,263.04Z" transform="translate(-1463.88 -222.175)"/>
      <path id="Trazado_150331" data-name="Trazado 150331" d="M1392.225,111.853a1.159,1.159,0,0,0-1.159-1.159h-36.344a1.159,1.159,0,0,0-1.159,1.159v35.866a1.159,1.159,0,1,0,2.319,0V113.013h35.188A1.159,1.159,0,0,0,1392.225,111.853Z" transform="translate(-1353.563 -110.694)"/>
    </g>
  </g>
</svg>
