<svg xmlns="http://www.w3.org/2000/svg" xmlns:xlink="http://www.w3.org/1999/xlink" width="134" height="132" viewBox="0 0 134 132">
  <defs>
    <filter id="Rect치ngulo_32697" x="0" y="0" width="134" height="132" filterUnits="userSpaceOnUse">
      <feOffset dy="2" input="SourceAlpha"/>
      <feGaussianBlur stdDeviation="1" result="blur"/>
      <feFlood flood-opacity="0.161"/>
      <feComposite operator="in" in2="blur"/>
      <feComposite in="SourceGraphic"/>
    </filter>
  </defs>
  <g id="Grupo_102179" data-name="Grupo 102179" transform="translate(-1052 -1402)">
    <g transform="matrix(1, 0, 0, 1, 1052, 1402)" filter="url(#Rect치ngulo_32697)">
      <rect id="Rect치ngulo_32697-2" data-name="Rect치ngulo 32697" width="128" height="126" rx="10" transform="translate(3 1)" fill="#fff"/>
    </g>
    <g id="Grupo_102141" data-name="Grupo 102141" transform="translate(1083 1428)">
      <g id="Grupo_102022" data-name="Grupo 102022" transform="translate(5.925 53.482)">
        <path id="Trazado_163389" data-name="Trazado 163389" d="M2098.088,339.39l-2.4-.77.77-2.4,2.4.77Zm-4.806-1.541-2.4-.77.769-2.4,2.4.77Zm-4.808-1.542-2.4-.77.77-2.4,2.4.77Zm-4.807-1.542-2.4-.77.77-2.4,2.4.77Zm-4.807-1.541-2.4-.77.77-2.4,2.4.77Zm-4.808-1.542-2.4-.77.77-2.4,2.4.77Zm-4.806-1.542-2.4-.77.77-2.4,2.4.77Zm-4.809-1.541-2.4-.77.77-2.4,2.4.77Zm-4.806-1.542-2.4-.77.77-2.4,2.4.77Zm-4.807-1.542-2.4-.77.77-2.4,2.4.77Zm-4.809-1.541-2.4-.77.77-2.4,2.4.77Zm-4.806-1.542-2.4-.77.77-2.4,2.4.77Zm-4.808-1.542-2.4-.77.77-2.4,2.4.77Zm-4.806-1.541-2.4-.77.77-2.4,2.4.77Z" transform="translate(-2033.191 -316.171)" fill="#60b69c"/>
      </g>
      <g id="Grupo_102023" data-name="Grupo 102023" transform="translate(5.902 0.015)">
        <path id="Trazado_163390" data-name="Trazado 163390" d="M2033.916,135.06l-.813-2.39,2.391-.813.813,2.39Zm4.78-1.624-.813-2.39,2.391-.812.812,2.39Zm4.781-1.623-.813-2.39,2.392-.813.813,2.39Zm4.781-1.623-.813-2.39,2.391-.813.813,2.39Zm4.78-1.623-.813-2.39,2.391-.813.813,2.39Zm4.781-1.624-.813-2.39,2.391-.812.813,2.39Zm4.779-1.623-.813-2.39,2.391-.812.813,2.39Zm4.779-1.624-.813-2.391,2.392-.813.813,2.391Zm4.782-1.623-.813-2.391,2.391-.813.813,2.391Zm4.779-1.623-.813-2.39,2.392-.813.813,2.391Zm4.781-1.624-.812-2.391,2.39-.812.813,2.391Zm4.78-1.623-.813-2.391,2.391-.812.813,2.391Zm4.782-1.623-.812-2.391,2.391-.813.813,2.391Zm4.78-1.623-.813-2.391,2.391-.813.813,2.391Z" transform="translate(-2033.103 -110.751)" fill="#60b69c"/>
      </g>
      <path id="Trazado_163391" data-name="Trazado 163391" d="M2017.8,218.231a2.523,2.523,0,0,1-2.524-2.524V177.842a2.524,2.524,0,0,1,5.049,0v37.865A2.524,2.524,0,0,1,2017.8,218.231Z" transform="translate(-2014.016 -158.498)" fill="#183e2e"/>
      <g id="Grupo_102024" data-name="Grupo 102024" transform="translate(30.291 23.13)">
        <path id="Trazado_163392" data-name="Trazado 163392" d="M2131.858,229.849c-3.986,0-5.049-9.52-5.049-15.145s1.063-15.146,5.049-15.146,5.047,9.52,5.047,15.146S2135.843,229.849,2131.858,229.849Zm-.054-27.775c-.793.352-2.47,5-2.47,12.63s1.677,12.277,2.577,12.629c.793-.353,2.47-5,2.47-12.629S2132.7,202.428,2131.8,202.074Z" transform="translate(-2126.809 -199.559)" fill="#e7e4dd"/>
      </g>
      <g id="Grupo_102025" data-name="Grupo 102025" transform="translate(45.437 16.819)">
        <path id="Trazado_163393" data-name="Trazado 163393" d="M2191.307,218.225c-4.991,0-6.309-14.034-6.309-21.455s1.318-21.457,6.309-21.457,6.31,14.034,6.31,21.457S2196.3,218.225,2191.307,218.225Zm0-40.388c-1.1,0-3.785,6.634-3.785,18.932s2.686,18.931,3.785,18.931,3.785-6.634,3.785-18.931S2192.406,177.837,2191.307,177.837Z" transform="translate(-2184.998 -175.313)" fill="#e7e4dd"/>
      </g>
      <path id="Trazado_163394" data-name="Trazado 163394" d="M2034.675,214.111h2.524a2.523,2.523,0,0,1,2.524,2.524v17.67a2.523,2.523,0,0,1-2.524,2.524h-2.524" transform="translate(-2028.364 -187.193)" fill="#398469"/>
      <g id="Grupo_102026" data-name="Grupo 102026">
        <path id="Trazado_163395" data-name="Trazado 163395" d="M2136.9,214.71c0-5.625-1.062-15.146-5.047-15.146s-5.049,9.52-5.049,15.146,1.063,15.145,5.049,15.145S2136.9,220.334,2136.9,214.71Zm-7.572,0c0-7.629,1.677-12.278,2.47-12.63.9.353,2.577,5,2.577,12.63s-1.677,12.276-2.47,12.629C2131.01,226.986,2129.333,222.337,2129.333,214.71Z" transform="translate(-2096.518 -176.433)"/>
        <path id="Trazado_163396" data-name="Trazado 163396" d="M2191.309,175.313c-4.991,0-6.31,14.034-6.31,21.457s1.319,21.455,6.31,21.455,6.31-14.034,6.31-21.455S2196.3,175.313,2191.309,175.313Zm0,40.387c-1.1,0-3.786-6.634-3.786-18.931s2.687-18.932,3.786-18.932,3.786,6.634,3.786,18.932S2192.407,215.7,2191.309,215.7Z" transform="translate(-2139.562 -158.494)"/>
        <path id="Trazado_163397" data-name="Trazado 163397" d="M2070.048,330.384l.77-2.4,2.4.77-.771,2.4Z" transform="translate(-2054.53 -271.424)"/>
        <path id="Trazado_163398" data-name="Trazado 163398" d="M2125.44,348.172l.77-2.4,2.4.77-.77,2.4Z" transform="translate(-2095.505 -284.583)"/>
        <path id="Trazado_163399" data-name="Trazado 163399" d="M2051.591,324.462l.771-2.4,2.4.77-.77,2.4Z" transform="translate(-2040.878 -267.044)"/>
        <path id="Trazado_163400" data-name="Trazado 163400" d="M2088.512,336.317l.771-2.4,2.4.77-.77,2.4Z" transform="translate(-2068.188 -275.813)"/>
        <path id="Trazado_163401" data-name="Trazado 163401" d="M2106.985,342.246l.771-2.4,2.4.77-.77,2.4Z" transform="translate(-2081.853 -280.199)"/>
        <path id="Trazado_163402" data-name="Trazado 163402" d="M2236.245,383.793l.77-2.4,2.4.77-.771,2.4Z" transform="translate(-2177.469 -310.931)"/>
        <path id="Trazado_163403" data-name="Trazado 163403" d="M2143.906,354.1l.771-2.4,2.4.77-.771,2.4Z" transform="translate(-2109.164 -288.967)"/>
        <path id="Trazado_163404" data-name="Trazado 163404" d="M2254.691,389.672l.771-2.4,2.4.77-.77,2.4Z" transform="translate(-2191.115 -315.281)"/>
        <path id="Trazado_163405" data-name="Trazado 163405" d="M2199.3,371.884l.771-2.4,2.4.77-.77,2.4Z" transform="translate(-2150.14 -302.123)"/>
        <path id="Trazado_163406" data-name="Trazado 163406" d="M2273.157,395.6l.77-2.4,2.4.77-.77,2.4Z" transform="translate(-2204.775 -319.662)"/>
        <path id="Trazado_163407" data-name="Trazado 163407" d="M2217.764,377.817l.77-2.4,2.4.77-.77,2.4Z" transform="translate(-2163.799 -306.511)"/>
        <path id="Trazado_163408" data-name="Trazado 163408" d="M2162.382,360.071l.77-2.4,2.4.77-.771,2.4Z" transform="translate(-2122.832 -293.384)"/>
        <path id="Trazado_163409" data-name="Trazado 163409" d="M2180.833,365.956l.771-2.4,2.4.77-.771,2.4Z" transform="translate(-2136.48 -297.738)"/>
        <path id="Trazado_163410" data-name="Trazado 163410" d="M2143.345,155.212l2.391-.813.813,2.391-2.391.813Z" transform="translate(-2108.75 -143.023)"/>
        <path id="Trazado_163411" data-name="Trazado 163411" d="M2198.447,136.483l2.392-.813.813,2.39-2.392.813Z" transform="translate(-2149.51 -129.169)"/>
        <path id="Trazado_163412" data-name="Trazado 163412" d="M2088.242,173.935l2.39-.813.813,2.391-2.391.813Z" transform="translate(-2067.989 -156.873)"/>
        <path id="Trazado_163413" data-name="Trazado 163413" d="M2161.709,148.964l2.392-.813.813,2.39-2.392.813Z" transform="translate(-2122.334 -138.402)"/>
        <path id="Trazado_163414" data-name="Trazado 163414" d="M2271.927,111.507l2.39-.813.813,2.39-2.391.813Z" transform="translate(-2203.865 -110.694)"/>
        <path id="Trazado_163415" data-name="Trazado 163415" d="M2253.557,117.749l2.391-.813.812,2.391-2.39.813Z" transform="translate(-2190.276 -115.311)"/>
        <path id="Trazado_163416" data-name="Trazado 163416" d="M2216.82,130.236l2.39-.813.813,2.391-2.39.813Z" transform="translate(-2163.101 -124.548)"/>
        <path id="Trazado_163417" data-name="Trazado 163417" d="M2235.189,124l2.391-.813.812,2.391-2.39.813Z" transform="translate(-2176.688 -119.933)"/>
        <path id="Trazado_163418" data-name="Trazado 163418" d="M2124.981,161.454l2.39-.813.813,2.391-2.39.813Z" transform="translate(-2095.166 -147.641)"/>
        <path id="Trazado_163419" data-name="Trazado 163419" d="M2106.606,167.693l2.391-.813.813,2.39-2.391.813Z" transform="translate(-2081.573 -152.256)"/>
        <path id="Trazado_163420" data-name="Trazado 163420" d="M2180.083,142.727l2.39-.813.813,2.39-2.39.813Z" transform="translate(-2135.925 -133.788)"/>
        <path id="Trazado_163421" data-name="Trazado 163421" d="M2069.874,180.177l2.392-.813.813,2.39-2.392.813Z" transform="translate(-2054.401 -161.49)"/>
        <path id="Trazado_163422" data-name="Trazado 163422" d="M2051.5,186.421l2.391-.813.813,2.39-2.391.813Z" transform="translate(-2040.813 -166.109)"/>
        <path id="Trazado_163423" data-name="Trazado 163423" d="M2022.817,183.09a3.779,3.779,0,0,0-3.553-2.524H2018v-1.622l1.534-.521-.813-2.39-.721.245v-2.023a3.786,3.786,0,0,0-3.785-3.785h0a3.783,3.783,0,0,0-3.785,3.785V212.12a3.786,3.786,0,0,0,7.573,0v-.8l.756.242.77-2.4-1.526-.49v-2.865h1.262a3.779,3.779,0,0,0,3.553-2.526Zm-7.339,29.029a1.264,1.264,0,0,1-1.262,1.262h0a1.263,1.263,0,0,1-1.261-1.262V174.253a1.256,1.256,0,0,1,1.262-1.26h0a1.26,1.26,0,0,1,1.261,1.261Zm5.047-10.1a1.262,1.262,0,0,1-1.261,1.262H2018V183.09h1.262a1.262,1.262,0,0,1,1.261,1.262Z" transform="translate(-2010.429 -154.911)"/>
      </g>
    </g>
  </g>
</svg>
