<svg id="Grupo_25929" data-name="Grupo 25929" xmlns="http://www.w3.org/2000/svg" width="80" height="106" viewBox="0 0 80 106">
  <path id="Trazado_13081" data-name="Trazado 13081" d="M13.643,5388.1H74.835a8.737,8.737,0,0,0,8.721-8.7v-87.231a8.738,8.738,0,0,0-8.721-8.7h-44.8l-25.11,25.057V5379.4A8.737,8.737,0,0,0,13.643,5388.1Z" transform="translate(-4.239 -5282.783)" fill="#b5dbd0" fill-rule="evenodd"/>
  <path id="Trazado_13082" data-name="Trazado 13082" d="M9.4,5383.179H70.6a8.054,8.054,0,0,0,8.039-8.021v-87.232A8.054,8.054,0,0,0,70.6,5279.9H26.076l-24.71,24.657v70.6a8.054,8.054,0,0,0,8.038,8.021Zm61.192,1.363H9.4a9.419,9.419,0,0,1-9.4-9.384v-70.877H0a.673.673,0,0,1,.2-.481l25.1-25.05a.679.679,0,0,1,.49-.208H70.6a9.421,9.421,0,0,1,9.4,9.384v87.232a9.419,9.419,0,0,1-9.4,9.384Z" transform="translate(0 -5278.542)" fill="#013668"/>
  <path id="Trazado_13083" data-name="Trazado 13083" d="M4.922,5308.522H21.311a8.737,8.737,0,0,0,8.721-8.7v-16.353Z" transform="translate(-4.239 -5282.784)" fill="#fffffe" fill-rule="evenodd"/>
  <path id="Trazado_13084" data-name="Trazado 13084" d="M2.332,5303.6H17.073a8.054,8.054,0,0,0,8.038-8.021v-14.71L2.332,5303.6Zm14.741,1.363H.684A.682.682,0,0,1,.2,5303.8l25.1-25.048a.683.683,0,0,1,1.173.473v16.355a9.421,9.421,0,0,1-9.4,9.384Z" transform="translate(-0.001 -5278.544)" fill="#013668"/>
  <rect id="Rectángulo_6170" data-name="Rectángulo 6170" width="65.971" height="33.562" rx="5" transform="translate(7.014 48.748)" fill="#fffffe"/>
  <path id="Trazado_13085" data-name="Trazado 13085" d="M50.946,5625.821h56.743a5.3,5.3,0,0,1,5.3,5.286v24.352a5.3,5.3,0,0,1-5.3,5.286H50.946a5.3,5.3,0,0,1-5.3-5.286v-24.352a5.3,5.3,0,0,1,5.3-5.286Zm56.743,1.362H50.946a3.942,3.942,0,0,0-3.931,3.924v24.352a3.94,3.94,0,0,0,3.931,3.922h56.743a3.939,3.939,0,0,0,3.932-3.922v-24.352a3.942,3.942,0,0,0-3.932-3.924Z" transform="translate(-39.317 -5577.754)" fill="#013668"/>
  <g id="Grupo_25928" data-name="Grupo 25928" transform="translate(18.53 59.158)">
    <path id="Trazado_13086" data-name="Trazado 13086" d="M145.125,5713.244a3.128,3.128,0,0,1,.62,1.957,2.938,2.938,0,0,1-1.35,2.586,6.988,6.988,0,0,1-3.9.909h-6.9v-12.742h6.53a6.421,6.421,0,0,1,3.721.9,2.827,2.827,0,0,1,1.277,2.43,3.016,3.016,0,0,1-.447,1.629,3.123,3.123,0,0,1-1.268,1.139A3.579,3.579,0,0,1,145.125,5713.244Zm-7.953-4.687v2.457h2.481q1.824,0,1.824-1.237,0-1.219-1.824-1.219Zm4.925,6.243q0-1.291-1.9-1.292h-3.028v2.584H140.2Q142.1,5716.092,142.1,5714.8Z" transform="translate(-133.596 -5705.953)" fill="#013668"/>
    <path id="Trazado_13087" data-name="Trazado 13087" d="M246.259,5718.7l-.036-6.752-3.283,5.5h-1.605l-3.265-5.316v6.571h-3.338v-12.742H237.7l4.487,7.354,4.378-7.354h2.973l.037,12.742Z" transform="translate(-220.703 -5705.953)" fill="#013668"/>
    <path id="Trazado_13088" data-name="Trazado 13088" d="M369.043,5706.526a4.491,4.491,0,0,1,0,8.265,7.3,7.3,0,0,1-3.01.573h-2.226v3.331H360.2v-12.742h5.837A7.3,7.3,0,0,1,369.043,5706.526Zm-1.551,5.516a1.7,1.7,0,0,0,.565-1.374,1.737,1.737,0,0,0-.565-1.384,2.493,2.493,0,0,0-1.678-.491h-2.007v3.732h2.007A2.522,2.522,0,0,0,367.493,5712.042Z" transform="translate(-328.766 -5705.953)" fill="#013668"/>
  </g>
</svg>
