<svg xmlns="http://www.w3.org/2000/svg" width="81.746" height="108.314" viewBox="0 0 81.746 108.314">
  <g id="Grupo_25947" data-name="Grupo 25947" transform="translate(0 0)">
    <path id="Trazado_13072" data-name="Trazado 13072" d="M745.505,5390.384h62.528a8.928,8.928,0,0,0,8.912-8.893v-89.135a8.928,8.928,0,0,0-8.912-8.893H762.252l-25.658,25.6v72.424A8.927,8.927,0,0,0,745.505,5390.384Z" transform="translate(-735.896 -5282.768)" fill="#dfa4a6" fill-rule="evenodd"/>
    <path id="Trazado_13073" data-name="Trazado 13073" d="M741.281,5385.462h62.528a8.229,8.229,0,0,0,8.214-8.2V5288.13a8.23,8.23,0,0,0-8.214-8.2H758.317l-25.25,25.2v72.137a8.23,8.23,0,0,0,8.214,8.2Zm62.528,1.393H741.281a9.625,9.625,0,0,1-9.609-9.589v-72.424h0a.688.688,0,0,1,.2-.492l25.651-25.6a.694.694,0,0,1,.5-.211h45.781a9.621,9.621,0,0,1,9.609,9.588v89.137a9.625,9.625,0,0,1-9.609,9.589Z" transform="translate(-731.672 -5278.542)" fill="#013668"/>
    <path id="Trazado_13074" data-name="Trazado 13074" d="M736.594,5309.069h16.747a8.928,8.928,0,0,0,8.912-8.893v-16.71Z" transform="translate(-735.896 -5282.769)" fill="#fffffe" fill-rule="evenodd"/>
    <path id="Trazado_13075" data-name="Trazado 13075" d="M734.055,5304.147h15.063a8.232,8.232,0,0,0,8.214-8.2v-15.032l-23.277,23.228Zm15.063,1.392H732.371a.7.7,0,0,1-.493-1.188l25.651-25.6a.7.7,0,0,1,1.2.485v16.712a9.626,9.626,0,0,1-9.609,9.588Z" transform="translate(-731.673 -5278.542)" fill="#013668"/>
    <rect id="Rectángulo_6169" data-name="Rectángulo 6169" width="67.411" height="34.294" rx="5" transform="translate(7.167 49.812)" fill="#fffffe"/>
    <path id="Trazado_13076" data-name="Trazado 13076" d="M782.734,5625.819h57.981a5.423,5.423,0,0,1,5.412,5.4v24.884a5.42,5.42,0,0,1-5.412,5.4H782.734a5.42,5.42,0,0,1-5.412-5.4v-24.884a5.422,5.422,0,0,1,5.412-5.4Zm57.981,1.393H782.734a4.026,4.026,0,0,0-4.017,4.009v24.884a4.029,4.029,0,0,0,4.017,4.009h57.981a4.029,4.029,0,0,0,4.017-4.009v-24.884a4.026,4.026,0,0,0-4.017-4.009Z" transform="translate(-770.852 -5576.704)" fill="#013668"/>
    <g id="Grupo_25926" data-name="Grupo 25926" transform="translate(20.081 60.449)">
      <path id="Trazado_13077" data-name="Trazado 13077" d="M877.364,5708.873h-4.008v-2.921h11.687v2.921h-3.989v10.1h-3.691Z" transform="translate(-873.357 -5705.952)" fill="#013668"/>
      <path id="Trazado_13078" data-name="Trazado 13078" d="M965.549,5705.952h3.691v13.02h-3.691Z" transform="translate(-952.483 -5705.952)" fill="#013668"/>
      <path id="Trazado_13079" data-name="Trazado 13079" d="M1013.821,5708.8v2.866h5.76v2.846h-5.76v4.462h-3.691v-13.02h10.233v2.846Z" transform="translate(-990.746 -5705.952)" fill="#013668"/>
      <path id="Trazado_13080" data-name="Trazado 13080" d="M1098.254,5708.8v2.866h5.76v2.846h-5.76v4.462h-3.69v-13.02H1104.8v2.846Z" transform="translate(-1063.212 -5705.952)" fill="#013668"/>
    </g>
  </g>
</svg>
