<svg xmlns="http://www.w3.org/2000/svg" width="81.746" height="108.313" viewBox="0 0 81.746 108.313">
  <g id="Grupo_25948" data-name="Grupo 25948" transform="translate(0 0)">
    <path id="Trazado_13063" data-name="Trazado 13063" d="M1477.179,5390.384h62.527a8.928,8.928,0,0,0,8.911-8.893v-89.135a8.928,8.928,0,0,0-8.911-8.893h-45.781l-25.658,25.6v72.424A8.928,8.928,0,0,0,1477.179,5390.384Z" transform="translate(-1467.569 -5282.768)" fill="#86b6e7" fill-rule="evenodd"/>
    <path id="Trazado_13064" data-name="Trazado 13064" d="M1472.954,5385.464h62.528a8.232,8.232,0,0,0,8.214-8.2v-89.136a8.232,8.232,0,0,0-8.214-8.2H1489.99l-25.25,25.2v72.135a8.233,8.233,0,0,0,8.214,8.2Zm62.528,1.394h-62.528a9.626,9.626,0,0,1-9.609-9.59v-72.423h0a.694.694,0,0,1,.2-.494l25.65-25.6a.694.694,0,0,1,.5-.211h45.781a9.622,9.622,0,0,1,9.609,9.587v89.136a9.626,9.626,0,0,1-9.609,9.59Z" transform="translate(-1463.345 -5278.544)" fill="#013668"/>
    <path id="Trazado_13065" data-name="Trazado 13065" d="M1468.267,5309.069h16.747a8.928,8.928,0,0,0,8.911-8.893v-16.71Z" transform="translate(-1467.569 -5282.769)" fill="#fffffe" fill-rule="evenodd"/>
    <path id="Trazado_13066" data-name="Trazado 13066" d="M1465.727,5304.147h15.063a8.23,8.23,0,0,0,8.214-8.2v-15.03l-23.277,23.227Zm15.063,1.392h-16.747a.7.7,0,0,1-.493-1.189l25.65-25.6a.7.7,0,0,1,1.2.484v16.712a9.623,9.623,0,0,1-9.609,9.588Z" transform="translate(-1463.345 -5278.544)" fill="#013668"/>
    <rect id="Rectángulo_6168" data-name="Rectángulo 6168" width="67.411" height="34.294" rx="5" transform="translate(7.167 49.812)" fill="#fffffe"/>
    <path id="Trazado_13067" data-name="Trazado 13067" d="M1514.407,5625.821h57.981a5.421,5.421,0,0,1,5.413,5.4v24.884a5.421,5.421,0,0,1-5.413,5.4h-57.981a5.42,5.42,0,0,1-5.412-5.4v-24.884a5.42,5.42,0,0,1,5.412-5.4Zm57.981,1.392h-57.981a4.027,4.027,0,0,0-4.017,4.009v24.884a4.028,4.028,0,0,0,4.017,4.009h57.981a4.028,4.028,0,0,0,4.017-4.009v-24.884a4.027,4.027,0,0,0-4.017-4.009Z" transform="translate(-1502.525 -5576.705)" fill="#013668"/>
    <g id="Grupo_25924" data-name="Grupo 25924" transform="translate(15.663 60.188)">
      <path id="Trazado_13068" data-name="Trazado 13068" d="M1575.779,5718.742a4.791,4.791,0,0,1-1.92-1.424l2.013-2.38a2.9,2.9,0,0,0,2.255,1.357,1.532,1.532,0,0,0,1.221-.483,2.1,2.1,0,0,0,.419-1.413v-5.6h-4.511v-2.846h8.164v8.222a4.479,4.479,0,0,1-5.033,5.058A6.687,6.687,0,0,1,1575.779,5718.742Z" transform="translate(-1573.859 -5705.693)" fill="#013668"/>
      <path id="Trazado_13069" data-name="Trazado 13069" d="M1667.989,5706.541a4.737,4.737,0,0,1,2.013,6.779,4.591,4.591,0,0,1-2.013,1.665,7.457,7.457,0,0,1-3.076.585h-2.274v3.4h-3.691v-13.021h5.964A7.441,7.441,0,0,1,1667.989,5706.541Zm-1.585,5.633a1.741,1.741,0,0,0,.578-1.4,1.774,1.774,0,0,0-.578-1.413,2.546,2.546,0,0,0-1.715-.5h-2.05v3.813h2.05A2.574,2.574,0,0,0,1666.4,5712.174Z" transform="translate(-1646.889 -5705.693)" fill="#013668"/>
      <path id="Trazado_13070" data-name="Trazado 13070" d="M1765.036,5716.128v2.846h-10.476v-13.021h10.233v2.846h-6.58v2.2h5.8v2.752h-5.8v2.381Z" transform="translate(-1728.95 -5705.693)" fill="#013668"/>
      <path id="Trazado_13071" data-name="Trazado 13071" d="M1847.487,5710.6h3.262V5716a8.518,8.518,0,0,1-2.572,1.228,10.258,10.258,0,0,1-2.908.427,7.783,7.783,0,0,1-3.691-.865,6.455,6.455,0,0,1-2.572-2.409,7.027,7.027,0,0,1,0-6.993,6.427,6.427,0,0,1,2.591-2.409,7.972,7.972,0,0,1,3.747-.866,8.363,8.363,0,0,1,3.281.614,6.324,6.324,0,0,1,2.423,1.767l-2.349,2.12a4.143,4.143,0,0,0-3.169-1.45,3.673,3.673,0,0,0-2.7,1.014,3.632,3.632,0,0,0-1.025,2.706,3.925,3.925,0,0,0,.466,1.926,3.327,3.327,0,0,0,1.3,1.32,3.827,3.827,0,0,0,1.92.475,4.719,4.719,0,0,0,1.994-.429Z" transform="translate(-1800.627 -5704.111)" fill="#013668"/>
    </g>
  </g>
</svg>
