<svg xmlns="http://www.w3.org/2000/svg" width="81.746" height="108.314" viewBox="0 0 81.746 108.314">
  <g id="Grupo_25949" data-name="Grupo 25949" transform="translate(0 0)">
    <path id="Trazado_13055" data-name="Trazado 13055" d="M2213.772,5364.586H2276.3a8.929,8.929,0,0,0,8.912-8.892v-89.136a8.928,8.928,0,0,0-8.912-8.893h-45.781l-25.658,25.6v72.424A8.929,8.929,0,0,0,2213.772,5364.586Z" transform="translate(-2204.163 -5256.968)" fill="#a779c3" fill-rule="evenodd"/>
    <path id="Trazado_13056" data-name="Trazado 13056" d="M2209.548,5359.664h62.528a8.229,8.229,0,0,0,8.214-8.195v-89.136a8.232,8.232,0,0,0-8.214-8.2h-45.492l-25.249,25.2v72.137a8.228,8.228,0,0,0,8.213,8.195Zm62.528,1.393h-62.528a9.625,9.625,0,0,1-9.609-9.588v-72.426h0a.693.693,0,0,1,.2-.49l25.65-25.6a.7.7,0,0,1,.5-.212h45.781a9.626,9.626,0,0,1,9.609,9.59v89.136a9.624,9.624,0,0,1-9.609,9.588Z" transform="translate(-2199.939 -5252.743)" fill="#013668"/>
    <path id="Trazado_13057" data-name="Trazado 13057" d="M2204.861,5283.27h16.747a8.928,8.928,0,0,0,8.912-8.893v-16.712Z" transform="translate(-2204.163 -5256.97)" fill="#fffffe" fill-rule="evenodd"/>
    <path id="Trazado_13058" data-name="Trazado 13058" d="M2202.322,5278.349h15.063a8.23,8.23,0,0,0,8.214-8.2v-15.031l-23.277,23.228Zm15.063,1.393h-16.747a.7.7,0,0,1-.493-1.188l25.65-25.6a.7.7,0,0,1,1.2.483v16.712a9.628,9.628,0,0,1-9.609,9.589Z" transform="translate(-2199.94 -5252.744)" fill="#013668"/>
    <rect id="Rectángulo_6167" data-name="Rectángulo 6167" width="67.411" height="34.294" rx="5" transform="translate(7.167 49.812)" fill="#fffffe"/>
    <path id="Trazado_13059" data-name="Trazado 13059" d="M2251,5600.022h57.981a5.419,5.419,0,0,1,5.412,5.4v24.884a5.423,5.423,0,0,1-5.412,5.4H2251a5.423,5.423,0,0,1-5.413-5.4v-24.884a5.419,5.419,0,0,1,5.413-5.4Zm57.981,1.393H2251a4.026,4.026,0,0,0-4.017,4.008v24.884a4.029,4.029,0,0,0,4.017,4.01h57.981a4.029,4.029,0,0,0,4.017-4.01v-24.884a4.026,4.026,0,0,0-4.017-4.008Z" transform="translate(-2239.119 -5550.907)" fill="#013668"/>
    <g id="Grupo_25922" data-name="Grupo 25922" transform="translate(25.086 60.188)">
      <path id="Trazado_13060" data-name="Trazado 13060" d="M2386.349,5684.805h3.261v5.395a8.469,8.469,0,0,1-2.571,1.226,10.232,10.232,0,0,1-2.908.43,7.788,7.788,0,0,1-3.691-.867,6.456,6.456,0,0,1-2.571-2.408,7.025,7.025,0,0,1,0-6.994,6.423,6.423,0,0,1,2.591-2.409,7.985,7.985,0,0,1,3.746-.864,8.321,8.321,0,0,1,3.281.615,6.294,6.294,0,0,1,2.423,1.766l-2.348,2.119a4.148,4.148,0,0,0-3.169-1.451,3.679,3.679,0,0,0-2.7,1.014,3.634,3.634,0,0,0-1.025,2.706,3.927,3.927,0,0,0,.466,1.926,3.341,3.341,0,0,0,1.305,1.32,3.833,3.833,0,0,0,1.92.474,4.71,4.71,0,0,0,1.994-.428Z" transform="translate(-2376.936 -5678.314)" fill="#013668"/>
      <path id="Trazado_13061" data-name="Trazado 13061" d="M2482.935,5680.153h3.69v13.021h-3.69Z" transform="translate(-2467.912 -5679.893)" fill="#013668"/>
      <path id="Trazado_13062" data-name="Trazado 13062" d="M2531.209,5683v2.863h5.76v2.847h-5.76v4.463h-3.691v-13.021h10.233V5683Z" transform="translate(-2506.177 -5679.893)" fill="#013668"/>
    </g>
  </g>
</svg>
