<svg xmlns="http://www.w3.org/2000/svg" width="81.747" height="108.314" viewBox="0 0 81.747 108.314">
  <g id="Grupo_25953" data-name="Grupo 25953" transform="translate(0.001)">
    <path id="Trazado_13023" data-name="Trazado 13023" d="M5219.4,5312.989h62.527a8.93,8.93,0,0,0,8.912-8.894v-89.134a8.929,8.929,0,0,0-8.912-8.894h-45.781l-25.657,25.6V5304.1A8.928,8.928,0,0,0,5219.4,5312.989Z" transform="translate(-5209.789 -5205.372)" fill="#79c1e7" fill-rule="evenodd"/>
    <path id="Trazado_13024" data-name="Trazado 13024" d="M5215.172,5308.066H5277.7a8.231,8.231,0,0,0,8.214-8.2v-89.137a8.232,8.232,0,0,0-8.214-8.2h-45.492l-25.25,25.2v72.137a8.23,8.23,0,0,0,8.213,8.2Zm62.528,1.392h-62.528a9.627,9.627,0,0,1-9.608-9.588v-72.425h0a.689.689,0,0,1,.2-.492l25.651-25.6a.689.689,0,0,1,.5-.212h45.78a9.624,9.624,0,0,1,9.61,9.588v89.137a9.627,9.627,0,0,1-9.61,9.588Z" transform="translate(-5205.564 -5201.145)" fill="#013668"/>
    <path id="Trazado_13025" data-name="Trazado 13025" d="M5210.486,5231.673h16.746a8.928,8.928,0,0,0,8.912-8.893v-16.712Z" transform="translate(-5209.789 -5205.373)" fill="#fffffe" fill-rule="evenodd"/>
    <path id="Trazado_13026" data-name="Trazado 13026" d="M5207.947,5226.75h15.062a8.231,8.231,0,0,0,8.214-8.2v-15.032l-23.276,23.229Zm15.062,1.391h-16.746a.693.693,0,0,1-.494-1.186l25.651-25.6a.7.7,0,0,1,1.2.484v16.711a9.623,9.623,0,0,1-9.61,9.587Z" transform="translate(-5205.565 -5201.146)" fill="#013668"/>
    <rect id="Rectángulo_6163" data-name="Rectángulo 6163" width="67.411" height="34.294" rx="5" transform="translate(7.167 49.812)" fill="#fffffe"/>
    <path id="Trazado_13027" data-name="Trazado 13027" d="M5256.625,5548.424h57.981a5.421,5.421,0,0,1,5.414,5.4v24.883a5.424,5.424,0,0,1-5.414,5.4h-57.981a5.421,5.421,0,0,1-5.413-5.4v-24.883a5.419,5.419,0,0,1,5.413-5.4Zm57.981,1.393h-57.981a4.025,4.025,0,0,0-4.016,4.008v24.883a4.025,4.025,0,0,0,4.016,4.01h57.981a4.026,4.026,0,0,0,4.018-4.01v-24.883a4.026,4.026,0,0,0-4.018-4.008Z" transform="translate(-5244.742 -5499.309)" fill="#013668"/>
    <g id="Grupo_25914" data-name="Grupo 25914" transform="translate(21.246 60.188)">
      <path id="Trazado_13028" data-name="Trazado 13028" d="M5364.508,5629.143a4.589,4.589,0,0,1,0,8.445,7.459,7.459,0,0,1-3.075.586h-2.274v3.4h-3.691v-13.02h5.965A7.475,7.475,0,0,1,5364.508,5629.143Zm-1.585,5.636a1.742,1.742,0,0,0,.579-1.4,1.773,1.773,0,0,0-.579-1.414,2.544,2.544,0,0,0-1.713-.5h-2.051v3.814h2.051A2.58,2.58,0,0,0,5362.923,5634.779Z" transform="translate(-5355.467 -5628.296)" fill="#013668"/>
      <path id="Trazado_13029" data-name="Trazado 13029" d="M5448.373,5639.866a7.544,7.544,0,0,1-2.423-1.042l1.21-2.714a7.892,7.892,0,0,0,2.031.929,7.714,7.714,0,0,0,2.275.353q2.125,0,2.124-1.06a.878.878,0,0,0-.6-.829,11.273,11.273,0,0,0-1.948-.566,18.818,18.818,0,0,1-2.461-.679,4.147,4.147,0,0,1-1.7-1.163,3.144,3.144,0,0,1-.708-2.159,3.726,3.726,0,0,1,.652-2.147,4.372,4.372,0,0,1,1.948-1.517,8.053,8.053,0,0,1,3.178-.557,11.245,11.245,0,0,1,2.535.289,7.738,7.738,0,0,1,2.2.846l-1.136,2.736a7.6,7.6,0,0,0-3.616-1.006,3.026,3.026,0,0,0-1.6.326.976.976,0,0,0-.5.846.835.835,0,0,0,.6.78,10.608,10.608,0,0,0,1.92.541,18.233,18.233,0,0,1,2.47.679,4.263,4.263,0,0,1,1.7,1.154,3.075,3.075,0,0,1,.718,2.149,3.674,3.674,0,0,1-.652,2.12,4.465,4.465,0,0,1-1.958,1.516,7.927,7.927,0,0,1-3.169.566A12.152,12.152,0,0,1,5448.373,5639.866Z" transform="translate(-5433.126 -5626.715)" fill="#013668"/>
      <path id="Trazado_13030" data-name="Trazado 13030" d="M5537.484,5628.557h6.169a8.645,8.645,0,0,1,3.8.8,6.044,6.044,0,0,1,2.572,2.269,6.943,6.943,0,0,1,0,6.883,6.056,6.056,0,0,1-2.572,2.27,8.659,8.659,0,0,1-3.8.8h-6.169Zm6.021,10.082a3.784,3.784,0,0,0,2.692-.949,3.892,3.892,0,0,0,0-5.245,3.784,3.784,0,0,0-2.692-.948h-2.33v7.142Z" transform="translate(-5511.688 -5628.296)" fill="#013668"/>
    </g>
  </g>
</svg>
