<svg xmlns="http://www.w3.org/2000/svg" width="81.747" height="108.314" viewBox="0 0 81.747 108.314">
  <g id="Grupo_94283" data-name="Grupo 94283" transform="translate(0.001)">
    <path id="Trazado_13023" data-name="Trazado 13023" d="M5219.4,5312.989h62.527a8.93,8.93,0,0,0,8.912-8.894v-89.134a8.929,8.929,0,0,0-8.912-8.894h-45.781l-25.657,25.6V5304.1A8.928,8.928,0,0,0,5219.4,5312.989Z" transform="translate(-5209.789 -5205.372)" fill="#018cd5" fill-rule="evenodd"/>
    <path id="Trazado_13024" data-name="Trazado 13024" d="M5215.172,5308.066H5277.7a8.231,8.231,0,0,0,8.214-8.2v-89.137a8.232,8.232,0,0,0-8.214-8.2h-45.492l-25.25,25.2v72.137a8.23,8.23,0,0,0,8.213,8.2Zm62.528,1.392h-62.528a9.627,9.627,0,0,1-9.608-9.588v-72.425h0a.689.689,0,0,1,.2-.492l25.651-25.6a.689.689,0,0,1,.5-.212h45.78a9.624,9.624,0,0,1,9.61,9.588v89.137a9.627,9.627,0,0,1-9.61,9.588Z" transform="translate(-5205.564 -5201.145)" fill="#013668"/>
    <path id="Trazado_13025" data-name="Trazado 13025" d="M5210.486,5231.673h16.746a8.928,8.928,0,0,0,8.912-8.893v-16.712Z" transform="translate(-5209.789 -5205.373)" fill="#fffffe" fill-rule="evenodd"/>
    <path id="Trazado_13026" data-name="Trazado 13026" d="M5207.947,5226.75h15.062a8.231,8.231,0,0,0,8.214-8.2v-15.032l-23.276,23.229Zm15.062,1.391h-16.746a.693.693,0,0,1-.494-1.186l25.651-25.6a.7.7,0,0,1,1.2.484v16.711a9.623,9.623,0,0,1-9.61,9.587Z" transform="translate(-5205.565 -5201.146)" fill="#013668"/>
    <rect id="Rectángulo_6163" data-name="Rectángulo 6163" width="67.411" height="34.294" rx="5" transform="translate(7.167 49.812)" fill="#fffffe"/>
    <path id="Trazado_13027" data-name="Trazado 13027" d="M5256.625,5548.424h57.981a5.421,5.421,0,0,1,5.414,5.4v24.883a5.424,5.424,0,0,1-5.414,5.4h-57.981a5.421,5.421,0,0,1-5.413-5.4v-24.883a5.419,5.419,0,0,1,5.413-5.4Zm57.981,1.393h-57.981a4.025,4.025,0,0,0-4.016,4.008v24.883a4.025,4.025,0,0,0,4.016,4.01h57.981a4.026,4.026,0,0,0,4.018-4.01v-24.883a4.026,4.026,0,0,0-4.018-4.008Z" transform="translate(-5244.742 -5499.309)" fill="#013668"/>
    <g id="Grupo_94287" data-name="Grupo 94287" transform="translate(7388.143 6346)">
      <path id="Trazado_150376" data-name="Trazado 150376" d="M7857.324,5574.915h-2.013v3.459h-3.691v-13.019h5.964a7.444,7.444,0,0,1,3.076.585,4.731,4.731,0,0,1,2.061,6.7,4.471,4.471,0,0,1-1.893,1.646l2.815,4.091h-3.952Zm1.752-6.157a2.554,2.554,0,0,0-1.716-.5h-2.049v3.812h2.049a2.578,2.578,0,0,0,1.716-.494,1.746,1.746,0,0,0,.578-1.4A1.779,1.779,0,0,0,7859.076,5568.758Z" transform="translate(-15224.074 -11851.355)" fill="#013668"/>
      <path id="Trazado_150377" data-name="Trazado 150377" d="M6198.988,5650.08h-5.518l-1.026,2.53h-3.764l5.76-13.019h3.634l5.778,13.019h-3.84Zm-1.082-2.716-1.677-4.166-1.678,4.166Z" transform="translate(-13548.111 -11925.591)" fill="#013668"/>
      <path id="Trazado_150378" data-name="Trazado 150378" d="M6979.944,5613.893l-5.592,13.02h-3.634l-5.573-13.02h3.989l3.541,8.481,3.617-8.481Z" transform="translate(-14313.026 -11899.893)" fill="#013668"/>
      <path id="Trazado_150379" data-name="Trazado 150379" d="M6979.944,5613.893l-5.592,13.02h-3.634l-5.573-13.02h3.989l3.541,8.481,3.617-8.481Z" transform="translate(-14302.026 -11899.893)" fill="#013668"/>
    </g>
  </g>
</svg>
