<svg id="Grupo_25950" data-name="Grupo 25950" xmlns="http://www.w3.org/2000/svg" width="81.746" height="108.314" viewBox="0 0 81.746 108.314">
  <path id="Trazado_13047" data-name="Trazado 13047" d="M3000.94,5359.664h62.527a8.929,8.929,0,0,0,8.911-8.892v-89.136a8.927,8.927,0,0,0-8.911-8.894h-45.781l-25.658,25.6v72.427A8.929,8.929,0,0,0,3000.94,5359.664Z" transform="translate(-2991.331 -5252.047)" fill="#f4bf95" fill-rule="evenodd"/>
  <path id="Trazado_13048" data-name="Trazado 13048" d="M2996.715,5354.742h62.527a8.229,8.229,0,0,0,8.214-8.2v-89.135a8.227,8.227,0,0,0-8.214-8.2H3013.75l-25.25,25.2v72.136a8.231,8.231,0,0,0,8.215,8.2Zm62.527,1.392h-62.527a9.626,9.626,0,0,1-9.61-9.589v-72.425h0a.692.692,0,0,1,.2-.491l25.65-25.6a.7.7,0,0,1,.5-.211h45.781a9.626,9.626,0,0,1,9.609,9.59v89.135a9.624,9.624,0,0,1-9.609,9.589Z" transform="translate(-2987.105 -5247.821)" fill="#013668"/>
  <path id="Trazado_13049" data-name="Trazado 13049" d="M2992.029,5278.349h16.747a8.929,8.929,0,0,0,8.912-8.894v-16.712Z" transform="translate(-2991.331 -5252.046)" fill="#fffffe" fill-rule="evenodd"/>
  <path id="Trazado_13050" data-name="Trazado 13050" d="M2989.488,5273.425h15.063a8.231,8.231,0,0,0,8.214-8.2V5250.2l-23.277,23.228Zm15.063,1.392H2987.8a.7.7,0,0,1-.493-1.188l25.65-25.6a.7.7,0,0,1,1.2.483v16.712a9.627,9.627,0,0,1-9.61,9.589Z" transform="translate(-2987.107 -5247.82)" fill="#013668"/>
  <rect id="Rectángulo_6166" data-name="Rectángulo 6166" width="67.411" height="34.294" rx="5" transform="translate(7.904 49.812)" fill="#fffffe"/>
  <path id="Trazado_13051" data-name="Trazado 13051" d="M3038.168,5595.1h57.98a5.423,5.423,0,0,1,5.413,5.4v24.883a5.422,5.422,0,0,1-5.413,5.4h-57.98a5.421,5.421,0,0,1-5.414-5.4V5600.5a5.422,5.422,0,0,1,5.414-5.4Zm57.98,1.392h-57.98a4.027,4.027,0,0,0-4.018,4.01v24.883a4.027,4.027,0,0,0,4.018,4.009h57.98a4.026,4.026,0,0,0,4.017-4.009V5600.5a4.026,4.026,0,0,0-4.017-4.01Z" transform="translate(-3026.285 -5545.986)" fill="#013668"/>
  <g id="Grupo_25920" data-name="Grupo 25920" transform="translate(21.451 59.091)">
    <path id="Trazado_13052" data-name="Trazado 13052" d="M3147.5,5668.059a4.587,4.587,0,0,1,0,8.443,7.446,7.446,0,0,1-3.076.586h-2.274v3.4h-3.691v-13.02h5.965A7.446,7.446,0,0,1,3147.5,5668.059Zm-1.584,5.636a1.748,1.748,0,0,0,.578-1.405,1.774,1.774,0,0,0-.578-1.413,2.546,2.546,0,0,0-1.715-.5h-2.051v3.813h2.051A2.588,2.588,0,0,0,3145.913,5673.695Z" transform="translate(-3138.457 -5667.212)" fill="#013668"/>
    <path id="Trazado_13053" data-name="Trazado 13053" d="M3246.483,5667.473v13.02h-3.038l-5.76-6.937v6.938h-3.616v-13.02h3.039l5.759,6.938v-6.937Z" transform="translate(-3220.518 -5667.212)" fill="#013668"/>
    <path id="Trazado_13054" data-name="Trazado 13054" d="M3344.749,5672.122h3.262v5.395a8.527,8.527,0,0,1-2.572,1.229,10.3,10.3,0,0,1-2.908.428,7.791,7.791,0,0,1-3.691-.866,6.458,6.458,0,0,1-2.573-2.408,7.032,7.032,0,0,1,0-6.994,6.428,6.428,0,0,1,2.592-2.408,7.983,7.983,0,0,1,3.746-.865,8.379,8.379,0,0,1,3.281.613,6.32,6.32,0,0,1,2.423,1.767l-2.349,2.121a4.144,4.144,0,0,0-3.169-1.451,3.506,3.506,0,0,0-3.728,3.72,3.92,3.92,0,0,0,.467,1.926,3.33,3.33,0,0,0,1.3,1.32,3.828,3.828,0,0,0,1.92.474,4.715,4.715,0,0,0,1.994-.427Z" transform="translate(-3307.433 -5665.632)" fill="#013668"/>
  </g>
</svg>
