<svg id="Grupo_25952" data-name="Grupo 25952" xmlns="http://www.w3.org/2000/svg" width="81.746" height="108.313" viewBox="0 0 81.746 108.313">
  <path id="Trazado_13031" data-name="Trazado 13031" d="M4459.362,5338.787h62.528a8.928,8.928,0,0,0,8.911-8.892v-89.136a8.927,8.927,0,0,0-8.911-8.893h-45.781l-25.658,25.6v72.423A8.928,8.928,0,0,0,4459.362,5338.787Z" transform="translate(-4449.753 -5231.171)" fill="#a7b1b4" fill-rule="evenodd"/>
  <path id="Trazado_13032" data-name="Trazado 13032" d="M4455.136,5333.864h62.528a8.23,8.23,0,0,0,8.214-8.2v-89.136a8.231,8.231,0,0,0-8.214-8.2h-45.493l-25.25,25.2v72.137a8.231,8.231,0,0,0,8.214,8.2Zm62.528,1.394h-62.528a9.627,9.627,0,0,1-9.608-9.589v-72.424h0a.7.7,0,0,1,.2-.494l25.649-25.6a.7.7,0,0,1,.5-.211h45.781a9.623,9.623,0,0,1,9.609,9.588v89.136a9.627,9.627,0,0,1-9.609,9.589Z" transform="translate(-4445.528 -5226.944)" fill="#013668"/>
  <path id="Trazado_13033" data-name="Trazado 13033" d="M4450.451,5257.472H4467.2a8.929,8.929,0,0,0,8.912-8.894v-16.711Z" transform="translate(-4449.753 -5231.171)" fill="#fffffe" fill-rule="evenodd"/>
  <path id="Trazado_13034" data-name="Trazado 13034" d="M4447.91,5252.55h15.063a8.23,8.23,0,0,0,8.214-8.2v-15.031l-23.277,23.228Zm15.063,1.392h-16.746a.7.7,0,0,1-.494-1.188l25.651-25.6a.7.7,0,0,1,1.2.485v16.712a9.627,9.627,0,0,1-9.609,9.588Z" transform="translate(-4445.528 -5226.945)" fill="#013668"/>
  <rect id="Rectángulo_6164" data-name="Rectángulo 6164" width="67.411" height="34.294" rx="5" transform="translate(7.167 49.812)" fill="#fffffe"/>
  <path id="Trazado_13035" data-name="Trazado 13035" d="M4496.591,5574.223h57.98a5.421,5.421,0,0,1,5.413,5.4v24.883a5.423,5.423,0,0,1-5.413,5.4h-57.98a5.423,5.423,0,0,1-5.414-5.4v-24.883a5.421,5.421,0,0,1,5.414-5.4Zm57.98,1.394h-57.98a4.024,4.024,0,0,0-4.019,4.008v24.883a4.027,4.027,0,0,0,4.019,4.011h57.98a4.03,4.03,0,0,0,4.017-4.011v-24.883a4.027,4.027,0,0,0-4.017-4.008Z" transform="translate(-4484.707 -5525.108)" fill="#013668"/>
  <g id="Grupo_25916" data-name="Grupo 25916" transform="translate(22.56 60.188)">
    <path id="Trazado_13036" data-name="Trazado 13036" d="M4615.179,5664.531v2.846H4604.7v-13.021h10.233v2.846h-6.58v2.2h5.8v2.751h-5.8v2.382Z" transform="translate(-4604.703 -5654.096)" fill="#013668"/>
    <path id="Trazado_13037" data-name="Trazado 13037" d="M4702.122,5654.941a4.589,4.589,0,0,1,0,8.445,7.456,7.456,0,0,1-3.076.585h-2.274v3.4h-3.69v-13.021h5.965A7.472,7.472,0,0,1,4702.122,5654.941Zm-1.585,5.636a1.742,1.742,0,0,0,.577-1.4,1.779,1.779,0,0,0-.577-1.415,2.562,2.562,0,0,0-1.715-.5h-2.051v3.813h2.051A2.58,2.58,0,0,0,4700.537,5660.577Z" transform="translate(-4680.556 -5654.096)" fill="#013668"/>
    <path id="Trazado_13038" data-name="Trazado 13038" d="M4785.986,5665.664a7.569,7.569,0,0,1-2.424-1.04l1.212-2.716a7.849,7.849,0,0,0,2.032.93,7.741,7.741,0,0,0,2.274.353q2.124,0,2.125-1.06a.879.879,0,0,0-.607-.828,11.142,11.142,0,0,0-1.947-.567,18.434,18.434,0,0,1-2.46-.68,4.136,4.136,0,0,1-1.7-1.162,3.132,3.132,0,0,1-.709-2.157,3.726,3.726,0,0,1,.654-2.148,4.355,4.355,0,0,1,1.947-1.516,8.046,8.046,0,0,1,3.178-.558,11.207,11.207,0,0,1,2.534.29,7.709,7.709,0,0,1,2.2.846l-1.137,2.734a7.608,7.608,0,0,0-3.617-1,3.029,3.029,0,0,0-1.6.327.974.974,0,0,0-.5.846.84.84,0,0,0,.6.781,10.91,10.91,0,0,0,1.92.54,17.879,17.879,0,0,1,2.47.679,4.25,4.25,0,0,1,1.7,1.154,3.074,3.074,0,0,1,.717,2.147,3.651,3.651,0,0,1-.652,2.12,4.447,4.447,0,0,1-1.957,1.516,7.939,7.939,0,0,1-3.169.567A12.029,12.029,0,0,1,4785.986,5665.664Z" transform="translate(-4758.214 -5652.514)" fill="#013668"/>
  </g>
</svg>
