<svg id="Grupo_25954" data-name="Grupo 25954" xmlns="http://www.w3.org/2000/svg" width="81.746" height="108.313" viewBox="0 0 81.746 108.313">
  <path id="Trazado_13016" data-name="Trazado 13016" d="M5984.354,5324.021h62.528a8.927,8.927,0,0,0,8.91-8.893v-89.135a8.927,8.927,0,0,0-8.91-8.893H6001.1l-25.658,25.6v72.423A8.926,8.926,0,0,0,5984.354,5324.021Z" transform="translate(-5974.745 -5216.405)" fill="#ffce78" fill-rule="evenodd"/>
  <path id="Trazado_13017" data-name="Trazado 13017" d="M5980.129,5319.1h62.528a8.226,8.226,0,0,0,8.212-8.2v-89.135a8.229,8.229,0,0,0-8.212-8.2h-45.493l-25.25,25.2V5310.9a8.231,8.231,0,0,0,8.215,8.2Zm62.528,1.393h-62.528a9.623,9.623,0,0,1-9.609-9.588v-72.424h0a.694.694,0,0,1,.2-.493l25.65-25.6a.7.7,0,0,1,.5-.212h45.782a9.627,9.627,0,0,1,9.609,9.59V5310.9a9.624,9.624,0,0,1-9.609,9.588Z" transform="translate(-5970.52 -5212.178)" fill="#013668"/>
  <path id="Trazado_13018" data-name="Trazado 13018" d="M5975.442,5242.706h16.746a8.929,8.929,0,0,0,8.912-8.893V5217.1Z" transform="translate(-5974.745 -5216.405)" fill="#fffffe" fill-rule="evenodd"/>
  <path id="Trazado_13019" data-name="Trazado 13019" d="M5972.9,5237.783h15.063a8.227,8.227,0,0,0,8.213-8.2v-15.032l-23.275,23.227Zm15.063,1.393h-16.747a.7.7,0,0,1-.493-1.188l25.651-25.6a.7.7,0,0,1,1.2.485v16.712a9.627,9.627,0,0,1-9.609,9.588Z" transform="translate(-5970.52 -5212.178)" fill="#013668"/>
  <rect id="Rectángulo_6162" data-name="Rectángulo 6162" width="67.411" height="34.294" rx="5" transform="translate(7.167 49.812)" fill="#fffffe"/>
  <path id="Trazado_13020" data-name="Trazado 13020" d="M6021.582,5559.458h57.981a5.421,5.421,0,0,1,5.413,5.4v24.883a5.425,5.425,0,0,1-5.413,5.4h-57.981a5.424,5.424,0,0,1-5.412-5.4v-24.883a5.42,5.42,0,0,1,5.412-5.4Zm57.981,1.393h-57.981a4.026,4.026,0,0,0-4.018,4.008v24.883a4.029,4.029,0,0,0,4.018,4.011h57.981a4.029,4.029,0,0,0,4.019-4.011v-24.883a4.025,4.025,0,0,0-4.019-4.008Z" transform="translate(-6009.699 -5510.342)" fill="#013668"/>
  <g id="Grupo_25912" data-name="Grupo 25912" transform="translate(30.92 60.449)">
    <path id="Trazado_13021" data-name="Trazado 13021" d="M6198.988,5650.08h-5.518l-1.026,2.53h-3.764l5.76-13.019h3.634l5.778,13.019h-3.84Zm-1.082-2.716-1.677-4.166-1.678,4.166Z" transform="translate(-6188.681 -5639.591)" fill="#013668"/>
    <path id="Trazado_13022" data-name="Trazado 13022" d="M6303.1,5639.591h3.69v13.019h-3.69Z" transform="translate(-6286.881 -5639.591)" fill="#013668"/>
  </g>
</svg>
