<svg id="Grupo_25956" data-name="Grupo 25956" xmlns="http://www.w3.org/2000/svg" width="81.747" height="108.313" viewBox="0 0 81.747 108.313">
  <path id="Trazado_13008" data-name="Trazado 13008" d="M7514.268,5249.787H7576.8a8.928,8.928,0,0,0,8.912-8.893v-89.135a8.928,8.928,0,0,0-8.912-8.893h-45.782l-25.658,25.6v72.425A8.928,8.928,0,0,0,7514.268,5249.787Z" transform="translate(-7504.659 -5142.17)" fill="#bccca3" fill-rule="evenodd"/>
  <path id="Trazado_13009" data-name="Trazado 13009" d="M7510.044,5244.864h62.527a8.233,8.233,0,0,0,8.214-8.2v-89.134a8.228,8.228,0,0,0-8.214-8.2H7527.08l-25.25,25.2v72.135a8.233,8.233,0,0,0,8.214,8.2Zm62.527,1.392h-62.527a9.624,9.624,0,0,1-9.609-9.59v-72.423h0a.686.686,0,0,1,.206-.493l25.649-25.6a.7.7,0,0,1,.5-.211h45.782a9.621,9.621,0,0,1,9.609,9.589v89.134a9.623,9.623,0,0,1-9.609,9.59Z" transform="translate(-7500.435 -5137.943)" fill="#013668"/>
  <path id="Trazado_13010" data-name="Trazado 13010" d="M7505.356,5168.471H7522.1a8.927,8.927,0,0,0,8.91-8.893v-16.712Z" transform="translate(-7504.659 -5142.169)" fill="#fffffe" fill-rule="evenodd"/>
  <path id="Trazado_13011" data-name="Trazado 13011" d="M7502.818,5163.547h15.063a8.229,8.229,0,0,0,8.213-8.2v-15.032l-23.275,23.228Zm15.063,1.393h-16.747a.7.7,0,0,1-.494-1.187l25.65-25.6a.7.7,0,0,1,1.2.484v16.711a9.623,9.623,0,0,1-9.608,9.588Z" transform="translate(-7500.436 -5137.944)" fill="#013668"/>
  <rect id="Rectángulo_6161" data-name="Rectángulo 6161" width="67.412" height="34.294" rx="5" transform="translate(7.167 49.812)" fill="#fffffe"/>
  <path id="Trazado_13012" data-name="Trazado 13012" d="M7551.5,5485.223h57.98a5.422,5.422,0,0,1,5.413,5.4v24.885a5.418,5.418,0,0,1-5.413,5.4H7551.5a5.417,5.417,0,0,1-5.413-5.4v-24.885a5.421,5.421,0,0,1,5.413-5.4Zm57.98,1.392H7551.5a4.024,4.024,0,0,0-4.017,4.008v24.885a4.025,4.025,0,0,0,4.017,4.009h57.98a4.028,4.028,0,0,0,4.019-4.009v-24.885a4.026,4.026,0,0,0-4.019-4.008Z" transform="translate(-7539.614 -5436.108)" fill="#013668"/>
  <g id="Grupo_25910" data-name="Grupo 25910" transform="translate(19.95 60.189)">
    <path id="Trazado_13013" data-name="Trazado 13013" d="M7644.693,5576.189a6.468,6.468,0,0,1-2.564-2.408,7.034,7.034,0,0,1,0-6.993,6.476,6.476,0,0,1,2.564-2.409,7.734,7.734,0,0,1,3.682-.865,7.915,7.915,0,0,1,3.223.631,6.221,6.221,0,0,1,2.386,1.823l-2.349,2.121a3.865,3.865,0,0,0-3.076-1.525,3.8,3.8,0,0,0-1.891.465,3.227,3.227,0,0,0-1.287,1.31,4.371,4.371,0,0,0,0,3.888,3.219,3.219,0,0,0,1.287,1.312,3.788,3.788,0,0,0,1.891.466,3.869,3.869,0,0,0,3.076-1.526l2.349,2.121a6.219,6.219,0,0,1-2.386,1.822,7.915,7.915,0,0,1-3.223.632A7.717,7.717,0,0,1,7644.693,5576.189Z" transform="translate(-7641.199 -5563.514)" fill="#013668"/>
    <path id="Trazado_13014" data-name="Trazado 13014" d="M7742.988,5565.355h6.17a8.645,8.645,0,0,1,3.8.8,6.029,6.029,0,0,1,2.572,2.269,6.929,6.929,0,0,1,0,6.883,6.026,6.026,0,0,1-2.572,2.27,8.659,8.659,0,0,1-3.8.8h-6.17Zm6.021,10.081a3.8,3.8,0,0,0,2.7-.948,3.9,3.9,0,0,0,0-5.247,3.8,3.8,0,0,0-2.7-.948h-2.33v7.143Z" transform="translate(-7728.562 -5565.095)" fill="#013668"/>
    <path id="Trazado_13015" data-name="Trazado 13015" d="M7857.324,5574.915h-2.013v3.459h-3.691v-13.019h5.964a7.444,7.444,0,0,1,3.076.585,4.731,4.731,0,0,1,2.061,6.7,4.471,4.471,0,0,1-1.893,1.646l2.815,4.091h-3.952Zm1.752-6.157a2.554,2.554,0,0,0-1.716-.5h-2.049v3.812h2.049a2.578,2.578,0,0,0,1.716-.494,1.746,1.746,0,0,0,.578-1.4A1.779,1.779,0,0,0,7859.076,5568.758Z" transform="translate(-7821.797 -5565.095)" fill="#013668"/>
  </g>
</svg>
