<svg id="Grupo_86382" data-name="Grupo 86382" xmlns="http://www.w3.org/2000/svg" width="135" height="135" viewBox="0 0 135 135">
  <circle id="Elipse_5014" data-name="Elipse 5014" cx="67.5" cy="67.5" r="67.5" fill="#ffc935"/>
  <circle id="Elipse_5015" data-name="Elipse 5015" cx="57.656" cy="57.656" r="57.656" transform="translate(9.844 9.844)" fill="#ffeab2"/>
  <g id="Grupo_100709" data-name="Grupo 100709" transform="translate(26.413 28.236)">
    <g id="Grupo_100728" data-name="Grupo 100728" transform="translate(1.179 1.179)">
      <g id="Grupo_100709-2" data-name="Grupo 100709">
        <path id="Trazado_160122" data-name="Trazado 160122" d="M-597.366,2054.694h-73a2.557,2.557,0,0,0-2.557,2.557v6.471l.922.171h76.2l.985-.171v-6.471a2.557,2.557,0,0,0-2.557-2.557Z" transform="translate(672.92 -2054.694)" fill="#2f94ff"/>
      </g>
      <g id="Grupo_100727" data-name="Grupo 100727">
        <g id="Grupo_100710" data-name="Grupo 100710">
          <path id="Trazado_160123" data-name="Trazado 160123" d="M-660.366,2054.694h-10a2.557,2.557,0,0,0-2.557,2.558v6.47h12.554Z" transform="translate(672.92 -2054.694)" fill="#116dd9"/>
        </g>
        <path id="Trazado_160124" data-name="Trazado 160124" d="M-672.92,2061.311V2107.3a1.7,1.7,0,0,0,1.7,1.706h2.168c-.024-.356-.038-.716-.038-1.079a15.6,15.6,0,0,1,15.6-15.6,15.6,15.6,0,0,1,15.6,15.6c0,.363-.014.721-.038,1.079h41.4a1.7,1.7,0,0,0,1.7-1.706v-45.985Z" transform="translate(672.92 -2052.283)" fill="#f0fcff"/>
        <path id="Trazado_160125" data-name="Trazado 160125" d="M-669.086,2107.923a15.524,15.524,0,0,1,2.531-8.52v-38.093h-6.365V2107.3a1.7,1.7,0,0,0,1.7,1.706h2.168c-.024-.356-.038-.716-.038-1.079Z" transform="translate(672.92 -2052.283)" fill="#cbe3ff"/>
        <g id="Grupo_100716" data-name="Grupo 100716" transform="translate(14.523 9.028)">
          <g id="Grupo_100712" data-name="Grupo 100712">
            <path id="Trazado_160126" data-name="Trazado 160126" d="M-632.424,2061.311h-6.6v.157a13.46,13.46,0,0,1,2.725,8.144v2.523a9.163,9.163,0,0,1,6.986,8.9v12.311a17.078,17.078,0,0,1-6.986,13.789V2109h14.217v-33.511a14.954,14.954,0,0,0-10.346-14.18Z" transform="translate(670.751 -2061.311)" fill="#f46700"/>
            <g id="Grupo_100711" data-name="Grupo 100711">
              <path id="Trazado_160127" data-name="Trazado 160127" d="M-655.043,2088.8a8.434,8.434,0,0,1,8.435-8.435h2.9a2.634,2.634,0,0,0,1.946-.858l5.639-6.168a4.506,4.506,0,0,1,3.325-1.465H-630a9.186,9.186,0,0,1,2.332.3v-2.561a13.688,13.688,0,0,0-2.8-8.3h-25.018a20.786,20.786,0,0,0-6.792,15.355v16.445a15.62,15.62,0,0,1,4.915-.79,15.659,15.659,0,0,1,2.318.172Z" transform="translate(662.276 -2061.311)" fill="#fe7701"/>
            </g>
            <path id="Trazado_160128" data-name="Trazado 160128" d="M-657.361,2092.321c.136,0,.273,0,.409.006v-15.661a20.791,20.791,0,0,1,6.791-15.355h-5.322a20.786,20.786,0,0,0-6.792,15.355v16.445A15.62,15.62,0,0,1-657.361,2092.321Z" transform="translate(662.276 -2061.311)" fill="#f46700"/>
          </g>
          <g id="Grupo_100713" data-name="Grupo 100713" transform="translate(40.743 23.177)">
            <path id="Trazado_160129" data-name="Trazado 160129" d="M-631.31,2078.3h-.565v8.857a16.89,16.89,0,0,1-.54,4.244h1.105a6.55,6.55,0,0,0,6.551-6.55,6.552,6.552,0,0,0-6.551-6.551Z" transform="translate(632.415 -2078.298)" fill="#fed2a4"/>
          </g>
          <g id="Grupo_100715" data-name="Grupo 100715" transform="translate(7.233 10.562)">
            <path id="Trazado_160130" data-name="Trazado 160130" d="M-631.927,2069.052h-2.805a4.5,4.5,0,0,0-3.324,1.465l-5.64,6.169a2.64,2.64,0,0,1-1.946.858h-2.9a8.435,8.435,0,0,0-8.435,8.435v3.692A15.608,15.608,0,0,1-643.69,2105.1c0,.363-.014.721-.038,1.079h10.747a17.108,17.108,0,0,0,10.214-15.658v-12.311a9.161,9.161,0,0,0-9.161-9.16Z" transform="translate(656.975 -2069.052)" fill="#ffe5c2"/>
            <g id="Grupo_100714" data-name="Grupo 100714" transform="translate(0 8.492)">
              <path id="Trazado_160131" data-name="Trazado 160131" d="M-651.944,2089.069c-.016-.322-.029-.644-.029-.97v-4.669a8.667,8.667,0,0,1,5.729-8.154h-2.3a8.435,8.435,0,0,0-8.435,8.435v3.693a15.461,15.461,0,0,1,5.03,1.665Z" transform="translate(656.975 -2075.276)" fill="#fed2a4"/>
            </g>
          </g>
        </g>
        <g id="Grupo_100717" data-name="Grupo 100717" transform="translate(3.835 40.038)">
          <circle id="Elipse_5259" data-name="Elipse 5259" cx="15.603" cy="15.603" r="15.603" fill="#ffa0a4"/>
        </g>
        <g id="Grupo_100718" data-name="Grupo 100718" transform="translate(8.098 44.301)">
          <path id="Trazado_160132" data-name="Trazado 160132" d="M-655.645,2109.844a11.353,11.353,0,0,1-11.339-11.341,11.352,11.352,0,0,1,11.339-11.34A11.353,11.353,0,0,1-644.3,2098.5,11.355,11.355,0,0,1-655.645,2109.844Z" transform="translate(666.985 -2087.163)" fill="#ffe5c2"/>
        </g>
        <g id="Grupo_100719" data-name="Grupo 100719" transform="translate(8.098 44.301)">
          <path id="Trazado_160133" data-name="Trazado 160133" d="M-661.646,2098.5a11.358,11.358,0,0,1,8.671-11.02,11.355,11.355,0,0,0-2.67-.32,11.352,11.352,0,0,0-11.339,11.34,11.353,11.353,0,0,0,11.339,11.341,11.355,11.355,0,0,0,2.67-.321A11.361,11.361,0,0,1-661.646,2098.5Z" transform="translate(666.985 -2087.163)" fill="#fed2a4"/>
        </g>
        <g id="Grupo_100722" data-name="Grupo 100722" transform="translate(13.584 48.11)">
          <g id="Grupo_100720" data-name="Grupo 100720" transform="translate(4.355)">
            <path id="Trazado_160134" data-name="Trazado 160134" d="M-654.979,2093.678v-3.212a.511.511,0,0,0-.51-.512h-3.773a.511.511,0,0,0-.51.512v3.771a.511.511,0,0,0,.51.512h3.213a.511.511,0,0,1,.51.512v3.212a.512.512,0,0,0,.512.511h3.771a.512.512,0,0,0,.512-.511V2094.7a.512.512,0,0,0-.512-.511h-3.212a.512.512,0,0,1-.512-.512Z" transform="translate(659.772 -2089.955)" fill="#ffbd86"/>
          </g>
          <g id="Grupo_100721" data-name="Grupo 100721" transform="translate(0 8.59)">
            <path id="Trazado_160135" data-name="Trazado 160135" d="M-658.681,2101.044h-3.771a.511.511,0,0,1-.512-.51v-3.773a.511.511,0,0,1,.512-.51h3.771a.511.511,0,0,1,.512.51v3.773A.51.51,0,0,1-658.681,2101.044Z" transform="translate(662.964 -2096.251)" fill="#ffbd86"/>
          </g>
        </g>
        <g id="Grupo_100724" data-name="Grupo 100724" transform="translate(61.337 33.351)">
          <g id="Grupo_100723" data-name="Grupo 100723">
            <path id="Trazado_160136" data-name="Trazado 160136" d="M-617.2,2085.138c-3,.75-4.011,1.76-4.762,4.761a.458.458,0,0,1-.889,0c-.75-3-1.76-4.012-4.762-4.761a.458.458,0,0,1,0-.889c3-.75,4.011-1.76,4.762-4.763a.458.458,0,0,1,.889,0c.75,3,1.76,4.013,4.762,4.763A.458.458,0,0,1-617.2,2085.138Z" transform="translate(627.965 -2079.138)" fill="#fed402"/>
          </g>
        </g>
        <g id="Grupo_100726" data-name="Grupo 100726" transform="translate(8.61 14.066)">
          <g id="Grupo_100725" data-name="Grupo 100725">
            <path id="Trazado_160137" data-name="Trazado 160137" d="M-655.848,2071c-3,.75-4.011,1.76-4.762,4.762a.458.458,0,0,1-.89,0c-.75-3-1.76-4.011-4.762-4.762a.458.458,0,0,1,0-.89c3-.751,4.011-1.76,4.762-4.762a.458.458,0,0,1,.89,0c.75,3,1.76,4.011,4.762,4.762A.458.458,0,0,1-655.848,2071Z" transform="translate(666.61 -2065.003)" fill="#fed402"/>
          </g>
        </g>
      </g>
    </g>
    <g id="Grupo_100733" data-name="Grupo 100733" transform="translate(39.253 62.854)">
      <g id="Grupo_100729" data-name="Grupo 100729">
        <path id="Trazado_160138" data-name="Trazado 160138" d="M-605.829,2113.635h-38.333a.852.852,0,0,1-.853-.852V2100.75a.853.853,0,0,1,.853-.853h38.332a.852.852,0,0,1,.853.853v12.034a.851.851,0,0,1-.851.852Z" transform="translate(645.015 -2099.897)" fill="#f0fcff"/>
      </g>
      <g id="Grupo_100730" data-name="Grupo 100730">
        <path id="Trazado_160139" data-name="Trazado 160139" d="M-638.376,2112.783V2100.75a.853.853,0,0,1,.853-.853h-6.639a.853.853,0,0,0-.853.853v12.033a.852.852,0,0,0,.853.853h6.639A.852.852,0,0,1-638.376,2112.783Z" transform="translate(645.015 -2099.897)" fill="#cbe3fe"/>
      </g>
      <g id="Grupo_100731" data-name="Grupo 100731" transform="translate(23.944 4.416)">
        <circle id="Elipse_5260" data-name="Elipse 5260" cx="2.453" cy="2.453" r="2.453" fill="#ff4b52"/>
      </g>
      <g id="Grupo_100732" data-name="Grupo 100732" transform="translate(23.944 4.417)">
        <path id="Trazado_160140" data-name="Trazado 160140" d="M-625.125,2105.586a2.452,2.452,0,0,1,1.282-2.156,2.444,2.444,0,0,0-1.171-.3,2.453,2.453,0,0,0-2.453,2.453,2.453,2.453,0,0,0,2.453,2.453,2.439,2.439,0,0,0,1.171-.3A2.451,2.451,0,0,1-625.125,2105.586Z" transform="translate(627.466 -2103.134)" fill="#f90013"/>
      </g>
    </g>
    <g id="Grupo_100734" data-name="Grupo 100734">
      <path id="Trazado_160141" data-name="Trazado 160141" d="M-597.051,2053.83h-73a3.741,3.741,0,0,0-3.736,3.737v52.456a2.887,2.887,0,0,0,2.883,2.884h1.1a16.807,16.807,0,0,0,16.629,14.524,16.807,16.807,0,0,0,16.63-14.524h40.34a2.887,2.887,0,0,0,2.883-2.884v-52.456a3.741,3.741,0,0,0-3.736-3.737Zm-74.375,3.737a1.38,1.38,0,0,1,1.1-1.35,1.321,1.321,0,0,1,.277-.029h8.82v6.67h-10.2Zm1.478,52.983h-.952a.527.527,0,0,1-.527-.526v-44.807h17.376a22.159,22.159,0,0,0-2.749,4.119c-.016-.064-.034-.13-.051-.2a1.637,1.637,0,0,0-1.588-1.242,1.637,1.637,0,0,0-1.588,1.242c-.643,2.569-1.336,3.264-3.905,3.9a1.636,1.636,0,0,0-1.242,1.589,1.635,1.635,0,0,0,1.242,1.588c2.569.642,3.262,1.335,3.905,3.9a1.633,1.633,0,0,0,.767,1.019v13.871A16.812,16.812,0,0,0-669.949,2110.55Zm13.045-30.261a1.5,1.5,0,0,0,.052-.165c.643-2.569,1.336-3.262,3.905-3.9a1.635,1.635,0,0,0,1.242-1.588,1.636,1.636,0,0,0-1.242-1.589,6.033,6.033,0,0,1-2.487-1.058,19.8,19.8,0,0,1,4.609-6.767h23.951a12.436,12.436,0,0,1,2.225,7.122v1.147a10.4,10.4,0,0,0-1.153-.065h-2.805a5.7,5.7,0,0,0-4.194,1.849l-5.64,6.168a1.462,1.462,0,0,1-1.075.475h-2.9a9.624,9.624,0,0,0-9.614,9.613v2.382q-.565-.038-1.139-.039a16.766,16.766,0,0,0-3.736.419v-14Zm-1.536-2.806a5.474,5.474,0,0,0-2.852-2.852,5.475,5.475,0,0,0,2.852-2.851,5.474,5.474,0,0,0,2.852,2.851A5.473,5.473,0,0,0-658.44,2077.482Zm5.272,47.592a14.441,14.441,0,0,1-14.424-14.424,14.44,14.44,0,0,1,14.424-14.423,14.44,14.44,0,0,1,14.425,14.423A14.441,14.441,0,0,1-653.168,2125.074Zm16.781-14.524a16.81,16.81,0,0,0-13.284-16.314v-2.71a7.263,7.263,0,0,1,7.256-7.256h2.9a3.821,3.821,0,0,0,2.815-1.242l5.641-6.169a3.336,3.336,0,0,1,2.455-1.082h2.805a7.991,7.991,0,0,1,7.982,7.982v12.311a15.94,15.94,0,0,1-9.288,14.479Zm25.8,0h-12a18.313,18.313,0,0,0,6.3-9.056h.055a7.7,7.7,0,0,0,5.646-2.46Zm-.617-15.045.048.012a5.383,5.383,0,0,1-4.56,3.593,18.265,18.265,0,0,0,.255-3.039v-7.617a5.382,5.382,0,0,1,4.392,3.839l-.135.035a1.636,1.636,0,0,0-1.24,1.588A1.636,1.636,0,0,0-611.205,2095.5Zm.617-7.008a7.707,7.707,0,0,0-4.874-2.42v-2.316a10.355,10.355,0,0,0-6.829-9.724v-1.7a14.749,14.749,0,0,0-1.819-7.122h4.164a13.933,13.933,0,0,1,6.661,4.861,13.566,13.566,0,0,1,2.7,8.14Zm14.916-25.638h-6.443a1.178,1.178,0,0,0-1.179,1.179,1.178,1.178,0,0,0,1.179,1.178h6.443v44.807a.527.527,0,0,1-.525.526h-12.033v-13.466a6.625,6.625,0,0,1,.931,2.326,1.636,1.636,0,0,0,1.588,1.24,1.636,1.636,0,0,0,1.588-1.24c.643-2.57,1.336-3.264,3.9-3.905a1.636,1.636,0,0,0,1.242-1.588,1.634,1.634,0,0,0-1.242-1.588c-2.569-.643-3.262-1.336-3.9-3.9a1.635,1.635,0,0,0-1.588-1.242,1.635,1.635,0,0,0-1.588,1.242,6.619,6.619,0,0,1-.931,2.324v-12.531a15.905,15.905,0,0,0-3.161-9.545,16.238,16.238,0,0,0-3.5-3.456h7.278a1.179,1.179,0,0,0,1.179-1.178,1.179,1.179,0,0,0-1.179-1.179h-51.255v-6.67h61.821a1.379,1.379,0,0,1,1.378,1.378Zm-12.891,31.058a5.473,5.473,0,0,0,2.852-2.851,5.474,5.474,0,0,0,2.852,2.851,5.474,5.474,0,0,0-2.852,2.852A5.473,5.473,0,0,0-608.564,2093.916Z" transform="translate(673.784 -2053.83)"/>
      <path id="Trazado_160142" data-name="Trazado 160142" d="M-642.231,2090.007a1.179,1.179,0,0,0-.394-1.619l-2.392-1.454,2.833-5.658a1.177,1.177,0,0,0-.527-1.581,1.178,1.178,0,0,0-1.581.526l-3.318,6.629a1.179,1.179,0,0,0,.441,1.535l3.32,2.018a1.166,1.166,0,0,0,.611.172A1.18,1.18,0,0,0-642.231,2090.007Z" transform="translate(683.276 -2044.451)"/>
      <path id="Trazado_160143" data-name="Trazado 160143" d="M-650.081,2079.149a1.179,1.179,0,0,0-1.179,1.179v4.124a1.179,1.179,0,0,0,1.179,1.179,1.179,1.179,0,0,0,1.179-1.179v-4.124a1.179,1.179,0,0,0-1.179-1.179Z" transform="translate(681.992 -2044.604)"/>
      <path id="Trazado_160144" data-name="Trazado 160144" d="M-638.167,2079.149a1.178,1.178,0,0,0-1.179,1.179v4.124a1.178,1.178,0,0,0,1.179,1.179,1.178,1.178,0,0,0,1.177-1.179v-4.124a1.178,1.178,0,0,0-1.177-1.179Z" transform="translate(686.333 -2044.604)"/>
      <path id="Trazado_160145" data-name="Trazado 160145" d="M-633.192,2078.423a1.18,1.18,0,0,0,0-1.667,5.749,5.749,0,0,0-4.093-1.7,5.749,5.749,0,0,0-4.093,1.7,1.18,1.18,0,0,0,0,1.667,1.18,1.18,0,0,0,1.667,0,3.405,3.405,0,0,1,2.426-1.007,3.405,3.405,0,0,1,2.426,1.007,1.18,1.18,0,0,0,.834.345,1.18,1.18,0,0,0,.834-.345Z" transform="translate(685.467 -2046.094)"/>
      <path id="Trazado_160146" data-name="Trazado 160146" d="M-636.353,2086.795a1.178,1.178,0,0,0-1.179,1.179,5.62,5.62,0,0,1-5.615,5.614,1.179,1.179,0,0,0-1.179,1.179,1.179,1.179,0,0,0,1.179,1.179,7.98,7.98,0,0,0,7.971-7.972A1.178,1.178,0,0,0-636.353,2086.795Z" transform="translate(684.519 -2041.817)"/>
      <path id="Trazado_160147" data-name="Trazado 160147" d="M-655.33,2086.3a12.533,12.533,0,0,0-12.519,12.519,12.533,12.533,0,0,0,12.519,12.52,12.515,12.515,0,0,0,12.128-9.415,1.177,1.177,0,0,0-.849-1.434,1.177,1.177,0,0,0-1.434.849,10.16,10.16,0,0,1-9.846,7.643,10.174,10.174,0,0,1-10.162-10.163,10.173,10.173,0,0,1,10.162-10.161,10.136,10.136,0,0,1,9.87,7.753,1.179,1.179,0,0,0,1.425.865,1.179,1.179,0,0,0,.866-1.424,12.49,12.49,0,0,0-12.161-9.551Z" transform="translate(675.947 -2041.998)"/>
      <path id="Trazado_160148" data-name="Trazado 160148" d="M-654.712,2100.478h3.773a1.691,1.691,0,0,0,1.689-1.69v-3.771a1.691,1.691,0,0,0-1.689-1.69h-2.546v-2.544a1.692,1.692,0,0,0-1.689-1.691h-3.771a1.692,1.692,0,0,0-1.69,1.691v3.771a1.692,1.692,0,0,0,1.69,1.69h2.545v2.544A1.691,1.691,0,0,0-654.712,2100.478Zm.667-4.794h2.437v2.437h-2.437Zm-4.234-1.8v-2.436h2.437v2.436Z" transform="translate(678.575 -2040.98)"/>
      <path id="Trazado_160149" data-name="Trazado 160149" d="M-662.137,2095.387a1.692,1.692,0,0,0-1.691,1.689v3.772a1.691,1.691,0,0,0,1.691,1.689h3.771a1.691,1.691,0,0,0,1.691-1.689v-3.772a1.692,1.692,0,0,0-1.691-1.689Zm3.1,4.794h-2.437v-2.437h2.437Z" transform="translate(677.412 -2038.686)"/>
      <path id="Trazado_160150" data-name="Trazado 160150" d="M-621.446,2073.767h-1.369a1.178,1.178,0,0,0-1.177,1.179,1.178,1.178,0,0,0,1.177,1.179h1.369v1.367a1.179,1.179,0,0,0,1.179,1.179,1.179,1.179,0,0,0,1.179-1.179v-1.367h1.367a1.179,1.179,0,0,0,1.179-1.179,1.179,1.179,0,0,0-1.179-1.179h-1.367V2072.4a1.179,1.179,0,0,0-1.179-1.179,1.179,1.179,0,0,0-1.179,1.179Z" transform="translate(691.929 -2047.493)"/>
      <path id="Trazado_160151" data-name="Trazado 160151" d="M-665.677,2080.3v-1.367h1.367a1.179,1.179,0,0,0,1.179-1.179,1.179,1.179,0,0,0-1.179-1.179h-1.367v-1.369a1.179,1.179,0,0,0-1.179-1.179,1.178,1.178,0,0,0-1.179,1.179v1.369H-669.4a1.179,1.179,0,0,0-1.179,1.179,1.179,1.179,0,0,0,1.179,1.179h1.368v1.367a1.178,1.178,0,0,0,1.179,1.179A1.179,1.179,0,0,0-665.677,2080.3Z" transform="translate(674.951 -2046.47)"/>
      <path id="Trazado_160152" data-name="Trazado 160152" d="M-605.514,2099.033h-38.333a2.034,2.034,0,0,0-2.032,2.032V2113.1a2.034,2.034,0,0,0,2.032,2.031h8.616a1.179,1.179,0,0,0,1.179-1.179,1.179,1.179,0,0,0-1.179-1.179h-8.29V2101.39h37.68v11.381h-23.889a1.178,1.178,0,0,0-1.177,1.179,1.178,1.178,0,0,0,1.177,1.179h24.217a2.034,2.034,0,0,0,2.03-2.031v-12.033a2.034,2.034,0,0,0-2.03-2.032Z" transform="translate(683.953 -2037.358)"/>
      <path id="Trazado_160153" data-name="Trazado 160153" d="M-619.456,2109.534a3.635,3.635,0,0,0,3.434-2.453h5.889a1.179,1.179,0,0,0,1.179-1.179,1.179,1.179,0,0,0-1.179-1.178h-5.889a3.635,3.635,0,0,0-3.434-2.453,3.638,3.638,0,0,0-3.434,2.453h-18.645a1.179,1.179,0,0,0-1.179,1.178,1.179,1.179,0,0,0,1.179,1.179h18.645A3.637,3.637,0,0,0-619.456,2109.534Zm0-4.906a1.275,1.275,0,0,1,1.274,1.273,1.276,1.276,0,0,1-1.274,1.275,1.276,1.276,0,0,1-1.274-1.275A1.275,1.275,0,0,1-619.456,2104.628Z" transform="translate(685.106 -2036.178)"/>
    </g>
  </g>
</svg>
