<svg xmlns="http://www.w3.org/2000/svg" width="156.415" height="146.604" viewBox="0 0 156.415 146.604">
  <g id="Grupo_100736" data-name="Grupo 100736" transform="translate(-174.483 -181.44)">
    <path id="Trazado_160183" data-name="Trazado 160183" d="M321.384,325.8H184.1a7.277,7.277,0,0,1-7.276-7.275V191.059a7.276,7.276,0,0,1,7.276-7.275H321.384a7.275,7.275,0,0,1,7.276,7.275v127.47A7.277,7.277,0,0,1,321.384,325.8Z" transform="translate(-0.053 -0.053)" fill="#f6d867"/>
    <path id="Trazado_160184" data-name="Trazado 160184" d="M324.485,183.784H313.793a7.275,7.275,0,0,1,7.275,7.275v127.47a7.276,7.276,0,0,1-7.275,7.275h10.692a7.277,7.277,0,0,0,7.276-7.275V191.059A7.276,7.276,0,0,0,324.485,183.784Z" transform="translate(-3.154 -0.053)" fill="#e0c55e"/>
    <path id="Trazado_160185" data-name="Trazado 160185" d="M176.827,211.114H328.661V191.059a7.276,7.276,0,0,0-7.276-7.275H184.1a7.276,7.276,0,0,0-7.276,7.275Z" transform="translate(-0.053 -0.053)" fill="#2f94ff"/>
    <path id="Trazado_160186" data-name="Trazado 160186" d="M324.485,183.784H313.793a7.275,7.275,0,0,1,7.275,7.275v20.054h10.693V191.059A7.276,7.276,0,0,0,324.485,183.784Z" transform="translate(-3.154 -0.053)" fill="#116dd9"/>
    <path id="Trazado_160187" data-name="Trazado 160187" d="M200.742,197.641a5.394,5.394,0,1,1-5.393-5.393A5.392,5.392,0,0,1,200.742,197.641Z" transform="translate(-0.35 -0.245)" fill="#fa5d72"/>
    <path id="Trazado_160188" data-name="Trazado 160188" d="M219.422,197.641a5.393,5.393,0,1,1-5.394-5.393A5.393,5.393,0,0,1,219.422,197.641Z" transform="translate(-0.773 -0.245)" fill="#f6d867"/>
    <path id="Trazado_160189" data-name="Trazado 160189" d="M238.1,197.641a5.394,5.394,0,1,1-5.393-5.393A5.392,5.392,0,0,1,238.1,197.641Z" transform="translate(-1.196 -0.245)" fill="#5994ce"/>
    <path id="Trazado_160190" data-name="Trazado 160190" d="M176.827,320.307a7.277,7.277,0,0,0,7.276,7.275h88.536V271.5a9.2,9.2,0,0,0-9.2-9.2h-86.61Z" transform="translate(-0.053 -1.831)" fill="#fba826"/>
    <path id="Trazado_160191" data-name="Trazado 160191" d="M265.178,262.3H253.753a9.2,9.2,0,0,1,9.2,9.2v56.08h11.425V271.5A9.2,9.2,0,0,0,265.178,262.3Z" transform="translate(-1.795 -1.831)" fill="#e09721"/>
    <path id="Trazado_160192" data-name="Trazado 160192" d="M202.98,197.588a7.684,7.684,0,1,0-7.684,7.684A7.692,7.692,0,0,0,202.98,197.588Zm-7.684,3.1a3.1,3.1,0,1,1,3.1-3.1A3.105,3.105,0,0,1,195.3,200.689Z" transform="translate(-0.297 -0.192)"/>
    <path id="Trazado_160193" data-name="Trazado 160193" d="M213.975,205.272a7.684,7.684,0,1,0-7.684-7.684A7.693,7.693,0,0,0,213.975,205.272Zm0-10.786a3.1,3.1,0,1,1-3.1,3.1A3.106,3.106,0,0,1,213.975,194.486Z" transform="translate(-0.72 -0.192)"/>
    <path id="Trazado_160194" data-name="Trazado 160194" d="M232.655,205.272a7.684,7.684,0,1,0-7.685-7.684A7.693,7.693,0,0,0,232.655,205.272Zm0-10.786a3.1,3.1,0,1,1-3.1,3.1A3.106,3.106,0,0,1,232.655,194.486Z" transform="translate(-1.143 -0.192)"/>
    <path id="Trazado_160195" data-name="Trazado 160195" d="M258.722,200h55.8a2.291,2.291,0,1,0,0-4.583h-55.8a2.291,2.291,0,1,0,0,4.583Z" transform="translate(-1.855 -0.317)"/>
    <path id="Trazado_160196" data-name="Trazado 160196" d="M321.331,181.44H184.05a9.578,9.578,0,0,0-9.567,9.566v127.47a9.579,9.579,0,0,0,9.567,9.567H321.331a9.579,9.579,0,0,0,9.567-9.567V191.006A9.578,9.578,0,0,0,321.331,181.44Zm0,142.021H274.877V302.053a2.291,2.291,0,0,0-4.582,0v21.408H184.05a4.99,4.99,0,0,1-4.985-4.985V262.759h84.318a6.92,6.92,0,0,1,6.912,6.913V293.5a2.291,2.291,0,1,0,4.582,0V269.672a11.508,11.508,0,0,0-11.494-11.495H179.066V213.353h12.772a2.291,2.291,0,0,0,0-4.583H179.066V191.006a4.99,4.99,0,0,1,4.985-4.985H321.331a4.99,4.99,0,0,1,4.985,4.985V208.77H200.392a2.291,2.291,0,0,0,0,4.583H326.316V318.476A4.99,4.99,0,0,1,321.331,323.461Z"/>
    <path id="Trazado_160197" data-name="Trazado 160197" d="M312.283,224.187l-13.272,1.12a2.291,2.291,0,0,0,.384,4.566l7.03-.593-23.112,23.112a2.291,2.291,0,0,0,3.24,3.241l23.113-23.113-.594,7.03a2.292,2.292,0,1,0,4.567.385c0-.03,1.123-13.312,1.121-13.28A2.291,2.291,0,0,0,312.283,224.187Z" transform="translate(-2.449 -0.968)"/>
  </g>
</svg>
