<svg xmlns="http://www.w3.org/2000/svg" width="111.409" height="33.781" viewBox="0 0 111.409 33.781">
  <path id="Trazado_160621" data-name="Trazado 160621" d="M11.933,9.564A11.5,11.5,0,0,1,23.641,19.611l-6.178,0a5.435,5.435,0,0,0-5.5-4.308c-3.441.009-5.889,2.62-5.877,6.361-.012,3.858,2.573,6.368,5.842,6.375a5.489,5.489,0,0,0,5.539-4.315l6.178,0A11.491,11.491,0,0,1,11.966,33.781,11.786,11.786,0,0,1,0,21.673,11.76,11.76,0,0,1,11.933,9.564Zm29.323,5.708H32.732V33.165h-6V10.027H41.256ZM54.848,9.564A11.666,11.666,0,0,1,66.635,22.83H49.06a5.805,5.805,0,0,0,5.993,5.83c2.594,0,4.81-1.3,5.363-3.824h6.188c-.942,5.7-5.96,8.946-11.578,8.946a11.767,11.767,0,0,1-12.07-12.1A11.755,11.755,0,0,1,54.848,9.564Zm.188,4.782A5.5,5.5,0,0,0,49.6,18.665H60.417A5.283,5.283,0,0,0,55.036,14.346ZM75.87,33.165H69.843V0H75.87Zm8.653,0H78.5V0h6.027Zm14.833-23.6a11.9,11.9,0,0,1,12.053,12.112,12.052,12.052,0,1,1-24.1,0A11.9,11.9,0,0,1,99.356,9.564Zm-.077,5.708c-3.346-.007-5.95,2.547-5.95,6.322,0,3.791,2.623,6.326,5.952,6.326,3.358,0,5.946-2.528,5.946-6.324C105.228,17.827,102.63,15.265,99.279,15.272Z" fill="#2557c9" fill-rule="evenodd"/>
</svg>
