<svg id="Grupo_100796" data-name="Grupo 100796" xmlns="http://www.w3.org/2000/svg" width="142.234" height="38.327" viewBox="0 0 142.234 38.327">
  <path id="Trazado_160636" data-name="Trazado 160636" d="M6.158,220.963a16.009,16.009,0,0,0-2.464,3.276L2.654,223.7a1.364,1.364,0,0,0-1.473-1.05,1.354,1.354,0,0,0,.33,2.687,1.078,1.078,0,0,0,.406-.128l1.016.538a16.233,16.233,0,0,0-1.194,3.916l1.676.307A14.951,14.951,0,0,1,7.4,222.166Z" transform="translate(0 -211.533)" fill="#1273eb"/>
  <path id="Trazado_160637" data-name="Trazado 160637" d="M46.955,191.278c-.381,0-.762.026-1.143.026l-.153-1.408a1.617,1.617,0,0,0,.584-1.459,1.6,1.6,0,1,0-2.26,1.638l.153,1.408a16.32,16.32,0,0,0-4.6,1.459l.736,1.536a15.375,15.375,0,0,1,6.679-1.51,15.911,15.911,0,0,1,3.3.358l.356-1.664a17.568,17.568,0,0,0-3.658-.384Z" transform="translate(-28.555 -187.018)" fill="#1273eb"/>
  <path id="Trazado_160638" data-name="Trazado 160638" d="M102.354,214.913a1.354,1.354,0,0,0-.33-2.687,1.374,1.374,0,0,0-1.194,1.356l-.94.819a17.058,17.058,0,0,0-3.149-2.559l-.889,1.433a15.188,15.188,0,0,1,5.714,6.578l1.549-.691a16.688,16.688,0,0,0-2.108-3.481l.889-.793a.93.93,0,0,0,.457.025Z" transform="translate(-69.224 -204.946)" fill="#1273eb"/>
  <path id="Trazado_160639" data-name="Trazado 160639" d="M33.322,274.191q-1.3.077-2.59.077a34.125,34.125,0,0,1-5.537-.409,18.81,18.81,0,0,1-2.844-.666,13.781,13.781,0,0,0,25.3-3.122A22.808,22.808,0,0,1,42.16,272.6a34.587,34.587,0,0,1-8.838,1.587Z" transform="translate(-16.142 -246.998)" fill="#1273eb"/>
  <path id="Trazado_160640" data-name="Trazado 160640" d="M30.976,214.6a13.482,13.482,0,0,0-13.562,13.361,13.337,13.337,0,0,0,.3,2.841c1.5,1.075,6.044,2,11.937,1.638,6.425-.384,11.81-2.15,14.882-4.863a11.284,11.284,0,0,0-.1-1.305A13.513,13.513,0,0,0,30.976,214.6Zm-4.825,14.641a4.147,4.147,0,1,1,4.114-4.146A4.129,4.129,0,0,1,26.151,229.246ZM36.716,227.2a3.046,3.046,0,1,1,3.022-3.046A3.009,3.009,0,0,1,36.716,227.2Z" transform="translate(-12.576 -206.941)" fill="#1273eb"/>
  <path id="Trazado_160641" data-name="Trazado 160641" d="M162.789,217.871a6.377,6.377,0,0,0-3.073-.538,1.935,1.935,0,0,0-1.879,2.252v1.945h4.978V225.4h-4.978v12.26h-4.318V225.4h-3v-3.839h3v-2c0-3.788,2.006-6.245,5.74-6.245a8.975,8.975,0,0,1,3.556.691Z" transform="translate(-108.707 -206.01)" fill="#1273eb"/>
  <path id="Trazado_160642" data-name="Trazado 160642" d="M209.484,245.664a6.193,6.193,0,0,0-1.168-.1c-2.006,0-3.378,1.228-3.378,3.634v8.779h-4.318V241.85h4.165v1.766a5.048,5.048,0,0,1,4.5-2.2,3.911,3.911,0,0,1,2.438.768Z" transform="translate(-144.888 -226.303)" fill="#1273eb"/>
  <path id="Trazado_160643" data-name="Trazado 160643" d="M252.788,249.956a12.342,12.342,0,0,1-.076,1.459H241.359a3.875,3.875,0,0,0,4.114,3.353,6.411,6.411,0,0,0,4.038-1.536l2.514,2.79a9.664,9.664,0,0,1-6.806,2.457c-4.9,0-8.3-3.353-8.3-8.446,0-5.068,3.3-8.523,8.1-8.523,4.6-.026,7.746,3.4,7.771,8.446Zm-11.4-1.51h7.086c-.406-2.073-1.625-3.225-3.479-3.225-2.057,0-3.225,1.229-3.606,3.225Z" transform="translate(-171.1 -226.372)" fill="#1273eb"/>
  <path id="Trazado_160644" data-name="Trazado 160644" d="M314.223,249.956a12.346,12.346,0,0,1-.076,1.459H302.795a3.875,3.875,0,0,0,4.114,3.353,6.411,6.411,0,0,0,4.038-1.536l2.514,2.79a9.663,9.663,0,0,1-6.806,2.457c-4.9,0-8.3-3.353-8.3-8.446,0-5.068,3.3-8.523,8.1-8.523,4.6-.026,7.746,3.4,7.771,8.446Zm-11.4-1.51h7.086c-.406-2.073-1.625-3.225-3.479-3.225-2.032,0-3.225,1.229-3.606,3.225Z" transform="translate(-215.468 -226.372)" fill="#1273eb"/>
  <path id="Trazado_160645" data-name="Trazado 160645" d="M378.989,249.954c0,4.837-3.327,8.5-7.746,8.5a5.786,5.786,0,0,1-4.7-2.1V264.7h-4.292v-22.78h4.216v1.792a5.79,5.79,0,0,1,4.775-2.2c4.419-.025,7.746,3.609,7.746,8.447Zm-12.673,0a4.139,4.139,0,1,0,8.254,0c0-2.483-1.575-4.453-4.14-4.453A4.162,4.162,0,0,0,366.316,249.954Z" transform="translate(-261.619 -226.37)" fill="#1273eb"/>
  <path id="Trazado_160646" data-name="Trazado 160646" d="M433.13,216.658a2.756,2.756,0,1,1-2.768-2.79A2.753,2.753,0,0,1,433.13,216.658Zm-.584,21.4h-4.318V221.931h4.318Z" transform="translate(-308.826 -206.409)" fill="#1273eb"/>
  <path id="Trazado_160647" data-name="Trazado 160647" d="M459.87,228.289l6.019-5.733h5.283l-7.771,7.576,7.8,8.523h-5.308l-6.07-6.527v6.527H455.5V214.7h4.318v13.591Z" transform="translate(-328.963 -207.008)" fill="#1273eb"/>
</svg>
