<svg xmlns="http://www.w3.org/2000/svg" width="70.675" height="70.675" viewBox="0 0 70.675 70.675">
  <path id="Trazado_161385" data-name="Trazado 161385" d="M-50.972-9.075A35.338,35.338,0,0,0-86.31,26.263,35.338,35.338,0,0,0-50.972,61.6,35.338,35.338,0,0,0-15.635,26.263,35.38,35.38,0,0,0-50.972-9.075Zm33.924,35.338a34.219,34.219,0,0,1-.177,3.477l-6-.707c.085-.9.134-1.816.134-2.735a25.464,25.464,0,0,0-.127-2.587l6-.707A20.53,20.53,0,0,1-17.048,26.263Zm-67.848,0a34.132,34.132,0,0,1,.17-3.421l6,.707c-.085.883-.134,1.781-.134,2.686s.049,1.8.134,2.686l-6,.707A32.684,32.684,0,0,1-84.9,26.263Zm60.286-9.138L-18.956,15a33.669,33.669,0,0,1,1.6,6.587l-6,.707A27.636,27.636,0,0,0-24.61,17.124Zm.163,9.138a26.511,26.511,0,0,1-.509,5.159L-30.9,30.051a20.3,20.3,0,0,0,0-7.732l5.951-1.343A26.544,26.544,0,0,1-24.448,26.263ZM-50.972,45.3a19.04,19.04,0,0,1-19.04-19.04,19.04,19.04,0,0,1,19.04-19.04,19.04,19.04,0,0,1,19.04,19.04A19.082,19.082,0,0,1-50.972,45.3Zm.643,7.463v-6.1a20.268,20.268,0,0,0,7.591-1.732l2.636,5.5a26.349,26.349,0,0,1-10.227,2.339Zm-11.6-2.361,2.65-5.491a20.288,20.288,0,0,0,7.6,1.76v6.092A26.341,26.341,0,0,1-61.934,50.405ZM-77.5,26.263a26.575,26.575,0,0,1,.544-5.371l5.944,1.364a20.311,20.311,0,0,0-.049,7.732l-5.951,1.35A26.529,26.529,0,0,1-77.5,26.263Zm25.818-26.5v6.1a20.278,20.278,0,0,0-7.485,1.7l-2.643-5.491A26.342,26.342,0,0,1-51.679-.241Zm11.612,2.332-2.664,5.484a20.289,20.289,0,0,0-7.534-1.724V-.241A26.336,26.336,0,0,1-40.067,2.092Zm14.976,13.739a27.809,27.809,0,0,0-2.46-4.721L-22.6,7.689A33.9,33.9,0,0,1-19.465,13.7Zm-.191,3.8-5.958,1.343A20.366,20.366,0,0,0-34.6,14.05l4.778-3.781a26.436,26.436,0,0,1,4.537,9.364Zm-10.2-6.665a20.566,20.566,0,0,0-6.007-4.792l2.664-5.484A26.677,26.677,0,0,1-30.7,9.173Zm-1.774-11,2.827-5.343A34.073,34.073,0,0,1-28.865.523L-32.887,5.06A28.02,28.02,0,0,0-37.254,1.972Zm-1.223-.65A27.736,27.736,0,0,0-43.424-.608l1.463-5.866A33.713,33.713,0,0,1-35.6-4.022ZM-44.8-.947a27.82,27.82,0,0,0-5.385-.707V-7.661a33.865,33.865,0,0,1,6.848.848Zm-6.771-.707a27.9,27.9,0,0,0-5.315.622L-58.3-6.9a33.942,33.942,0,0,1,6.735-.763Zm-6.665.947A27.719,27.719,0,0,0-63.256,1.18l-2.8-5.308a33.7,33.7,0,0,1,6.361-2.41Zm-6.241,2.53A28,28,0,0,0-68.9,4.862L-72.882.367A34.128,34.128,0,0,1-67.27-3.506Zm1.414.806,2.643,5.491a20.569,20.569,0,0,0-6.022,4.771l-4.764-3.8a26.679,26.679,0,0,1,8.17-6.431Zm-8.99,7.562,4.764,3.8a20.371,20.371,0,0,0-3.392,6.912l-5.951-1.364A26.437,26.437,0,0,1-72.055,10.191Zm-4.742,5.47-5.654-2.12a33.949,33.949,0,0,1,3.209-6.029l4.947,3.435A27.87,27.87,0,0,0-76.8,15.661Zm-.495,1.293a27.712,27.712,0,0,0-1.293,5.209l-5.993-.707a33.664,33.664,0,0,1,1.64-6.629Zm-1.293,13.365a27.712,27.712,0,0,0,1.293,5.209l-5.654,2.12a33.691,33.691,0,0,1-1.633-6.622Zm1.781,6.509A27.882,27.882,0,0,0-74.3,41.571L-79.242,45a33.941,33.941,0,0,1-3.209-6.014Zm.092-4.142,5.951-1.35a20.341,20.341,0,0,0,3.329,7l-4.742,3.8a26.424,26.424,0,0,1-4.53-9.449Zm10.128,6.742a20.561,20.561,0,0,0,6.043,4.884L-63.185,49.8a26.688,26.688,0,0,1-8.163-6.573Zm2.078,11.237-2.827,5.35a34.058,34.058,0,0,1-5.548-3.873l4.007-4.516a28.011,28.011,0,0,0,4.382,3.039Zm1.23.643a27.721,27.721,0,0,0,5,1.887l-1.456,5.866a33.7,33.7,0,0,1-6.361-2.41Zm6.361,2.219a27.824,27.824,0,0,0,5.308.629v6.029a33.9,33.9,0,0,1-6.749-.806Zm6.693.622a27.878,27.878,0,0,0,5.3-.65l1.414,5.866a33.927,33.927,0,0,1-6.757.82Zm6.643-.982a27.726,27.726,0,0,0,4.983-1.9l2.827,5.35a33.735,33.735,0,0,1-6.361,2.424Zm6.205-2.551a28.034,28.034,0,0,0,4.382-3.032L-29,52.116a34.1,34.1,0,0,1-5.569,3.831Zm-1.477-.785-2.636-5.5a20.545,20.545,0,0,0,6.064-4.855l4.756,3.809a26.689,26.689,0,0,1-8.177,6.552Zm9.082-7.626L-34.526,38.4a20.365,20.365,0,0,0,3.343-6.99l5.944,1.371A26.435,26.435,0,0,1-29.77,42.207Zm4.622-5.343,5.654,2.12a33.934,33.934,0,0,1-3.209,6l-4.947-3.442A27.876,27.876,0,0,0-25.148,36.864Zm.495-1.293A27.653,27.653,0,0,0-23.367,30.4l5.993.707a33.7,33.7,0,0,1-1.633,6.58Zm1.293-28.977-4.947,3.421a28.131,28.131,0,0,0-3.534-4.007L-27.826,1.5a34.21,34.21,0,0,1,4.467,5.046ZM-73.935,1.279-69.927,5.8a28.131,28.131,0,0,0-3.534,4.007l-4.947-3.435A34.241,34.241,0,0,1-73.935,1.279Zm-4.544,44.858,4.947-3.428a28.163,28.163,0,0,0,3.534,4l-4.014,4.516A34.258,34.258,0,0,1-78.479,46.137ZM-27.96,51.2l-4-4.53a28.178,28.178,0,0,0,3.534-3.986l4.947,3.442A34.238,34.238,0,0,1-27.953,51.2Z" transform="translate(86.31 9.075)"/>
</svg>
