<svg id="Grupo_100883" data-name="Grupo 100883" xmlns="http://www.w3.org/2000/svg" width="67.748" height="73.375" viewBox="0 0 67.748 73.375">
  <path id="Trazado_161376" data-name="Trazado 161376" d="M1016.691,1032.737v41.938H1056.8a4.707,4.707,0,0,0,4.713-4.713V1037.45a4.707,4.707,0,0,0-4.713-4.713Z" transform="translate(-993.768 -1001.301)" fill="#e2e2e2" opacity="0.712" style="isolation: isolate"/>
  <path id="Trazado_161377" data-name="Trazado 161377" d="M981.655,953.814c.289.193.579.367.865.575-.289-.208-.594-.4-.865-.575Zm2.057,1.444c.347.251.671.521,1,.768C984.388,955.76,984.056,955.5,983.713,955.258ZM959.05,968.84c-.251.482-.5.961-.729,1.443.232-.482.479-.961.729-1.443Zm-4.5,14.122c-2.038,15.774,5.021,32.629,22.644,41.649v-19.719l-.077.078Z" transform="translate(-954.209 -951.333)" fill="#0b552b"/>
  <path id="Trazado_161378" data-name="Trazado 161378" d="M984.267,957.749c.347.251.671.521,1,.768C984.942,958.251,984.61,958,984.267,957.749Zm-15.388,2c-.749.656-1.482,1.308-2.173,2.019v.019A24.17,24.17,0,0,1,968.878,959.748Zm-2.2,11.525v.077H959.6a41.717,41.717,0,0,0-4.52,14.1l22.587,22.046.077-.077V982.161l-.077.077Z" transform="translate(-954.763 -953.824)" fill="#0b8142"/>
  <path id="Trazado_161379" data-name="Trazado 161379" d="M1021.347,953.814c.289.193.579.367.865.575-.278-.2-.568-.4-.865-.575Zm2.057,1.444c.347.251.671.521,1,.768C1024.08,955.76,1023.748,955.5,1023.4,955.258Zm15.909,27.3-22.413,22.335v19.719c18.468-10.429,24.57-26.99,22.413-42.054Z" transform="translate(-993.901 -951.333)" fill="#8bc249"/>
  <path id="Trazado_161380" data-name="Trazado 161380" d="M1023.4,957.749c.347.251.671.521,1,.768C1024.08,958.251,1023.748,958,1023.4,957.749Zm2.115,1.714c.27.232.559.482.826.729-.266-.251-.556-.5-.826-.729Zm.81.729.922.865C1026.944,960.771,1026.658,960.482,1026.33,960.192Zm.922.865c.309.289.594.6.884.9-.286-.3-.575-.594-.884-.9Zm.884.907c.579.614,1.154,1.231,1.713,1.884C1029.31,963.195,1028.734,962.577,1028.136,961.964Zm3.292,3.883.749,1.038Zm.749,1.042L1016.9,982.161v25.222l22.432-22.335a42.557,42.557,0,0,0-7.156-18.159Z" transform="translate(-993.901 -953.824)" fill="#aed580"/>
  <path id="Trazado_161381" data-name="Trazado 161381" d="M997.812,947.05A41.027,41.027,0,0,0,986.75,955v9.5l10.984,10.984.077-.077V947.05Z" transform="translate(-974.812 -947.05)" fill="#32ac71"/>
  <path id="Trazado_161382" data-name="Trazado 161382" d="M1016.9,947.05v28.337l15.276-15.272A38.716,38.716,0,0,0,1016.9,947.05Z" transform="translate(-993.901 -947.05)" fill="#b2ff59"/>
</svg>
