<svg id="Grupo_100804" data-name="Grupo 100804" xmlns="http://www.w3.org/2000/svg" width="77.267" height="77.267" viewBox="0 0 77.267 77.267">
  <rect id="Rectángulo_24402" data-name="Rectángulo 24402" width="77.267" height="77.267" transform="translate(0 0)" fill="#232528"/>
  <g id="Grupo_100805" data-name="Grupo 100805" transform="translate(7.465 7.289)">
    <circle id="Elipse_5269" data-name="Elipse 5269" cx="31.464" cy="31.464" r="31.464" fill="#fff"/>
    <g id="Grupo_100804-2" data-name="Grupo 100804" transform="translate(10.306 19.519)">
      <path id="Trazado_160686" data-name="Trazado 160686" d="M122.647,504.212h10.415a.955.955,0,0,1,.575,1.561c-1.38,2.337-3.946,6.655-5.086,8.383-.239.363-.914,1.272-1.737,0a78.033,78.033,0,0,1-5.081-8.565C121.154,504.212,122.647,504.212,122.647,504.212Z" transform="translate(-91.524 -504.212)" fill="#232528"/>
      <path id="Trazado_160687" data-name="Trazado 160687" d="M91.748,504.212h-11.8c-3,0-1.748,3.2-1.748,3.2l18.268,29.743s1.833,2.616,4.162-.2c1.411-1.708,4.881-7.4,4.881-7.4s.546-1.42-1.257-4.315S91.748,504.212,91.748,504.212Z" transform="translate(-77.941 -504.212)" fill="#232528"/>
    </g>
  </g>
</svg>
