<svg id="Grupo_100891" data-name="Grupo 100891" xmlns="http://www.w3.org/2000/svg" width="76.142" height="76.297" viewBox="0 0 76.142 76.297">
  <rect id="rect4474-8-5-7-4" width="72.319" height="71.939" rx="16.976" transform="translate(1.874 2.016)" fill="#001c24"/>
  <path id="path7-4" d="M37.462,36.277c0-.123.247-.21.387-.21,1.127-.053,2.8-.088,4.542-.088,4.876,0,6.777,2.67,6.777,6.094,0,4.46-3.239,6.374-7.217,6.374-.669,0-.9-.035-1.374-.035v6.744c0,.14-.053.211-.211.211H37.673c-.141,0-.211-.053-.211-.211V36.276ZM40.6,45.6c.4.035.722.035,1.426.035,2.059,0,4-.72,4-3.512,0-2.231-1.39-3.354-3.732-3.354-.7,0-1.373.035-1.69.053V45.6Zm15.14-2.089c-1.391,0-1.866.7-1.866,1.282,0,.632.317,1.071,2.183,2.037,2.764,1.334,3.626,2.617,3.626,4.5,0,2.809-2.148,4.32-5.052,4.32a7.672,7.672,0,0,1-3.609-.755c-.124-.053-.141-.141-.141-.281V52.029c0-.176.088-.229.211-.14a6.549,6.549,0,0,0,3.539,1.036c1.39,0,1.971-.579,1.971-1.37,0-.632-.4-1.194-2.182-2.107-2.5-1.195-3.539-2.406-3.539-4.426,0-2.265,1.778-4.144,4.859-4.144a8.117,8.117,0,0,1,3.151.491.389.389,0,0,1,.176.352v2.405c0,.141-.087.229-.264.176A5.953,5.953,0,0,0,55.736,43.512Z" transform="translate(-9.305 -8.639)" fill="#03c7fc"/>
  <path id="path813-1" d="M47.829,65.465a6.388,6.388,0,0,1-2.066,1.1,6.832,6.832,0,0,1-6.4-1.43c-.246-.206-2.834-2.833-9.158-9.3-9.667-9.876-8.909-9.075-9.4-9.919a7.187,7.187,0,0,1-.952-4.088,6.7,6.7,0,0,1,1.092-3.16c.177-.277.692-.8,8.92-9.155,6.15-6.24,8.834-8.946,9.076-9.145a6.4,6.4,0,0,1,3.649-1.452,7.081,7.081,0,0,1,4.591,1.348c.279.207,1.176,1.11,9.3,9.389,7.964,8.117,9.011,9.2,9.2,9.46a7.368,7.368,0,0,1,1.28,3.282,6.735,6.735,0,0,1-1.414,5.124c-.329.4-17.326,17.616-17.72,17.941ZM64.042,46.593a.339.339,0,0,1,.111-.112.222.222,0,0,0,.1-.107.362.362,0,0,1,.058-.117,3.236,3.236,0,0,0,.459-.891.307.307,0,0,1,.048-.1,1.669,1.669,0,0,0,.093-.3,1.533,1.533,0,0,1,.1-.3.867.867,0,0,0,.054-.286,2.14,2.14,0,0,1,.054-.337,1.132,1.132,0,0,0,.029-.306c0-.121.008-.352.016-.512a.807.807,0,0,0-.016-.33.337.337,0,0,1-.039-.145c-.016-.318-.026-.418-.051-.444a.091.091,0,0,1-.008-.082.465.465,0,0,0-.036-.234c-.035-.1-.077-.239-.1-.315-.036-.148-.233-.727-.33-.97a2.284,2.284,0,0,0-.182-.334,2.894,2.894,0,0,1-.158-.266,2.554,2.554,0,0,0-.313-.462,2.34,2.34,0,0,1-.175-.255c-.061-.122-16.942-17.312-17.122-17.435-.054-.038-.195-.143-.315-.229a1.448,1.448,0,0,0-.265-.165.91.91,0,0,1-.238-.133,5.435,5.435,0,0,0-1.142-.453,2.689,2.689,0,0,1-.382-.109,7.678,7.678,0,0,0-1.679-.059.318.318,0,0,1-.138.008,1.075,1.075,0,0,0-.241.03,1.892,1.892,0,0,1-.24.058,5.991,5.991,0,0,0-1.079.355.515.515,0,0,1-.175.091.5.5,0,0,0-.184.1.139.139,0,0,1-.11.048.07.07,0,0,0-.065.032.359.359,0,0,1-.128.1,2.11,2.11,0,0,0-.4.28c-.131.1-16.983,17.172-17.1,17.318a2.406,2.406,0,0,0-.158.236c-.04.069-.086.127-.1.127s-.03.03-.035.064a.454.454,0,0,1-.087.18,1.567,1.567,0,0,0-.149.3.97.97,0,0,1-.095.218c-.03.03-.054.094-.11.3-.018.07-.057.2-.08.277a3.294,3.294,0,0,0-.129.766.107.107,0,0,1-.025.1.089.089,0,0,0-.014.1,2.065,2.065,0,0,1,0,.44,1.989,1.989,0,0,0,0,.448,1.268,1.268,0,0,1,.054.441.312.312,0,0,0,.037.164.086.086,0,0,1,.01.087.411.411,0,0,0,.021.192c.027.076.069.219.1.318s.1.321.166.494.136.376.16.444a1.65,1.65,0,0,0,.238.469c.013,0,.046.047.072.106a2,2,0,0,0,.147.261c.06.083.129.192.161.24s.1.147.152.221c.121.172,16.968,17.344,17.142,17.473a5.969,5.969,0,0,0,1.271.788,4.25,4.25,0,0,0,.632.225c.078.019.218.062.318.1a1.282,1.282,0,0,0,.307.065.331.331,0,0,1,.156.027.162.162,0,0,0,.12.012c.05-.01.1-.008.117.009a3.165,3.165,0,0,0,.549.032c.676.008.724.008.742-.014a2.291,2.291,0,0,1,.332-.059,2.765,2.765,0,0,0,.593-.122,5,5,0,0,0,.628-.267l.352-.166a.868.868,0,0,0,.091-.046.314.314,0,0,1,.052-.029,2.455,2.455,0,0,0,.469-.359c.054-.055.113-.1.131-.092C47.121,63.8,64,46.683,64.039,46.594Z" transform="translate(-5.571 -5.021)" fill="#c8effc"/>
  <g id="layerbg7-8" transform="translate(0 0)">
    <path id="path813-0" d="M13.733,77.507a13.516,13.516,0,0,1-4.607-1.4A13.943,13.943,0,0,1,1.8,64.971c-.063-.641-.08-8.029-.055-26.142.032-27.685-.008-25.477.49-27.36A14.07,14.07,0,0,1,6.719,4.357a13.662,13.662,0,0,1,6.143-2.89c.657-.138,2.169-.146,26.227-.17,17.978-.017,25.8,0,26.44.065a13.512,13.512,0,0,1,7.433,3.158,14.393,14.393,0,0,1,4.79,8.444c.111.69.127,3.239.127,26.475,0,22.781-.016,25.793-.119,26.435a14.339,14.339,0,0,1-2.842,6.446,13.631,13.631,0,0,1-9.436,5.2C64.421,77.613,14.778,77.613,13.733,77.507Zm50.878-3.451a.722.722,0,0,1,.325,0,.46.46,0,0,0,.3-.008.723.723,0,0,1,.254-.081,6.632,6.632,0,0,0,1.955-.6.641.641,0,0,1,.214-.073,3.46,3.46,0,0,0,.562-.285,3.129,3.129,0,0,1,.578-.284,1.728,1.728,0,0,0,.491-.325,4.293,4.293,0,0,1,.562-.4,2.235,2.235,0,0,0,.483-.389c.174-.171.515-.488.76-.7a1.754,1.754,0,0,0,.451-.487.669.669,0,0,1,.151-.26c.436-.471.562-.625.562-.7a.166.166,0,0,1,.111-.121,1.021,1.021,0,0,0,.285-.382c.087-.186.229-.446.308-.584.158-.26.7-1.356.91-1.835a4.474,4.474,0,0,0,.214-.731,5.669,5.669,0,0,1,.15-.6,4.956,4.956,0,0,0,.207-1.1,4.679,4.679,0,0,1,.11-.609c.087-.259.064-48.526-.024-48.956-.024-.13-.079-.479-.135-.771a2.9,2.9,0,0,0-.151-.609,1.859,1.859,0,0,1-.158-.527,10.94,10.94,0,0,0-1.021-2.265,5.482,5.482,0,0,1-.4-.7,15.891,15.891,0,0,0-2.375-2.476.647.647,0,0,1-.214-.187,2.007,2.007,0,0,0-.4-.3,3.777,3.777,0,0,1-.435-.26,12.717,12.717,0,0,0-2.09-1.039,1.092,1.092,0,0,1-.388-.122,1.077,1.077,0,0,0-.411-.121.292.292,0,0,1-.23-.09.138.138,0,0,0-.142-.048A.781.781,0,0,1,65.648,5a4.448,4.448,0,0,0-.99-.178c-.34-.041-49.564-.041-49.951-.009a5.148,5.148,0,0,0-.571.106.652.652,0,0,1-.332.032c-.024-.016-.087,0-.143.041a.984.984,0,0,1-.388.13,3.146,3.146,0,0,0-.649.21,1.9,1.9,0,0,1-.451.171c-.087,0-.214.057-.594.268-.126.073-.364.195-.515.276a6.723,6.723,0,0,0-1.29.893.238.238,0,0,1-.182.106.182.182,0,0,0-.158.113,3.975,3.975,0,0,1-.633.617,3.716,3.716,0,0,0-.642.633,2.483,2.483,0,0,1-.554.7.658.658,0,0,0-.182.285.172.172,0,0,1-.11.138.752.752,0,0,0-.246.3c-.071.147-.214.406-.317.585s-.308.6-.467.933-.34.723-.4.853a3.208,3.208,0,0,0-.325,1c.024.017,0,.13-.048.251a3.8,3.8,0,0,0-.158.577c-.032.2-.087.455-.111.568s-.063.349-.1.527c-.071.415-.071,48.607,0,49.037a11.855,11.855,0,0,0,.729,2.923,8.766,8.766,0,0,0,.6,1.218c.087.138.229.4.325.593a2.561,2.561,0,0,0,.356.527.669.669,0,0,1,.19.26c0,.049.071.13.158.187s.158.138.158.178a6.349,6.349,0,0,0,.761.828c.981.974,1.053,1.04,1.108,1.04a4.733,4.733,0,0,1,.57.389,5.745,5.745,0,0,0,1.045.674,10.483,10.483,0,0,0,1.306.519c.348.122.689.244.752.268a1.963,1.963,0,0,0,.2.065.777.777,0,0,1,.119.032,5.133,5.133,0,0,0,1.2.162.6.6,0,0,1,.325.057c.047.073,49.382.049,49.564-.024Z" transform="translate(-1.737 -1.29)" fill="#03c7fc"/>
  </g>
</svg>
