<svg id="Grupo_102115" data-name="Grupo 102115" xmlns="http://www.w3.org/2000/svg" width="104.385" height="57.67" viewBox="0 0 104.385 57.67">
  <path id="Trazado_163499" data-name="Trazado 163499" d="M-57.475-9.075A28.835,28.835,0,0,0-86.31,19.76,28.835,28.835,0,0,0-57.475,48.6,28.835,28.835,0,0,0-28.64,19.76,28.869,28.869,0,0,0-57.475-9.075ZM-29.793,19.76a27.922,27.922,0,0,1-.144,2.837l-4.9-.577c.069-.732.11-1.482.11-2.232a20.779,20.779,0,0,0-.1-2.111l4.9-.577A16.752,16.752,0,0,1-29.793,19.76Zm-55.363,0a27.851,27.851,0,0,1,.138-2.791l4.9.577c-.069.721-.11,1.453-.11,2.191s.04,1.471.11,2.191l-4.9.577A26.669,26.669,0,0,1-85.157,19.76ZM-35.964,12.3l4.614-1.73a27.473,27.473,0,0,1,1.3,5.375l-4.9.577A22.55,22.55,0,0,0-35.964,12.3Zm.133,7.457a21.633,21.633,0,0,1-.415,4.21l-4.85-1.119a16.562,16.562,0,0,0,0-6.309l4.856-1.1A21.66,21.66,0,0,1-35.831,19.76ZM-57.475,35.3A15.536,15.536,0,0,1-73.011,19.76,15.536,15.536,0,0,1-57.475,4.224,15.536,15.536,0,0,1-41.939,19.76,15.571,15.571,0,0,1-57.475,35.3Zm.525,6.09V36.41A16.539,16.539,0,0,0-50.756,35l2.151,4.487a21.5,21.5,0,0,1-8.345,1.909ZM-66.42,39.46l2.163-4.481a16.555,16.555,0,0,0,6.205,1.436v4.971A21.494,21.494,0,0,1-66.42,39.46Zm-12.7-19.7a21.685,21.685,0,0,1,.444-4.383l4.85,1.113a16.574,16.574,0,0,0-.04,6.309l-4.856,1.1A21.647,21.647,0,0,1-79.119,19.76ZM-58.052-1.866V3.111a16.547,16.547,0,0,0-6.107,1.384L-66.316.014A21.5,21.5,0,0,1-58.052-1.866Zm9.475,1.9-2.174,4.475A16.556,16.556,0,0,0-56.9,3.1V-1.866A21.49,21.49,0,0,1-48.576.037Zm12.22,11.211A22.691,22.691,0,0,0-38.363,7.4L-34.326,4.6a27.664,27.664,0,0,1,2.561,4.908Zm-.156,3.1-4.862,1.1a16.618,16.618,0,0,0-2.745-5.652l3.9-3.085a21.571,21.571,0,0,1,3.7,7.641Zm-8.322-5.438A16.782,16.782,0,0,0-49.736,5L-47.561.527a21.769,21.769,0,0,1,6.626,5.288ZM-46.281-.061l2.307-4.36a27.8,27.8,0,0,1,4.539,3.178l-3.281,3.7A22.864,22.864,0,0,0-46.281-.061Zm-1-.531a22.632,22.632,0,0,0-4.037-1.574l1.194-4.787a27.509,27.509,0,0,1,5.19,2ZM-52.44-2.443a22.7,22.7,0,0,0-4.394-.577v-4.9a27.633,27.633,0,0,1,5.588.692Zm-5.525-.577a22.762,22.762,0,0,0-4.337.507L-63.455-7.3a27.7,27.7,0,0,1,5.5-.623Zm-5.438.773A22.619,22.619,0,0,0-67.5-.707l-2.284-4.331A27.5,27.5,0,0,1-64.591-7ZM-68.5-.182A22.845,22.845,0,0,0-72.1,2.3L-75.353-1.37a27.849,27.849,0,0,1,4.579-3.16Zm1.153.657,2.157,4.481A16.784,16.784,0,0,0-70.1,8.849l-3.887-3.1A21.77,21.77,0,0,1-67.319.5Zm-7.336,6.171,3.887,3.1a16.623,16.623,0,0,0-2.768,5.64l-4.856-1.113A21.572,21.572,0,0,1-74.678,6.646Zm-3.87,4.464-4.614-1.73A27.7,27.7,0,0,1-80.543,4.46l4.037,2.8A22.741,22.741,0,0,0-78.548,11.11Zm-.4,1.055a22.612,22.612,0,0,0-1.055,4.25l-4.89-.577a27.469,27.469,0,0,1,1.338-5.409ZM-80.007,23.07a22.612,22.612,0,0,0,1.055,4.25l-4.614,1.73a27.492,27.492,0,0,1-1.332-5.4Zm1.453,5.311a22.751,22.751,0,0,0,2.047,3.87l-4.037,2.8a27.7,27.7,0,0,1-2.618-4.908ZM-78.478,25l4.856-1.1a16.6,16.6,0,0,0,2.716,5.715l-3.87,3.1A21.562,21.562,0,0,1-78.473,25Zm8.264,5.5a16.777,16.777,0,0,0,4.931,3.985l-2.157,4.475A21.777,21.777,0,0,1-74.1,33.6Zm1.7,9.17-2.307,4.366a27.79,27.79,0,0,1-4.527-3.16l3.27-3.685a22.856,22.856,0,0,0,3.576,2.48Zm1,.525a22.62,22.62,0,0,0,4.083,1.54l-1.188,4.787a27.5,27.5,0,0,1-5.19-1.967Zm5.19,1.811a22.7,22.7,0,0,0,4.331.513v4.919a27.661,27.661,0,0,1-5.508-.657Zm5.461.507a22.748,22.748,0,0,0,4.325-.531l1.153,4.787a27.683,27.683,0,0,1-5.513.669Zm5.421-.8a22.624,22.624,0,0,0,4.066-1.551l2.307,4.366a27.527,27.527,0,0,1-5.19,1.978Zm5.063-2.082A22.876,22.876,0,0,0-42.8,37.159l3.258,3.7a27.823,27.823,0,0,1-4.544,3.126Zm-1.205-.64-2.151-4.487a16.765,16.765,0,0,0,4.948-3.962l3.881,3.108A21.778,21.778,0,0,1-47.579,39Zm7.411-6.223-3.881-3.108a16.618,16.618,0,0,0,2.728-5.7l4.85,1.119A21.571,21.571,0,0,1-40.174,32.771Zm3.772-4.36,4.614,1.73a27.69,27.69,0,0,1-2.618,4.9l-4.037-2.809A22.747,22.747,0,0,0-36.4,28.411Zm.4-1.055a22.564,22.564,0,0,0,1.05-4.216l4.89.577a27.5,27.5,0,0,1-1.332,5.369ZM-34.943,3.71-38.98,6.5a22.955,22.955,0,0,0-2.884-3.27l3.276-3.679A27.915,27.915,0,0,1-34.943,3.67ZM-76.212-.626l3.27,3.691a22.954,22.954,0,0,0-2.883,3.27l-4.037-2.8A27.94,27.94,0,0,1-76.212-.626Zm-3.708,36.6,4.037-2.8A22.981,22.981,0,0,0-73,36.444l-3.276,3.685A27.953,27.953,0,0,1-79.92,35.977ZM-38.7,40.106l-3.264-3.7a22.993,22.993,0,0,0,2.884-3.253l4.037,2.809a27.937,27.937,0,0,1-3.651,4.141Z" transform="translate(86.31 9.075)"/>
  <path id="Trazado_163603" data-name="Trazado 163603" d="M-12.832-2.514l1.841-6.729H-8.5L-11.613,0h-2.437l-3.085-9.242h2.469Zm9.769.057a.915.915,0,0,0-.346-.762,4.3,4.3,0,0,0-1.216-.565,11.662,11.662,0,0,1-1.422-.565,2.693,2.693,0,0,1-1.8-2.425A2.174,2.174,0,0,1-7.4-8.128a2.894,2.894,0,0,1,1.266-.914,4.928,4.928,0,0,1,1.841-.327A4.311,4.311,0,0,1-2.5-9.014,2.829,2.829,0,0,1-1.273-8,2.644,2.644,0,0,1-.835-6.5H-3.056A1.117,1.117,0,0,0-3.4-7.376a1.348,1.348,0,0,0-.936-.311,1.521,1.521,0,0,0-.943.263.808.808,0,0,0-.346.67.814.814,0,0,0,.381.644,4.8,4.8,0,0,0,1.339.6,8.2,8.2,0,0,1,1.574.663,2.645,2.645,0,0,1,1.5,2.38,2.257,2.257,0,0,1-.914,1.9A4.066,4.066,0,0,1-4.256.127a4.974,4.974,0,0,1-2.034-.4,3.067,3.067,0,0,1-1.371-1.1A2.878,2.878,0,0,1-8.122-3h2.234A1.417,1.417,0,0,0-5.5-1.9a1.815,1.815,0,0,0,1.247.352,1.434,1.434,0,0,0,.873-.238A.786.786,0,0,0-3.063-2.457ZM7.785-3.129a3.375,3.375,0,0,1-.521,1.7A3.141,3.141,0,0,1,5.929-.279,4.548,4.548,0,0,1,3.964.127,3.629,3.629,0,0,1,1.095-1.06,4.9,4.9,0,0,1,.048-4.412v-.457A5.594,5.594,0,0,1,.521-7.246,3.583,3.583,0,0,1,1.882-8.82a3.8,3.8,0,0,1,2.057-.555,3.984,3.984,0,0,1,2.7.885A3.5,3.5,0,0,1,7.8-6.049H5.583a1.655,1.655,0,0,0-.425-1.212A1.749,1.749,0,0,0,3.939-7.63a1.331,1.331,0,0,0-1.219.622,4,4,0,0,0-.406,1.987v.654a4.424,4.424,0,0,0,.371,2.114,1.359,1.359,0,0,0,1.279.635A1.711,1.711,0,0,0,5.138-1.98,1.536,1.536,0,0,0,5.57-3.129Zm8.88-1.3a5.45,5.45,0,0,1-.5,2.393,3.706,3.706,0,0,1-1.425,1.6,3.968,3.968,0,0,1-2.1.562A4.024,4.024,0,0,1,10.54-.416,3.7,3.7,0,0,1,9.115-1.968a5.293,5.293,0,0,1-.536-2.317v-.521a5.474,5.474,0,0,1,.5-2.4,3.7,3.7,0,0,1,1.428-1.6,4,4,0,0,1,2.117-.565,3.957,3.957,0,0,1,2.095.559,3.764,3.764,0,0,1,1.431,1.59,5.317,5.317,0,0,1,.517,2.365ZM14.4-4.818a3.886,3.886,0,0,0-.46-2.092,1.476,1.476,0,0,0-1.317-.714q-1.676,0-1.771,2.514l-.006.679A4,4,0,0,0,11.3-2.342a1.474,1.474,0,0,0,1.339.73,1.456,1.456,0,0,0,1.3-.717A3.888,3.888,0,0,0,14.4-4.393Z" transform="translate(87.719 32.835)"/>
</svg>
