<svg xmlns="http://www.w3.org/2000/svg" width="80" height="106.224" viewBox="0 0 80 106.224">
  <g id="Grupo_26013" data-name="Grupo 26013" transform="translate(17415.363 2755.922)">
    <path id="Trazado_13097" data-name="Trazado 13097" d="M637.964,6628.479h61.192a8.747,8.747,0,0,0,8.721-8.721v-87.416a8.747,8.747,0,0,0-8.721-8.721h-44.8l-25.11,25.11v71.027A8.747,8.747,0,0,0,637.964,6628.479Z" transform="translate(-18043.924 -9278.859)" fill="#79c1e7" fill-rule="evenodd"/>
    <path id="Trazado_13098" data-name="Trazado 13098" d="M633.725,6623.557h61.192a8.064,8.064,0,0,0,8.038-8.039V6528.1a8.064,8.064,0,0,0-8.038-8.039H650.4l-24.71,24.71v70.745a8.064,8.064,0,0,0,8.038,8.039Zm61.192,1.365H633.725a9.429,9.429,0,0,1-9.4-9.4v-71.027h0a.679.679,0,0,1,.2-.482l25.1-25.1a.679.679,0,0,1,.49-.208h44.8a9.429,9.429,0,0,1,9.4,9.4v87.416a9.429,9.429,0,0,1-9.4,9.4Z" transform="translate(-18039.684 -9274.62)" fill="#013668"/>
    <path id="Trazado_13099" data-name="Trazado 13099" d="M629.243,6548.731h16.389a8.747,8.747,0,0,0,8.721-8.721v-16.389Z" transform="translate(-18043.924 -9278.86)" fill="#fffffe" fill-rule="evenodd"/>
    <path id="Trazado_13100" data-name="Trazado 13100" d="M626.653,6543.809h14.741a8.064,8.064,0,0,0,8.038-8.039v-14.741l-22.779,22.78Zm14.741,1.365H625a.682.682,0,0,1-.483-1.165l25.1-25.1a.683.683,0,0,1,1.173.475v16.389a9.429,9.429,0,0,1-9.4,9.4Z" transform="translate(-18039.686 -9274.621)" fill="#013668"/>
    <rect id="Rectángulo_6226" data-name="Rectángulo 6226" width="65.971" height="33.632" rx="5" transform="translate(-17408.35 -2707.071)" fill="#fffffe"/>
    <path id="Trazado_13101" data-name="Trazado 13101" d="M675.268,6865.977h56.743a5.311,5.311,0,0,1,5.3,5.3v24.4a5.311,5.311,0,0,1-5.3,5.3H675.268a5.311,5.311,0,0,1-5.3-5.3v-24.4a5.311,5.311,0,0,1,5.3-5.3Zm56.743,1.366H675.268a3.944,3.944,0,0,0-3.931,3.932v24.4a3.944,3.944,0,0,0,3.931,3.932h56.743a3.944,3.944,0,0,0,3.931-3.932v-24.4a3.944,3.944,0,0,0-3.931-3.932Z" transform="translate(-18079.002 -9573.73)" fill="#013668"/>
    <g id="Grupo_25990" data-name="Grupo 25990" transform="translate(-17399.314 -2697.716)">
      <path id="Trazado_13102" data-name="Trazado 13102" d="M761.044,6938.349l-4.141,12.769h-3.867l-2.444-7.771-2.554,7.771h-3.867l-4.141-12.769h3.721l2.572,8.154,2.7-8.154h3.32l2.572,8.227,2.681-8.227Z" transform="translate(-740.03 -6938.349)" fill="#013668"/>
      <path id="Trazado_13103" data-name="Trazado 13103" d="M896.757,6948.637h-5.4l-1,2.481H886.67l5.637-12.769h3.557l5.655,12.769h-3.758Zm-1.058-2.663-1.642-4.086-1.642,4.086Z" transform="translate(-866.331 -6938.349)" fill="#013668"/>
      <path id="Trazado_13104" data-name="Trazado 13104" d="M999.4,6938.349l-5.472,12.769h-3.557l-5.454-12.769h3.9l3.466,8.318,3.539-8.318Z" transform="translate(-950.947 -6938.349)" fill="#013668"/>
    </g>
  </g>
</svg>
