<svg xmlns="http://www.w3.org/2000/svg" width="80" height="106.224" viewBox="0 0 80 106.224">
  <g id="Grupo_26020" data-name="Grupo 26020" transform="translate(15951.137 2755.922)">
    <path id="Trazado_13114" data-name="Trazado 13114" d="M2102.189,6628.479h61.192a8.747,8.747,0,0,0,8.721-8.721v-87.417a8.747,8.747,0,0,0-8.721-8.721h-44.8l-25.11,25.11v71.027A8.747,8.747,0,0,0,2102.189,6628.479Z" transform="translate(-18043.922 -9278.859)" fill="#b5dbd0" fill-rule="evenodd"/>
    <path id="Trazado_13115" data-name="Trazado 13115" d="M2097.951,6623.557h61.192a8.063,8.063,0,0,0,8.039-8.038V6528.1a8.063,8.063,0,0,0-8.039-8.038h-44.521l-24.71,24.71v70.745a8.064,8.064,0,0,0,8.038,8.038Zm61.192,1.365h-61.192a9.429,9.429,0,0,1-9.4-9.4v-71.027h0a.679.679,0,0,1,.2-.482l25.1-25.1a.679.679,0,0,1,.49-.208h44.8a9.43,9.43,0,0,1,9.4,9.4v87.417a9.43,9.43,0,0,1-9.4,9.4Z" transform="translate(-18039.684 -9274.62)" fill="#013668"/>
    <path id="Trazado_13116" data-name="Trazado 13116" d="M2093.468,6548.731h16.389a8.747,8.747,0,0,0,8.721-8.722v-16.389Z" transform="translate(-18043.922 -9278.86)" fill="#fffffe" fill-rule="evenodd"/>
    <path id="Trazado_13117" data-name="Trazado 13117" d="M2090.878,6543.809h14.741a8.064,8.064,0,0,0,8.038-8.039V6521.03l-22.78,22.779Zm14.741,1.365H2089.23a.682.682,0,0,1-.483-1.165l25.1-25.1a.683.683,0,0,1,1.173.475v16.389a9.429,9.429,0,0,1-9.4,9.4Z" transform="translate(-18039.684 -9274.621)" fill="#013668"/>
    <rect id="Rectángulo_6228" data-name="Rectángulo 6228" width="65.971" height="33.632" rx="5" transform="translate(-15944.122 -2707.071)" fill="#fffffe"/>
    <path id="Trazado_13118" data-name="Trazado 13118" d="M2139.493,6865.977h56.743a5.31,5.31,0,0,1,5.3,5.3v24.4a5.311,5.311,0,0,1-5.3,5.3h-56.743a5.311,5.311,0,0,1-5.3-5.3v-24.4a5.31,5.31,0,0,1,5.3-5.3Zm56.743,1.365h-56.743a3.944,3.944,0,0,0-3.932,3.932v24.4a3.944,3.944,0,0,0,3.932,3.932h56.743a3.944,3.944,0,0,0,3.931-3.932v-24.4a3.944,3.944,0,0,0-3.931-3.932Z" transform="translate(-18079.002 -9573.73)" fill="#013668"/>
    <text id="WMA" transform="translate(-15911.629 -2685.562)" fill="#013668" font-size="18" font-family="Montserrat-ExtraBold, Montserrat" font-weight="800"><tspan x="-26.181" y="0">WMA</tspan></text>
  </g>
</svg>
