<svg xmlns="http://www.w3.org/2000/svg" width="80" height="106.224" viewBox="0 0 80 106.224">
  <g id="Grupo_26009" data-name="Grupo 26009" transform="translate(15223.506 2755.922)">
    <path id="Trazado_13119" data-name="Trazado 13119" d="M2829.821,6628.479h61.192a8.746,8.746,0,0,0,8.721-8.721v-87.416a8.746,8.746,0,0,0-8.721-8.721h-44.8l-25.11,25.11v71.027A8.747,8.747,0,0,0,2829.821,6628.479Z" transform="translate(-18043.924 -9278.859)" fill="#b3aea7" fill-rule="evenodd"/>
    <path id="Trazado_13120" data-name="Trazado 13120" d="M2825.582,6623.557h61.192a8.064,8.064,0,0,0,8.039-8.039V6528.1a8.064,8.064,0,0,0-8.039-8.039h-44.521l-24.71,24.71v70.745a8.064,8.064,0,0,0,8.039,8.039Zm61.192,1.365h-61.192a9.429,9.429,0,0,1-9.4-9.4v-71.027h0a.679.679,0,0,1,.2-.482l25.1-25.1a.679.679,0,0,1,.49-.208h44.8a9.429,9.429,0,0,1,9.4,9.4v87.416a9.429,9.429,0,0,1-9.4,9.4Z" transform="translate(-18039.684 -9274.62)" fill="#013668"/>
    <path id="Trazado_13121" data-name="Trazado 13121" d="M2821.1,6548.731h16.389a8.746,8.746,0,0,0,8.721-8.721v-16.389Z" transform="translate(-18043.924 -9278.86)" fill="#fffffe" fill-rule="evenodd"/>
    <path id="Trazado_13122" data-name="Trazado 13122" d="M2818.51,6543.809h14.741a8.063,8.063,0,0,0,8.038-8.039v-14.741l-22.78,22.78Zm14.741,1.365h-16.389a.682.682,0,0,1-.483-1.165l25.1-25.1a.683.683,0,0,1,1.173.475v16.389a9.43,9.43,0,0,1-9.4,9.4Z" transform="translate(-18039.686 -9274.621)" fill="#013668"/>
    <rect id="Rectángulo_6229" data-name="Rectángulo 6229" width="65.971" height="33.632" rx="5" transform="translate(-15216.491 -2707.071)" fill="#fffffe"/>
    <path id="Trazado_13123" data-name="Trazado 13123" d="M2867.125,6865.977h56.742a5.311,5.311,0,0,1,5.3,5.3v24.4a5.311,5.311,0,0,1-5.3,5.3h-56.742a5.311,5.311,0,0,1-5.3-5.3v-24.4a5.311,5.311,0,0,1,5.3-5.3Zm56.742,1.366h-56.742a3.944,3.944,0,0,0-3.932,3.932v24.4a3.944,3.944,0,0,0,3.932,3.932h56.742a3.944,3.944,0,0,0,3.932-3.932v-24.4a3.944,3.944,0,0,0-3.932-3.932Z" transform="translate(-18079.002 -9573.73)" fill="#013668"/>
    <g id="Grupo_25992" data-name="Grupo 25992" transform="translate(-15207.529 -2697.971)">
      <path id="Trazado_13124" data-name="Trazado 13124" d="M2934.975,6941.14v2.809h5.637v2.791h-5.637v4.378h-3.612v-12.769h10.014v2.791Z" transform="translate(-2931.363 -6938.094)" fill="#013668"/>
      <path id="Trazado_13125" data-name="Trazado 13125" d="M3015.8,6938.349h3.612v9.905h6.093v2.864h-9.7Z" transform="translate(-3004.085 -6938.094)" fill="#013668"/>
      <path id="Trazado_13126" data-name="Trazado 13126" d="M3096.109,6948.637h-5.4l-1,2.481h-3.685l5.636-12.769h3.557l5.655,12.769h-3.758Zm-1.058-2.663-1.642-4.086-1.642,4.086Z" transform="translate(-3064.571 -6938.094)" fill="#013668"/>
      <path id="Trazado_13127" data-name="Trazado 13127" d="M3197.812,6948.938a6.341,6.341,0,0,1-2.508-2.362,6.9,6.9,0,0,1,0-6.859,6.341,6.341,0,0,1,2.508-2.362,7.556,7.556,0,0,1,3.6-.848,7.74,7.74,0,0,1,3.156.62,6.077,6.077,0,0,1,2.335,1.788l-2.3,2.08a3.781,3.781,0,0,0-3.01-1.5,3.717,3.717,0,0,0-1.851.456,3.165,3.165,0,0,0-1.259,1.287,4.285,4.285,0,0,0,0,3.812,3.158,3.158,0,0,0,1.259,1.286,3.713,3.713,0,0,0,1.851.456,3.781,3.781,0,0,0,3.01-1.5l2.3,2.08a6.073,6.073,0,0,1-2.335,1.788,7.74,7.74,0,0,1-3.156.62A7.556,7.556,0,0,1,3197.812,6948.938Z" transform="translate(-3157.91 -6936.507)" fill="#013668"/>
    </g>
  </g>
</svg>
