<svg xmlns="http://www.w3.org/2000/svg" xmlns:xlink="http://www.w3.org/1999/xlink" width="118.816" height="82.534" viewBox="0 0 118.816 82.534">
  <defs>
    <linearGradient id="linear-gradient" x1="0.809" y1="-0.082" x2="0.111" y2="1.232" gradientUnits="objectBoundingBox">
      <stop offset="0" stop-color="#feb4b7"/>
      <stop offset="0.386" stop-color="#f27baf"/>
      <stop offset="0.514" stop-color="#ee5252"/>
      <stop offset="0.627" stop-color="#c83030"/>
      <stop offset="1" stop-color="#c83030"/>
    </linearGradient>
    <linearGradient id="linear-gradient-2" x1="0.644" y1="-0.138" x2="0.37" y2="1.076" gradientUnits="objectBoundingBox">
      <stop offset="0" stop-color="#feb4b7"/>
      <stop offset="1" stop-color="#ee5252"/>
    </linearGradient>
  </defs>
  <g id="Grupo_101965" data-name="Grupo 101965" transform="translate(4.573 -816.855)">
    <rect id="Rectángulo_24717" data-name="Rectángulo 24717" width="118.816" height="82.534" rx="9.209" transform="translate(-4.573 816.855)" fill="url(#linear-gradient)"/>
    <path id="Rectángulo_24718" data-name="Rectángulo 24718" d="M7.975,0h100.4a7.974,7.974,0,0,1,7.974,7.974V72.089a7.975,7.975,0,0,1-7.975,7.975H7.974A7.974,7.974,0,0,1,0,72.091V7.975A7.975,7.975,0,0,1,7.975,0Z" transform="translate(-3.339 818.089)" fill="url(#linear-gradient-2)"/>
    <g id="Grupo_101964" data-name="Grupo 101964">
      <path id="Trazado_163304" data-name="Trazado 163304" d="M105.871,828.7h0a3.477,3.477,0,0,0-3.477-3.477H7.276A3.477,3.477,0,0,0,3.8,828.7h0a3.478,3.478,0,0,0,3.477,3.478h95.118A3.478,3.478,0,0,0,105.871,828.7Z" fill="#fff"/>
      <path id="Rectángulo_24719" data-name="Rectángulo 24719" d="M3.478,0H98.595a3.478,3.478,0,0,1,3.478,3.478V48.722A3.477,3.477,0,0,1,98.595,52.2H3.478A3.478,3.478,0,0,1,0,48.722V3.478A3.478,3.478,0,0,1,3.478,0Z" transform="translate(3.799 838.818)" fill="#fff"/>
    </g>
    <path id="Trazado_163305" data-name="Trazado 163305" d="M59.951,864.917l-5.116,2.954-5.117,2.954V859.009l5.117,2.954Z" fill="#feb4b7"/>
  </g>
</svg>
