<svg xmlns="http://www.w3.org/2000/svg" xmlns:xlink="http://www.w3.org/1999/xlink" width="375.409" height="363.797" viewBox="0 0 375.409 363.797">
  <defs>
    <linearGradient id="linear-gradient" x1="-0.095" y1="1.064" x2="-0.094" y2="1.045" gradientUnits="objectBoundingBox">
      <stop offset="0" stop-color="#ffcd44"/>
      <stop offset="0.996" stop-color="#f3e256"/>
    </linearGradient>
    <clipPath id="clip-path">
      <path id="Trazado_163603" data-name="Trazado 163603" d="M30.909,219.185c-8.523,15.971-17.855,31.87-26.526,47.908,6.541,8,14.428,17.242,25.129,10.1,14.874-9.928,40.954,7.377,51.216,17.528,12.7,12.562,42.67,37.166,55.017,13.982,10.28-19.3,8.96-35.268,34.56-27.62s45.026,1.82,53.255-21.211c8.657-24.24,46.83-29.623,41.99-55.87-8.434-45.736-76.924-20.251-101.576,7.043s-32.853,7.338-54.424-4.653C80.1,190.022,77.7,230.415,59.154,231.825,44.612,232.93,41.01,226.23,30.909,219.185Z" transform="translate(-4.383 -178.865)" fill="none"/>
    </clipPath>
    <clipPath id="clip-path-2">
      <path id="Trazado_163604" data-name="Trazado 163604" d="M-30.275,425.342q-19.765-12.48-39.045-25.908c-.32.106,8.641-32.58,30.315-42.2,42.574-18.37,35.572-54.9,37.38-73.9,1.5-27.265,18.608-53.626,41.966-36.914,23.018,15.678,49.674-34.2,62.96-75.842,4.879-20.969,33.52-36.341,54.1-33.633,21.216,2.3,34.373,22.673,22.976,63.732-11.176,48.436-55.667,60.908-77.639,77.936-21.6,16.7-1.876,46.7-32.716,56.316-26.35,9.007-55.41,11-56.421,36.534C12.929,396.859,3.029,413.476-30.275,425.342Z" transform="translate(69.328 -136.637)" fill="none"/>
    </clipPath>
    <linearGradient id="linear-gradient-2" x1="0.233" y1="0.483" x2="0.231" y2="0.48" gradientUnits="objectBoundingBox">
      <stop offset="0" stop-color="#80b5f9"/>
      <stop offset="0.996" stop-color="#61d4d7"/>
    </linearGradient>
    <linearGradient id="linear-gradient-3" x1="0.244" y1="0.319" x2="0.245" y2="0.319" gradientUnits="objectBoundingBox">
      <stop offset="0.004" stop-color="#10474f"/>
      <stop offset="1" stop-color="#144f8c"/>
    </linearGradient>
    <linearGradient id="linear-gradient-4" x1="-0.447" y1="-2.035" x2="-0.446" y2="-2.032" gradientUnits="objectBoundingBox">
      <stop offset="0" stop-color="#144f8c"/>
      <stop offset="0.996" stop-color="#10474f"/>
    </linearGradient>
    <linearGradient id="linear-gradient-5" x1="-0.473" y1="-2.036" x2="-0.474" y2="-2.019" xlink:href="#linear-gradient-4"/>
    <linearGradient id="linear-gradient-6" x1="0.238" y1="0.32" x2="0.239" y2="0.322" xlink:href="#linear-gradient-4"/>
    <linearGradient id="linear-gradient-7" x1="0.228" y1="0.312" x2="0.227" y2="0.307" xlink:href="#linear-gradient-4"/>
    <linearGradient id="linear-gradient-8" x1="0.186" y1="0.232" x2="0.185" y2="0.225" gradientUnits="objectBoundingBox">
      <stop offset="0.004" stop-color="#8dcbe3"/>
      <stop offset="1" stop-color="#71e2f6"/>
    </linearGradient>
    <linearGradient id="linear-gradient-9" x1="0.186" y1="2.912" x2="0.186" y2="2.819" gradientUnits="objectBoundingBox">
      <stop offset="0" stop-color="#ffec85"/>
      <stop offset="1" stop-color="#fbc66f"/>
    </linearGradient>
    <linearGradient id="linear-gradient-10" x1="0.55" y1="-0.833" x2="0.557" y2="-0.833" gradientUnits="objectBoundingBox">
      <stop offset="0" stop-color="#288aff"/>
      <stop offset="0.996" stop-color="#559cf2"/>
    </linearGradient>
    <linearGradient id="linear-gradient-11" x1="-0.118" y1="0.194" x2="-0.113" y2="0.194" xlink:href="#linear-gradient-10"/>
    <linearGradient id="linear-gradient-13" x1="-0.185" y1="0.161" x2="-0.179" y2="0.161" xlink:href="#linear-gradient-10"/>
    <linearGradient id="linear-gradient-14" x1="0.283" y1="1.199" x2="0.29" y2="1.199" xlink:href="#linear-gradient-2"/>
    <linearGradient id="linear-gradient-15" x1="1.112" y1="0.511" x2="1.121" y2="0.511" xlink:href="#linear-gradient-2"/>
    <linearGradient id="linear-gradient-16" x1="-2.307" y1="-0.58" x2="-2.295" y2="-0.58" xlink:href="#linear-gradient-4"/>
    <linearGradient id="linear-gradient-17" x1="-2.353" y1="-0.561" x2="-2.352" y2="-0.559" xlink:href="#linear-gradient-4"/>
    <linearGradient id="linear-gradient-18" x1="-2.92" y1="-3.854" x2="-2.912" y2="-3.743" xlink:href="#linear-gradient-9"/>
    <linearGradient id="linear-gradient-19" x1="-127.888" y1="13.039" x2="-139.095" y2="-15.92" xlink:href="#linear-gradient"/>
    <linearGradient id="linear-gradient-20" x1="-6.372" y1="-2.416" x2="-6.346" y2="-2.451" xlink:href="#linear-gradient-8"/>
    <linearGradient id="linear-gradient-21" x1="-12.527" y1="-2.209" x2="-12.454" y2="-2.251" xlink:href="#linear-gradient-8"/>
    <linearGradient id="linear-gradient-22" x1="-3.893" y1="-5.018" x2="-3.886" y2="-5.07" xlink:href="#linear-gradient-8"/>
    <linearGradient id="linear-gradient-23" x1="-4.063" y1="-11.517" x2="-4.058" y2="-11.642" xlink:href="#linear-gradient-8"/>
  </defs>
  <g id="Grupo_101252" data-name="Grupo 101252" transform="translate(119.344 -128.122)">
    <g id="Grupo_101251" data-name="Grupo 101251" transform="translate(-119.344 128.122)">
      <path id="Trazado_162436" data-name="Trazado 162436" d="M37.994,140.129s-127.656,5.548-134.9,117.818-40.742,219.095,40.742,225.471,272.517,18.763,299.678-48.123S284.255,116.577,37.994,140.129Z" transform="translate(117.68 -129.958)" fill="#fafafa"/>
      <g id="Grupo_101221" data-name="Grupo 101221" transform="translate(102.01 41.834)">
        <g id="Grupo_101220" data-name="Grupo 101220" transform="translate(0)">
          <path id="Trazado_162437" data-name="Trazado 162437" d="M26.472,276.633c-1.567-2.115-3.116-8.1-2.876-9.826,1.6-11.491,3.188-33.2,12.507-41.169,1.59-1.36,9.47,4.023,11.76,3.636,5.854,2.214,7.75,3.343,14.353,2.714,19.488-1.864,20.962-41.835,50.662-25.579,21.756,11.907,29.75,31.961,54.449,4.642s93.137-52.774,101.586-7.05c4.85,26.242-33.334,31.632-41.99,55.872-8.222,23.032-27.648,28.851-53.254,21.21s-24.262,8.318-34.562,27.625c-12.375,23.19-42.24-1.439-55.059-13.984C73.727,284.619,40.627,265.856,26.472,276.633Z" transform="translate(-7.751 -178.862)" fill="url(#linear-gradient)"/>
          <g id="Grupo_101219" data-name="Grupo 101219" transform="translate(0 0.003)">
            <g id="Grupo_102174" data-name="Grupo 102174">
              <g id="Grupo_102173" data-name="Grupo 102173" clip-path="url(#clip-path)">
                <g id="Grupo_101218" data-name="Grupo 101218" transform="translate(21.566 -9.552)">
                  <g id="Grupo_101217" data-name="Grupo 101217">
                    <path id="Trazado_162438" data-name="Trazado 162438" d="M30.54,249.307l.191-.526c81.008,29.644,170.827,8.015,240.262-57.862l.386.407c-32.907,31.22-71.906,53.3-112.777,63.852C115.634,266.272,71.351,264.241,30.54,249.307Z" transform="translate(-30.54 -171.429)" fill="#bceefe"/>
                    <path id="Trazado_162439" data-name="Trazado 162439" d="M146.532,335.768c-10.252-21.249-36.112-48.4-57.656-60.517l.275-.49c21.624,12.169,47.592,39.426,57.887,60.764Z" transform="translate(-40.779 -186.146)" fill="#bceefe"/>
                    <path id="Trazado_162440" data-name="Trazado 162440" d="M49.906,257.354l.04-.558c12.816.9,25.593-4.717,37.979-16.689,9.08-8.778,17.743-20.708,25.744-35.453l.495.268c-8.029,14.8-16.725,26.772-25.848,35.59C75.81,252.6,62.888,258.263,49.906,257.354Z" transform="translate(-33.939 -173.84)" fill="#bceefe"/>
                    <path id="Trazado_162441" data-name="Trazado 162441" d="M192.83,266.647l.011-.561c24.24.451,44.947,15.335,58.043,27.744l-.386.408C237.475,281.9,216.9,267.094,192.83,266.647Z" transform="translate(-59.026 -184.623)" fill="#bceefe"/>
                    <path id="Trazado_162442" data-name="Trazado 162442" d="M255.04,228.234l-.359-.43c21-17.479,27.415-45.422,29.374-60.525l.555.071C282.643,182.537,276.183,210.638,255.04,228.234Z" transform="translate(-69.882 -167.28)" fill="#bceefe"/>
                  </g>
                </g>
              </g>
            </g>
          </g>
        </g>
      </g>
      <g id="Grupo_101225" data-name="Grupo 101225" transform="translate(41.237 7.021)">
        <g id="Grupo_101224" data-name="Grupo 101224">
          <g id="Grupo_102176" data-name="Grupo 102176">
            <g id="Grupo_102175" data-name="Grupo 102175" clip-path="url(#clip-path-2)">
              <g id="Grupo_101223" data-name="Grupo 101223" transform="translate(0 -12.78)">
                <path id="Trazado_162444" data-name="Trazado 162444" d="M-30.275,425.342q-19.765-12.48-39.045-25.908c-.32.106,8.641-32.58,30.315-42.2,42.574-18.37,35.572-54.9,37.38-73.9,1.579-27.208,17.382-50.424,41.287-40.274C66.406,253.8,90.5,212.34,103.3,170.579c4.879-20.969,33.52-36.341,54.1-33.633,21.216,2.3,34.373,22.673,22.977,63.732-11.177,48.436-55.667,60.908-77.639,77.936-21.6,16.7-1.876,46.7-32.716,56.316-26.35,9.007-55.411,11-56.421,36.534C12.929,396.859,3.029,413.476-30.275,425.342Z" transform="translate(69.328 -123.857)" fill="url(#linear-gradient-2)"/>
                <g id="Grupo_101222" data-name="Grupo 101222" transform="translate(18.689)">
                  <path id="Trazado_162445" data-name="Trazado 162445" d="M-46.66,415.766c.116-.275,42.159-58.777,93.218-111.242,7.7-8.731,15.733-17.434,23.5-25.848,43.225-46.857,84.054-91.116,90.636-157.54l.923.091C155,187.96,114.072,232.33,70.738,279.308c-7.758,8.41-15.781,17.105-23.5,25.847C-4.093,357.9-45.6,415.784-45.818,416.16Z" transform="translate(46.66 -121.136)" fill="#9dd8f2"/>
                  <path id="Trazado_162446" data-name="Trazado 162446" d="M143.03,250.127l-.378-.848c23.445-10.492,53.4-26.9,69.489-35.711,13.027-7.133,13.058-7.112,13.46-6.852l-.247.391.035.455c-.6.14-5.982,3.089-12.8,6.821C196.483,223.2,166.507,239.62,143.03,250.127Z" transform="translate(13.431 -136.144)" fill="#9dd8f2"/>
                  <path id="Trazado_162447" data-name="Trazado 162447" d="M159.677,218.3c5.592-21.342,3.221-38.082.247-48.365-3.238-11.2-8.036-17.82-8.769-18.317l.2-.3-.1-.577c.275-.047.489.12.79.448,4.3,4.676,18.357,29.813,8.528,67.342Z" transform="translate(11.939 -126.331)" fill="#9dd8f2"/>
                  <path id="Trazado_162448" data-name="Trazado 162448" d="M28.389,363.363l-.8-.472c22.4-37.726,11.818-86.875,6.23-106.254a15.261,15.261,0,0,1-.412-1.541l.923-.1-.463.051.463-.054c.015.115.186.7.382,1.386a190.339,190.339,0,0,1,7.272,41.31C43.512,323.5,38.937,345.6,28.389,363.363Z" transform="translate(33.627 -144.631)" fill="#9dd8f2"/>
                  <path id="Trazado_162449" data-name="Trazado 162449" d="M46.634,363.7l-.524-.766c28.958-19.783,65.361-6,65.913-5.685h0l.14.537-.475.288.042-.457-.214.4C111.186,357.871,75.3,344.121,46.634,363.7Zm65.143-6.546-.042.462Z" transform="translate(30.377 -161.709)" fill="#9dd8f2"/>
                  <path id="Trazado_162450" data-name="Trazado 162450" d="M-38.144,456.048c3.88-7.949,7.091-23.012.386-49.627-.382-1.511-.382-1.511-.253-1.716l.786.495-.393-.247.46,0c.013.109.146.637.3,1.247,6.78,26.886,3.5,42.173-.449,50.262Z" transform="translate(45.165 -170.909)" fill="#9dd8f2"/>
                  <path id="Trazado_162451" data-name="Trazado 162451" d="M-24.76,447.8l-.709-.6c10.568-12.566,35.361-14.192,49.2-14.044.439,0,.721.009.824,0l.054.926c-.113.007-.416,0-.89,0C10.045,433.936-14.435,435.522-24.76,447.8Z" transform="translate(42.94 -175.901)" fill="#9dd8f2"/>
                </g>
              </g>
            </g>
          </g>
        </g>
      </g>
      <g id="Grupo_101238" data-name="Grupo 101238" transform="translate(11.12 60.326)">
        <path id="Trazado_162453" data-name="Trazado 162453" d="M-92.936,458.942c-7.109.412-12.92-4.553-12.92-11.079v-235.2c0-6.525,5.812-11.625,12.92-11.365l335.571,12.177a10.53,10.53,0,0,1,9.843,10.641V428.478a10.819,10.819,0,0,1-9.843,10.859Z" transform="translate(105.856 -201.29)" fill="url(#linear-gradient-3)"/>
        <path id="Trazado_162454" data-name="Trazado 162454" d="M155.266,534.073a16.38,16.38,0,0,1-10.5-12.512l-7.807-40.538-66.783,2.489-8.218,42.231c-1.154,5.914,3.456,11.847,8.764,14.026l27.937,11.469a34.768,34.768,0,0,0,16.335,2.485l59.046-5.3a3.751,3.751,0,0,0,3.311-3.405c.2-1.826,1.411-3.875-.235-4.452Z" transform="translate(76.433 -250.39)" fill="url(#linear-gradient-4)"/>
        <path id="Trazado_162455" data-name="Trazado 162455" d="M156.4,531.223a16.231,16.231,0,0,1-10.492-12.356l-7.8-40.027L72.957,481.3,64.746,523a12.321,12.321,0,0,0,7.194,13.845l27.91,11.325a35.119,35.119,0,0,0,16.318,2.454l58.986-5.234a3.722,3.722,0,0,0,3.307-3.361,3.826,3.826,0,0,0-2.481-4.07Z" transform="translate(75.958 -250.007)" fill="url(#linear-gradient-5)"/>
        <g id="Grupo_101237" data-name="Grupo 101237" transform="translate(2.652)">
          <g id="Grupo_101226" data-name="Grupo 101226">
            <path id="Trazado_162456" data-name="Trazado 162456" d="M-89.717,458.942c-7.11.412-12.922-4.553-12.922-11.079v-235.2c0-6.525,5.812-11.625,12.922-11.365l335.571,12.177a10.53,10.53,0,0,1,9.843,10.641V428.478a10.819,10.819,0,0,1-9.843,10.859Z" transform="translate(102.639 -201.29)" fill="url(#linear-gradient-6)"/>
            <path id="Trazado_162457" data-name="Trazado 162457" d="M247.138,219.451l-335.571-11.5c-3.8-.131-6.892,2.59-6.892,6.076V448.708c0,3.485,3.09,6.137,6.892,5.922L247.138,435.7a5.77,5.77,0,0,0,5.27-5.8V225.138A5.618,5.618,0,0,0,247.138,219.451Z" transform="translate(101.355 -202.459)" fill="url(#linear-gradient-7)"/>
            <path id="Trazado_162458" data-name="Trazado 162458" d="M-87.539,435.448a2.437,2.437,0,0,1-2.675-2.175c-.006-.051-.009-.1-.012-.153V214.976a2.484,2.484,0,0,1,2.586-2.378c.034,0,.068,0,.1.006l335.571,11.027a2.2,2.2,0,0,1,2.061,2.221v190.88a2.238,2.238,0,0,1-2.061,2.252Z" transform="translate(100.46 -203.275)" fill="#fff"/>
          </g>
          <g id="Grupo_101236" data-name="Grupo 101236" transform="translate(27.639 20.936)">
            <path id="Trazado_162459" data-name="Trazado 162459" d="M240.31,414.165-69.116,427.754v-175.6l309.426,6.494Z" transform="translate(69.116 -231.153)" fill="url(#linear-gradient-8)"/>
            <path id="Trazado_162460" data-name="Trazado 162460" d="M240.31,248.861l-309.426-7.18v-15l309.426,8.9Z" transform="translate(69.116 -226.683)" fill="url(#linear-gradient-9)"/>
            <g id="Grupo_101227" data-name="Grupo 101227" transform="translate(282.584 13.165)">
              <path id="Trazado_162461" data-name="Trazado 162461" d="M276.967,244.414a1.64,1.64,0,0,1-1.607,1.674H275.3a1.748,1.748,0,0,1-1.671-1.761,1.645,1.645,0,0,1,1.613-1.675h.059A1.748,1.748,0,0,1,276.967,244.414Z" transform="translate(-273.628 -242.651)" fill="#fff"/>
              <path id="Trazado_162462" data-name="Trazado 162462" d="M285.278,244.628a1.637,1.637,0,0,1-1.6,1.671h-.058a1.742,1.742,0,0,1-1.66-1.757,1.635,1.635,0,0,1,1.6-1.67h.062A1.74,1.74,0,0,1,285.278,244.628Z" transform="translate(-275.09 -242.69)" fill="#fff"/>
              <path id="Trazado_162463" data-name="Trazado 162463" d="M293.543,244.846a1.628,1.628,0,0,1-1.591,1.665h-.058a1.732,1.732,0,0,1-1.654-1.75,1.63,1.63,0,0,1,1.59-1.666h.063A1.732,1.732,0,0,1,293.543,244.846Z" transform="translate(-276.543 -242.729)" fill="#fff"/>
            </g>
            <g id="Grupo_101228" data-name="Grupo 101228" transform="translate(6.751 25.558)" opacity="0.68">
              <path id="Trazado_162464" data-name="Trazado 162464" d="M179.123,387.11l-240.051,7.537V257.682l240.051,4.646Z" transform="translate(60.928 -257.682)" fill="#fff"/>
            </g>
            <g id="Grupo_101230" data-name="Grupo 101230" transform="translate(250.999 30.285)">
              <g id="Grupo_101229" data-name="Grupo 101229">
                <path id="Trazado_162465" data-name="Trazado 162465" d="M290.44,299.61l-55.122-.26V263.415l55.122,1.067Z" transform="translate(-235.318 -263.415)" fill="#fff" opacity="0.68" style="isolation: isolate"/>
              </g>
              <path id="Trazado_162466" data-name="Trazado 162466" d="M290.44,314.523l-55.122-.112V311.72l55.122.172Z" transform="translate(-235.318 -271.894)" fill="#fff"/>
              <path id="Trazado_162467" data-name="Trazado 162467" d="M269.93,320.053l-34.612,0v-2.691l34.612.043Z" transform="translate(-235.318 -272.883)" fill="#fff"/>
            </g>
            <g id="Grupo_101232" data-name="Grupo 101232" transform="translate(250.999 82.882)">
              <g id="Grupo_101231" data-name="Grupo 101231">
                <path id="Trazado_162468" data-name="Trazado 162468" d="M290.44,362.338l-55.122.924V327.327l55.122-.117Z" transform="translate(-235.318 -327.21)" fill="#fff" opacity="0.68" style="isolation: isolate"/>
              </g>
              <path id="Trazado_162469" data-name="Trazado 162469" d="M290.44,377.06l-55.122,1.072v-2.691l55.122-1.012Z" transform="translate(-235.318 -335.498)" fill="#fff"/>
              <path id="Trazado_162470" data-name="Trazado 162470" d="M269.93,383.1l-34.612.742V381.15l34.612-.7Z" transform="translate(-235.318 -336.555)" fill="#fff"/>
            </g>
            <g id="Grupo_101234" data-name="Grupo 101234" transform="translate(250.999 134.414)">
              <g id="Grupo_101233" data-name="Grupo 101233">
                <path id="Trazado_162471" data-name="Trazado 162471" d="M290.44,424.84l-55.122,2.108V391.013l55.122-1.3Z" transform="translate(-235.318 -389.712)" fill="#fff" opacity="0.68" style="isolation: isolate"/>
              </g>
              <path id="Trazado_162472" data-name="Trazado 162472" d="M290.44,439.563l-55.122,2.257v-2.691l55.122-2.2Z" transform="translate(-235.318 -398)" fill="#fff"/>
              <path id="Trazado_162473" data-name="Trazado 162473" d="M269.93,446.136l-34.612,1.484v-2.691l34.612-1.444Z" transform="translate(-235.318 -399.15)" fill="#fff"/>
            </g>
            <g id="Grupo_101235" data-name="Grupo 101235" transform="translate(6.751 160.842)">
              <path id="Trazado_162474" data-name="Trazado 162474" d="M105.194,433.245l-166.122,6.166v-9L105.194,424.8Z" transform="translate(60.928 -422.299)" fill="#fff"/>
              <path id="Trazado_162475" data-name="Trazado 162475" d="M225.181,429.97l-23.7.88v-8.282l23.7-.8Z" transform="translate(14.869 -421.767)" fill="#fff"/>
              <path id="Trazado_162476" data-name="Trazado 162476" d="M191.879,431.182l-24.235.9v-8.375l24.235-.819Z" transform="translate(20.808 -421.964)" fill="#fff"/>
              <path id="Trazado_162477" data-name="Trazado 162477" d="M15.073,451l-76,3.127v-4.5l76-3Z" transform="translate(60.928 -426.129)" fill="#fff"/>
            </g>
          </g>
        </g>
      </g>
      <g id="Grupo_101239" data-name="Grupo 101239" transform="translate(31.464 112.153)">
        <path id="Trazado_162478" data-name="Trazado 162478" d="M-77.864,518.946-79.43,517.3a6.37,6.37,0,0,1,.237-9c.068-.065.139-.129.21-.191L28.654,411.773l9.826,11.174-106.9,96.272A6.82,6.82,0,0,1-77.864,518.946Z" transform="translate(81.181 -290.062)" fill="url(#linear-gradient-10)"/>
        <path id="Trazado_162479" data-name="Trazado 162479" d="M154.876,293C127.725,259.585,79.585,254.19,47.4,282.113c-32.77,28.438-35.414,79.466-6,112.766,28.721,32.518,76.648,35.016,107.161,6.718C178.546,373.788,181.4,325.659,154.876,293ZM50.761,386.476C26.267,358.551,28.5,315.9,55.825,292.061c26.91-23.481,67.326-19.147,90.229,8.861,22.465,27.47,20.074,68.075-5.282,91.472-25.734,23.743-66,21.455-90.011-5.919Z" transform="translate(63.252 -264.151)" fill="url(#linear-gradient-11)"/>
        <path id="Trazado_162480" data-name="Trazado 162480" d="M28.652,411.773,14.927,424.058c1.268,5.606.495,9.515-.829,12.289-4.969,10.438-19.135,8.14-30.534,22.965-5.721,7.438-3.126,9.279-8.924,15.309-9.588,9.968-17.861,6.159-26.292,15.1-8.529,9.039-5.37,18.551-11.456,20.984-2.6,1.04-6.732.71-13.628-4.606l-2.25,2.015a6.37,6.37,0,0,0-.639,8.985c.063.072.126.142.191.21l1.567,1.642a6.82,6.82,0,0,0,9.444.273l106.9-96.272Z" transform="translate(81.182 -290.062)" opacity="0.3" fill="url(#linear-gradient-10)" style="isolation: isolate"/>
        <path id="Trazado_162481" data-name="Trazado 162481" d="M157.5,299.329c-25.651-31.5-71.06-36.514-101.372-10.159-30.835,26.808-33.334,74.863-5.67,106.261,27.052,30.7,72.268,33.134,101.093,6.448C179.906,375.629,182.6,330.154,157.5,299.329ZM56.5,390c-24.494-27.925-22.261-70.575,5.064-94.414,26.91-23.481,67.326-19.147,90.229,8.86,22.465,27.471,20.074,68.075-5.282,91.473C120.776,419.67,80.513,417.38,56.5,390Z" transform="translate(61.448 -265.561)" fill="url(#linear-gradient-13)"/>
      </g>
      <g id="Grupo_101242" data-name="Grupo 101242">
        <g id="Grupo_101240" data-name="Grupo 101240" transform="translate(60.342)">
          <path id="Trazado_162482" data-name="Trazado 162482" d="M48.74,216.947c4.287,2.174,9.666.176,12.02-4.462s.79-10.161-3.494-12.334c-.222-.113-.449-.208-.677-.3a54.036,54.036,0,0,0,1.8-7.742,6.761,6.761,0,0,0,.742-.027,9.854,9.854,0,0,0,8.662-10.031,8.346,8.346,0,0,0-9.035-8.451c-.256.024-.507.063-.757.107a49.75,49.75,0,0,0-2.093-7.391c.225-.133.45-.267.669-.42a9.858,9.858,0,0,0,2.983-12.915,8.346,8.346,0,0,0-12.156-2.3c-.214.151-.412.312-.615.477a44.357,44.357,0,0,0-5.423-5.061c.137-.226.273-.455.395-.7,2.354-4.638,5.43-9.7,1.113-11.811-9.989-4.875-14.273-.7-16.627,3.938-.122.24-.226.484-.33.73a43.977,43.977,0,0,0-7.287-1.39c.016-.258.026-.517.021-.778-.1-5.1,1.412-7.866-3.495-7.96-10.7-.205-14.3,4.437-14.2,9.541,0,.267.027.528.053.787a49.906,49.906,0,0,0-7.2,2.674c-.111-.228-.228-.455-.359-.675a8.344,8.344,0,0,0-12.156-2.3,9.854,9.854,0,0,0-2.983,12.913c.129.214.271.416.416.615a54.535,54.535,0,0,0-5.188,6.019c-.208-.131-.416-.258-.639-.369-4.287-2.176-9.665-.176-12.02,4.462s-.79,10.161,3.494,12.334c.222.113.449.207.677.3a54.489,54.489,0,0,0-1.8,7.74c-.247,0-.495.006-.742.027a9.856,9.856,0,0,0-8.662,10.031,8.345,8.345,0,0,0,9.037,8.451c.255-.021.506-.062.755-.107a49.97,49.97,0,0,0,2.093,7.392c-.223.131-.448.267-.668.42a9.856,9.856,0,0,0-2.983,12.913c2.532,4.2,10.917,6.154,15.1,3.224.214-.151-2.525-1.232-2.327-1.4a44.045,44.045,0,0,0,5.423,5.061c-.136.225-.271.454-.392.7-2.356,4.638-.791,10.161,3.494,12.336s9.665.175,12.018-4.464c.122-.24.228-.483.33-.727a44.339,44.339,0,0,0,7.287,1.39c-.016.256-.027.515-.022.777a8.345,8.345,0,0,0,9.035,8.451,9.854,9.854,0,0,0,8.662-10.031c0-.265-.029-.528-.054-.786a49.835,49.835,0,0,0,7.2-2.674c.111.227.228.453.36.673a8.342,8.342,0,0,0,12.154,2.3,9.854,9.854,0,0,0,2.983-12.913c-.129-.216-.271-.412-.412-.615a54.432,54.432,0,0,0,5.186-6.019A7.072,7.072,0,0,0,48.74,216.947Zm-53.4.688c-15.552-7.9-21.233-27.946-12.685-44.786s28.083-24.1,43.637-16.2S47.528,184.59,38.98,201.433,10.9,225.527-4.657,217.635Z" transform="translate(46.155 -128.122)" fill="#10474f"/>
          <path id="Trazado_162483" data-name="Trazado 162483" d="M68.837,194.127A9.854,9.854,0,0,0,77.5,184.1a8.346,8.346,0,0,0-9.035-8.451c-.256.024-.507.063-.757.107a49.847,49.847,0,0,0-2.093-7.391c.224-.131.449-.267.668-.422,4.18-2.929,9.351-10.007,6.4-13.928-5.6-7.439-11.394-4.218-15.574-1.288-.214.151-.412.312-.615.477a44.354,44.354,0,0,0-5.423-5.061c.137-.226.273-.455.395-.7a9.731,9.731,0,0,0,.546-7.673q-6.055,10.663-11.93,21.424c12.409,9.089,16.362,27,8.609,42.28-6.569,12.944-19.631,20.215-32.386,19.307-.567,1.475-1.126,2.96-1.731,4.42-1.654,3.967-3.53,7.851-5.411,11.731q1.776.335,3.563.522c-.016.258-.027.517-.022.779.1,5.1,3.2,9.44,12.06,8.969,4.9-.261,5.739-5.446,5.637-10.553,0-.265-.029-.528-.054-.786a49.908,49.908,0,0,0,7.2-2.674c.111.227.228.453.36.673,2.532,4.2,11.316,5.986,15.5,3.056s2.173-9.464-.36-13.667c-.129-.216-.271-.412-.412-.617a54.522,54.522,0,0,0,5.186-6.019c.207.129.416.256.638.369,4.287,2.174,9.666.176,12.02-4.462s.79-10.161-3.494-12.334c-.222-.113-.449-.208-.677-.3a54.259,54.259,0,0,0,1.8-7.742A6.291,6.291,0,0,0,68.837,194.127Z" transform="translate(36.446 -130.167)" fill="#10474f"/>
          <path id="Trazado_162484" data-name="Trazado 162484" d="M54.328,217.472c4.287,2.174,9.665.175,12.02-4.464s.789-10.161-3.494-12.335c-.222-.113-.449-.207-.677-.3a54.377,54.377,0,0,0,1.8-7.74c.247,0,.495-.006.742-.027a9.856,9.856,0,0,0,8.662-10.031,8.345,8.345,0,0,0-9.037-8.451c-.255.021-.506.062-.755.107a49.9,49.9,0,0,0-2.094-7.392c.223-.131.448-.267.668-.42a9.856,9.856,0,0,0,2.983-12.913,8.347,8.347,0,0,0-12.157-2.3c-.214.149-.416.311-.615.477a44.108,44.108,0,0,0-5.423-5.061c.137-.226.271-.455.393-.7,2.356-4.639.791-10.161-3.492-12.334s-9.666-.176-12.02,4.462c-.122.24-.228.484-.33.727a44.387,44.387,0,0,0-7.287-1.389c.016-.256.027-.515.021-.777a8.344,8.344,0,0,0-9.035-8.451,9.854,9.854,0,0,0-8.662,10.031c0,.267.029.528.054.786a50.148,50.148,0,0,0-7.2,2.674c-.111-.228-.228-.453-.36-.673a8.342,8.342,0,0,0-12.154-2.3,9.854,9.854,0,0,0-2.983,12.913c.129.216.271.416.416.617a54.285,54.285,0,0,0-5.188,6.019c-.207-.129-.416-.256-.638-.369-4.287-2.173-9.666-.176-12.02,4.462s-.79,10.161,3.494,12.337c.222.111.449.206.677.3a54.284,54.284,0,0,0-1.8,7.742,6.769,6.769,0,0,0-.742.027,9.854,9.854,0,0,0-8.662,10.031,8.346,8.346,0,0,0,9.035,8.451c.256-.024.508-.063.757-.107a49.75,49.75,0,0,0,2.093,7.391c-.225.133-.449.268-.668.422a9.856,9.856,0,0,0-2.983,12.913,8.344,8.344,0,0,0,12.156,2.3c.214-.151.412-.312.615-.477a44.289,44.289,0,0,0,5.423,5.061c-.136.225-.273.455-.395.7-2.354,4.639-.79,10.161,3.494,12.334s9.666.176,12.02-4.462c.122-.241.226-.484.33-.73a43.978,43.978,0,0,0,7.287,1.39c-.016.258-.027.516-.021.778a8.344,8.344,0,0,0,9.035,8.451,9.848,9.848,0,0,0,8.657-10.031c0-.267-.027-.528-.053-.787a49.544,49.544,0,0,0,7.2-2.674c.111.228.228.455.359.673a8.346,8.346,0,0,0,12.156,2.3,9.855,9.855,0,0,0,2.983-12.915c-.129-.214-.271-.416-.416-.615a54.21,54.21,0,0,0,5.188-6.019C53.9,217.232,54.106,217.359,54.328,217.472Zm-53.4.686c-15.553-7.893-21.233-27.943-12.685-44.785s28.083-24.095,43.635-16.2,21.234,27.945,12.687,44.786-28.083,24.1-43.637,16.2Z" transform="translate(45.175 -128.123)" fill="url(#linear-gradient-14)"/>
        </g>
        <g id="Grupo_101241" data-name="Grupo 101241" transform="translate(0 98.358)">
          <path id="Trazado_162485" data-name="Trazado 162485" d="M-49.634,312.668a6.668,6.668,0,0,0,8.828-3.278,6.672,6.672,0,0,0-2.567-9.06c-.165-.082-.33-.153-.495-.22a39.445,39.445,0,0,0,1.319-5.689A5.065,5.065,0,0,0-42,294.4a7.24,7.24,0,0,0,6.362-7.368,6.13,6.13,0,0,0-6.029-6.229c-.2,0-.406,0-.608.021a5.054,5.054,0,0,0-.557.082,36.4,36.4,0,0,0-1.538-5.43c.165-.1.33-.2.49-.309a7.237,7.237,0,0,0,2.191-9.486,6.131,6.131,0,0,0-8.429-2.033q-.258.158-.5.341c-.157.111-.306.229-.451.351a32.446,32.446,0,0,0-3.984-3.718c.1-.165.2-.335.289-.511,1.731-3.407,3.989-7.128.816-8.677-7.338-3.58-10.482-.513-12.212,2.894-.089.176-.165.355-.242.534a32.344,32.344,0,0,0-5.352-1.021c.011-.189.02-.378.016-.571-.077-3.749,1.037-5.779-2.568-5.848-7.858-.151-10.509,3.26-10.432,7.008a5.311,5.311,0,0,0,.04.577,36.477,36.477,0,0,0-5.291,1.965c-.082-.165-.165-.33-.264-.495a6.131,6.131,0,0,0-8.429-2.033q-.258.158-.5.341a7.242,7.242,0,0,0-2.192,9.486c.1.158.2.306.308.451a39.968,39.968,0,0,0-3.811,4.423c-.153-.1-.308-.189-.469-.271a6.669,6.669,0,0,0-8.829,3.278,6.671,6.671,0,0,0,2.567,9.06,5.389,5.389,0,0,0,.494.219,40.137,40.137,0,0,0-1.318,5.689,5.05,5.05,0,0,0-.545.02,7.242,7.242,0,0,0-6.363,7.371,6.131,6.131,0,0,0,6.032,6.228c.2,0,.4,0,.606-.02s.371-.048.555-.078a36.789,36.789,0,0,0,1.537,5.429c-.164.1-.33.2-.489.308a7.243,7.243,0,0,0-2.192,9.487c1.861,3.087,8.02,4.518,11.09,2.367.157-.111-1.855-.907-1.708-1.026a32.565,32.565,0,0,0,3.984,3.718c-.1.165-.2.33-.291.51A6.67,6.67,0,0,0-97.65,330.5a6.669,6.669,0,0,0,8.828-3.278c.091-.176.165-.356.242-.536a32.552,32.552,0,0,0,5.352,1.022c-.011.189-.02.378-.016.571a6.131,6.131,0,0,0,6.034,6.228q.3,0,.6-.02a7.238,7.238,0,0,0,6.362-7.37,5.339,5.339,0,0,0-.04-.577,36.822,36.822,0,0,0,5.291-1.965c.082.165.165.33.264.495A6.131,6.131,0,0,0-56.3,327.1a5.953,5.953,0,0,0,.5-.341,7.239,7.239,0,0,0,2.191-9.486c-.1-.158-.2-.308-.306-.453a39.929,39.929,0,0,0,3.809-4.422C-49.952,312.492-49.8,312.586-49.634,312.668Zm-39.226.505c-11.425-5.8-15.6-20.529-9.317-32.9s20.631-17.7,32.056-11.9,15.6,20.529,9.317,32.9-20.629,17.7-32.056,11.9Z" transform="translate(119.344 -247.419)" fill="#10474f"/>
          <path id="Trazado_162486" data-name="Trazado 162486" d="M-34.876,295.906a7.24,7.24,0,0,0,6.362-7.368,6.13,6.13,0,0,0-6.029-6.229c-.2,0-.406,0-.608.021a5.062,5.062,0,0,0-.557.082,36.4,36.4,0,0,0-1.538-5.43c.165-.1.33-.2.49-.309,3.072-2.152,6.87-7.352,4.7-10.232-4.112-5.464-8.369-3.1-11.44-.946-.157.111-.306.229-.451.351a32.321,32.321,0,0,0-3.984-3.718c.1-.165.2-.335.289-.511a7.149,7.149,0,0,0,.4-5.637q-4.452,7.832-8.766,15.739c9.117,6.678,12.02,19.836,6.325,31.06-4.826,9.51-14.421,14.85-23.79,14.181-.418,1.084-.824,2.173-1.275,3.247-1.215,2.914-2.594,5.771-3.974,8.617q1.3.247,2.615.386c-.011.189-.02.378-.016.571.077,3.749,2.354,6.934,8.86,6.588,3.6-.193,4.216-4,4.14-7.75a5.342,5.342,0,0,0-.04-.577,36.867,36.867,0,0,0,5.291-1.965c.082.165.165.33.264.495,1.861,3.087,8.313,4.4,11.385,2.245s1.6-6.953-.264-10.039c-.1-.158-.2-.308-.306-.453a39.854,39.854,0,0,0,3.809-4.422c.153.095.308.189.472.271a6.668,6.668,0,0,0,8.828-3.278,6.672,6.672,0,0,0-2.567-9.06c-.165-.082-.33-.153-.495-.22a39.58,39.58,0,0,0,1.319-5.689C-35.238,295.926-35.057,295.92-34.876,295.906Z" transform="translate(112.213 -248.922)" fill="#10474f"/>
          <path id="Trazado_162487" data-name="Trazado 162487" d="M-45.53,313.053a6.668,6.668,0,0,0,8.829-3.278,6.67,6.67,0,0,0-2.567-9.06c-.165-.082-.33-.153-.495-.22a40.025,40.025,0,0,0,1.319-5.689,5.035,5.035,0,0,0,.544-.02,7.237,7.237,0,0,0,6.363-7.368,6.132,6.132,0,0,0-6.031-6.229c-.2,0-.4,0-.607.021a5.229,5.229,0,0,0-.555.082,36.6,36.6,0,0,0-1.537-5.43c.165-.1.33-.2.489-.308a7.242,7.242,0,0,0,2.192-9.488,6.132,6.132,0,0,0-8.429-2.033q-.258.158-.5.341c-.158.111-.306.229-.453.351a32.441,32.441,0,0,0-3.984-3.718c.1-.165.2-.33.291-.509a6.671,6.671,0,0,0-2.568-9.063,6.669,6.669,0,0,0-8.828,3.278c-.091.176-.165.357-.242.535a32.691,32.691,0,0,0-5.352-1.021c.011-.189.02-.378.015-.571a6.13,6.13,0,0,0-6.029-6.229,6,6,0,0,0-.608.021,7.239,7.239,0,0,0-6.361,7.37c0,.195.02.387.038.577a36.872,36.872,0,0,0-5.29,1.964c-.082-.165-.165-.33-.264-.495a6.131,6.131,0,0,0-8.429-2.033c-.172.106-.34.22-.5.342a7.239,7.239,0,0,0-2.191,9.486c.095.158.2.306.306.453a40.041,40.041,0,0,0-3.811,4.422c-.151-.095-.306-.189-.469-.271a6.668,6.668,0,0,0-8.828,3.278,6.672,6.672,0,0,0,2.567,9.06c.165.082.33.153.495.22a39.913,39.913,0,0,0-1.319,5.689,5.073,5.073,0,0,0-.546.02,7.241,7.241,0,0,0-6.363,7.369,6.133,6.133,0,0,0,6.035,6.228q.3,0,.6-.02c.188-.016.373-.045.555-.078a36.828,36.828,0,0,0,1.539,5.429c-.165.1-.33.2-.49.309a7.239,7.239,0,0,0-2.191,9.486,6.13,6.13,0,0,0,8.429,2.032,5.876,5.876,0,0,0,.5-.34c.157-.111.306-.229.451-.351a32.561,32.561,0,0,0,3.984,3.718c-.1.165-.2.335-.289.511a6.671,6.671,0,0,0,2.567,9.06,6.67,6.67,0,0,0,8.828-3.278c.09-.176.165-.357.241-.534a32.622,32.622,0,0,0,5.353,1.02c-.011.189-.02.378-.016.571a6.13,6.13,0,0,0,6.031,6.228,5.963,5.963,0,0,0,.607-.02,7.238,7.238,0,0,0,6.363-7.368,5.31,5.31,0,0,0-.04-.577,36.418,36.418,0,0,0,5.29-1.964c.082.165.165.33.265.495a6.13,6.13,0,0,0,8.427,2.033c.173-.106.341-.22.5-.342a7.239,7.239,0,0,0,2.191-9.486c-.095-.158-.2-.306-.306-.453A39.7,39.7,0,0,0-46,312.787C-45.846,312.879-45.692,312.971-45.53,313.053Zm-39.224.506c-11.425-5.8-15.6-20.529-9.317-32.9s20.631-17.7,32.056-11.9,15.6,20.529,9.317,32.9S-73.329,319.358-84.754,313.559Z" transform="translate(118.623 -247.421)" fill="url(#linear-gradient-15)"/>
        </g>
      </g>
      <g id="Grupo_101250" data-name="Grupo 101250" transform="translate(279.75 220.773)">
        <g id="Grupo_101246" data-name="Grupo 101246">
          <g id="Grupo_101245" data-name="Grupo 101245">
            <g id="Grupo_101244" data-name="Grupo 101244">
              <path id="Trazado_162488" data-name="Trazado 162488" d="M286.8,399.5l10.883,122.083a3.3,3.3,0,0,1-2.856,3.652L235.958,531.3c-3.521.188-5.385-1.722-5.542-3.642L219.972,400.9c-.154-1.872,1.6-3.634,5.075-3.764l58.322-.857A3.51,3.51,0,0,1,286.8,399.5Z" transform="translate(-219.963 -395.964)" fill="url(#linear-gradient-16)"/>
              <path id="Trazado_162489" data-name="Trazado 162489" d="M289.957,399.133l10.98,122.814a3.317,3.317,0,0,1-2.87,3.675l-61.08,5.635a3.446,3.446,0,0,1-3.7-3.177l0-.021L222.756,400.541a3.168,3.168,0,0,1,2.83-3.471c.09-.009.179-.014.269-.016l60.656-1.158A3.53,3.53,0,0,1,289.957,399.133Z" transform="translate(-220.45 -395.896)" fill="url(#linear-gradient-17)"/>
              <path id="Trazado_162490" data-name="Trazado 162490" d="M289.172,407.4l10.153,113.834a3.093,3.093,0,0,1-2.685,3.427l-57.423,5.213a3.215,3.215,0,0,1-3.441-2.973v-.01l-9.768-117.928a2.969,2.969,0,0,1,2.656-3.251c.077-.007.153-.012.23-.014l57.058-1.312A3.282,3.282,0,0,1,289.172,407.4Z" transform="translate(-221.021 -397.386)" fill="#fff"/>
              <g id="Grupo_101243" data-name="Grupo 101243" transform="translate(4.97 6.997)">
                <path id="Trazado_162491" data-name="Trazado 162491" d="M289.171,407.4a3.281,3.281,0,0,0-3.221-3.014l-57.058,1.312a2.968,2.968,0,0,0-2.9,3.035c0,.077.007.153.014.23l1.4,16.879,63.275-1.528Z" transform="translate(-225.991 -404.383)" fill="url(#linear-gradient-18)"/>
              </g>
            </g>
            <path id="Trazado_162492" data-name="Trazado 162492" d="M265.19,400.839a1.06,1.06,0,0,1-.929,1.176c-.031,0-.064.006-.1.007a1.237,1.237,0,0,1-1.228-1.135,1.059,1.059,0,0,1,.926-1.177c.034,0,.068-.007.1-.007A1.237,1.237,0,0,1,265.19,400.839Z" transform="translate(-227.504 -396.564)" fill="url(#linear-gradient-19)"/>
          </g>
        </g>
        <g id="Grupo_101248" data-name="Grupo 101248" transform="translate(13.087 33.45)">
          <g id="Grupo_101247" data-name="Grupo 101247">
            <path id="Trazado_162493" data-name="Trazado 162493" d="M268.327,476.8l-28.55,1.41-3.941-40.35,28.708-.732Z" transform="translate(-235.836 -436.583)" fill="url(#linear-gradient-20)"/>
            <path id="Trazado_162494" data-name="Trazado 162494" d="M296.554,475.64l-16.771.824L276.024,436.9l16.863-.43Z" transform="translate(-242.89 -436.467)" fill="url(#linear-gradient-21)"/>
            <path id="Trazado_162495" data-name="Trazado 162495" d="M293.4,516.634l-49.5,3.4-2.663-27.265,49.688-2.609Z" transform="translate(-236.784 -445.892)" fill="url(#linear-gradient-22)"/>
            <path id="Trazado_162496" data-name="Trazado 162496" d="M295.613,539.732l-49.386,3.891-1.193-12.213,49.469-3.539Z" transform="translate(-237.45 -452.511)" fill="url(#linear-gradient-23)"/>
          </g>
        </g>
        <g id="Grupo_101249" data-name="Grupo 101249" transform="translate(2.289 1.007)" opacity="0.48">
          <path id="Trazado_162497" data-name="Trazado 162497" d="M275.283,483.655c-5.923-20.687-23.187-18.619-28.349-37.313-4.24-15.353,5.537-23.446-.395-36.3-2.788-6.045-7.674-10.134-12.742-12.926l-7.943.152a3.167,3.167,0,0,0-3.115,3.218c0,.09.007.18.016.269l10.534,127.519a3.447,3.447,0,0,0,3.677,3.2l.021,0,50.079-4.617a52.521,52.521,0,0,1-8.349-15.005C274.254,499.205,278.557,495.1,275.283,483.655Z" transform="translate(-222.738 -397.117)" fill="#fff"/>
        </g>
      </g>
    </g>
  </g>
</svg>
