<svg xmlns="http://www.w3.org/2000/svg" width="104.192" height="103.27" viewBox="0 0 104.192 103.27">
  <g id="Grupo_102214" data-name="Grupo 102214" transform="translate(-204.404 -324.489)">
    <path id="Trazado_163635" data-name="Trazado 163635" d="M306.505,330.693v12.156H206.439V330.693c0-2.294,2.182-4.169,4.85-4.169h90.365C304.322,326.524,306.505,328.4,306.505,330.693Z" fill="#2f94ff"/>
    <path id="Trazado_163636" data-name="Trazado 163636" d="M306.505,342.849v60.359a4.1,4.1,0,0,0-4.037-3.416h-1.882a16.2,16.2,0,0,0-1.751-4.223l1.332-1.332a4.093,4.093,0,0,0-1.926-6.874V350.985H214.7v48.758h54.17l-.012.049h-1.88a4.106,4.106,0,0,0-4.1,4.1,3.945,3.945,0,0,0,.041.567,4.1,4.1,0,0,0,3.134,3.424h-54.77c-2.668,0-4.85-1.876-4.85-4.171V342.849Z" fill="#f7f7f7"/>
    <path id="Trazado_163637" data-name="Trazado 163637" d="M214.7,350.985h36.482v48.758H214.7Z" fill="#4c5b7c"/>
    <path id="Trazado_163638" data-name="Trazado 163638" d="M298.241,350.985v36.378a4.084,4.084,0,0,0-3.868,1.081l-1.332,1.333a16.216,16.216,0,0,0-4.223-1.753v-1.882a4.094,4.094,0,1,0-8.188,0v1.882a16.2,16.2,0,0,0-4.224,1.753l-1.333-1.333a4.1,4.1,0,1,0-5.792,5.793l1.332,1.332a16.23,16.23,0,0,0-1.741,4.174H251.184V350.985Z" fill="#ffa3bf"/>
    <path id="Trazado_163639" data-name="Trazado 163639" d="M306.505,403.208a4.1,4.1,0,0,0-4.037-3.416h-1.882a16.2,16.2,0,0,0-1.751-4.223l1.332-1.332a4.1,4.1,0,0,0-5.794-5.793l-1.332,1.333a16.216,16.216,0,0,0-4.223-1.753v-1.882a4.094,4.094,0,1,0-8.188,0v1.882a16.2,16.2,0,0,0-4.224,1.753l-1.333-1.333a4.1,4.1,0,1,0-5.792,5.793l1.332,1.332a16.23,16.23,0,0,0-1.741,4.174l-.012.049h-1.88a4.106,4.106,0,0,0-4.1,4.1,3.945,3.945,0,0,0,.041.567,4.1,4.1,0,0,0,3.134,3.424,4.233,4.233,0,0,0,.921.1h1.88a16.23,16.23,0,0,0,1.753,4.223l-1.332,1.332a4.1,4.1,0,0,0,5.792,5.792L276.406,418a16.23,16.23,0,0,0,4.224,1.753v1.881a4.094,4.094,0,0,0,8.188,0V419.75A16.252,16.252,0,0,0,293.041,418l1.332,1.332a4.1,4.1,0,0,0,5.794-5.792l-1.332-1.332a16.225,16.225,0,0,0,1.751-4.223h1.882a4.1,4.1,0,0,0,4.093-4.094A4.018,4.018,0,0,0,306.505,403.208Zm-21.781,6.139a5.46,5.46,0,1,1,5.459-5.459A5.459,5.459,0,0,1,284.724,409.347Z" fill="#fade76"/>
    <path id="Trazado_163640" data-name="Trazado 163640" d="M290.183,403.888a5.46,5.46,0,1,1-5.459-5.461A5.458,5.458,0,0,1,290.183,403.888Z" fill="#f7f7f7"/>
    <path id="Trazado_163641" data-name="Trazado 163641" d="M284.724,396.393a7.493,7.493,0,1,0,7.493,7.494A7.5,7.5,0,0,0,284.724,396.393Zm0,10.92a3.426,3.426,0,1,1,3.426-3.426A3.431,3.431,0,0,1,284.724,407.313Z"/>
    <path id="Trazado_163642" data-name="Trazado 163642" d="M243.251,336.761H296.03a2.034,2.034,0,1,0,0-4.068H243.251a2.034,2.034,0,0,0,0,4.068Z"/>
    <path id="Trazado_163643" data-name="Trazado 163643" d="M214.8,335.505a2.057,2.057,0,0,0,.188.349,1.886,1.886,0,0,0,.252.31,2.06,2.06,0,0,0,.309.254,2.123,2.123,0,0,0,.352.188,2.081,2.081,0,0,0,.38.115,1.966,1.966,0,0,0,.4.039,2.067,2.067,0,0,0,.4-.039,2.155,2.155,0,0,0,.38-.115,2.094,2.094,0,0,0,.349-.188,2.069,2.069,0,0,0,.31-.254,1.951,1.951,0,0,0,.254-.31,2.031,2.031,0,0,0,.3-.729,2.075,2.075,0,0,0,.039-.4,2.039,2.039,0,0,0-.039-.4,2.061,2.061,0,0,0-.3-.731,1.986,1.986,0,0,0-.564-.562,2.018,2.018,0,0,0-.349-.187,2.161,2.161,0,0,0-.38-.116,1.975,1.975,0,0,0-.8,0,2.087,2.087,0,0,0-.38.116,2.046,2.046,0,0,0-.352.187,1.932,1.932,0,0,0-.309.252,1.887,1.887,0,0,0-.252.31,2.013,2.013,0,0,0-.3.731,1.968,1.968,0,0,0-.042.4,2,2,0,0,0,.042.4A2.051,2.051,0,0,0,214.8,335.505Z"/>
    <path id="Trazado_163644" data-name="Trazado 163644" d="M222.933,335.505a2.051,2.051,0,0,0,.187.349,1.892,1.892,0,0,0,.253.31,2.046,2.046,0,0,0,1.836.558,2.164,2.164,0,0,0,.38-.116,2.033,2.033,0,0,0,.35-.188,2.06,2.06,0,0,0,.309-.254,1.989,1.989,0,0,0,.254-.309,2.1,2.1,0,0,0,.188-.35,2.051,2.051,0,0,0,.115-.38,2,2,0,0,0,.039-.4,1.948,1.948,0,0,0-.039-.4,2.008,2.008,0,0,0-.3-.732,1.941,1.941,0,0,0-.252-.31,2.04,2.04,0,0,0-.661-.439,2.007,2.007,0,0,0-.38-.115,1.97,1.97,0,0,0-.795,0,2.039,2.039,0,0,0-.381.115,2.079,2.079,0,0,0-.352.187,2.027,2.027,0,0,0-.308.252,1.893,1.893,0,0,0-.253.31,2.055,2.055,0,0,0-.3.732,2.032,2.032,0,0,0-.041.4,2.054,2.054,0,0,0,.041.4A2.01,2.01,0,0,0,222.933,335.505Z"/>
    <path id="Trazado_163645" data-name="Trazado 163645" d="M231.068,335.505a2.057,2.057,0,0,0,.188.349,1.886,1.886,0,0,0,.252.31,2.112,2.112,0,0,0,.309.254,2.154,2.154,0,0,0,.351.188,2.116,2.116,0,0,0,.381.115,1.974,1.974,0,0,0,.4.039,2.065,2.065,0,0,0,.4-.039,1.994,1.994,0,0,0,.731-.3,2.112,2.112,0,0,0,.309-.254,1.95,1.95,0,0,0,.254-.31,2.031,2.031,0,0,0,.3-.729,2.073,2.073,0,0,0,.038-.4,2.038,2.038,0,0,0-.038-.4,2.061,2.061,0,0,0-.3-.731,1.952,1.952,0,0,0-.254-.31,1.978,1.978,0,0,0-.309-.252,2.065,2.065,0,0,0-.35-.187,2.146,2.146,0,0,0-.381-.116,1.97,1.97,0,0,0-.795,0,2.121,2.121,0,0,0-.381.116,2.074,2.074,0,0,0-.351.187,1.978,1.978,0,0,0-.309.252,1.887,1.887,0,0,0-.252.31,2,2,0,0,0-.188.351,2.087,2.087,0,0,0-.116.38,2.04,2.04,0,0,0-.04.4,2.076,2.076,0,0,0,.04.4A2.135,2.135,0,0,0,231.068,335.505Z"/>
    <path id="Trazado_163646" data-name="Trazado 163646" d="M230.023,398.97a2.117,2.117,0,0,0-.187-.352,1.989,1.989,0,0,0-.254-.309,2.046,2.046,0,0,0-1.835-.555,2.01,2.01,0,0,0-.38.116,2.122,2.122,0,0,0-.352.187,2.075,2.075,0,0,0-.309.252,1.922,1.922,0,0,0-.252.309,2.122,2.122,0,0,0-.188.352,2.006,2.006,0,0,0-.115.38,1.966,1.966,0,0,0-.041.4,2,2,0,0,0,.041.4,1.985,1.985,0,0,0,.3.729,1.886,1.886,0,0,0,.252.31,2.087,2.087,0,0,0,.309.254,2.124,2.124,0,0,0,.352.187,2.01,2.01,0,0,0,.38.116,1.984,1.984,0,0,0,.4.039,2.04,2.04,0,0,0,1.436-.6,2,2,0,0,0,.254-.31,2.034,2.034,0,0,0,.3-1.525A2.009,2.009,0,0,0,230.023,398.97Z"/>
    <path id="Trazado_163647" data-name="Trazado 163647" d="M222.506,377.425H238.98a2.035,2.035,0,0,0,0-4.069H222.506a2.035,2.035,0,0,0,0,4.069Z"/>
    <path id="Trazado_163648" data-name="Trazado 163648" d="M222.506,369.235h20.339a2.034,2.034,0,0,0,0-4.068H222.506a2.034,2.034,0,1,0,0,4.068Z"/>
    <path id="Trazado_163649" data-name="Trazado 163649" d="M222.506,361.153h12.2a2.034,2.034,0,1,0,0-4.067h-12.2a2.034,2.034,0,1,0,0,4.067Z"/>
    <path id="Trazado_163650" data-name="Trazado 163650" d="M245.082,383.471a2.034,2.034,0,0,0-2.034-2.033H222.506a2.034,2.034,0,0,0,0,4.068h20.542A2.034,2.034,0,0,0,245.082,383.471Z"/>
    <path id="Trazado_163651" data-name="Trazado 163651" d="M292.714,370.848c.038-.039.075-.079.109-.12s.041-.055.062-.083.039-.05.056-.077.04-.063.059-.1.03-.049.044-.075.032-.065.048-.1.026-.054.038-.082.024-.064.035-.1.023-.061.032-.092.017-.065.025-.1.017-.064.023-.1.013-.076.018-.114.009-.055.011-.083a1.928,1.928,0,0,0,0-.4c0-.028-.008-.055-.011-.082s-.01-.077-.018-.115-.015-.063-.023-.1-.015-.066-.025-.1-.021-.061-.032-.091-.022-.065-.035-.1-.026-.054-.038-.082-.031-.066-.048-.1-.029-.05-.044-.074-.037-.066-.059-.1-.037-.051-.055-.077-.041-.056-.062-.082c-.035-.042-.072-.082-.109-.121l-.026-.028-5.752-5.753a2.034,2.034,0,1,0-2.876,2.877l2.28,2.281H263.619l2.281-2.281a2.034,2.034,0,1,0-2.877-2.877L257.27,368l-.024.028c-.038.039-.075.079-.109.121-.022.026-.041.053-.061.08s-.039.052-.058.079-.038.062-.057.094-.031.05-.045.077-.031.063-.046.1-.028.056-.04.086-.022.061-.033.092-.024.063-.034.095-.016.062-.024.093-.018.066-.024.1a.935.935,0,0,0-.016.1c-.005.031-.011.062-.014.093-.006.063-.009.127-.009.191v.018c0,.064,0,.128.009.191,0,.031.009.062.014.093a.935.935,0,0,0,.016.1c.006.035.016.068.024.1s.015.062.024.093.022.063.034.1.02.061.033.091.027.057.04.086.029.064.046.1.03.051.045.077.037.063.057.094.038.053.058.079.038.054.061.08c.034.042.071.082.109.121l.024.028,5.753,5.753a2.034,2.034,0,1,0,2.876-2.877l-2.281-2.281H286.34l-2.28,2.281a2.034,2.034,0,0,0,2.876,2.877l5.753-5.753C292.7,370.867,292.7,370.858,292.714,370.848Z"/>
    <path id="Trazado_163652" data-name="Trazado 163652" d="M302.468,410.016a6.135,6.135,0,0,0,6.128-6.128,5.9,5.9,0,0,0-.058-.8v-72.4c0-3.421-3.088-6.2-6.884-6.2H211.289c-3.8,0-6.885,2.783-6.885,6.2v73.015c0,3.421,3.089,6.2,6.885,6.2h54.575a6.178,6.178,0,0,0,1.116.1h.376a18.5,18.5,0,0,0,.753,1.816l-.266.266a6.13,6.13,0,1,0,8.668,8.669l.267-.266a18.542,18.542,0,0,0,1.818.754v.376a6.134,6.134,0,0,0,6.128,6.128,6.135,6.135,0,0,0,6.128-6.128v-.377a18.5,18.5,0,0,0,1.816-.753l.267.266a6.13,6.13,0,0,0,8.671-8.668l-.267-.267a18.561,18.561,0,0,0,.753-1.816Zm-91.179-81.459h90.365c1.527,0,2.817.979,2.817,2.136v10.122h-96V330.693C208.472,329.536,209.762,328.557,211.289,328.557Zm-2.817,75.151V344.882h96v53.21a6.14,6.14,0,0,0-2-.334h-.377a18.326,18.326,0,0,0-.753-1.816l.267-.266a6.129,6.129,0,0,0-1.33-9.678V350.984a2.034,2.034,0,0,0-2.034-2.034H214.7a2.034,2.034,0,0,0-2.034,2.034v48.759a2.034,2.034,0,0,0,2.034,2.034h5.375a2.034,2.034,0,0,0,0-4.068h-3.341V353.017h32.413v44.692h-12.8a2.034,2.034,0,1,0,0,4.068h24.876a6.112,6.112,0,0,0-.373,2.111,5.945,5.945,0,0,0,.327,1.956H211.289C209.762,405.844,208.472,404.867,208.472,403.708Zm80.589-21.892a6.125,6.125,0,0,0-10.465,4.326v.377a18.534,18.534,0,0,0-1.818.754l-.264-.265a6.13,6.13,0,1,0-8.671,8.667l.266.266a18.321,18.321,0,0,0-.735,1.767H253.217V353.017h42.991V385.3a6.091,6.091,0,0,0-3.274,1.705l-.266.268a18.274,18.274,0,0,0-1.816-.754v-.378A6.065,6.065,0,0,0,289.061,381.816Zm11.525,24.133a2.035,2.035,0,0,0-1.97,1.526,14.159,14.159,0,0,1-1.531,3.693,2.033,2.033,0,0,0,.312,2.475l1.331,1.331a2.063,2.063,0,0,1-2.917,2.917l-1.332-1.333a2.038,2.038,0,0,0-2.477-.31,14.177,14.177,0,0,1-3.693,1.533,2.035,2.035,0,0,0-1.525,1.969v1.881a2.063,2.063,0,0,1-2.06,2.061,2.067,2.067,0,0,1-2.06-2.061V419.75a2.033,2.033,0,0,0-1.526-1.969,14.2,14.2,0,0,1-3.694-1.533,2.034,2.034,0,0,0-2.477.311l-1.333,1.333a2.062,2.062,0,0,1-2.915-2.917l1.332-1.332a2.036,2.036,0,0,0,.311-2.477,14.22,14.22,0,0,1-1.534-3.694,2.033,2.033,0,0,0-1.969-1.523H266.98a2.118,2.118,0,0,1-.465-.052,2.07,2.07,0,0,1-1.6-2.009,2.071,2.071,0,0,1,2.062-2.063h1.879a2.048,2.048,0,0,0,1.953-1.471l.006-.022c.006-.023.014-.046.021-.071l0-.014a14.19,14.19,0,0,1,1.52-3.639,2.036,2.036,0,0,0-.311-2.477l-1.332-1.331a2.067,2.067,0,0,1,0-2.919,2.067,2.067,0,0,1,2.913,0l1.333,1.333a2.036,2.036,0,0,0,2.477.311,14.2,14.2,0,0,1,3.694-1.533,2.034,2.034,0,0,0,1.526-1.97v-1.881a2.06,2.06,0,0,1,4.12,0v1.882a2.035,2.035,0,0,0,1.525,1.969A14.175,14.175,0,0,1,292,391.526a2.038,2.038,0,0,0,2.477-.31l1.332-1.333a2.063,2.063,0,0,1,2.918,2.916l-1.332,1.332a2.033,2.033,0,0,0-.312,2.475,14.144,14.144,0,0,1,1.531,3.693,2.035,2.035,0,0,0,1.97,1.526h1.882a2.055,2.055,0,0,1,2.033,1.734,1.888,1.888,0,0,1,.027.329,2.067,2.067,0,0,1-2.06,2.061Z"/>
  </g>
</svg>
