<svg xmlns="http://www.w3.org/2000/svg" width="135" height="135" viewBox="0 0 135 135">
  <g id="Grupo_102262" data-name="Grupo 102262" transform="translate(-359.591 -12600.352)">
    <circle id="Elipse_5334" data-name="Elipse 5334" cx="67.5" cy="67.5" r="67.5" transform="translate(359.591 12600.352)" fill="#fec935"/>
    <circle id="Elipse_5335" data-name="Elipse 5335" cx="57.656" cy="57.656" r="57.656" transform="translate(369.863 12610.196)" fill="#ffeab2"/>
    <g id="Grupo_101773" data-name="Grupo 101773" transform="translate(387.471 12634.457)">
      <path id="Trazado_162966" data-name="Trazado 162966" d="M-1389.651,2248.272h-60.11a3.92,3.92,0,0,0-3.92,3.92v52.27a3.92,3.92,0,0,0,3.92,3.92h60.11a3.921,3.921,0,0,0,3.921-3.92v-52.27A3.92,3.92,0,0,0-1389.651,2248.272Z" transform="translate(1454.904 -2247.049)" fill="#eceaec"/>
      <path id="Trazado_162967" data-name="Trazado 162967" d="M-1389.651,2304.1h-60.11a3.92,3.92,0,0,1-3.92-3.919v-35.283h67.951v35.283A3.92,3.92,0,0,1-1389.651,2304.1Z" transform="translate(1454.904 -2242.762)" fill="#fef0ae"/>
      <path id="Trazado_162968" data-name="Trazado 162968" d="M-1449.761,2281.88v-16.987h-3.92v35.281a3.921,3.921,0,0,0,3.92,3.921h60.11a3.921,3.921,0,0,0,3.921-3.921h-45.736A18.3,18.3,0,0,1-1449.761,2281.88Z" transform="translate(1454.904 -2242.762)" fill="#fee97d"/>
      <path id="Trazado_162969" data-name="Trazado 162969" d="M-1389.651,2248.272h-60.11a3.92,3.92,0,0,0-3.92,3.92v6.534h30.056a1.308,1.308,0,0,0,1.307-1.307v-3.92h10.453v3.92a1.307,1.307,0,0,0,1.307,1.307h24.828v-6.534A3.92,3.92,0,0,0-1389.651,2248.272Z" transform="translate(1454.904 -2247.049)" fill="#dad8db"/>
      <path id="Trazado_162970" data-name="Trazado 162970" d="M-1437.06,2253.734v3.92h9.148a1.308,1.308,0,0,0,1.307-1.306v-3.921h-9.147A1.307,1.307,0,0,0-1437.06,2253.734Z" transform="translate(1459.191 -2245.978)" fill="#c8c5c9"/>
      <path id="Trazado_162971" data-name="Trazado 162971" d="M-1400.838,2252.427h-19.6v3.921a1.306,1.306,0,0,0,1.307,1.306h19.6v-3.92A1.307,1.307,0,0,0-1400.838,2252.427Z" transform="translate(1463.478 -2245.978)" fill="#c8c5c9"/>
      <path id="Trazado_162972" data-name="Trazado 162972" d="M-1394.206,2304.1h-41.815v-39.2h45.736v35.283A3.92,3.92,0,0,1-1394.206,2304.1Z" transform="translate(1459.459 -2242.762)" fill="#ddffa7"/>
      <path id="Trazado_162973" data-name="Trazado 162973" d="M-1436.021,2296.861h41.815a3.921,3.921,0,0,0,3.921-3.92h-45.736Z" transform="translate(1459.459 -2235.527)" fill="#f5ffe1"/>
      <path id="Trazado_162974" data-name="Trazado 162974" d="M-1384.62,2310.294H-1418.6a3.92,3.92,0,0,1-3.921-3.919V2280.24a3.921,3.921,0,0,1,3.921-3.92h33.975a3.92,3.92,0,0,1,3.921,3.92v26.135A3.92,3.92,0,0,1-1384.62,2310.294Z" transform="translate(1462.942 -2239.815)" fill="#ff826e"/>
      <path id="Trazado_162975" data-name="Trazado 162975" d="M-1418.6,2294.614V2276.32a3.921,3.921,0,0,0-3.921,3.92v26.135a3.92,3.92,0,0,0,3.921,3.919h33.975a3.92,3.92,0,0,0,3.921-3.919h-26.135A11.76,11.76,0,0,1-1418.6,2294.614Z" transform="translate(1462.942 -2239.815)" fill="#f95746"/>
      <path id="Trazado_162976" data-name="Trazado 162976" d="M-1419.454,2307.41h-10.538v-36.757h43.291v7.925a1.222,1.222,0,0,0,1.223,1.222,1.222,1.222,0,0,0,1.222-1.222v-26.136a5.149,5.149,0,0,0-5.144-5.142h-60.11a5.149,5.149,0,0,0-5.143,5.142v52.27a5.149,5.149,0,0,0,5.143,5.144h30.056a1.223,1.223,0,0,0,1.223-1.223A1.223,1.223,0,0,0-1419.454,2307.41Zm-30.056-57.665h60.11a2.7,2.7,0,0,1,2.7,2.7v5.313h-2.781v-2.7a2.533,2.533,0,0,0-2.53-2.53h-39.2a2.532,2.532,0,0,0-2.53,2.53v2.7h-18.463v-5.313A2.7,2.7,0,0,1-1449.51,2249.745Zm49.573,8.01v-2.783h7.925a.084.084,0,0,1,.084.084v2.7Zm-10.369,0a.085.085,0,0,1-.085-.084v-2.7h8.008v2.783Zm-12.983-.083a.077.077,0,0,1-.024.058.08.08,0,0,1-.06.025h-7.925v-2.7a.084.084,0,0,1,.084-.084h7.925Zm-28.918,47.041v-34.059h9.232a1.223,1.223,0,0,0,1.223-1.222,1.223,1.223,0,0,0-1.223-1.223h-9.232V2260.2h28.833a2.511,2.511,0,0,0,1.788-.739,2.511,2.511,0,0,0,.741-1.789v-2.7h8.009v2.7a2.532,2.532,0,0,0,2.53,2.529h23.6v8.009h-51.047a1.223,1.223,0,0,0-1.223,1.223,1.223,1.223,0,0,0,1.223,1.222h5.311v36.757h-17.073A2.7,2.7,0,0,1-1452.208,2304.712Z" transform="translate(1454.653 -2247.3)"/>
      <path id="Trazado_162977" data-name="Trazado 162977" d="M-1449.263,2253.9a1.223,1.223,0,0,0,1.223-1.223,1.223,1.223,0,0,0-1.223-1.223h-.012a1.217,1.217,0,0,0-1.217,1.223A1.227,1.227,0,0,0-1449.263,2253.9Z" transform="translate(1455.726 -2246.228)"/>
      <path id="Trazado_162978" data-name="Trazado 162978" d="M-1445.108,2253.9a1.222,1.222,0,0,0,1.223-1.223,1.222,1.222,0,0,0-1.223-1.223h-.013a1.217,1.217,0,0,0-1.217,1.223A1.228,1.228,0,0,0-1445.108,2253.9Z" transform="translate(1456.798 -2246.228)"/>
      <path id="Trazado_162979" data-name="Trazado 162979" d="M-1440.953,2253.9a1.222,1.222,0,0,0,1.223-1.223,1.222,1.222,0,0,0-1.223-1.223h-.012a1.217,1.217,0,0,0-1.217,1.223A1.228,1.228,0,0,0-1440.953,2253.9Z" transform="translate(1457.87 -2246.228)"/>
      <path id="Trazado_162980" data-name="Trazado 162980" d="M-1444.049,2259.766h-5.227a1.223,1.223,0,0,0-1.223,1.221,1.222,1.222,0,0,0,1.223,1.223h5.227a1.222,1.222,0,0,0,1.223-1.223A1.222,1.222,0,0,0-1444.049,2259.766Z" transform="translate(1455.725 -2244.084)"/>
      <path id="Trazado_162981" data-name="Trazado 162981" d="M-1440.964,2262.21h33.974a1.221,1.221,0,0,0,1.222-1.223,1.222,1.222,0,0,0-1.222-1.221h-33.974a1.223,1.223,0,0,0-1.223,1.221A1.223,1.223,0,0,0-1440.964,2262.21Z" transform="translate(1457.868 -2244.084)"/>
      <path id="Trazado_162982" data-name="Trazado 162982" d="M-1409.8,2262.21h1.307a1.222,1.222,0,0,0,1.223-1.223,1.222,1.222,0,0,0-1.223-1.221h-1.307a1.223,1.223,0,0,0-1.223,1.221A1.222,1.222,0,0,0-1409.8,2262.21Z" transform="translate(1465.906 -2244.084)"/>
      <path id="Trazado_162983" data-name="Trazado 162983" d="M-1404.606,2262.21h1.306a1.222,1.222,0,0,0,1.223-1.223,1.222,1.222,0,0,0-1.223-1.221h-1.306a1.222,1.222,0,0,0-1.223,1.221A1.222,1.222,0,0,0-1404.606,2262.21Z" transform="translate(1467.247 -2244.084)"/>
      <path id="Trazado_162984" data-name="Trazado 162984" d="M-1384.37,2275.348h-33.976a5.149,5.149,0,0,0-5.142,5.143v26.135a5.149,5.149,0,0,0,5.142,5.143h33.975a5.149,5.149,0,0,0,5.144-5.143V2280.49A5.149,5.149,0,0,0-1384.37,2275.348Zm2.7,31.277a2.7,2.7,0,0,1-2.7,2.7h-33.976a2.7,2.7,0,0,1-2.7-2.7V2280.49a2.7,2.7,0,0,1,2.7-2.7h33.975a2.7,2.7,0,0,1,2.7,2.7Z" transform="translate(1462.692 -2240.065)"/>
      <path id="Trazado_162985" data-name="Trazado 162985" d="M-1448.237,2271.559h10.455a1.222,1.222,0,0,0,1.223-1.222,1.223,1.223,0,0,0-1.223-1.222h-10.455a1.221,1.221,0,0,0-1.221,1.222A1.22,1.22,0,0,0-1448.237,2271.559Z" transform="translate(1455.993 -2241.673)"/>
      <path id="Trazado_162986" data-name="Trazado 162986" d="M-1437.782,2281.581h-10.455a1.221,1.221,0,0,0-1.221,1.221,1.222,1.222,0,0,0,1.221,1.223h10.455a1.224,1.224,0,0,0,1.223-1.223A1.223,1.223,0,0,0-1437.782,2281.581Z" transform="translate(1455.993 -2238.458)"/>
      <path id="Trazado_162987" data-name="Trazado 162987" d="M-1439.389,2285.735H-1442a1.223,1.223,0,0,0-1.223,1.223,1.222,1.222,0,0,0,1.223,1.223h2.614a1.223,1.223,0,0,0,1.223-1.223A1.224,1.224,0,0,0-1439.389,2285.735Z" transform="translate(1457.601 -2237.386)"/>
      <path id="Trazado_162988" data-name="Trazado 162988" d="M-1438.585,2273.27h-6.534a1.222,1.222,0,0,0-1.223,1.223,1.223,1.223,0,0,0,1.223,1.223h6.534a1.224,1.224,0,0,0,1.223-1.223A1.223,1.223,0,0,0-1438.585,2273.27Z" transform="translate(1456.797 -2240.601)"/>
      <path id="Trazado_162989" data-name="Trazado 162989" d="M-1438.585,2277.426h-6.534a1.221,1.221,0,0,0-1.223,1.222,1.223,1.223,0,0,0,1.223,1.223h6.534a1.223,1.223,0,0,0,1.223-1.223A1.222,1.222,0,0,0-1438.585,2277.426Z" transform="translate(1456.797 -2239.529)"/>
      <path id="Trazado_162990" data-name="Trazado 162990" d="M-1431.615,2269.115a1.222,1.222,0,0,0-1.223,1.222,1.222,1.222,0,0,0,1.223,1.222h3.921a1.221,1.221,0,0,0,1.221-1.222,1.222,1.222,0,0,0-1.221-1.222Z" transform="translate(1460.28 -2241.673)"/>
      <path id="Trazado_162991" data-name="Trazado 162991" d="M-1424.343,2269.115a1.222,1.222,0,0,0-1.223,1.222,1.222,1.222,0,0,0,1.223,1.222h26.135a1.221,1.221,0,0,0,1.223-1.222,1.222,1.222,0,0,0-1.223-1.222Z" transform="translate(1462.156 -2241.673)"/>
      <path id="Trazado_162992" data-name="Trazado 162992" d="M-1422.468,2273.27h-9.148a1.222,1.222,0,0,0-1.223,1.223,1.223,1.223,0,0,0,1.223,1.223h9.148a1.223,1.223,0,0,0,1.223-1.223A1.222,1.222,0,0,0-1422.468,2273.27Z" transform="translate(1460.28 -2240.601)"/>
      <path id="Trazado_162993" data-name="Trazado 162993" d="M-1425.082,2277.426h-6.534a1.222,1.222,0,0,0-1.223,1.222,1.223,1.223,0,0,0,1.223,1.223h6.534a1.223,1.223,0,0,0,1.223-1.223A1.222,1.222,0,0,0-1425.082,2277.426Z" transform="translate(1460.28 -2239.529)"/>
      <path id="Trazado_162994" data-name="Trazado 162994" d="M-1425.082,2281.581h-6.534a1.222,1.222,0,0,0-1.223,1.221,1.223,1.223,0,0,0,1.223,1.223h6.534a1.223,1.223,0,0,0,1.223-1.223A1.222,1.222,0,0,0-1425.082,2281.581Z" transform="translate(1460.28 -2238.458)"/>
      <path id="Trazado_162995" data-name="Trazado 162995" d="M-1408.635,2284.017a1.221,1.221,0,0,0-1.729,0l-6.533,6.534a1.222,1.222,0,0,0,0,1.729l6.533,6.533a1.219,1.219,0,0,0,.864.358,1.216,1.216,0,0,0,.864-.358,1.221,1.221,0,0,0,0-1.729l-5.668-5.67,5.668-5.669A1.221,1.221,0,0,0-1408.635,2284.017Z" transform="translate(1464.299 -2237.922)"/>
      <path id="Trazado_162996" data-name="Trazado 162996" d="M-1399.587,2284.017a1.221,1.221,0,0,0-1.728,0,1.221,1.221,0,0,0,0,1.729l5.67,5.669-5.67,5.67a1.221,1.221,0,0,0,0,1.729,1.218,1.218,0,0,0,.864.358,1.216,1.216,0,0,0,.864-.358l6.535-6.534a1.223,1.223,0,0,0,0-1.728Z" transform="translate(1468.318 -2237.922)"/>
      <path id="Trazado_162997" data-name="Trazado 162997" d="M-1402.2,2280.579a1.223,1.223,0,0,0-1.483.889l-5.227,20.909a1.222,1.222,0,0,0,.889,1.482,1.265,1.265,0,0,0,.3.037,1.222,1.222,0,0,0,1.185-.927l5.228-20.907A1.222,1.222,0,0,0-1402.2,2280.579Z" transform="translate(1466.443 -2238.726)"/>
    </g>
  </g>
</svg>
