<svg xmlns="http://www.w3.org/2000/svg" xmlns:xlink="http://www.w3.org/1999/xlink" width="416.882" height="410.212" viewBox="0 0 416.882 410.212">
  <defs>
    <linearGradient id="linear-gradient" x1="110.384" y1="0.5" x2="111.384" y2="0.5" gradientUnits="objectBoundingBox">
      <stop offset="0" stop-color="#2f94ff"/>
      <stop offset="1" stop-color="#116dd9"/>
    </linearGradient>
    <linearGradient id="linear-gradient-2" x1="0.375" y1="-0.235" x2="0.444" y2="0.155" gradientUnits="objectBoundingBox">
      <stop offset="0" stop-color="#084a93"/>
      <stop offset="0.004" stop-color="#084a93"/>
      <stop offset="0.356" stop-color="#084a93"/>
      <stop offset="1" stop-color="#084a93"/>
    </linearGradient>
    <linearGradient id="linear-gradient-3" x1="0.613" y1="-0.017" x2="0.196" y2="2.011" gradientUnits="objectBoundingBox">
      <stop offset="0" stop-color="#f0fcff"/>
      <stop offset="0.004" stop-color="#2f94ff"/>
      <stop offset="0.356" stop-color="#2f94ff"/>
      <stop offset="1" stop-color="#f0fcff"/>
    </linearGradient>
    <linearGradient id="linear-gradient-4" x1="0.562" y1="-2.36" x2="0.485" y2="1.393" gradientUnits="objectBoundingBox">
      <stop offset="0" stop-color="#084a93"/>
      <stop offset="0.004" stop-color="#084a93"/>
      <stop offset="0.356" stop-color="#084a93"/>
      <stop offset="1" stop-color="#2f94ff"/>
    </linearGradient>
    <linearGradient id="linear-gradient-5" x1="0.209" y1="8.205" x2="-0.479" y2="26.381" gradientUnits="objectBoundingBox">
      <stop offset="0" stop-color="#084a93"/>
      <stop offset="0.004" stop-color="#7ecb9a"/>
      <stop offset="0.356" stop-color="#75ce76"/>
      <stop offset="1" stop-color="#a9de66"/>
    </linearGradient>
    <linearGradient id="linear-gradient-6" x1="0.405" y1="0.312" x2="-0.18" y2="1.022" gradientUnits="objectBoundingBox">
      <stop offset="0" stop-color="#ab316d"/>
      <stop offset="1" stop-color="#792d3d"/>
    </linearGradient>
    <linearGradient id="linear-gradient-7" x1="0.171" y1="0.593" x2="1.436" y2="-0.86" gradientUnits="objectBoundingBox">
      <stop offset="0" stop-color="#ffc444"/>
      <stop offset="0.996" stop-color="#f36f56"/>
    </linearGradient>
    <linearGradient id="linear-gradient-8" x1="-0.254" y1="0.5" x2="0.746" y2="0.5" xlink:href="#linear-gradient-7"/>
    <linearGradient id="linear-gradient-9" x1="1353.377" y1="0.806" x2="1354.202" y2="2.913" xlink:href="#linear-gradient-7"/>
    <linearGradient id="linear-gradient-10" x1="1320.57" y1="1.393" x2="1321.4" y2="3.374" xlink:href="#linear-gradient-7"/>
    <linearGradient id="linear-gradient-11" x1="2128.288" y1="-1.509" x2="2130.258" y2="1.845" xlink:href="#linear-gradient-7"/>
    <linearGradient id="linear-gradient-12" x1="1277.066" y1="-0.724" x2="1278.242" y2="3.619" xlink:href="#linear-gradient-7"/>
    <linearGradient id="linear-gradient-13" x1="301.487" y1="0.729" x2="300.181" y2="0.29" gradientUnits="objectBoundingBox">
      <stop offset="0" stop-color="#444b8c"/>
      <stop offset="0.996" stop-color="#3e4177"/>
    </linearGradient>
    <linearGradient id="linear-gradient-14" x1="344.341" y1="0.729" x2="342.849" y2="0.29" xlink:href="#linear-gradient-13"/>
    <linearGradient id="linear-gradient-15" x1="224.239" y1="0.498" x2="222.794" y2="0.393" xlink:href="#linear-gradient-13"/>
    <linearGradient id="linear-gradient-16" x1="59.071" y1="-0.177" x2="59.307" y2="0.869" gradientUnits="objectBoundingBox">
      <stop offset="0" stop-color="#ff9085"/>
      <stop offset="1" stop-color="#fb6fbb"/>
    </linearGradient>
    <linearGradient id="linear-gradient-17" x1="370.792" y1="0.469" x2="371.061" y2="1.605" xlink:href="#linear-gradient-7"/>
    <linearGradient id="linear-gradient-18" x1="880.854" y1="21.221" x2="881.581" y2="22.844" xlink:href="#linear-gradient-7"/>
    <linearGradient id="linear-gradient-19" x1="4051.938" y1="141.99" x2="4060.406" y2="152.61" xlink:href="#linear-gradient-7"/>
    <linearGradient id="linear-gradient-20" x1="75.579" y1="-0.718" x2="75.883" y2="0.884" xlink:href="#linear-gradient-16"/>
    <linearGradient id="linear-gradient-21" x1="183.373" y1="8.618" x2="182.759" y2="8.274" gradientUnits="objectBoundingBox">
      <stop offset="0" stop-color="#311944"/>
      <stop offset="1" stop-color="#893976"/>
    </linearGradient>
    <linearGradient id="linear-gradient-22" x1="345.798" y1="8.473" x2="346.088" y2="8.542" xlink:href="#linear-gradient-21"/>
    <linearGradient id="linear-gradient-23" x1="0.885" y1="0.976" x2="-0.554" y2="-0.772" xlink:href="#linear-gradient-16"/>
  </defs>
  <g id="Grupo_102179" data-name="Grupo 102179" transform="translate(0)">
    <path id="Trazado_162733" data-name="Trazado 162733" d="M-1627.687,1519.238c-11.3-73.186-57.625-163.1-149.151-172.508,0,0-69.49-8.362-137.994,4.313-40.656,7.523-76.305,29.918-98.862,62.106s-30.092,71.436-20.95,108.856c5.941,24.3,9.953,49.457,8.853,74.431-1.917,43.464-.814,84.034,41.813,109.955,38.062,23.144,85.964,43.556,131.661,47.131,31.056,2.43,65.885-1.5,95.817-9.5C-1603.957,1703.244-1616.386,1592.421-1627.687,1519.238Z" transform="translate(2038.437 -1344.024)" fill="#f4f7fa"/>
    <g id="Grupo_101476" data-name="Grupo 101476" transform="translate(70.366 1.882)">
      <g id="Grupo_101473" data-name="Grupo 101473" transform="translate(49.719)">
        <path id="Trazado_162734" data-name="Trazado 162734" d="M-1907.61,1620.917a50.547,50.547,0,0,0,65.593-15.309c9.083-12.762,14.854-30.758,18.147-45.876,20.49-94.029-33.834-39.085-32.138-96.72s-.255-95.823-74.931-115.883c0,0-66.947-20.061-45.228,61.312,3.982,14.913,9.931,29.728,19.638,41.94,10.2,12.836,23.745,22.459,36.381,32.753,15.121,12.321,4.6,32.766-1.088,47.228-7.062,17.974-14,36.191-10.743,55.813A47.563,47.563,0,0,0-1907.61,1620.917Z" transform="translate(1980.503 -1344.941)" fill="url(#linear-gradient)"/>
        <g id="Grupo_101472" data-name="Grupo 101472" transform="translate(68.995 78.743)" opacity="0.8" style="mix-blend-mode: soft-light;isolation: isolate">
          <path id="Trazado_162735" data-name="Trazado 162735" d="M-1923.054,1578.2a.609.609,0,0,0,.587-.444,409.778,409.778,0,0,0,12.306-79c1.242-24.7-.477-46.4-5.105-64.5-5.8-22.7-16.226-39.791-30.976-50.8a.613.613,0,0,0-.852.119.6.6,0,0,0,.118.845c32.934,24.582,37.536,75.715,35.6,114.281a408.458,408.458,0,0,1-12.263,78.74.6.6,0,0,0,.425.74A.54.54,0,0,0-1923.054,1578.2Z" transform="translate(1947.217 -1383.333)" fill="#fff"/>
        </g>
      </g>
      <g id="Grupo_101475" data-name="Grupo 101475" transform="translate(0 64.532)">
        <path id="Trazado_162736" data-name="Trazado 162736" d="M-1832.965,1640.607c2.838-.4,5.446-2.337,7.628-6.422,9.064-16.964-7.875-42.654-8.237-60.471-.365-17.916,3.6-35.385,8-52.618,4.529-17.77,6.859-36.658-5.466-51.994-10.625-13.223-28.857-23.3-45.433-13.5-30.7,18.152-29.894-12.208-35.2-32.684-6.108-23.569-32.787-50.948-59.269-45.913-23.746,4.516-33.536,37.811-33.544,58.455,0,10.78,4.007,27.242,12.368,34.987,19.242,17.824,62.833,17.7,46,52.249-5.675,11.65-11.01,24.116-.241,34.743,11.034,10.885,29.276,11.838,43.068,17.295,15.689,6.206,26.306,18.943,35.816,32.212C-1862.861,1613.4-1845.621,1642.367-1832.965,1640.607Z" transform="translate(2004.49 -1376.404)" fill="#bfc8d6"/>
        <g id="Grupo_101474" data-name="Grupo 101474" transform="translate(58.003 61.286)" opacity="0.8" style="mix-blend-mode: soft-light;isolation: isolate">
          <path id="Trazado_162737" data-name="Trazado 162737" d="M-1861.339,1603.809a.619.619,0,0,0,.17-.035.6.6,0,0,0,.365-.773c-.137-.373-13.925-37.846-34.848-80.582-12.291-25.1-24.6-47.092-36.6-65.346-15.011-22.847-29.569-39.889-43.268-50.657a.614.614,0,0,0-.856.1.6.6,0,0,0,.1.847c30.816,24.223,60.256,76.225,79.527,115.585,20.9,42.68,34.663,80.1,34.8,80.469A.608.608,0,0,0-1861.339,1603.809Z" transform="translate(1976.507 -1406.284)" fill="#fff"/>
        </g>
      </g>
    </g>
    <g id="Grupo_101481" data-name="Grupo 101481" transform="translate(149.306 19.15)">
      <g id="Grupo_101479" data-name="Grupo 101479">
        <g id="Grupo_101478" data-name="Grupo 101478">
          <path id="Trazado_162738" data-name="Trazado 162738" d="M-1921.56,1366.247l-40.962,336.9a8.9,8.9,0,0,0,7.833,10.064l170.613,18.533c10.451.644,16.174-4.64,16.819-10.011l43-358.18c.643-5.341-4.485-10.177-14.982-10.177l-172.163,3.587A10.808,10.808,0,0,0-1921.56,1366.247Z" transform="translate(1970.496 -1353.346)" fill="#abc"/>
          <path id="Trazado_162739" data-name="Trazado 162739" d="M-1925.147,1365.683l-41.188,338.582a8.936,8.936,0,0,0,7.86,10.116l176.877,17.426a10.318,10.318,0,0,0,11.276-8.821l43.247-360.031c.645-5.37-3.428-9.685-9.035-9.593l-178.836,2.987A10.856,10.856,0,0,0-1925.147,1365.683Z" transform="translate(1966.406 -1353.36)" fill="#bfc8d6"/>
          <path id="Trazado_162740" data-name="Trazado 162740" d="M-1925.089,1373.824l-38.177,313.935a8.336,8.336,0,0,0,7.361,9.433l166.347,16a9.62,9.62,0,0,0,10.482-8.235l39.968-332.585c.6-5-3.182-9.045-8.389-8.99l-168.053,1.772A10.075,10.075,0,0,0-1925.089,1373.824Z" transform="translate(1969.704 -1342.827)" fill="#eaedf3"/>
          <path id="Trazado_162741" data-name="Trazado 162741" d="M-1901.835,1360.951a2.813,2.813,0,0,0,2.923,3.222,3.885,3.885,0,0,0,3.719-3.31,2.813,2.813,0,0,0-2.929-3.222A3.888,3.888,0,0,0-1901.835,1360.951Z" transform="translate(2035.651 -1348.862)" fill="#fff"/>
          <g id="Grupo_101477" data-name="Grupo 101477" transform="translate(45.709)" style="mix-blend-mode: soft-light;isolation: isolate">
            <path id="Trazado_162742" data-name="Trazado 162742" d="M-1916.689,1595.091c34.054-62.3,84.926-80.951,100.244-145.161,8.279-34.708,2.637-67.927-6.863-95.505l63.539-1.063c5.607-.092,9.68,4.223,9.035,9.593l-43.246,360.031a10.316,10.316,0,0,1-11.276,8.821l-139.043-13.7C-1945.326,1662.284-1931.87,1622.863-1916.689,1595.091Z" transform="translate(1944.354 -1353.36)" fill="#fff"/>
          </g>
        </g>
      </g>
      <g id="Grupo_101480" data-name="Grupo 101480" transform="translate(63.154 73.882)">
        <path id="Trazado_162743" data-name="Trazado 162743" d="M-1899.564,1436.362l-8.872,4.012a2.789,2.789,0,0,0-1.459,3.636l2.21,5a45.053,45.053,0,0,0-6.077,4.83l-4.415-3.177a2.8,2.8,0,0,0-3.862.65l-5.737,7.714a2.736,2.736,0,0,0,.518,3.845l4.353,3.222a45.014,45.014,0,0,0-2.91,7.2l-5.412-.6a2.826,2.826,0,0,0-3.078,2.465l-1.246,9.6a2.762,2.762,0,0,0,2.371,3.13l5.4.658a45.3,45.3,0,0,0,1.049,7.833l-5.07,2.186a2.907,2.907,0,0,0-1.507,3.75l3.706,9.211a2.807,2.807,0,0,0,3.69,1.589l5.145-2.178a46.606,46.606,0,0,0,4.869,6.5l-3.391,4.568a3.048,3.048,0,0,0,.562,4.162l7.993,6.405a2.84,2.84,0,0,0,4.092-.486l3.461-4.666a47.8,47.8,0,0,0,7.616,3.3l-.653,5.96a3.194,3.194,0,0,0,2.639,3.483l10.354,1.62a2.88,2.88,0,0,0,3.341-2.584l.62-6.067a46.485,46.485,0,0,0,8.312-1l2.554,5.776a3.243,3.243,0,0,0,4.106,1.768l9.811-3.93a2.969,2.969,0,0,0,1.53-4.051l-2.661-5.831a45.417,45.417,0,0,0,6.6-5.1l5.229,3.868a3.154,3.154,0,0,0,4.423-.525l6.268-8.473a3.1,3.1,0,0,0-.819-4.346l-5.333-3.838a45.181,45.181,0,0,0,2.9-7.736l6.478.789a2.981,2.981,0,0,0,3.428-2.654l.837-10.444a3.216,3.216,0,0,0-2.922-3.355l-6.444-.712a45.542,45.542,0,0,0-1.561-8.059l5.816-2.463a2.841,2.841,0,0,0,1.48-3.92l-4.643-9.293a3.223,3.223,0,0,0-4.125-1.46l-5.729,2.469a46.865,46.865,0,0,0-5.347-6.131l3.569-4.815a2.775,2.775,0,0,0-.752-4l-8.524-5.646a3.1,3.1,0,0,0-4.158.7l-3.52,4.74a47.729,47.729,0,0,0-7.562-2.66l.585-5.7a2.78,2.78,0,0,0-2.624-3.011l-9.947-.777a2.918,2.918,0,0,0-3.155,2.525l-.612,5.581a46.414,46.414,0,0,0-7.761,1.317l-2.3-5.046A2.791,2.791,0,0,0-1899.564,1436.362Zm29.257,77.393a30.307,30.307,0,0,1-39.343-16.169,29.047,29.047,0,0,1,15.036-37.981,30.34,30.34,0,0,1,39.455,14.7A28.968,28.968,0,0,1-1870.307,1513.755Z" transform="translate(1936.325 -1343.233)" fill="#fff"/>
        <path id="Trazado_162744" data-name="Trazado 162744" d="M-1916.147,1394.916l-5.7,3.969a1.905,1.905,0,0,0-.6,2.629l2.1,2.989a33.826,33.826,0,0,0-3.675,4.112l-3.435-1.446a2.11,2.11,0,0,0-2.622,1.011l-3.13,6a1.754,1.754,0,0,0,.8,2.48l3.407,1.477a30.968,30.968,0,0,0-1.212,5.226l-3.851.435a2.113,2.113,0,0,0-1.874,2.115l.224,6.582a1.784,1.784,0,0,0,2.019,1.71l3.849-.406a28.24,28.24,0,0,0,1.623,5.031l-3.29,2.25a2,2,0,0,0-.626,2.726l3.64,5.521a1.956,1.956,0,0,0,2.75.466l3.331-2.26a28.958,28.958,0,0,0,4.114,3.518l-1.834,3.561a1.927,1.927,0,0,0,.86,2.66l6.254,2.939a2.128,2.128,0,0,0,2.767-.978l1.862-3.628a32.736,32.736,0,0,0,5.6.951l.218,4.02a2,2,0,0,0,2.2,1.863l7.255-.6a2.142,2.142,0,0,0,1.988-2.226l-.251-4.069a34.846,34.846,0,0,0,5.54-1.973l2.367,3.366a2.174,2.174,0,0,0,2.975.5l6.187-4.11a2.028,2.028,0,0,0,.587-2.88l-2.433-3.38a34.065,34.065,0,0,0,3.882-4.35l3.936,1.7a2.275,2.275,0,0,0,2.908-1.026l3.269-6.469a1.944,1.944,0,0,0-1.02-2.7l-3.988-1.68a30.992,30.992,0,0,0,1.1-5.472l4.417-.466a2.164,2.164,0,0,0,2-2.24l-.576-6.908a2.012,2.012,0,0,0-2.317-1.746l-4.393.5a28.17,28.17,0,0,0-1.927-5.019l3.631-2.463a1.924,1.924,0,0,0,.564-2.769l-4.127-5.376a2.178,2.178,0,0,0-2.933-.351l-3.584,2.449a29.252,29.252,0,0,0-4.287-3.226l1.882-3.671a1.765,1.765,0,0,0-.949-2.509l-6.39-2.469a2.251,2.251,0,0,0-2.746,1.061l-1.868,3.624a33.376,33.376,0,0,0-5.449-.648l-.238-3.838a1.8,1.8,0,0,0-2.127-1.6l-6.906.929a2.131,2.131,0,0,0-1.884,2.127l.205,3.774a34.585,34.585,0,0,0-5.2,2.012l-2.158-3A1.959,1.959,0,0,0-1916.147,1394.916Zm28.714,46.532c-9.765,6.566-22.674,4.457-28.782-4.5-5.989-8.779-3.232-20.954,6.1-27.39,9.4-6.483,22.175-4.884,28.588,3.766C-1874.98,1422.154-1877.6,1434.838-1887.433,1441.448Z" transform="translate(1935.938 -1389.382)" fill="#fff"/>
      </g>
    </g>
    <g id="Grupo_101490" data-name="Grupo 101490" transform="translate(134.08 58.327)">
      <g id="Grupo_101483" data-name="Grupo 101483">
        <path id="Trazado_162745" data-name="Trazado 162745" d="M-1749.675,1382.025l-28.787,290.532a10.3,10.3,0,0,1-11.16,9.139l-176.029-15.393a9.046,9.046,0,0,1-8.034-10.264l31.738-274.56a10.388,10.388,0,0,1,10.036-9.018l173.192.031C-1753.218,1372.492-1749.155,1376.764-1749.675,1382.025Z" transform="translate(1973.751 -1372.461)" fill="url(#linear-gradient-2)"/>
        <path id="Trazado_162746" data-name="Trazado 162746" d="M-1753.445,1380.834l-28.831,290.321a7.663,7.663,0,0,1-8.3,6.805l-176.006-15.264a6.734,6.734,0,0,1-5.989-7.642l31.706-274.751a7.73,7.73,0,0,1,7.478-6.717l173.214.147A6.475,6.475,0,0,1-1753.445,1380.834Z" transform="translate(1974.964 -1371.279)" fill="url(#linear-gradient-3)"/>
        <path id="Trazado_162747" data-name="Trazado 162747" d="M-1768.792,1380.834l-1.909,19.222-187.614-1.54,2.1-18.213a7.731,7.731,0,0,1,7.479-6.717l173.214.147A6.476,6.476,0,0,1-1768.792,1380.834Z" transform="translate(1990.311 -1371.279)" fill="url(#linear-gradient-4)"/>
        <g id="Grupo_101482" data-name="Grupo 101482" transform="translate(41.819 9.1)">
          <path id="Trazado_162748" data-name="Trazado 162748" d="M-1944.4,1381.5a5.244,5.244,0,0,1-5.1,4.563,4.024,4.024,0,0,1-4.044-4.6,5.247,5.247,0,0,1,5.091-4.562A4.025,4.025,0,0,1-1944.4,1381.5Z" transform="translate(1953.577 -1376.898)" fill="#fff"/>
          <path id="Trazado_162749" data-name="Trazado 162749" d="M-1936.032,1381.545a5.271,5.271,0,0,1-5.145,4.588,4.061,4.061,0,0,1-4.094-4.627,5.276,5.276,0,0,1,5.132-4.584A4.062,4.062,0,0,1-1936.032,1381.545Z" transform="translate(1962.455 -1376.873)" fill="#fff"/>
          <path id="Trazado_162750" data-name="Trazado 162750" d="M-1927.579,1381.594a5.3,5.3,0,0,1-5.188,4.611,4.1,4.1,0,0,1-4.144-4.65,5.3,5.3,0,0,1,5.174-4.609A4.1,4.1,0,0,1-1927.579,1381.594Z" transform="translate(1971.424 -1376.847)" fill="#fff"/>
        </g>
      </g>
      <g id="Grupo_101489" data-name="Grupo 101489" transform="translate(11.533 36.118)">
        <path id="Trazado_162751" data-name="Trazado 162751" d="M-1844.132,1408.887l-105.725-2.2a2.527,2.527,0,0,0-2.5,2.213l-8.6,74.966a2.093,2.093,0,0,0,1.986,2.387l106.181,4.713a2.569,2.569,0,0,0,2.643-2.258l8.148-77.436A2.134,2.134,0,0,0-1844.132,1408.887Z" transform="translate(1975.934 -1372.611)" fill="#fff"/>
        <g id="Grupo_101484" data-name="Grupo 101484" transform="translate(24.253)">
          <path id="Trazado_162752" data-name="Trazado 162752" d="M-1850.191,1403.679l-105.728-1.519,1.387-12.089,105.659,1.142Z" transform="translate(1957.095 -1390.07)" fill="#fff"/>
          <path id="Trazado_162753" data-name="Trazado 162753" d="M-1914.38,1404.56l-42.106-.732.642-5.593,42.094.663Z" transform="translate(1956.487 -1381.489)" fill="#fff"/>
        </g>
        <g id="Grupo_101487" data-name="Grupo 101487" transform="translate(137.741 36.562)">
          <g id="Grupo_101485" data-name="Grupo 101485" transform="translate(4.788)">
            <path id="Trazado_162754" data-name="Trazado 162754" d="M-1852.985,1414.728l-45.269-1.019.606-5.813,45.253.943Z" transform="translate(1900.684 -1407.896)" fill="#fff"/>
            <path id="Trazado_162755" data-name="Trazado 162755" d="M-1853.54,1420.562l-45.3-1.169.607-5.825,45.283,1.094Z" transform="translate(1900.055 -1401.936)" fill="#fff"/>
            <path id="Trazado_162756" data-name="Trazado 162756" d="M-1854.1,1426.407l-45.328-1.321.609-5.836,45.313,1.245Z" transform="translate(1899.425 -1395.963)" fill="#fff"/>
          </g>
          <g id="Grupo_101486" data-name="Grupo 101486" transform="translate(0 45.691)">
            <path id="Trazado_162757" data-name="Trazado 162757" d="M-1855.168,1437.646l-45.386-1.614.611-5.858,45.371,1.537Z" transform="translate(1903.003 -1430.173)" fill="#fff"/>
            <path id="Trazado_162758" data-name="Trazado 162758" d="M-1855.728,1443.526l-45.416-1.767.612-5.87,45.4,1.691Z" transform="translate(1902.37 -1424.166)" fill="#fff"/>
            <path id="Trazado_162759" data-name="Trazado 162759" d="M-1856.289,1449.419l-45.446-1.921.613-5.882,45.431,1.844Z" transform="translate(1901.735 -1418.146)" fill="#fff"/>
          </g>
        </g>
        <path id="Trazado_162760" data-name="Trazado 162760" d="M-1793.319,1458.689a1.617,1.617,0,0,1-1.685,1.421l-165.818-7.9a1.3,1.3,0,0,1-1.231-1.489h0a1.534,1.534,0,0,1,1.557-1.358l165.794,7.755a1.426,1.426,0,0,1,1.384,1.567Z" transform="translate(1974.757 -1327.748)" fill="#fff"/>
        <path id="Trazado_162761" data-name="Trazado 162761" d="M-1798.418,1518.25a1.58,1.58,0,0,1-1.7,1.4l-166.824-13.451a1.378,1.378,0,0,1-1.235-1.563h0a1.5,1.5,0,0,1,1.569-1.337l166.8,13.3a1.5,1.5,0,0,1,1.393,1.647Z" transform="translate(1968.188 -1271.065)" fill="#fff"/>
        <g id="Grupo_101488" data-name="Grupo 101488" transform="translate(158.528 1.43)">
          <path id="Trazado_162762" data-name="Trazado 162762" d="M-1856.469,1397.489l-35.238-.443.649-6.278,35.226.381Z" transform="translate(1891.707 -1390.768)" fill="#fff"/>
          <path id="Trazado_162763" data-name="Trazado 162763" d="M-1861.791,1395.221l-26.713-.325.349-3.386,26.707.3Z" transform="translate(1895.144 -1389.988)" fill="url(#linear-gradient-5)"/>
        </g>
        <path id="Trazado_162764" data-name="Trazado 162764" d="M-1889.3,1552.415l-77.9-6.022,10.545-91.945,77.528,3.868Z" transform="translate(1969.25 -1322.406)" fill="#fff"/>
        <path id="Trazado_162765" data-name="Trazado 162765" d="M-1843.348,1557.23l-82.009-6.34,10.126-94.343,81.582,4.07Z" transform="translate(2014.135 -1320.2)" fill="#fff"/>
      </g>
      <path id="Trazado_162766" data-name="Trazado 162766" d="M-1777.9,1666.9l-.56,5.657a10.3,10.3,0,0,1-11.16,9.139l-176.029-15.393a9.046,9.046,0,0,1-8.034-10.264l31.738-274.56a10.388,10.388,0,0,1,10.036-9.018l21.178,0c-.143.775-.278,1.547-.412,2.322q-.654,3.8-1.159,7.618c-.338,2.531-.628,5.068-.856,7.605-.3,3.308-.51,6.619-.6,9.919a126.655,126.655,0,0,0,.84,19.393c4.726,38.014,56.861,44.3,53.525,89.112-1.722,23.181-13.8,45.441-13.537,68.947.525,46.67,48.775,50.831,79.6,74.084a78.682,78.682,0,0,1,13.1,12.5C-1779.426,1664.93-1778.647,1665.906-1777.9,1666.9Z" transform="translate(1973.751 -1372.461)" fill="#fff" opacity="0.5" style="mix-blend-mode: soft-light;isolation: isolate"/>
    </g>
    <g id="Grupo_101497" data-name="Grupo 101497" transform="translate(34.456 124.771)">
      <g id="Grupo_101493" data-name="Grupo 101493" transform="translate(9.412)">
        <path id="Trazado_162767" data-name="Trazado 162767" d="M-1888.23,1482.37c0,4.026-3,7.613-6.355,7.613h-116.522c-3.358,0-6.167-3.587-6.167-7.613v-70.489c0-4.028,2.809-7.025,6.167-7.025h116.522c3.356,0,6.355,3,6.355,7.025Z" transform="translate(2017.274 -1404.856)" fill="url(#linear-gradient-6)"/>
        <path id="Trazado_162768" data-name="Trazado 162768" d="M-1886.675,1411.883v70.487a8.094,8.094,0,0,1-3.022,6.521,5.2,5.2,0,0,1-3.011,1.093H-2009.23c-3.358,0-6.488-3.587-6.488-7.613v-70.487a6.826,6.826,0,0,1,6.488-7.027h116.522C-1889.35,1404.856-1886.675,1407.853-1886.675,1411.883Z" transform="translate(2018.943 -1404.856)" fill="url(#linear-gradient-7)"/>
        <g id="Grupo_101491" data-name="Grupo 101491" transform="translate(21.841 11.043)">
          <path id="Trazado_162769" data-name="Trazado 162769" d="M-1914.674,1462.233l-22.593-31.482a1.255,1.255,0,0,0-1.026-.508,1.261,1.261,0,0,0-1.026.508l-12.992,18.1-21.279-29.65a1.26,1.26,0,0,0-1.026-.509,1.256,1.256,0,0,0-1.026.509l-30.891,43.035a1.3,1.3,0,0,0-.056,1.3,1.394,1.394,0,0,0,1.082.738h89.808a1.4,1.4,0,0,0,1.082-.738A1.307,1.307,0,0,0-1914.674,1462.233Z" transform="translate(2006.737 -1401.36)" fill="#fff"/>
          <ellipse id="Elipse_5323" data-name="Elipse 5323" cx="9.736" cy="9.634" rx="9.736" ry="9.634" transform="translate(55.978)" fill="#fff"/>
        </g>
        <g id="Grupo_101492" data-name="Grupo 101492" transform="translate(3.225)" opacity="0.3" style="mix-blend-mode: multiply;isolation: isolate">
          <path id="Trazado_162770" data-name="Trazado 162770" d="M-1889.673,1488.89a5.278,5.278,0,0,1-3.035,1.093H-2009.23c-3.358,0-6.488-3.587-6.488-7.613v-70.487a6.826,6.826,0,0,1,6.488-7.027h1.175a132.445,132.445,0,0,0,8.188,13.211c30.563,40.847,78.88,29.061,106.794,66.034C-1891.813,1485.771-1890.687,1487.345-1889.673,1488.89Z" transform="translate(2015.718 -1404.856)" fill="url(#linear-gradient-8)"/>
        </g>
      </g>
      <g id="Grupo_101496" data-name="Grupo 101496" transform="translate(0 53.645)">
        <path id="Trazado_162771" data-name="Trazado 162771" d="M-2013.357,1448.283v-7a13.4,13.4,0,0,0,1.552-5.2c.533-3.7-.437-2.234-.914-.693a2.535,2.535,0,0,1-.736,1.1,1.41,1.41,0,0,1-2.336-.841l-.67-4.635s-2.718,2.748-.753,9.626c.616,2.152,0,7.345,0,7.345Z" transform="translate(2025.986 -1431.011)" fill="url(#linear-gradient-9)"/>
        <path id="Trazado_162772" data-name="Trazado 162772" d="M-1955.939,1450.765l1.782-6.818a7,7,0,0,1-.891-5.285c.823-2.671.328-1.721.991,0s1.973-1.194,3-3.846,1.548,1.426,1.3,3.846-.34,3.858-1.8,5.624-1.167,8.042-1.167,8.042Z" transform="translate(2092.485 -1427.92)" fill="url(#linear-gradient-10)"/>
        <path id="Trazado_162773" data-name="Trazado 162773" d="M-1999.528,1534.246c-.056-1.5-3.715-1.2-6.113-.972s-3.453,1.179-3.827,2.07-.093,3.082,2.12,2.164C-2005.529,1536.752-1999.478,1535.575-1999.528,1534.246Z" transform="translate(2034.912 -1323.725)" fill="#26264f"/>
        <path id="Trazado_162774" data-name="Trazado 162774" d="M-2004.814,1530.969l-1.706,5.819s-1.706,1.161-2.265.584l.634-6.707Z" transform="translate(2035.791 -1326.268)" fill="url(#linear-gradient-11)"/>
        <path id="Trazado_162775" data-name="Trazado 162775" d="M-1998.136,1529.135l-5.647,2.437.948,2.827,5.655-1.456Z" transform="translate(2041.159 -1327.877)" fill="url(#linear-gradient-12)"/>
        <path id="Trazado_162776" data-name="Trazado 162776" d="M-1996.778,1539.288s-3.764.964-5.427-1.237a20.4,20.4,0,0,1-2.461-5.353,1.654,1.654,0,0,1,.977-2.053c1.194-.469,2.817-.979,3.509-.593,1.156.644.072,4.927.578,6.044S-1996.635,1537.928-1996.778,1539.288Z" transform="translate(2040.124 -1327.057)" fill="#26264f"/>
        <path id="Trazado_162777" data-name="Trazado 162777" d="M-1982.118,1486.67a307.837,307.837,0,0,1-6.469,46.278,308.5,308.5,0,0,1-14.049,46.458,6.219,6.219,0,0,1-2.5.6,6.26,6.26,0,0,1-2.859-.6c-.924-6.957-1.4-12.832-1.664-17.194-.7-11.519-1.016-17.419.57-24.274,1.488-6.432,2.684-5.929,4.236-13.039,1.38-6.323,1.41-11.187,1.414-18.305a159.388,159.388,0,0,0-1.179-19.329Z" transform="translate(2034.237 -1372.51)" fill="url(#linear-gradient-13)"/>
        <path id="Trazado_162778" data-name="Trazado 162778" d="M-2005.192,1574.652c1.5-4.764-1.451-6.941-1.109-12.987.421-7.388,5.018-7.607,6.472-15.914,1.167-6.674-1.677-7.25-.925-15.365.8-8.623,4.23-10.37,3.511-15.547-.4-2.878-2.1-6.8-8.042-11.08a159.562,159.562,0,0,0-1.15-16.494l22.5-.594a307.856,307.856,0,0,1-6.469,46.278,308.5,308.5,0,0,1-14.049,46.458,6.22,6.22,0,0,1-2.5.6,6.1,6.1,0,0,1-1.588-.166A12.361,12.361,0,0,0-2005.192,1574.652Z" transform="translate(2036.054 -1372.51)" opacity="0.3" fill="url(#linear-gradient-14)" style="mix-blend-mode: multiply;isolation: isolate"/>
        <path id="Trazado_162779" data-name="Trazado 162779" d="M-1972.821,1485.511a131.644,131.644,0,0,0,1.959,14.093c2.595,13.338,5.574,17.611,6.359,26.332a49.562,49.562,0,0,1-2.958,21.216c-7.286,20.785-27.294,30.458-32.589,32.827q-.9-2.876-1.793-5.755a52.713,52.713,0,0,0,5.165-8.358c3.176-6.418,3.389-10.2,5.555-16.517,3.909-11.4,6.88-9.788,7.593-15.592,1.132-9.2-6.372-12.913-13.138-30.5a94.337,94.337,0,0,1-3.7-11.89Z" transform="translate(2043.241 -1373.728)" fill="url(#linear-gradient-15)"/>
        <path id="Trazado_162780" data-name="Trazado 162780" d="M-2007.959,1438.536l-5.731-.915c-2.4,3.337-9.309,13.888-7.949,27.987a36.534,36.534,0,0,0,11.186,23.245,36.613,36.613,0,0,0,17.774,8.984c.006,16.419-.309,26.77-.879,32.967a79.792,79.792,0,0,0,.2,15.1c.261,2.463.4,3.708.74,4.389,4.726,9.439,31.825,1.958,39.146-1.171,1.9-.814,3.835-1.947,4.662-3.95,1.064-2.576.046-4.91-.369-6.951-1.016-5.013,2-8.8,8.034-18.521,2.554-4.113,6.262-10.284,10.592-18.3,5.014,1.448,16.827,4.041,28.391-1.417,16.995-8.024,26.691-30.239,21.748-54.316l-5.176-1.464a50.461,50.461,0,0,1-7.854,17.308c-2.736,3.85-5.014,7.056-8.967,8.848-6.208,2.814-11.722-.043-19.781-2.012-12.7-3.1-23.315-1.944-36.214-.538-14.09,1.536-17.952,4.4-28.256,2.476-4.583-.857-10.319-2-15.016-6.51C-2010.915,1454.912-2008.342,1440.513-2007.959,1438.536Z" transform="translate(2021.814 -1424.063)" fill="url(#linear-gradient-16)"/>
        <path id="Trazado_162781" data-name="Trazado 162781" d="M-1983.773,1447.012s.844,3.348-.346,4.847-5.163,7.249-6.459,7.529c-.735.16-2.583.437-4.036.644a.765.765,0,0,0-.218,1.456c1.445.622,3.992,1.245,8.368,1.2a29.568,29.568,0,0,0,13.633-3.681.333.333,0,0,0-.195-.622l-2.846.211a3.88,3.88,0,0,1-4.171-4.278l.176-1.567Z" transform="translate(2050.276 -1414.193)" fill="url(#linear-gradient-17)"/>
        <g id="Grupo_101495" data-name="Grupo 101495" transform="translate(59.806 27.609)">
          <g id="Grupo_101494" data-name="Grupo 101494">
            <path id="Trazado_162782" data-name="Trazado 162782" d="M-1986.261,1455.858c.392-.213,3.571-.595,4.011-2.287.595-2.3-1.493-5.093-1.752-5.544-1.088-1.883-1.362-2.137-1.867-2.455l-.7-.408-.083-.029a8.049,8.049,0,0,0-2.27-.086c-.976.227-1.93,4.2-1.5,9.787-.035.213-.071.429-.1.646C-1990.618,1456.047-1986.232,1456.057-1986.261,1455.858Z" transform="translate(1995.567 -1443.91)" fill="url(#linear-gradient-18)"/>
            <path id="Trazado_162783" data-name="Trazado 162783" d="M-1980.664,1445.371c.139.683-1.687,2.041-2.466,2.628a2.87,2.87,0,0,0-.62.7.837.837,0,0,0-.093.207c-.359,1.1,1.424,2.344,1.1,2.841-.238.359-1.44-.088-1.575.222-.127.291.877.865.734,1.212-.108.264-.724.039-1.1.447-.187.2-.126.359-.317.97a5.389,5.389,0,0,1-.377.938c-.582,1.031-2.286,1.44-2.624,1.042-.1-.113-.018-.209-.12-.587a3.038,3.038,0,0,0-.352-.753,8,8,0,0,0-2.11-1.569,5.622,5.622,0,0,1-2.218-2.387l-.042-.1a1.556,1.556,0,0,1-.06-.164c-.344-1.108,1.078-3.033,1.078-3.033a12.077,12.077,0,0,1,3.733-3.185,16.57,16.57,0,0,1,5.01-.228C-1982.119,1444.671-1980.772,1444.831-1980.664,1445.371Z" transform="translate(1992.962 -1444.472)" fill="#26264f"/>
            <path id="Trazado_162784" data-name="Trazado 162784" d="M-1984.639,1447.877s-1.348,1.6-3.126-.322l-.879.256s2.147,4.674,2.607,4.674a14.166,14.166,0,0,0,1.8-.3,1.117,1.117,0,0,0,.671-1.268A18.3,18.3,0,0,0-1984.639,1447.877Z" transform="translate(1997.594 -1441.231)" fill="#26264f"/>
            <path id="Trazado_162785" data-name="Trazado 162785" d="M-1987.82,1447.946c-.442-.572-1.183-.008-1.171.746a1.382,1.382,0,0,0,1.484,1.356C-1986.794,1449.884-1987.225,1448.719-1987.82,1447.946Z" transform="translate(1997.221 -1441.066)" fill="url(#linear-gradient-19)"/>
          </g>
        </g>
        <path id="Trazado_162786" data-name="Trazado 162786" d="M-1999.958,1526.686c9.18,3.2,19.88-1.479,22.552-7.864,1.975-4.721-2.245-9.226.738-14.085,2.875-4.68,8.065-2.584,11.647-7.318,3.9-5.158-.69-9.726,2.772-16.644,2.605-5.2,8.844-9.888,14.974-9.878,7.286.012,10.007,6.649,16.267,5.306,3.271-.7,3.194-2.658,7.765-5.854,7.928-5.548,13.247-3.224,19.779-7.134a19.792,19.792,0,0,0,6.052-5.743c-3.9,9.806-10.652,17.565-19.3,21.647-11.564,5.458-23.377,2.865-28.391,1.417-4.33,8.015-8.038,14.187-10.592,18.3-6.038,9.724-9.05,13.508-8.034,18.521.415,2.04,1.432,4.375.369,6.951-.827,2-2.759,3.136-4.662,3.95-7.321,3.13-34.421,10.61-39.146,1.171-.342-.681-.479-1.926-.74-4.389-.164-1.536-.274-3-.344-4.383A18.062,18.062,0,0,0-1999.958,1526.686Z" transform="translate(2036.365 -1403.198)" opacity="0.3" fill="url(#linear-gradient-20)" style="mix-blend-mode: multiply;isolation: isolate"/>
      </g>
    </g>
    <g id="Grupo_101498" data-name="Grupo 101498" transform="translate(282.496 301.671)">
      <path id="Trazado_162787" data-name="Trazado 162787" d="M-1888.946,1561.188a42.311,42.311,0,0,0,3.407,6.315c-.188.184-.375.369-.551.57-3.509,3.963-3.729,9.944-.408,13.33,3.352,3.419,8.946,2.808,12.41-1.327.18-.215.344-.437.506-.66a40.53,40.53,0,0,0,6.378,3.374c-.083.267-.162.535-.226.81-1.237,5.347,1.581,10.481,6.32,11.367s9.456-2.832,10.522-8.208c.056-.273.091-.544.125-.812a41.759,41.759,0,0,0,7.271-.823c.054.261.114.523.188.781,1.482,5.058,6.374,7.632,10.863,5.688,4.442-1.924,6.7-7.509,5.116-12.417-.083-.25-.178-.492-.276-.73a45.277,45.277,0,0,0,5.735-4.57c.164.178-2.523,1.013-2.344,1.181,3.53,3.268,11.577,2.033,14.363-1.891a9.689,9.689,0,0,0-1.387-12.569c-.18-.162-.369-.308-.557-.449a47.437,47.437,0,0,0,2.614-6.6c.217.062.435.119.659.162a7.4,7.4,0,0,0,8.677-6.767,8.581,8.581,0,0,0-6.631-9.394c-.211-.041-.423-.066-.632-.086a44.84,44.84,0,0,0-.828-6.627c.2-.055.4-.115.6-.189a7.25,7.25,0,0,0,3.978-9.656,7.678,7.678,0,0,0-9.522-4.531c-.193.07-.379.149-.564.234a41.278,41.278,0,0,0-3.654-5.09c.139-.139.276-.281.4-.435a6.983,6.983,0,0,0-1.093-9.892,7.274,7.274,0,0,0-10.024.642c-.133.15-.253.305-.371.466a40.419,40.419,0,0,0-5.481-2.586c.054-.188.106-.375.145-.57.73-3.681-1.55-7.3-10.084-8.081-3.926-.359-3.125,1.733-3.974,5.4-.043.189-.075.377-.1.566a41.022,41.022,0,0,0-6.129.377c-.044-.188-.089-.375-.149-.562-1.152-3.559-3.913-6.906-12.824-4.305-3.905,1.14-2.345,5.109-1.277,8.756.056.191.125.373.2.554a44.681,44.681,0,0,0-5.5,3.347c-.135-.144-.272-.285-.421-.419-2.9-2.586-7.665-2.289-10.7.685-3.083,3.021-3.255,7.679-.317,10.387.154.142.317.271.481.4a47.585,47.585,0,0,0-3.507,5.823c-.207-.06-.419-.115-.637-.156a9.169,9.169,0,0,0-10.055,6.26c-1.412,4.358.926,8.615,5.244,9.431.221.043.444.068.665.091a46.022,46.022,0,0,0-.307,7.062c-.232.064-.464.129-.7.211a10.076,10.076,0,0,0-6.506,11.121c.958,4.646,5.536,7.053,10.167,5.324C-1889.406,1561.4-1889.174,1561.295-1888.946,1561.188Zm12.1-13.371a30.916,30.916,0,0,1,19.955-36.521,27.347,27.347,0,0,1,34.5,16.725,30.837,30.837,0,0,1-17.393,38.759C-1855.752,1573.177-1872.689,1564.369-1876.849,1547.817Z" transform="translate(1904.468 -1491.104)" fill="url(#linear-gradient-21)"/>
      <path id="Trazado_162788" data-name="Trazado 162788" d="M-1892.967,1535.346c-4.318-.816-6.656-5.073-5.244-9.431a9.169,9.169,0,0,1,10.055-6.26c.218.041.429.1.637.156a47.585,47.585,0,0,1,3.507-5.823c-.164-.125-.327-.254-.481-.4-2.937-2.708-5.734-8.713-2.342-11.466,6.3-5.117,10.459-2.193,13.361.394.149.134.286.275.421.418a44.741,44.741,0,0,1,5.5-3.347c-.073-.18-.141-.363-.2-.553a6.739,6.739,0,0,1,.978-5.712q3.019,8.4,6,17.233a30.991,30.991,0,0,0-16.079,34.923,27.241,27.241,0,0,0,26.046,21.011c.266,1.494.52,3,.829,4.5.848,4.11,1.936,8.214,3.043,12.376q-1.769.194-3.534.24c-.034.269-.069.54-.125.813-1.066,5.376-4.962,9.773-13.625,8.51-4.8-.7-4.454-6.321-3.217-11.668.064-.275.143-.543.226-.81a40.53,40.53,0,0,1-6.378-3.374c-.162.223-.326.445-.506.658-3.464,4.137-12.542,5.252-15.886,1.823-3.31-3.4.375-9.861,3.884-13.824.177-.2.363-.386.551-.57a42.3,42.3,0,0,1-3.407-6.315c-.228.108-.46.211-.7.3-4.63,1.731-9.209-.677-10.167-5.323a10.075,10.075,0,0,1,6.506-11.121c.232-.082.464-.147.7-.211a46.02,46.02,0,0,1,.307-7.062C-1892.524,1535.414-1892.746,1535.389-1892.967,1535.346Z" transform="translate(1904.468 -1488.77)" fill="url(#linear-gradient-22)"/>
      <path id="Trazado_162789" data-name="Trazado 162789" d="M-1807.858,1537.591c-.211-.039-.423-.063-.634-.086a44.625,44.625,0,0,0-.776-6.639c.2-.056.4-.115.6-.189a7.311,7.311,0,0,0,4.071-9.675,7.652,7.652,0,0,0-9.519-4.537c-.195.07-.383.15-.568.234a40.946,40.946,0,0,0-3.625-5.1c.141-.139.277-.283.408-.435a6.975,6.975,0,0,0-1.016-9.911,7.318,7.318,0,0,0-10.063.642c-.133.152-.255.308-.375.468a40.006,40.006,0,0,0-5.478-2.591c.056-.188.11-.377.149-.572a6.779,6.779,0,0,0-5.561-7.958,7.313,7.313,0,0,0-8.521,5.269c-.046.189-.077.377-.105.566a41.612,41.612,0,0,0-6.152.379c-.041-.188-.087-.375-.145-.562a7.073,7.073,0,0,0-8.99-4.285c-3.891,1.191-6.237,5.089-5.2,8.741.054.191.123.375.193.556a45.23,45.23,0,0,0-5.547,3.352c-.133-.144-.267-.285-.417-.418-2.892-2.591-7.674-2.293-10.745.687-3.12,3.025-3.331,7.692-.406,10.4.153.144.315.271.481.4a47.881,47.881,0,0,0-3.569,5.833c-.21-.06-.419-.115-.638-.156a9.288,9.288,0,0,0-10.142,6.27c-1.453,4.369.856,8.633,5.184,9.451.222.041.444.068.668.088a45.6,45.6,0,0,0-.369,7.078c-.232.062-.466.127-.7.209a10.191,10.191,0,0,0-6.625,11.145c.923,4.654,5.5,7.068,10.161,5.335.241-.09.473-.195.7-.3a42.038,42.038,0,0,0,3.368,6.33c-.191.182-.379.369-.56.57-3.555,3.971-3.826,9.966-.522,13.361,3.338,3.425,8.959,2.814,12.47-1.333.18-.215.349-.437.512-.662a40.088,40.088,0,0,0,6.374,3.382c-.085.266-.168.537-.234.814-1.287,5.357,1.5,10.5,6.249,11.391s9.516-2.841,10.631-8.227c.056-.275.1-.545.13-.816a41.948,41.948,0,0,0,7.3-.824c.054.263.112.525.187.786,1.443,5.068,6.332,7.648,10.855,5.7,4.475-1.928,6.79-7.525,5.236-12.444-.081-.252-.174-.494-.27-.734A46.159,46.159,0,0,0-1823.6,1574c.163.178.329.355.51.523a7.585,7.585,0,0,0,11.558-1.237,9.674,9.674,0,0,0-1.291-12.6c-.18-.16-.367-.305-.556-.449a47.737,47.737,0,0,0,2.678-6.615c.218.062.435.119.659.162a7.5,7.5,0,0,0,8.762-6.781A8.517,8.517,0,0,0-1807.858,1537.591Zm-33.977,29.291c-16.073,6.412-33-2.414-37.036-19a31.239,31.239,0,0,1,20.33-36.589,27.241,27.241,0,0,1,34.479,16.753C-1818.719,1543.047-1826.332,1560.7-1841.834,1566.883Z" transform="translate(1902.149 -1491.099)" fill="url(#linear-gradient-23)"/>
    </g>
  </g>
</svg>
