<svg xmlns="http://www.w3.org/2000/svg" xmlns:xlink="http://www.w3.org/1999/xlink" width="272.72" height="167.698" viewBox="0 0 272.72 167.698">
  <defs>
    <linearGradient id="linear-gradient" x1="-1.798" y1="-0.444" x2="-1.798" y2="-0.444" gradientUnits="objectBoundingBox">
      <stop offset="0" stop-color="#daf3fe"/>
      <stop offset="1" stop-color="#e9f1fd"/>
    </linearGradient>
    <linearGradient id="linear-gradient-2" x1="-3.194" y1="-1.165" x2="-3.194" y2="-1.165" gradientUnits="objectBoundingBox">
      <stop offset="0" stop-color="#2b5182"/>
      <stop offset="1" stop-color="#0e2342"/>
    </linearGradient>
    <linearGradient id="linear-gradient-3" x1="-3.373" y1="-1.29" x2="-3.373" y2="-1.29" gradientUnits="objectBoundingBox">
      <stop offset="0" stop-color="#feb954"/>
      <stop offset="1" stop-color="#ffe359"/>
    </linearGradient>
    <linearGradient id="linear-gradient-4" x1="-2.825" y1="-3.42" x2="-2.825" y2="-3.524" xlink:href="#linear-gradient-2"/>
    <linearGradient id="linear-gradient-5" x1="-75.77" y1="26.367" x2="-75.775" y2="26.41" gradientUnits="objectBoundingBox">
      <stop offset="0" stop-color="#002a5d"/>
      <stop offset="1" stop-color="#0f4b91"/>
    </linearGradient>
    <linearGradient id="linear-gradient-6" x1="-104.154" y1="-13.219" x2="-104.172" y2="-13.214" gradientUnits="objectBoundingBox">
      <stop offset="0" stop-color="#ffe359"/>
      <stop offset="1" stop-color="#fedbc9"/>
    </linearGradient>
    <linearGradient id="linear-gradient-7" x1="-110.026" y1="-13.512" x2="-110.054" y2="-13.505" xlink:href="#linear-gradient-6"/>
    <linearGradient id="linear-gradient-8" x1="-49.11" y1="6.573" x2="-49.11" y2="6.598" xlink:href="#linear-gradient-5"/>
    <linearGradient id="linear-gradient-9" x1="-82.036" y1="-35.913" x2="-82.014" y2="-35.913" gradientUnits="objectBoundingBox">
      <stop offset="0" stop-color="#408ae2"/>
      <stop offset="1" stop-color="#4fabff"/>
    </linearGradient>
    <linearGradient id="linear-gradient-10" x1="-423.323" y1="157.404" x2="-424.02" y2="158.36" xlink:href="#linear-gradient-6"/>
    <linearGradient id="linear-gradient-11" x1="-81.524" y1="-36.544" x2="-81.502" y2="-36.544" xlink:href="#linear-gradient-9"/>
    <linearGradient id="linear-gradient-12" x1="-420.592" y1="158.891" x2="-421.318" y2="159.875" xlink:href="#linear-gradient-6"/>
    <linearGradient id="linear-gradient-13" x1="-31.117" y1="3.638" x2="-31.117" y2="3.646" xlink:href="#linear-gradient-9"/>
    <linearGradient id="linear-gradient-14" x1="-32.781" y1="3.397" x2="-32.782" y2="3.404" xlink:href="#linear-gradient-9"/>
    <linearGradient id="linear-gradient-15" x1="-91.864" y1="42.053" x2="-91.865" y2="41.983" xlink:href="#linear-gradient-6"/>
    <linearGradient id="linear-gradient-16" x1="-80.092" y1="11.456" x2="-80.102" y2="11.445" xlink:href="#linear-gradient-6"/>
    <linearGradient id="linear-gradient-17" x1="-75.233" y1="8.967" x2="-75.239" y2="8.99" xlink:href="#linear-gradient-5"/>
    <linearGradient id="linear-gradient-18" x1="-128.43" y1="31.342" x2="-131.194" y2="30.7" xlink:href="#linear-gradient-6"/>
    <linearGradient id="linear-gradient-19" x1="-316.663" y1="612.497" x2="-316.724" y2="615.022" xlink:href="#linear-gradient-9"/>
    <linearGradient id="linear-gradient-20" x1="-7.087" y1="-1.775" x2="-7.086" y2="-1.775" xlink:href="#linear-gradient-9"/>
    <linearGradient id="linear-gradient-21" x1="-8.167" y1="-17.528" x2="-8.166" y2="-17.528" xlink:href="#linear-gradient-9"/>
    <linearGradient id="linear-gradient-22" x1="-10.483" y1="-7.952" x2="-10.482" y2="-7.952" xlink:href="#linear-gradient-9"/>
    <linearGradient id="linear-gradient-23" x1="-12.25" y1="-1.909" x2="-12.249" y2="-1.909" xlink:href="#linear-gradient-9"/>
    <linearGradient id="linear-gradient-24" x1="-20.965" y1="-1.623" x2="-20.964" y2="-1.623" xlink:href="#linear-gradient-9"/>
    <linearGradient id="linear-gradient-25" x1="-9.55" y1="-1.455" x2="-9.549" y2="-1.455" xlink:href="#linear-gradient-9"/>
    <linearGradient id="linear-gradient-26" x1="-12.527" y1="-2.672" x2="-12.527" y2="-2.672" xlink:href="#linear-gradient-9"/>
    <linearGradient id="linear-gradient-27" x1="-19.755" y1="-2.765" x2="-19.756" y2="-2.763" xlink:href="#linear-gradient-9"/>
    <linearGradient id="linear-gradient-28" x1="-25.678" y1="-5.644" x2="-25.676" y2="-5.644" xlink:href="#linear-gradient-9"/>
    <linearGradient id="linear-gradient-29" x1="-31.537" y1="-9.107" x2="-31.353" y2="-9.107" xlink:href="#linear-gradient"/>
    <linearGradient id="linear-gradient-30" x1="-27.889" y1="-3.38" x2="-27.89" y2="-3.378" xlink:href="#linear-gradient-9"/>
    <linearGradient id="linear-gradient-31" x1="-38.552" y1="-6.74" x2="-38.549" y2="-6.74" xlink:href="#linear-gradient-9"/>
    <linearGradient id="linear-gradient-32" x1="-71.691" y1="-12.114" x2="-71.681" y2="-12.114" xlink:href="#linear-gradient"/>
    <linearGradient id="linear-gradient-33" x1="-124.2" y1="-26.543" x2="-124.157" y2="-26.543" xlink:href="#linear-gradient"/>
    <linearGradient id="linear-gradient-34" x1="-123.946" y1="-24.713" x2="-123.902" y2="-24.713" xlink:href="#linear-gradient"/>
    <linearGradient id="linear-gradient-35" x1="-26.336" y1="-2.417" x2="-26.337" y2="-2.415" xlink:href="#linear-gradient-9"/>
    <linearGradient id="linear-gradient-36" x1="-53.827" y1="-0.696" x2="-53.83" y2="-0.678" xlink:href="#linear-gradient-9"/>
    <linearGradient id="linear-gradient-37" x1="-42.353" y1="-1.915" x2="-42.355" y2="-1.909" xlink:href="#linear-gradient-9"/>
    <linearGradient id="linear-gradient-38" x1="-20.419" y1="-4.346" x2="-20.42" y2="-4.344" xlink:href="#linear-gradient-9"/>
    <linearGradient id="linear-gradient-39" x1="-31.814" y1="-4.416" x2="-31.816" y2="-4.409" xlink:href="#linear-gradient-9"/>
    <linearGradient id="linear-gradient-40" x1="-80.843" y1="-1.195" x2="-80.871" y2="-1.13" xlink:href="#linear-gradient-9"/>
    <linearGradient id="linear-gradient-41" x1="-26.804" y1="-4.568" x2="-26.805" y2="-4.566" xlink:href="#linear-gradient-9"/>
    <linearGradient id="linear-gradient-42" x1="-41.385" y1="-3.931" x2="-41.387" y2="-3.917" xlink:href="#linear-gradient-9"/>
    <linearGradient id="linear-gradient-43" x1="-19.692" y1="-6.132" x2="-19.693" y2="-6.13" xlink:href="#linear-gradient-9"/>
    <linearGradient id="linear-gradient-44" x1="-25.371" y1="-10.734" x2="-25.368" y2="-10.734" xlink:href="#linear-gradient-9"/>
    <linearGradient id="linear-gradient-45" x1="-53.278" y1="-29.681" x2="-53.256" y2="-29.681" xlink:href="#linear-gradient"/>
    <linearGradient id="linear-gradient-46" x1="-36.396" y1="-35.237" x2="-36.39" y2="-35.237" xlink:href="#linear-gradient"/>
    <linearGradient id="linear-gradient-47" x1="-28.175" y1="-5.916" x2="-28.176" y2="-5.914" xlink:href="#linear-gradient-9"/>
    <linearGradient id="linear-gradient-48" x1="-38.909" y1="-10.571" x2="-38.907" y2="-10.571" xlink:href="#linear-gradient-9"/>
    <linearGradient id="linear-gradient-49" x1="-52.955" y1="-95.581" x2="-52.95" y2="-95.581" xlink:href="#linear-gradient"/>
    <linearGradient id="linear-gradient-50" x1="-57.463" y1="-97.952" x2="-57.457" y2="-97.952" xlink:href="#linear-gradient"/>
    <linearGradient id="linear-gradient-51" x1="-62.789" y1="-100.353" x2="-62.782" y2="-100.353" xlink:href="#linear-gradient"/>
    <linearGradient id="linear-gradient-52" x1="-68.107" y1="-102.462" x2="-68.098" y2="-102.462" xlink:href="#linear-gradient"/>
    <linearGradient id="linear-gradient-53" x1="-76.43" y1="-104.825" x2="-76.419" y2="-104.825" xlink:href="#linear-gradient"/>
    <linearGradient id="linear-gradient-54" x1="-22.032" y1="-3.036" x2="-22.033" y2="-3.034" xlink:href="#linear-gradient-9"/>
    <linearGradient id="linear-gradient-55" x1="-29.198" y1="-6.133" x2="-29.195" y2="-6.133" xlink:href="#linear-gradient-9"/>
    <linearGradient id="linear-gradient-56" x1="-38.933" y1="-18.981" x2="-38.928" y2="-18.981" xlink:href="#linear-gradient"/>
    <linearGradient id="linear-gradient-57" x1="-41.933" y1="-21.228" x2="-41.927" y2="-21.228" xlink:href="#linear-gradient"/>
    <linearGradient id="linear-gradient-58" x1="-45.377" y1="-23.678" x2="-45.37" y2="-23.678" xlink:href="#linear-gradient"/>
    <linearGradient id="linear-gradient-59" x1="-48.731" y1="-25.784" x2="-48.723" y2="-25.784" xlink:href="#linear-gradient"/>
    <linearGradient id="linear-gradient-60" x1="-53.763" y1="-28.16" x2="-53.751" y2="-28.16" xlink:href="#linear-gradient"/>
    <linearGradient id="linear-gradient-61" x1="-21.824" y1="-7.057" x2="-21.826" y2="-7.055" xlink:href="#linear-gradient-9"/>
    <linearGradient id="linear-gradient-62" x1="-29.019" y1="-12.296" x2="-29.016" y2="-12.296" xlink:href="#linear-gradient-9"/>
    <linearGradient id="linear-gradient-63" x1="-73.537" y1="-29.19" x2="-73.394" y2="-29.19" xlink:href="#linear-gradient"/>
    <linearGradient id="linear-gradient-64" x1="-63.991" y1="-20.689" x2="-63.97" y2="-20.689" xlink:href="#linear-gradient"/>
    <linearGradient id="linear-gradient-65" x1="-27.801" y1="-7.285" x2="-27.802" y2="-7.283" xlink:href="#linear-gradient-9"/>
    <linearGradient id="linear-gradient-66" x1="-38.669" y1="-12.792" x2="-38.666" y2="-12.792" xlink:href="#linear-gradient-9"/>
    <linearGradient id="linear-gradient-67" x1="-55.414" y1="-26.759" x2="-55.408" y2="-26.759" xlink:href="#linear-gradient"/>
    <linearGradient id="linear-gradient-68" x1="-58.878" y1="-44.108" x2="-58.872" y2="-44.108" xlink:href="#linear-gradient"/>
    <linearGradient id="linear-gradient-69" x1="-66.321" y1="-11.365" x2="-66.554" y2="-11.066" gradientUnits="objectBoundingBox">
      <stop offset="0" stop-color="#4fabff"/>
      <stop offset="1" stop-color="#408ae2"/>
    </linearGradient>
    <linearGradient id="linear-gradient-70" x1="-58.064" y1="-10.509" x2="-58.278" y2="-10.449" xlink:href="#linear-gradient-69"/>
    <linearGradient id="linear-gradient-71" x1="-68.984" y1="-11.261" x2="-69.217" y2="-10.962" xlink:href="#linear-gradient-69"/>
  </defs>
  <g id="Grupo_91022" data-name="Grupo 91022" transform="translate(-481.317 -375.482)">
    <path id="Trazado_143611" data-name="Trazado 143611" d="M681.794,378.211c4.274,1.312,10.665,7.275,16.27,16.789,6.894,11.7,10.989,12.726,20.742,6.959s21.207-1.891,29.5,13.458-6.233,27.282-19.7,45.982,13.418,13.863,22.125,35.7-3.573,46.343-43.981,46.051c-40.462-.292-108.136-2.343-108.136-2.343s-72.518,7.258-91.065-3.61c-23.329-13.67,16.67-18.74-2.543-27.269s-18.939-16.494-18.579-31.686c.409-17.329,16.278-19.995,23.951-25.89s12.288-12.293,1.317-22.786S492.326,412,497.872,398.1c7.957-19.944,27.265-22.517,48.482-14.064s24.816,19.278,59.828,13.011C625.719,393.558,645.4,367.039,681.794,378.211Z" fill="url(#linear-gradient)"/>
    <g id="Grupo_91022-2" data-name="Grupo 91022-2" opacity="0.9">
      <path id="Trazado_143612" data-name="Trazado 143612" d="M496.54,377.771c-.886,17.427-2.843,118.51,70.314,123.913,0,0,14.561-68.647-68.541-125.367C497.586,375.822,496.6,376.634,496.54,377.771Z" fill="#91bcfa"/>
      <path id="Trazado_143613" data-name="Trazado 143613" d="M504.244,390.808c1.381,4.752,2.849,9.485,4.354,14.2s3.061,9.419,4.664,14.1q4.8,14.058,10.254,27.878,2.753,6.9,5.7,13.706,2.986,6.794,6.24,13.466c2.2,4.432,4.517,8.8,7.016,13.061a107.987,107.987,0,0,0,8.24,12.273.483.483,0,0,1-.078.677h0a.484.484,0,0,1-.678-.077h0a109.314,109.314,0,0,1-8.254-12.421c-2.493-4.3-4.8-8.7-6.985-13.15q-3.249-6.7-6.193-13.528t-5.651-13.758q-5.412-13.851-10.133-27.957-2.373-7.043-4.6-14.135c-1.483-4.728-2.932-9.468-4.29-14.236a.2.2,0,0,1,.141-.253.2.2,0,0,1,.248.135l0,.011Z" fill="#fff" opacity="0.45" style="isolation: isolate"/>
    </g>
    <g id="Grupo_91023" data-name="Grupo 91023">
      <path id="Trazado_143614" data-name="Trazado 143614" d="M481.328,448.1a.892.892,0,0,1,1.592-.676c5.378,7.173,20.066,25.542,34.5,32.717,23.5,11.684,45.846,36.781,41.173,56.077C558.591,536.216,497.169,547.887,481.328,448.1Z" fill="#bddefb"/>
      <path id="Trazado_143615" data-name="Trazado 143615" d="M487.7,458.847c.1.179.237.4.361.614l.39.63.8,1.251,1.616,2.489q1.637,2.477,3.325,4.914,3.365,4.887,6.9,9.649c4.74,6.33,9.638,12.543,14.865,18.471,2.626,2.952,5.261,5.9,8.017,8.728s5.579,5.592,8.5,8.244a126.359,126.359,0,0,0,18.8,14.361.193.193,0,0,1-.192.335,101.568,101.568,0,0,1-10.023-6.434c-3.209-2.348-6.274-4.879-9.274-7.488a188.851,188.851,0,0,1-16.706-16.971c-2.613-2.99-5.128-6.062-7.6-9.169s-4.867-6.273-7.173-9.5-4.574-6.483-6.744-9.8q-1.625-2.491-3.194-5.019c-.519-.845-1.04-1.69-1.545-2.542l-.75-1.285-.369-.647c-.121-.224-.24-.422-.365-.681a.192.192,0,0,1,.341-.175Z" fill="#dcf7fe"/>
    </g>
    <g id="Grupo_91024" data-name="Grupo 91024">
      <path id="Trazado_143616" data-name="Trazado 143616" d="M732.509,380.1c3.567,12.813,21.284,88.227-46.5,117.564,0,0-24.443-46.646,44.6-118.049a1.128,1.128,0,0,1,1.591-.023A1.151,1.151,0,0,1,732.509,380.1Z" fill="#91bcfa"/>
      <path id="Trazado_143617" data-name="Trazado 143617" d="M727.715,392.575c-.546,4.216-1.183,8.416-1.854,12.615s-1.4,8.382-2.166,12.561c-1.541,8.357-3.268,16.683-5.25,24.949s-4.22,16.478-6.9,24.556q-1.989,6.064-4.424,11.977a107.574,107.574,0,0,1-5.512,11.539.458.458,0,0,1-.622.176h0a.457.457,0,0,1-.175-.623h0a106.5,106.5,0,0,0,5.524-11.412q2.454-5.86,4.464-11.9c2.709-8.037,4.978-16.22,7.008-24.461s3.792-16.55,5.374-24.889q1.188-6.256,2.229-12.54c.693-4.188,1.35-8.387,1.917-12.589h0a.2.2,0,0,1,.218-.166A.194.194,0,0,1,727.715,392.575Z" fill="#dcf7fe"/>
    </g>
    <g id="Grupo_91025" data-name="Grupo 91025">
      <path id="Trazado_143618" data-name="Trazado 143618" d="M691.739,540.107s-1.136-14.534,12.01-30.666c12.2-14.967,42.374-49.787,48.319-68a.784.784,0,0,1,.985-.509h0a.787.787,0,0,1,.541.66,96.148,96.148,0,0,1-11.717,56.03C724.584,528.739,691.739,540.107,691.739,540.107Z" fill="#bddefb"/>
      <path id="Trazado_143619" data-name="Trazado 143619" d="M748.4,458.186a33.559,33.559,0,0,1-.8,5.98c-.05.247-.1.494-.153.74l-.18.734-.361,1.468-.422,1.451c-.145.483-.273.973-.445,1.446a71.352,71.352,0,0,1-4.749,11.114c-.439.91-.971,1.769-1.469,2.647l-.757,1.31c-.129.217-.245.442-.385.651l-.409.636-1.636,2.545c-.264.431-.572.831-.864,1.241l-.887,1.228L734,492.6l-.445.614-.471.591-1.889,2.365c-.318.391-.623.8-.951,1.177l-.979,1.147-1.961,2.293-1.988,2.271c-.664.755-1.321,1.516-2,2.261q-2.012,2.25-4.057,4.468c-1.356,1.485-2.736,2.949-4.11,4.418l-4.159,4.364c-2.776,2.906-5.557,5.807-8.235,8.8-.682.738-1.321,1.508-1.978,2.266-.332.376-.638.773-.954,1.16s-.633.777-.935,1.176c-.585.81-1.2,1.6-1.731,2.45l-.413.627c-.068.1-.141.205-.2.315l-.184.327L695.619,537v.006a.11.11,0,0,1-.149.041h0a.108.108,0,0,1-.043-.142,35.579,35.579,0,0,1,3.155-5.16c.3-.41.609-.8.914-1.206s.607-.806.932-1.19c.64-.777,1.27-1.568,1.934-2.322l.987-1.144c.331-.379.672-.75,1.007-1.125l1.009-1.122,1.023-1.111c1.357-1.484,2.732-2.952,4.1-4.425,2.737-2.942,5.475-5.883,8.177-8.853s5.367-5.976,8-9l1.957-2.29.977-1.145c.326-.382.632-.777.948-1.166l1.885-2.336.472-.583.443-.605.886-1.213A88.8,88.8,0,0,0,740.7,480.8a70.8,70.8,0,0,0,4.936-10.936c.184-.467.317-.95.477-1.425l.467-1.432.409-1.447.2-.724c.063-.243.116-.488.175-.731.111-.489.238-.974.341-1.466l.287-1.477q.267-1.482.386-2.984a.012.012,0,0,1,.012-.014h0a.017.017,0,0,1,0,.021Z" fill="#dcf7fe"/>
    </g>
    <g id="Grupo_91038" data-name="Grupo 91038">
      <g id="Grupo_91031" data-name="Grupo 91031">
        <g id="Grupo_91026" data-name="Grupo 91026">
          <path id="Trazado_143620" data-name="Trazado 143620" d="M625.382,437.4a.154.154,0,0,1-.24-.158h0q.07-.291.136-.587a.153.153,0,0,1,.181-.117.155.155,0,0,1,.117.18h0c-.043.2-.089.4-.137.6A.156.156,0,0,1,625.382,437.4Z" fill="#91bcfa"/>
          <path id="Trazado_143621" data-name="Trazado 143621" d="M618.846,447.641a.153.153,0,0,1-.211-.028.151.151,0,0,1,.025-.211c.3-.242.6-.5.886-.759a.149.149,0,0,1,.212.01h0a.15.15,0,0,1-.009.213h0c-.292.264-.6.524-.9.77Zm-1.554,1.117-.008.007c-.332.212-.675.419-1.018.614a.15.15,0,0,1-.2-.06.148.148,0,0,1,.056-.2h0c.341-.189.675-.392,1-.6a.153.153,0,0,1,.21.045h0a.155.155,0,0,1-.04.194Zm3.8-3.24a.148.148,0,0,1-.191-.008.152.152,0,0,1-.011-.214c.258-.288.511-.589.75-.894a.152.152,0,0,1,.212-.025h0a.152.152,0,0,1,.026.212h0q-.367.465-.766.908a.076.076,0,0,1-.024.026Zm-6.523,4.7a.245.245,0,0,1-.031.018c-.361.156-.731.3-1.1.437a.153.153,0,0,1-.2-.092.151.151,0,0,1,.089-.194h0c.365-.132.73-.273,1.086-.43a.153.153,0,0,1,.15.264Zm8.392-7.154a.152.152,0,0,1-.22-.2h0l.058-.092c.187-.3.37-.6.54-.913a.148.148,0,0,1,.26.141c-.173.313-.358.625-.546.927l-.059.092a.132.132,0,0,1-.038.04ZM611.642,451.2a.149.149,0,0,1-.055.024c-.383.1-.773.181-1.159.253a.149.149,0,0,1-.176-.118h0a.153.153,0,0,1,.122-.177c.38-.068.765-.154,1.141-.248a.151.151,0,0,1,.183.109h0a.152.152,0,0,1-.054.158ZM624.4,440.329a.153.153,0,0,1-.15.018.15.15,0,0,1-.082-.2l0,0h0c.153-.357.3-.722.427-1.087a.149.149,0,0,1,.192-.092h0a.152.152,0,0,1,.092.194c-.132.371-.279.743-.433,1.106a.167.167,0,0,1-.047.061ZM608.594,451.7a.16.16,0,0,1-.078.03c-.394.033-.793.052-1.186.06a.154.154,0,0,1-.155-.149.149.149,0,0,1,.147-.154h0c.387-.007.778-.028,1.166-.06a.151.151,0,0,1,.164.136.154.154,0,0,1-.059.137Zm-3.088,0a.157.157,0,0,1-.1.03c-.393-.033-.789-.077-1.179-.137a.153.153,0,0,1-.13-.171h0a.152.152,0,0,1,.171-.129h0c.383.056.773.1,1.159.132a.159.159,0,0,1,.084.275Zm-3.045-.5a.154.154,0,0,1-.128.024c-.382-.1-.765-.2-1.14-.325a.152.152,0,0,1-.1-.19h0a.151.151,0,0,1,.188-.1h0c.37.118.75.227,1.122.322a.152.152,0,0,1,.111.183v0h0a.167.167,0,0,1-.053.083Zm-2.921-1a.152.152,0,0,1-.152.018c-.361-.157-.721-.328-1.071-.509a.15.15,0,0,1,.132-.269h0c.346.177.7.344,1.056.5a.153.153,0,0,1,.077.2.148.148,0,0,1-.043.063Zm-2.719-1.463a.154.154,0,0,1-.173.005c-.333-.216-.661-.442-.976-.677a.149.149,0,0,1-.032-.21.153.153,0,0,1,.212-.033c.31.23.633.454.961.666a.152.152,0,0,1,.045.21h0a.174.174,0,0,1-.034.038Zm-2.448-1.884a.154.154,0,0,1-.193-.01c-.291-.264-.577-.541-.853-.826a.152.152,0,0,1,.215-.214h0c.273.279.554.552.839.813a.152.152,0,0,1,.01.214h0l-.016.022Zm-2.107-2.26a.153.153,0,0,1-.21-.028c-.105-.136-.209-.27-.31-.406-.137-.181-.267-.365-.394-.55a.151.151,0,0,1,.033-.2h0a.152.152,0,0,1,.211.039c.125.18.255.362.388.542.1.136.2.266.306.4a.153.153,0,0,1-.025.212h0Z" fill="#91bcfa"/>
          <path id="Trazado_143622" data-name="Trazado 143622" d="M590.557,442.007l-.018.01a.151.151,0,0,1-.2-.06c-.1-.179-.194-.36-.286-.541a.151.151,0,0,1,.065-.2h0a.153.153,0,0,1,.2.067h0c.091.179.184.356.281.533A.155.155,0,0,1,590.557,442.007Z" fill="#91bcfa"/>
        </g>
        <g id="Grupo_91027" data-name="Grupo 91027">
          <path id="Trazado_143623" data-name="Trazado 143623" d="M589.021,427.485a.148.148,0,0,1-.136.024.15.15,0,0,1-.1-.187h0c.058-.194.12-.389.186-.583a.152.152,0,0,1,.192-.1h0a.151.151,0,0,1,.1.189v0h0c-.064.191-.125.383-.184.574A.146.146,0,0,1,589.021,427.485Z" fill="#91bcfa"/>
          <path id="Trazado_143624" data-name="Trazado 143624" d="M623,422.832l-.009.007a.152.152,0,0,1-.21-.047h0c-.219-.346-.452-.689-.693-1.023a.151.151,0,0,1,.032-.211h0a.153.153,0,0,1,.212.033c.246.336.483.686.705,1.037A.152.152,0,0,1,623,422.832Zm-1.978-2.591a.151.151,0,0,1-.2-.019c-.272-.3-.565-.6-.86-.887a.148.148,0,0,1-.008-.21l0,0h0a.153.153,0,0,1,.214,0h0c.3.289.594.592.874.9a.153.153,0,0,1-.01.215h0Zm-2.4-2.212a.15.15,0,0,1-.184,0c-.322-.25-.661-.493-1-.723a.15.15,0,0,1-.042-.209h0a.151.151,0,0,1,.209-.042h0c.347.233.689.477,1.017.734a.153.153,0,0,1,.027.213h0a.163.163,0,0,1-.029.024Zm-2.741-1.769a.151.151,0,0,1-.163.013c-.362-.193-.735-.374-1.108-.542a.15.15,0,0,1-.077-.2h0a.153.153,0,0,1,.2-.076c.38.171.759.355,1.126.551a.151.151,0,0,1,.021.254Zm-3-1.274a.145.145,0,0,1-.136.022c-.39-.125-.788-.24-1.185-.34a.152.152,0,0,1-.111-.184h0a.15.15,0,0,1,.182-.11h0c.4.1.808.219,1.2.347a.153.153,0,0,1,.1.19h0a.159.159,0,0,1-.056.072Zm-3.176-.731a.146.146,0,0,1-.112.029c-.4-.058-.818-.1-1.227-.131a.152.152,0,0,1-.141-.161v0a.149.149,0,0,1,.159-.14h0c.415.03.834.074,1.246.132a.154.154,0,0,1,.13.173.152.152,0,0,1-.061.1Zm-3.256-.171a.15.15,0,0,1-.085.031c-.409.013-.824.042-1.231.083a.152.152,0,0,1-.166-.136.15.15,0,0,1,.131-.167h0c.415-.041.836-.069,1.251-.084a.151.151,0,0,1,.095.273Zm-16.493,10.948a.154.154,0,0,1-.156.017.151.151,0,0,1-.074-.2h0c.175-.377.364-.754.564-1.12a.147.147,0,1,1,.26.138c-.2.361-.383.731-.554,1.1a.193.193,0,0,1-.045.061Zm13.255-10.556a.134.134,0,0,1-.059.025c-.4.085-.8.184-1.2.292a.15.15,0,0,1-.186-.1h0a.151.151,0,0,1,.1-.187c.4-.112.811-.211,1.219-.3a.151.151,0,0,1,.179.115h0a.154.154,0,0,1-.059.15ZM591.57,422.2a.155.155,0,0,1-.177,0,.151.151,0,0,1-.04-.211h0c.237-.341.488-.682.745-1.008a.152.152,0,1,1,.237.189c-.254.319-.5.653-.733.991a.346.346,0,0,1-.034.033Zm8.514-6.784a.249.249,0,0,1-.035.021c-.38.15-.76.317-1.13.494a.153.153,0,0,1-.2-.072h0a.15.15,0,0,1,.067-.2h.006c.375-.179.762-.348,1.149-.5a.151.151,0,0,1,.2.079l0,0h0a.153.153,0,0,1-.048.178Zm-6.436,4.268a.149.149,0,0,1-.2-.013.152.152,0,0,1,0-.215h0c.292-.3.6-.588.908-.865a.15.15,0,0,1,.213.01h0a.155.155,0,0,1-.013.215c-.307.273-.607.558-.894.85Zm3.522-2.8-.012.008c-.349.215-.694.445-1.029.682a.152.152,0,0,1-.211-.034v0h0a.151.151,0,0,1,.035-.211c.341-.241.691-.477,1.045-.693a.151.151,0,0,1,.171.249Z" fill="#91bcfa"/>
          <path id="Trazado_143625" data-name="Trazado 143625" d="M624.246,425.156l-.029.017a.152.152,0,0,1-.2-.073h0q-.123-.271-.255-.546a.149.149,0,0,1,.066-.2h0a.151.151,0,0,1,.2.065h0c.09.182.178.366.26.554A.155.155,0,0,1,624.246,425.156Z" fill="#91bcfa"/>
        </g>
        <g id="Grupo_91030" data-name="Grupo 91030">
          <g id="Grupo_91028" data-name="Grupo 91028">
            <path id="Trazado_143626" data-name="Trazado 143626" d="M620.819,428.545a.225.225,0,0,0-.19-.181l-2.727-.387a12,12,0,0,0-2.142-3.241l.714-2.659a.227.227,0,0,0-.092-.247l-2.736-1.849a.224.224,0,0,0-.262.008l-2.2,1.654a11.943,11.943,0,0,0-3.807-.777L606,418.479a.224.224,0,0,0-.238-.109l-3.241.628a.224.224,0,0,0-.182.191l-.387,2.727a12,12,0,0,0-3.242,2.141l-2.659-.713a.226.226,0,0,0-.246.092l-1.848,2.736a.225.225,0,0,0,.007.263l1.654,2.2a11.93,11.93,0,0,0-.776,3.807l-2.387,1.376a.224.224,0,0,0-.109.239l.627,3.242a.226.226,0,0,0,.191.181l2.727.386a11.95,11.95,0,0,0,2.141,3.242l-.713,2.659a.222.222,0,0,0,.091.247l2.737,1.848a.224.224,0,0,0,.262-.006l2.2-1.654a11.985,11.985,0,0,0,3.807.776l1.376,2.387a.224.224,0,0,0,.239.109l3.242-.628a.229.229,0,0,0,.182-.191l.386-2.727a12,12,0,0,0,3.242-2.14l2.659.712a.226.226,0,0,0,.247-.091l1.848-2.736a.227.227,0,0,0-.007-.263l-1.654-2.2a12.013,12.013,0,0,0,.777-3.807l2.387-1.376a.227.227,0,0,0,.109-.24Z" fill="#91bcfa"/>
          </g>
          <g id="Grupo_91029" data-name="Grupo 91029">
            <path id="Trazado_143627" data-name="Trazado 143627" d="M608.744,435.391a3.082,3.082,0,1,1,1.053-1.42A3.076,3.076,0,0,1,608.744,435.391Zm-3.512-4.695a2.815,2.815,0,1,0,.49-.291,2.858,2.858,0,0,0-.487.292Z" fill="#bddefb"/>
          </g>
          <path id="Trazado_143628" data-name="Trazado 143628" d="M611.69,439.447a8.135,8.135,0,0,1-9.405.222,8.051,8.051,0,0,1-1.961-1.87,8.12,8.12,0,0,1,12.27-10.575,1.406,1.406,0,0,1,.1.105l.012.015a.155.155,0,0,1-.018.2.153.153,0,0,1-.215,0h0a7.821,7.821,0,1,0,2.153,5.833.153.153,0,0,1,.16-.143.152.152,0,0,1,.144.161,8.117,8.117,0,0,1-3.24,6.052Z" fill="#bddefb"/>
        </g>
      </g>
      <g id="Grupo_91037" data-name="Grupo 91037">
        <g id="Grupo_91032" data-name="Grupo 91032">
          <path id="Trazado_143629" data-name="Trazado 143629" d="M646.648,416.312a.113.113,0,0,1-.085.045.111.111,0,0,1-.116-.107c-.006-.148-.015-.3-.025-.441a.11.11,0,1,1,.219-.019c.011.148.02.3.026.447A.122.122,0,0,1,646.648,416.312Z" fill="#91bcfa"/>
          <path id="Trazado_143630" data-name="Trazado 143630" d="M644.124,424.858a.111.111,0,0,1-.181-.13h0c.163-.231.322-.472.471-.715a.111.111,0,1,1,.189.117c-.151.246-.313.491-.477.727Zm-.868,1.1-.006.007c-.19.218-.389.434-.593.638a.112.112,0,0,1-.157,0,.11.11,0,0,1,0-.156h0c.2-.2.4-.414.584-.628a.111.111,0,0,1,.171.142Zm2.019-3.055a.111.111,0,0,1-.188-.116c.124-.254.241-.519.348-.782a.113.113,0,0,1,.146-.062.11.11,0,0,1,.06.144v0c-.109.268-.228.535-.353.8l-.013.019Zm-3.644,4.637a.085.085,0,0,1-.019.019c-.222.185-.454.363-.689.533a.112.112,0,0,1-.132-.18h0c.231-.167.459-.342.678-.523a.109.109,0,0,1,.155.012h0a.114.114,0,0,1,0,.136Zm4.46-6.75a.112.112,0,0,1-.12.04.11.11,0,0,1-.075-.137l.022-.075c.068-.248.136-.5.194-.75a.11.11,0,0,1,.131-.086h0a.112.112,0,0,1,.085.132h0c-.059.255-.125.512-.2.764l-.023.077a.113.113,0,0,1-.018.03Zm-6.32,8.04a.154.154,0,0,1-.033.03c-.252.145-.509.283-.767.408a.112.112,0,0,1-.15-.049.113.113,0,0,1,.05-.15c.254-.126.508-.263.754-.408a.113.113,0,0,1,.145.169Zm6.783-10.257a.106.106,0,0,1-.1.043.111.111,0,0,1-.1-.121v0h0c.036-.281.062-.569.08-.853a.111.111,0,0,1,.117-.105h0a.114.114,0,0,1,.1.118c-.018.289-.046.581-.081.867a.118.118,0,0,1-.023.054Zm-8.83,11.229a.1.1,0,0,1-.048.037c-.272.1-.545.2-.824.283a.109.109,0,0,1-.062-.21c.273-.084.545-.177.81-.278a.112.112,0,0,1,.143.065h0a.112.112,0,0,1-.019.1Zm-2.174.628a.114.114,0,0,1-.068.042c-.284.057-.573.105-.858.146a.112.112,0,0,1-.126-.1v0a.11.11,0,0,1,.1-.124h.005c.28-.038.565-.086.844-.142a.112.112,0,0,1,.13.086h0a.113.113,0,0,1-.02.089Zm-2.251.262a.109.109,0,0,1-.084.044c-.289.01-.581.01-.871,0a.111.111,0,0,1-.109-.112v0h0a.111.111,0,0,1,.113-.108h0c.284.007.573.007.856,0a.111.111,0,0,1,.115.107h0a.109.109,0,0,1-.02.07Zm-2.261-.111a.113.113,0,0,1-.1.044c-.286-.039-.576-.086-.859-.142a.11.11,0,0,1-.088-.13.112.112,0,0,1,.131-.088c.279.055.563.1.844.137a.11.11,0,0,1,.1.119v.006a.118.118,0,0,1-.021.055Zm-2.214-.477a.109.109,0,0,1-.12.039c-.279-.084-.556-.178-.826-.278a.111.111,0,0,1-.069-.141h0a.111.111,0,0,1,.142-.069h0c.265.1.539.191.812.272a.112.112,0,0,1,.074.137.1.1,0,0,1-.014.038Zm-2.107-.83a.11.11,0,0,1-.136.032c-.259-.127-.518-.264-.77-.409a.111.111,0,0,1-.041-.152.11.11,0,0,1,.151-.041h0c.249.142.5.277.757.4a.111.111,0,0,1,.051.147h0l-.012.017Zm-1.944-1.165a.111.111,0,0,1-.153.024c-.1-.074-.2-.147-.3-.223-.132-.1-.264-.205-.39-.308a.111.111,0,0,1-.019-.154h0a.111.111,0,0,1,.157-.016q.186.15.383.3l.3.219a.113.113,0,0,1,.025.156Z" fill="#91bcfa"/>
          <path id="Trazado_143631" data-name="Trazado 143631" d="M623.043,426.636l-.01.011a.11.11,0,0,1-.157,0h0c-.106-.106-.21-.213-.312-.323a.11.11,0,0,1,.006-.156h0a.114.114,0,0,1,.157,0c.1.109.2.214.307.318A.113.113,0,0,1,623.043,426.636Z" fill="#91bcfa"/>
        </g>
        <g id="Grupo_91033" data-name="Grupo 91033">
          <path id="Trazado_143632" data-name="Trazado 143632" d="M619.007,416.714a.111.111,0,0,1-.2-.068h0c0-.149.007-.3.014-.449a.11.11,0,0,1,.113-.106h0a.113.113,0,0,1,.107.115h0c-.007.147-.011.294-.013.441A.107.107,0,0,1,619.007,416.714Z" fill="#91bcfa"/>
          <path id="Trazado_143633" data-name="Trazado 143633" d="M642.006,406.532l-.006.006a.112.112,0,0,1-.157.01h0c-.224-.2-.459-.394-.7-.578a.111.111,0,0,1-.021-.155h0a.113.113,0,0,1,.157-.02c.241.188.477.386.707.588A.113.113,0,0,1,642.006,406.532Zm-1.921-1.426a.11.11,0,0,1-.146.028c-.255-.158-.52-.309-.786-.449a.109.109,0,0,1-.048-.148v0h0a.112.112,0,0,1,.149-.048h0c.273.143.539.3.8.456a.112.112,0,0,1,.036.153h0Zm-2.138-1.072a.109.109,0,0,1-.13.035c-.279-.109-.566-.212-.852-.306a.11.11,0,0,1,.07-.209h0c.291.094.582.2.865.311a.112.112,0,0,1,.063.144h0a.238.238,0,0,1-.021.023Zm-2.291-.69a.111.111,0,0,1-.113.042c-.293-.062-.593-.114-.891-.156a.11.11,0,0,1-.094-.125h0a.11.11,0,0,1,.125-.094h0c.3.043.607.1.906.16a.111.111,0,0,1,.087.131h0a.12.12,0,0,1-.021.044Zm-2.376-.287a.113.113,0,0,1-.091.044c-.3-.01-.606-.01-.9,0a.11.11,0,0,1-.116-.106h0a.112.112,0,0,1,.108-.115c.3-.011.614-.011.92,0a.111.111,0,0,1,.106.115.1.1,0,0,1-.022.063Zm-2.386.13a.111.111,0,0,1-.074.043c-.3.042-.6.1-.891.156a.11.11,0,0,1-.131-.084h0a.111.111,0,0,1,.085-.133c.3-.062.6-.116.906-.159a.112.112,0,0,1,.125.1v0h0a.118.118,0,0,1-.021.078Zm-2.329.54a.11.11,0,0,1-.055.04c-.286.093-.572.2-.851.307a.109.109,0,0,1-.143-.059h0a.11.11,0,0,1,.061-.144h0c.282-.114.574-.219.865-.314a.109.109,0,0,1,.124.168Zm-9.4,11.068a.113.113,0,0,1-.1.043.11.11,0,0,1-.093-.126h0c.046-.3.1-.606.17-.9a.111.111,0,0,1,.131-.085h0a.111.111,0,0,1,.085.13v0h0c-.064.293-.12.592-.166.886a.116.116,0,0,1-.025.051Zm7.2-10.134a.122.122,0,0,1-.036.032c-.266.14-.53.292-.785.449a.112.112,0,0,1-.154-.037h0a.112.112,0,0,1,.036-.153c.26-.16.528-.314.8-.457a.109.109,0,0,1,.149.044h0a.114.114,0,0,1-.01.118Zm-6.632,7.809a.111.111,0,0,1-.193-.1v0c.1-.29.2-.58.321-.862a.111.111,0,0,1,.144-.062h0a.112.112,0,0,1,.063.144v0c-.114.278-.22.563-.316.85a.16.16,0,0,1-.019.031Zm4.621-6.512a.07.07,0,0,1-.021.021q-.355.277-.7.578a.111.111,0,0,1-.156-.008h0a.109.109,0,0,1,.007-.155h0c.228-.2.467-.4.708-.587a.111.111,0,0,1,.155.019l0,0a.11.11,0,0,1,0,.135Zm-3.668,4.317a.112.112,0,0,1-.188-.12h0c.145-.267.3-.535.465-.792a.11.11,0,0,1,.15-.039h0a.114.114,0,0,1,.035.154c-.161.253-.315.516-.457.781Zm1.91-2.692-.007.007c-.2.223-.4.456-.586.689a.11.11,0,0,1-.155.021h0a.111.111,0,0,1-.018-.156c.19-.239.39-.478.6-.7a.113.113,0,0,1,.175.143Z" fill="#91bcfa"/>
          <path id="Trazado_143634" data-name="Trazado 143634" d="M643.361,407.914l-.017.018a.111.111,0,0,1-.157-.012h0c-.1-.112-.192-.224-.292-.333a.111.111,0,0,1,.007-.156h0a.109.109,0,0,1,.155.006h0q.15.168.3.342A.11.11,0,0,1,643.361,407.914Z" fill="#91bcfa"/>
        </g>
        <g id="Grupo_91036" data-name="Grupo 91036">
          <g id="Grupo_91034" data-name="Grupo 91034">
            <path id="Trazado_143635" data-name="Trazado 143635" d="M641.633,411a.167.167,0,0,0-.171-.088l-2,.281a8.831,8.831,0,0,0-2.168-1.85l-.037-2.019a.166.166,0,0,0-.115-.153l-2.3-.75a.168.168,0,0,0-.184.058l-1.215,1.613a8.758,8.758,0,0,0-2.84.227l-1.455-1.4a.164.164,0,0,0-.19-.028l-2.158,1.1a.164.164,0,0,0-.089.17l.281,2a8.81,8.81,0,0,0-1.849,2.168l-2.018.037a.163.163,0,0,0-.154.115l-.75,2.3a.166.166,0,0,0,.058.184l1.613,1.215a8.729,8.729,0,0,0,.226,2.84l-1.4,1.455a.166.166,0,0,0-.029.19l1.1,2.158a.165.165,0,0,0,.171.088l2-.281a8.772,8.772,0,0,0,2.168,1.849l.037,2.018a.167.167,0,0,0,.115.156l2.3.746a.166.166,0,0,0,.184-.059l1.214-1.612a8.794,8.794,0,0,0,2.841-.226l1.455,1.4a.167.167,0,0,0,.19.028l2.158-1.1a.168.168,0,0,0,.089-.17l-.282-2a8.833,8.833,0,0,0,1.85-2.168l2.018-.037a.167.167,0,0,0,.154-.114l.75-2.3a.166.166,0,0,0-.058-.184l-1.613-1.215a8.814,8.814,0,0,0-.226-2.84l1.4-1.456a.167.167,0,0,0,.029-.189Z" fill="#91bcfa"/>
          </g>
          <g id="Grupo_91035" data-name="Grupo 91035">
            <path id="Trazado_143636" data-name="Trazado 143636" d="M634.515,418.278a2.262,2.262,0,1,1,.451-1.213A2.262,2.262,0,0,1,634.515,418.278Zm-3.43-2.6a2.067,2.067,0,1,0,.283-.3,2.1,2.1,0,0,0-.285.3Z" fill="#bddefb"/>
          </g>
          <path id="Trazado_143637" data-name="Trazado 143637" d="M637.415,420.537a5.967,5.967,0,0,1-6.583,2.068,5.9,5.9,0,0,1-1.763-.919,5.957,5.957,0,0,1,5.436-10.413,6.142,6.142,0,0,1,1.063.461l.1.054.011.007a.114.114,0,0,1,.029.146.113.113,0,0,1-.153.04,5.769,5.769,0,0,0-1.114-.5,5.729,5.729,0,1,0,3.826,4.173.11.11,0,0,1,.08-.135h0a.112.112,0,0,1,.092.018.117.117,0,0,1,.041.063,5.918,5.918,0,0,1-1.066,4.937Z" fill="#bddefb"/>
        </g>
      </g>
    </g>
    <g id="Grupo_91041" data-name="Grupo 91041">
      <g id="Grupo_91040" data-name="Grupo 91040">
        <path id="Trazado_143638" data-name="Trazado 143638" d="M699.874,532.721a2.918,2.918,0,0,1-2.911,2.908H539.574a2.918,2.918,0,0,1-2.911-2.908l-1.31-90.447a5.068,5.068,0,0,1,5.337-4.487l153.82-3.98a7.335,7.335,0,0,1,7.526,7.5Z" fill="url(#linear-gradient-2)"/>
        <path id="Trazado_143639" data-name="Trazado 143639" d="M697,529.932a2.764,2.764,0,0,1-2.754,2.753H543.368a2.762,2.762,0,0,1-2.753-2.753l-1.236-82.109a6.778,6.778,0,0,1,6.934-6.62l.166.006,147.426-3.955a5.143,5.143,0,0,1,5.284,5.271Z" fill="url(#linear-gradient-3)"/>
        <g id="Grupo_91039" data-name="Grupo 91039">
          <path id="Trazado_143640" data-name="Trazado 143640" d="M542.247,490.782a.261.261,0,0,1-.259-.257l-.1-6.659a.258.258,0,0,1,.255-.263h0a.262.262,0,0,1,.265.256h0l.1,6.659a.26.26,0,0,1-.254.264h-.007Z" fill="#fff" opacity="0.37" style="isolation: isolate"/>
          <path id="Trazado_143641" data-name="Trazado 143641" d="M542.007,474.463a.258.258,0,0,1-.259-.256l-.375-25.5a5.435,5.435,0,0,1,1.569-4.076,7.449,7.449,0,0,1,4.943-1.7l47.075-1.262a.256.256,0,0,1,.267.242v.01a.263.263,0,0,1-.252.267l-47.091,1.262a6.9,6.9,0,0,0-4.583,1.562,4.927,4.927,0,0,0-1.411,3.7l.375,25.5a.26.26,0,0,1-.256.264h0Z" fill="#fff" opacity="0.37" style="isolation: isolate"/>
        </g>
        <path id="Trazado_143642" data-name="Trazado 143642" d="M547.263,525.377c.157-6.785.1-66.881-.291-72.074s7.7-6.164,20.1-6.75,117.119-2.9,119.815-3.115c6.061-.49,7.316,8.567,6.709,28.23-.456,14.773-1.21,39.112-1.558,50.3a6.176,6.176,0,0,1-6.161,5.985c-25.2.068-121.772.347-128.2.537C550.283,528.719,547.2,528.067,547.263,525.377Z" fill="#fff" opacity="0.29" style="isolation: isolate"/>
      </g>
      <path id="Trazado_143643" data-name="Trazado 143643" d="M708.664,543.137H531.054a3.974,3.974,0,1,1,0-7.948h177.61a3.974,3.974,0,1,1,0,7.948Z" fill="url(#linear-gradient-4)"/>
    </g>
    <g id="Grupo_91045" data-name="Grupo 91045">
      <g id="Grupo_91044" data-name="Grupo 91044">
        <path id="Trazado_143644" data-name="Trazado 143644" d="M644.021,406.219c-.027.05-1.7,1.277-1.7,1.277s.369,2.636,1.864,3.676c1.644,1.144,3.966-.942,3.966-.942s1.848.439,2.831-3.409c.225-.883-1.076-.955-2.647-.8C646.312,406.237,644.021,406.219,644.021,406.219Z" fill="url(#linear-gradient-5)"/>
        <path id="Trazado_143645" data-name="Trazado 143645" d="M640.905,415.206a7.034,7.034,0,0,1,2.138-.994c.288-.077,1.841.373,2.8.35,1.316-.03,2.656-.627,3.741-.357a7.788,7.788,0,0,1,2.469.981c1.524,1.083,2.42,3.1,2.965,5.106a6.979,6.979,0,0,1-2.332,1.533l-.241,9.732-5.756,2.945-6.568-3.3.235-9.512a9.86,9.86,0,0,1-2.24-1.325A8.536,8.536,0,0,1,640.905,415.206Z" fill="#f45d7a"/>
        <path id="Trazado_143646" data-name="Trazado 143646" d="M638.209,420.326s-2.8,7.749,3.58,10.934c1.323-.176.813-2.374.813-2.374s-2.769-.613-1.938-7.077A18.016,18.016,0,0,0,638.209,420.326Z" fill="url(#linear-gradient-6)"/>
        <path id="Trazado_143647" data-name="Trazado 143647" d="M654.88,420.326s1.923,8.091-3.58,10.934c-1.323-.176-.814-2.374-.814-2.374s2.232-1.1,1.938-7.077A17.9,17.9,0,0,1,654.88,420.326Z" fill="url(#linear-gradient-7)"/>
        <rect id="Rectángulo_49851" data-name="Rectángulo 49851" width="12.621" height="8.523" rx="3.72" transform="translate(640.041 423.282)" fill="url(#linear-gradient-8)"/>
        <g id="Grupo_91042" data-name="Grupo 91042">
          <path id="Trazado_143648" data-name="Trazado 143648" d="M658.2,434.332a25.491,25.491,0,0,0-4.783-.153l-.136.367-.225,1.828a38.015,38.015,0,0,0,4.746.572,1.464,1.464,0,0,0,.44-.068c.048-.043.093-.088.137-.136A1.724,1.724,0,0,0,658.2,434.332Z" fill="url(#linear-gradient-9)"/>
          <path id="Trazado_143649" data-name="Trazado 143649" d="M652.456,434.081l.566.024a1.093,1.093,0,0,1,.8.409,1.344,1.344,0,0,1,.291.916,1.051,1.051,0,0,1-.306.7.855.855,0,0,1-.661.251l-.865-.062Z" fill="url(#linear-gradient-10)"/>
        </g>
        <g id="Grupo_91043" data-name="Grupo 91043">
          <path id="Trazado_143650" data-name="Trazado 143650" d="M633.448,434.156a25.318,25.318,0,0,1,4.784-.006l.127.372.18,1.833a38.137,38.137,0,0,1-4.759.425,1.485,1.485,0,0,1-.439-.079c-.046-.044-.091-.091-.136-.14A1.72,1.72,0,0,1,633.448,434.156Z" fill="url(#linear-gradient-11)"/>
          <path id="Trazado_143651" data-name="Trazado 143651" d="M639.194,434.08l-.566.009a1.073,1.073,0,0,0-.8.386,1.327,1.327,0,0,0-.314.906,1.054,1.054,0,0,0,.289.707.857.857,0,0,0,.654.272l.866-.034Z" fill="url(#linear-gradient-12)"/>
        </g>
        <path id="Trazado_143652" data-name="Trazado 143652" d="M658.6,428.6a2.475,2.475,0,0,0-3.274-1.239,2.387,2.387,0,0,0-.347.191,90.621,90.621,0,0,1-16.275,6.4,8.31,8.31,0,0,1,.354,2.174c0,.163,0,.323-.007.482,5.84-.3,12.178-2.25,17.625-3.96a3.011,3.011,0,0,0,2.032-3.742A3.238,3.238,0,0,0,658.6,428.6Z" fill="url(#linear-gradient-13)"/>
        <path id="Trazado_143653" data-name="Trazado 143653" d="M652.5,436.241a5.024,5.024,0,0,1,.492-2.353c.01-.034.021-.065.033-.1-.435-.136-1-.318-1.735-.568a83.215,83.215,0,0,1-13.47-5.87,2.464,2.464,0,0,0-3.412.709v0a2.445,2.445,0,0,0-.346.822,2.834,2.834,0,0,0,1.977,3.477c4.358,1.45,2.089,1.047,3.512,1.5a59.58,59.58,0,0,0,12.956,2.554C652.5,436.364,652.5,436.3,652.5,436.241Z" fill="url(#linear-gradient-14)"/>
        <path id="Trazado_143654" data-name="Trazado 143654" d="M643.041,414.212a3.335,3.335,0,0,0,3.4,2.468,2.941,2.941,0,0,0,3.133-2.476l-1.878-.4-.157-2.093-2.826.208-.052,1.989Z" fill="url(#linear-gradient-15)"/>
        <path id="Trazado_143655" data-name="Trazado 143655" d="M645.114,405.778s-3.239,6.273.6,7.795c2.709,1.074,4.408-4.166,3.9-5.585-.784-2.194-1.3-1.934-1.3-1.934Z" fill="url(#linear-gradient-16)"/>
        <path id="Trazado_143656" data-name="Trazado 143656" d="M650.4,405.207c1.6.44.234,3.91-2.175,3.089s-3.355-.809-3.73-.147-.457,3.011-1.271,1.85c-.893-1.272-1.391-3.827-.3-4.651.979-.736,1.207-1.877,2.38-1.837,1.558.052,2.762-.638,3.465-.14C649.579,403.945,649.221,404.884,650.4,405.207Z" fill="url(#linear-gradient-17)"/>
        <path id="Trazado_143657" data-name="Trazado 143657" d="M644.344,408.689s-.69-.741-.8.154.244,2.049.66,1.416A2.168,2.168,0,0,0,644.344,408.689Z" fill="url(#linear-gradient-18)"/>
      </g>
      <path id="Trazado_143658" data-name="Trazado 143658" d="M647.095,425.592a.771.771,0,0,1-.581.92l-.046.009a.827.827,0,0,1-.94-.7h0a.786.786,0,0,1,.562-.96l.031-.008A.891.891,0,0,1,647.095,425.592Z" fill="url(#linear-gradient-19)"/>
    </g>
    <g id="Grupo_91080" data-name="Grupo 91080">
      <g id="Grupo_91046" data-name="Grupo 91046">
        <path id="Trazado_143659" data-name="Trazado 143659" d="M583.539,479.606l-13.669.47a1.463,1.463,0,0,1-1.52-1.464V473.4a4.711,4.711,0,0,0-4.691-4.713V453.156a4.721,4.721,0,0,0-4.716-4.715H543.632v3.246h15.307a1.472,1.472,0,0,1,1.469,1.469v15.576l-41.8.589a1.5,1.5,0,0,1-1.052-.423,1.461,1.461,0,0,1-.438-1.046v-49.9h-3.247v49.9a4.707,4.707,0,0,0,4.778,4.715l44.956-.633a1.5,1.5,0,0,1,1.053.423,1.462,1.462,0,0,1,.438,1.046v5.207a4.717,4.717,0,0,0,4.712,4.716h.168l13.558-.468Z" fill="url(#linear-gradient-20)"/>
        <path id="Trazado_143660" data-name="Trazado 143660" d="M583.541,486l-36.89.631a4.739,4.739,0,0,0-4.637,4.716,1.47,1.47,0,0,1-1.469,1.468H522.352v3.249h18.193a4.722,4.722,0,0,0,4.716-4.717,1.476,1.476,0,0,1,1.445-1.469l36.835-.629Z" fill="url(#linear-gradient-21)"/>
        <path id="Trazado_143661" data-name="Trazado 143661" d="M583.541,492.814h-9.39a4.722,4.722,0,0,0-4.717,4.717v1.75a1.47,1.47,0,0,1-1.469,1.47H539.878a4.721,4.721,0,0,0-4.716,4.717v6.324a4.715,4.715,0,0,0,4.709,4.72h.181l16.274-.6-.12-3.244-16.274.6a1.468,1.468,0,0,1-1.524-1.467v-6.329a1.471,1.471,0,0,1,1.47-1.469h28.087a4.721,4.721,0,0,0,4.716-4.716v-1.751a1.472,1.472,0,0,1,1.469-1.469h9.39Z" fill="url(#linear-gradient-22)"/>
        <path id="Trazado_143662" data-name="Trazado 143662" d="M583.541,472.971h-7.228a1.469,1.469,0,0,1-1.47-1.468V438.329a4.731,4.731,0,0,0-4.663-4.716c-5.229-.057-16.016-.017-21.979.011h-.014a2.992,2.992,0,0,1-2.985-2.957c-.023-2.5-.043-5.984,0-8.4a1.46,1.46,0,0,1,1.368-1.44l18.1-1.249-.223-3.239-18.1,1.248a4.692,4.692,0,0,0-4.392,4.621c-.044,2.455-.025,5.976,0,8.494a6.245,6.245,0,0,0,6.232,6.173h.03c5.953-.028,16.722-.068,21.929-.011a1.474,1.474,0,0,1,1.451,1.469v33.174a4.718,4.718,0,0,0,4.716,4.715h7.228Z" fill="url(#linear-gradient-23)"/>
        <path id="Trazado_143663" data-name="Trazado 143663" d="M681.634,409.655v27.623a1.476,1.476,0,0,1-1.262,1.454l-7.316,1.045a4.738,4.738,0,0,0-4.049,4.669v25.57a1.468,1.468,0,0,1-1.311,1.461L655.568,472.8v3.267l12.479-1.356a4.707,4.707,0,0,0,4.207-4.688V444.447a1.479,1.479,0,0,1,1.261-1.455l7.316-1.044a4.74,4.74,0,0,0,4.049-4.668V409.656Z" fill="url(#linear-gradient-24)"/>
        <path id="Trazado_143664" data-name="Trazado 143664" d="M703.641,490.043V477.66a1.472,1.472,0,0,1,1.456-1.47l5.932-.053a4.7,4.7,0,0,0,4.671-4.558l1.291-38.42-3.245-.109-1.291,38.419a1.465,1.465,0,0,1-1.455,1.42l-5.928.053a4.732,4.732,0,0,0-4.675,4.717V490l-2.436-.032a4.709,4.709,0,0,0-4.775,4.715v24.038a1.468,1.468,0,0,1-1.488,1.469l-21.957-.281a1.475,1.475,0,0,1-1.45-1.469V501.135a4.723,4.723,0,0,0-4.717-4.715h-8v3.246h8a1.471,1.471,0,0,1,1.469,1.469v17.3a4.734,4.734,0,0,0,4.657,4.715l21.956.282h.062a4.718,4.718,0,0,0,4.712-4.72V494.674a1.468,1.468,0,0,1,1.488-1.468l24.286.32.043-3.247Z" fill="url(#linear-gradient-25)"/>
        <path id="Trazado_143665" data-name="Trazado 143665" d="M683.168,527.1a2.046,2.046,0,0,1-2.046-2.02l-.526-38.461,8.857-.5a4.718,4.718,0,0,0,4.45-4.7V467.745h-3.246v13.673a1.472,1.472,0,0,1-1.387,1.467l-33.7,1.909v3.252l21.78-1.234q.068,5.151.142,10.3c.045,3.348.491,24.469.588,30a2.67,2.67,0,0,0,2.67,2.671h25.19v-2.672Z" fill="url(#linear-gradient-26)"/>
      </g>
      <g id="Grupo_91050" data-name="Grupo 91050">
        <g id="Grupo_91047" data-name="Grupo 91047">
          <path id="Trazado_143666" data-name="Trazado 143666" d="M522.391,396.54l-14.825.491c-2.877.468-4.957,2.6-4.957,5.091v13.626c0,2.864,2.734,5.182,6.1,5.182h13.357c3.372,0,6.1-2.318,6.1-5.182V403.16C528.176,399.906,526.537,396.533,522.391,396.54Z" fill="url(#linear-gradient-27)"/>
          <path id="Trazado_143667" data-name="Trazado 143667" d="M522.064,397.527l-13.86.448c-2.69.426-4.637,2.371-4.637,4.636v12.411c0,2.607,2.556,4.72,5.708,4.72h12.487c3.152,0,5.707-2.113,5.707-4.72V403.561C527.473,400.592,525.939,397.527,522.064,397.527Z" fill="#fff" opacity="0.89" style="isolation: isolate"/>
        </g>
        <g id="Grupo_91049" data-name="Grupo 91049">
          <circle id="Elipse_4564" data-name="Elipse 4564" cx="8.346" cy="8.346" r="8.346" transform="translate(506.986 400.185)" fill="url(#linear-gradient-28)"/>
          <g id="Grupo_91048" data-name="Grupo 91048">
            <path id="Trazado_143668" data-name="Trazado 143668" d="M514.326,404a.932.932,0,0,1,.256-.694.964.964,0,0,1,.714-.255.886.886,0,0,1,.95.949.912.912,0,0,1-.266.7.958.958,0,0,1-.682.249.988.988,0,0,1-.7-.249A.911.911,0,0,1,514.326,404Zm1.841,9.333H514.4v-7.4h1.766Z" fill="url(#linear-gradient-29)"/>
          </g>
        </g>
      </g>
      <g id="Grupo_91054" data-name="Grupo 91054">
        <g id="Grupo_91051" data-name="Grupo 91051">
          <path id="Trazado_143669" data-name="Trazado 143669" d="M728.295,415.57l-14.826.49c-2.877.468-4.957,2.6-4.957,5.092v13.625c0,2.864,2.734,5.182,6.1,5.182h13.357c3.373,0,6.1-2.318,6.1-5.182V422.189C734.079,418.937,732.44,415.57,728.295,415.57Z" fill="url(#linear-gradient-30)"/>
          <path id="Trazado_143670" data-name="Trazado 143670" d="M727.967,416.558l-13.861.447c-2.689.427-4.637,2.373-4.637,4.637v12.41c0,2.607,2.557,4.721,5.708,4.721h12.487c3.152,0,5.708-2.114,5.708-4.721V422.589C733.376,419.622,731.843,416.558,727.967,416.558Z" fill="#fff" opacity="0.89" style="isolation: isolate"/>
        </g>
        <g id="Grupo_91053" data-name="Grupo 91053">
          <circle id="Elipse_4565" data-name="Elipse 4565" cx="8.397" cy="8.397" r="8.397" transform="translate(712.908 419.148)" fill="url(#linear-gradient-31)"/>
          <g id="Grupo_91052" data-name="Grupo 91052">
            <path id="Trazado_143671" data-name="Trazado 143671" d="M716.942,424.909c.654,4.745,3.076,6.968,6.356,7.97l1.893-1.522a11,11,0,0,1-6.9-7.826Z" fill="url(#linear-gradient-32)"/>
            <path id="Trazado_143672" data-name="Trazado 143672" d="M723.179,432.847c2,.328,2.234.347,3.868-.737a.333.333,0,0,0,.093-.46.337.337,0,0,0-.061-.069l-2.884-2.46a.222.222,0,0,0-.313.024h0a.229.229,0,0,0-.034.053l-.477,1.051Z" fill="url(#linear-gradient-33)"/>
            <path id="Trazado_143673" data-name="Trazado 143673" d="M716.868,425.019c-.2-1.824-.164-2.1.964-3.614a.332.332,0,0,1,.464-.068h0a.349.349,0,0,1,.064.063l2.3,3.011a.225.225,0,0,1-.045.313.214.214,0,0,1-.051.028l-1.074.42-2.4.049A.223.223,0,0,1,716.868,425.019Z" fill="url(#linear-gradient-34)"/>
          </g>
        </g>
      </g>
      <g id="Grupo_91057" data-name="Grupo 91057">
        <g id="Grupo_91055" data-name="Grupo 91055">
          <path id="Trazado_143674" data-name="Trazado 143674" d="M689.351,391.6l-14.826.491c-2.876.467-4.957,2.6-4.957,5.091V410.8c0,2.864,2.734,5.183,6.1,5.183h13.356c3.372,0,6.1-2.319,6.1-5.183V398.209C695.136,394.958,693.493,391.589,689.351,391.6Z" fill="url(#linear-gradient-35)"/>
          <path id="Trazado_143675" data-name="Trazado 143675" d="M689.023,392.58l-13.861.446c-2.689.427-4.637,2.372-4.637,4.637v12.41c0,2.607,2.556,4.721,5.708,4.721H688.72c3.153,0,5.707-2.114,5.707-4.721V398.61C694.432,395.645,692.9,392.579,689.023,392.58Z" fill="#fff" opacity="0.89" style="isolation: isolate"/>
        </g>
        <g id="Grupo_91056" data-name="Grupo 91056">
          <path id="Trazado_143676" data-name="Trazado 143676" d="M677.735,409.236l-11.251,10.779a1.122,1.122,0,0,0-.033,1.586h0c.02.021.04.041.061.061l.08.068a1.042,1.042,0,0,0,1.471-.083h0l10.358-11.75Z" fill="url(#linear-gradient-36)"/>
          <ellipse id="Elipse_4566" data-name="Elipse 4566" cx="7.227" cy="7.096" rx="7.227" ry="7.096" transform="translate(673.125 400.01) rotate(-23.777)" fill="#bddefb"/>
          <path id="Trazado_143677" data-name="Trazado 143677" d="M679.416,396.364a7.9,7.9,0,1,0,10.542,3.986A7.97,7.97,0,0,0,679.416,396.364Zm5.9,13.391a6.739,6.739,0,1,1-5.432-12.332h0a6.739,6.739,0,1,1,5.434,12.332Z" fill="url(#linear-gradient-37)"/>
        </g>
      </g>
      <g id="Grupo_91060" data-name="Grupo 91060">
        <g id="Grupo_91058" data-name="Grupo 91058">
          <path id="Trazado_143678" data-name="Trazado 143678" d="M538.543,437.627l-14.826.491c-2.877.468-4.957,2.6-4.957,5.091v13.625c0,2.864,2.734,5.182,6.1,5.182h13.357c3.372,0,6.1-2.318,6.1-5.182V444.246C544.327,440.992,542.688,437.62,538.543,437.627Z" fill="url(#linear-gradient-38)"/>
          <path id="Trazado_143679" data-name="Trazado 143679" d="M538.215,438.614l-13.86.448c-2.69.426-4.637,2.371-4.637,4.637v12.41c0,2.607,2.555,4.721,5.706,4.721h12.487c3.152,0,5.707-2.114,5.707-4.721V444.648C543.623,441.679,542.09,438.613,538.215,438.614Z" fill="#fff" opacity="0.89" style="isolation: isolate"/>
        </g>
        <g id="Grupo_91059" data-name="Grupo 91059">
          <path id="Trazado_143680" data-name="Trazado 143680" d="M531.433,457.782a8.238,8.238,0,1,1,8.238-8.238A8.245,8.245,0,0,1,531.433,457.782Zm0-15.1a6.857,6.857,0,1,0,6.857,6.858A6.865,6.865,0,0,0,531.433,442.687Z" fill="url(#linear-gradient-39)"/>
          <path id="Trazado_143681" data-name="Trazado 143681" d="M528.855,452.716v-5.922a.818.818,0,0,1,.822-.814.827.827,0,0,1,.411.113l4.991,2.96a.819.819,0,0,1,0,1.4l-4.991,2.961a.819.819,0,0,1-1.12-.292A.8.8,0,0,1,528.855,452.716Z" fill-rule="evenodd" fill="url(#linear-gradient-40)"/>
        </g>
      </g>
      <g id="Grupo_91062" data-name="Grupo 91062">
        <g id="Grupo_91061" data-name="Grupo 91061">
          <path id="Trazado_143682" data-name="Trazado 143682" d="M700.419,445.977l-14.825.491c-2.877.468-4.956,2.6-4.956,5.091v13.626c0,2.864,2.733,5.183,6.1,5.183H700.1c3.372,0,6.106-2.319,6.106-5.183V452.6C706.2,449.343,704.565,445.976,700.419,445.977Z" fill="url(#linear-gradient-41)"/>
          <path id="Trazado_143683" data-name="Trazado 143683" d="M700.093,446.964l-13.861.447c-2.69.426-4.637,2.372-4.637,4.637v12.41c0,2.607,2.555,4.721,5.707,4.721H699.79c3.151,0,5.707-2.114,5.707-4.721V452.992C705.5,450.029,703.968,446.963,700.093,446.964Z" fill="#fff" opacity="0.89" style="isolation: isolate"/>
        </g>
        <path id="Trazado_143684" data-name="Trazado 143684" d="M685.412,458.724c-.546-3.219.613-5.008,1.688-5.942,2.02-1.757,5.623-2.164,9.178-1.036,3.484,1.106,5.941,4.31,5.476,7.139-.185,1.123-1.138,3.577-5.916,3.965a23.521,23.521,0,0,0,3.609,1.426.482.482,0,0,1-.118.947c-.14,0-.318.005-.527.005C695.831,465.231,686.438,464.746,685.412,458.724Zm13.8,6.386.1-.754-5.169-2.323c3.939.083,6.4-1.126,6.757-3.289.39-2.381-1.845-5.207-4.884-6.172-2.682-.852-6.3-.916-8.345.864-1.317,1.146-1.79,2.877-1.4,5.143.761,4.464,7,5.505,10.689,5.728a33.266,33.266,0,0,1-3.032-1.461L692.415,462Z" fill="url(#linear-gradient-42)"/>
      </g>
      <g id="Grupo_91066" data-name="Grupo 91066">
        <g id="Grupo_91063" data-name="Grupo 91063">
          <path id="Trazado_143685" data-name="Trazado 143685" d="M519.479,482.294l-14.826.49c-2.876.468-4.957,2.6-4.957,5.092V501.5c0,2.864,2.734,5.182,6.1,5.182h13.357c3.372,0,6.1-2.318,6.1-5.182V488.913C525.264,485.659,523.625,482.293,519.479,482.294Z" fill="url(#linear-gradient-43)"/>
          <path id="Trazado_143686" data-name="Trazado 143686" d="M519.152,483.281l-13.861.446c-2.689.427-4.636,2.372-4.636,4.637v12.408c0,2.607,2.555,4.72,5.707,4.72h12.487c3.153,0,5.707-2.114,5.707-4.72V489.309C524.56,486.345,523.027,483.28,519.152,483.281Z" fill="#fff" opacity="0.89" style="isolation: isolate"/>
        </g>
        <g id="Grupo_91065" data-name="Grupo 91065">
          <circle id="Elipse_4567" data-name="Elipse 4567" cx="8.397" cy="8.397" r="8.397" transform="translate(504.084 486.212)" fill="url(#linear-gradient-44)"/>
          <g id="Grupo_91064" data-name="Grupo 91064">
            <path id="Trazado_143687" data-name="Trazado 143687" d="M515.431,490.391a2.784,2.784,0,1,1-5.516,0,2.629,2.629,0,0,1,2.654-2.606h.1a2.631,2.631,0,0,1,2.754,2.5C515.428,490.322,515.43,490.358,515.431,490.391Z" fill="url(#linear-gradient-45)"/>
            <path id="Trazado_143688" data-name="Trazado 143688" d="M509.255,499.421h6.731a1.63,1.63,0,0,0,1.552-1.133l.362-1.132a1.628,1.628,0,0,0-.983-2.026,12.55,12.55,0,0,0-8.474.092,1.621,1.621,0,0,0-1.04,1.967l.278,1.029A1.627,1.627,0,0,0,509.255,499.421Z" fill="url(#linear-gradient-46)"/>
          </g>
        </g>
      </g>
      <g id="Grupo_91069" data-name="Grupo 91069">
        <g id="Grupo_91067" data-name="Grupo 91067">
          <path id="Trazado_143689" data-name="Trazado 143689" d="M734.245,479.947l-14.826.491c-2.877.469-4.956,2.605-4.956,5.091v13.625c0,2.864,2.733,5.182,6.1,5.182h13.354c3.372,0,6.1-2.318,6.1-5.182V486.566C740.03,483.317,738.391,479.946,734.245,479.947Z" fill="url(#linear-gradient-47)"/>
          <path id="Trazado_143690" data-name="Trazado 143690" d="M733.918,480.934l-13.861.448c-2.69.426-4.637,2.371-4.637,4.637v12.41c0,2.607,2.555,4.721,5.707,4.721h12.487c3.152,0,5.707-2.114,5.707-4.721V486.965C739.326,484,737.794,480.933,733.918,480.934Z" fill="#fff" opacity="0.89" style="isolation: isolate"/>
        </g>
        <circle id="Elipse_4568" data-name="Elipse 4568" cx="8.399" cy="8.399" r="8.399" transform="translate(718.859 483.52)" fill="url(#linear-gradient-48)"/>
        <g id="Grupo_91068" data-name="Grupo 91068">
          <path id="Trazado_143691" data-name="Trazado 143691" d="M733.228,487.543H722.265a.487.487,0,0,0-.486.488h0a.486.486,0,0,0,.486.485h10.963a.486.486,0,1,0,0-.973Z" fill="url(#linear-gradient-49)"/>
          <path id="Trazado_143692" data-name="Trazado 143692" d="M732.224,489.854h-9.888a.487.487,0,0,0,0,.974h9.888a.488.488,0,0,0,.487-.486h0a.487.487,0,0,0-.487-.487h0Z" fill="url(#linear-gradient-50)"/>
          <path id="Trazado_143693" data-name="Trazado 143693" d="M731.077,492.186h-8.812a.486.486,0,0,0,0,.973h8.812a.486.486,0,0,0,.487-.485h0A.49.49,0,0,0,731.077,492.186Z" fill="url(#linear-gradient-51)"/>
          <path id="Trazado_143694" data-name="Trazado 143694" d="M730.205,494.238H722.3a.486.486,0,0,0,0,.973h7.907a.486.486,0,0,0,0-.973Z" fill="url(#linear-gradient-52)"/>
          <path id="Trazado_143695" data-name="Trazado 143695" d="M729.107,496.549h-6.736a.488.488,0,0,0-.488.486h0a.487.487,0,0,0,.488.487h6.736a.487.487,0,0,0,.487-.487h0a.488.488,0,0,0-.486-.487Z" fill="url(#linear-gradient-53)"/>
        </g>
      </g>
      <g id="Grupo_91072" data-name="Grupo 91072">
        <g id="Grupo_91070" data-name="Grupo 91070">
          <path id="Trazado_143696" data-name="Trazado 143696" d="M580.061,405.34l-14.825.492c-2.876.468-4.957,2.6-4.957,5.09v13.625c0,2.864,2.734,5.182,6.1,5.182h13.357c3.372,0,6.1-2.318,6.1-5.182V411.96C585.847,408.707,584.207,405.34,580.061,405.34Z" fill="url(#linear-gradient-54)"/>
          <path id="Trazado_143697" data-name="Trazado 143697" d="M579.735,406.329l-13.861.448c-2.69.425-4.637,2.371-4.637,4.636v12.411c0,2.607,2.555,4.721,5.708,4.721h12.487c3.152,0,5.707-2.114,5.707-4.721V412.36C585.143,409.394,583.61,406.328,579.735,406.329Z" fill="#fff" opacity="0.89" style="isolation: isolate"/>
        </g>
        <circle id="Elipse_4569" data-name="Elipse 4569" cx="8.395" cy="8.395" r="8.395" transform="translate(564.676 408.924)" fill="url(#linear-gradient-55)"/>
        <g id="Grupo_91071" data-name="Grupo 91071">
          <path id="Trazado_143698" data-name="Trazado 143698" d="M579.046,412.936H568.083a.487.487,0,1,0,0,.974h10.963a.487.487,0,0,0,0-.974Z" fill="url(#linear-gradient-56)"/>
          <path id="Trazado_143699" data-name="Trazado 143699" d="M578.04,415.248h-9.887a.487.487,0,0,0-.487.486h0a.487.487,0,0,0,.487.486h9.887a.486.486,0,1,0,0-.972Z" fill="url(#linear-gradient-57)"/>
          <path id="Trazado_143700" data-name="Trazado 143700" d="M576.893,417.582h-8.812a.487.487,0,0,0-.487.486h0a.486.486,0,0,0,.486.487h8.813a.486.486,0,0,0,.487-.485h0a.487.487,0,0,0-.485-.487h0Z" fill="url(#linear-gradient-58)"/>
          <path id="Trazado_143701" data-name="Trazado 143701" d="M576.022,419.632h-7.907a.487.487,0,0,0,0,.973h7.907a.487.487,0,0,0,0-.973Z" fill="url(#linear-gradient-59)"/>
          <path id="Trazado_143702" data-name="Trazado 143702" d="M574.921,421.943h-6.736a.486.486,0,1,0,0,.973h6.737a.487.487,0,0,0,.487-.487h0A.488.488,0,0,0,574.921,421.943Z" fill="url(#linear-gradient-60)"/>
        </g>
      </g>
      <g id="Grupo_91076" data-name="Grupo 91076">
        <g id="Grupo_91073" data-name="Grupo 91073">
          <path id="Trazado_143703" data-name="Trazado 143703" d="M573.112,506.5l-14.826.492c-2.876.468-4.956,2.6-4.956,5.091v13.625c0,2.864,2.733,5.182,6.1,5.182h13.357c3.372,0,6.1-2.318,6.1-5.182V513.124C578.9,509.869,577.258,506.5,573.112,506.5Z" fill="url(#linear-gradient-61)"/>
          <path id="Trazado_143704" data-name="Trazado 143704" d="M572.785,507.491l-13.861.447c-2.69.427-4.637,2.372-4.637,4.637v12.41c0,2.607,2.555,4.721,5.707,4.721h12.487c3.153,0,5.707-2.114,5.707-4.721V513.522C578.193,510.555,576.661,507.49,572.785,507.491Z" fill="#fff" opacity="0.89" style="isolation: isolate"/>
        </g>
        <g id="Grupo_91075" data-name="Grupo 91075">
          <circle id="Elipse_4570" data-name="Elipse 4570" cx="8.309" cy="8.309" r="8.309" transform="translate(557.902 510.339)" fill="url(#linear-gradient-62)"/>
          <g id="Grupo_91074" data-name="Grupo 91074">
            <rect id="Rectángulo_49852" data-name="Rectángulo 49852" width="2.183" height="6.912" rx="0.338" transform="translate(562.013 515.5)" fill="url(#linear-gradient-63)"/>
            <path id="Trazado_143705" data-name="Trazado 143705" d="M568.958,515.5h-1.369v-1.655a.813.813,0,0,0-.726-.889.928.928,0,0,0-.129,0H566.7a.94.94,0,0,0-.973.9v.029l-.481,1.659c-.214,0-.566.153-.566.368v6.36c0,.214.531.5.745.5h3.533a1.53,1.53,0,0,0,1.421-1.568v-4.223a1.45,1.45,0,0,0-1.411-1.484Z" fill="url(#linear-gradient-64)"/>
          </g>
        </g>
      </g>
      <g id="Grupo_91079" data-name="Grupo 91079">
        <g id="Grupo_91077" data-name="Grupo 91077">
          <path id="Trazado_143706" data-name="Trazado 143706" d="M724.441,514.8l-14.826.49c-2.876.468-4.957,2.605-4.957,5.092V534c0,2.864,2.734,5.182,6.1,5.182H724.12c3.372,0,6.1-2.318,6.1-5.182V521.413C730.223,518.161,728.584,514.8,724.441,514.8Z" fill="url(#linear-gradient-65)"/>
          <path id="Trazado_143707" data-name="Trazado 143707" d="M724.111,515.784l-13.861.446c-2.689.427-4.637,2.372-4.637,4.637v12.41c0,2.607,2.556,4.72,5.708,4.72h12.487c3.153,0,5.707-2.114,5.707-4.72V521.814C729.519,518.849,727.987,515.783,724.111,515.784Z" fill="#fff" opacity="0.89" style="isolation: isolate"/>
        </g>
        <g id="Grupo_91078" data-name="Grupo 91078">
          <circle id="Elipse_4571" data-name="Elipse 4571" cx="8.309" cy="8.309" r="8.309" transform="translate(709.131 518.581)" fill="url(#linear-gradient-66)"/>
          <path id="Trazado_143708" data-name="Trazado 143708" d="M722.9,523.168a.054.054,0,0,0-.057.007l-5.087,4.238a1.191,1.191,0,0,1-1.538-.039l-3.783-3.508a.079.079,0,0,0-.112.007h0a.677.677,0,0,0-.171.44V530.4a.644.644,0,0,0,.644.646h9.42a.666.666,0,0,0,.681-.628l.361-6.623A.669.669,0,0,0,722.9,523.168Z" fill="url(#linear-gradient-67)"/>
          <path id="Trazado_143709" data-name="Trazado 143709" d="M717.754,526.936l.136-.112,1.463-1.219,2.058-1.713.852-.709c.077-.064.149-.136.223-.2.044-.04.332-.282.28-.341a.074.074,0,0,0-.047-.018,5.208,5.208,0,0,0-.892.026l-.934.052-2.393.136-2.613.146-2.127.117-.661.037c-.153.009-.842.01-.64.278a2.174,2.174,0,0,0,.288.254l.5.466,1.909,1.773,1.062.989A1.19,1.19,0,0,0,717.754,526.936Z" fill="url(#linear-gradient-68)"/>
        </g>
      </g>
    </g>
    <g id="Grupo_91082" data-name="Grupo 91082">
      <circle id="Elipse_4572" data-name="Elipse 4572" cx="31.605" cy="31.605" r="31.605" transform="translate(588.383 452.2)" fill="#fff"/>
      <g id="Grupo_91081" data-name="Grupo 91081">
        <path id="Trazado_143710" data-name="Trazado 143710" d="M603.275,483.856l9.137-4.763v2.029a.828.828,0,0,1-.116.423.948.948,0,0,1-.381.329l-4.186,2.145a3.824,3.824,0,0,1-.56.237c-.2.067-.406.126-.628.179.222.054.432.113.628.179a3.709,3.709,0,0,1,.56.236l4.186,2.157a.94.94,0,0,1,.381.329.815.815,0,0,1,.116.42v2.03l-9.137-4.773Z" fill="url(#linear-gradient-69)"/>
        <path id="Trazado_143711" data-name="Trazado 143711" d="M617.568,492.242a1.706,1.706,0,0,1-.265.461,1.657,1.657,0,0,1-.369.33,1.832,1.832,0,0,1-.439.2,1.522,1.522,0,0,1-.449.068h-1.2l6.734-17.23a1.62,1.62,0,0,1,.565-.744,1.509,1.509,0,0,1,.886-.26h1.211Z" fill="url(#linear-gradient-70)"/>
        <path id="Trazado_143712" data-name="Trazado 143712" d="M626.624,489.784v-2.03a.788.788,0,0,1,.115-.42.931.931,0,0,1,.38-.329l4.187-2.157a5.546,5.546,0,0,1,1.188-.416c-.223-.053-.432-.113-.628-.178a3.719,3.719,0,0,1-.559-.237l-4.187-2.146a.927.927,0,0,1-.381-.329.793.793,0,0,1-.115-.422v-2.029l9.138,4.762v1.155Z" fill="url(#linear-gradient-71)"/>
      </g>
    </g>
  </g>
</svg>
