<svg xmlns="http://www.w3.org/2000/svg" width="103" height="103" viewBox="0 0 103 103">
  <g id="Grupo_102213" data-name="Grupo 102213" transform="translate(-206.156 -206.156)">
    <g id="Grupo_102208" data-name="Grupo 102208">
      <g id="Grupo_102198" data-name="Grupo 102198">
        <path id="Trazado_163608" data-name="Trazado 163608" d="M306.823,211.107v16.5H207.806v-16.5a3.311,3.311,0,0,1,3.3-3.3h92.415A3.311,3.311,0,0,1,306.823,211.107Z" fill="#2f94ff"/>
      </g>
      <g id="Grupo_102199" data-name="Grupo 102199">
        <path id="Trazado_163609" data-name="Trazado 163609" d="M303.522,277.118H211.107a3.3,3.3,0,0,1-3.3-3.3V227.61h99.017v46.207A3.3,3.3,0,0,1,303.522,277.118Z" fill="#e6e9ed"/>
      </g>
      <g id="Grupo_102200" data-name="Grupo 102200">
        <path id="Trazado_163610" data-name="Trazado 163610" d="M260.615,234.211h39.606v19.8H260.615Z" fill="#fcd770"/>
      </g>
      <g id="Grupo_102201" data-name="Grupo 102201">
        <path id="Trazado_163611" data-name="Trazado 163611" d="M214.407,260.615h19.8v9.9h-19.8Z" fill="#ff826e"/>
      </g>
      <g id="Grupo_102202" data-name="Grupo 102202">
        <path id="Trazado_163612" data-name="Trazado 163612" d="M240.812,214.407h6.6v6.6h-6.6Z" fill="#e6e9ed"/>
      </g>
      <g id="Grupo_102203" data-name="Grupo 102203">
        <path id="Trazado_163613" data-name="Trazado 163613" d="M227.61,214.407h6.6v6.6h-6.6Z" fill="#e6e9ed"/>
      </g>
      <g id="Grupo_102204" data-name="Grupo 102204">
        <path id="Trazado_163614" data-name="Trazado 163614" d="M214.407,214.407h6.6v6.6h-6.6Z" fill="#e6e9ed"/>
      </g>
      <g id="Grupo_102205" data-name="Grupo 102205">
        <path id="Trazado_163615" data-name="Trazado 163615" d="M283.719,260.615H244.112a3.31,3.31,0,0,0-3.3,3.3v33.006a3.31,3.31,0,0,0,3.3,3.3h42.907V263.915A3.31,3.31,0,0,0,283.719,260.615Z" fill="#ffeaa7"/>
      </g>
      <g id="Grupo_102206" data-name="Grupo 102206">
        <circle id="Elipse_5347" data-name="Elipse 5347" cx="13.202" cy="13.202" r="13.202" transform="translate(250.713 267.216)" fill="#69d6f4"/>
      </g>
      <g id="Grupo_102207" data-name="Grupo 102207">
        <path id="Trazado_163616" data-name="Trazado 163616" d="M287.019,284.263l16.5,2.756-4.951,4.951,8.252,8.251-6.6,6.6-8.251-8.252-4.951,4.951-.544-3.3-2.756-16.5Z" fill="#ff826e"/>
      </g>
    </g>
    <g id="Grupo_102209" data-name="Grupo 102209">
      <path id="Trazado_163617" data-name="Trazado 163617" d="M263.915,265.566a14.852,14.852,0,1,0,14.853,14.852A14.871,14.871,0,0,0,263.915,265.566Zm-2.622,19.8a18.529,18.529,0,0,1-.6-3.3h6.438a18.53,18.53,0,0,1-.6,3.3Zm3.974,3.3a18.716,18.716,0,0,1-1.35,2.3,18.709,18.709,0,0,1-1.351-2.3Zm-4.571-9.9a18.545,18.545,0,0,1,.6-3.3h5.243a18.546,18.546,0,0,1,.6,3.3Zm1.87-6.6a18.649,18.649,0,0,1,1.349-2.3,18.275,18.275,0,0,1,1.35,2.3Zm-3.636,0h-3.084a11.551,11.551,0,0,1,4.406-2.7A21.81,21.81,0,0,0,258.93,272.167Zm-1.043,3.3a21.678,21.678,0,0,0-.51,3.3H252.5a11.45,11.45,0,0,1,1-3.3Zm-.51,6.6a21.678,21.678,0,0,0,.51,3.3h-4.393a11.431,11.431,0,0,1-1-3.3Zm1.553,6.6a21.863,21.863,0,0,0,1.322,2.694,11.546,11.546,0,0,1-4.406-2.694Zm9.971,0h3.084a11.561,11.561,0,0,1-4.406,2.694,21.863,21.863,0,0,0,1.322-2.694Zm1.043-3.3a21.678,21.678,0,0,0,.51-3.3h4.881a11.432,11.432,0,0,1-1,3.3Zm.51-6.6a21.678,21.678,0,0,0-.51-3.3h4.393a11.451,11.451,0,0,1,1,3.3Zm-1.553-6.6a21.81,21.81,0,0,0-1.322-2.7,11.536,11.536,0,0,1,4.406,2.7Z"/>
      <path id="Trazado_163618" data-name="Trazado 163618" d="M300.9,291.97l6.051-6.051L288.67,282.87v-4.1h14.852a4.957,4.957,0,0,0,4.951-4.951v-62.71a4.957,4.957,0,0,0-4.951-4.951H211.107a4.957,4.957,0,0,0-4.951,4.951v62.71a4.957,4.957,0,0,0,4.951,4.951h28.054v18.153a4.958,4.958,0,0,0,4.951,4.951h40.96l.847,5.084,6.051-6.051,8.251,8.251,8.935-8.935Zm-89.8-82.513h92.415a1.653,1.653,0,0,1,1.65,1.65v14.852H209.457V211.107A1.653,1.653,0,0,1,211.107,209.457Zm0,66.01a1.653,1.653,0,0,1-1.65-1.65V229.26h95.715v44.557a1.653,1.653,0,0,1-1.65,1.65H288.67V263.915a4.957,4.957,0,0,0-4.951-4.95H244.112a4.957,4.957,0,0,0-4.951,4.95v11.552Zm33.005,23.1a1.653,1.653,0,0,1-1.65-1.65V263.915a1.653,1.653,0,0,1,1.65-1.65h39.607a1.653,1.653,0,0,1,1.65,1.65v18.406l-3.657-.609,2.809,16.859Zm47.858-2.333-3.85,3.85-2.395-14.363,14.363,2.395-3.85,3.85,8.251,8.251-4.268,4.268Z"/>
      <path id="Trazado_163619" data-name="Trazado 163619" d="M222.659,212.757h-9.9v9.9h9.9Zm-3.3,6.6h-3.3v-3.3h3.3Z"/>
      <path id="Trazado_163620" data-name="Trazado 163620" d="M235.861,212.757h-9.9v9.9h9.9Zm-3.3,6.6h-3.3v-3.3h3.3Z"/>
      <path id="Trazado_163621" data-name="Trazado 163621" d="M249.063,212.757h-9.9v9.9h9.9Zm-3.3,6.6h-3.3v-3.3h3.3Z"/>
      <path id="Trazado_163622" data-name="Trazado 163622" d="M301.872,232.56H258.965v23.1h42.907Zm-3.3,19.8H262.265v-16.5h36.306Z"/>
      <path id="Trazado_163623" data-name="Trazado 163623" d="M212.757,232.56h3.3v3.3h-3.3Z"/>
      <path id="Trazado_163624" data-name="Trazado 163624" d="M219.358,232.56h36.306v3.3H219.358Z"/>
      <path id="Trazado_163625" data-name="Trazado 163625" d="M212.757,239.161h42.907v3.3H212.757Z"/>
      <path id="Trazado_163626" data-name="Trazado 163626" d="M212.757,245.763h3.3v3.3h-3.3Z"/>
      <path id="Trazado_163627" data-name="Trazado 163627" d="M219.358,245.763h3.3v3.3h-3.3Z"/>
      <path id="Trazado_163628" data-name="Trazado 163628" d="M225.959,245.763h29.705v3.3H225.959Z"/>
      <path id="Trazado_163629" data-name="Trazado 163629" d="M252.364,252.364h3.3v3.3h-3.3Z"/>
      <path id="Trazado_163630" data-name="Trazado 163630" d="M212.757,252.364h36.306v3.3H212.757Z"/>
      <path id="Trazado_163631" data-name="Trazado 163631" d="M212.757,272.167h23.1v-13.2h-23.1Zm3.3-9.9h16.5v6.6h-16.5Z"/>
      <path id="Trazado_163632" data-name="Trazado 163632" d="M245.763,265.566h3.3v3.3h-3.3Z"/>
      <path id="Trazado_163633" data-name="Trazado 163633" d="M278.768,265.566h3.3v3.3h-3.3Z"/>
      <path id="Trazado_163634" data-name="Trazado 163634" d="M245.763,291.97h3.3v3.3h-3.3Z"/>
    </g>
  </g>
</svg>
