<svg xmlns="http://www.w3.org/2000/svg" xmlns:xlink="http://www.w3.org/1999/xlink" width="134" height="132" viewBox="0 0 134 132">
  <defs>
    <filter id="Rectángulo_32698" x="0" y="0" width="134" height="132" filterUnits="userSpaceOnUse">
      <feOffset dy="2" input="SourceAlpha"/>
      <feGaussianBlur stdDeviation="1" result="blur"/>
      <feFlood flood-opacity="0.161"/>
      <feComposite operator="in" in2="blur"/>
      <feComposite in="SourceGraphic"/>
    </filter>
  </defs>
  <g id="Grupo_102180" data-name="Grupo 102180" transform="translate(-1210 -1402)">
    <g transform="matrix(1, 0, 0, 1, 1210, 1402)" filter="url(#Rectángulo_32698)">
      <rect id="Rectángulo_32698-2" data-name="Rectángulo 32698" width="128" height="126" rx="10" transform="translate(3 1)" fill="#fff"/>
    </g>
    <g id="Grupo_102142" data-name="Grupo 102142" transform="translate(1237 1436)">
      <path id="Trazado_163424" data-name="Trazado 163424" d="M2488.688,122.443v46.364a5.047,5.047,0,0,1-5.047,5.047h-66.176a5.047,5.047,0,0,1-5.047-5.047V122.443a5.047,5.047,0,0,1,5.047-5.047h66.176A5.047,5.047,0,0,1,2488.688,122.443Z" transform="translate(-2411.03 -116.049)" fill="#ccc"/>
      <path id="Trazado_163425" data-name="Trazado 163425" d="M2610.638,122.444v46.364a5.047,5.047,0,0,1-5.047,5.047h-40.544l15.829-56.458h24.715A5.048,5.048,0,0,1,2610.638,122.444Z" transform="translate(-2532.979 -116.05)" fill="#e6e6e6"/>
      <rect id="Rectángulo_24740" data-name="Rectángulo 24740" width="76.27" height="42.611" transform="translate(1.388 8.271)" fill="#9bd7f4"/>
      <path id="Trazado_163426" data-name="Trazado 163426" d="M2618.355,151.844v42.61H2574.7l11.947-42.61Z" transform="translate(-2540.697 -143.573)" fill="#c8edfc"/>
      <path id="Trazado_163427" data-name="Trazado 163427" d="M2478.123,110.694h-66.176a6.443,6.443,0,0,0-6.435,6.436v6.243a1.388,1.388,0,0,0,2.776,0V117.13a3.663,3.663,0,0,1,3.659-3.659h66.177a3.663,3.663,0,0,1,3.658,3.659v41.222a1.388,1.388,0,0,0,2.776,0V117.13A6.443,6.443,0,0,0,2478.123,110.694Z" transform="translate(-2405.512 -110.694)"/>
      <path id="Trazado_163428" data-name="Trazado 163428" d="M2483.171,228.317a1.388,1.388,0,0,0-1.388,1.388,3.663,3.663,0,0,1-3.658,3.659h-66.177a3.663,3.663,0,0,1-3.659-3.659V194.952a1.388,1.388,0,0,0-2.776,0v34.753a6.443,6.443,0,0,0,6.435,6.436h66.176a6.443,6.443,0,0,0,6.435-6.436A1.387,1.387,0,0,0,2483.171,228.317Z" transform="translate(-2405.512 -176.907)"/>
      <path id="Trazado_163429" data-name="Trazado 163429" d="M2430.218,359.9h66.9a1.388,1.388,0,1,0,0-2.776h-66.9a1.388,1.388,0,0,0,0,2.776Z" transform="translate(-2424.143 -307.593)"/>
      <path id="Trazado_163430" data-name="Trazado 163430" d="M2498.5,146.53a1.388,1.388,0,0,0-1.388-1.388h-66.9a1.388,1.388,0,0,0,0,2.776h66.9A1.388,1.388,0,0,0,2498.5,146.53Z" transform="translate(-2424.143 -138.218)"/>
      <path id="Trazado_163431" data-name="Trazado 163431" d="M2464.934,173.567a2.92,2.92,0,0,0-2.916-2.916h-2.139a2.92,2.92,0,0,0-2.916,2.916v4.619a2.92,2.92,0,0,0,2.916,2.917h2.14a2.92,2.92,0,0,0,2.916-2.917v-4.619Zm-2.776,4.619a.141.141,0,0,1-.141.14h-2.139a.14.14,0,0,1-.14-.14v-4.619a.14.14,0,0,1,.14-.14h2.14a.141.141,0,0,1,.14.14v4.619Z" transform="translate(-2446.62 -158.599)"/>
      <path id="Trazado_163432" data-name="Trazado 163432" d="M2552.112,181.1h2.139a2.92,2.92,0,0,0,2.916-2.917v-4.619a2.92,2.92,0,0,0-2.916-2.916h-2.139a2.92,2.92,0,0,0-2.917,2.916v4.619A2.92,2.92,0,0,0,2552.112,181.1Zm-.14-7.535a.14.14,0,0,1,.14-.14h2.139a.14.14,0,0,1,.14.14v4.619a.14.14,0,0,1-.14.14h-2.139a.14.14,0,0,1-.14-.14Z" transform="translate(-2520.314 -158.599)"/>
      <path id="Trazado_163433" data-name="Trazado 163433" d="M2670.108,173.567a2.92,2.92,0,0,0-2.917-2.916h-2.139a2.92,2.92,0,0,0-2.917,2.916v4.619a2.92,2.92,0,0,0,2.917,2.917h2.139a2.92,2.92,0,0,0,2.917-2.917Zm-2.777,4.619a.14.14,0,0,1-.14.14h-2.139a.141.141,0,0,1-.14-.14v-4.619a.141.141,0,0,1,.14-.14h2.139a.14.14,0,0,1,.14.14Z" transform="translate(-2610.554 -158.599)"/>
      <path id="Trazado_163434" data-name="Trazado 163434" d="M2600.663,181.1a2.92,2.92,0,0,0,2.916-2.917v-4.619a2.92,2.92,0,0,0-2.916-2.916h-2.139a2.92,2.92,0,0,0-2.917,2.916v4.619a2.92,2.92,0,0,0,2.917,2.917Zm-2.279-2.917v-4.619a.14.14,0,0,1,.14-.14h2.139a.141.141,0,0,1,.14.14v4.619a.141.141,0,0,1-.14.14h-2.139A.14.14,0,0,1,2598.383,178.186Z" transform="translate(-2557.397 -158.599)"/>
      <path id="Trazado_163435" data-name="Trazado 163435" d="M2507.324,179.714v-7.676a1.388,1.388,0,1,0-2.776,0v7.676a1.388,1.388,0,1,0,2.776,0Z" transform="translate(-2484.641 -158.599)"/>
      <path id="Trazado_163436" data-name="Trazado 163436" d="M2531.409,172.038a1.388,1.388,0,0,0-2.776,0v7.676a1.388,1.388,0,0,0,2.776,0Z" transform="translate(-2503.885 -158.599)"/>
      <path id="Trazado_163437" data-name="Trazado 163437" d="M2711.7,181.1a1.388,1.388,0,0,0,1.388-1.388v-7.676a1.388,1.388,0,1,0-2.776,0v7.676A1.388,1.388,0,0,0,2711.7,181.1Z" transform="translate(-2649.045 -158.599)"/>
      <path id="Trazado_163438" data-name="Trazado 163438" d="M2644.2,172.038a1.388,1.388,0,1,0-2.776,0v7.676a1.388,1.388,0,1,0,2.776,0Z" transform="translate(-2594.009 -158.599)"/>
      <path id="Trazado_163439" data-name="Trazado 163439" d="M2736.29,172.038a1.388,1.388,0,0,0-2.776,0v7.676a1.388,1.388,0,0,0,2.776,0Z" transform="translate(-2667.585 -158.599)"/>
      <path id="Trazado_163440" data-name="Trazado 163440" d="M2456.962,300.967a2.92,2.92,0,0,0,2.916,2.916h2.14a2.92,2.92,0,0,0,2.916-2.916v-4.619a2.92,2.92,0,0,0-2.916-2.917h-2.14a2.92,2.92,0,0,0-2.916,2.917Zm2.776-4.619a.141.141,0,0,1,.14-.14h2.139a.141.141,0,0,1,.14.14v4.619a.141.141,0,0,1-.14.141h-2.14a.14.14,0,0,1-.14-.141v-4.619Z" transform="translate(-2446.62 -256.701)"/>
      <path id="Trazado_163441" data-name="Trazado 163441" d="M2552.112,303.885h2.139a2.92,2.92,0,0,0,2.916-2.917v-4.619a2.92,2.92,0,0,0-2.916-2.916h-2.139a2.92,2.92,0,0,0-2.917,2.916v4.619A2.92,2.92,0,0,0,2552.112,303.885Zm-.14-7.535a.141.141,0,0,1,.14-.14h2.139a.141.141,0,0,1,.14.14v4.619a.141.141,0,0,1-.14.141h-2.139a.141.141,0,0,1-.14-.141Z" transform="translate(-2520.314 -256.702)"/>
      <path id="Trazado_163442" data-name="Trazado 163442" d="M2665.053,303.885h2.139a2.92,2.92,0,0,0,2.916-2.917v-4.619a2.92,2.92,0,0,0-2.916-2.916h-2.139a2.92,2.92,0,0,0-2.916,2.916v4.619A2.92,2.92,0,0,0,2665.053,303.885Zm-.14-7.535a.14.14,0,0,1,.14-.14h2.139a.141.141,0,0,1,.14.14v4.619a.141.141,0,0,1-.14.141h-2.139a.14.14,0,0,1-.14-.141Z" transform="translate(-2610.555 -256.702)"/>
      <path id="Trazado_163443" data-name="Trazado 163443" d="M2712.721,293.433h-2.139a2.92,2.92,0,0,0-2.916,2.916v4.619a2.92,2.92,0,0,0,2.916,2.917h2.139a2.92,2.92,0,0,0,2.916-2.917v-4.619A2.92,2.92,0,0,0,2712.721,293.433Zm.14,7.535a.14.14,0,0,1-.14.14h-2.139a.14.14,0,0,1-.14-.14v-4.619a.141.141,0,0,1,.14-.14h2.139a.14.14,0,0,1,.14.14v4.619Z" transform="translate(-2646.932 -256.702)"/>
      <path id="Trazado_163444" data-name="Trazado 163444" d="M2596.994,303.884a1.388,1.388,0,0,0,1.388-1.388V294.82a1.388,1.388,0,0,0-2.776,0V302.5A1.388,1.388,0,0,0,2596.994,303.884Z" transform="translate(-2557.397 -256.701)"/>
      <path id="Trazado_163445" data-name="Trazado 163445" d="M2618.517,294.82V302.5a1.388,1.388,0,0,0,2.776,0V294.82a1.388,1.388,0,0,0-2.776,0Z" transform="translate(-2575.703 -256.701)"/>
      <path id="Trazado_163446" data-name="Trazado 163446" d="M2505.936,293.433a1.388,1.388,0,0,0-1.388,1.388V302.5a1.388,1.388,0,0,0,2.776,0v-7.676A1.388,1.388,0,0,0,2505.936,293.433Z" transform="translate(-2484.641 -256.702)"/>
      <path id="Trazado_163447" data-name="Trazado 163447" d="M2530.021,303.884a1.388,1.388,0,0,0,1.388-1.388V294.82a1.388,1.388,0,0,0-2.776,0V302.5A1.389,1.389,0,0,0,2530.021,303.884Z" transform="translate(-2503.885 -256.701)"/>
      <path id="Trazado_163448" data-name="Trazado 163448" d="M2642.817,332.067a1.387,1.387,0,0,0,1.388-1.388v-.586a1.388,1.388,0,1,0-2.776,0v.586A1.388,1.388,0,0,0,2642.817,332.067Z" transform="translate(-2594.009 -284.884)"/>
      <path id="Trazado_163449" data-name="Trazado 163449" d="M2644.2,294.82a1.388,1.388,0,1,0-2.776,0v3.388a1.388,1.388,0,1,0,2.776,0Z" transform="translate(-2594.009 -256.701)"/>
      <path id="Trazado_163450" data-name="Trazado 163450" d="M2715.637,234.958a2.92,2.92,0,0,0-2.916-2.916h-2.139a2.92,2.92,0,0,0-2.916,2.916v4.619a2.92,2.92,0,0,0,2.916,2.916h2.139a2.92,2.92,0,0,0,2.916-2.916v-4.619Zm-2.776,4.619a.14.14,0,0,1-.14.14h-2.139a.14.14,0,0,1-.14-.14v-4.619a.14.14,0,0,1,.14-.14h2.139a.14.14,0,0,1,.14.14v4.619Z" transform="translate(-2646.932 -207.651)"/>
      <path id="Trazado_163451" data-name="Trazado 163451" d="M2623.4,239.577v-2.912a1.388,1.388,0,1,0-2.776,0v2.912a.141.141,0,0,1-.14.14h-2.139a.141.141,0,0,1-.141-.14v-4.619a.141.141,0,0,1,.141-.14h2.139a1.388,1.388,0,1,0,0-2.776h-2.139a2.92,2.92,0,0,0-2.917,2.916v4.619a2.92,2.92,0,0,0,2.917,2.916h2.139A2.92,2.92,0,0,0,2623.4,239.577Z" transform="translate(-2573.237 -207.651)"/>
      <path id="Trazado_163452" data-name="Trazado 163452" d="M2510.463,239.577v-4.619a2.92,2.92,0,0,0-2.916-2.916h-2.139a2.92,2.92,0,0,0-2.916,2.916v4.619a2.919,2.919,0,0,0,2.916,2.916h2.139A2.919,2.919,0,0,0,2510.463,239.577Zm-5.2,0v-4.619a.141.141,0,0,1,.141-.14h2.139a.141.141,0,0,1,.14.14v4.619a.14.14,0,0,1-.14.14h-2.139A.141.141,0,0,1,2505.267,239.577Z" transform="translate(-2482.999 -207.651)"/>
      <path id="Trazado_163453" data-name="Trazado 163453" d="M2576.993,239.577v-4.619a2.92,2.92,0,0,0-2.916-2.916h-2.139a2.92,2.92,0,0,0-2.917,2.916v4.619a2.92,2.92,0,0,0,2.917,2.916h2.139A2.92,2.92,0,0,0,2576.993,239.577Zm-5.2,0v-4.619a.141.141,0,0,1,.141-.14h2.139a.141.141,0,0,1,.14.14v4.619a.14.14,0,0,1-.14.14h-2.139A.14.14,0,0,1,2571.8,239.577Z" transform="translate(-2536.156 -207.651)"/>
      <path id="Trazado_163454" data-name="Trazado 163454" d="M2687.317,242.494a1.388,1.388,0,0,0,1.388-1.388V233.43a1.388,1.388,0,0,0-2.776,0v7.675A1.388,1.388,0,0,0,2687.317,242.494Z" transform="translate(-2629.565 -207.651)"/>
      <path id="Trazado_163455" data-name="Trazado 163455" d="M2663.231,242.494a1.388,1.388,0,0,0,1.389-1.388V233.43a1.388,1.388,0,0,0-2.776,0v7.675A1.388,1.388,0,0,0,2663.231,242.494Z" transform="translate(-2610.32 -207.651)"/>
      <path id="Trazado_163456" data-name="Trazado 163456" d="M2481.555,242.494a1.388,1.388,0,0,0,1.388-1.388V233.43a1.388,1.388,0,1,0-2.776,0v7.675A1.388,1.388,0,0,0,2481.555,242.494Z" transform="translate(-2465.162 -207.651)"/>
      <path id="Trazado_163457" data-name="Trazado 163457" d="M2549.047,241.105a1.388,1.388,0,0,0,2.776,0V233.43a1.388,1.388,0,0,0-2.776,0Z" transform="translate(-2520.197 -207.651)"/>
      <path id="Trazado_163458" data-name="Trazado 163458" d="M2459.738,241.105V233.43a1.388,1.388,0,1,0-2.776,0v7.675a1.388,1.388,0,1,0,2.776,0Z" transform="translate(-2446.62 -207.651)"/>
    </g>
  </g>
</svg>
