<svg id="Grupo_25951" data-name="Grupo 25951" xmlns="http://www.w3.org/2000/svg" width="81.746" height="108.313" viewBox="0 0 81.746 108.313">
  <path id="Trazado_13039" data-name="Trazado 13039" d="M3749.9,5333.865h62.528a8.928,8.928,0,0,0,8.912-8.893v-89.136a8.928,8.928,0,0,0-8.912-8.892h-45.781l-25.658,25.6v72.423A8.927,8.927,0,0,0,3749.9,5333.865Z" transform="translate(-3740.291 -5226.249)" fill="#df85a8" fill-rule="evenodd"/>
  <path id="Trazado_13040" data-name="Trazado 13040" d="M3745.675,5328.943H3808.2a8.23,8.23,0,0,0,8.214-8.2v-89.136a8.231,8.231,0,0,0-8.214-8.2H3762.71l-25.249,25.2v72.134a8.229,8.229,0,0,0,8.214,8.2Zm62.528,1.393h-62.528a9.626,9.626,0,0,1-9.609-9.589v-72.424h0a.694.694,0,0,1,.2-.493l25.65-25.6a.7.7,0,0,1,.5-.212H3808.2a9.626,9.626,0,0,1,9.609,9.588v89.136a9.624,9.624,0,0,1-9.609,9.589Z" transform="translate(-3736.066 -5222.022)" fill="#013668"/>
  <path id="Trazado_13041" data-name="Trazado 13041" d="M3740.988,5252.55h16.746a8.928,8.928,0,0,0,8.912-8.894v-16.711Z" transform="translate(-3740.291 -5226.25)" fill="#fffffe" fill-rule="evenodd"/>
  <path id="Trazado_13042" data-name="Trazado 13042" d="M3738.448,5247.628h15.063a8.232,8.232,0,0,0,8.214-8.2V5224.4l-23.277,23.228Zm15.063,1.391h-16.746a.7.7,0,0,1-.493-1.188l25.65-25.594a.7.7,0,0,1,1.2.482v16.713a9.624,9.624,0,0,1-9.61,9.587Z" transform="translate(-3736.066 -5222.022)" fill="#013668"/>
  <rect id="Rectángulo_6165" data-name="Rectángulo 6165" width="67.411" height="34.294" rx="5" transform="translate(7.167 49.812)" fill="#fffffe"/>
  <path id="Trazado_13043" data-name="Trazado 13043" d="M3787.127,5569.3h57.981a5.419,5.419,0,0,1,5.413,5.4v24.884a5.418,5.418,0,0,1-5.413,5.4h-57.981a5.418,5.418,0,0,1-5.412-5.4V5574.7a5.419,5.419,0,0,1,5.412-5.4Zm57.981,1.391h-57.981a4.025,4.025,0,0,0-4.017,4.01v24.884a4.027,4.027,0,0,0,4.017,4.008h57.981a4.027,4.027,0,0,0,4.017-4.008V5574.7a4.025,4.025,0,0,0-4.017-4.01Z" transform="translate(-3775.245 -5520.186)" fill="#013668"/>
  <g id="Grupo_25918" data-name="Grupo 25918" transform="translate(21.283 60.449)">
    <path id="Trazado_13044" data-name="Trazado 13044" d="M3895.272,5650.02a4.588,4.588,0,0,1,0,8.445,7.449,7.449,0,0,1-3.075.585h-2.274v3.405h-3.69v-13.021h5.965A7.457,7.457,0,0,1,3895.272,5650.02Zm-1.584,5.636a1.74,1.74,0,0,0,.578-1.4,1.775,1.775,0,0,0-.578-1.415,2.551,2.551,0,0,0-1.714-.5h-2.051v3.814h2.051A2.577,2.577,0,0,0,3893.688,5655.655Z" transform="translate(-3886.232 -5649.435)" fill="#013668"/>
    <path id="Trazado_13045" data-name="Trazado 13045" d="M3981.844,5649.435h6.17a8.65,8.65,0,0,1,3.8.8,6.026,6.026,0,0,1,2.572,2.269,6.942,6.942,0,0,1,0,6.883,6.018,6.018,0,0,1-2.572,2.268,8.637,8.637,0,0,1-3.8.8h-6.17Zm6.021,10.081a3.79,3.79,0,0,0,2.693-.948,3.9,3.9,0,0,0,0-5.246,3.788,3.788,0,0,0-2.693-.948h-2.33v7.142Z" transform="translate(-3968.293 -5649.435)" fill="#013668"/>
    <path id="Trazado_13046" data-name="Trazado 13046" d="M4094.166,5652.279v2.865h5.759v2.845h-5.759v4.465h-3.69v-13.021h10.232v2.845Z" transform="translate(-4061.529 -5649.435)" fill="#013668"/>
  </g>
</svg>
