<svg xmlns="http://www.w3.org/2000/svg" width="81.746" height="108.313" viewBox="0 0 81.746 108.313">
  <g id="Grupo_25955" data-name="Grupo 25955" transform="translate(0.001)">
    <path id="Trazado_13000" data-name="Trazado 13000" d="M6749.31,5324.021h62.527a8.929,8.929,0,0,0,8.913-8.893v-89.135a8.928,8.928,0,0,0-8.913-8.893h-45.78l-25.66,25.6v72.423A8.93,8.93,0,0,0,6749.31,5324.021Z" transform="translate(-6739.7 -5216.405)" fill="#b3aea7" fill-rule="evenodd"/>
    <path id="Trazado_13001" data-name="Trazado 13001" d="M6745.084,5319.1h62.529a8.232,8.232,0,0,0,8.214-8.2v-89.136a8.231,8.231,0,0,0-8.214-8.2h-45.492l-25.25,25.2V5310.9a8.232,8.232,0,0,0,8.213,8.2Zm62.529,1.393h-62.529a9.628,9.628,0,0,1-9.608-9.589v-72.424h0a.694.694,0,0,1,.2-.492l25.649-25.6a.7.7,0,0,1,.5-.212h45.781a9.628,9.628,0,0,1,9.609,9.588V5310.9a9.628,9.628,0,0,1-9.609,9.589Z" transform="translate(-6735.476 -5212.178)" fill="#013668"/>
    <path id="Trazado_13002" data-name="Trazado 13002" d="M6740.4,5242.706h16.748a8.928,8.928,0,0,0,8.912-8.893V5217.1Z" transform="translate(-6739.7 -5216.408)" fill="#fffffe" fill-rule="evenodd"/>
    <path id="Trazado_13003" data-name="Trazado 13003" d="M6737.859,5237.783h15.063a8.23,8.23,0,0,0,8.213-8.2v-15.031l-23.277,23.227Zm15.063,1.393h-16.746a.7.7,0,0,1-.495-1.188l25.651-25.6a.7.7,0,0,1,1.2.484v16.711a9.628,9.628,0,0,1-9.609,9.588Z" transform="translate(-6735.478 -5212.179)" fill="#013668"/>
    <rect id="Rectángulo_6160" data-name="Rectángulo 6160" width="67.411" height="34.294" rx="5" transform="translate(7.047 50.069)" fill="#fffffe"/>
    <path id="Trazado_13004" data-name="Trazado 13004" d="M6786.539,5559.458h57.98a5.419,5.419,0,0,1,5.412,5.4v24.883a5.421,5.421,0,0,1-5.412,5.4h-57.98a5.421,5.421,0,0,1-5.413-5.4v-24.883a5.419,5.419,0,0,1,5.413-5.4Zm57.98,1.393h-57.98a4.025,4.025,0,0,0-4.018,4.008v24.883a4.025,4.025,0,0,0,4.018,4.01h57.98a4.027,4.027,0,0,0,4.018-4.01v-24.883a4.027,4.027,0,0,0-4.018-4.008Z" transform="translate(-6774.656 -5510.343)" fill="#013668"/>
    <g id="Grupo_25908" data-name="Grupo 25908" transform="translate(21.353 60.288)">
      <path id="Trazado_13005" data-name="Trazado 13005" d="M6887.08,5625.2a7.6,7.6,0,0,1-2.422-1.042l1.211-2.716a7.845,7.845,0,0,0,2.031.931,7.76,7.76,0,0,0,2.275.353q2.123,0,2.124-1.059a.878.878,0,0,0-.6-.829,11.19,11.19,0,0,0-1.948-.567,18.644,18.644,0,0,1-2.461-.679,4.153,4.153,0,0,1-1.7-1.163,3.137,3.137,0,0,1-.708-2.158,3.728,3.728,0,0,1,.652-2.147,4.372,4.372,0,0,1,1.948-1.517,8.056,8.056,0,0,1,3.179-.559,11.2,11.2,0,0,1,2.536.289,7.764,7.764,0,0,1,2.2.846l-1.138,2.734a7.614,7.614,0,0,0-3.616-1,3.034,3.034,0,0,0-1.6.326.975.975,0,0,0-.5.846.839.839,0,0,0,.6.781,10.887,10.887,0,0,0,1.921.541,17.645,17.645,0,0,1,2.469.678,4.228,4.228,0,0,1,1.7,1.154,3.073,3.073,0,0,1,.718,2.148,3.653,3.653,0,0,1-.651,2.119,4.443,4.443,0,0,1-1.958,1.516,7.932,7.932,0,0,1-3.168.568A12.124,12.124,0,0,1,6887.08,5625.2Z" transform="translate(-6884.658 -5612.051)" fill="#013668"/>
      <path id="Trazado_13006" data-name="Trazado 13006" d="M6979.944,5613.893l-5.592,13.02h-3.634l-5.573-13.02h3.989l3.541,8.481,3.617-8.481Z" transform="translate(-6953.738 -5613.632)" fill="#013668"/>
      <path id="Trazado_13007" data-name="Trazado 13007" d="M7078.456,5618.542h3.261v5.395a8.542,8.542,0,0,1-2.572,1.228,10.276,10.276,0,0,1-2.909.427,7.79,7.79,0,0,1-3.69-.865,6.456,6.456,0,0,1-2.572-2.409,7.031,7.031,0,0,1,0-6.993,6.449,6.449,0,0,1,2.59-2.409,7.985,7.985,0,0,1,3.748-.866,8.368,8.368,0,0,1,3.28.614,6.31,6.31,0,0,1,2.423,1.769l-2.349,2.119a4.143,4.143,0,0,0-3.169-1.451,3.678,3.678,0,0,0-2.7,1.014,3.64,3.64,0,0,0-1.026,2.707,3.917,3.917,0,0,0,.467,1.924,3.328,3.328,0,0,0,1.306,1.321,3.818,3.818,0,0,0,1.919.475,4.724,4.724,0,0,0,2-.429Z" transform="translate(-7042.91 -5612.051)" fill="#013668"/>
    </g>
  </g>
</svg>
