<svg id="Grupo_100788" data-name="Grupo 100788" xmlns="http://www.w3.org/2000/svg" width="75.403" height="76.291" viewBox="0 0 75.403 76.291">
  <ellipse id="Elipse_5268" data-name="Elipse 5268" cx="37.702" cy="38.145" rx="37.702" ry="38.145" transform="translate(0 0)" fill="#20c4cb"/>
  <path id="Trazado_160620" data-name="Trazado 160620" d="M58.116,56.6a7.779,7.779,0,0,1-4.743,2.565,1.844,1.844,0,0,1-1.944-1.788,3.37,3.37,0,0,1,.077-1.244,33.4,33.4,0,0,1,1.245-4.355c0-.155-.078-.233-.155-.233-.778,0-3.422,2.722-3.81,4.51l-.311,1.477a2.105,2.105,0,0,1-1.866,1.633.592.592,0,0,1-.622-.544v-.467l.155-.778a8.023,8.023,0,0,1-3.654,1.788,1.578,1.578,0,0,1-1.711-1.322,2.965,2.965,0,0,1-2.41,1.322,3.19,3.19,0,0,1-2.8-1.944,14.258,14.258,0,0,1-2.8,2.41,10.429,10.429,0,0,1-5.52,1.866,6.74,6.74,0,0,1-4.51-1.866,8.061,8.061,0,0,1-2.333-4.9c-.7-5.443,2.644-12.675,7.853-15.785a7.39,7.39,0,0,1,3.733-1.088,4.508,4.508,0,0,1,4.587,3.888,4.216,4.216,0,0,1-2.644,4.587c-1.088.545-1.633.545-1.788.233a.507.507,0,0,1,.155-.622c2.022-1.633,2.022-3.032,1.788-4.977a2.034,2.034,0,0,0-1.866-2.022c-4.042,0-9.642,8.787-8.864,15.163.311,2.488,1.866,5.365,4.977,5.365a7.356,7.356,0,0,0,3.11-.778A9.781,9.781,0,0,0,35.1,55.975c-.233-2.954,2.332-6.687,6.065-6.687,1.632,0,2.954.622,3.11,1.944a1.622,1.622,0,0,1-1.711,1.945c-.467,0-1.166-.155-1.244-.545-.078-.467,1.01-.233.855-1.244-.078-.622-.777-.855-1.4-.855-2.332,0-3.654,3.265-3.421,5.287.077.933.622,1.866,1.4,1.866.7,0,1.711-1.011,2.022-2.411a2.105,2.105,0,0,1,1.866-1.632c.389,0,.622.155.622.544v.467c-.077.389-.389,1.866-.389,2.1a.607.607,0,0,0,.622.622,7.521,7.521,0,0,0,2.877-1.788c.389-1.944.856-4.355.856-4.51a1.763,1.763,0,0,1,2.021-1.633.593.593,0,0,1,.623.545v.467l-.389,2.1c1.4-1.866,3.577-3.266,4.9-3.266a1.027,1.027,0,0,1,1.088.855,4.034,4.034,0,0,1-.233,1.478,32.836,32.836,0,0,0-1.322,4.82.661.661,0,0,0,.7.855,5.564,5.564,0,0,0,3.5-2.41V54.11a10.115,10.115,0,0,1,.389-3.343,2.522,2.522,0,0,1,2.022-1.633.572.572,0,0,1,.622.622.994.994,0,0,1-.077.467,13.7,13.7,0,0,0-.778,4.121,12.9,12.9,0,0,0,.311,2.565.206.206,0,0,0,.233.233A10.246,10.246,0,0,0,63.715,53.8,3.581,3.581,0,0,1,62.16,50.61c0-2.332,1.4-3.577,2.8-3.577a2.056,2.056,0,0,1,2.022,2.333,7.435,7.435,0,0,1-.932,3.188h.31a2.373,2.373,0,0,0,1.866-.856,2.056,2.056,0,0,1,.467-.389,5.981,5.981,0,0,1,4.587-2.255c1.633,0,2.955.622,3.11,1.945a1.721,1.721,0,0,1-1.71,2.022c-.467,0-1.244-.156-1.244-.545-.078-.389,1.01-.233.932-1.245-.077-.622-.777-.932-1.4-.932-2.178,0-3.655,2.877-3.422,5.287.078.933.545,1.866,1.4,1.866.7,0,1.71-1.011,2.1-2.411a2.21,2.21,0,0,1,1.866-1.632.55.55,0,0,1,.622.544,17.313,17.313,0,0,1-.389,2.178,6.705,6.705,0,0,0-.155,1.632,3.5,3.5,0,0,0,.933,1.945.707.707,0,0,1,.232.389.448.448,0,0,1-.466.467.467.467,0,0,1-.311-.078,3.8,3.8,0,0,1-2.566-2.877,2.883,2.883,0,0,1-2.41,1.244,3.466,3.466,0,0,1-3.188-3.032,5.233,5.233,0,0,1,.233-2.177,3.559,3.559,0,0,1-1.866.622h-.545a15.555,15.555,0,0,1-4.2,4.277,3.2,3.2,0,0,1-1.245.389.847.847,0,0,1-.7-.31,2.727,2.727,0,0,1-.777-2.022Zm5.287-7a3.984,3.984,0,0,0,1.011,2.488,5.35,5.35,0,0,0,.389-1.866c0-1.167-.467-1.71-.777-1.71C63.56,48.511,63.4,49.133,63.4,49.6Z" transform="translate(-10.682 -11.997)" fill="#fff"/>
</svg>
