<svg xmlns="http://www.w3.org/2000/svg" xmlns:xlink="http://www.w3.org/1999/xlink" width="321.438" height="320" viewBox="0 0 321.438 320">
  <defs>
    <linearGradient id="linear-gradient" x1="0.622" y1="0.17" x2="0.379" y2="0.85" gradientUnits="objectBoundingBox">
      <stop offset="0" stop-color="#ffc444"/>
      <stop offset="0.996" stop-color="#f36f56"/>
    </linearGradient>
    <linearGradient id="linear-gradient-2" x1="0.632" y1="-0.107" x2="0.364" y2="1.119" xlink:href="#linear-gradient"/>
    <linearGradient id="linear-gradient-3" x1="3.85" y1="1.731" x2="3.85" y2="1.728" gradientUnits="objectBoundingBox">
      <stop offset="0" stop-color="#ed7a6d"/>
      <stop offset="0.996" stop-color="#ca4971"/>
    </linearGradient>
    <linearGradient id="linear-gradient-4" x1="6.26" y1="4.223" x2="6.259" y2="4.211" gradientUnits="objectBoundingBox">
      <stop offset="0" stop-color="#ffb42e"/>
      <stop offset="0.996" stop-color="#e75744"/>
    </linearGradient>
    <clipPath id="clip-path">
      <path id="Trazado_163488" data-name="Trazado 163488" d="M-1036.74,273.446l-4.826-28.148s13.531-7.774,24.9-2.623c23.2,10.509,30.788-10.547,35.284-18.891,6.781-12.583,17.161-19.4,26.726-7.3,10.822,13.684,30.457-3.379,38.479-25.279,7.849-21.431,50.475-19.844,37.743,28.1-7.6,28.633-36.463,29.3-50.957,33.1s-11.96,25.894-31.218,21.486c-16.45-3.765-29.729-14-38.694-2.916S-1019.933,285.046-1036.74,273.446Z" fill="none"/>
    </clipPath>
    <linearGradient id="linear-gradient-5" x1="13.489" y1="3.375" x2="13.499" y2="3.367" gradientUnits="objectBoundingBox">
      <stop offset="0.004" stop-color="#3874a7"/>
      <stop offset="1" stop-color="#56b6b8"/>
    </linearGradient>
    <clipPath id="clip-path-2">
      <path id="Trazado_163489" data-name="Trazado 163489" d="M-1118.648,259.161l-25.262-4.058s-8.108-16.677.538-21.928,3.468-21.462,1.784-30.387c-4.571-24.217,24.02-24.117,20.823-55.636-.851-8.383-5.492-24.147,1.435-31.392,7.892-8.252,14.987-1.264,19.91-8.04,7.7-10.591,21.472-15.212,30.949-5.609,9.355,9.477,1.306,30.332-22.168,48.362-15.232,14.725-15.078,18.782-12.763,28.517,1.623,6.818,10.536,24.232,1.2,32.147s-16.234,16.23-11.559,23.718C-1106.644,246.249-1118.648,259.161-1118.648,259.161Z" fill="none"/>
    </clipPath>
    <linearGradient id="linear-gradient-6" x1="6.979" y1="3.092" x2="6.983" y2="3.086" gradientUnits="objectBoundingBox">
      <stop offset="0" stop-color="#578fbe"/>
      <stop offset="0.996" stop-color="#52afc5"/>
    </linearGradient>
    <clipPath id="clip-path-3">
      <path id="Trazado_163490" data-name="Trazado 163490" d="M-971.393,267.719l-40.448-3.618c-1.945-5.629-4.194-15.891,4.455-17.6,12.025-2.373,13.638-21.987,10.873-29.2-3.422-8.927-10.944-29.858,7.579-33.8,15.419-3.285,26.15-2.4,28.452-20.73s13.7-28.947,31.276-26.4c18.495,2.675,35.3-19.472,49.992-10.4,25.592,15.808-1.171,54.42-34.209,63.534s-15.285,21.625-15.433,36.766c-.2,20.672-29.3,13.866-37.61,21.312C-972.98,253.415-972.442,262.251-971.393,267.719Z" fill="none"/>
    </clipPath>
    <linearGradient id="linear-gradient-7" x1="8.195" y1="3.62" x2="8.193" y2="3.615" xlink:href="#linear-gradient-4"/>
    <clipPath id="clip-path-4">
      <path id="Trazado_163491" data-name="Trazado 163491" d="M-1038.222,235.327l14.982-24.187s-9.588-12.238-22.016-11.735c-25.356,1.029-24.487-21.251-25.518-30.637-1.556-14.155-8.595-24.327-21.95-16.736-15.11,8.589-26.861-14.509-26.08-37.731.766-22.725-39.189-37.2-45.361,11.835-3.686,29.282,22.715,40.691,34.677,49.621s1.362,28.383,20.793,31.514c16.6,2.674,32.687-1.812,36.821,11.777S-1058.081,239.76-1038.222,235.327Z" fill="none"/>
    </clipPath>
    <linearGradient id="linear-gradient-8" x1="6.976" y1="6.966" x2="6.979" y2="6.925" gradientUnits="objectBoundingBox">
      <stop offset="0.004" stop-color="#6462a7"/>
      <stop offset="1" stop-color="#4b94b1"/>
    </linearGradient>
    <clipPath id="clip-path-5">
      <path id="Trazado_163492" data-name="Trazado 163492" d="M-1023.9,226.141l2.158,25.4s-14.171,11.853-21.329,4.758-21.582,1.813-29.8,5.591c-22.311,10.248-29.1-17.416-58.8-6.738-7.9,2.84-22.022,11.122-30.693,6.169-9.878-5.643-4.83-14.184-12.565-17.313-12.092-4.89-19.875-17.1-12.873-28.569,6.911-11.325,29.009-8.563,52.09,9.79,17.9,11.181,21.787,10.055,30.641,5.474,6.2-3.21,20.89-16.018,30.788-8.9s19.6,11.788,25.712,5.465C-1039.272,217.646-1023.9,226.141-1023.9,226.141Z" fill="none"/>
    </clipPath>
    <linearGradient id="linear-gradient-9" x1="6.729" y1="4.139" x2="6.732" y2="4.128" gradientUnits="objectBoundingBox">
      <stop offset="0" stop-color="#94d2e1"/>
      <stop offset="0.996" stop-color="#42b7d7"/>
    </linearGradient>
    <clipPath id="clip-path-6">
      <path id="Trazado_163493" data-name="Trazado 163493" d="M-1030.481,219.668l6.238,39.974c-4.972,3.234-14.351,7.88-18.083-.071-5.189-11.054-24.539-7.892-30.846-3.483-7.807,5.458-26.23,17.768-34.5.811-6.888-14.115-8.617-24.7-26.891-22.516s-31.282-6.278-33.055-23.88c-1.866-18.523-27.322-29.443-22.086-45.826,9.122-28.545,52.892-11.967,69.656,17.778s24.584,9.573,39.258,6.072c20.032-4.78,20.457,24.986,29.656,31.227C-1043.927,224.646-1035.515,222-1030.481,219.668Z" fill="none"/>
    </clipPath>
    <clipPath id="clip-path-7">
      <path id="Trazado_149933" data-name="Trazado 149933" d="M1834.152,1847.618l14.982-24.187s-9.588-12.238-22.016-11.735c-25.356,1.029-24.487-21.251-25.518-30.637-1.556-14.155-8.595-24.327-21.95-16.736-15.11,8.589-26.861-14.509-26.08-37.731.766-22.725-39.189-37.2-45.361,11.835-3.686,29.282,22.715,40.691,34.677,49.621s1.362,28.383,20.793,31.514c16.6,2.674,32.687-1.812,36.821,11.777S1814.293,1852.051,1834.152,1847.618Z" transform="translate(-1707.86 -1705.591)" fill="url(#linear-gradient)"/>
    </clipPath>
    <clipPath id="clip-path-8">
      <path id="Trazado_149907" data-name="Trazado 149907" d="M1816.424,1872.5l-4.826-28.148s13.531-7.774,24.9-2.623c23.2,10.509,30.788-10.547,35.284-18.891,6.781-12.583,17.161-19.4,26.726-7.3,10.822,13.684,30.457-3.379,38.479-25.279,7.849-21.431,50.475-19.844,37.743,28.1-7.6,28.633-36.463,29.3-50.957,33.1s-11.96,25.894-31.218,21.486c-16.45-3.765-29.729-14-38.694-2.916S1833.231,1884.1,1816.424,1872.5Z" transform="translate(-1811.598 -1777.07)" fill="url(#linear-gradient-2)"/>
    </clipPath>
    <linearGradient id="linear-gradient-12" x1="4.883" y1="2.724" x2="4.887" y2="2.724" gradientUnits="objectBoundingBox">
      <stop offset="0" stop-color="#fff"/>
      <stop offset="0.996" stop-color="#e6ebef"/>
    </linearGradient>
    <linearGradient id="linear-gradient-13" x1="5.307" y1="3.516" x2="5.307" y2="3.495" gradientUnits="objectBoundingBox">
      <stop offset="0" stop-color="#ec7772"/>
      <stop offset="1" stop-color="#dc5c9a"/>
    </linearGradient>
    <linearGradient id="linear-gradient-14" x1="5.733" y1="40.642" x2="5.732" y2="39.967" gradientUnits="objectBoundingBox">
      <stop offset="0" stop-color="#34707a"/>
      <stop offset="0.996" stop-color="#1b333e"/>
    </linearGradient>
    <linearGradient id="linear-gradient-15" x1="22.938" y1="5.299" x2="22.927" y2="5.283" xlink:href="#linear-gradient-14"/>
    <linearGradient id="linear-gradient-16" x1="1.064" y1="0.23" x2="-0.06" y2="1.214" xlink:href="#linear-gradient"/>
    <linearGradient id="linear-gradient-17" x1="205.976" y1="81.103" x2="206.255" y2="80.506" gradientUnits="objectBoundingBox">
      <stop offset="0" stop-color="#293b7b"/>
      <stop offset="0.996" stop-color="#171d3e"/>
    </linearGradient>
    <linearGradient id="linear-gradient-18" x1="251.163" y1="20.195" x2="251.163" y2="20.486" xlink:href="#linear-gradient-4"/>
    <linearGradient id="linear-gradient-19" x1="232.119" y1="96.602" x2="232.568" y2="95.692" xlink:href="#linear-gradient-17"/>
    <linearGradient id="linear-gradient-20" x1="208.622" y1="70.817" x2="208.925" y2="70.332" xlink:href="#linear-gradient-17"/>
    <linearGradient id="linear-gradient-21" x1="232.292" y1="25.073" x2="232.292" y2="25.344" xlink:href="#linear-gradient-4"/>
    <linearGradient id="linear-gradient-22" x1="232.185" y1="89.784" x2="232.653" y2="88.886" xlink:href="#linear-gradient-17"/>
    <linearGradient id="linear-gradient-23" x1="154.773" y1="-8.623" x2="154.577" y2="-8.763" xlink:href="#linear-gradient-4"/>
    <linearGradient id="linear-gradient-24" x1="23.52" y1="5.265" x2="23.534" y2="5.259" gradientUnits="objectBoundingBox">
      <stop offset="0.004" stop-color="#da7979"/>
      <stop offset="1" stop-color="#de2029"/>
    </linearGradient>
    <linearGradient id="linear-gradient-25" x1="73.533" y1="19.261" x2="73.613" y2="19.152" xlink:href="#linear-gradient-4"/>
    <linearGradient id="linear-gradient-26" x1="547.342" y1="-116.037" x2="557.894" y2="-123.804" xlink:href="#linear-gradient-4"/>
    <linearGradient id="linear-gradient-27" x1="28.409" y1="6.856" x2="28.43" y2="6.845" xlink:href="#linear-gradient-24"/>
    <linearGradient id="linear-gradient-28" x1="39.382" y1="10.944" x2="39.427" y2="10.92" xlink:href="#linear-gradient-24"/>
    <linearGradient id="linear-gradient-29" x1="19.334" y1="5.563" x2="19.327" y2="5.555" xlink:href="#linear-gradient-17"/>
    <linearGradient id="linear-gradient-30" x1="18.691" y1="6.066" x2="18.709" y2="6.066" xlink:href="#linear-gradient-17"/>
    <linearGradient id="linear-gradient-31" x1="26.285" y1="12.5" x2="26.308" y2="12.5" gradientUnits="objectBoundingBox">
      <stop offset="0" stop-color="#783235"/>
      <stop offset="0.996" stop-color="#3d1e1c"/>
    </linearGradient>
    <linearGradient id="linear-gradient-32" x1="26.284" y1="11.029" x2="26.308" y2="11.029" gradientUnits="objectBoundingBox">
      <stop offset="0" stop-color="#f3916c"/>
      <stop offset="0.996" stop-color="#cb4e4e"/>
    </linearGradient>
    <linearGradient id="linear-gradient-33" x1="28.37" y1="13.845" x2="28.398" y2="13.845" xlink:href="#linear-gradient-32"/>
    <linearGradient id="linear-gradient-34" x1="26.606" y1="9.533" x2="26.818" y2="9.533" xlink:href="#linear-gradient-32"/>
    <linearGradient id="linear-gradient-35" x1="21.215" y1="73.352" x2="21.237" y2="73.352" gradientUnits="objectBoundingBox">
      <stop offset="0" stop-color="#417b3a"/>
      <stop offset="0.996" stop-color="#223f24"/>
    </linearGradient>
    <linearGradient id="linear-gradient-36" x1="31.556" y1="14.819" x2="31.588" y2="14.819" xlink:href="#linear-gradient-35"/>
    <linearGradient id="linear-gradient-37" x1="92.945" y1="57.305" x2="92.963" y2="55.807" gradientUnits="objectBoundingBox">
      <stop offset="0.004" stop-color="#171d3e"/>
      <stop offset="1" stop-color="#293b7b"/>
    </linearGradient>
    <linearGradient id="linear-gradient-38" x1="197.097" y1="75.313" x2="197.056" y2="77.138" xlink:href="#linear-gradient-4"/>
    <linearGradient id="linear-gradient-39" x1="95.029" y1="57.673" x2="95.047" y2="56.175" xlink:href="#linear-gradient-37"/>
    <linearGradient id="linear-gradient-40" x1="203.955" y1="75.422" x2="203.914" y2="77.246" xlink:href="#linear-gradient-4"/>
    <linearGradient id="linear-gradient-41" x1="18.651" y1="6.196" x2="18.648" y2="6.19" gradientUnits="objectBoundingBox">
      <stop offset="0" stop-color="#712964"/>
      <stop offset="1" stop-color="#201534"/>
    </linearGradient>
    <linearGradient id="linear-gradient-42" x1="15.595" y1="6.571" x2="15.611" y2="6.571" xlink:href="#linear-gradient-41"/>
    <linearGradient id="linear-gradient-43" x1="21.846" y1="4.956" x2="21.861" y2="4.95" xlink:href="#linear-gradient-13"/>
    <linearGradient id="linear-gradient-44" x1="84.536" y1="99.884" x2="84.53" y2="99.448" xlink:href="#linear-gradient-4"/>
    <linearGradient id="linear-gradient-45" x1="65.346" y1="15.139" x2="65.426" y2="15.03" xlink:href="#linear-gradient-4"/>
    <linearGradient id="linear-gradient-46" x1="1067.972" y1="-588.665" x2="1078.498" y2="-596.432" xlink:href="#linear-gradient-4"/>
    <linearGradient id="linear-gradient-47" x1="25.223" y1="6.094" x2="25.244" y2="6.084" xlink:href="#linear-gradient-13"/>
    <linearGradient id="linear-gradient-48" x1="27.712" y1="9.38" x2="27.738" y2="9.353" xlink:href="#linear-gradient-13"/>
    <linearGradient id="linear-gradient-49" x1="22.184" y1="12.7" x2="22.207" y2="12.7" gradientUnits="objectBoundingBox">
      <stop offset="0" stop-color="#78323e"/>
      <stop offset="0.996" stop-color="#3e1c1d"/>
    </linearGradient>
    <linearGradient id="linear-gradient-50" x1="22.184" y1="11.203" x2="22.207" y2="11.203" gradientUnits="objectBoundingBox">
      <stop offset="0" stop-color="#f1896c"/>
      <stop offset="0.996" stop-color="#cc4a54"/>
    </linearGradient>
    <linearGradient id="linear-gradient-51" x1="26.134" y1="14.062" x2="26.162" y2="14.062" xlink:href="#linear-gradient-50"/>
    <linearGradient id="linear-gradient-52" x1="151.948" y1="9.669" x2="152.16" y2="9.669" xlink:href="#linear-gradient-50"/>
  </defs>
  <g id="Visual_storytelling" data-name="Visual storytelling" transform="translate(1190.455 -88.202)">
    <path id="Trazado_149898" data-name="Trazado 149898" d="M-1030.872,92.906c-33.394,13.279-36.593,47.22-66.66,50.133-26.2,2.537-36.157-22.031-54.54-17.63-28,6.706-45.608,73.467-34.362,128.361,11.612,56.682,60.4,132.033,141.237,137.176,90.753,5.773,159.42-80.926,163.614-157.009.453-8.227,3.131-77.168-49.575-117.894C-933.792,114.012-985.729,74.957-1030.872,92.906Z" opacity="0.1" fill="url(#linear-gradient-3)" style="isolation: isolate"/>
    <g id="Grupo_94119" data-name="Grupo 94119">
      <g id="Grupo_94097" data-name="Grupo 94097" transform="translate(0.11 0.184)">
        <g id="Grupo_94096" data-name="Grupo 94096">
          <path id="Trazado_149899" data-name="Trazado 149899" d="M-1036.74,273.446l-4.826-28.148s13.531-7.774,24.9-2.623c23.2,10.509,30.788-10.547,35.284-18.891,6.781-12.583,17.161-19.4,26.726-7.3,10.822,13.684,30.457-3.379,38.479-25.279,7.849-21.431,50.475-19.844,37.743,28.1-7.6,28.633-36.463,29.3-50.957,33.1s-11.96,25.894-31.218,21.486c-16.45-3.765-29.729-14-38.694-2.916S-1019.933,285.046-1036.74,273.446Z" fill="url(#linear-gradient-4)"/>
          <g id="Grupo_102056" data-name="Grupo 102056">
            <g id="Grupo_102055" data-name="Grupo 102055" clip-path="url(#clip-path)">
              <g id="Grupo_94095" data-name="Grupo 94095">
                <g id="Grupo_94094" data-name="Grupo 94094" opacity="0.5">
                  <path id="Trazado_149900" data-name="Trazado 149900" d="M-1041.444,261.71l.006-.6c.375,0,37.759.3,74.908-10.583,34.223-10.025,75.245-31.866,76.316-78.978l.6.014c-.476,20.972-8.773,38.765-24.656,52.885-12.687,11.28-30.219,20.25-52.1,26.661C-1003.6,262.011-1041.067,261.714-1041.444,261.71Z" fill="#aaa7d4"/>
                  <path id="Trazado_149901" data-name="Trazado 149901" d="M-921.154,230.059l-.027-.6c20.045-.921,46.642-13.178,46.908-13.3l.254.546C-874.288,216.827-900.992,229.133-921.154,230.059Z" fill="#aaa7d4"/>
                  <path id="Trazado_149902" data-name="Trazado 149902" d="M-910.829,220.361c9.033-22.14-.151-39.8-.244-39.98l.531-.283c.1.178,9.415,18.079.271,40.491Z" fill="#aaa7d4"/>
                  <path id="Trazado_149903" data-name="Trazado 149903" d="M-991.2,256.315c26.878-11.446,27.215-50.728,27.187-51.112l.6-.084c.064.373-.431,40.2-27.546,51.751Z" fill="#aaa7d4"/>
                  <path id="Trazado_149904" data-name="Trazado 149904" d="M-979.3,254.463l.021-.6c18.63.658,34.353,18.048,34.509,18.223l-.449.4C-945.372,272.311-960.928,255.11-979.3,254.463Z" fill="#aaa7d4"/>
                  <path id="Trazado_149905" data-name="Trazado 149905" d="M-1035.55,261.024c10.758-2.726,16.723-19.775,16.782-19.947l.57.2c-.245.715-6.13,17.529-17.2,20.335Z" fill="#aaa7d4"/>
                  <path id="Trazado_149906" data-name="Trazado 149906" d="M-1026.7,261.212v-.6c8.774-.006,20.48,11.251,24.327,14.951.544.522,1.012.974,1.112,1.038l-.319.511a13.866,13.866,0,0,1-1.211-1.114C-1006.592,272.337-1018.167,261.206-1026.7,261.212Z" fill="#aaa7d4"/>
                </g>
              </g>
            </g>
          </g>
        </g>
      </g>
      <g id="Grupo_94101" data-name="Grupo 94101">
        <path id="Trazado_149908" data-name="Trazado 149908" d="M-1113.759,234.854c4.09,6.552,1.554,13.6-1.08,18.41a7.8,7.8,0,0,0-1.881.507c-6.592,2.028-9.837,1.489-16.651,2.462-1.467.209-5.959-.486-7.776-.888l-3.375-.8s-7.5-16.116,1.15-21.368,3.468-21.462,1.784-30.387c-1.035-5.48.248-8.319.191-10.393-.6-21.965-7.749-27.869-3.557-35.131,4.628-8.018,14.663-3.118,20.157-11.573,6.2-9.548-2.425-22.207,5.466-29.931a14.49,14.49,0,0,1,5.132-3.564c5.809-2.261,10.95.793,14.778-4.477,7.7-10.591,21.472-15.212,30.949-5.609,9.355,9.477,1.306,30.332-22.168,48.362-15.232,14.725-15.078,18.782-12.763,28.517,1.623,6.818,10.536,24.232,1.2,32.147S-1118.435,227.367-1113.759,234.854Z" fill="url(#linear-gradient-5)"/>
        <g id="Grupo_94100" data-name="Grupo 94100">
          <g id="Grupo_102058" data-name="Grupo 102058">
            <g id="Grupo_102057" data-name="Grupo 102057" clip-path="url(#clip-path-2)">
              <g id="Grupo_94099" data-name="Grupo 94099">
                <g id="Grupo_94098" data-name="Grupo 94098" opacity="0.5">
                  <path id="Trazado_149909" data-name="Trazado 149909" d="M-1129.772,256.221l-.506-.02c.088-2.8.213-5.621.375-8.386a272.861,272.861,0,0,1,9.542-58.26,222.767,222.767,0,0,1,17.241-43.424,191.739,191.739,0,0,1,19.477-29.91,158.671,158.671,0,0,1,15.93-17.3c.957-.89,1.989-1.749,2.988-2.58,1.331-1.107,2.707-2.252,3.912-3.476l.377.319a52.483,52.483,0,0,1-3.947,3.509c-.994.827-2.022,1.682-2.969,2.562a158.458,158.458,0,0,0-15.883,17.244,191.45,191.45,0,0,0-19.431,29.838,222.427,222.427,0,0,0-17.2,43.339,272.517,272.517,0,0,0-9.526,58.167C-1129.557,250.608-1129.684,253.425-1129.772,256.221Z" fill="#fffffc"/>
                  <path id="Trazado_149910" data-name="Trazado 149910" d="M-1110.549,162.99l-.478-.166c7.336-18.9-4.193-51.944-4.31-52.275l.483-.141C-1114.737,110.741-1103.153,143.939-1110.549,162.99Z" fill="#fffffc"/>
                  <path id="Trazado_149911" data-name="Trazado 149911" d="M-1126.048,217.6l-.493-.113c3.356-13.407,28.648-25.449,28.9-25.569l.235.42C-1097.656,192.452-1122.741,204.4-1126.048,217.6Z" fill="#fffffc"/>
                  <path id="Trazado_149912" data-name="Trazado 149912" d="M-1127.241,225.363l-.506-.03c.481-9-4.05-21.574-12.757-35.416-.438-.7-.438-.7-.435-.785l.507.024-.254-.012.237-.076c.024.048.19.312.382.616C-1131.31,203.6-1126.753,216.272-1127.241,225.363Z" fill="#fffffc"/>
                  <path id="Trazado_149913" data-name="Trazado 149913" d="M-1129.532,251.116l-.479-.163c3.569-9.311,18.548-14,18.7-14.044l.166.447C-1111.3,237.4-1126.045,242.017-1129.532,251.116Z" fill="#fffffc"/>
                  <path id="Trazado_149914" data-name="Trazado 149914" d="M-1130.53,256.314c-2.7-7.641-7.844-14.845-15.723-22.024l.353-.333c7.939,7.234,13.125,14.5,15.85,22.216Z" fill="#fffffc"/>
                  <path id="Trazado_149915" data-name="Trazado 149915" d="M-1087.4,121.908l-.467-.19c4.713-10.289,7.078-22.145,7.854-26.041.189-.943.256-1.275.3-1.387l.475.171c-.033.085-.141.625-.277,1.307C-1080.288,99.678-1082.66,111.572-1087.4,121.908Z" fill="#fffffc"/>
                  <path id="Trazado_149916" data-name="Trazado 149916" d="M-1097.745,137.548l-.388-.308c7.308-7.97,29.957-9.422,30.917-9.48l.041.469C-1067.408,128.243-1090.574,129.726-1097.745,137.548Z" fill="#fffffc"/>
                </g>
              </g>
            </g>
          </g>
        </g>
      </g>
      <g id="Grupo_94105" data-name="Grupo 94105">
        <path id="Trazado_149918" data-name="Trazado 149918" d="M-976.888,272.193c-1.716-.361-10,14.611-14.107,2.741-1.028-2.965-1.652-12.984-14.464-14.49l-7.461-.877c-1.689-5.778-2.209-11.537,5.534-13.064,12.025-2.373,13.639-21.987,10.873-29.2-3.422-8.927-10.944-29.858,7.578-33.8,15.42-3.285,26.151-2.4,28.454-20.73s13.7-28.947,31.276-26.4c18.495,2.675,35.3-19.472,49.992-10.4,25.592,15.808-1.171,54.421-34.209,63.534s-15.285,21.625-15.433,36.766a26.207,26.207,0,0,1-1.132,6.081c-4.834,15.424-21.46,16.792-34.245,28.7C-981.667,277.286-974,272.8-976.888,272.193Z" fill="url(#linear-gradient-6)"/>
        <g id="Grupo_94104" data-name="Grupo 94104">
          <g id="Grupo_102060" data-name="Grupo 102060">
            <g id="Grupo_102059" data-name="Grupo 102059" clip-path="url(#clip-path-3)">
              <g id="Grupo_94103" data-name="Grupo 94103">
                <g id="Grupo_94102" data-name="Grupo 94102" opacity="0.5">
                  <path id="Trazado_149919" data-name="Trazado 149919" d="M-989.979,260l-.849-.237c16.9-58.377,63.788-108.056,122.381-129.648l.334.777C-926.459,152.389-973.156,201.861-989.979,260Z" fill="#fffffc"/>
                  <path id="Trazado_149920" data-name="Trazado 149920" d="M-977.878,228.978l-.877-.075c1.7-23.836-18.543-44.255-18.749-44.457l.629-.568C-996.663,184.084-976.15,204.762-977.878,228.978Z" fill="#fffffc"/>
                  <path id="Trazado_149921" data-name="Trazado 149921" d="M-986.562,249.343l-.743-.459c13.642-20.234,60.26-19.288,60.729-19.276v.833C-927.044,230.43-973.18,229.495-986.562,249.343Z" fill="#fffffc"/>
                  <path id="Trazado_149922" data-name="Trazado 149922" d="M-943.058,180l-.781-.4c9.315-16.9-.888-45-.992-45.278l.828-.259C-943.9,134.351-933.571,162.789-943.058,180Z" fill="#fffffc"/>
                  <path id="Trazado_149923" data-name="Trazado 149923" d="M-913.1,154.4l-.409-.745c20.483-9.761,50.494-.845,50.795-.754l-.25.793C-863.259,153.6-892.934,144.786-913.1,154.4Z" fill="#fffffc"/>
                </g>
              </g>
            </g>
          </g>
        </g>
      </g>
      <g id="Grupo_94109" data-name="Grupo 94109" transform="translate(0.059)">
        <g id="Grupo_94108" data-name="Grupo 94108">
          <path id="Trazado_149925" data-name="Trazado 149925" d="M-1038.222,235.327l14.982-24.187s-9.588-12.238-22.016-11.735c-25.356,1.029-24.487-21.251-25.518-30.637-1.556-14.155-8.595-24.327-21.95-16.736-15.11,8.589-26.861-14.509-26.08-37.731.766-22.725-39.189-37.2-45.361,11.835-3.686,29.282,22.715,40.691,34.677,49.621s1.362,28.383,20.793,31.514c16.6,2.674,32.687-1.812,36.821,11.777S-1058.081,239.76-1038.222,235.327Z" fill="url(#linear-gradient-7)"/>
          <g id="Grupo_102062" data-name="Grupo 102062">
            <g id="Grupo_102061" data-name="Grupo 102061" clip-path="url(#clip-path-4)">
              <g id="Grupo_94107" data-name="Grupo 94107">
                <g id="Grupo_94106" data-name="Grupo 94106" opacity="0.5">
                  <path id="Trazado_149926" data-name="Trazado 149926" d="M-1029.494,226.249l.219-.559c-.346-.135-34.978-13.842-65.214-37.782-27.854-22.055-57.568-57.562-40.941-101.466l-.562-.213c-7.4,19.545-6.4,39.077,2.993,58.056,7.5,15.16,20.333,30,38.146,44.1C-1064.546,212.379-1029.841,226.113-1029.494,226.249Z" fill="#aaa7d4"/>
                  <path id="Trazado_149927" data-name="Trazado 149927" d="M-1128.732,152.042l.25-.545c-18.165-8.347-38.143-29.609-38.342-29.824l-.44.41C-1167.062,122.3-1147,143.65-1128.732,152.042Z" fill="#aaa7d4"/>
                  <path id="Trazado_149928" data-name="Trazado 149928" d="M-1134.641,139.228c-.063-23.822,15.022-36.7,15.175-36.826l-.385-.461c-.156.129-15.455,13.175-15.391,37.288Z" fill="#aaa7d4"/>
                  <path id="Trazado_149929" data-name="Trazado 149929" d="M-1073.868,202.482c-20.538-20.62-6.163-57.02-5.993-57.363l-.519-.3c-.2.321-14.634,37.285,6.087,58.089Z" fill="#aaa7d4"/>
                  <path id="Trazado_149930" data-name="Trazado 149930" d="M-1084.167,196.321l.2-.564c-17.448-6.36-38.47,3.82-38.68,3.924l.266.538C-1122.169,200.117-1101.373,190.05-1084.167,196.321Z" fill="#aaa7d4"/>
                  <path id="Trazado_149931" data-name="Trazado 149931" d="M-1034.676,223.414c-8.915-6.54-8.047-24.513-8.038-24.7l-.6-.032c-.042.75-.9,18.479,8.282,25.211Z" fill="#aaa7d4"/>
                  <path id="Trazado_149932" data-name="Trazado 149932" d="M-1042.922,220.277l.226-.556c-8.1-3.287-23.12,2.732-28.056,4.709-.7.28-1.3.521-1.415.543l.1.592a14.127,14.127,0,0,0,1.536-.576C-1065.645,223.033-1050.8,217.082-1042.922,220.277Z" fill="#aaa7d4"/>
                </g>
              </g>
            </g>
          </g>
        </g>
      </g>
      <g id="Grupo_94113" data-name="Grupo 94113">
        <path id="Trazado_149934" data-name="Trazado 149934" d="M-1048.576,227.267c5.348-5.531,12.772-4.775,18.056-3.387a7.785,7.785,0,0,0,.943,1.7c3.547,5.886,3.807,9.152,6.387,15.5.556,1.368.966,5.877,1.014,7.731l.037,3.456s-13.777,11.127-20.934,4.032-21.582,1.813-29.805,5.591c-5.05,2.319-8.1,1.762-10.094,2.317-21.089,5.868-25.076,14.2-33.106,11.894-8.865-2.543-6.543-13.424-16.04-16.7-10.725-3.7-20.885,7.69-30.251,1.921a14.406,14.406,0,0,1-4.68-4.1c-3.585-5.07-1.87-10.776-7.885-13.209-12.092-4.89-19.875-17.1-12.873-28.569,6.911-11.325,29.009-8.563,52.09,9.79,17.9,11.181,21.787,10.055,30.641,5.474,6.2-3.21,20.89-16.018,30.788-8.9S-1054.69,233.59-1048.576,227.267Z" fill="url(#linear-gradient-8)"/>
        <g id="Grupo_94112" data-name="Grupo 94112">
          <g id="Grupo_102064" data-name="Grupo 102064">
            <g id="Grupo_102063" data-name="Grupo 102063" clip-path="url(#clip-path-5)">
              <g id="Grupo_94111" data-name="Grupo 94111">
                <g id="Grupo_94110" data-name="Grupo 94110" opacity="0.5">
                  <path id="Trazado_149935" data-name="Trazado 149935" d="M-1024.065,237.6l.1.494c-2.727.589-5.485,1.146-8.2,1.657a271.853,271.853,0,0,1-58.62,4.8,221.98,221.98,0,0,1-46.129-6.214,191.128,191.128,0,0,1-33.6-11.63,158.276,158.276,0,0,1-20.555-11.237c-1.089-.711-2.169-1.5-3.213-2.269-1.39-1.019-2.828-2.074-4.3-2.945l.218-.441c1.5.883,2.943,1.945,4.343,2.971,1.038.762,2.112,1.549,3.192,2.253a157.862,157.862,0,0,0,20.493,11.2,190.636,190.636,0,0,0,33.524,11.6,221.575,221.575,0,0,0,46.037,6.2,271.368,271.368,0,0,0,58.526-4.792C-1029.543,238.749-1026.788,238.193-1024.065,237.6Z" fill="#cfd1cf"/>
                  <path id="Trazado_149936" data-name="Trazado 149936" d="M-1118.823,241.464l-.044.5c-20.037-2.543-49.208,16.557-49.5,16.75l-.251-.432C-1168.324,258.089-1139.015,238.9-1118.823,241.464Z" fill="#cfd1cf"/>
                  <path id="Trazado_149937" data-name="Trazado 149937" d="M-1062.3,243.3l.01.5c-13.769-.018-31.5-21.57-31.677-21.787l.35-.328C-1093.443,221.908-1075.857,243.286-1062.3,243.3Z" fill="#cfd1cf"/>
                  <path id="Trazado_149938" data-name="Trazado 149938" d="M-1054.505,242.585l.092.5c-8.812,1.7-19.881,9.107-31.166,20.857-.568.591-.568.591-.655.609l-.1-.5.05.248-.132-.211c.043-.036.257-.258.5-.517C-1074.56,251.756-1063.407,244.3-1054.505,242.585Z" fill="#cfd1cf"/>
                  <path id="Trazado_149939" data-name="Trazado 149939" d="M-1029.057,238.6l-.043.5c-9.861-1.209-18-14.561-18.079-14.7l.392-.268C-1046.706,224.274-1038.692,237.422-1029.057,238.6Z" fill="#cfd1cf"/>
                  <path id="Trazado_149940" data-name="Trazado 149940" d="M-1023.792,238.316c-6.736,4.449-12.463,11.155-17.506,20.5l-.408-.261c5.083-9.418,10.86-16.179,17.663-20.672Z" fill="#cfd1cf"/>
                  <path id="Trazado_149941" data-name="Trazado 149941" d="M-1164.109,228.966l-.071.5c-11.08-2.081-23.112-1.512-27.066-1.326-.956.046-1.294.06-1.413.044l.052-.5c.09.012.637-.014,1.33-.047C-1187.31,227.449-1175.24,226.879-1164.109,228.966Z" fill="#cfd1cf"/>
                  <path id="Trazado_149942" data-name="Trazado 149942" d="M-1146.5,235.21l-.2.449c-9.465-5.146-16.32-26.693-16.608-27.607l.444-.151C-1162.8,208.123-1155.786,230.16-1146.5,235.21Z" fill="#cfd1cf"/>
                </g>
              </g>
            </g>
          </g>
        </g>
      </g>
      <g id="Grupo_94117" data-name="Grupo 94117">
        <path id="Trazado_149944" data-name="Trazado 149944" d="M-1024.833,223.9c.063,1.746,16.532,6.15,6.046,12.979-2.619,1.707-12.154,4.723-10.526,17.471q.472,3.713.947,7.424c-5.179,3.022-10.62,4.912-13.961-2.206-5.189-11.054-24.539-7.892-30.846-3.483-7.807,5.458-26.23,17.768-34.5.812-6.888-14.117-8.617-24.7-26.891-22.518s-31.282-6.278-33.055-23.88c-1.865-18.523-27.321-29.443-22.086-45.826,9.122-28.545,52.892-11.967,69.656,17.779s24.584,9.572,39.258,6.071a26.085,26.085,0,0,1,6.151-.37c16.075.961,21.4,16.7,35.987,26.2C-1018.76,227.3-1024.941,220.961-1024.833,223.9Z" fill="url(#linear-gradient-9)"/>
        <g id="Grupo_94116" data-name="Grupo 94116">
          <g id="Grupo_102066" data-name="Grupo 102066">
            <g id="Grupo_102065" data-name="Grupo 102065" clip-path="url(#clip-path-6)">
              <g id="Grupo_94115" data-name="Grupo 94115">
                <g id="Grupo_94114" data-name="Grupo 94114" opacity="0.5">
                  <path id="Trazado_149945" data-name="Trazado 149945" d="M-1033.474,239.5l-.025.876c-60.5-2.279-119.815-35.655-154.793-87.1l.671-.51C-1152.79,203.992-1093.724,237.227-1033.474,239.5Z" fill="#fff"/>
                  <path id="Trazado_149946" data-name="Trazado 149946" d="M-1066.373,235.26l.139.865c-23.452,4.1-38.318,28.58-38.465,28.826l-.7-.472C-1105.252,264.229-1090.194,239.42-1066.373,235.26Z" fill="#fff"/>
                  <path id="Trazado_149947" data-name="Trazado 149947" d="M-1044.594,238.756l-.265.828c-22.843-8.318-33.15-53.612-33.252-54.068l.806-.2C-1077.2,185.772-1067,230.6-1044.594,238.756Z" fill="#fff"/>
                  <path id="Trazado_149948" data-name="Trazado 149948" d="M-1122.1,213.389l-.2.851c-18.579-4.937-43.285,11.69-43.533,11.858l-.45-.739C-1166.032,225.189-1141.024,208.361-1122.1,213.389Z" fill="#fff"/>
                  <path id="Trazado_149949" data-name="Trazado 149949" d="M-1154.071,190.589l-.622.575c-14.367-17.451-12.971-48.61-12.955-48.923l.827.051C-1166.836,142.6-1168.212,173.41-1154.071,190.589Z" fill="#fff"/>
                </g>
              </g>
            </g>
          </g>
        </g>
      </g>
      <g id="Grupo_102069" data-name="Grupo 102069" transform="translate(-1164.456 93.301)">
        <path id="Trazado_149925-2" data-name="Trazado 149925" d="M1834.152,1847.618l14.982-24.187s-9.588-12.238-22.016-11.735c-25.356,1.029-24.487-21.251-25.518-30.637-1.556-14.155-8.595-24.327-21.95-16.736-15.11,8.589-26.861-14.509-26.08-37.731.766-22.725-39.189-37.2-45.361,11.835-3.686,29.282,22.715,40.691,34.677,49.621s1.362,28.383,20.793,31.514c16.6,2.674,32.687-1.812,36.821,11.777S1814.293,1852.051,1834.152,1847.618Z" transform="translate(-1707.86 -1705.591)" fill="url(#linear-gradient)"/>
        <g id="Grupo_94107-2" data-name="Grupo 94107" clip-path="url(#clip-path-7)">
          <g id="Grupo_94106-2" data-name="Grupo 94106" transform="translate(-2.75 -7.072)" opacity="0.5" style="mix-blend-mode: soft-light;isolation: isolate">
            <path id="Trazado_149926-2" data-name="Trazado 149926" d="M1839.188,1839.645l.219-.559c-.346-.135-34.978-13.842-65.214-37.782-27.854-22.055-57.568-57.562-40.941-101.466l-.562-.213c-7.4,19.545-6.4,39.077,2.993,58.056,7.5,15.16,20.333,30,38.146,44.1C1804.136,1825.775,1838.841,1839.509,1839.188,1839.645Z" transform="translate(-1701.418 -1699.624)" fill="#beb8f2"/>
            <path id="Trazado_149927-2" data-name="Trazado 149927" d="M1744.072,1759.9l.25-.545c-18.165-8.347-38.143-29.609-38.342-29.824l-.44.41C1705.742,1730.158,1725.8,1751.508,1744.072,1759.9Z" transform="translate(-1705.54 -1694.086)" fill="#beb8f2"/>
            <path id="Trazado_149928-2" data-name="Trazado 149928" d="M1733.16,1750.169c-.063-23.822,15.022-36.7,15.175-36.826l-.385-.461c-.156.129-15.455,13.175-15.391,37.288Z" transform="translate(-1700.537 -1697.169)" fill="#beb8f2"/>
            <path id="Trazado_149929-2" data-name="Trazado 149929" d="M1786.154,1806.723c-20.538-20.62-6.163-57.02-5.993-57.363l-.519-.3c-.2.321-14.634,37.285,6.087,58.089Z" transform="translate(-1692.758 -1690.469)" fill="#beb8f2"/>
            <path id="Trazado_149930-2" data-name="Trazado 149930" d="M1781.665,1792.93l.2-.564c-17.448-6.36-38.47,3.82-38.68,3.924l.266.538C1743.663,1796.726,1764.459,1786.659,1781.665,1792.93Z" transform="translate(-1698.568 -1682.837)" fill="#beb8f2"/>
            <path id="Trazado_149931-2" data-name="Trazado 149931" d="M1818.767,1819.238c-8.915-6.54-8.047-24.513-8.038-24.695l-.6-.032c-.042.75-.895,18.479,8.282,25.211Z" transform="translate(-1686.179 -1682.052)" fill="#beb8f2"/>
            <path id="Trazado_149932-2" data-name="Trazado 149932" d="M1815.023,1812.965l.226-.556c-8.1-3.287-23.12,2.732-28.056,4.709-.7.28-1.3.521-1.415.543l.1.592a14.021,14.021,0,0,0,1.536-.576C1792.3,1815.721,1807.148,1809.77,1815.023,1812.965Z" transform="translate(-1690.681 -1678.916)" fill="#beb8f2"/>
          </g>
        </g>
      </g>
      <g id="Grupo_102070" data-name="Grupo 102070" transform="translate(-1041.456 178.202)">
        <g id="Grupo_94096-2" data-name="Grupo 94096">
          <path id="Trazado_149899-2" data-name="Trazado 149899" d="M1816.424,1872.5l-4.826-28.148s13.531-7.774,24.9-2.623c23.2,10.509,30.788-10.547,35.284-18.891,6.781-12.583,17.161-19.4,26.726-7.3,10.822,13.684,30.457-3.379,38.479-25.279,7.849-21.431,50.475-19.844,37.743,28.1-7.6,28.633-36.463,29.3-50.957,33.1s-11.96,25.894-31.218,21.486c-16.45-3.765-29.729-14-38.694-2.916S1833.231,1884.1,1816.424,1872.5Z" transform="translate(-1811.598 -1777.07)" fill="url(#linear-gradient-2)"/>
          <g id="Grupo_94095-2" data-name="Grupo 94095" clip-path="url(#clip-path-8)">
            <g id="Grupo_94094-2" data-name="Grupo 94094" transform="translate(0.126 -6.47)" opacity="0.5" style="mix-blend-mode: soft-light;isolation: isolate">
              <path id="Trazado_149900-2" data-name="Trazado 149900" d="M1811.7,1861.775l.006-.6c.375,0,37.759.3,74.908-10.583,34.223-10.025,75.245-31.866,76.316-78.978l.6.014c-.476,20.972-8.773,38.765-24.656,52.885-12.687,11.28-30.219,20.25-52.105,26.661C1849.541,1862.076,1812.077,1861.779,1811.7,1861.775Z" transform="translate(-1811.704 -1771.611)" fill="#beb8f2"/>
              <path id="Trazado_149901-2" data-name="Trazado 149901" d="M1913.2,1823.154l-.027-.6c20.045-.921,46.642-13.178,46.908-13.3l.254.546C1960.066,1809.922,1933.362,1822.228,1913.2,1823.154Z" transform="translate(-1792.914 -1764.641)" fill="#beb8f2"/>
              <path id="Trazado_149902-2" data-name="Trazado 149902" d="M1921.945,1819.09c9.033-22.14-.151-39.8-.244-39.98l.531-.283c.1.178,9.415,18.079.271,40.491Z" transform="translate(-1791.334 -1770.275)" fill="#beb8f2"/>
              <path id="Trazado_149903-2" data-name="Trazado 149903" d="M1854.093,1851.134c26.878-11.446,27.215-50.728,27.187-51.112l.6-.084c.064.373-.431,40.2-27.546,51.751Z" transform="translate(-1803.854 -1766.365)" fill="#beb8f2"/>
              <path id="Trazado_149904-2" data-name="Trazado 149904" d="M1864.136,1841.667l.021-.6c18.63.658,34.353,18.048,34.509,18.223l-.449.4C1898.062,1859.515,1882.506,1842.314,1864.136,1841.667Z" transform="translate(-1801.994 -1758.75)" fill="#beb8f2"/>
              <path id="Trazado_149905-2" data-name="Trazado 149905" d="M1816.674,1850.225c10.758-2.726,16.723-19.775,16.782-19.947l.57.2c-.245.715-6.13,17.529-17.2,20.335Z" transform="translate(-1810.784 -1760.747)" fill="#beb8f2"/>
              <path id="Trazado_149906-2" data-name="Trazado 149906" d="M1824.143,1847.361v-.6c8.774-.006,20.48,11.251,24.327,14.951.544.522,1.012.974,1.112,1.038l-.319.511a13.981,13.981,0,0,1-1.211-1.114C1844.249,1858.486,1832.674,1847.355,1824.143,1847.361Z" transform="translate(-1809.401 -1757.695)" fill="#beb8f2"/>
            </g>
          </g>
        </g>
      </g>
    </g>
    <g id="Grupo_94144" data-name="Grupo 94144">
      <path id="Trazado_149951" data-name="Trazado 149951" d="M-914.284,147.042a12.406,12.406,0,0,0-9.039-12.141c-.184-.046-.388-.088-.575-.123a10.8,10.8,0,0,0-1.729-.19l-108.856-3.144-108.853-3.144c-.23-.006-.46-.007-.687,0a13.012,13.012,0,0,0-7.738,2.732c-.038.031-.078.06-.117.091q-.459.366-.884.773l-.02.019c-.167.16-.328.327-.487.5a12.79,12.79,0,0,0-3.435,8.769V150.7h0V300a12.891,12.891,0,0,0,.423,3.3,12.491,12.491,0,0,0,.63,1.825,12.739,12.739,0,0,0,9.6,7.473,13.227,13.227,0,0,0,2.718.177l166-6.065h0l51.742-1.889c6.24-.228,11.315-5.842,11.315-12.539V155.741h0Z" fill="#ced6e2"/>
      <g id="Grupo_94143" data-name="Grupo 94143">
        <path id="Trazado_149952" data-name="Trazado 149952" d="M-922.252,134.588l-217.7-6.287a12.871,12.871,0,0,0-13.358,12.363q-.009.257-.009.513V299.989a12.752,12.752,0,0,0,12.716,12.788c.216,0,.433-.005.649-.015l217.7-7.954c6.241-.228,11.278-5.842,11.278-12.539V147.042C-910.974,140.344-916.011,134.768-922.252,134.588Z" fill="#fff"/>
        <path id="Trazado_149953" data-name="Trazado 149953" d="M-1139.956,308.548a8.691,8.691,0,0,1-9.075-8.289c-.006-.135-.009-.27-.009-.406V141.28a8.771,8.771,0,0,1,8.77-8.77c.1,0,.209,0,.314.006l217.7,5.963c4.245.116,7.688,3.918,7.688,8.477V292.384c0,4.558-3.443,8.388-7.688,8.537Z" fill="url(#linear-gradient-12)"/>
        <path id="Trazado_149954" data-name="Trazado 149954" d="M-922.252,134.588l-217.7-6.287a12.871,12.871,0,0,0-13.358,12.363q-.009.257-.009.513v9.512l242.345,5.052v-8.7C-910.974,140.344-916.011,134.768-922.252,134.588Z" fill="#ced6e2"/>
        <path id="Trazado_149955" data-name="Trazado 149955" d="M-1129.568,140.478a4.2,4.2,0,0,1-4.2,4.2l-.13,0a4.454,4.454,0,0,1-4.341-4.418,4.2,4.2,0,0,1,4.2-4.2l.144,0A4.455,4.455,0,0,1-1129.568,140.478Z" fill="#fff"/>
        <path id="Trazado_149956" data-name="Trazado 149956" d="M-1114.468,140.852a4.163,4.163,0,0,1-4.143,4.183c-.047,0-.093,0-.139,0a4.417,4.417,0,0,1-4.3-4.393,4.162,4.162,0,0,1,4.142-4.183l.158,0A4.419,4.419,0,0,1-1114.468,140.852Z" fill="#fff"/>
        <path id="Trazado_149957" data-name="Trazado 149957" d="M-1099.533,141.213a4.129,4.129,0,0,1-4.1,4.162c-.046,0-.092,0-.138,0a4.383,4.383,0,0,1-4.249-4.37,4.129,4.129,0,0,1,4.1-4.161c.051,0,.1,0,.153,0A4.383,4.383,0,0,1-1099.533,141.213Z" fill="#fff"/>
        <path id="Trazado_149958" data-name="Trazado 149958" d="M-924.139,292.746l-213.6,6.81V174.818l213.6,2.648Z" fill="url(#linear-gradient-13)"/>
        <g id="Grupo_94120" data-name="Grupo 94120">
          <path id="Trazado_149959" data-name="Trazado 149959" d="M-1022.3,159.848l-115.438-1.96v6.738l115.438,1.684Z" fill="#ced6e2"/>
          <path id="Trazado_149960" data-name="Trazado 149960" d="M-936.206,161.309v6.256l12.068.176v-6.227Z" fill="#ced6e2"/>
        </g>
        <g id="Grupo_94121" data-name="Grupo 94121" opacity="0.5">
          <path id="Trazado_149961" data-name="Trazado 149961" d="M-1006.425,215.783c-25.4-36.538-69.5-24.586-97.468-65.1a88.226,88.226,0,0,1-10.833-21.651l-25.227-.728a12.871,12.871,0,0,0-13.357,12.365c-.006.169-.009.339-.009.508V299.989a12.753,12.753,0,0,0,12.717,12.789c.216,0,.432,0,.648-.015l166-6.066a135.492,135.492,0,0,1-13.333-23.586C-1002.08,249.467-991.125,237.793-1006.425,215.783Z" fill="#fff"/>
        </g>
        <g id="Grupo_94142" data-name="Grupo 94142">
          <path id="Trazado_149962" data-name="Trazado 149962" d="M-1137.374,304.968a1.49,1.49,0,0,1-1.613-1.356c0-.023,0-.046,0-.069V172.059a1.531,1.531,0,0,1,1.6-1.461h.019l212.545,2.859a1.394,1.394,0,0,1,1.372,1.384V295.955a1.431,1.431,0,0,1-1.372,1.415Z" fill="#6fb7da"/>
          <g id="Grupo_94123" data-name="Grupo 94123">
            <path id="Trazado_149963" data-name="Trazado 149963" d="M-932.43,188l-196.062-1.5V177.44l196.062,2.154Z" fill="url(#linear-gradient-14)"/>
            <g id="Grupo_94122" data-name="Grupo 94122">
              <path id="Trazado_149964" data-name="Trazado 149964" d="M-1121.824,182.115a1.079,1.079,0,0,1-1.084,1.074h-.016a1.1,1.1,0,0,1-1.1-1.094,1.081,1.081,0,0,1,1.088-1.074h.012A1.1,1.1,0,0,1-1121.824,182.115Z" fill="#5691c3"/>
              <path id="Trazado_149965" data-name="Trazado 149965" d="M-1117.305,182.154a1.077,1.077,0,0,1-1.083,1.072h-.017a1.1,1.1,0,0,1-1.1-1.092,1.075,1.075,0,0,1,1.08-1.071h.02A1.1,1.1,0,0,1-1117.305,182.154Z" fill="#5691c3"/>
              <path id="Trazado_149966" data-name="Trazado 149966" d="M-1112.8,182.2a1.074,1.074,0,0,1-1.078,1.07h-.013a1.1,1.1,0,0,1-1.093-1.09,1.074,1.074,0,0,1,1.079-1.069h.014A1.1,1.1,0,0,1-1112.8,182.2Z" fill="#5691c3"/>
            </g>
          </g>
          <path id="Trazado_149967" data-name="Trazado 149967" d="M-932.43,289.424l-143.732,4.671V190.407l143.732.912Z" fill="#fff" opacity="0.68" style="isolation: isolate"/>
          <path id="Trazado_149968" data-name="Trazado 149968" d="M-1080.3,268.077l-48.191,1.566V190.075l48.191.306Z" fill="url(#linear-gradient-15)"/>
          <g id="Grupo_94134" data-name="Grupo 94134">
            <g id="Grupo_94125" data-name="Grupo 94125">
              <path id="Trazado_149969" data-name="Trazado 149969" d="M-1117.942,199.749l-5.465-.015a.7.7,0,0,1-.724-.67v-5.05a.693.693,0,0,1,.721-.665h0l5.465.029a.7.7,0,0,1,.722.671v5.036A.694.694,0,0,1-1117.942,199.749Z" fill="#092b4c"/>
              <g id="Grupo_94124" data-name="Grupo 94124" opacity="0.3">
                <path id="Trazado_149970" data-name="Trazado 149970" d="M-1087.161,195.849l-27.868-.12V193.4l27.868.143Z" fill="#fff"/>
                <path id="Trazado_149971" data-name="Trazado 149971" d="M-1083.086,195.862l-2.467-.01v-2.308l2.467.013Z" fill="#fff"/>
                <path id="Trazado_149972" data-name="Trazado 149972" d="M-1097.611,199.8l-17.418-.048v-2.334l17.418.064Z" fill="#fff"/>
              </g>
            </g>
            <g id="Grupo_94127" data-name="Grupo 94127">
              <path id="Trazado_149973" data-name="Trazado 149973" d="M-1117.942,215.138l-5.465.016a.7.7,0,0,1-.724-.666v-5.05a.7.7,0,0,1,.724-.668h5.465a.7.7,0,0,1,.722.667v5.036A.7.7,0,0,1-1117.942,215.138Z" fill="#ffc341"/>
              <g id="Grupo_94126" data-name="Grupo 94126" opacity="0.3">
                <path id="Trazado_149974" data-name="Trazado 149974" d="M-1087.161,211.06l-27.868.039v-2.334l27.868-.015Z" fill="#fff"/>
                <rect id="Rectángulo_24307" data-name="Rectángulo 24307" width="2.467" height="2.307" transform="translate(-1085.554 208.748)" fill="#fff"/>
                <path id="Trazado_149975" data-name="Trazado 149975" d="M-1097.611,215.075l-17.418.05v-2.334l17.418-.035Z" fill="#fff"/>
              </g>
            </g>
            <g id="Grupo_94129" data-name="Grupo 94129">
              <path id="Trazado_149976" data-name="Trazado 149976" d="M-1117.942,230.525l-5.465.047a.692.692,0,0,1-.724-.659v-5.054a.7.7,0,0,1,.724-.673l5.465-.033a.692.692,0,0,1,.722.659v5.039A.7.7,0,0,1-1117.942,230.525Z" fill="#ffc341"/>
              <g id="Grupo_94128" data-name="Grupo 94128" opacity="0.3">
                <path id="Trazado_149977" data-name="Trazado 149977" d="M-1087.161,226.273l-27.868.2v-2.334l27.868-.173Z" fill="#fff"/>
                <path id="Trazado_149978" data-name="Trazado 149978" d="M-1083.086,226.243l-2.467.017v-2.308l2.467-.015Z" fill="#fff"/>
                <path id="Trazado_149979" data-name="Trazado 149979" d="M-1097.611,230.351l-17.418.149v-2.334l17.418-.134Z" fill="#fff"/>
              </g>
            </g>
            <g id="Grupo_94131" data-name="Grupo 94131">
              <path id="Trazado_149980" data-name="Trazado 149980" d="M-1117.942,245.914l-5.465.077a.687.687,0,0,1-.724-.646v-5.061a.709.709,0,0,1,.724-.678l5.465-.065a.687.687,0,0,1,.721.651v5.045A.709.709,0,0,1-1117.942,245.914Z" fill="#ffc341"/>
              <g id="Grupo_94130" data-name="Grupo 94130" opacity="0.3">
                <path id="Trazado_149981" data-name="Trazado 149981" d="M-1087.161,241.485l-27.868.355V239.5l27.868-.331Z" fill="#fff"/>
                <path id="Trazado_149982" data-name="Trazado 149982" d="M-1083.086,241.434l-2.467.031v-2.308l2.467-.029Z" fill="#fff"/>
                <path id="Trazado_149983" data-name="Trazado 149983" d="M-1097.611,245.624l-17.418.248v-2.334l17.418-.233Z" fill="#fff"/>
              </g>
            </g>
            <g id="Grupo_94133" data-name="Grupo 94133">
              <path id="Trazado_149984" data-name="Trazado 149984" d="M-1117.942,261.3l-5.465.109a.681.681,0,0,1-.723-.636v-5.067a.713.713,0,0,1,.724-.681l5.465-.1a.682.682,0,0,1,.721.64v5.051A.712.712,0,0,1-1117.942,261.3Z" fill="#092b4c"/>
              <g id="Grupo_94132" data-name="Grupo 94132" opacity="0.3">
                <path id="Trazado_149985" data-name="Trazado 149985" d="M-1087.161,256.7l-27.868.513v-2.332l27.868-.489Z" fill="#fff"/>
                <path id="Trazado_149986" data-name="Trazado 149986" d="M-1083.086,256.623l-2.467.045v-2.309l2.467-.043Z" fill="#fff"/>
                <path id="Trazado_149987" data-name="Trazado 149987" d="M-1097.611,260.9l-17.418.347v-2.334l17.418-.332Z" fill="#fff"/>
              </g>
            </g>
          </g>
          <path id="Trazado_149988" data-name="Trazado 149988" d="M-1018.556,273.493l-52.723,1.335V262.077l52.723-1.083Z" fill="#5691c3"/>
          <path id="Trazado_149989" data-name="Trazado 149989" d="M-965.479,272.149l-50.582,1.281V260.941l50.582-1.039Z" fill="#5691c3"/>
          <path id="Trazado_149990" data-name="Trazado 149990" d="M-1018.556,288.815l-52.723,1.645V277.7l52.723-1.392Z" fill="#5691c3"/>
          <path id="Trazado_149991" data-name="Trazado 149991" d="M-965.479,287.159l-50.582,1.578V276.25l50.582-1.336Z" fill="#5691c3"/>
          <path id="Trazado_149992" data-name="Trazado 149992" d="M-935.148,286.213l-14.045.438v-4.4l14.045-.414Z" fill="#6fb7da"/>
          <path id="Trazado_149993" data-name="Trazado 149993" d="M-935.148,274.114l-27.964.738V195.276l27.964.132Z" fill="#1b333e"/>
          <path id="Trazado_149994" data-name="Trazado 149994" d="M-935.148,280.163l-27.964.8v-4.751l27.964-.753Z" fill="#fff" opacity="0.68" style="isolation: isolate"/>
          <g id="Grupo_94136" data-name="Grupo 94136">
            <path id="Trazado_149995" data-name="Trazado 149995" d="M-957.422,202.1h-2.591a.637.637,0,0,1-.641-.631v-2.552a.632.632,0,0,1,.638-.626h0l2.591.01a.637.637,0,0,1,.639.629v2.541a.632.632,0,0,1-.635.629Z" fill="#5691c3"/>
            <g id="Grupo_94135" data-name="Grupo 94135" opacity="0.73">
              <path id="Trazado_149996" data-name="Trazado 149996" d="M-939.861,199.745l-15.7-.047v-1.391l15.7.056Z" fill="#fff" opacity="0.52" style="isolation: isolate"/>
              <path id="Trazado_149997" data-name="Trazado 149997" d="M-937.555,199.752h-1.4V198.37h1.4Z" fill="#fff" opacity="0.52" style="isolation: isolate"/>
              <path id="Trazado_149998" data-name="Trazado 149998" d="M-945.763,202.121l-9.8-.02V200.71l9.8.026Z" fill="#fff" opacity="0.52" style="isolation: isolate"/>
            </g>
          </g>
          <g id="Grupo_94138" data-name="Grupo 94138">
            <path id="Trazado_149999" data-name="Trazado 149999" d="M-957.422,208.68h-2.591a.634.634,0,0,1-.641-.627h0v-2.545a.632.632,0,0,1,.639-.627h2.593a.634.634,0,0,1,.639.628v2.541a.634.634,0,0,1-.637.631Z" fill="#5691c3"/>
            <g id="Grupo_94137" data-name="Grupo 94137" opacity="0.73">
              <rect id="Rectángulo_24308" data-name="Rectángulo 24308" width="15.698" height="1.387" transform="translate(-955.559 204.893)" fill="#fff" opacity="0.52" style="isolation: isolate"/>
              <rect id="Rectángulo_24309" data-name="Rectángulo 24309" width="1.396" height="1.382" transform="translate(-938.951 204.902)" fill="#fff" opacity="0.52" style="isolation: isolate"/>
              <rect id="Rectángulo_24310" data-name="Rectángulo 24310" width="9.796" height="1.388" transform="translate(-955.559 207.288)" fill="#fff" opacity="0.52" style="isolation: isolate"/>
            </g>
          </g>
          <g id="Grupo_94140" data-name="Grupo 94140">
            <path id="Trazado_150000" data-name="Trazado 150000" d="M-957.422,215.264l-2.591.008a.632.632,0,0,1-.641-.623V212.1a.636.636,0,0,1,.641-.629h2.591a.632.632,0,0,1,.639.625h0v2.541A.635.635,0,0,1-957.422,215.264Z" fill="#5691c3"/>
            <g id="Grupo_94139" data-name="Grupo 94139" opacity="0.73">
              <path id="Trazado_150001" data-name="Trazado 150001" d="M-939.861,212.821l-15.7.034v-1.387l15.7-.026Z" fill="#fff" opacity="0.52" style="isolation: isolate"/>
              <path id="Trazado_150002" data-name="Trazado 150002" d="M-937.555,212.817h-1.4v-1.382h1.4Z" fill="#fff" opacity="0.52" style="isolation: isolate"/>
              <path id="Trazado_150003" data-name="Trazado 150003" d="M-945.763,215.227l-9.8.03v-1.391l9.8-.025Z" fill="#fff" opacity="0.52" style="isolation: isolate"/>
            </g>
          </g>
          <g id="Grupo_102068" data-name="Grupo 102068" transform="translate(-1139.167 171.036)">
            <g id="Grupo_94141" data-name="Grupo 94141" transform="translate(67.711 24.166)">
              <path id="Trazado_150004" data-name="Trazado 150004" d="M1892.322,1852.5l-105.8,2.015V1791.2l105.8.5Z" transform="translate(-1786.527 -1791.202)" fill="url(#linear-gradient-16)"/>
            </g>
            <path id="Trazado_150005" data-name="Trazado 150005" d="M1821.988,1805.966v27.264l28.143-13.225Z" transform="translate(-1712.249 -1764.302)" fill="#fff" opacity="0.3"/>
          </g>
        </g>
      </g>
    </g>
    <g id="Grupo_94161" data-name="Grupo 94161">
      <g id="Grupo_94146" data-name="Grupo 94146">
        <path id="Trazado_150006" data-name="Trazado 150006" d="M-1008.126,382.706a.34.34,0,0,1-.339-.309l-6.183-66.816a.341.341,0,0,1,.288-.388.341.341,0,0,1,.388.288c0,.012,0,.025,0,.037l5.5,59.458V314.069a.34.34,0,0,1,.358-.322.34.34,0,0,1,.323.322v68.3a.34.34,0,0,1-.325.341Z" fill="#a7b2c3"/>
        <g id="Grupo_94145" data-name="Grupo 94145">
          <path id="Trazado_150007" data-name="Trazado 150007" d="M-939.183,321.378l-67.827-7.432-130.307,5.923,68.246,8.172Z" fill="#ced6e2"/>
          <path id="Trazado_150008" data-name="Trazado 150008" d="M-1069.07,328.042l129.887-6.664V324.6l-129.887,6.664-68.246-8.172V319.87Z" fill="#a7b2c3"/>
        </g>
        <path id="Trazado_150009" data-name="Trazado 150009" d="M-1068.609,406.014h-.013a.341.341,0,0,1-.328-.341v-75.19a.341.341,0,0,1,.341-.341.342.342,0,0,1,.342.341v66.452l5.2-66.479a.34.34,0,0,1,.366-.313.341.341,0,0,1,.314.366h0l-5.88,75.19A.341.341,0,0,1-1068.609,406.014Z" fill="#a7b2c3"/>
        <path id="Trazado_150010" data-name="Trazado 150010" d="M-1136.571,392.653h-.013a.341.341,0,0,1-.328-.34v-69.4a.341.341,0,0,1,.341-.341.342.342,0,0,1,.342.341v60.7l4.768-60.725a.339.339,0,0,1,.366-.313.341.341,0,0,1,.314.366h0l-5.449,69.4A.341.341,0,0,1-1136.571,392.653Z" fill="#a7b2c3"/>
        <path id="Trazado_150011" data-name="Trazado 150011" d="M-939.823,392.653a.34.34,0,0,1-.339-.313l-5.786-69.4a.34.34,0,0,1,.327-.354.341.341,0,0,1,.352.3l5.106,61.233V324.6a.34.34,0,0,1,.322-.358.34.34,0,0,1,.359.322v67.75a.34.34,0,0,1-.327.34Z" fill="#a7b2c3"/>
      </g>
      <g id="Grupo_94150" data-name="Grupo 94150">
        <path id="Trazado_150012" data-name="Trazado 150012" d="M-1088.609,384.946c-.113-.62-2.113-1.18-3.1-.351-.492.412-.831,1.247-.547,1.624.1.138-.32.379.087.384C-1090.825,386.618-1088.5,385.558-1088.609,384.946Z" fill="url(#linear-gradient-17)"/>
        <path id="Trazado_150013" data-name="Trazado 150013" d="M-1090.8,384.949l-2.075.1c.718-1.307-.146-4.863-.146-4.863l2.241.065s-.056,1.032-.192,2.566A9.652,9.652,0,0,0-1090.8,384.949Z" fill="url(#linear-gradient-18)"/>
        <path id="Trazado_150014" data-name="Trazado 150014" d="M-1090.523,384.918s-2.477-.571-2.745-.079-.475,1.808,1.1,1.765S-1090.383,385.33-1090.523,384.918Z" fill="url(#linear-gradient-19)"/>
        <path id="Trazado_150015" data-name="Trazado 150015" d="M-1075.973,387.469c-.2-.6-2.258-.873-3.122.087-.429.478-.648,1.351-.313,1.685.121.121-.264.42.138.368C-1077.933,389.435-1075.776,388.062-1075.973,387.469Z" fill="url(#linear-gradient-20)"/>
        <path id="Trazado_150016" data-name="Trazado 150016" d="M-1078.406,388.044l-2.039.4c.524-1.4-.842-4.792-.842-4.792l2.228-.256s.093,1.029.178,2.566A9.581,9.581,0,0,0-1078.406,388.044Z" fill="url(#linear-gradient-21)"/>
        <path id="Trazado_150017" data-name="Trazado 150017" d="M-1077.877,387.709s-2.532-.218-2.728.306-.219,1.856,1.331,1.594S-1077.677,388.1-1077.877,387.709Z" fill="url(#linear-gradient-22)"/>
        <g id="Grupo_94147" data-name="Grupo 94147">
          <path id="Trazado_150018" data-name="Trazado 150018" d="M-1088.708,325.65l8.751-20.5a1.8,1.8,0,0,0-.947-2.363,1.918,1.918,0,0,0-.286-.1l-16.03-3.893a1.8,1.8,0,0,0-2.093,1.07l-8.048,19.7a1.8,1.8,0,0,0,.988,2.346c.05.02.1.038.152.054l15.328,4.69A1.8,1.8,0,0,0-1088.708,325.65Z" fill="#223f1f"/>
          <path id="Trazado_150019" data-name="Trazado 150019" d="M-1089.1,324.664l8.174-19.147a1.685,1.685,0,0,0-.887-2.212,1.741,1.741,0,0,0-.264-.088l-14.973-3.636a1.682,1.682,0,0,0-1.954,1l-7.519,18.4a1.682,1.682,0,0,0,.921,2.2q.07.029.144.051l14.317,4.38A1.681,1.681,0,0,0-1089.1,324.664Z" fill="#eff3eb"/>
        </g>
        <path id="Trazado_150020" data-name="Trazado 150020" d="M-1084.056,319.036l.262-2.416,1.391-2.653a2.527,2.527,0,0,0,.289-1.171v-2.635l-1.681,3.886a12.659,12.659,0,0,0-1.523-1.208c-.42-.21-.368.63-.052.944s-.157,2.888.158,3.151l-.1,1.575Z" fill="url(#linear-gradient-23)"/>
        <path id="Trazado_150021" data-name="Trazado 150021" d="M-1097.394,303.651c-1.306-3.2-4.111-5.033-5.566-5.986-3.442-2.255-5.645-1.843-13.548-3.046-10.532-1.6-11.792-3.121-15.333-1.891-4.649,1.617-7.078,5.837-8.192,7.771-5.611,9.751.949,14.708-.735,34.132-.687,7.932-2.451,14.825,1.786,18.9a12.754,12.754,0,0,0,3.885,2.206c7.914,3.561,15.012,2.947,19.323,2.521,4.746-.47,7.144-.74,8.4-2.415,2.01-2.679-.059-6.082-.42-11.973-.259-4.229.7-7.58,2.625-14.283C-1100.694,314.008-1094.889,309.772-1097.394,303.651Z" fill="url(#linear-gradient-24)"/>
        <g id="Grupo_94149" data-name="Grupo 94149">
          <g id="Grupo_94148" data-name="Grupo 94148">
            <path id="Trazado_150022" data-name="Trazado 150022" d="M-1115.023,288.87a5.069,5.069,0,0,0-.543-3.63c-.774-1.428-.972-1.622-1.342-1.87l-.513-.317-.061-.023a5.944,5.944,0,0,0-1.678-.1c-.726.156-1.5,3.114-1.28,7.3-.03.159-.058.32-.086.483-.115.66-.2,1.307-.276,1.94-.066.606-.926.592-1.533.553-2.468-.158-3.675.052-3.781.42-.2.688,2.731,2.94,6.345,3.448,4.851.036,8.8-.481,8.374-1.244-.189-.339-3.947-1.322-5-2.295a3.233,3.233,0,0,1-.969-2.471C-1117.075,290.906-1115.375,290.129-1115.023,288.87Z" fill="url(#linear-gradient-25)"/>
            <path id="Trazado_150023" data-name="Trazado 150023" d="M-1115.915,281.866a4.866,4.866,0,0,1-.926,2.9,2.136,2.136,0,0,0-.469.512.64.64,0,0,0-.073.153c-.284.817,1.014,1.778.763,2.144-.182.266-1.064-.09-1.169.14-.1.214.634.661.523.92-.085.194-.537.017-.821.315-.142.148-.1.267-.25.721a4.124,4.124,0,0,1-.3.7c-.448.761-1.716,1.038-1.96.734-.069-.084-.01-.156-.079-.441a2.273,2.273,0,0,0-.248-.569,5.917,5.917,0,0,0-1.535-1.208,4.191,4.191,0,0,1-1.6-1.824c-.035-.088-.056-.154-.07-.2a4.81,4.81,0,0,1,.12-3.221c.719-1.445,2.342-.759,3.67-2.19,1.532-1.652.62-3.911,1.451-4.161C-1117.971,277.011-1115.907,279.469-1115.915,281.866Z" fill="#171d3e"/>
            <path id="Trazado_150024" data-name="Trazado 150024" d="M-1117.087,287.273c-.318-.436-.876-.026-.878.538s.544,1.152,1.074,1.041S-1116.659,287.859-1117.087,287.273Z" fill="url(#linear-gradient-26)"/>
          </g>
          <path id="Trazado_150025" data-name="Trazado 150025" d="M-1117.344,286.328l.737.958s.794,1.174,1.257.532c.379-.526.478-.514.5-.493l.007.011c.007,0-.056-.262-.111-.489a4.316,4.316,0,0,1,.63,1.352,2.389,2.389,0,0,1-.008,1.85,1.835,1.835,0,0,1-1.083.847,4.87,4.87,0,0,1-1.423-.141s1.259-.913,1.277-1.129c.052-.589-.766-.908-1.372-2.117A4.878,4.878,0,0,1-1117.344,286.328Z" fill="#171d3e"/>
        </g>
        <path id="Trazado_150026" data-name="Trazado 150026" d="M-1119.867,352.693c1.395-2.779-2.025-6.473.21-10.712,1.9-3.6,5.345-2.792,6.931-6.091,1.915-3.985-2.249-6.962-2.1-13.023.178-7.245,6.413-14.5,10.081-13.862,2.374.411,2.68,3.953,4.349,7.829a88.113,88.113,0,0,0-4.769,12.754c-1.924,6.7-2.885,10.054-2.625,14.282.36,5.891,2.43,9.294.419,11.973-1.257,1.676-3.656,1.945-8.4,2.415-4.312.427-11.409,1.041-19.323-2.521-1-.45-1.752-.788-2.363-1.121C-1125.094,356.475-1120.976,354.9-1119.867,352.693Z" opacity="0.3" fill="url(#linear-gradient-27)" style="isolation: isolate"/>
        <path id="Trazado_150027" data-name="Trazado 150027" d="M-1083.584,318.562l-2.31-1c-1.3,1.332-2.962,2.626-4.358,2.206-2.083-.626-1.562-4.456-4.1-11.184-2.872-7.623-6.13-9.583-7.771-10.292a3.524,3.524,0,0,0-2.311-.472c-3.5.856-4.658,9.977-3.675,16.8.553,3.846,1.637,11.386,7.824,14.966.879.508,5.715,3.308,10.5,1.1C-1085.69,328.809-1083.163,323.977-1083.584,318.562Z" fill="url(#linear-gradient-28)"/>
        <path id="Trazado_150028" data-name="Trazado 150028" d="M-1089.44,380.474l-3.84.427a25.808,25.808,0,0,1-5.689-9.957c-2.643-9,1.495-14.907-1.28-17.21-3.2-2.655-9.518,4.518-23.469,6.543-4.489.651-14.457,2.1-18.49-3.272a9.559,9.559,0,0,1-1.28-8.96c2.32-5.582,9.96-4.912,35.131-9.815,9.7-1.888,11.229-2.507,13.533-1.407C-1083.432,342.263-1088.183,373.015-1089.44,380.474Z" fill="url(#linear-gradient-29)"/>
        <path id="Trazado_150029" data-name="Trazado 150029" d="M-1078.014,384.093l-3.84.427a25.781,25.781,0,0,1-5.69-9.956c-2.642-9,1.494-14.907-1.28-17.21-3.2-2.655-9.518,4.518-23.468,6.542-4.49.652-14.457,2.1-18.49-3.271a9.556,9.556,0,0,1-1.28-8.96c2.319-5.583,9.96-4.912,35.131-9.814,9.7-1.888,11.228-2.507,13.531-1.407C-1072.007,345.883-1076.758,376.639-1078.014,384.093Z" fill="url(#linear-gradient-30)"/>
      </g>
      <g id="Grupo_94152" data-name="Grupo 94152">
        <ellipse id="Elipse_5020" data-name="Elipse 5020" cx="21.229" cy="8.664" rx="21.229" ry="8.664" transform="translate(-1143.063 390.873)" fill="url(#linear-gradient-31)"/>
        <path id="Trazado_150030" data-name="Trazado 150030" d="M-1143.063,398.521c0,4.517,9.505,8.179,21.23,8.179s21.229-3.662,21.229-8.179-9.505-11.908-21.229-11.908S-1143.063,394-1143.063,398.521Z" fill="url(#linear-gradient-32)"/>
        <path id="Trazado_150031" data-name="Trazado 150031" d="M-1143.063,398.521c0-4.517,9.505-11.908,21.23-11.908a28.814,28.814,0,0,1,14.1,3.718,3.1,3.1,0,0,1,.334,1.615c-.243,2.541-4.389,4.1-6.767,4.62-5.991,1.3-8.917-2.286-13.857-2.149-3.054.084-7.286,1.619-12.307,8.116C-1142.066,401.348-1143.063,399.98-1143.063,398.521Z" opacity="0.3" fill="url(#linear-gradient-33)" style="isolation: isolate"/>
        <path id="Trazado_150032" data-name="Trazado 150032" d="M-1123,390.715a4.807,4.807,0,0,0,2.383.014,1.536,1.536,0,0,0,1.139-1.493V365.3h-4.721v23.91A1.559,1.559,0,0,0-1123,390.715Z" fill="#fff"/>
        <path id="Trazado_150033" data-name="Trazado 150033" d="M-1123,390.715a4.807,4.807,0,0,0,2.383.014,1.536,1.536,0,0,0,1.139-1.493V365.3h-4.721v23.91A1.559,1.559,0,0,0-1123,390.715Z" opacity="0.65" fill="url(#linear-gradient-34)" style="isolation: isolate"/>
        <g id="Grupo_94151" data-name="Grupo 94151">
          <path id="Trazado_150034" data-name="Trazado 150034" d="M-1096.89,355.224l-7.212-4.559c-.3-1.7-3.7-19.518-17.5-25.113-5.612-2.274-11.651-2.005-14.966-1.857-6.615.3-11.336.507-13.606,3.663-2.914,4.052,1.974,7.727.962,19.32-.414,4.728-1.463,6.828-.155,9.959,1.567,3.751,5.2,5.831,8.022,7a41.111,41.111,0,0,0,17.019,5.434,42.357,42.357,0,0,0,26.2-6.61,4.323,4.323,0,0,0,2.932-3.245A3.811,3.811,0,0,0-1096.89,355.224Z" fill="#092b4c"/>
        </g>
        <path id="Trazado_150035" data-name="Trazado 150035" d="M-1100.206,358.469c-.267-1.6-4.735-.274-8.961-3.413-6.317-4.693-3.039-12.642-8.533-20.268-5.043-7-15.2-10.561-18.348-7.894-4.2,3.549,6.071,16.823,0,25.389-2.95,4.16-7.444,3.96-7.468,6.4-.037,3.855,11.149,8.3,21.762,8.107C-1110.345,366.581-1099.783,361.015-1100.206,358.469Z" fill="#fff" opacity="0.26" style="isolation: isolate"/>
      </g>
      <g id="Grupo_94158" data-name="Grupo 94158">
        <g id="Grupo_94155" data-name="Grupo 94155">
          <g id="Grupo_94154" data-name="Grupo 94154">
            <path id="Trazado_150036" data-name="Trazado 150036" d="M-966.657,322.664l-46.6-.346v1.025a.562.562,0,0,0,.478.558l13.178,2.021a2.138,2.138,0,0,0,.473.019l31.968-2.3a.545.545,0,0,0,.506-.544Z" fill="url(#linear-gradient-35)"/>
            <g id="Grupo_94153" data-name="Grupo 94153">
              <path id="Trazado_150037" data-name="Trazado 150037" d="M-983.569,320.968l-29.21,1.877a.839.839,0,0,1-.941-.725c0-.025-.005-.05-.006-.075V303.057a.906.906,0,0,1,.947-.858h29.21a.777.777,0,0,1,.779.775h0v17.165A.841.841,0,0,1-983.569,320.968Z" fill="url(#linear-gradient-36)"/>
              <path id="Trazado_150038" data-name="Trazado 150038" d="M-983.1,320.968l-29.21,1.877a.839.839,0,0,1-.941-.725q0-.037-.006-.075V303.057a.906.906,0,0,1,.947-.858h29.21a.778.778,0,0,1,.778.775v17.165A.84.84,0,0,1-983.1,320.968Z" fill="#223f24"/>
              <path id="Trazado_150039" data-name="Trazado 150039" d="M-984.014,319.758l-27.206,1.631a.688.688,0,0,1-.766-.6.5.5,0,0,1,0-.054V304.11a.742.742,0,0,1,.77-.7l27.206-.1a.639.639,0,0,1,.642.632v15.145A.689.689,0,0,1-984.014,319.758Z" fill="#eef4eb"/>
              <path id="Trazado_150040" data-name="Trazado 150040" d="M-996.677,302.721a.336.336,0,0,1-.32.352.335.335,0,0,1-.351-.32.335.335,0,0,1,.319-.351h.016A.329.329,0,0,1-996.677,302.721Z" fill="#fff"/>
              <path id="Trazado_150041" data-name="Trazado 150041" d="M-990.022,315.77c-2.264-1.1-4.044.294-5.761-1.084-1.041-.836-.53-1.458-1.811-2.707-1.419-1.383-2.343-.918-3.769-2.163-1.8-1.574-.9-2.8-2.454-3.929-1.885-1.371-3.917-.1-5.71-1.418a3.884,3.884,0,0,1-1.42-2.267h-1.755a.532.532,0,0,0-.557.5v19.7a.492.492,0,0,0,.513.472l.044,0,29.921-1.922a.487.487,0,0,0,.36-.2,7.128,7.128,0,0,1-4.4-1.423C-988.5,317.979-988.208,316.654-990.022,315.77Z" fill="#fff" opacity="0.48" style="isolation: isolate"/>
            </g>
            <path id="Trazado_150042" data-name="Trazado 150042" d="M-981.94,320.916l-31.321,1.976,13.656,2.094a2.078,2.078,0,0,0,.473.019l32.474-2.341-14.784-1.735A2.862,2.862,0,0,0-981.94,320.916Z" fill="#223f24"/>
            <path id="Trazado_150043" data-name="Trazado 150043" d="M-1008.69,322.908l26.076-1.669,8.07.939-25.851,1.785Z" fill="#d5e2ce" opacity="0.47" style="isolation: isolate"/>
          </g>
        </g>
        <path id="Trazado_150044" data-name="Trazado 150044" d="M-976.006,382.651s-6.85.475-6.951.923,4.651,2.176,6.31,2.241,3.026-.427,2.875-1.129-.731-2.472-.731-2.472Z" fill="url(#linear-gradient-37)"/>
        <path id="Trazado_150045" data-name="Trazado 150045" d="M-976.331,379.606l-.121,3.233a2.5,2.5,0,0,0,1.869.25l.92-3.408Z" fill="url(#linear-gradient-38)"/>
        <path id="Trazado_150046" data-name="Trazado 150046" d="M-995.167,381.347s-6.852.475-6.952.923,4.651,2.176,6.31,2.24,3.026-.425,2.875-1.128-.731-2.473-.731-2.473Z" fill="url(#linear-gradient-39)"/>
        <path id="Trazado_150047" data-name="Trazado 150047" d="M-995.49,378.3l-.122,3.233a2.5,2.5,0,0,0,1.869.25l.921-3.408Z" fill="url(#linear-gradient-40)"/>
        <path id="Trazado_150048" data-name="Trazado 150048" d="M-977.059,380.063l3.84.427a25.811,25.811,0,0,0,5.69-9.957c2.66-9.057-1.192-15.585,1.28-17.21,3.5-2.3,11.083,10.939,23.256,10.6,4.995-.14,11.513-2.586,14.018-7.912.378-.8,2.237-5.015.427-8.961-1.868-4.075-11.135-5.848-29.594-9.229-7.923-1.451-11.924-2.174-13.531-1.407C-983.067,341.851-978.316,372.6-977.059,380.063Z" fill="url(#linear-gradient-41)"/>
        <path id="Trazado_150049" data-name="Trazado 150049" d="M-996.6,380.117l3.973.691c1.608-2.369,4.042-6.08,6.764-10.79,5.673-9.817,5.57-11.81,8.192-13.075,5.55-2.674,9.743,4.551,23.469,6.543,4.49.652,14.457,2.1,18.49-3.272a9.565,9.565,0,0,0,1.28-8.96c-2.321-5.582-9.96-4.913-35.131-9.815-9.817-1.911-11.155-2.252-13.532-1.407C-996.379,344.755-996.638,373.668-996.6,380.117Z" fill="url(#linear-gradient-42)"/>
        <path id="Trazado_150050" data-name="Trazado 150050" d="M-969.1,303.239c1.307-3.2,4.111-5.034,5.567-5.986a12.134,12.134,0,0,1,2.082-1.113,28.244,28.244,0,0,1,11.464-1.933c2.275.171,7.893.591,12.057,4.2,2.015,1.745,3.625,4.183,5.974,17.921,3.275,19.16.617,17.2,3.2,24.962,1.367,4.109,3.5,8.823,1.245,11.835-.728.972-1.767,1.251-3.886,2.2-7.915,3.561-15.011,2.949-19.323,2.521-4.745-.469-7.143-.739-8.4-2.416-2.009-2.678.059-6.081.421-11.971.258-4.23-.7-7.581-2.626-14.283C-965.8,313.6-971.608,309.361-969.1,303.239Z" fill="url(#linear-gradient-43)"/>
        <path id="Trazado_150051" data-name="Trazado 150051" d="M-991.407,322.319l-5.057-.973a3.081,3.081,0,0,0-1.1-.01l-4.375.752a11.976,11.976,0,0,0,5.262.785,9.794,9.794,0,0,1,5.059,1Z" fill="url(#linear-gradient-44)"/>
        <g id="Grupo_94157" data-name="Grupo 94157">
          <g id="Grupo_94156" data-name="Grupo 94156">
            <path id="Trazado_150052" data-name="Trazado 150052" d="M-957.917,290.666c-.851-1.285.422-3.757.926-4.736.018-.033.04-.077.088-.165.773-1.427.972-1.622,1.341-1.869l.513-.318.06-.023a5.912,5.912,0,0,1,1.679-.1c.727.154,1.5,3.113,1.279,7.3.03.16.059.32.087.482q.171.99.276,1.942c.068.606.926.591,1.534.552,2.468-.158,3.675.053,3.781.421.2.688-2.73,2.94-6.345,3.446-4.851.037-8.8-.479-8.372-1.244.187-.339,3.947-1.322,5-2.3a3.234,3.234,0,0,0,.969-2.47C-955.6,291.611-957.269,291.646-957.917,290.666Z" fill="url(#linear-gradient-45)"/>
            <path id="Trazado_150053" data-name="Trazado 150053" d="M-956.556,282.39c-.4.88.569,2.647.926,2.9a2.156,2.156,0,0,1,.469.512.683.683,0,0,1,.074.154c.284.817-1.015,1.778-.763,2.143.181.265,1.064-.089,1.169.14s-.634.661-.522.92c.084.2.536.016.82.315a1.093,1.093,0,0,1,.251.722c.034,1.16-2.6,5.354-3.147,7.245-.581,2.006.46,3.916,4.238,9.193,5.377,7.506,8.065,11.259,9.56,12.332,7.3,5.243,15.892,4.6,19.415,4.055,4.231-.658,12.972-2.016,15.788-8.748,3.236-7.738-3.136-18.328-9.672-20.126-2.989-.822-4.581.427-8.462-.924-4.288-1.492-3.769-4.13-7.738-5.688-5.294-2.079-8.71,1.637-12.318-1.069-1.963-1.472-1.639-3.088-4.054-4.267C-952.9,281.039-956.033,281.237-956.556,282.39Z" fill="#171d3e"/>
            <path id="Trazado_150054" data-name="Trazado 150054" d="M-955.384,287.8c.318-.436.876-.026.88.538s-.544,1.152-1.075,1.041S-955.812,288.385-955.384,287.8Z" fill="url(#linear-gradient-46)"/>
          </g>
        </g>
        <path id="Trazado_150055" data-name="Trazado 150055" d="M-946.63,352.284c-1.4-2.781,2.024-6.475-.21-10.712-1.9-3.6-5.346-2.793-6.932-6.092-1.914-3.984,2.25-6.962,2.1-13.022-.179-7.246-6.413-14.5-10.083-13.863-2.374.411-2.678,3.953-4.349,7.831a88.108,88.108,0,0,1,4.769,12.754c1.924,6.7,2.885,10.053,2.627,14.283-.361,5.89-2.43,9.294-.421,11.971,1.259,1.677,3.656,1.946,8.4,2.416,4.312.427,11.409,1.04,19.323-2.52,1-.452,1.752-.789,2.364-1.122C-941.405,356.064-945.523,354.488-946.63,352.284Z" opacity="0.3" fill="url(#linear-gradient-47)" style="isolation: isolate"/>
        <path id="Trazado_150056" data-name="Trazado 150056" d="M-992.694,323.791l.43-1.937c9.716,1.742,13.965-.213,16.018-2.5,1.883-2.1,1.081-3.181,4.1-11.185,2.872-7.624,6.13-9.583,7.771-10.292a3.513,3.513,0,0,1,2.31-.473c3.5.856,4.658,9.978,3.677,16.8-.554,3.845-1.639,11.386-7.825,14.965-.114.065-.294.169-.531.3-.78.417-3.874,1.906-9.971.806C-983.907,328.985-990.92,324.865-992.694,323.791Z" fill="url(#linear-gradient-48)"/>
      </g>
      <g id="Grupo_94160" data-name="Grupo 94160">
        <ellipse id="Elipse_5021" data-name="Elipse 5021" cx="21.229" cy="8.664" rx="21.229" ry="8.664" transform="translate(-968.934 387.403)" fill="url(#linear-gradient-49)"/>
        <path id="Trazado_150057" data-name="Trazado 150057" d="M-926.475,395.051c0,4.517-9.5,8.179-21.229,8.179s-21.229-3.662-21.229-8.179,9.5-11.907,21.229-11.907S-926.475,390.535-926.475,395.051Z" fill="url(#linear-gradient-50)"/>
        <path id="Trazado_150058" data-name="Trazado 150058" d="M-926.476,395.051c0-4.517-9.5-11.907-21.229-11.907a28.8,28.8,0,0,0-14.1,3.718,3.076,3.076,0,0,0-.335,1.615c.244,2.541,4.389,4.1,6.769,4.619,5.991,1.3,8.917-2.285,13.857-2.147,3.054.084,7.287,1.619,12.306,8.116C-927.471,397.879-926.476,396.51-926.476,395.051Z" opacity="0.3" fill="url(#linear-gradient-51)" style="isolation: isolate"/>
        <path id="Trazado_150059" data-name="Trazado 150059" d="M-946.541,387.246a4.827,4.827,0,0,1-2.385.014,1.533,1.533,0,0,1-1.139-1.493V361.829h4.721v23.91A1.564,1.564,0,0,1-946.541,387.246Z" fill="#fff"/>
        <path id="Trazado_150060" data-name="Trazado 150060" d="M-946.541,387.246a4.827,4.827,0,0,1-2.385.014,1.533,1.533,0,0,1-1.139-1.493V361.829h4.721v23.91A1.564,1.564,0,0,1-946.541,387.246Z" opacity="0.65" fill="url(#linear-gradient-52)" style="isolation: isolate"/>
        <g id="Grupo_94159" data-name="Grupo 94159">
          <path id="Trazado_150061" data-name="Trazado 150061" d="M-972.648,351.751l7.212-4.559c.3-1.7,3.7-19.519,17.5-25.113,5.613-2.274,11.653-2.005,14.966-1.857,6.617.3,11.336.508,13.606,3.664,2.916,4.052-1.973,7.727-.961,19.32.412,4.728,1.463,6.828.155,9.959-1.567,3.751-5.2,5.831-8.024,7a41.112,41.112,0,0,1-17.018,5.434,42.354,42.354,0,0,1-26.2-6.61,4.321,4.321,0,0,1-2.932-3.245A3.81,3.81,0,0,1-972.648,351.751Z" fill="#092b4c"/>
        </g>
        <path id="Trazado_150062" data-name="Trazado 150062" d="M-969.331,355c.266-1.6,4.733-.274,8.96-3.413,6.318-4.693,3.039-12.642,8.535-20.268,5.043-7,15.2-10.561,18.348-7.895,4.2,3.55-6.073,16.824,0,25.389,2.95,4.16,7.444,3.96,7.467,6.4.037,3.855-11.148,8.3-21.761,8.107C-959.193,363.111-969.754,357.545-969.331,355Z" fill="#fff" opacity="0.26" style="isolation: isolate"/>
      </g>
    </g>
  </g>
</svg>
