<svg id="Grupo_100795" data-name="Grupo 100795" xmlns="http://www.w3.org/2000/svg" width="78.562" height="76.181" viewBox="0 0 78.562 76.181">
  <g id="g14650" transform="translate(0 0)">
    <path id="rect14644" d="M341.667,150h73.8v71.42h-73.8Z" transform="translate(-339.286 -147.619)" fill="#262000"/>
    <g id="g14648" transform="translate(0 0)">
      <path id="path14646" d="M398.8,138.094v66.658H329.761V138.094H398.8m4.761-4.761H325v76.181h78.561Z" transform="translate(-325 -133.333)" fill="#ffda00"/>
    </g>
  </g>
  <path id="path14652" d="M447.976,281.543c-.238-.119-.119-.357-.119-.6v-5c0-.119,0-.357.238-.119a12.827,12.827,0,0,0,7.618,2.381c3.809,0,5.356-2.024,5.356-4.285,0-2.024-1.071-3.571-4.642-5.714l-1.9-.952c-5.356-2.976-7.023-6.071-7.023-10.118,0-5.356,3.69-9.642,10.713-9.642a16.567,16.567,0,0,1,7.023,1.19c.238.119.476.238.476.6v4.761c0,.238-.357.357-.6.238a13.309,13.309,0,0,0-6.785-1.547c-4.047,0-5.356,2.262-5.356,4.166,0,2.024.952,3.452,4.642,5.476l1.667.833c5.952,3.333,7.5,6.547,7.5,10.475,0,5.833-4.166,9.88-11.07,9.88a18.005,18.005,0,0,1-7.737-2.024ZM491.9,269.164c0,9.523-6.428,14.165-13.094,14.165a9.194,9.194,0,0,1-1.19-.119v7.142c0,.238-.357.357-.6.357l-4.88.476c-.357,0-.476-.119-.476-.357v-29.4c0-.6-.119-2.143-.119-2.857,0-.119-.119-.238,0-.238a28.169,28.169,0,0,1,9.047-1.785C487.852,256.546,491.9,261.9,491.9,269.164ZM477.615,261.9v16.189c0,.119.833.238,1.428.238,3.571,0,7.142-2.5,7.142-8.808,0-5.119-2.143-7.975-6.071-7.975-1.071,0-2.5.119-2.5.357Z" transform="translate(-430.002 -231.192)" fill="#ffda00"/>
</svg>
