<svg id="Grupo_102106" data-name="Grupo 102106" xmlns="http://www.w3.org/2000/svg" xmlns:xlink="http://www.w3.org/1999/xlink" width="77.989" height="76.037" viewBox="0 0 77.989 76.037">
  <defs>
    <radialGradient id="radial-gradient" cx="0.33" cy="0.224" r="0.781" gradientTransform="translate(-0.173 -0.116) scale(0.973 0.968)" gradientUnits="objectBoundingBox">
      <stop offset="0" stop-color="#423325" stop-opacity="0.98"/>
      <stop offset="1" stop-color="#1c0a00"/>
    </radialGradient>
  </defs>
  <path id="Trazado_161392" data-name="Trazado 161392" d="M132.171,142.23h71.477v69.54H132.171Z" transform="translate(-128.923 -138.982)" fill="url(#radial-gradient)"/>
  <path id="Trazado_161393" data-name="Trazado 161393" d="M124.739,134.8h71.477v69.54H124.739Zm-3.248,72.789H199.48V131.55H121.491Zm51.082-48.927c0-.266.094-.39.391-.39h5.107c.266,0,.39.094.39.39V184.3c0,.266-.062.391-.39.391h-5.044c-.328,0-.422-.156-.422-.422V158.66Zm-.359-7.387a3.311,3.311,0,0,1,6.622,0,3.1,3.1,0,0,1-3.373,3.311A3.042,3.042,0,0,1,172.214,151.274ZM157.6,169.342c-.906-3.607-3.061-11.462-3.873-15.273h-.063c-.687,3.795-2.4,10.229-3.764,15.273ZM148.57,174.6l-2.561,9.745c-.062.266-.156.328-.484.328h-4.778c-.328,0-.391-.094-.328-.484l9.229-32.3a10.647,10.647,0,0,0,.328-2.7c0-.234.094-.328.266-.328h6.824c.234,0,.328.062.391.328l10.338,35.059c.062.266,0,.422-.266.422h-5.388c-.266,0-.422-.063-.484-.3l-2.67-9.776Z" transform="translate(-121.491 -131.55)" fill="#ff7f18"/>
</svg>
