<svg id="Grupo_100887" data-name="Grupo 100887" xmlns="http://www.w3.org/2000/svg" xmlns:xlink="http://www.w3.org/1999/xlink" width="75.873" height="73.987" viewBox="0 0 75.873 73.987">
  <defs>
    <radialGradient id="radial-gradient" cx="0.33" cy="0.224" r="0.781" gradientTransform="translate(-0.222 -0.149) scale(0.973 0.968)" gradientUnits="objectBoundingBox">
      <stop offset="0" stop-color="#34364e" stop-opacity="0.98"/>
      <stop offset="1" stop-color="#0c0824"/>
    </radialGradient>
  </defs>
  <path id="Trazado_161394" data-name="Trazado 161394" d="M155.5,165.249h69.562v67.662H155.5Z" transform="translate(-152.338 -162.086)" fill="url(#radial-gradient)"/>
  <path id="Trazado_161395" data-name="Trazado 161395" d="M150.115,159.863h69.563v67.662H150.115Zm-3.163,70.825h75.872V156.7H146.952Zm51.164-43.623c-2.493,0-3.345,1.262-3.345,2.311,0,1.141.563,1.931,3.923,3.665,4.957,2.4,6.508,4.713,6.508,8.089,0,5.063-3.862,7.785-9.077,7.785a13.719,13.719,0,0,1-6.477-1.353c-.228-.091-.259-.259-.259-.5v-4.668c0-.319.152-.411.38-.259a11.785,11.785,0,0,0,6.355,1.87c2.494,0,3.543-1.049,3.543-2.463,0-1.14-.73-2.144-3.923-3.8-4.485-2.144-6.356-4.318-6.356-7.967,0-4.075,3.193-7.466,8.728-7.466a14.545,14.545,0,0,1,5.656.882.689.689,0,0,1,.319.639v4.333c0,.259-.152.411-.471.319a10.746,10.746,0,0,0-5.5-1.414ZM170.93,190.82c.73.061,1.292.061,2.554.061,3.695,0,7.177-1.292,7.177-6.325,0-4.014-2.494-6.036-6.705-6.036-1.262,0-2.463.061-3.041.091l.015,12.21Zm-5.641-16.786c0-.228.441-.38.7-.38,2.022-.091,5.033-.152,8.15-.152,8.758,0,12.179,4.8,12.179,10.932,0,8.028-5.824,11.48-12.97,11.48-1.2,0-1.612-.061-2.463-.061v12.134c0,.259-.091.38-.38.38h-4.835c-.259,0-.38-.091-.38-.38V174.034Z" transform="translate(-146.952 -156.7)" fill="#31c5f0"/>
</svg>
