<svg id="Grupo_100806" data-name="Grupo 100806" xmlns="http://www.w3.org/2000/svg" xmlns:xlink="http://www.w3.org/1999/xlink" width="75.387" height="73.375" viewBox="0 0 75.387 73.375">
  <defs>
    <clipPath id="clip-path">
      <path id="Trazado_161179" data-name="Trazado 161179" d="M42.864,33.625l2.474-7.267L69.3,3.474,85.849,18.937,61.419,43.212l-6.8,1.855Z" transform="translate(-42.864 -3.474)" fill="none"/>
    </clipPath>
    <clipPath id="clip-path-2">
      <path id="Trazado_161304" data-name="Trazado 161304" d="M76.3,7.537c-1.778,6.147,8.581,17.813,16.885,15.269l3.247-3.247L80.506,3.942l-4.214,3.6Z" transform="translate(-76.099 -3.942)" fill="none"/>
    </clipPath>
    <clipPath id="clip-path-3">
      <path id="Trazado_161373" data-name="Trazado 161373" d="M44.257,37.965c-1.314,7.268,5.605,16.05,15.347,14.96l-23.58,8.234Z" transform="translate(-36.023 -37.965)" fill="none"/>
    </clipPath>
  </defs>
  <g id="Grupo_100868" data-name="Grupo 100868" transform="translate(0 24.833)">
    <g id="Grupo_100856" data-name="Grupo 100856">
      <g id="a">
        <g id="b">
          <g id="c" transform="translate(0 17.168)">
            <g id="d">
              <circle id="Elipse_5287" data-name="Elipse 5287" cx="3.842" cy="3.842" r="3.842" transform="translate(3.259 3.26)" fill="#fff"/>
              <path id="Trazado_161034" data-name="Trazado 161034" d="M7.305,75.026a7.1,7.1,0,1,1,7.1-7.1A7.109,7.109,0,0,1,7.305,75.026Zm0-7.684a.582.582,0,1,0,.582.582A.582.582,0,0,0,7.305,67.342Z" transform="translate(-0.205 -60.822)"/>
            </g>
            <g id="Grupo_100845" data-name="Grupo 100845" transform="translate(3.926 1.122)">
              <path id="Trazado_161035" data-name="Trazado 161035" d="M44.988,67.3H10.82v5.44H44.988" transform="translate(-7.56 -64.036)" fill="#fff"/>
              <rect id="Rectángulo_24409" data-name="Rectángulo 24409" width="37.428" height="11.96"/>
            </g>
            <g id="Grupo_100846" data-name="Grupo 100846" transform="translate(34.338)">
              <g id="d-2" data-name="d">
                <circle id="Elipse_5288" data-name="Elipse 5288" cx="3.842" cy="3.842" r="3.842" transform="translate(3.259 3.26)" fill="#fff"/>
                <path id="Trazado_161036" data-name="Trazado 161036" d="M58.032,75.026a7.1,7.1,0,1,1,7.1-7.1A7.11,7.11,0,0,1,58.032,75.026Zm0-7.684a.582.582,0,1,0,.582.582A.581.581,0,0,0,58.032,67.342Z" transform="translate(-50.931 -60.822)"/>
              </g>
            </g>
          </g>
          <g id="Grupo_100849" data-name="Grupo 100849" transform="translate(17.169)">
            <g id="c-2" data-name="c">
              <g id="d-3" data-name="d">
                <circle id="Elipse_5289" data-name="Elipse 5289" cx="3.842" cy="3.842" r="3.842" transform="translate(3.259 3.26)" fill="#fff"/>
                <path id="Trazado_161037" data-name="Trazado 161037" d="M32.668,49.663a7.1,7.1,0,1,1,7.1-7.1A7.109,7.109,0,0,1,32.668,49.663Zm0-7.685a.583.583,0,1,0,.583.583A.583.583,0,0,0,32.668,41.979Z" transform="translate(-25.568 -35.46)"/>
              </g>
              <g id="Grupo_100847" data-name="Grupo 100847" transform="translate(1.122 3.927)">
                <path id="Trazado_161038" data-name="Trazado 161038" d="M37.479,80.244V46.076h-5.44V80.244" transform="translate(-28.78 -42.817)" fill="#fff"/>
                <rect id="Rectángulo_24410" data-name="Rectángulo 24410" width="11.958" height="37.427"/>
              </g>
              <g id="Grupo_100848" data-name="Grupo 100848" transform="translate(0 34.338)">
                <g id="d-4" data-name="d">
                  <circle id="Elipse_5290" data-name="Elipse 5290" cx="3.842" cy="3.842" r="3.842" transform="translate(3.259 3.26)" fill="#fff"/>
                  <path id="Trazado_161039" data-name="Trazado 161039" d="M32.668,100.389a7.1,7.1,0,1,1,7.1-7.1A7.109,7.109,0,0,1,32.668,100.389Zm0-7.684a.582.582,0,1,0,.583.582A.583.583,0,0,0,32.668,92.706Z" transform="translate(-25.568 -86.186)"/>
                </g>
              </g>
            </g>
          </g>
        </g>
        <g id="Grupo_100855" data-name="Grupo 100855" transform="translate(5.028 5.032)">
          <g id="b-2" data-name="b">
            <g id="c-3" data-name="c" transform="translate(0.003)">
              <g id="d-5" data-name="d">
                <circle id="Elipse_5291" data-name="Elipse 5291" cx="3.842" cy="3.842" r="3.842" transform="translate(3.257 3.256)" fill="#fff"/>
                <path id="Trazado_161040" data-name="Trazado 161040" d="M14.735,57.093a7.1,7.1,0,1,1,5.022-2.08A7.05,7.05,0,0,1,14.735,57.093Zm0-7.684a.582.582,0,0,0-.412.994.506.506,0,0,0,.823,0,.583.583,0,0,0-.412-1Z" transform="translate(-7.637 -42.893)"/>
              </g>
              <g id="Grupo_100850" data-name="Grupo 100850" transform="translate(0.626 0.625)">
                <path id="Trazado_161041" data-name="Trazado 161041" d="M43.378,74.787l-24.16-24.16-3.846,3.846,24.16,24.161" transform="translate(-10.761 -46.017)" fill="#fff"/>
                <rect id="Rectángulo_24411" data-name="Rectángulo 24411" width="11.959" height="37.429" transform="translate(0 8.456) rotate(-44.998)"/>
              </g>
              <g id="Grupo_100851" data-name="Grupo 100851" transform="translate(24.278 24.278)">
                <g id="d-6" data-name="d" transform="translate(0)">
                  <circle id="Elipse_5292" data-name="Elipse 5292" cx="3.842" cy="3.842" r="3.842" transform="translate(3.259 3.259)" fill="#fff"/>
                  <path id="Trazado_161042" data-name="Trazado 161042" d="M50.6,92.96a7.1,7.1,0,1,1,5.021-12.123h0A7.1,7.1,0,0,1,50.6,92.96Zm0-7.684a.574.574,0,0,0-.412.17.58.58,0,0,0-.171.414.57.57,0,0,0,.17.409.506.506,0,0,0,.824,0,.58.58,0,0,0,0-.825h0A.572.572,0,0,0,50.6,85.276Z" transform="translate(-43.502 -78.758)"/>
                </g>
              </g>
            </g>
            <g id="Grupo_100854" data-name="Grupo 100854" transform="translate(0 9.031)">
              <g id="c-4" data-name="c" transform="translate(0 0)">
                <g id="Grupo_100852" data-name="Grupo 100852" transform="translate(2.933)">
                  <path id="Trazado_161043" data-name="Trazado 161043" d="M19.217,81.546l18.06-18.061-3.846-3.846L15.371,77.7" transform="translate(-13.066 -57.334)" fill="#fff"/>
                  <rect id="Rectángulo_24412" data-name="Rectángulo 24412" width="25.541" height="11.96" transform="translate(0 18.06) rotate(-45)"/>
                </g>
                <g id="Grupo_100853" data-name="Grupo 100853" transform="translate(0 15.247)">
                  <g id="d-7" data-name="d">
                    <circle id="Elipse_5293" data-name="Elipse 5293" cx="3.842" cy="3.842" r="3.842" transform="translate(3.259 3.259)" fill="#fff"/>
                    <path id="Trazado_161044" data-name="Trazado 161044" d="M14.734,92.96a7.1,7.1,0,1,1,5.02-2.078A7.05,7.05,0,0,1,14.734,92.96Zm0-7.684a.574.574,0,0,0-.412.17.58.58,0,0,0-.171.414.57.57,0,0,0,.17.409.507.507,0,0,0,.825,0v0a.583.583,0,0,0-.413-.992Z" transform="translate(-7.633 -78.758)"/>
                  </g>
                </g>
              </g>
            </g>
          </g>
        </g>
      </g>
    </g>
    <g id="a-2" data-name="a" transform="translate(3.259 3.26)">
      <g id="b-3" data-name="b">
        <g id="c-5" data-name="c" transform="translate(0 17.169)">
          <g id="d-8" data-name="d">
            <circle id="Elipse_5294" data-name="Elipse 5294" cx="3.842" cy="3.842" r="3.842" fill="#fff"/>
          </g>
          <g id="Grupo_100857" data-name="Grupo 100857" transform="translate(3.927 1.122)">
            <path id="Trazado_161045" data-name="Trazado 161045" d="M44.988,67.3H10.82v5.44H44.988" transform="translate(-10.82 -67.296)" fill="#fff"/>
          </g>
          <g id="Grupo_100858" data-name="Grupo 100858" transform="translate(34.338)">
            <g id="d-9" data-name="d">
              <circle id="Elipse_5295" data-name="Elipse 5295" cx="3.842" cy="3.842" r="3.842" fill="#fff"/>
            </g>
          </g>
        </g>
        <g id="Grupo_100861" data-name="Grupo 100861" transform="translate(17.169)">
          <g id="c-6" data-name="c">
            <g id="d-10" data-name="d">
              <circle id="Elipse_5296" data-name="Elipse 5296" cx="3.842" cy="3.842" r="3.842" fill="#fff"/>
            </g>
            <g id="Grupo_100859" data-name="Grupo 100859" transform="translate(1.122 3.927)">
              <path id="Trazado_161046" data-name="Trazado 161046" d="M37.479,80.244V46.076h-5.44V80.244" transform="translate(-32.039 -46.076)" fill="#fff"/>
            </g>
            <g id="Grupo_100860" data-name="Grupo 100860" transform="translate(0 34.338)">
              <g id="d-11" data-name="d">
                <circle id="Elipse_5297" data-name="Elipse 5297" cx="3.842" cy="3.842" r="3.842" fill="#fff"/>
              </g>
            </g>
          </g>
        </g>
      </g>
      <g id="Grupo_100867" data-name="Grupo 100867" transform="translate(5.029 5.029)">
        <g id="b-4" data-name="b">
          <g id="c-7" data-name="c">
            <g id="d-12" data-name="d">
              <circle id="Elipse_5298" data-name="Elipse 5298" cx="3.842" cy="3.842" r="3.842" fill="#fff"/>
            </g>
            <g id="Grupo_100862" data-name="Grupo 100862" transform="translate(1.979 1.979)">
              <path id="Trazado_161047" data-name="Trazado 161047" d="M43.378,74.787l-24.16-24.16-3.846,3.846,24.16,24.161" transform="translate(-15.371 -50.627)" fill="#fff"/>
            </g>
            <g id="Grupo_100863" data-name="Grupo 100863" transform="translate(24.281 24.281)">
              <g id="d-13" data-name="d">
                <circle id="Elipse_5299" data-name="Elipse 5299" cx="3.842" cy="3.842" r="3.842" fill="#fff"/>
              </g>
            </g>
          </g>
          <g id="Grupo_100866" data-name="Grupo 100866" transform="translate(0 8.557)">
            <g id="c-8" data-name="c">
              <g id="Grupo_100864" data-name="Grupo 100864" transform="translate(1.979)">
                <path id="Trazado_161048" data-name="Trazado 161048" d="M19.217,81.774,36.8,64.19l-3.846-3.846L15.371,77.927" transform="translate(-15.371 -60.344)" fill="#fff"/>
              </g>
              <g id="Grupo_100865" data-name="Grupo 100865" transform="translate(0 15.724)">
                <g id="d-14" data-name="d">
                  <circle id="Elipse_5300" data-name="Elipse 5300" cx="3.842" cy="3.842" r="3.842" fill="#fff"/>
                </g>
              </g>
            </g>
          </g>
        </g>
      </g>
    </g>
  </g>
  <g id="Grupo_100871" data-name="Grupo 100871" transform="translate(28.877 3.181)">
    <g id="Grupo_100870" data-name="Grupo 100870">
      <g id="Grupo_100869" data-name="Grupo 100869" clip-path="url(#clip-path)">
        <path id="Trazado_161049" data-name="Trazado 161049" d="M60.977,54.055,91.7,31.293V54.055Z" transform="translate(-48.716 -12.461)" fill="#ff7f00"/>
        <path id="Trazado_161050" data-name="Trazado 161050" d="M60.6,53.965,91.579,31.014V31.2L60.856,53.965Z" transform="translate(-48.594 -12.371)" fill="#ff7f00"/>
        <path id="Trazado_161051" data-name="Trazado 161051" d="M60.223,53.874l31.235-23.14v.189L60.478,53.874Z" transform="translate(-48.472 -12.281)" fill="#ff8000"/>
        <path id="Trazado_161052" data-name="Trazado 161052" d="M59.845,53.784l31.49-23.33v.189L60.1,53.784Z" transform="translate(-48.35 -12.19)" fill="#ff8100"/>
        <path id="Trazado_161053" data-name="Trazado 161053" d="M59.468,53.694,91.213,30.175v.189l-31.49,23.33Z" transform="translate(-48.228 -12.1)" fill="#ff8200"/>
        <path id="Trazado_161054" data-name="Trazado 161054" d="M59.09,53.6l32-23.708v.189L59.346,53.6Z" transform="translate(-48.106 -12.01)" fill="#ff8300"/>
        <path id="Trazado_161055" data-name="Trazado 161055" d="M58.713,53.513l32.257-23.9V29.8l-32,23.708Z" transform="translate(-47.984 -11.919)" fill="#ff8400"/>
        <path id="Trazado_161056" data-name="Trazado 161056" d="M58.335,53.423,90.848,29.336v.189l-32.257,23.9Z" transform="translate(-47.862 -11.829)" fill="#ff8500"/>
        <path id="Trazado_161057" data-name="Trazado 161057" d="M57.958,53.332,90.726,29.056v.189L58.213,53.332Z" transform="translate(-47.74 -11.739)" fill="#ff8600"/>
        <path id="Trazado_161058" data-name="Trazado 161058" d="M57.58,53.242,90.6,28.776v.189L57.836,53.242Z" transform="translate(-47.618 -11.648)" fill="#ff8700"/>
        <path id="Trazado_161059" data-name="Trazado 161059" d="M57.2,53.152,90.482,28.5v.189L57.458,53.152Z" transform="translate(-47.496 -11.558)" fill="#f80"/>
        <path id="Trazado_161060" data-name="Trazado 161060" d="M56.825,53.061,90.36,28.217v.189L57.081,53.061Z" transform="translate(-47.374 -11.468)" fill="#ff8900"/>
        <path id="Trazado_161061" data-name="Trazado 161061" d="M56.448,52.971l33.79-25.033v.189L56.7,52.971Z" transform="translate(-47.253 -11.377)" fill="#ff8a00"/>
        <path id="Trazado_161062" data-name="Trazado 161062" d="M56.071,52.881,90.116,27.658v.189L56.326,52.881Z" transform="translate(-47.131 -11.287)" fill="#ff8b00"/>
        <path id="Trazado_161063" data-name="Trazado 161063" d="M55.693,52.79l34.3-25.412v.189L55.949,52.79Z" transform="translate(-47.009 -11.197)" fill="#ff8c00"/>
        <path id="Trazado_161064" data-name="Trazado 161064" d="M55.622,52.7l-.087-.11L89.943,27.1v.189L55.642,52.7Z" transform="translate(-46.958 -11.106)" fill="#ff8d00"/>
        <path id="Trazado_161065" data-name="Trazado 161065" d="M55.49,52.5,55.4,52.38,89.9,26.819v.189Z" transform="translate(-46.912 -11.016)" fill="#ff8e00"/>
        <path id="Trazado_161066" data-name="Trazado 161066" d="M55.35,52.29l-.094-.119,34.6-25.631v.189Z" transform="translate(-46.867 -10.926)" fill="#ff8f00"/>
        <path id="Trazado_161067" data-name="Trazado 161067" d="M55.211,52.08l-.094-.119,34.691-25.7v.189Z" transform="translate(-46.822 -10.835)" fill="#ff9000"/>
        <path id="Trazado_161068" data-name="Trazado 161068" d="M55.071,51.871l-.094-.119L89.762,25.98v.189Z" transform="translate(-46.777 -10.745)" fill="#ff9100"/>
        <path id="Trazado_161069" data-name="Trazado 161069" d="M54.932,51.661l-.094-.119L89.717,25.7v.189Z" transform="translate(-46.732 -10.655)" fill="#ff9200"/>
        <path id="Trazado_161070" data-name="Trazado 161070" d="M54.792,51.47l-.094-.119L89.62,25.478l.053.067v.084Z" transform="translate(-46.687 -10.583)" fill="#ff9300"/>
        <path id="Trazado_161071" data-name="Trazado 161071" d="M89.575,25.422,89.48,25.3,54.558,51.174l.094.119Z" transform="translate(-46.642 -10.526)" fill="#ff9400"/>
        <path id="Trazado_161072" data-name="Trazado 161072" d="M89.435,25.245l-.094-.119L54.419,51l.094.119Z" transform="translate(-46.597 -10.469)" fill="#ff9500"/>
        <path id="Trazado_161073" data-name="Trazado 161073" d="M89.3,25.069,89.2,24.95,54.279,50.822l.094.119Z" transform="translate(-46.552 -10.412)" fill="#ff9600"/>
        <path id="Trazado_161074" data-name="Trazado 161074" d="M89.156,24.893l-.094-.119L54.139,50.646l.094.119Z" transform="translate(-46.507 -10.355)" fill="#ff9700"/>
        <path id="Trazado_161075" data-name="Trazado 161075" d="M89.016,24.717l-.094-.119L54,50.469l.094.119Z" transform="translate(-46.462 -10.298)" fill="#ff9800"/>
        <path id="Trazado_161076" data-name="Trazado 161076" d="M88.877,24.54l-.094-.119L53.86,50.293l.094.119Z" transform="translate(-46.417 -10.241)" fill="#f90"/>
        <path id="Trazado_161077" data-name="Trazado 161077" d="M88.737,24.364l-.094-.119L53.721,50.117l.094.119Z" transform="translate(-46.371 -10.184)" fill="#ff9a00"/>
        <path id="Trazado_161078" data-name="Trazado 161078" d="M88.6,24.188l-.094-.119L53.581,49.941l.094.119Z" transform="translate(-46.326 -10.127)" fill="#ff9b00"/>
        <path id="Trazado_161079" data-name="Trazado 161079" d="M88.458,24.012l-.094-.119L53.442,49.764l.094.119Z" transform="translate(-46.281 -10.07)" fill="#ff9c00"/>
        <path id="Trazado_161080" data-name="Trazado 161080" d="M88.319,23.835l-.094-.119L53.3,49.588l.094.119Z" transform="translate(-46.236 -10.014)" fill="#ff9d00"/>
        <path id="Trazado_161081" data-name="Trazado 161081" d="M88.179,23.659l-.094-.119L53.162,49.412l.094.119Z" transform="translate(-46.191 -9.957)" fill="#ff9e00"/>
        <path id="Trazado_161082" data-name="Trazado 161082" d="M88.039,23.483l-.094-.119L53.023,49.236l.094.119Z" transform="translate(-46.146 -9.9)" fill="#ff9f00"/>
        <path id="Trazado_161083" data-name="Trazado 161083" d="M87.9,23.307l-.094-.119L52.883,49.059l.094.119Z" transform="translate(-46.101 -9.843)" fill="#ffa000"/>
        <path id="Trazado_161084" data-name="Trazado 161084" d="M87.76,23.13l-.094-.119L52.744,48.883l.094.119Z" transform="translate(-46.056 -9.786)" fill="#ffa100"/>
        <path id="Trazado_161085" data-name="Trazado 161085" d="M87.621,22.954l-.094-.119L52.6,48.707l.094.119Z" transform="translate(-46.011 -9.729)" fill="#ffa200"/>
        <path id="Trazado_161086" data-name="Trazado 161086" d="M87.481,22.778l-.094-.119L52.465,48.531l.094.119Z" transform="translate(-45.966 -9.672)" fill="#ffa300"/>
        <path id="Trazado_161087" data-name="Trazado 161087" d="M87.342,22.6l-.094-.119L52.325,48.355l.094.119Z" transform="translate(-45.921 -9.615)" fill="#ffa400"/>
        <path id="Trazado_161088" data-name="Trazado 161088" d="M87.2,22.425l-.094-.119L52.186,48.178l.094.119Z" transform="translate(-45.875 -9.558)" fill="orange"/>
        <path id="Trazado_161089" data-name="Trazado 161089" d="M87.062,22.249l-.094-.119L52.046,48l.094.119Z" transform="translate(-45.83 -9.501)" fill="#ffa600"/>
        <path id="Trazado_161090" data-name="Trazado 161090" d="M86.923,22.073l-.094-.119L51.906,47.826l.094.119Z" transform="translate(-45.785 -9.444)" fill="#ffa700"/>
        <path id="Trazado_161091" data-name="Trazado 161091" d="M86.783,21.9l-.094-.119L51.767,47.65l.094.119Z" transform="translate(-45.74 -9.387)" fill="#ffa800"/>
        <path id="Trazado_161092" data-name="Trazado 161092" d="M86.644,21.72l-.094-.119L51.627,47.473l.094.119Z" transform="translate(-45.695 -9.33)" fill="#ffa900"/>
        <path id="Trazado_161093" data-name="Trazado 161093" d="M86.5,21.544l-.094-.119L51.488,47.3l.094.119Z" transform="translate(-45.65 -9.273)" fill="#fa0"/>
        <path id="Trazado_161094" data-name="Trazado 161094" d="M86.365,21.368l-.094-.119L51.348,47.121l.094.119Z" transform="translate(-45.605 -9.216)" fill="#ffab00"/>
        <path id="Trazado_161095" data-name="Trazado 161095" d="M86.225,21.192l-.094-.119L51.209,46.945l.094.119Z" transform="translate(-45.56 -9.159)" fill="#ffac00"/>
        <path id="Trazado_161096" data-name="Trazado 161096" d="M86.086,21.015l-.094-.119L51.069,46.768l.094.119Z" transform="translate(-45.515 -9.102)" fill="#ffad00"/>
        <path id="Trazado_161097" data-name="Trazado 161097" d="M85.946,20.839l-.094-.119L50.93,46.592l.094.119Z" transform="translate(-45.47 -9.046)" fill="#ffae00"/>
        <path id="Trazado_161098" data-name="Trazado 161098" d="M85.806,20.663l-.094-.119L50.79,46.416l.094.119Z" transform="translate(-45.425 -8.989)" fill="#ffaf00"/>
        <path id="Trazado_161099" data-name="Trazado 161099" d="M85.667,20.487l-.094-.119L50.65,46.24l.094.119Z" transform="translate(-45.38 -8.932)" fill="#ffb000"/>
        <path id="Trazado_161100" data-name="Trazado 161100" d="M85.527,20.31l-.094-.119L50.511,46.063l.094.119Z" transform="translate(-45.334 -8.875)" fill="#ffb100"/>
        <path id="Trazado_161101" data-name="Trazado 161101" d="M85.388,20.134l-.094-.119L50.371,45.887l.094.119Z" transform="translate(-45.289 -8.818)" fill="#ffb200"/>
        <path id="Trazado_161102" data-name="Trazado 161102" d="M85.248,19.958l-.094-.119L50.232,45.711l.094.119Z" transform="translate(-45.244 -8.761)" fill="#ffb300"/>
        <path id="Trazado_161103" data-name="Trazado 161103" d="M85.109,19.782l-.094-.119L50.092,45.535l.094.119Z" transform="translate(-45.199 -8.704)" fill="#ffb400"/>
        <path id="Trazado_161104" data-name="Trazado 161104" d="M84.969,19.605l-.094-.119L49.953,45.358l.094.119Z" transform="translate(-45.154 -8.647)" fill="#ffb500"/>
        <path id="Trazado_161105" data-name="Trazado 161105" d="M84.829,19.429l-.094-.119L49.813,45.182l.094.119Z" transform="translate(-45.109 -8.59)" fill="#ffb600"/>
        <path id="Trazado_161106" data-name="Trazado 161106" d="M84.69,19.253l-.094-.119L49.673,45.006l.094.119Z" transform="translate(-45.064 -8.533)" fill="#ffb700"/>
        <path id="Trazado_161107" data-name="Trazado 161107" d="M84.55,19.077l-.094-.119L49.534,44.83l.094.119Z" transform="translate(-45.019 -8.476)" fill="#ffb800"/>
        <path id="Trazado_161108" data-name="Trazado 161108" d="M84.411,18.9l-.094-.119L49.394,44.653l.094.119Z" transform="translate(-44.974 -8.419)" fill="#ffb900"/>
        <path id="Trazado_161109" data-name="Trazado 161109" d="M84.271,18.724l-.094-.119L49.255,44.477l.094.119Z" transform="translate(-44.929 -8.362)" fill="#ffba00"/>
        <path id="Trazado_161110" data-name="Trazado 161110" d="M84.132,18.548l-.094-.119L49.115,44.3l.094.119Z" transform="translate(-44.884 -8.305)" fill="#fb0"/>
        <path id="Trazado_161111" data-name="Trazado 161111" d="M83.992,18.372l-.094-.119L48.976,44.125l.094.119Z" transform="translate(-44.838 -8.248)" fill="#ffbc00"/>
        <path id="Trazado_161112" data-name="Trazado 161112" d="M83.853,18.2l-.094-.119L48.836,43.948l.094.119Z" transform="translate(-44.793 -8.191)" fill="#ffbd00"/>
        <path id="Trazado_161113" data-name="Trazado 161113" d="M83.713,18.019l-.094-.119L48.7,43.772l.094.119Z" transform="translate(-44.748 -8.135)" fill="#ffbe00"/>
        <path id="Trazado_161114" data-name="Trazado 161114" d="M83.573,17.843l-.094-.119L48.557,43.6l.094.119Z" transform="translate(-44.703 -8.078)" fill="#ffc000"/>
        <path id="Trazado_161115" data-name="Trazado 161115" d="M83.434,17.667l-.094-.119L48.417,43.42l.094.119Z" transform="translate(-44.658 -8.021)" fill="#ffc100"/>
        <path id="Trazado_161116" data-name="Trazado 161116" d="M83.294,17.491l-.094-.119L48.278,43.243l.094.119Z" transform="translate(-44.613 -7.964)" fill="#ffc200"/>
        <path id="Trazado_161117" data-name="Trazado 161117" d="M83.155,17.314,83.06,17.2,48.138,43.067l.094.119Z" transform="translate(-44.568 -7.907)" fill="#ffc300"/>
        <path id="Trazado_161118" data-name="Trazado 161118" d="M83.015,17.138l-.094-.119L48,42.891l.094.119Z" transform="translate(-44.523 -7.85)" fill="#ffc400"/>
        <path id="Trazado_161119" data-name="Trazado 161119" d="M82.876,16.962l-.094-.119L47.859,42.715l.094.119Z" transform="translate(-44.478 -7.793)" fill="#ffc500"/>
        <path id="Trazado_161120" data-name="Trazado 161120" d="M82.736,16.786l-.094-.119L47.72,42.538l.094.119Z" transform="translate(-44.433 -7.736)" fill="#ffc600"/>
        <path id="Trazado_161121" data-name="Trazado 161121" d="M82.6,16.609,82.5,16.49,47.58,42.362l.094.119Z" transform="translate(-44.388 -7.679)" fill="#ffc700"/>
        <path id="Trazado_161122" data-name="Trazado 161122" d="M82.457,16.433l-.094-.119L47.44,42.186l.094.119Z" transform="translate(-44.342 -7.622)" fill="#ffc800"/>
        <path id="Trazado_161123" data-name="Trazado 161123" d="M82.317,16.257l-.094-.119L47.3,42.01l.094.119Z" transform="translate(-44.297 -7.565)" fill="#ffc900"/>
        <path id="Trazado_161124" data-name="Trazado 161124" d="M82.178,16.081l-.094-.119L47.161,41.834l.094.119Z" transform="translate(-44.252 -7.508)" fill="#ffca00"/>
        <path id="Trazado_161125" data-name="Trazado 161125" d="M82.038,15.9l-.094-.119L47.022,41.657l.094.119Z" transform="translate(-44.207 -7.451)" fill="#ffcb00"/>
        <path id="Trazado_161126" data-name="Trazado 161126" d="M81.9,15.728l-.094-.119L46.882,41.481l.094.119Z" transform="translate(-44.162 -7.394)" fill="#fc0"/>
        <path id="Trazado_161127" data-name="Trazado 161127" d="M81.759,15.552l-.094-.119L46.743,41.3l.094.119Z" transform="translate(-44.117 -7.337)" fill="#ffcd00"/>
        <path id="Trazado_161128" data-name="Trazado 161128" d="M81.62,15.376l-.094-.119L46.6,41.129l.094.119Z" transform="translate(-44.072 -7.28)" fill="#ffce00"/>
        <path id="Trazado_161129" data-name="Trazado 161129" d="M81.48,15.2l-.094-.119L46.464,40.952l.094.119Z" transform="translate(-44.027 -7.224)" fill="#ffcf00"/>
        <path id="Trazado_161130" data-name="Trazado 161130" d="M81.34,15.023l-.094-.119L46.324,40.776l.094.119Z" transform="translate(-43.982 -7.167)" fill="#ffd000"/>
        <path id="Trazado_161131" data-name="Trazado 161131" d="M81.2,14.847l-.094-.119L46.184,40.6l.094.119Z" transform="translate(-43.937 -7.11)" fill="#ffd100"/>
        <path id="Trazado_161132" data-name="Trazado 161132" d="M81.061,14.671l-.094-.119L46.045,40.424l.094.119Z" transform="translate(-43.892 -7.053)" fill="#ffd200"/>
        <path id="Trazado_161133" data-name="Trazado 161133" d="M80.922,14.494l-.094-.119L45.905,40.247l.094.119Z" transform="translate(-43.847 -6.996)" fill="#ffd300"/>
        <path id="Trazado_161134" data-name="Trazado 161134" d="M80.782,14.318l-.094-.119L45.766,40.071l.094.119Z" transform="translate(-43.801 -6.939)" fill="#ffd400"/>
        <path id="Trazado_161135" data-name="Trazado 161135" d="M80.643,14.142l-.094-.119L45.626,39.895l.094.119Z" transform="translate(-43.756 -6.882)" fill="#ffd500"/>
        <path id="Trazado_161136" data-name="Trazado 161136" d="M80.5,13.966l-.094-.119L45.487,39.719l.094.119Z" transform="translate(-43.711 -6.825)" fill="#ffd600"/>
        <path id="Trazado_161137" data-name="Trazado 161137" d="M80.364,13.789l-.094-.119L45.347,39.542l.094.119Z" transform="translate(-43.666 -6.768)" fill="gold"/>
        <path id="Trazado_161138" data-name="Trazado 161138" d="M80.224,13.613l-.094-.119L45.208,39.366l.094.119Z" transform="translate(-43.621 -6.711)" fill="#ffd800"/>
        <path id="Trazado_161139" data-name="Trazado 161139" d="M80.084,13.437l-.094-.119L45.068,39.19l.094.119Z" transform="translate(-43.576 -6.654)" fill="#ffd900"/>
        <path id="Trazado_161140" data-name="Trazado 161140" d="M79.945,13.261l-.094-.119L44.928,39.014l.094.119Z" transform="translate(-43.531 -6.597)" fill="#ffda00"/>
        <path id="Trazado_161141" data-name="Trazado 161141" d="M79.805,13.084l-.094-.119L44.789,38.837l.094.119Z" transform="translate(-43.486 -6.54)" fill="#ffdb00"/>
        <path id="Trazado_161142" data-name="Trazado 161142" d="M79.666,12.908l-.094-.119L44.649,38.661l.094.119Z" transform="translate(-43.441 -6.483)" fill="#ffdc00"/>
        <path id="Trazado_161143" data-name="Trazado 161143" d="M79.526,12.732l-.094-.119L44.51,38.485l.094.119Z" transform="translate(-43.396 -6.426)" fill="#fd0"/>
        <path id="Trazado_161144" data-name="Trazado 161144" d="M79.387,12.556l-.094-.119L44.37,38.309l.094.119Z" transform="translate(-43.351 -6.369)" fill="#ffde00"/>
        <path id="Trazado_161145" data-name="Trazado 161145" d="M79.247,12.379l-.094-.119L44.231,38.132l.094.119Z" transform="translate(-43.305 -6.313)" fill="#ffdf00"/>
        <path id="Trazado_161146" data-name="Trazado 161146" d="M79.107,12.2l-.094-.119L44.091,37.956l.094.119Z" transform="translate(-43.26 -6.256)" fill="#ffe000"/>
        <path id="Trazado_161147" data-name="Trazado 161147" d="M78.968,12.027l-.094-.119L43.951,37.78l.094.119Z" transform="translate(-43.215 -6.199)" fill="#ffe100"/>
        <path id="Trazado_161148" data-name="Trazado 161148" d="M78.828,11.851l-.094-.119L43.812,37.6l.094.119Z" transform="translate(-43.17 -6.142)" fill="#ffe200"/>
        <path id="Trazado_161149" data-name="Trazado 161149" d="M78.689,11.675l-.094-.119L43.672,37.427l.094.119Z" transform="translate(-43.125 -6.085)" fill="#ffe300"/>
        <path id="Trazado_161150" data-name="Trazado 161150" d="M78.549,11.5l-.094-.119L43.533,37.251l.094.119Z" transform="translate(-43.08 -6.028)" fill="#ffe400"/>
        <path id="Trazado_161151" data-name="Trazado 161151" d="M78.41,11.322l-.094-.119L43.393,37.075l.094.119Z" transform="translate(-43.035 -5.971)" fill="#ffe500"/>
        <path id="Trazado_161152" data-name="Trazado 161152" d="M78.27,11.146l-.094-.119L43.254,36.9l.094.119Z" transform="translate(-42.99 -5.914)" fill="#ffe600"/>
        <path id="Trazado_161153" data-name="Trazado 161153" d="M78.131,10.97l-.094-.119L43.114,36.722l.094.119Z" transform="translate(-42.945 -5.857)" fill="#ffe700"/>
        <path id="Trazado_161154" data-name="Trazado 161154" d="M77.991,10.793l-.094-.119L42.975,36.546l.094.119Z" transform="translate(-42.9 -5.8)" fill="#ffe800"/>
        <path id="Trazado_161155" data-name="Trazado 161155" d="M42.939,36.489l-.075-.094v-.04L77.766,10.5l.094.119Z" transform="translate(-42.864 -5.743)" fill="#ffe900"/>
        <path id="Trazado_161156" data-name="Trazado 161156" d="M42.864,36.109,77.672,10.322l.094.119L42.864,36.3Z" transform="translate(-42.864 -5.686)" fill="#ffea00"/>
        <path id="Trazado_161157" data-name="Trazado 161157" d="M42.864,35.863,77.577,10.145l.094.119L42.864,36.052Z" transform="translate(-42.864 -5.629)" fill="#ffeb00"/>
        <path id="Trazado_161158" data-name="Trazado 161158" d="M42.864,35.617,77.483,9.969l.094.119L42.864,35.806Z" transform="translate(-42.864 -5.572)" fill="#ffec00"/>
        <path id="Trazado_161159" data-name="Trazado 161159" d="M42.864,35.37,77.388,9.793l.094.119L42.864,35.56Z" transform="translate(-42.864 -5.515)" fill="#ffed00"/>
        <path id="Trazado_161160" data-name="Trazado 161160" d="M42.864,35.124,77.294,9.617l.094.119L42.864,35.313Z" transform="translate(-42.864 -5.458)" fill="#fe0"/>
        <path id="Trazado_161161" data-name="Trazado 161161" d="M42.864,34.878,77.2,9.44l.094.119L42.864,35.067Z" transform="translate(-42.864 -5.402)" fill="#ffef00"/>
        <path id="Trazado_161162" data-name="Trazado 161162" d="M42.864,34.632,77.105,9.264l.094.119L42.864,34.821Z" transform="translate(-42.864 -5.345)" fill="#fff000"/>
        <path id="Trazado_161163" data-name="Trazado 161163" d="M42.864,34.385l34.146-25.3.094.119L42.864,34.575Z" transform="translate(-42.864 -5.288)" fill="#fff100"/>
        <path id="Trazado_161164" data-name="Trazado 161164" d="M42.864,34.139,76.916,8.912l.094.119-34.146,25.3Z" transform="translate(-42.864 -5.231)" fill="#fff200"/>
        <path id="Trazado_161165" data-name="Trazado 161165" d="M42.864,33.893,76.822,8.735l.094.119L42.864,34.082Z" transform="translate(-42.864 -5.174)" fill="#fff300"/>
        <path id="Trazado_161166" data-name="Trazado 161166" d="M42.864,33.647,76.727,8.559l.094.119L42.864,33.836Z" transform="translate(-42.864 -5.117)" fill="#fff400"/>
        <path id="Trazado_161167" data-name="Trazado 161167" d="M42.864,33.4,76.633,8.383l.094.119L42.864,33.59Z" transform="translate(-42.864 -5.06)" fill="#fff500"/>
        <path id="Trazado_161168" data-name="Trazado 161168" d="M42.864,33.154,76.538,8.207l.094.119L42.864,33.344Z" transform="translate(-42.864 -5.003)" fill="#fff600"/>
        <path id="Trazado_161169" data-name="Trazado 161169" d="M42.864,32.908,76.444,8.03l.094.119L42.864,33.1Z" transform="translate(-42.864 -4.946)" fill="#fff700"/>
        <path id="Trazado_161170" data-name="Trazado 161170" d="M42.864,32.662,76.349,7.854l.094.119L42.864,32.851Z" transform="translate(-42.864 -4.889)" fill="#fff800"/>
        <path id="Trazado_161171" data-name="Trazado 161171" d="M42.864,32.416,76.255,7.678l.094.119L42.864,32.6Z" transform="translate(-42.864 -4.832)" fill="#fff900"/>
        <path id="Trazado_161172" data-name="Trazado 161172" d="M42.864,32.169,76.16,7.5l.094.119L42.864,32.359Z" transform="translate(-42.864 -4.775)" fill="#fffa00"/>
        <path id="Trazado_161173" data-name="Trazado 161173" d="M42.864,31.923l33.2-24.6.094.119-33.3,24.668Z" transform="translate(-42.864 -4.718)" fill="#fffb00"/>
        <path id="Trazado_161174" data-name="Trazado 161174" d="M42.864,31.677,75.971,7.149l.094.119-33.2,24.6Z" transform="translate(-42.864 -4.661)" fill="#fffc00"/>
        <path id="Trazado_161175" data-name="Trazado 161175" d="M42.864,31.431,75.877,6.973l.094.119L42.864,31.62Z" transform="translate(-42.864 -4.604)" fill="#fffd00"/>
        <path id="Trazado_161176" data-name="Trazado 161176" d="M42.864,31.184,75.782,6.8l.094.119L42.864,31.374Z" transform="translate(-42.864 -4.547)" fill="#fffe00"/>
        <path id="Trazado_161177" data-name="Trazado 161177" d="M42.864,30.938,75.688,6.62l.094.119L42.864,31.127Z" transform="translate(-42.864 -4.49)" fill="#ff0"/>
        <path id="Trazado_161178" data-name="Trazado 161178" d="M74,3.474,75.688,5.6,42.864,29.922V3.474Z" transform="translate(-42.864 -3.474)" fill="#ff0"/>
      </g>
    </g>
  </g>
  <g id="Grupo_100874" data-name="Grupo 100874" transform="translate(51.375 3.497)">
    <g id="Grupo_100873" data-name="Grupo 100873">
      <g id="Grupo_100872" data-name="Grupo 100872" clip-path="url(#clip-path-2)">
        <path id="Trazado_161180" data-name="Trazado 161180" d="M80.2,3.942l5.045,4.916-9.526,8.725-1.946-1.9V3.942Z" transform="translate(-75.346 -3.942)" fill="#e0e0e0"/>
        <path id="Trazado_161181" data-name="Trazado 161181" d="M76.644,19.93l.1.1,9.526-8.725-.1-.1Z" transform="translate(-76.275 -6.288)" fill="#e0e0e0"/>
        <path id="Trazado_161182" data-name="Trazado 161182" d="M76.8,20.079l.1.1,9.526-8.725-.1-.1Z" transform="translate(-76.324 -6.337)" fill="#dfdfdf"/>
        <path id="Trazado_161183" data-name="Trazado 161183" d="M76.95,20.228l.1.1L86.579,11.6l-.1-.1Z" transform="translate(-76.374 -6.385)" fill="#dedede"/>
        <path id="Trazado_161184" data-name="Trazado 161184" d="M77.1,20.377l.1.1,9.526-8.725-.1-.1Z" transform="translate(-76.423 -6.433)" fill="#ddd"/>
        <path id="Trazado_161185" data-name="Trazado 161185" d="M77.256,20.526l.1.1L86.885,11.9l-.1-.1Z" transform="translate(-76.472 -6.481)" fill="#dcdcdc"/>
        <path id="Trazado_161186" data-name="Trazado 161186" d="M77.409,20.675l.1.1,9.526-8.725-.1-.1Z" transform="translate(-76.522 -6.529)" fill="#dbdbdb"/>
        <path id="Trazado_161187" data-name="Trazado 161187" d="M77.562,20.824l.1.1L87.191,12.2l-.1-.1Z" transform="translate(-76.571 -6.577)" fill="#dadada"/>
        <path id="Trazado_161188" data-name="Trazado 161188" d="M77.715,20.973l.1.1,9.526-8.725-.1-.1Z" transform="translate(-76.621 -6.625)" fill="#d9d9d9"/>
        <path id="Trazado_161189" data-name="Trazado 161189" d="M77.868,21.122l.1.1L87.5,12.5l-.1-.1Z" transform="translate(-76.67 -6.674)" fill="#d8d8d8"/>
        <path id="Trazado_161190" data-name="Trazado 161190" d="M78.021,21.271l.1.1,9.526-8.725-.1-.1Z" transform="translate(-76.719 -6.722)" fill="#d7d7d7"/>
        <path id="Trazado_161191" data-name="Trazado 161191" d="M78.174,21.42l.1.1L87.8,12.8l-.1-.1Z" transform="translate(-76.769 -6.77)" fill="#d6d6d6"/>
        <path id="Trazado_161192" data-name="Trazado 161192" d="M78.327,21.569l.1.1,9.526-8.725-.1-.1Z" transform="translate(-76.818 -6.818)" fill="#d5d5d5"/>
        <path id="Trazado_161193" data-name="Trazado 161193" d="M78.48,21.718l.1.1,9.526-8.725-.1-.1Z" transform="translate(-76.868 -6.866)" fill="#d4d4d4"/>
        <path id="Trazado_161194" data-name="Trazado 161194" d="M78.633,21.867l.1.1,9.526-8.725-.1-.1Z" transform="translate(-76.917 -6.914)" fill="#d3d3d3"/>
        <path id="Trazado_161195" data-name="Trazado 161195" d="M78.785,22.016l.1.1,9.526-8.725-.1-.1Z" transform="translate(-76.967 -6.963)" fill="#d2d2d2"/>
        <path id="Trazado_161196" data-name="Trazado 161196" d="M78.938,22.165l.1.1,9.526-8.725-.1-.1Z" transform="translate(-77.016 -7.011)" fill="#d1d1d1"/>
        <path id="Trazado_161197" data-name="Trazado 161197" d="M79.091,22.314l.1.1,9.526-8.725-.1-.1Z" transform="translate(-77.065 -7.059)" fill="#d0d0d0"/>
        <path id="Trazado_161198" data-name="Trazado 161198" d="M79.244,22.464l.1.1,9.526-8.725-.1-.1Z" transform="translate(-77.115 -7.107)" fill="#cfcfcf"/>
        <path id="Trazado_161199" data-name="Trazado 161199" d="M79.4,22.613l.1.1,9.526-8.725-.1-.1Z" transform="translate(-77.164 -7.155)" fill="#cecece"/>
        <path id="Trazado_161200" data-name="Trazado 161200" d="M79.55,22.762l.1.1,9.526-8.725-.1-.1Z" transform="translate(-77.214 -7.203)" fill="#cdcdcd"/>
        <path id="Trazado_161201" data-name="Trazado 161201" d="M79.7,22.911l.1.1,9.526-8.725-.1-.1Z" transform="translate(-77.263 -7.252)" fill="#ccc"/>
        <path id="Trazado_161202" data-name="Trazado 161202" d="M79.856,23.06l.1.1,9.526-8.725-.1-.1Z" transform="translate(-77.313 -7.3)" fill="#cbcbcb"/>
        <path id="Trazado_161203" data-name="Trazado 161203" d="M80.009,23.209l.1.1,9.526-8.725-.1-.1Z" transform="translate(-77.362 -7.348)" fill="#cacaca"/>
        <path id="Trazado_161204" data-name="Trazado 161204" d="M80.162,23.358l.1.1,9.526-8.725-.1-.1Z" transform="translate(-77.411 -7.396)" fill="#c9c9c9"/>
        <path id="Trazado_161205" data-name="Trazado 161205" d="M80.315,23.507l.1.1,9.526-8.725-.1-.1Z" transform="translate(-77.461 -7.444)" fill="#c8c8c8"/>
        <path id="Trazado_161206" data-name="Trazado 161206" d="M80.468,23.656l.1.1L90.1,15.032l-.1-.1Z" transform="translate(-77.51 -7.492)" fill="#c7c7c7"/>
        <path id="Trazado_161207" data-name="Trazado 161207" d="M80.621,23.805l.1.1,9.526-8.725-.1-.1Z" transform="translate(-77.56 -7.54)" fill="#c6c6c6"/>
        <path id="Trazado_161208" data-name="Trazado 161208" d="M80.774,23.954l.1.1L90.4,15.33l-.1-.1Z" transform="translate(-77.609 -7.589)" fill="#c5c5c5"/>
        <path id="Trazado_161209" data-name="Trazado 161209" d="M80.927,24.1l.1.1,9.526-8.725-.1-.1Z" transform="translate(-77.658 -7.637)" fill="#c4c4c4"/>
        <path id="Trazado_161210" data-name="Trazado 161210" d="M81.08,24.252l.1.1,9.526-8.725-.1-.1Z" transform="translate(-77.708 -7.685)" fill="#c3c3c3"/>
        <path id="Trazado_161211" data-name="Trazado 161211" d="M81.233,24.4l.1.1,9.526-8.725-.1-.1Z" transform="translate(-77.757 -7.733)" fill="#c2c2c2"/>
        <path id="Trazado_161212" data-name="Trazado 161212" d="M81.386,24.55l.1.1,9.526-8.725-.1-.1Z" transform="translate(-77.807 -7.781)" fill="#c1c1c1"/>
        <path id="Trazado_161213" data-name="Trazado 161213" d="M81.539,24.7l.1.1,9.526-8.725-.1-.1Z" transform="translate(-77.856 -7.829)" fill="silver"/>
        <path id="Trazado_161214" data-name="Trazado 161214" d="M81.692,24.849l.1.1,9.526-8.725-.1-.1Z" transform="translate(-77.906 -7.878)" fill="#bfbfbf"/>
        <path id="Trazado_161215" data-name="Trazado 161215" d="M81.845,25l.1.1,9.526-8.725-.1-.1Z" transform="translate(-77.955 -7.926)" fill="#bebebe"/>
        <path id="Trazado_161216" data-name="Trazado 161216" d="M82,25.147l.1.1,9.526-8.725-.1-.1Z" transform="translate(-78.004 -7.974)" fill="#bdbdbd"/>
        <path id="Trazado_161217" data-name="Trazado 161217" d="M82.151,25.3l.1.1,9.526-8.725-.1-.1Z" transform="translate(-78.054 -8.022)" fill="#bcbcbc"/>
        <path id="Trazado_161218" data-name="Trazado 161218" d="M82.3,25.445l.1.1,9.526-8.725-.1-.1Z" transform="translate(-78.103 -8.07)" fill="#bbb"/>
        <path id="Trazado_161219" data-name="Trazado 161219" d="M82.457,25.594l.1.1,9.526-8.725-.1-.1Z" transform="translate(-78.153 -8.118)" fill="#bababa"/>
        <path id="Trazado_161220" data-name="Trazado 161220" d="M82.61,25.743l.1.1,9.526-8.725-.1-.1Z" transform="translate(-78.202 -8.166)" fill="#b9b9b9"/>
        <path id="Trazado_161221" data-name="Trazado 161221" d="M82.763,25.892l.1.1,9.526-8.725-.1-.1Z" transform="translate(-78.251 -8.215)" fill="#b8b8b8"/>
        <path id="Trazado_161222" data-name="Trazado 161222" d="M82.916,26.041l.1.1,9.526-8.725-.1-.1Z" transform="translate(-78.301 -8.263)" fill="#b7b7b7"/>
        <path id="Trazado_161223" data-name="Trazado 161223" d="M83.069,26.19l.1.1L92.7,17.566l-.1-.1Z" transform="translate(-78.35 -8.311)" fill="#b6b6b6"/>
        <path id="Trazado_161224" data-name="Trazado 161224" d="M83.222,26.339l.1.1,9.526-8.725-.1-.1Z" transform="translate(-78.4 -8.359)" fill="#b5b5b5"/>
        <path id="Trazado_161225" data-name="Trazado 161225" d="M83.375,26.488l.1.1L93,17.864l-.1-.1Z" transform="translate(-78.449 -8.407)" fill="#b4b4b4"/>
        <path id="Trazado_161226" data-name="Trazado 161226" d="M83.528,26.637l.1.1,9.526-8.725-.1-.1Z" transform="translate(-78.499 -8.455)" fill="#b3b3b3"/>
        <path id="Trazado_161227" data-name="Trazado 161227" d="M83.681,26.786l.1.1,9.526-8.725-.1-.1Z" transform="translate(-78.548 -8.504)" fill="#b2b2b2"/>
        <path id="Trazado_161228" data-name="Trazado 161228" d="M83.833,26.935l.1.1,9.526-8.725-.1-.1Z" transform="translate(-78.597 -8.552)" fill="#b1b1b1"/>
        <path id="Trazado_161229" data-name="Trazado 161229" d="M83.986,27.084l.1.1,9.526-8.725-.1-.1Z" transform="translate(-78.647 -8.6)" fill="#b0b0b0"/>
        <path id="Trazado_161230" data-name="Trazado 161230" d="M84.139,27.233l.1.1,9.526-8.725-.1-.1Z" transform="translate(-78.696 -8.648)" fill="#afafaf"/>
        <path id="Trazado_161231" data-name="Trazado 161231" d="M84.292,27.383l.1.1,9.526-8.725-.1-.1Z" transform="translate(-78.746 -8.696)" fill="#aeaeae"/>
        <path id="Trazado_161232" data-name="Trazado 161232" d="M84.445,27.532l.1.1,9.526-8.725-.1-.1Z" transform="translate(-78.795 -8.744)" fill="#adadad"/>
        <path id="Trazado_161233" data-name="Trazado 161233" d="M84.6,27.681l.1.1,9.526-8.725-.1-.1Z" transform="translate(-78.845 -8.793)" fill="#acacac"/>
        <path id="Trazado_161234" data-name="Trazado 161234" d="M84.751,27.83l.1.1,9.526-8.725-.1-.1Z" transform="translate(-78.894 -8.841)" fill="#ababab"/>
        <path id="Trazado_161235" data-name="Trazado 161235" d="M84.9,27.979l.1.1,9.526-8.725-.1-.1Z" transform="translate(-78.943 -8.889)" fill="#aaa"/>
        <path id="Trazado_161236" data-name="Trazado 161236" d="M85.057,28.128l.1.1L94.687,19.5l-.1-.1Z" transform="translate(-78.993 -8.937)" fill="#a9a9a9"/>
        <path id="Trazado_161237" data-name="Trazado 161237" d="M85.21,28.277l.1.1,9.526-8.725-.1-.1Z" transform="translate(-79.042 -8.985)" fill="#a8a8a8"/>
        <path id="Trazado_161238" data-name="Trazado 161238" d="M85.363,28.426l.1.1L94.993,19.8l-.1-.1Z" transform="translate(-79.092 -9.033)" fill="#a7a7a7"/>
        <path id="Trazado_161239" data-name="Trazado 161239" d="M85.516,28.575l.1.1,9.526-8.725-.1-.1Z" transform="translate(-79.141 -9.081)" fill="#a6a6a6"/>
        <path id="Trazado_161240" data-name="Trazado 161240" d="M85.669,28.724l.1.1L95.3,20.1l-.1-.1Z" transform="translate(-79.19 -9.13)" fill="#a5a5a5"/>
        <path id="Trazado_161241" data-name="Trazado 161241" d="M85.822,28.873l.1.1,9.526-8.725-.1-.1Z" transform="translate(-79.24 -9.178)" fill="#a4a4a4"/>
        <path id="Trazado_161242" data-name="Trazado 161242" d="M85.975,29.022l.1.1L95.6,20.4l-.1-.1Z" transform="translate(-79.289 -9.226)" fill="#a2a2a2"/>
        <path id="Trazado_161243" data-name="Trazado 161243" d="M86.128,29.171l.1.1,9.526-8.725-.1-.1Z" transform="translate(-79.339 -9.274)" fill="#a1a1a1"/>
        <path id="Trazado_161244" data-name="Trazado 161244" d="M86.281,29.32l.1.1L95.911,20.7l-.1-.1Z" transform="translate(-79.388 -9.322)" fill="#a0a0a0"/>
        <path id="Trazado_161245" data-name="Trazado 161245" d="M86.434,29.469l.1.1,9.526-8.725-.1-.1Z" transform="translate(-79.438 -9.37)" fill="#9f9f9f"/>
        <path id="Trazado_161246" data-name="Trazado 161246" d="M86.587,29.618l.1.1,9.526-8.725-.1-.1Z" transform="translate(-79.487 -9.419)" fill="#9e9e9e"/>
        <path id="Trazado_161247" data-name="Trazado 161247" d="M86.74,29.767l.1.1,9.526-8.725-.1-.1Z" transform="translate(-79.536 -9.467)" fill="#9d9d9d"/>
        <path id="Trazado_161248" data-name="Trazado 161248" d="M86.893,29.917l.1.1,9.526-8.725-.1-.1Z" transform="translate(-79.586 -9.515)" fill="#9c9c9c"/>
        <path id="Trazado_161249" data-name="Trazado 161249" d="M87.046,30.066l.1.1,9.526-8.725-.1-.1Z" transform="translate(-79.635 -9.563)" fill="#9b9b9b"/>
        <path id="Trazado_161250" data-name="Trazado 161250" d="M87.2,30.215l.1.1,9.526-8.725-.1-.1Z" transform="translate(-79.685 -9.611)" fill="#9a9a9a"/>
        <path id="Trazado_161251" data-name="Trazado 161251" d="M87.352,30.364l.1.1,9.526-8.725-.1-.1Z" transform="translate(-79.734 -9.659)" fill="#999"/>
        <path id="Trazado_161252" data-name="Trazado 161252" d="M87.5,30.513l.1.1,9.526-8.725-.1-.1Z" transform="translate(-79.783 -9.707)" fill="#989898"/>
        <path id="Trazado_161253" data-name="Trazado 161253" d="M87.658,30.662l.1.1,9.526-8.725-.1-.1Z" transform="translate(-79.833 -9.756)" fill="#979797"/>
        <path id="Trazado_161254" data-name="Trazado 161254" d="M87.811,30.811l.1.1,9.526-8.725-.1-.1Z" transform="translate(-79.882 -9.804)" fill="#969696"/>
        <path id="Trazado_161255" data-name="Trazado 161255" d="M87.964,30.96l.1.1,9.526-8.725-.1-.1Z" transform="translate(-79.932 -9.852)" fill="#959595"/>
        <path id="Trazado_161256" data-name="Trazado 161256" d="M88.117,31.109l.1.1,9.526-8.725-.1-.1Z" transform="translate(-79.981 -9.9)" fill="#949494"/>
        <path id="Trazado_161257" data-name="Trazado 161257" d="M97.8,22.533l.1.1-9.523,8.722H88.37l-.1-.1Z" transform="translate(-80.031 -9.948)" fill="#939393"/>
        <path id="Trazado_161258" data-name="Trazado 161258" d="M97.95,22.683l.1.1L88.641,31.4h-.214Z" transform="translate(-80.082 -9.996)" fill="#929292"/>
        <path id="Trazado_161259" data-name="Trazado 161259" d="M98.156,22.832l.1.1-9.3,8.52h-.214Z" transform="translate(-80.184 -10.045)" fill="#919191"/>
        <path id="Trazado_161260" data-name="Trazado 161260" d="M98.361,22.981l.1.1L89.272,31.5h-.214Z" transform="translate(-80.286 -10.093)" fill="#909090"/>
        <path id="Trazado_161261" data-name="Trazado 161261" d="M98.567,23.13l.1.1-9.082,8.318h-.214Z" transform="translate(-80.388 -10.141)" fill="#8f8f8f"/>
        <path id="Trazado_161262" data-name="Trazado 161262" d="M98.772,23.279l.1.1L89.9,31.6H89.69Z" transform="translate(-80.49 -10.189)" fill="#8e8e8e"/>
        <path id="Trazado_161263" data-name="Trazado 161263" d="M98.978,23.428l.1.1L90.22,31.645h-.214Z" transform="translate(-80.592 -10.237)" fill="#8d8d8d"/>
        <path id="Trazado_161264" data-name="Trazado 161264" d="M99.183,23.577l.1.1-8.752,8.015h-.214Z" transform="translate(-80.694 -10.285)" fill="#8c8c8c"/>
        <path id="Trazado_161265" data-name="Trazado 161265" d="M99.389,23.726l.1.1-8.641,7.914h-.214Z" transform="translate(-80.796 -10.334)" fill="#8b8b8b"/>
        <path id="Trazado_161266" data-name="Trazado 161266" d="M99.595,23.875l.1.1-8.531,7.814h-.214Z" transform="translate(-80.898 -10.382)" fill="#8a8a8a"/>
        <path id="Trazado_161267" data-name="Trazado 161267" d="M99.8,24.024l.1.1-8.421,7.713h-.214Z" transform="translate(-81 -10.43)" fill="#898989"/>
        <path id="Trazado_161268" data-name="Trazado 161268" d="M100.006,24.173l.1.1L91.8,31.886h-.214Z" transform="translate(-81.102 -10.478)" fill="#888"/>
        <path id="Trazado_161269" data-name="Trazado 161269" d="M100.211,24.322l.1.1-8.2,7.511H91.9Z" transform="translate(-81.204 -10.526)" fill="#878787"/>
        <path id="Trazado_161270" data-name="Trazado 161270" d="M100.417,24.471l.1.1-8.091,7.41h-.214Z" transform="translate(-81.306 -10.574)" fill="#868686"/>
        <path id="Trazado_161271" data-name="Trazado 161271" d="M100.622,24.62l.1.1-7.98,7.309h-.214Z" transform="translate(-81.408 -10.622)" fill="#858585"/>
        <path id="Trazado_161272" data-name="Trazado 161272" d="M100.828,24.769l.1.1-7.87,7.208h-.214Z" transform="translate(-81.51 -10.671)" fill="#848484"/>
        <path id="Trazado_161273" data-name="Trazado 161273" d="M101.033,24.918l.1.1-7.76,7.107h-.214Z" transform="translate(-81.612 -10.719)" fill="#838383"/>
        <path id="Trazado_161274" data-name="Trazado 161274" d="M101.239,25.068l.1.1-7.65,7.006h-.214Z" transform="translate(-81.714 -10.767)" fill="#828282"/>
        <path id="Trazado_161275" data-name="Trazado 161275" d="M101.444,25.217l.1.1-7.54,6.905h-.214Z" transform="translate(-81.815 -10.815)" fill="#818181"/>
        <path id="Trazado_161276" data-name="Trazado 161276" d="M101.65,25.366l.1.1-7.43,6.8H94.11Z" transform="translate(-81.918 -10.863)" fill="gray"/>
        <path id="Trazado_161277" data-name="Trazado 161277" d="M101.856,25.515l.1.1-7.319,6.7h-.214Z" transform="translate(-82.02 -10.911)" fill="#7f7f7f"/>
        <path id="Trazado_161278" data-name="Trazado 161278" d="M102.061,25.664l.1.1-7.209,6.6h-.214Z" transform="translate(-82.122 -10.96)" fill="#7e7e7e"/>
        <path id="Trazado_161279" data-name="Trazado 161279" d="M102.267,25.813l.1.1-7.1,6.5h-.214Z" transform="translate(-82.224 -11.008)" fill="#7d7d7d"/>
        <path id="Trazado_161280" data-name="Trazado 161280" d="M102.472,25.962l.1.1-6.989,6.4h-.214Z" transform="translate(-82.326 -11.056)" fill="#7c7c7c"/>
        <path id="Trazado_161281" data-name="Trazado 161281" d="M102.678,26.111l.083.081v.039L95.9,32.512h-.214Z" transform="translate(-82.427 -11.104)" fill="#7b7b7b"/>
        <path id="Trazado_161282" data-name="Trazado 161282" d="M102.863,26.484l-6.644,6.085H96l6.858-6.281Z" transform="translate(-82.53 -11.161)" fill="#7a7a7a"/>
        <path id="Trazado_161283" data-name="Trazado 161283" d="M102.965,26.773l-6.43,5.889H96.32l6.644-6.085Z" transform="translate(-82.632 -11.255)" fill="#797979"/>
        <path id="Trazado_161284" data-name="Trazado 161284" d="M103.067,27.062,96.85,32.756h-.214l6.43-5.889Z" transform="translate(-82.733 -11.348)" fill="#787878"/>
        <path id="Trazado_161285" data-name="Trazado 161285" d="M103.169,27.351l-6,5.5h-.214l6.217-5.694Z" transform="translate(-82.836 -11.442)" fill="#777"/>
        <path id="Trazado_161286" data-name="Trazado 161286" d="M103.271,27.64l-5.789,5.3h-.214l6-5.5Z" transform="translate(-82.938 -11.535)" fill="#767676"/>
        <path id="Trazado_161287" data-name="Trazado 161287" d="M103.373,27.93,97.8,33.036h-.214l5.789-5.3Z" transform="translate(-83.04 -11.628)" fill="#757575"/>
        <path id="Trazado_161288" data-name="Trazado 161288" d="M103.475,28.219,98.113,33.13H97.9l5.576-5.106Z" transform="translate(-83.142 -11.722)" fill="#747474"/>
        <path id="Trazado_161289" data-name="Trazado 161289" d="M103.577,28.508l-5.148,4.715h-.214l5.362-4.911Z" transform="translate(-83.243 -11.815)" fill="#737373"/>
        <path id="Trazado_161290" data-name="Trazado 161290" d="M103.679,28.8l-4.934,4.519H98.53l5.148-4.715Z" transform="translate(-83.345 -11.909)" fill="#727272"/>
        <path id="Trazado_161291" data-name="Trazado 161291" d="M103.781,29.086,99.06,33.41h-.214l4.934-4.519Z" transform="translate(-83.447 -12.002)" fill="#717171"/>
        <path id="Trazado_161292" data-name="Trazado 161292" d="M103.883,29.375,99.376,33.5h-.214l4.721-4.324Z" transform="translate(-83.549 -12.095)" fill="#707070"/>
        <path id="Trazado_161293" data-name="Trazado 161293" d="M103.985,29.665,99.691,33.6h-.214l4.507-4.128Z" transform="translate(-83.651 -12.189)" fill="#6f6f6f"/>
        <path id="Trazado_161294" data-name="Trazado 161294" d="M104.087,29.954l-4.08,3.736h-.214l4.293-3.932Z" transform="translate(-83.753 -12.282)" fill="#6e6e6e"/>
        <path id="Trazado_161295" data-name="Trazado 161295" d="M104.189,30.243l-3.866,3.541h-.214l4.08-3.736Z" transform="translate(-83.855 -12.376)" fill="#6d6d6d"/>
        <path id="Trazado_161296" data-name="Trazado 161296" d="M104.291,30.532l-3.652,3.345h-.214l3.866-3.541Z" transform="translate(-83.957 -12.469)" fill="#6c6c6c"/>
        <path id="Trazado_161297" data-name="Trazado 161297" d="M104.393,30.821l-3.438,3.149h-.214l3.652-3.345Z" transform="translate(-84.059 -12.563)" fill="#6b6b6b"/>
        <path id="Trazado_161298" data-name="Trazado 161298" d="M104.495,31.11l-3.225,2.953h-.214l3.438-3.149Z" transform="translate(-84.161 -12.656)" fill="#6a6a6a"/>
        <path id="Trazado_161299" data-name="Trazado 161299" d="M104.6,31.4l-3.011,2.758h-.214L104.6,31.2Z" transform="translate(-84.263 -12.749)" fill="#696969"/>
        <path id="Trazado_161300" data-name="Trazado 161300" d="M104.7,31.689l-2.8,2.562h-.214l3.011-2.758Z" transform="translate(-84.365 -12.843)" fill="#686868"/>
        <path id="Trazado_161301" data-name="Trazado 161301" d="M104.8,31.978l-2.583,2.366H102l2.8-2.562Z" transform="translate(-84.467 -12.936)" fill="#676767"/>
        <path id="Trazado_161302" data-name="Trazado 161302" d="M104.9,32.267l-2.37,2.17h-.214l2.583-2.366Z" transform="translate(-84.569 -13.03)" fill="#666"/>
        <path id="Trazado_161303" data-name="Trazado 161303" d="M102.635,34.531,105,32.36v2.17Z" transform="translate(-84.671 -13.123)" fill="#666"/>
      </g>
    </g>
  </g>
  <g id="Grupo_100875" data-name="Grupo 100875" transform="translate(29.936 7.184)" opacity="0.4" style="isolation: isolate">
    <rect id="Rectángulo_24413" data-name="Rectángulo 24413" width="35.98" height="6.548" transform="translate(0 25.035) rotate(-44.092)" fill="#fff"/>
  </g>
  <g id="Grupo_100876" data-name="Grupo 100876" transform="translate(30.824 9.079)" opacity="0.4" style="isolation: isolate">
    <rect id="Rectángulo_24414" data-name="Rectángulo 24414" width="35.98" height="2.165" transform="translate(0 25.035) rotate(-44.092)" fill="#fff"/>
  </g>
  <g id="Grupo_100877" data-name="Grupo 100877" transform="translate(52.36 0)">
    <ellipse id="Elipse_5301" data-name="Elipse 5301" cx="5.384" cy="10.482" rx="5.384" ry="10.482" transform="translate(0 8.312) rotate(-50.527)" fill="#ea7598"/>
  </g>
  <g id="Grupo_100880" data-name="Grupo 100880" transform="translate(24.246 26.529)">
    <g id="Grupo_100879" data-name="Grupo 100879">
      <g id="Grupo_100878" data-name="Grupo 100878" clip-path="url(#clip-path-3)">
        <path id="Trazado_161305" data-name="Trazado 161305" d="M36.707,37.965l-.684.673v-.673Z" transform="translate(-36.023 -37.965)" fill="#ffffe0"/>
        <path id="Trazado_161306" data-name="Trazado 161306" d="M37.4,37.965,36.023,39.32v-.682l.684-.673Z" transform="translate(-36.023 -37.965)" fill="#fffedf"/>
        <path id="Trazado_161307" data-name="Trazado 161307" d="M38.094,37.965,36.023,40V39.32L37.4,37.965Z" transform="translate(-36.023 -37.965)" fill="#fefdde"/>
        <path id="Trazado_161308" data-name="Trazado 161308" d="M38.788,37.965l-2.765,2.72V40l2.071-2.038Z" transform="translate(-36.023 -37.965)" fill="#fefcdd"/>
        <path id="Trazado_161309" data-name="Trazado 161309" d="M39.481,37.965l-3.458,3.4v-.682l2.765-2.72Z" transform="translate(-36.023 -37.965)" fill="#fefbdc"/>
        <path id="Trazado_161310" data-name="Trazado 161310" d="M40.175,37.965,36.023,42.05v-.682l3.458-3.4Z" transform="translate(-36.023 -37.965)" fill="#fefbdb"/>
        <path id="Trazado_161311" data-name="Trazado 161311" d="M40.869,37.965l-4.845,4.768V42.05l4.152-4.085Z" transform="translate(-36.023 -37.965)" fill="#fdfada"/>
        <path id="Trazado_161312" data-name="Trazado 161312" d="M41.562,37.965l-5.539,5.45v-.682l4.845-4.768Z" transform="translate(-36.023 -37.965)" fill="#fdf9d9"/>
        <path id="Trazado_161313" data-name="Trazado 161313" d="M42.256,37.965,36.023,44.1v-.682l5.539-5.45Z" transform="translate(-36.023 -37.965)" fill="#fdf8d8"/>
        <path id="Trazado_161314" data-name="Trazado 161314" d="M42.949,37.965,36.023,44.78V44.1l6.233-6.132Z" transform="translate(-36.023 -37.965)" fill="#fdf7d7"/>
        <path id="Trazado_161315" data-name="Trazado 161315" d="M43.643,37.965l-7.62,7.5V44.78l6.926-6.815Z" transform="translate(-36.023 -37.965)" fill="#fcf6d6"/>
        <path id="Trazado_161316" data-name="Trazado 161316" d="M44.336,37.965l-8.313,8.18v-.682l7.62-7.5Z" transform="translate(-36.023 -37.965)" fill="#fcf5d5"/>
        <path id="Trazado_161317" data-name="Trazado 161317" d="M44.84,37.965l.1.094-8.912,8.769v-.682l8.313-8.18Z" transform="translate(-36.023 -37.965)" fill="#fcf4d4"/>
        <path id="Trazado_161318" data-name="Trazado 161318" d="M44.935,38.1l.347.341-9.259,9.11v-.682Z" transform="translate(-36.023 -38.01)" fill="#fcf3d3"/>
        <path id="Trazado_161319" data-name="Trazado 161319" d="M45.282,38.607l.347.341L36.023,48.4v-.682Z" transform="translate(-36.023 -38.172)" fill="#fbf2d2"/>
        <path id="Trazado_161320" data-name="Trazado 161320" d="M45.628,39.111l.347.341-9.952,9.792v-.682Z" transform="translate(-36.023 -38.335)" fill="#fbf2d1"/>
        <path id="Trazado_161321" data-name="Trazado 161321" d="M45.975,39.615l.347.341L36.023,50.09v-.682Z" transform="translate(-36.023 -38.498)" fill="#fbf1d0"/>
        <path id="Trazado_161322" data-name="Trazado 161322" d="M46.322,40.119l.347.341L36.023,50.935v-.682Z" transform="translate(-36.023 -38.661)" fill="#faf0cf"/>
        <path id="Trazado_161323" data-name="Trazado 161323" d="M46.669,40.623l.347.341L36.023,51.781V51.1Z" transform="translate(-36.023 -38.824)" fill="#faefce"/>
        <path id="Trazado_161324" data-name="Trazado 161324" d="M47.016,41.128l.347.341L36.023,52.626v-.682Z" transform="translate(-36.023 -38.987)" fill="#faeecd"/>
        <path id="Trazado_161325" data-name="Trazado 161325" d="M47.362,41.632l.347.341-11.686,11.5v-.682Z" transform="translate(-36.023 -39.15)" fill="#faedcc"/>
        <path id="Trazado_161326" data-name="Trazado 161326" d="M47.709,42.136l.347.341L36.023,54.316v-.682Z" transform="translate(-36.023 -39.312)" fill="#f9eccb"/>
        <path id="Trazado_161327" data-name="Trazado 161327" d="M48.056,42.64l.347.341L36.023,55.162v-.682Z" transform="translate(-36.023 -39.475)" fill="#f9ebca"/>
        <path id="Trazado_161328" data-name="Trazado 161328" d="M48.4,43.144l.347.341L36.023,56.007v-.682Z" transform="translate(-36.023 -39.638)" fill="#f9eac9"/>
        <path id="Trazado_161329" data-name="Trazado 161329" d="M48.75,43.648l.347.341L36.023,56.852V56.17Z" transform="translate(-36.023 -39.801)" fill="#f9eac8"/>
        <path id="Trazado_161330" data-name="Trazado 161330" d="M49.1,44.152l.347.341L36.023,57.7v-.682Z" transform="translate(-36.023 -39.964)" fill="#f8e9c7"/>
        <path id="Trazado_161331" data-name="Trazado 161331" d="M49.443,44.656,49.79,45,36.023,58.543V57.86Z" transform="translate(-36.023 -40.127)" fill="#f8e8c6"/>
        <path id="Trazado_161332" data-name="Trazado 161332" d="M49.79,45.16l.347.341L36.023,59.388v-.682Z" transform="translate(-36.023 -40.289)" fill="#f8e7c5"/>
        <path id="Trazado_161333" data-name="Trazado 161333" d="M50.137,45.664l.347.341L36.023,60.233v-.682Z" transform="translate(-36.023 -40.452)" fill="#f7e6c4"/>
        <path id="Trazado_161334" data-name="Trazado 161334" d="M50.484,46.168l.347.341L36.023,61.079V60.4Z" transform="translate(-36.023 -40.615)" fill="#f7e5c3"/>
        <path id="Trazado_161335" data-name="Trazado 161335" d="M50.83,46.672l.347.341L36.023,61.924v-.682Z" transform="translate(-36.023 -40.778)" fill="#f7e4c2"/>
        <path id="Trazado_161336" data-name="Trazado 161336" d="M51.177,47.176l.347.341-15.5,15.252v-.682Z" transform="translate(-36.023 -40.941)" fill="#f7e3c1"/>
        <path id="Trazado_161337" data-name="Trazado 161337" d="M51.524,47.68l.347.341L36.023,63.614v-.682Z" transform="translate(-36.023 -41.104)" fill="#f6e2c0"/>
        <path id="Trazado_161338" data-name="Trazado 161338" d="M51.871,48.184l.347.341L36.023,64.46v-.682Z" transform="translate(-36.023 -41.267)" fill="#f6e1bf"/>
        <path id="Trazado_161339" data-name="Trazado 161339" d="M52.217,48.688l.347.341L36.716,64.623h-.693Z" transform="translate(-36.023 -41.429)" fill="#f6e1bd"/>
        <path id="Trazado_161340" data-name="Trazado 161340" d="M52.9,49.192l.347.341-15.5,15.252h-.694Z" transform="translate(-36.354 -41.592)" fill="#f6e0bc"/>
        <path id="Trazado_161341" data-name="Trazado 161341" d="M53.573,49.7l.347.341L38.765,64.948h-.694Z" transform="translate(-36.685 -41.755)" fill="#f5dfbb"/>
        <path id="Trazado_161342" data-name="Trazado 161342" d="M54.251,50.2l.347.341L39.79,65.111H39.1Z" transform="translate(-37.016 -41.918)" fill="#f5deba"/>
        <path id="Trazado_161343" data-name="Trazado 161343" d="M54.929,50.7l.347.341L40.815,65.274h-.694Z" transform="translate(-37.347 -42.081)" fill="#f5ddb9"/>
        <path id="Trazado_161344" data-name="Trazado 161344" d="M55.606,51.209l.347.341L41.839,65.437h-.694Z" transform="translate(-37.678 -42.244)" fill="#f5dcb8"/>
        <path id="Trazado_161345" data-name="Trazado 161345" d="M56.284,51.713l.347.341L42.864,65.6H42.17Z" transform="translate(-38.009 -42.406)" fill="#f4dbb7"/>
        <path id="Trazado_161346" data-name="Trazado 161346" d="M56.962,52.217l.347.341-13.42,13.2h-.694Z" transform="translate(-38.34 -42.569)" fill="#f4dab6"/>
        <path id="Trazado_161347" data-name="Trazado 161347" d="M57.64,52.721l.347.341L44.913,65.926h-.694Z" transform="translate(-38.671 -42.732)" fill="#f4d9b5"/>
        <path id="Trazado_161348" data-name="Trazado 161348" d="M58.317,53.225l.347.341L45.938,66.088h-.694Z" transform="translate(-39.002 -42.895)" fill="#f3d8b4"/>
        <path id="Trazado_161349" data-name="Trazado 161349" d="M59,53.729l.347.341L46.962,66.251h-.694Z" transform="translate(-39.333 -43.058)" fill="#f3d8b3"/>
        <path id="Trazado_161350" data-name="Trazado 161350" d="M59.673,54.233l.347.341L47.987,66.414h-.694Z" transform="translate(-39.664 -43.221)" fill="#f3d7b2"/>
        <path id="Trazado_161351" data-name="Trazado 161351" d="M60.351,54.737l.347.341-11.686,11.5h-.694Z" transform="translate(-39.995 -43.383)" fill="#f3d6b1"/>
        <path id="Trazado_161352" data-name="Trazado 161352" d="M61.029,55.241l.347.341L50.036,66.74h-.694Z" transform="translate(-40.326 -43.546)" fill="#f2d5b0"/>
        <path id="Trazado_161353" data-name="Trazado 161353" d="M61.706,55.745l.347.341L51.06,66.9h-.694Z" transform="translate(-40.657 -43.709)" fill="#f2d4af"/>
        <path id="Trazado_161354" data-name="Trazado 161354" d="M62.384,56.249l.347.341L52.085,67.065h-.694Z" transform="translate(-40.988 -43.872)" fill="#f2d3ae"/>
        <path id="Trazado_161355" data-name="Trazado 161355" d="M63.062,56.753l.347.341L53.11,67.228h-.694Z" transform="translate(-41.319 -44.035)" fill="#f2d2ad"/>
        <path id="Trazado_161356" data-name="Trazado 161356" d="M63.74,57.257l.347.341-9.952,9.792h-.694Z" transform="translate(-41.65 -44.198)" fill="#f1d1ac"/>
        <path id="Trazado_161357" data-name="Trazado 161357" d="M64.418,57.761l.347.341-9.606,9.451h-.694Z" transform="translate(-41.981 -44.361)" fill="#f1d0ab"/>
        <path id="Trazado_161358" data-name="Trazado 161358" d="M65.1,58.266l.347.341-9.259,9.11H55.49Z" transform="translate(-42.312 -44.523)" fill="#f1d0aa"/>
        <path id="Trazado_161359" data-name="Trazado 161359" d="M65.773,58.77l.347.341L57.208,67.88h-.694Z" transform="translate(-42.643 -44.686)" fill="#f0cfa9"/>
        <path id="Trazado_161360" data-name="Trazado 161360" d="M66.451,59.274l.1.1v.48l-8.322,8.188h-.694Z" transform="translate(-42.974 -44.849)" fill="#f0cea8"/>
        <path id="Trazado_161361" data-name="Trazado 161361" d="M66.885,60.814,59.257,68.32h-.694l8.322-8.188Z" transform="translate(-43.305 -45.126)" fill="#f0cda7"/>
        <path id="Trazado_161362" data-name="Trazado 161362" d="M67.216,61.822l-6.934,6.823h-.694l7.628-7.505Z" transform="translate(-43.636 -45.452)" fill="#f0cca6"/>
        <path id="Trazado_161363" data-name="Trazado 161363" d="M67.547,62.831l-6.241,6.141h-.694l6.934-6.823Z" transform="translate(-43.967 -45.778)" fill="#efcba5"/>
        <path id="Trazado_161364" data-name="Trazado 161364" d="M67.878,63.839,62.331,69.3h-.694l6.241-6.141Z" transform="translate(-44.298 -46.103)" fill="#efcaa4"/>
        <path id="Trazado_161365" data-name="Trazado 161365" d="M68.209,64.847l-4.854,4.776h-.694l5.547-5.458Z" transform="translate(-44.629 -46.429)" fill="#efc9a3"/>
        <path id="Trazado_161366" data-name="Trazado 161366" d="M68.54,65.855l-4.16,4.093h-.694l4.854-4.776Z" transform="translate(-44.96 -46.755)" fill="#efc8a2"/>
        <path id="Trazado_161367" data-name="Trazado 161367" d="M68.871,66.863,65.4,70.274h-.694l4.16-4.093Z" transform="translate(-45.291 -47.08)" fill="#eec7a1"/>
        <path id="Trazado_161368" data-name="Trazado 161368" d="M69.2,67.871,66.429,70.6h-.694L69.2,67.189Z" transform="translate(-45.622 -47.406)" fill="#eec7a0"/>
        <path id="Trazado_161369" data-name="Trazado 161369" d="M69.533,68.879l-2.079,2.046H66.76L69.533,68.2Z" transform="translate(-45.953 -47.732)" fill="#eec69f"/>
        <path id="Trazado_161370" data-name="Trazado 161370" d="M69.864,69.887l-1.386,1.364h-.694L69.864,69.2Z" transform="translate(-46.284 -48.058)" fill="#eec59e"/>
        <path id="Trazado_161371" data-name="Trazado 161371" d="M70.2,70.9l-.692.681h-.694L70.2,70.213Z" transform="translate(-46.615 -48.383)" fill="#edc49d"/>
        <path id="Trazado_161372" data-name="Trazado 161372" d="M69.834,71.9l.692-.681V71.9Z" transform="translate(-46.946 -48.709)" fill="#edc39c"/>
      </g>
    </g>
  </g>
  <g id="Grupo_100881" data-name="Grupo 100881" transform="translate(24.703 38.357)">
    <path id="Trazado_161374" data-name="Trazado 161374" d="M39.712,55.439c.077,3.169,4.136,6.958,7.229,7.5L36.7,66.03Z" transform="translate(-36.697 -55.439)" fill="#27382f"/>
  </g>
  <g id="Grupo_100882" data-name="Grupo 100882" transform="translate(21.256 1.167)">
    <path id="Trazado_161375" data-name="Trazado 161375" d="M31.6,51.2l8.8-26.215L65.137.883l.308-.092c3.511-1.056,8.627.821,12.734,4.662,4.209,3.934,6.136,8.839,5.159,13.124l-.086.378L58.468,43.107ZM42.691,26.426,35.715,47.217l21.379-6.44L80.849,17.627c.571-3.282-1.076-7.085-4.464-10.254-3.217-3.008-7.3-4.712-9.895-4.14Z" transform="translate(-31.605 -0.5)" fill="maroon"/>
  </g>
</svg>
