<svg id="Grupo_100800" data-name="Grupo 100800" xmlns="http://www.w3.org/2000/svg" width="76.378" height="76.378" viewBox="0 0 76.378 76.378">
  <circle id="Elipse_5268" data-name="Elipse 5268" cx="38.189" cy="38.189" r="38.189" transform="translate(0 0)" fill="#20c4cb"/>
  <path id="Trazado_160620" data-name="Trazado 160620" d="M58.127,56.6a7.781,7.781,0,0,1-4.745,2.566,1.844,1.844,0,0,1-1.944-1.789,3.371,3.371,0,0,1,.077-1.244A33.406,33.406,0,0,1,52.76,51.78c0-.155-.078-.233-.155-.233-.778,0-3.423,2.722-3.811,4.511l-.311,1.477a2.106,2.106,0,0,1-1.867,1.634.592.592,0,0,1-.622-.544v-.467l.155-.778a8.025,8.025,0,0,1-3.655,1.789,1.578,1.578,0,0,1-1.712-1.322,2.966,2.966,0,0,1-2.411,1.322,3.191,3.191,0,0,1-2.8-1.944,14.262,14.262,0,0,1-2.8,2.411A10.432,10.432,0,0,1,27.249,61.5a6.742,6.742,0,0,1-4.511-1.867,8.063,8.063,0,0,1-2.334-4.9c-.7-5.445,2.644-12.678,7.856-15.789a7.392,7.392,0,0,1,3.734-1.089,4.509,4.509,0,0,1,4.588,3.889,4.218,4.218,0,0,1-2.644,4.588c-1.089.545-1.634.545-1.789.233a.507.507,0,0,1,.155-.622c2.022-1.634,2.022-3.033,1.789-4.978a2.034,2.034,0,0,0-1.867-2.022c-4.044,0-9.645,8.789-8.866,15.167.311,2.489,1.867,5.367,4.978,5.367a7.358,7.358,0,0,0,3.111-.778A9.784,9.784,0,0,0,35.1,55.98c-.233-2.955,2.333-6.689,6.067-6.689,1.633,0,2.955.622,3.111,1.944a1.622,1.622,0,0,1-1.712,1.945c-.467,0-1.166-.155-1.244-.545-.078-.467,1.011-.233.855-1.244-.078-.622-.777-.855-1.4-.855-2.333,0-3.655,3.266-3.422,5.289.077.933.622,1.867,1.4,1.867.7,0,1.712-1.012,2.022-2.412a2.106,2.106,0,0,1,1.867-1.633c.389,0,.622.155.622.544v.467c-.077.389-.389,1.867-.389,2.1a.607.607,0,0,0,.622.622,7.523,7.523,0,0,0,2.878-1.789c.39-1.944.856-4.356.856-4.511a1.764,1.764,0,0,1,2.021-1.634.593.593,0,0,1,.623.545v.467l-.39,2.1c1.4-1.867,3.578-3.267,4.9-3.267a1.027,1.027,0,0,1,1.089.855,4.036,4.036,0,0,1-.233,1.478,32.845,32.845,0,0,0-1.322,4.822.661.661,0,0,0,.7.855,5.565,5.565,0,0,0,3.5-2.411v-.777a10.118,10.118,0,0,1,.389-3.344,2.523,2.523,0,0,1,2.022-1.634.572.572,0,0,1,.622.622.994.994,0,0,1-.077.467,13.706,13.706,0,0,0-.778,4.123,12.9,12.9,0,0,0,.311,2.566.206.206,0,0,0,.233.233A10.249,10.249,0,0,0,63.727,53.8a3.582,3.582,0,0,1-1.556-3.189c0-2.333,1.4-3.578,2.8-3.578a2.056,2.056,0,0,1,2.022,2.334,7.437,7.437,0,0,1-.933,3.189h.311a2.374,2.374,0,0,0,1.867-.856,2.056,2.056,0,0,1,.467-.389,5.983,5.983,0,0,1,4.588-2.256c1.634,0,2.956.622,3.111,1.945a1.721,1.721,0,0,1-1.711,2.022c-.467,0-1.244-.156-1.244-.545-.078-.389,1.011-.233.933-1.245-.077-.622-.777-.933-1.4-.933-2.178,0-3.656,2.878-3.423,5.289.078.934.545,1.867,1.4,1.867.7,0,1.711-1.012,2.1-2.412a2.21,2.21,0,0,1,1.867-1.633.551.551,0,0,1,.622.544,17.316,17.316,0,0,1-.389,2.178,6.707,6.707,0,0,0-.155,1.633,3.5,3.5,0,0,0,.934,1.945.707.707,0,0,1,.232.389.448.448,0,0,1-.466.467.467.467,0,0,1-.311-.078,3.805,3.805,0,0,1-2.567-2.878,2.884,2.884,0,0,1-2.411,1.244,3.467,3.467,0,0,1-3.189-3.033,5.235,5.235,0,0,1,.233-2.178,3.56,3.56,0,0,1-1.866.622h-.545a15.559,15.559,0,0,1-4.2,4.278,3.2,3.2,0,0,1-1.245.389.847.847,0,0,1-.7-.311,2.728,2.728,0,0,1-.777-2.022Zm5.289-7a3.985,3.985,0,0,0,1.012,2.489,5.351,5.351,0,0,0,.389-1.867c0-1.167-.467-1.711-.777-1.711C63.572,48.514,63.416,49.136,63.416,49.6Z" transform="translate(-10.085 -12.317)" fill="#fff"/>
</svg>
