<svg id="Grupo_100802" data-name="Grupo 100802" xmlns="http://www.w3.org/2000/svg" width="91.289" height="83.17" viewBox="0 0 91.289 83.17">
  <path id="Trazado_160652" data-name="Trazado 160652" d="M1135.932,1207.95l1.187.38a5.386,5.386,0,0,1-1.34,2.816,3.207,3.207,0,0,1-2.363.972,3.568,3.568,0,0,1-2.352-.749,4.566,4.566,0,0,1-1.377-2.158,9.574,9.574,0,0,1-.475-3.039,8.231,8.231,0,0,1,.534-3.09,4.348,4.348,0,0,1,1.519-2.005,3.72,3.72,0,0,1,2.17-.683,3.153,3.153,0,0,1,2.257.866,4.681,4.681,0,0,1,1.274,2.432l-1.165.347a3.707,3.707,0,0,0-.9-1.8,2.075,2.075,0,0,0-1.49-.566,2.481,2.481,0,0,0-1.724.625,3.366,3.366,0,0,0-.972,1.68,9.162,9.162,0,0,0,.051,4.7,3.11,3.11,0,0,0,1.034,1.614,2.436,2.436,0,0,0,1.516.533,2.224,2.224,0,0,0,1.68-.727,3.964,3.964,0,0,0,.939-2.147Z" transform="translate(-1129.212 -1137.943)" fill="#979797"/>
  <path id="Trazado_160653" data-name="Trazado 160653" d="M1152.553,1212.986a4.858,4.858,0,0,1,1-3.375,2.665,2.665,0,0,1,2.041-.909,2.632,2.632,0,0,1,2.188,1.11,4.914,4.914,0,0,1,.848,3.061,6.645,6.645,0,0,1-.377,2.491,3.113,3.113,0,0,1-1.1,1.41,2.664,2.664,0,0,1-1.567.5,2.629,2.629,0,0,1-2.2-1.1,5.184,5.184,0,0,1-.84-3.185Zm1.125,0a4.143,4.143,0,0,0,.544,2.356,1.587,1.587,0,0,0,2.739,0,4.272,4.272,0,0,0,.544-2.4,3.994,3.994,0,0,0-.548-2.3,1.588,1.588,0,0,0-2.735-.007,4.107,4.107,0,0,0-.544,2.352Z" transform="translate(-1143.729 -1143.11)" fill="#979797"/>
  <path id="Trazado_160654" data-name="Trazado 160654" d="M1172.01,1217.089v-8.221h.99v1.26a3.359,3.359,0,0,1,.7-1.154,1.058,1.058,0,0,1,.708-.281,1.854,1.854,0,0,1,1.132.442l-.391,1.286a1.372,1.372,0,0,0-.8-.285.9.9,0,0,0-.643.274,1.532,1.532,0,0,0-.406.759,6.647,6.647,0,0,0-.183,1.622v4.295h-1.11Z" transform="translate(-1155.83 -1143.104)" fill="#979797"/>
  <path id="Trazado_160655" data-name="Trazado 160655" d="M1186.891,1214.43l1.14.19a3.667,3.667,0,0,1-.993,1.95,2.579,2.579,0,0,1-1.856.694,2.667,2.667,0,0,1-2.254-1.11,5.079,5.079,0,0,1-.833-3.108,5.344,5.344,0,0,1,.84-3.21,2.6,2.6,0,0,1,2.184-1.143,2.531,2.531,0,0,1,2.122,1.117,5.256,5.256,0,0,1,.821,3.152c0,.08,0,.2-.007.369h-4.832a3.649,3.649,0,0,0,.606,2.071,1.643,1.643,0,0,0,1.355.719,1.443,1.443,0,0,0,1.03-.405,2.778,2.778,0,0,0,.676-1.286Zm-3.6-2.235h3.616a3.256,3.256,0,0,0-.416-1.556,1.563,1.563,0,0,0-2.63-.161,2.959,2.959,0,0,0-.57,1.717Z" transform="translate(-1162.103 -1143.104)" fill="#979797"/>
  <path id="Trazado_160656" data-name="Trazado 160656" d="M1201.4,1212.252v-11.337h1.1v11.337Z" transform="translate(-1174.109 -1138.267)" fill="#979797"/>
  <path id="Trazado_160657" data-name="Trazado 160657" d="M1218.248,1200.915h3.3a5.206,5.206,0,0,1,1.7.215,2.959,2.959,0,0,1,1.347,1.045,5.342,5.342,0,0,1,.855,1.837,10.536,10.536,0,0,1,.292,2.681,9.336,9.336,0,0,1-.274,2.414,5.335,5.335,0,0,1-.957,2,3.1,3.1,0,0,1-1.267.906,4.354,4.354,0,0,1-1.6.241h-3.4v-11.344Zm1.815,1.914v7.506h1.344a3.841,3.841,0,0,0,1.088-.11,1.571,1.571,0,0,0,.727-.471,2.605,2.605,0,0,0,.471-1.092,9.174,9.174,0,0,0,.183-2.078,8.563,8.563,0,0,0-.183-2.016,2.805,2.805,0,0,0-.511-1.1,1.611,1.611,0,0,0-.833-.533,6.634,6.634,0,0,0-1.479-.109h-.807Z" transform="translate(-1184.588 -1138.267)" fill="#979797"/>
  <path id="Trazado_160658" data-name="Trazado 160658" d="M1242.149,1212.246v-11.341h3.809a5.2,5.2,0,0,1,2.086.307,2.249,2.249,0,0,1,1.041,1.085,3.963,3.963,0,0,1,.391,1.786,3.542,3.542,0,0,1-.592,2.108,2.653,2.653,0,0,1-1.768,1.048,4.411,4.411,0,0,1,.964.95,13.374,13.374,0,0,1,1.026,1.841l1.092,2.213h-2.162l-1.3-2.476a15.971,15.971,0,0,0-.957-1.662,1.455,1.455,0,0,0-.544-.471,2.447,2.447,0,0,0-.917-.128h-.369v4.737h-1.8Zm1.812-6.542h1.34a5.6,5.6,0,0,0,1.626-.139,1.012,1.012,0,0,0,.507-.482,1.753,1.753,0,0,0,.183-.851,1.617,1.617,0,0,0-.241-.927,1.041,1.041,0,0,0-.679-.442,11.926,11.926,0,0,0-1.319-.04h-1.414v2.882Z" transform="translate(-1199.454 -1138.261)" fill="#979797"/>
  <path id="Trazado_160659" data-name="Trazado 160659" d="M1272.61,1212.246h-1.954l-.774-2.583h-3.594l-.745,2.583h-1.917l3.477-11.341h1.917l3.59,11.341Zm-3.316-4.5-1.245-4.2-1.209,4.2Z" transform="translate(-1212.811 -1138.261)" fill="#979797"/>
  <path id="Trazado_160660" data-name="Trazado 160660" d="M1287.9,1212.252l-2.108-11.337h1.866l1.329,7.787,1.636-7.787h2.155l1.563,7.918,1.366-7.918h1.819l-2.159,11.337h-1.936l-1.768-8.477-1.779,8.477Z" transform="translate(-1226.601 -1138.267)" fill="#979797"/>
  <path id="Trazado_160661" data-name="Trazado 160661" d="M1210.908,1238.862v-.683h1.812v2.162a3.139,3.139,0,0,1-.862.683,1.947,1.947,0,0,1-.909.226,1.909,1.909,0,0,1-1.147-.368,2.23,2.23,0,0,1-.778-1.063,4.37,4.37,0,0,1-.263-1.556,4.789,4.789,0,0,1,.259-1.589,2.21,2.21,0,0,1,.752-1.1,1.871,1.871,0,0,1,1.128-.358,1.747,1.747,0,0,1,.84.2,1.545,1.545,0,0,1,.588.57,3.077,3.077,0,0,1,.325.957l-.511.19a2.842,2.842,0,0,0-.237-.7,1.04,1.04,0,0,0-.409-.406,1.152,1.152,0,0,0-.588-.153,1.355,1.355,0,0,0-.672.161,1.3,1.3,0,0,0-.457.423,2.262,2.262,0,0,0-.27.577,4.033,4.033,0,0,0-.164,1.176,3.743,3.743,0,0,0,.2,1.307,1.575,1.575,0,0,0,.573.782,1.423,1.423,0,0,0,.8.256,1.465,1.465,0,0,0,.716-.194,1.8,1.8,0,0,0,.529-.416v-1.092Z" transform="translate(-1178.688 -1159.604)" fill="#979797"/>
  <path id="Trazado_160662" data-name="Trazado 160662" d="M1221.252,1243.808v-4.229h.471v.646a1.753,1.753,0,0,1,.336-.592.488.488,0,0,1,.336-.143.858.858,0,0,1,.541.227l-.186.661a.624.624,0,0,0-.383-.146.418.418,0,0,0-.307.143.793.793,0,0,0-.194.391,3.762,3.762,0,0,0-.088.836v2.21h-.526Z" transform="translate(-1186.457 -1162.26)" fill="#979797"/>
  <path id="Trazado_160663" data-name="Trazado 160663" d="M1228.276,1243.285a1.94,1.94,0,0,1-.563.478,1.219,1.219,0,0,1-.581.139.951.951,0,0,1-.785-.34,1.334,1.334,0,0,1-.274-.866,1.575,1.575,0,0,1,.1-.566,1.126,1.126,0,0,1,.27-.409,1.143,1.143,0,0,1,.38-.234,2.824,2.824,0,0,1,.468-.106,3.782,3.782,0,0,0,.939-.245c0-.1,0-.161,0-.186a.966.966,0,0,0-.15-.614.894.894,0,0,0-1.147-.062,1.239,1.239,0,0,0-.263.628l-.515-.1a2.127,2.127,0,0,1,.23-.727,1.066,1.066,0,0,1,.467-.427,1.587,1.587,0,0,1,.7-.15,1.425,1.425,0,0,1,.646.128.861.861,0,0,1,.365.322,1.4,1.4,0,0,1,.164.49,5.359,5.359,0,0,1,.025.657v.949q0,1,.033,1.26a2.2,2.2,0,0,0,.128.511h-.551a2.146,2.146,0,0,1-.1-.533Zm-.041-1.589a2.988,2.988,0,0,1-.862.27,1.68,1.68,0,0,0-.46.143.538.538,0,0,0-.208.23.8.8,0,0,0-.073.34.7.7,0,0,0,.161.475.573.573,0,0,0,.468.19.866.866,0,0,0,.541-.179,1.043,1.043,0,0,0,.347-.493,2.224,2.224,0,0,0,.084-.712l0-.263Z" transform="translate(-1189.455 -1162.266)" fill="#979797"/>
  <path id="Trazado_160664" data-name="Trazado 160664" d="M1235.328,1245.43v-5.851h.479v.555a1.4,1.4,0,0,1,.383-.482.84.84,0,0,1,.515-.161,1,1,0,0,1,.7.278,1.71,1.71,0,0,1,.457.785,3.82,3.82,0,0,1,.154,1.11,3.739,3.739,0,0,1-.172,1.165,1.692,1.692,0,0,1-.5.793,1.047,1.047,0,0,1-.683.274.794.794,0,0,1-.471-.15,1.269,1.269,0,0,1-.343-.38v2.063Zm.479-3.711a2.337,2.337,0,0,0,.241,1.2.7.7,0,0,0,.584.391.716.716,0,0,0,.6-.4,2.419,2.419,0,0,0,.248-1.249,2.339,2.339,0,0,0-.245-1.205.689.689,0,0,0-.581-.4.72.72,0,0,0-.592.427,2.467,2.467,0,0,0-.256,1.238Z" transform="translate(-1195.211 -1162.26)" fill="#979797"/>
  <path id="Trazado_160665" data-name="Trazado 160665" d="M1244.129,1241.315v-5.833h.526v2.1a1.07,1.07,0,0,1,.924-.584.98.98,0,0,1,.6.186,1.013,1.013,0,0,1,.361.511,3.125,3.125,0,0,1,.11.946v2.677h-.526v-2.673a1.436,1.436,0,0,0-.168-.782.547.547,0,0,0-.478-.244.7.7,0,0,0-.438.164.9.9,0,0,0-.292.449,2.712,2.712,0,0,0-.088.778v2.308h-.526Z" transform="translate(-1200.685 -1159.766)" fill="#979797"/>
  <path id="Trazado_160666" data-name="Trazado 160666" d="M1252.921,1236.3v-.814h.526v.814Zm0,5.019v-4.23h.526v4.23Z" transform="translate(-1206.153 -1159.766)" fill="#979797"/>
  <path id="Trazado_160667" data-name="Trazado 160667" d="M1258.212,1242.26l.515.1a2.122,2.122,0,0,1-.431,1.132,1.082,1.082,0,0,1-.855.409,1.19,1.19,0,0,1-1.023-.566,2.846,2.846,0,0,1-.387-1.622,3.831,3.831,0,0,1,.168-1.2,1.474,1.474,0,0,1,.508-.767,1.19,1.19,0,0,1,.738-.256,1.075,1.075,0,0,1,.825.347,1.8,1.8,0,0,1,.413.99l-.508.106a1.279,1.279,0,0,0-.259-.639.577.577,0,0,0-.449-.215.738.738,0,0,0-.646.387,2.352,2.352,0,0,0-.248,1.227,2.447,2.447,0,0,0,.237,1.234.721.721,0,0,0,.625.387.631.631,0,0,0,.518-.259,1.543,1.543,0,0,0,.259-.8Z" transform="translate(-1208.088 -1162.26)" fill="#979797"/>
  <path id="Trazado_160668" data-name="Trazado 160668" d="M1263.79,1242.545l.518-.113a1.137,1.137,0,0,0,.245.654.716.716,0,0,0,.559.226.684.684,0,0,0,.541-.2.692.692,0,0,0,.175-.471.476.476,0,0,0-.157-.38,1.988,1.988,0,0,0-.537-.245,3.93,3.93,0,0,1-.8-.343.91.91,0,0,1-.336-.4,1.351,1.351,0,0,1-.117-.566,1.429,1.429,0,0,1,.095-.522,1.09,1.09,0,0,1,.259-.4,1.046,1.046,0,0,1,.332-.208,1.177,1.177,0,0,1,.453-.084,1.362,1.362,0,0,1,.639.143.954.954,0,0,1,.409.387,1.9,1.9,0,0,1,.179.657l-.515.1a.891.891,0,0,0-.2-.515.608.608,0,0,0-.475-.187.679.679,0,0,0-.515.165.546.546,0,0,0-.092.632.506.506,0,0,0,.2.19c.051.026.2.088.464.182a5.437,5.437,0,0,1,.778.333.888.888,0,0,1,.347.376,1.339,1.339,0,0,1,.128.614,1.518,1.518,0,0,1-.153.672,1.123,1.123,0,0,1-.442.49,1.24,1.24,0,0,1-.654.172,1.193,1.193,0,0,1-.92-.339,1.782,1.782,0,0,1-.409-1.016Z" transform="translate(-1212.914 -1162.26)" fill="#979797"/>
  <path id="Trazado_160669" data-name="Trazado 160669" d="M1276.33,1239.279l.533-.066a2.1,2.1,0,0,0,.175.723,1.1,1.1,0,0,0,.431.457,1.246,1.246,0,0,0,.657.175,1.218,1.218,0,0,0,.573-.131.861.861,0,0,0,.369-.361,1.065,1.065,0,0,0,.121-.5.969.969,0,0,0-.117-.479.9.9,0,0,0-.387-.343,6.959,6.959,0,0,0-.763-.285,3.069,3.069,0,0,1-.825-.365,1.39,1.39,0,0,1-.456-.544,1.676,1.676,0,0,1-.15-.727,1.906,1.906,0,0,1,.183-.826,1.3,1.3,0,0,1,.537-.584,1.584,1.584,0,0,1,.785-.2,1.668,1.668,0,0,1,.84.208,1.386,1.386,0,0,1,.559.614,2.244,2.244,0,0,1,.212.92l-.544.059a1.376,1.376,0,0,0-.3-.833.94.94,0,0,0-.745-.281.969.969,0,0,0-.749.256.883.883,0,0,0-.234.621.79.79,0,0,0,.168.519,1.957,1.957,0,0,0,.855.416,4.507,4.507,0,0,1,.946.373,1.5,1.5,0,0,1,.552.592,1.852,1.852,0,0,1,.179.825,2.05,2.05,0,0,1-.194.877,1.5,1.5,0,0,1-.562.639,1.514,1.514,0,0,1-.825.226,1.887,1.887,0,0,1-.972-.23,1.532,1.532,0,0,1-.614-.694,2.384,2.384,0,0,1-.241-1.048Z" transform="translate(-1220.713 -1159.604)" fill="#979797"/>
  <path id="Trazado_160670" data-name="Trazado 160670" d="M1289.192,1243.964v-.628a1.1,1.1,0,0,1-.982.719.973.973,0,0,1-.511-.142.95.95,0,0,1-.354-.358,1.609,1.609,0,0,1-.161-.529,4.843,4.843,0,0,1-.033-.668v-2.615h.526v2.341a5.554,5.554,0,0,0,.033.756.776.776,0,0,0,.212.442.538.538,0,0,0,.395.161.7.7,0,0,0,.442-.164.883.883,0,0,0,.292-.449,3,3,0,0,0,.084-.825v-2.261h.526v4.23h-.468Z" transform="translate(-1227.442 -1162.416)" fill="#979797"/>
  <path id="Trazado_160671" data-name="Trazado 160671" d="M1295.99,1236.3v-.814h.526v.814Zm0,5.019v-4.23h.526v4.23Z" transform="translate(-1232.94 -1159.766)" fill="#979797"/>
  <path id="Trazado_160672" data-name="Trazado 160672" d="M1301.5,1243.964v-.628a1.1,1.1,0,0,1-.982.719.976.976,0,0,1-.511-.142.951.951,0,0,1-.354-.358,1.612,1.612,0,0,1-.161-.529,4.863,4.863,0,0,1-.033-.668v-2.615h.526v2.341a5.561,5.561,0,0,0,.033.756.778.778,0,0,0,.212.442.538.538,0,0,0,.395.161.7.7,0,0,0,.442-.164.883.883,0,0,0,.292-.449,2.994,2.994,0,0,0,.084-.825v-2.261h.526v4.23h-.468Z" transform="translate(-1235.097 -1162.416)" fill="#979797"/>
  <path id="Trazado_160673" data-name="Trazado 160673" d="M1308.961,1240.886l.073.632a1.393,1.393,0,0,1-.395.062.692.692,0,0,1-.442-.124.66.66,0,0,1-.223-.325,3.46,3.46,0,0,1-.062-.847v-2.436h-.387v-.555h.387v-1.041l.526-.431v1.476h.526v.555h-.526v2.476a1.48,1.48,0,0,0,.029.394.269.269,0,0,0,.091.139.282.282,0,0,0,.179.051.967.967,0,0,0,.223-.025Z" transform="translate(-1240.115 -1159.977)" fill="#979797"/>
  <path id="Trazado_160674" data-name="Trazado 160674" d="M1314.514,1242.439l.544.1a1.951,1.951,0,0,1-.475,1,1.183,1.183,0,0,1-.888.358,1.25,1.25,0,0,1-1.078-.57,2.756,2.756,0,0,1-.4-1.6,2.909,2.909,0,0,1,.4-1.651,1.22,1.22,0,0,1,1.045-.588,1.173,1.173,0,0,1,1.012.577,2.844,2.844,0,0,1,.394,1.621c0,.044,0,.106,0,.19h-2.312a1.984,1.984,0,0,0,.288,1.063.77.77,0,0,0,.646.369.663.663,0,0,0,.493-.208,1.412,1.412,0,0,0,.329-.665Zm-1.72-1.147h1.728a1.822,1.822,0,0,0-.2-.8.747.747,0,0,0-.65-.412.734.734,0,0,0-.606.328,1.55,1.55,0,0,0-.274.884Z" transform="translate(-1243.035 -1162.26)" fill="#979797"/>
  <path id="Trazado_160675" data-name="Trazado 160675" d="M1327.088,1234l3.477-5.252-3.221-4.887h1.983l1.5,2.392c.277.449.5.814.654,1.1.274-.406.515-.774.73-1.1l1.585-2.388h1.972l-3.24,4.887,3.452,5.252h-1.961l-1.969-3.126-.449-.752L1329.06,1234Z" transform="translate(-1252.282 -1152.538)" fill="#61a706"/>
  <path id="Trazado_160676" data-name="Trazado 160676" d="M1354.605,1226.425a2.4,2.4,0,0,1-1.176-.884,2.445,2.445,0,0,1-.383-1.373,2.766,2.766,0,0,1,.811-2.027,3.262,3.262,0,0,1,4.35.018,2.81,2.81,0,0,1,.825,2.049,2.351,2.351,0,0,1-.376,1.337,2.378,2.378,0,0,1-1.147.88,2.769,2.769,0,0,1,1.446,1.07,3.07,3.07,0,0,1,.5,1.764,3.484,3.484,0,0,1-5.891,2.378,3.34,3.34,0,0,1-.939-2.418,3.042,3.042,0,0,1,.515-1.8,2.585,2.585,0,0,1,1.468-.99Zm-.252-2.3a1.808,1.808,0,0,0,.467,1.286,1.623,1.623,0,0,0,1.235.5,1.591,1.591,0,0,0,1.209-.493,1.7,1.7,0,0,0,.468-1.213,1.771,1.771,0,0,0-.482-1.26,1.587,1.587,0,0,0-1.209-.507,1.607,1.607,0,0,0-1.212.5,1.643,1.643,0,0,0-.475,1.187Zm-.423,5.11a2.639,2.639,0,0,0,.252,1.125,1.856,1.856,0,0,0,.767.84,2.161,2.161,0,0,0,1.1.3,1.99,1.99,0,0,0,1.512-.625,2.213,2.213,0,0,0,.588-1.589,2.278,2.278,0,0,0-.606-1.622,2.024,2.024,0,0,0-1.534-.639,1.947,1.947,0,0,0-1.49.632,2.235,2.235,0,0,0-.584,1.578Z" transform="translate(-1268.163 -1150.958)" fill="#61a706"/>
  <path id="Trazado_160677" data-name="Trazado 160677" d="M1236.459,1166.7l1.2,4.807h5.771l1.121-4.887Z" transform="translate(-1195.915 -1116.936)" fill="#61a706" fill-rule="evenodd"/>
  <path id="Trazado_160678" data-name="Trazado 160678" d="M1235.7,1082.088l.219.679.139.3,1.392.008.164-.081.2-.475c.858-2.21,3.112-11.64,3.579-14.047,1.271-6.53,2.224-13.185,1.76-19.854a26.357,26.357,0,0,0-1.592-7.692c-.719-1.808-1.8-3.879-3.7-4.682-2.067-.873-4.061,1.245-4.952,2.962-4.73,9.112-1.709,24.828.5,34.145l.745,3.2c.49,1.852,1.045,3.495,1.549,5.537Z" transform="translate(-1192.148 -1035.725)" fill="#979797" fill-rule="evenodd"/>
  <path id="Trazado_160679" data-name="Trazado 160679" d="M1219.563,1082.022l-.822-.676c-9.817-9.219-23.28-40.212-2.06-45.927a4.235,4.235,0,0,1,1.523-.219c-16.673,7.184-5.424,35.193,1.359,46.822Z" transform="translate(-1176.602 -1035.2)" fill="#979797" fill-rule="evenodd"/>
  <path id="Trazado_160680" data-name="Trazado 160680" d="M1252.245,1082.022l.821-.676c9.818-9.219,23.28-40.212,2.06-45.927a4.236,4.236,0,0,0-1.523-.219c16.672,7.184,5.427,35.193-1.359,46.822Z" transform="translate(-1205.733 -1035.2)" fill="#979797" fill-rule="evenodd"/>
  <path id="Trazado_160681" data-name="Trazado 160681" d="M1203.573,1041.712a14.59,14.59,0,0,0-8.071,10.738l-.161,1.943.019,1.563.219,1.724.12.822c1.644,9.047,9.16,20.906,15.774,27.191-9.145-12.2-22.947-31.5-7.9-43.981Z" transform="translate(-1170.341 -1039.25)" fill="#979797" fill-rule="evenodd"/>
  <path id="Trazado_160682" data-name="Trazado 160682" d="M1264.979,1041.712a14.592,14.592,0,0,1,8.071,10.738l.161,1.943-.022,1.563-.219,1.724-.12.822c-1.643,9.047-9.16,20.906-15.774,27.191,9.149-12.2,22.951-31.5,7.9-43.981Z" transform="translate(-1208.737 -1039.25)" fill="#979797" fill-rule="evenodd"/>
</svg>
