<svg xmlns="http://www.w3.org/2000/svg" width="323.5" height="171.182" viewBox="0 0 323.5 171.182">
  <g id="Grupo_102124" data-name="Grupo 102124" transform="translate(9.562 -263.985)">
    <path id="Trazado_163502" data-name="Trazado 163502" d="M379.965,644.2h38.613v21.352H379.965Z" transform="translate(-239.751 -233.333)" fill="#4e7693"/>
    <path id="Trazado_163503" data-name="Trazado 163503" d="M379.969,644.2h38.61v6.646h-38.61Z" transform="translate(-239.754 -233.333)" fill="#38627c"/>
    <path id="Trazado_163504" data-name="Trazado 163504" d="M376.183,305.529v126.8a4.018,4.018,0,0,1-4.02,4.02H184.52a4.017,4.017,0,0,1-4.02-4.02v-126.8a6.03,6.03,0,0,1,6.028-6.029H370.155A6.029,6.029,0,0,1,376.183,305.529Z" transform="translate(-118.821 -24.354)" fill="#e3f4ff"/>
    <path id="Trazado_163505" data-name="Trazado 163505" d="M654.757,305.529v126.8a4.017,4.017,0,0,1-4.02,4.02H642a4.018,4.018,0,0,0,4.02-4.02v-126.8a6.027,6.027,0,0,0-6.029-6.024l0,0h8.737A6.029,6.029,0,0,1,654.757,305.529Z" transform="translate(-397.396 -24.354)" fill="#bddff4"/>
    <path id="Trazado_163506" data-name="Trazado 163506" d="M376.183,598.141V613.39a4.016,4.016,0,0,1-4.016,4.02H184.516a4.016,4.016,0,0,1-4.016-4.02V598.141Z" transform="translate(-118.821 -205.412)" fill="#4e7693"/>
    <path id="Trazado_163507" data-name="Trazado 163507" d="M657.851,598.141V613.39a4.016,4.016,0,0,1-4.016,4.02H645.09a4.017,4.017,0,0,0,4.02-4.02V598.141Z" transform="translate(-400.489 -205.412)" fill="#38627c"/>
    <path id="Trazado_163508" data-name="Trazado 163508" d="M219.379,356.148h22.995v78.369H219.379Z" transform="translate(-142.393 -58.698)" fill="#a7c7d3"/>
    <path id="Trazado_163509" data-name="Trazado 163509" d="M219.379,356.148h22.995v9.47H219.379Z" transform="translate(-142.393 -58.698)" fill="#618baa"/>
    <path id="Trazado_163510" data-name="Trazado 163510" d="M586.684,356.148h23v26.145h-23Z" transform="translate(-365.08 -58.698)" fill="#a7c7d3"/>
    <path id="Trazado_163511" data-name="Trazado 163511" d="M586.684,356.148h23v9.47h-23Z" transform="translate(-365.08 -58.698)" fill="#618baa"/>
    <path id="Trazado_163512" data-name="Trazado 163512" d="M586.684,462.473h23v26.143h-23Z" transform="translate(-365.08 -123.16)" fill="#a7c7d3"/>
    <path id="Trazado_163513" data-name="Trazado 163513" d="M586.684,462.473h23v9.469h-23Z" transform="translate(-365.08 -123.16)" fill="#618baa"/>
    <path id="Trazado_163514" data-name="Trazado 163514" d="M380.112,416.519l17.364,17.364a2.383,2.383,0,0,1,0,3.37l-17.364,17.364a2.382,2.382,0,0,1-3.37,0l-17.364-17.364a2.383,2.383,0,0,1,0-3.37l17.364-17.364A2.382,2.382,0,0,1,380.112,416.519Z" transform="translate(-226.847 -94.876)" fill="#43a3f9"/>
    <path id="Trazado_163515" data-name="Trazado 163515" d="M417.732,383.785h24.553a2.383,2.383,0,0,1,2.384,2.382v24.554a2.388,2.388,0,0,1-2.384,2.387H417.732a2.388,2.388,0,0,1-2.384-2.387V386.167A2.383,2.383,0,0,1,417.732,383.785Z" transform="translate(-261.203 -75.454)" fill="#f9b200"/>
    <path id="Trazado_163516" data-name="Trazado 163516" d="M415.348,419.828l15.128,15.133H417.732a2.388,2.388,0,0,1-2.384-2.387Z" transform="translate(-261.203 -97.306)" fill="#9be058"/>
    <g id="Grupo_102124-2" data-name="Grupo 102124" transform="translate(114.264 290.258)">
      <path id="Trazado_163517" data-name="Trazado 163517" d="M319.894,345.615h-3.937a1.9,1.9,0,0,1-1.9-1.9v-3.937a1.9,1.9,0,0,1,1.9-1.9h3.937a1.9,1.9,0,0,1,1.9,1.9v3.937A1.9,1.9,0,0,1,319.894,345.615Z" transform="translate(-314.059 -337.883)" fill="#3fefef"/>
      <path id="Trazado_163518" data-name="Trazado 163518" d="M425.015,345.615h-3.937a1.9,1.9,0,0,1-1.9-1.9v-3.937a1.9,1.9,0,0,1,1.9-1.9h3.937a1.9,1.9,0,0,1,1.9,1.9v3.937A1.9,1.9,0,0,1,425.015,345.615Z" transform="translate(-377.791 -337.883)" fill="#3fefef"/>
      <path id="Trazado_163519" data-name="Trazado 163519" d="M530.136,345.615H526.2a1.9,1.9,0,0,1-1.9-1.9v-3.937a1.9,1.9,0,0,1,1.9-1.9h3.937a1.9,1.9,0,0,1,1.9,1.9v3.937A1.9,1.9,0,0,1,530.136,345.615Z" transform="translate(-441.523 -337.883)" fill="#3fefef"/>
      <path id="Trazado_163520" data-name="Trazado 163520" d="M319.894,556.311h-3.937a1.9,1.9,0,0,1-1.9-1.9v-3.937a1.9,1.9,0,0,1,1.9-1.9h3.937a1.9,1.9,0,0,1,1.9,1.9v3.937A1.9,1.9,0,0,1,319.894,556.311Z" transform="translate(-314.059 -465.622)" fill="#3fefef"/>
      <path id="Trazado_163521" data-name="Trazado 163521" d="M425.015,556.311h-3.937a1.9,1.9,0,0,1-1.9-1.9v-3.937a1.9,1.9,0,0,1,1.9-1.9h3.937a1.9,1.9,0,0,1,1.9,1.9v3.937A1.9,1.9,0,0,1,425.015,556.311Z" transform="translate(-377.791 -465.622)" fill="#3fefef"/>
      <path id="Trazado_163522" data-name="Trazado 163522" d="M319.894,450.962h-3.937a1.9,1.9,0,0,1-1.9-1.9v-3.937a1.9,1.9,0,0,1,1.9-1.9h3.937a1.9,1.9,0,0,1,1.9,1.9v3.937A1.9,1.9,0,0,1,319.894,450.962Z" transform="translate(-314.059 -401.752)" fill="#3fefef"/>
      <path id="Trazado_163523" data-name="Trazado 163523" d="M530.136,450.962H526.2a1.9,1.9,0,0,1-1.9-1.9v-3.937a1.9,1.9,0,0,1,1.9-1.9h3.937a1.9,1.9,0,0,1,1.9,1.9v3.937A1.9,1.9,0,0,1,530.136,450.962Z" transform="translate(-441.523 -401.752)" fill="#3fefef"/>
    </g>
    <path id="Trazado_163524" data-name="Trazado 163524" d="M507.743,516.417V529.9a1.9,1.9,0,0,1-1.9,1.9H492.366a1.9,1.9,0,0,1-1.341-3.239L504.5,515.076A1.9,1.9,0,0,1,507.743,516.417Z" transform="translate(-306.745 -154.713)" fill="#618baa"/>
    <path id="Trazado_163525" data-name="Trazado 163525" d="M365.607,292H336.549a2.953,2.953,0,0,0,0,5.906h29.057a3.079,3.079,0,0,1,3.076,3.076v108.6H178.906v-108.6a3.079,3.079,0,0,1,3.076-3.076H323.69a2.953,2.953,0,1,0,0-5.906H181.982A8.991,8.991,0,0,0,173,300.982v126.8a6.981,6.981,0,0,0,6.973,6.973h71.563v14.31H239.343a2.953,2.953,0,1,0,0,5.906h68.9a2.953,2.953,0,1,0,0-5.906H296.052v-14.31h29.005a2.953,2.953,0,1,0,0-5.906H179.973a1.069,1.069,0,0,1-1.067-1.067V415.491H368.683v12.295a1.069,1.069,0,0,1-1.067,1.067h-29.7a2.953,2.953,0,0,0,0,5.906h29.7a6.981,6.981,0,0,0,6.973-6.973v-126.8A8.991,8.991,0,0,0,365.607,292Zm-75.46,157.068h-32.7V434.757h32.7Z" transform="translate(-114.274 -19.807)"/>
    <path id="Trazado_163526" data-name="Trazado 163526" d="M214.832,408.589a2.952,2.952,0,0,0-2.953,2.953v18.427a2.952,2.952,0,0,0,2.953,2.953h22.995a2.952,2.952,0,0,0,2.953-2.953V351.6a2.952,2.952,0,0,0-2.953-2.953H214.832a2.952,2.952,0,0,0-2.953,2.953v46.651a2.953,2.953,0,0,0,5.906,0V364.023h17.089v62.992H217.785V411.54A2.952,2.952,0,0,0,214.832,408.589Zm2.953-50.471v-3.564h17.089v3.564Z" transform="translate(-137.846 -54.151)"/>
    <path id="Trazado_163527" data-name="Trazado 163527" d="M582.137,380.7h23a2.952,2.952,0,0,0,2.953-2.953V351.6a2.952,2.952,0,0,0-2.953-2.953h-23a2.953,2.953,0,0,0-2.953,2.953v26.143A2.953,2.953,0,0,0,582.137,380.7Zm2.953-5.906V364.023h17.09v10.768Zm17.09-20.237v3.564H585.09v-3.564Z" transform="translate(-360.532 -54.151)"/>
    <path id="Trazado_163528" data-name="Trazado 163528" d="M582.137,487.022h23a2.952,2.952,0,0,0,2.953-2.953V457.926a2.952,2.952,0,0,0-2.953-2.953h-23a2.953,2.953,0,0,0-2.953,2.953v26.143A2.953,2.953,0,0,0,582.137,487.022Zm2.953-5.906V470.348h17.09v10.768Zm17.09-20.237v3.563H585.09v-3.563Z" transform="translate(-360.532 -118.613)"/>
    <path id="Trazado_163529" data-name="Trazado 163529" d="M408.723,406.174V381.622a5.343,5.343,0,0,0-5.337-5.337H378.832a5.343,5.343,0,0,0-5.337,5.337v7.3a5.3,5.3,0,0,0-3.384,1.541l-17.363,17.363a5.344,5.344,0,0,0,0,7.549l17.363,17.361a5.343,5.343,0,0,0,7.549,0l17.361-17.361a5.317,5.317,0,0,0,1.556-3.861h6.809A5.345,5.345,0,0,0,408.723,406.174ZM379.4,400.556l5.049,5.049H379.4ZM390.444,411.6l-16.558,16.556L357.328,411.6,373.5,395.432v10.743a5.343,5.343,0,0,0,5.337,5.337h11.526Zm12.373-5.994H392.8l-13.4-13.4V382.189h23.416Z" transform="translate(-222.305 -70.907)"/>
    <path id="Trazado_163530" data-name="Trazado 163530" d="M473.649,499.114a2.952,2.952,0,0,0,2.931,2.633,2.789,2.789,0,0,0,.323-.017,2.953,2.953,0,0,0,2.616-3.256l-.419-3.83,3.83.419a2.953,2.953,0,1,0,.64-5.87l-7.482-.817a2.954,2.954,0,0,0-3.256,3.256Z" transform="translate(-296.044 -138.854)"/>
    <path id="Trazado_163531" data-name="Trazado 163531" d="M402.976,339.171v-3.937a4.856,4.856,0,0,0-4.851-4.851h-3.937a4.857,4.857,0,0,0-4.749,3.866H361.485a4.859,4.859,0,0,0-4.749-3.866H352.8a4.858,4.858,0,0,0-4.75,3.866H320.1a4.859,4.859,0,0,0-4.749-3.866H311.41a4.856,4.856,0,0,0-4.851,4.851v3.937a4.855,4.855,0,0,0,3.777,4.726v28.089a4.855,4.855,0,0,0-3.777,4.726v3.937a4.856,4.856,0,0,0,3.777,4.726v28.089a4.857,4.857,0,0,0-3.777,4.726v3.937a4.857,4.857,0,0,0,4.851,4.851h3.937a4.858,4.858,0,0,0,4.749-3.867h27.953a4.858,4.858,0,0,0,4.75,3.867h3.937a4.855,4.855,0,0,0,4.849-4.851V418.19a4.854,4.854,0,0,0-4.849-4.849H352.8a4.857,4.857,0,0,0-4.75,3.865H320.1a4.861,4.861,0,0,0-3.856-3.779V385.414a4.856,4.856,0,0,0,3.956-4.764v-3.937a4.854,4.854,0,0,0-3.956-4.763V343.936a4.862,4.862,0,0,0,3.856-3.781h27.952a4.86,4.86,0,0,0,4.749,3.866h3.937a4.86,4.86,0,0,0,4.751-3.866h27.952a4.862,4.862,0,0,0,3.856,3.781v28.013a4.854,4.854,0,0,0-3.956,4.763v3.937a4.855,4.855,0,0,0,4.849,4.851h3.937a4.856,4.856,0,0,0,4.851-4.851v-3.937a4.855,4.855,0,0,0-3.777-4.726V343.9A4.855,4.855,0,0,0,402.976,339.171Zm-7.733-2.882h1.827v1.826h-1.827Zm-82.778,0h1.827v1.826h-1.827Zm0,41.478h1.827v1.826h-1.827Zm1.827,43.306h-1.827v-1.827h1.827Zm39.562-1.827h1.827v1.827h-1.827Zm1.827-81.131h-1.827v-1.826h1.827Zm41.389,41.478h-1.827v-1.826h1.827Z" transform="translate(-195.247 -43.078)"/>
    <path id="Trazado_163532" data-name="Trazado 163532" d="M487.821,530.2H501.3a4.857,4.857,0,0,0,4.851-4.851V511.873a4.851,4.851,0,0,0-8.281-3.43l-13.479,13.48a4.85,4.85,0,0,0,3.43,8.279Zm12.424-15.781V524.3h-9.874Z" transform="translate(-302.2 -150.168)"/>
    <g id="Grupo_102125" data-name="Grupo 102125" transform="translate(-6.079 377.081)">
      <path id="Trazado_163533" data-name="Trazado 163533" d="M59.7,578.616v1.176H52.642v10.58a1.176,1.176,0,0,1-1.176,1.176H49.115a1.175,1.175,0,0,1-1.175-1.176v-10.58H40.886v-3.527a1.176,1.176,0,0,1,1.176-1.176H58.519a1.176,1.176,0,0,1,1.176,1.176Z" transform="translate(-18.55 -549.226)" fill="#ff7260"/>
      <path id="Trazado_163534" data-name="Trazado 163534" d="M52.735,598.788h-4.7a1.176,1.176,0,0,1-1.176-1.176v-10.58h4.7v10.58A1.175,1.175,0,0,0,52.735,598.788Z" transform="translate(-22.17 -556.467)" fill="#f2f2f2"/>
      <path id="Trazado_163535" data-name="Trazado 163535" d="M45.214,546.407v3.527H33.458v7.053h-4.7v-7.053H17v-3.527a1.176,1.176,0,0,1,1.176-1.176H44.038A1.175,1.175,0,0,1,45.214,546.407Z" transform="translate(-4.069 -531.124)" fill="#f2f2f2"/>
      <path id="Trazado_163536" data-name="Trazado 163536" d="M53.911,635.345V637.7a1.176,1.176,0,0,1-1.176,1.176h-4.7a1.176,1.176,0,0,1-1.176-1.176v-4.7a1.176,1.176,0,0,1,1.176-1.176h4.7a1.176,1.176,0,0,1,1.176,1.176Z" transform="translate(-22.17 -583.619)" fill="#aac4da"/>
      <path id="Trazado_163537" data-name="Trazado 163537" d="M113.626,573.279v4.7a1.176,1.176,0,0,1-1.176,1.176h-4.7a1.176,1.176,0,0,1-1.176-1.176v-4.7a1.176,1.176,0,0,1,1.176-1.176h4.7A1.175,1.175,0,0,1,113.626,573.279Z" transform="translate(-58.374 -547.416)" fill="#aac4da"/>
      <path id="Trazado_163538" data-name="Trazado 163538" d="M53.911,515.915v2.351a1.176,1.176,0,0,1-1.176,1.176h-4.7a1.176,1.176,0,0,1-1.175-1.176v-4.7a1.176,1.176,0,0,1,1.176-1.176h4.7a1.176,1.176,0,0,1,1.176,1.176v2.351Z" transform="translate(-22.171 -511.212)" fill="#aac4da"/>
      <path id="Trazado_163539" data-name="Trazado 163539" d="M-5.8,573.279v4.7a1.176,1.176,0,0,1-1.176,1.176h-4.7a1.176,1.176,0,0,1-1.176-1.176v-4.7a1.176,1.176,0,0,1,1.176-1.176h4.7A1.176,1.176,0,0,1-5.8,573.279Z" transform="translate(14.033 -547.416)" fill="#aac4da"/>
      <path id="Trazado_163540" data-name="Trazado 163540" d="M-5.8,635.345V637.7a1.176,1.176,0,0,1-1.176,1.176h-4.7a1.176,1.176,0,0,1-1.176-1.176v-4.7a1.176,1.176,0,0,1,1.176-1.176h4.7A1.176,1.176,0,0,1-5.8,632.994Z" transform="translate(14.033 -583.619)" fill="#d9eef7"/>
      <path id="Trazado_163541" data-name="Trazado 163541" d="M113.626,632.994v4.7a1.176,1.176,0,0,1-1.176,1.176h-4.7a1.176,1.176,0,0,1-1.176-1.176v-4.7a1.176,1.176,0,0,1,1.176-1.176h4.7A1.175,1.175,0,0,1,113.626,632.994Z" transform="translate(-58.374 -583.619)" fill="#d9eef7"/>
      <path id="Trazado_163542" data-name="Trazado 163542" d="M113.626,513.564v4.7a1.176,1.176,0,0,1-1.176,1.176h-4.7a1.176,1.176,0,0,1-1.176-1.176v-4.7a1.176,1.176,0,0,1,1.176-1.176h4.7A1.175,1.175,0,0,1,113.626,513.564Z" transform="translate(-58.374 -511.212)" fill="#d9eef7"/>
      <path id="Trazado_163543" data-name="Trazado 163543" d="M-5.8,515.915v2.351a1.176,1.176,0,0,1-1.176,1.176h-4.7a1.176,1.176,0,0,1-1.176-1.176v-4.7a1.176,1.176,0,0,1,1.176-1.176h4.7A1.176,1.176,0,0,1-5.8,513.564Z" transform="translate(14.033 -511.212)" fill="#d9eef7"/>
      <path id="Trazado_163544" data-name="Trazado 163544" d="M5.317,515.28v-2.351H-6.438v-1.176A2.351,2.351,0,0,0-8.79,509.4h-4.7a2.351,2.351,0,0,0-2.351,2.351v4.7a2.351,2.351,0,0,0,2.351,2.351h1.176v11.756h2.351V518.807H-8.79a2.351,2.351,0,0,0,2.351-2.351V515.28ZM-8.79,516.456h-4.7v-4.7h4.7Z" transform="translate(15.843 -509.402)"/>
      <path id="Trazado_163545" data-name="Trazado 163545" d="M-8.79,569.117h-4.7a2.351,2.351,0,0,0-2.351,2.351v4.7a2.351,2.351,0,0,0,2.351,2.351h4.7a2.351,2.351,0,0,0,2.351-2.351v-4.7A2.351,2.351,0,0,0-8.79,569.117Zm0,7.054h-4.7v-4.7h4.7Z" transform="translate(15.843 -545.606)"/>
      <path id="Trazado_163546" data-name="Trazado 163546" d="M110.641,551.016h-1.176V539.26h-2.351v11.756h-1.175a2.351,2.351,0,0,0-2.351,2.351v4.7a2.351,2.351,0,0,0,2.351,2.351h1.175v11.756h2.351V560.421h1.176a2.351,2.351,0,0,0,2.351-2.351v-4.7A2.351,2.351,0,0,0,110.641,551.016Zm0,7.054h-4.7v-4.7h4.7Z" transform="translate(-56.564 -527.504)"/>
      <path id="Trazado_163547" data-name="Trazado 163547" d="M110.641,509.4h-4.7a2.351,2.351,0,0,0-2.351,2.351v4.7a2.351,2.351,0,0,0,2.351,2.351h4.7a2.351,2.351,0,0,0,2.351-2.351v-4.7A2.351,2.351,0,0,0,110.641,509.4Zm0,7.054h-4.7v-4.7h4.7Z" transform="translate(-56.564 -509.402)"/>
      <path id="Trazado_163548" data-name="Trazado 163548" d="M46.223,518.807h4.7a2.351,2.351,0,0,0,2.351-2.351V515.28H65.033v-2.351H53.277v-1.176a2.351,2.351,0,0,0-2.351-2.351h-4.7a2.351,2.351,0,0,0-2.351,2.351v4.7A2.351,2.351,0,0,0,46.223,518.807Zm0-7.053h4.7v4.7h-4.7v-4.7Z" transform="translate(-20.361 -509.402)"/>
      <path id="Trazado_163549" data-name="Trazado 163549" d="M-8.79,610.731H-9.965V598.975h-2.351v11.756h-1.176a2.351,2.351,0,0,0-2.351,2.351v4.7a2.351,2.351,0,0,0,2.351,2.351h4.7a2.351,2.351,0,0,0,2.351-2.351v-4.7A2.351,2.351,0,0,0-8.79,610.731Zm0,7.053h-4.7v-4.7h4.7Z" transform="translate(15.843 -563.708)"/>
      <path id="Trazado_163550" data-name="Trazado 163550" d="M92.539,628.833h-4.7a2.351,2.351,0,0,0-2.351,2.351v1.176H73.73v2.351H85.486v1.176a2.351,2.351,0,0,0,2.351,2.351h4.7a2.351,2.351,0,0,0,2.351-2.351v-4.7A2.351,2.351,0,0,0,92.539,628.833Zm0,7.053h-4.7v-4.7h4.7Z" transform="translate(-38.463 -581.81)"/>
      <path id="Trazado_163551" data-name="Trazado 163551" d="M32.823,628.833h-4.7a2.351,2.351,0,0,0-2.351,2.351v1.176H14.014v2.351H25.77v1.176a2.351,2.351,0,0,0,2.351,2.351h4.7a2.351,2.351,0,0,0,2.351-2.351v-4.7A2.351,2.351,0,0,0,32.823,628.833Zm0,7.053h-4.7v-4.7h4.7Z" transform="translate(-2.258 -581.81)"/>
      <path id="Trazado_163552" data-name="Trazado 163552" d="M46.223,605.394v-9.4H43.872v7.053A2.351,2.351,0,0,0,46.223,605.394Z" transform="translate(-20.361 -561.898)"/>
      <path id="Trazado_163553" data-name="Trazado 163553" d="M31.648,546.948a1.176,1.176,0,0,0-1.176,1.176v3.527h2.351V549.3H43.4a1.175,1.175,0,0,0,1.176-1.175V544.6a2.351,2.351,0,0,0-2.351-2.351H16.365a2.351,2.351,0,0,0-2.351,2.351v3.527A1.175,1.175,0,0,0,15.19,549.3H25.77v2.351h2.351v-3.527a1.176,1.176,0,0,0-1.176-1.176H16.365V544.6H42.228v2.351Z" transform="translate(-2.258 -529.314)"/>
      <path id="Trazado_163554" data-name="Trazado 163554" d="M52.007,579.157h5.878a1.176,1.176,0,0,0,1.176-1.176v-3.526A2.351,2.351,0,0,0,56.71,572.1H40.251a2.351,2.351,0,0,0-2.351,2.351v3.526a1.176,1.176,0,0,0,1.176,1.176h5.878v9.4a2.351,2.351,0,0,0,2.351,2.351h2.351a2.351,2.351,0,0,0,2.351-2.351v-9.4Zm-1.176-2.351a1.176,1.176,0,0,0-1.176,1.176v10.58H47.3v-10.58a1.175,1.175,0,0,0-1.175-1.176H40.251v-2.351H56.709v2.351Z" transform="translate(-16.74 -547.416)"/>
    </g>
    <g id="Grupo_102130" data-name="Grupo 102130" transform="translate(268.69 290.355)">
      <g id="Grupo_102126" data-name="Grupo 102126" transform="translate(0.942 0.943)">
        <path id="Trazado_163555" data-name="Trazado 163555" d="M700.128,355.476v3.771a.943.943,0,0,1-.943.943h-3.771a.943.943,0,0,1-.943-.943v-3.771a.943.943,0,0,1,.943-.943h3.771A.943.943,0,0,1,700.128,355.476Z" transform="translate(-694.472 -335.68)" fill="#aac4da"/>
        <path id="Trazado_163556" data-name="Trazado 163556" d="M791.065,448.3v1.885a.943.943,0,0,1-.943.943h-3.771a.943.943,0,0,1-.943-.943v-3.771a.943.943,0,0,1,.943-.943h3.771a.943.943,0,0,1,.943.943Z" transform="translate(-766.555 -407.763)" fill="#aac4da"/>
        <path id="Trazado_163557" data-name="Trazado 163557" d="M882,355.476v3.771a.943.943,0,0,1-.943.943h-3.771a.943.943,0,0,1-.943-.943v-3.771a.943.943,0,0,1,.943-.943h3.771A.943.943,0,0,1,882,355.476Z" transform="translate(-838.638 -335.68)" fill="#aac4da"/>
        <path id="Trazado_163558" data-name="Trazado 163558" d="M791.065,266.425v1.885a.943.943,0,0,1-.943.943h-3.771a.943.943,0,0,1-.943-.943V264.54a.943.943,0,0,1,.943-.943h3.771a.943.943,0,0,1,.943.943v1.885Z" transform="translate(-766.555 -263.597)" fill="#aac4da"/>
      </g>
      <g id="Grupo_102127" data-name="Grupo 102127" transform="translate(0.942 0.943)">
        <path id="Trazado_163559" data-name="Trazado 163559" d="M700.128,448.3v1.885a.943.943,0,0,1-.943.943h-3.771a.943.943,0,0,1-.943-.943v-3.771a.943.943,0,0,1,.943-.943h3.771a.943.943,0,0,1,.943.943Z" transform="translate(-694.472 -407.763)" fill="#d9eef7"/>
        <path id="Trazado_163560" data-name="Trazado 163560" d="M882,446.413v3.771a.943.943,0,0,1-.943.943h-3.771a.943.943,0,0,1-.943-.943v-3.771a.943.943,0,0,1,.943-.943h3.771A.942.942,0,0,1,882,446.413Z" transform="translate(-838.638 -407.763)" fill="#d9eef7"/>
        <path id="Trazado_163561" data-name="Trazado 163561" d="M882,264.54v3.771a.943.943,0,0,1-.943.943h-3.771a.943.943,0,0,1-.943-.943V264.54a.943.943,0,0,1,.943-.943h3.771A.943.943,0,0,1,882,264.54Z" transform="translate(-838.638 -263.597)" fill="#d9eef7"/>
        <path id="Trazado_163562" data-name="Trazado 163562" d="M700.128,266.425v1.885a.943.943,0,0,1-.943.943h-3.771a.943.943,0,0,1-.943-.943V264.54a.943.943,0,0,1,.943-.943h3.771a.943.943,0,0,1,.943.943Z" transform="translate(-694.472 -263.597)" fill="#d9eef7"/>
      </g>
      <path id="Trazado_163563" data-name="Trazado 163563" d="M785.918,315.536a3.765,3.765,0,1,1-.509,1.885A3.765,3.765,0,0,1,785.918,315.536Z" transform="translate(-765.613 -302.339)" fill="#ffe451"/>
      <path id="Trazado_163564" data-name="Trazado 163564" d="M768.831,322.7a.943.943,0,0,1,.943.943v13.2h-.01l-4.723-4.726-4.713,4.713L755.6,332.1l-6.561,6.558V323.648a.943.943,0,0,1,.943-.943h7.108a3.784,3.784,0,0,0-.349,2.99,3.727,3.727,0,0,0,2.718,2.572,3.771,3.771,0,0,0,4.154-5.562Z" transform="translate(-736.78 -309.508)" fill="#d9eef7"/>
      <g id="Grupo_102128" data-name="Grupo 102128" transform="translate(12.255 22.586)">
        <path id="Trazado_163565" data-name="Trazado 163565" d="M813.023,372.887v3.771a.943.943,0,0,1-.943.943h-3.761l-4.723-4.723,4.7-4.7,4.713,4.713Z" transform="translate(-792.284 -368.136)" fill="#31e8bb"/>
        <path id="Trazado_163566" data-name="Trazado 163566" d="M765.059,377.456H749.977a.943.943,0,0,1-.943-.943v-1.97l6.561-6.551,4.732,4.732Z" transform="translate(-749.034 -367.992)" fill="#31e8bb"/>
      </g>
      <g id="Grupo_102129" data-name="Grupo 102129">
        <path id="Trazado_163567" data-name="Trazado 163567" d="M706.894,263.763v-1.885h-9.427v-.943a1.885,1.885,0,0,0-1.885-1.885h-3.771a1.885,1.885,0,0,0-1.885,1.885v3.771a1.885,1.885,0,0,0,1.885,1.885h.943v9.427h1.885v-9.427h.943a1.885,1.885,0,0,0,1.885-1.885v-.943Zm-11.312.943h-3.771v-3.771h3.771Z" transform="translate(-689.926 -259.05)"/>
        <path id="Trazado_163568" data-name="Trazado 163568" d="M695.582,349.986h-3.771a1.885,1.885,0,0,0-1.885,1.885v3.771a1.885,1.885,0,0,0,1.885,1.885h3.771a1.885,1.885,0,0,0,1.885-1.885v-3.771A1.885,1.885,0,0,0,695.582,349.986Zm0,5.656h-3.771v-3.771h3.771Z" transform="translate(-689.926 -331.133)"/>
        <path id="Trazado_163569" data-name="Trazado 163569" d="M877.455,313.945h-.943v-9.427h-1.885v9.427h-.943a1.885,1.885,0,0,0-1.885,1.885V319.6a1.885,1.885,0,0,0,1.885,1.885h.943v9.427h1.885v-9.427h.943a1.885,1.885,0,0,0,1.885-1.885V315.83A1.885,1.885,0,0,0,877.455,313.945Zm0,5.656h-3.771V315.83h3.771Z" transform="translate(-834.092 -295.091)"/>
        <path id="Trazado_163570" data-name="Trazado 163570" d="M877.455,259.05h-3.771a1.885,1.885,0,0,0-1.885,1.885v3.771a1.885,1.885,0,0,0,1.885,1.885h3.771a1.885,1.885,0,0,0,1.885-1.885v-3.771A1.885,1.885,0,0,0,877.455,259.05Zm0,5.656h-3.771v-3.771h3.771Z" transform="translate(-834.092 -259.05)"/>
        <path id="Trazado_163571" data-name="Trazado 163571" d="M782.747,266.591h3.771a1.885,1.885,0,0,0,1.885-1.885v-.943h9.427v-1.885H788.4v-.943a1.885,1.885,0,0,0-1.885-1.885h-3.771a1.885,1.885,0,0,0-1.885,1.885v3.771A1.886,1.886,0,0,0,782.747,266.591Zm0-5.656h3.771v3.771h-3.771v-3.771Z" transform="translate(-762.009 -259.05)"/>
        <path id="Trazado_163572" data-name="Trazado 163572" d="M695.582,404.882h-.943v-9.427h-1.885v9.427h-.943a1.885,1.885,0,0,0-1.885,1.885v3.771a1.885,1.885,0,0,0,1.885,1.885h3.771a1.885,1.885,0,0,0,1.885-1.885v-3.771A1.885,1.885,0,0,0,695.582,404.882Zm0,5.656h-3.771v-3.771h3.771Z" transform="translate(-689.926 -367.175)"/>
        <path id="Trazado_163573" data-name="Trazado 163573" d="M841.413,440.923h-3.771a1.885,1.885,0,0,0-1.885,1.885v.943H826.33v1.885h9.427v.943a1.885,1.885,0,0,0,1.885,1.885h3.771a1.885,1.885,0,0,0,1.885-1.885v-3.771A1.885,1.885,0,0,0,841.413,440.923Zm0,5.656h-3.771v-3.771h3.771Z" transform="translate(-798.05 -403.216)"/>
        <path id="Trazado_163574" data-name="Trazado 163574" d="M750.477,440.923h-3.771a1.885,1.885,0,0,0-1.885,1.885v.943h-9.427v1.885h9.427v.943a1.885,1.885,0,0,0,1.885,1.885h3.771a1.885,1.885,0,0,0,1.885-1.885v-3.771A1.885,1.885,0,0,0,750.477,440.923Zm0,5.656h-3.771v-3.771h3.771Z" transform="translate(-725.967 -403.216)"/>
        <path id="Trazado_163575" data-name="Trazado 163575" d="M746.373,320.044h3.771v-1.885h-3.771a1.885,1.885,0,0,0-1.885,1.885v16.968a1.885,1.885,0,0,0,1.885,1.885h18.853a1.885,1.885,0,0,0,1.885-1.885V320.044a1.885,1.885,0,0,0-1.885-1.885h-1.885v1.885h1.885v10.922l-3.123-3.123a.97.97,0,0,0-1.333,0l-4.047,4.047-4.066-4.066a.943.943,0,0,0-1.333,0l-4.952,4.946Zm15.064,9.8,3.789,3.784v3.38h-3.38l-3.79-3.79Zm-9.447-.02,7.19,7.184H746.373v-1.579Z" transform="translate(-733.176 -305.904)"/>
        <path id="Trazado_163576" data-name="Trazado 163576" d="M785.575,318.528a4.709,4.709,0,1,0-4.713-4.713A4.708,4.708,0,0,0,785.575,318.528Zm-2.444-6.127a2.822,2.822,0,1,1-.384,1.414,2.82,2.82,0,0,1,.384-1.414Z" transform="translate(-762.009 -298.732)"/>
      </g>
    </g>
    <g id="Grupo_102134" data-name="Grupo 102134" transform="translate(-9.562 263.985)">
      <path id="Trazado_163577" data-name="Trazado 163577" d="M85.588,384.755h7.12v8.306h-7.12Z" transform="translate(-60.669 -351.529)" fill="#fd6149"/>
      <path id="Trazado_163578" data-name="Trazado 163578" d="M83.667,342.56l7.12,9.493-3.56,3.56v3.56h-7.12v-3.56l-3.56-3.56Z" transform="translate(-55.187 -325.947)" fill="#f2f2f2"/>
      <path id="Trazado_163579" data-name="Trazado 163579" d="M67.127,346.383v-3.56l3.56-3.56-7.12-9.493-7.12,9.493,3.56,3.56v11.867h7.12Zm16.613-4.747a20.173,20.173,0,1,1-20.173-20.173A20.173,20.173,0,0,1,83.74,341.636Z" transform="translate(-35.088 -313.156)" fill="#ffe451"/>
      <g id="Grupo_102131" data-name="Grupo 102131" transform="translate(1.186 1.187)">
        <path id="Trazado_163580" data-name="Trazado 163580" d="M31.243,363.657a1.187,1.187,0,0,1,1.187,1.187v4.746a1.187,1.187,0,0,1-1.187,1.187H26.5a1.187,1.187,0,0,1-1.187-1.187v-4.747a1.187,1.187,0,0,1,1.187-1.187h4.747Z" transform="translate(-25.31 -339.924)" fill="#aac4da"/>
        <path id="Trazado_163581" data-name="Trazado 163581" d="M92.708,425.122v4.747a1.187,1.187,0,0,1-1.187,1.187H86.775a1.187,1.187,0,0,1-1.187-1.187v-4.747a1.187,1.187,0,0,1,1.187-1.187h4.747A1.187,1.187,0,0,1,92.708,425.122Z" transform="translate(-61.855 -376.469)" fill="#aac4da"/>
        <path id="Trazado_163582" data-name="Trazado 163582" d="M147.053,370.777a1.187,1.187,0,0,1-1.187-1.187v-4.747a1.187,1.187,0,0,1,1.187-1.187H151.8a1.187,1.187,0,0,1,1.186,1.187v4.747a1.187,1.187,0,0,1-1.186,1.187Z" transform="translate(-98.4 -339.924)" fill="#aac4da"/>
        <path id="Trazado_163583" data-name="Trazado 163583" d="M85.588,309.313v-4.746a1.187,1.187,0,0,1,1.187-1.187h4.747a1.187,1.187,0,0,1,1.187,1.187v4.746a1.187,1.187,0,0,1-1.187,1.187H86.775A1.187,1.187,0,0,1,85.588,309.313Z" transform="translate(-61.855 -303.38)" fill="#aac4da"/>
      </g>
      <g id="Grupo_102132" data-name="Grupo 102132" transform="translate(1.186 1.187)">
        <path id="Trazado_163584" data-name="Trazado 163584" d="M32.43,425.122v4.747a1.187,1.187,0,0,1-1.187,1.187H26.5a1.187,1.187,0,0,1-1.187-1.187v-4.747a1.187,1.187,0,0,1,1.187-1.187h4.747A1.187,1.187,0,0,1,32.43,425.122Z" transform="translate(-25.31 -376.469)" fill="#d9eef7"/>
        <path id="Trazado_163585" data-name="Trazado 163585" d="M152.986,425.122v4.747a1.187,1.187,0,0,1-1.187,1.187h-4.746a1.187,1.187,0,0,1-1.187-1.187v-4.747a1.187,1.187,0,0,1,1.187-1.187H151.8A1.187,1.187,0,0,1,152.986,425.122Z" transform="translate(-98.4 -376.469)" fill="#d9eef7"/>
        <path id="Trazado_163586" data-name="Trazado 163586" d="M147.053,303.38H151.8a1.186,1.186,0,0,1,1.186,1.187v4.746A1.186,1.186,0,0,1,151.8,310.5h-4.747a1.186,1.186,0,0,1-1.187-1.187v-4.746A1.186,1.186,0,0,1,147.053,303.38Z" transform="translate(-98.4 -303.38)" fill="#d9eef7"/>
        <path id="Trazado_163587" data-name="Trazado 163587" d="M32.43,306.94v2.373a1.187,1.187,0,0,1-1.187,1.187H26.5a1.187,1.187,0,0,1-1.187-1.187v-4.746A1.187,1.187,0,0,1,26.5,303.38h4.747a1.187,1.187,0,0,1,1.187,1.187Z" transform="translate(-25.31 -303.38)" fill="#d9eef7"/>
      </g>
      <g id="Grupo_102133" data-name="Grupo 102133" transform="translate(0 0)">
        <path id="Trazado_163588" data-name="Trazado 163588" d="M24.67,309.859h1.187v11.867H28.23V309.859h1.187a2.373,2.373,0,0,0,2.373-2.373V306.3H43.657v-2.373H31.79v-1.187a2.373,2.373,0,0,0-2.373-2.373H24.67a2.373,2.373,0,0,0-2.373,2.373v4.746A2.373,2.373,0,0,0,24.67,309.859Zm0-7.12h4.747v4.746H24.67Z" transform="translate(-22.297 -300.366)"/>
        <path id="Trazado_163589" data-name="Trazado 163589" d="M76.883,324.1H75.7V312.233H73.323V324.1H72.136a2.378,2.378,0,0,0-.533.065,21.413,21.413,0,0,0-16.146-16.146,2.4,2.4,0,0,0,.065-.533V306.3H67.39v-2.373H55.523v-1.187a2.373,2.373,0,0,0-2.373-2.373H48.4a2.373,2.373,0,0,0-2.373,2.373v4.746a2.4,2.4,0,0,0,.065.533,21.413,21.413,0,0,0-16.146,16.146,2.377,2.377,0,0,0-.533-.065H24.67a2.373,2.373,0,0,0-2.373,2.373v4.746a2.373,2.373,0,0,0,2.373,2.373h4.747a2.379,2.379,0,0,0,.533-.065A21.412,21.412,0,0,0,46.1,349.672a2.4,2.4,0,0,0-.065.533v1.187H34.164v2.373H46.03v1.187a2.373,2.373,0,0,0,2.373,2.373H53.15a2.373,2.373,0,0,0,2.373-2.373v-4.747a2.4,2.4,0,0,0-.065-.533A21.412,21.412,0,0,0,71.6,333.527a2.379,2.379,0,0,0,.533.065h1.187v11.867H75.7V333.592h1.187a2.373,2.373,0,0,0,2.373-2.373v-4.746A2.373,2.373,0,0,0,76.883,324.1ZM48.4,307.486v-4.746H53.15v4.746ZM29.417,331.219H24.67v-4.747h4.747ZM53.15,350.205v4.747H48.4v-4.747Zm-2.373-2.373a18.986,18.986,0,1,1,18.986-18.986A18.986,18.986,0,0,1,50.777,347.832Zm26.107-16.613H72.136v-4.747h4.747Z" transform="translate(-22.297 -300.366)"/>
        <path id="Trazado_163590" data-name="Trazado 163590" d="M149.972,300.366h-4.747a2.373,2.373,0,0,0-2.373,2.373v4.746a2.373,2.373,0,0,0,2.373,2.373h4.747a2.373,2.373,0,0,0,2.373-2.373v-4.746A2.373,2.373,0,0,0,149.972,300.366Zm0,7.12h-4.747v-4.746h4.747Z" transform="translate(-95.386 -300.366)"/>
        <path id="Trazado_163591" data-name="Trazado 163591" d="M29.417,402.649H28.23V390.783H25.857v11.866H24.67a2.373,2.373,0,0,0-2.373,2.373v4.747a2.373,2.373,0,0,0,2.373,2.373h4.747a2.373,2.373,0,0,0,2.373-2.373v-4.747A2.373,2.373,0,0,0,29.417,402.649Zm0,7.12H24.67v-4.747h4.747Z" transform="translate(-22.297 -355.183)"/>
        <path id="Trazado_163592" data-name="Trazado 163592" d="M131.7,420.921h-4.747a2.373,2.373,0,0,0-2.373,2.373v1.187H112.713v2.373H124.58v1.187a2.373,2.373,0,0,0,2.373,2.373H131.7a2.373,2.373,0,0,0,2.373-2.373v-4.747A2.373,2.373,0,0,0,131.7,420.921Zm0,7.12h-4.747v-4.747H131.7Z" transform="translate(-77.114 -373.455)"/>
        <path id="Trazado_163593" data-name="Trazado 163593" d="M82.789,340.062a1.229,1.229,0,0,0-1.73-.168,1.209,1.209,0,0,0-.168.168l-7.12,9.493a1.187,1.187,0,0,0,.111,1.551l3.212,3.212V356.2H74.72v2.373h2.373v7.12h2.373v-7.12h4.747v7.12h2.373v-7.12h2.373V356.2H86.586v-1.882l3.212-3.212a1.187,1.187,0,0,0,.111-1.551Zm1.772,12.926a1.185,1.185,0,0,0-.348.839V356.2H79.466v-2.373a1.188,1.188,0,0,0-.348-.839l-2.832-2.832,4.367-5.822v5.933h2.373v-5.933l4.367,5.822Z" transform="translate(-53.36 -324.161)"/>
      </g>
    </g>
  </g>
</svg>
