<svg xmlns="http://www.w3.org/2000/svg" width="80.001" height="106.224" viewBox="0 0 80.001 106.224">
  <g id="Grupo_26005" data-name="Grupo 26005" transform="translate(18133.192 2755.922)">
    <path id="Trazado_13089" data-name="Trazado 13089" d="M-79.864,6628.479h61.192a8.747,8.747,0,0,0,8.721-8.721v-87.416a8.747,8.747,0,0,0-8.721-8.721h-44.8l-25.11,25.11v71.027A8.747,8.747,0,0,0-79.864,6628.479Z" transform="translate(-18043.924 -9278.859)" fill="#d8cca6" fill-rule="evenodd"/>
    <path id="Trazado_13090" data-name="Trazado 13090" d="M-84.1,6623.557h61.192a8.015,8.015,0,0,0,5.677-2.362,8.014,8.014,0,0,0,2.362-5.677V6528.1a8.015,8.015,0,0,0-2.362-5.677,8.015,8.015,0,0,0-5.677-2.362H-67.432l-24.71,24.71v70.745a8.014,8.014,0,0,0,2.362,5.677,8.015,8.015,0,0,0,5.677,2.362Zm61.192,1.365H-84.1a9.375,9.375,0,0,1-6.642-2.762,9.375,9.375,0,0,1-2.762-6.642v-71.027h0a.679.679,0,0,1,.2-.482l25.1-25.1a.679.679,0,0,1,.49-.208h44.8a9.377,9.377,0,0,1,6.642,2.762,9.376,9.376,0,0,1,2.762,6.642v87.416a9.375,9.375,0,0,1-2.762,6.642A9.375,9.375,0,0,1-22.911,6624.922Z" transform="translate(-18039.684 -9274.62)" fill="#013668"/>
    <path id="Trazado_13091" data-name="Trazado 13091" d="M-88.585,6548.731H-72.2a8.747,8.747,0,0,0,8.721-8.721v-16.389Z" transform="translate(-18043.924 -9278.86)" fill="#fffffe" fill-rule="evenodd"/>
    <path id="Trazado_13092" data-name="Trazado 13092" d="M-91.176,6543.809h14.741a8.014,8.014,0,0,0,5.677-2.362,8.014,8.014,0,0,0,2.362-5.677v-14.741l-22.78,22.78Zm14.741,1.365H-92.824a.682.682,0,0,1-.483-.2.683.683,0,0,1,0-.965l25.1-25.1a.679.679,0,0,1,.49-.208.682.682,0,0,1,.683.683v16.389a9.375,9.375,0,0,1-2.762,6.642A9.375,9.375,0,0,1-76.435,6545.174Z" transform="translate(-18039.686 -9274.621)" fill="#013668"/>
    <rect id="Rectángulo_6225" data-name="Rectángulo 6225" width="65.971" height="33.632" rx="5" transform="translate(-18126.178 -2707.071)" fill="#fffffe"/>
    <path id="Trazado_13093" data-name="Trazado 13093" d="M-42.561,6865.977H14.182a5.311,5.311,0,0,1,5.3,5.3v24.4a5.311,5.311,0,0,1-5.3,5.3H-42.561a5.281,5.281,0,0,1-3.742-1.556,5.282,5.282,0,0,1-1.555-3.742v-24.4a5.282,5.282,0,0,1,1.555-3.742,5.283,5.283,0,0,1,3.742-1.556Zm56.743,1.366H-42.561a3.919,3.919,0,0,0-2.776,1.155,3.919,3.919,0,0,0-1.155,2.776v24.4a3.92,3.92,0,0,0,1.155,2.776,3.919,3.919,0,0,0,2.776,1.155H14.182a3.945,3.945,0,0,0,3.932-3.932v-24.4a3.945,3.945,0,0,0-3.932-3.932Z" transform="translate(-18079.002 -9573.73)" fill="#013668"/>
    <g id="Grupo_25989" data-name="Grupo 25989" transform="translate(-18112.701 -2697.716)">
      <path id="Trazado_13094" data-name="Trazado 13094" d="M65.755,6951.118l-.036-6.768-3.283,5.509H60.83l-3.265-5.326v6.585H54.227v-12.769H57.2l4.487,7.37,4.378-7.37h2.973l.036,12.769Z" transform="translate(-54.227 -6938.349)" fill="#013668"/>
      <path id="Trazado_13095" data-name="Trazado 13095" d="M188.538,6938.924a4.5,4.5,0,0,1,0,8.281,7.281,7.281,0,0,1-3.01.575H183.3v3.338h-3.612v-12.769h5.837A7.281,7.281,0,0,1,188.538,6938.924Zm-1.551,5.527a1.711,1.711,0,0,0,.566-1.377,1.741,1.741,0,0,0-.566-1.386,2.49,2.49,0,0,0-1.678-.493H183.3v3.739h2.007A2.521,2.521,0,0,0,186.988,6944.451Z" transform="translate(-162.289 -6938.349)" fill="#013668"/>
      <path id="Trazado_13096" data-name="Trazado 13096" d="M274.591,6944.761a3.479,3.479,0,0,1,.848,2.362,3.85,3.85,0,0,1-.611,2.1,4.3,4.3,0,0,1-1.861,1.56,7.194,7.194,0,0,1-3.092.593,11.033,11.033,0,0,1-2.672-.329,7.9,7.9,0,0,1-2.289-.93l1.313-2.718a5.882,5.882,0,0,0,1.687.784,6.589,6.589,0,0,0,1.851.274,2.74,2.74,0,0,0,1.478-.347,1.1,1.1,0,0,0,.547-.985q0-1.24-1.952-1.24h-1.514v-2.28l2.28-2.462h-5.035v-2.791h9.23v2.262l-2.645,2.846A4.254,4.254,0,0,1,274.591,6944.761Z" transform="translate(-235.691 -6938.349)" fill="#013668"/>
    </g>
  </g>
</svg>
