<svg xmlns="http://www.w3.org/2000/svg" width="80" height="106.224" viewBox="0 0 80 106.224">
  <g id="Grupo_26007" data-name="Grupo 26007" transform="translate(16673.847 2755.922)">
    <path id="Trazado_13105" data-name="Trazado 13105" d="M1379.48,6628.479h61.193a8.747,8.747,0,0,0,8.721-8.721v-87.417a8.747,8.747,0,0,0-8.721-8.721h-44.8l-25.11,25.11v71.027A8.747,8.747,0,0,0,1379.48,6628.479Z" transform="translate(-18043.922 -9278.859)" fill="#df85a8" fill-rule="evenodd"/>
    <path id="Trazado_13106" data-name="Trazado 13106" d="M1375.241,6623.557h61.193a8.063,8.063,0,0,0,8.038-8.038V6528.1a8.063,8.063,0,0,0-8.038-8.038h-44.521l-24.71,24.71v70.745a8.064,8.064,0,0,0,8.038,8.038Zm61.193,1.365h-61.193a9.429,9.429,0,0,1-9.4-9.4v-71.027h0a.679.679,0,0,1,.2-.482l25.1-25.1a.68.68,0,0,1,.49-.208h44.8a9.429,9.429,0,0,1,9.4,9.4v87.417a9.429,9.429,0,0,1-9.4,9.4Z" transform="translate(-18039.684 -9274.62)" fill="#013668"/>
    <path id="Trazado_13107" data-name="Trazado 13107" d="M1370.759,6548.731h16.389a8.747,8.747,0,0,0,8.721-8.722v-16.389Z" transform="translate(-18043.922 -9278.86)" fill="#fffffe" fill-rule="evenodd"/>
    <path id="Trazado_13108" data-name="Trazado 13108" d="M1368.169,6543.809h14.741a8.064,8.064,0,0,0,8.038-8.039V6521.03l-22.78,22.779Zm14.741,1.365h-16.389a.682.682,0,0,1-.483-1.165l25.1-25.1a.683.683,0,0,1,1.173.475v16.389a9.429,9.429,0,0,1-9.4,9.4Z" transform="translate(-18039.684 -9274.621)" fill="#013668"/>
    <rect id="Rectángulo_6227" data-name="Rectángulo 6227" width="65.971" height="33.632" rx="5" transform="translate(-16666.832 -2707.071)" fill="#fffffe"/>
    <path id="Trazado_13109" data-name="Trazado 13109" d="M1416.784,6865.977h56.743a5.31,5.31,0,0,1,5.3,5.3v24.4a5.311,5.311,0,0,1-5.3,5.3h-56.743a5.311,5.311,0,0,1-5.3-5.3v-24.4a5.31,5.31,0,0,1,5.3-5.3Zm56.743,1.365h-56.743a3.944,3.944,0,0,0-3.932,3.932v24.4a3.944,3.944,0,0,0,3.932,3.932h56.743a3.944,3.944,0,0,0,3.932-3.932v-24.4a3.944,3.944,0,0,0-3.932-3.932Z" transform="translate(-18079.002 -9573.73)" fill="#013668"/>
    <g id="Grupo_25991" data-name="Grupo 25991" transform="translate(-16656.072 -2697.716)">
      <path id="Trazado_13110" data-name="Trazado 13110" d="M1504.063,6948.637h-5.4l-1,2.481h-3.685l5.637-12.769h3.557l5.655,12.769h-3.758Zm-1.058-2.663-1.642-4.086-1.642,4.086Z" transform="translate(-1493.976 -6938.349)" fill="#013668"/>
      <path id="Trazado_13111" data-name="Trazado 13111" d="M1608.394,6938.349h3.612v12.769h-3.612Z" transform="translate(-1592.524 -6938.349)" fill="#013668"/>
      <path id="Trazado_13112" data-name="Trazado 13112" d="M1656.588,6941.14v2.81h5.637v2.791h-5.637v4.377h-3.612v-12.769h10.015v2.791Z" transform="translate(-1630.922 -6938.349)" fill="#013668"/>
      <path id="Trazado_13113" data-name="Trazado 13113" d="M1741.02,6941.14v2.81h5.636v2.791h-5.636v4.377h-3.612v-12.769h10.015v2.791Z" transform="translate(-1703.644 -6938.349)" fill="#013668"/>
    </g>
  </g>
</svg>
