<svg xmlns="http://www.w3.org/2000/svg" width="80" height="106.224" viewBox="0 0 80 106.224">
  <g id="Grupo_26027" data-name="Grupo 26027" transform="translate(14541.436 2755.922)">
    <path id="Trazado_13128" data-name="Trazado 13128" d="M3511.891,6628.479h61.192a8.746,8.746,0,0,0,8.721-8.721v-87.416a8.746,8.746,0,0,0-8.721-8.721h-44.8l-25.11,25.11v71.027A8.747,8.747,0,0,0,3511.891,6628.479Z" transform="translate(-18043.922 -9278.859)" fill="#ffce78" fill-rule="evenodd"/>
    <path id="Trazado_13129" data-name="Trazado 13129" d="M3507.652,6623.557h61.192a8.063,8.063,0,0,0,8.038-8.039V6528.1a8.063,8.063,0,0,0-8.038-8.039h-44.521l-24.71,24.71v70.745a8.063,8.063,0,0,0,8.039,8.039Zm61.192,1.365h-61.192a9.429,9.429,0,0,1-9.4-9.4v-71.027h0a.679.679,0,0,1,.2-.482l25.1-25.1a.679.679,0,0,1,.49-.208h44.8a9.43,9.43,0,0,1,9.4,9.4v87.416a9.43,9.43,0,0,1-9.4,9.4Z" transform="translate(-18039.684 -9274.62)" fill="#013668"/>
    <path id="Trazado_13130" data-name="Trazado 13130" d="M3503.17,6548.731h16.389a8.747,8.747,0,0,0,8.721-8.721v-16.389Z" transform="translate(-18043.922 -9278.86)" fill="#fffffe" fill-rule="evenodd"/>
    <path id="Trazado_13131" data-name="Trazado 13131" d="M3500.579,6543.809h14.741a8.063,8.063,0,0,0,8.038-8.039v-14.741l-22.78,22.78Zm14.741,1.365h-16.389a.682.682,0,0,1-.483-1.165l25.1-25.1a.683.683,0,0,1,1.173.475v16.389a9.429,9.429,0,0,1-9.4,9.4Z" transform="translate(-18039.684 -9274.621)" fill="#013668"/>
    <rect id="Rectángulo_6230" data-name="Rectángulo 6230" width="65.971" height="33.632" rx="5" transform="translate(-14534.421 -2707.071)" fill="#fffffe"/>
    <path id="Trazado_13132" data-name="Trazado 13132" d="M3549.194,6865.977h56.743a5.311,5.311,0,0,1,5.3,5.3v24.4a5.311,5.311,0,0,1-5.3,5.3h-56.743a5.311,5.311,0,0,1-5.3-5.3v-24.4a5.311,5.311,0,0,1,5.3-5.3Zm56.743,1.366h-56.743a3.945,3.945,0,0,0-3.932,3.932v24.4a3.945,3.945,0,0,0,3.932,3.932h56.743a3.945,3.945,0,0,0,3.932-3.932v-24.4a3.945,3.945,0,0,0-3.932-3.932Z" transform="translate(-18079 -9573.73)" fill="#013668"/>
    <g id="Grupo_25993" data-name="Grupo 25993" transform="translate(-14522.933 -2697.971)">
      <path id="Trazado_13133" data-name="Trazado 13133" d="M3641.733,6948.637h-5.4l-1,2.481h-3.685l5.636-12.769h3.557l5.655,12.769h-3.758Zm-1.058-2.663-1.642-4.086-1.642,4.086Z" transform="translate(-3631.646 -6938.094)" fill="#013668"/>
      <path id="Trazado_13134" data-name="Trazado 13134" d="M3748.918,6948.637h-5.4l-1,2.481h-3.685l5.637-12.769h3.557l5.655,12.769h-3.758Zm-1.058-2.663-1.642-4.086-1.642,4.086Z" transform="translate(-3723.964 -6938.094)" fill="#013668"/>
      <path id="Trazado_13135" data-name="Trazado 13135" d="M3850.619,6948.938a6.342,6.342,0,0,1-2.508-2.362,6.9,6.9,0,0,1,0-6.859,6.342,6.342,0,0,1,2.508-2.362,7.557,7.557,0,0,1,3.6-.848,7.739,7.739,0,0,1,3.156.62,6.076,6.076,0,0,1,2.335,1.788l-2.3,2.08a3.782,3.782,0,0,0-3.01-1.5,3.717,3.717,0,0,0-1.851.456,3.165,3.165,0,0,0-1.259,1.287,4.287,4.287,0,0,0,0,3.812,3.158,3.158,0,0,0,1.259,1.286,3.712,3.712,0,0,0,1.851.456,3.782,3.782,0,0,0,3.01-1.5l2.3,2.08a6.071,6.071,0,0,1-2.335,1.788,7.739,7.739,0,0,1-3.156.62A7.557,7.557,0,0,1,3850.619,6948.938Z" transform="translate(-3817.301 -6936.507)" fill="#013668"/>
    </g>
  </g>
</svg>
