<svg xmlns="http://www.w3.org/2000/svg" width="80" height="106.224" viewBox="0 0 80 106.224">
  <g id="Grupo_26011" data-name="Grupo 26011" transform="translate(13813.716 2755.922)">
    <path id="Trazado_13136" data-name="Trazado 13136" d="M4239.611,6628.479H4300.8a8.746,8.746,0,0,0,8.721-8.721v-87.416a8.746,8.746,0,0,0-8.721-8.721H4256l-25.11,25.11v71.027A8.747,8.747,0,0,0,4239.611,6628.479Z" transform="translate(-18043.924 -9278.859)" fill="#a779c3" fill-rule="evenodd"/>
    <path id="Trazado_13137" data-name="Trazado 13137" d="M4235.372,6623.557h61.192a8.063,8.063,0,0,0,8.039-8.039V6528.1a8.063,8.063,0,0,0-8.039-8.039h-44.521l-24.71,24.71v70.745a8.064,8.064,0,0,0,8.039,8.039Zm61.192,1.365h-61.192a9.429,9.429,0,0,1-9.4-9.4v-71.027h0a.679.679,0,0,1,.2-.482l25.1-25.1a.679.679,0,0,1,.49-.208h44.8a9.43,9.43,0,0,1,9.4,9.4v87.416a9.43,9.43,0,0,1-9.4,9.4Z" transform="translate(-18039.684 -9274.62)" fill="#013668"/>
    <path id="Trazado_13138" data-name="Trazado 13138" d="M4230.89,6548.731h16.389a8.747,8.747,0,0,0,8.721-8.721v-16.389Z" transform="translate(-18043.924 -9278.86)" fill="#fffffe" fill-rule="evenodd"/>
    <path id="Trazado_13139" data-name="Trazado 13139" d="M4228.3,6543.809h14.741a8.064,8.064,0,0,0,8.039-8.039v-14.741l-22.78,22.78Zm14.741,1.365h-16.389a.682.682,0,0,1-.482-1.165l25.1-25.1a.683.683,0,0,1,1.173.475v16.389a9.429,9.429,0,0,1-9.4,9.4Z" transform="translate(-18039.684 -9274.621)" fill="#013668"/>
    <rect id="Rectángulo_6231" data-name="Rectángulo 6231" width="65.971" height="33.632" rx="5" transform="translate(-13806.701 -2707.071)" fill="#fffffe"/>
    <path id="Trazado_13140" data-name="Trazado 13140" d="M4276.914,6865.977h56.743a5.311,5.311,0,0,1,5.3,5.3v24.4a5.311,5.311,0,0,1-5.3,5.3h-56.743a5.311,5.311,0,0,1-5.3-5.3v-24.4a5.311,5.311,0,0,1,5.3-5.3Zm56.743,1.366h-56.743a3.944,3.944,0,0,0-3.932,3.932v24.4a3.944,3.944,0,0,0,3.932,3.932h56.743a3.944,3.944,0,0,0,3.932-3.932v-24.4a3.944,3.944,0,0,0-3.932-3.932Z" transform="translate(-18079.002 -9573.73)" fill="#013668"/>
    <text id="OGG" transform="translate(-13774.492 -2683.562)" fill="#013668" font-size="18" font-family="Montserrat-ExtraBold, Montserrat" font-weight="800"><tspan x="-21.474" y="0">OGG</tspan></text>
  </g>
</svg>
