<svg xmlns="http://www.w3.org/2000/svg" width="80" height="106.224" viewBox="0 0 80 106.224">
  <g id="Grupo_26034" data-name="Grupo 26034" transform="translate(13023.59 2755.922)">
    <path id="Trazado_13141" data-name="Trazado 13141" d="M5029.737,6628.479h61.192a8.747,8.747,0,0,0,8.721-8.721v-87.416a8.747,8.747,0,0,0-8.721-8.721h-44.8l-25.11,25.11v71.027A8.746,8.746,0,0,0,5029.737,6628.479Z" transform="translate(-18043.924 -9278.859)" fill="#bccca3" fill-rule="evenodd"/>
    <path id="Trazado_13142" data-name="Trazado 13142" d="M5025.5,6623.557h61.192a8.064,8.064,0,0,0,8.039-8.039V6528.1a8.064,8.064,0,0,0-8.039-8.039H5042.17l-24.71,24.71v70.745a8.063,8.063,0,0,0,8.038,8.039Zm61.192,1.365H5025.5a9.429,9.429,0,0,1-9.4-9.4v-71.027h0a.679.679,0,0,1,.2-.482l25.1-25.1a.679.679,0,0,1,.49-.208h44.8a9.429,9.429,0,0,1,9.4,9.4v87.416a9.429,9.429,0,0,1-9.4,9.4Z" transform="translate(-18039.684 -9274.62)" fill="#013668"/>
    <path id="Trazado_13143" data-name="Trazado 13143" d="M5021.017,6548.731h16.389a8.747,8.747,0,0,0,8.721-8.721v-16.389Z" transform="translate(-18043.924 -9278.86)" fill="#fffffe" fill-rule="evenodd"/>
    <path id="Trazado_13144" data-name="Trazado 13144" d="M5018.426,6543.809h14.741a8.064,8.064,0,0,0,8.039-8.039v-14.741l-22.779,22.78Zm14.741,1.365h-16.389a.682.682,0,0,1-.483-1.165l25.1-25.1a.683.683,0,0,1,1.173.475v16.389a9.429,9.429,0,0,1-9.4,9.4Z" transform="translate(-18039.686 -9274.621)" fill="#013668"/>
    <rect id="Rectángulo_6232" data-name="Rectángulo 6232" width="65.971" height="33.632" rx="5" transform="translate(-13016.575 -2707.071)" fill="#fffffe"/>
    <path id="Trazado_13145" data-name="Trazado 13145" d="M5067.041,6865.977h56.743a5.311,5.311,0,0,1,5.3,5.3v24.4a5.311,5.311,0,0,1-5.3,5.3h-56.743a5.311,5.311,0,0,1-5.3-5.3v-24.4a5.311,5.311,0,0,1,5.3-5.3Zm56.743,1.366h-56.743a3.944,3.944,0,0,0-3.932,3.932v24.4a3.944,3.944,0,0,0,3.932,3.932h56.743a3.944,3.944,0,0,0,3.931-3.932v-24.4a3.944,3.944,0,0,0-3.931-3.932Z" transform="translate(-18079.002 -9573.73)" fill="#013668"/>
    <text id="ALAC" transform="translate(-12983.498 -2685.562)" fill="#013668" font-size="18" font-family="Montserrat-ExtraBold, Montserrat" font-weight="800"><tspan x="-26.262" y="0">ALAC</tspan></text>
  </g>
</svg>
