<svg xmlns="http://www.w3.org/2000/svg" xmlns:xlink="http://www.w3.org/1999/xlink" width="273.069" height="170.33" viewBox="0 0 273.069 170.33">
  <defs>
    <linearGradient id="linear-gradient" x1="0.494" y1="17.083" x2="0.477" y2="62.385" gradientUnits="objectBoundingBox">
      <stop offset="0" stop-color="#cb236d"/>
      <stop offset="1" stop-color="#4c246d"/>
    </linearGradient>
    <linearGradient id="linear-gradient-2" y1="0.5" x2="1" y2="0.5" gradientUnits="objectBoundingBox">
      <stop offset="0" stop-color="#09005d"/>
      <stop offset="1" stop-color="#1a0f91"/>
    </linearGradient>
    <linearGradient id="linear-gradient-3" x1="0.171" y1="-1.204" x2="0.304" y2="-0.479" gradientUnits="objectBoundingBox">
      <stop offset="0" stop-color="#ff928e"/>
      <stop offset="1" stop-color="#feb3b1"/>
    </linearGradient>
    <linearGradient id="linear-gradient-4" x1="-132.616" y1="-1305.452" x2="-132.072" y2="-1305.452" xlink:href="#linear-gradient-3"/>
    <linearGradient id="linear-gradient-5" x1="483.82" y1="-154.048" x2="484.52" y2="-154.048" xlink:href="#linear-gradient-3"/>
    <linearGradient id="linear-gradient-6" x1="0.096" y1="-3.521" x2="0.279" y2="-1.668" xlink:href="#linear-gradient-3"/>
    <linearGradient id="linear-gradient-7" x1="3.947" y1="-2.981" x2="2.537" y2="-1.552" xlink:href="#linear-gradient-3"/>
    <linearGradient id="linear-gradient-8" x1="0.791" y1="0.182" x2="0.263" y2="1.128" xlink:href="#linear-gradient-3"/>
    <linearGradient id="linear-gradient-9" x1="0.117" y1="-0.4" x2="0.774" y2="1.027" xlink:href="#linear-gradient-3"/>
    <linearGradient id="linear-gradient-10" x1="-1.036" y1="-2.184" x2="1.652" y2="2.471" xlink:href="#linear-gradient-3"/>
    <linearGradient id="linear-gradient-11" x1="1.915" y1="-1.309" x2="1.302" y2="-0.547" xlink:href="#linear-gradient-3"/>
    <linearGradient id="linear-gradient-12" x1="2.628" y1="-4.524" x2="1.595" y2="-2.109" xlink:href="#linear-gradient-3"/>
    <linearGradient id="linear-gradient-13" x1="-0.987" y1="-0.824" x2="-0.271" y2="-0.159" xlink:href="#linear-gradient-3"/>
    <linearGradient id="linear-gradient-14" x1="-149.473" y1="-1072.531" x2="-148.967" y2="-1072.531" xlink:href="#linear-gradient-3"/>
    <linearGradient id="linear-gradient-15" x1="1.184" y1="-0.334" x2="0.324" y2="0.955" xlink:href="#linear-gradient-3"/>
    <linearGradient id="linear-gradient-16" x1="-0.038" y1="-0.763" x2="0.688" y2="0.854" xlink:href="#linear-gradient-3"/>
    <linearGradient id="linear-gradient-17" x1="-1.67" y1="-3.378" x2="1.3" y2="1.897" xlink:href="#linear-gradient-3"/>
    <linearGradient id="linear-gradient-18" x1="61.502" y1="-0.769" x2="58.315" y2="0.451" xlink:href="#linear-gradient-3"/>
    <linearGradient id="linear-gradient-19" x1="106.372" y1="-3.7" x2="100.885" y2="-0.826" xlink:href="#linear-gradient-3"/>
    <linearGradient id="linear-gradient-20" x1="-272.857" y1="-732.992" x2="-272.229" y2="-732.992" xlink:href="#linear-gradient-3"/>
    <linearGradient id="linear-gradient-21" x1="614.604" y1="-85.728" x2="615.315" y2="-85.728" xlink:href="#linear-gradient-3"/>
    <linearGradient id="linear-gradient-22" x1="0.825" y1="-0.382" x2="0.096" y2="1.892" xlink:href="#linear-gradient-3"/>
    <linearGradient id="linear-gradient-23" x1="0.065" y1="-0.629" x2="0.676" y2="0.883" xlink:href="#linear-gradient-3"/>
    <linearGradient id="linear-gradient-24" x1="-1.255" y1="-2.983" x2="1.246" y2="1.953" xlink:href="#linear-gradient-3"/>
    <linearGradient id="linear-gradient-25" x1="1.213" y1="-1.755" x2="0.845" y2="-0.6" xlink:href="#linear-gradient-3"/>
    <linearGradient id="linear-gradient-26" x1="93.468" y1="-44.268" x2="93.667" y2="-43.613" xlink:href="#linear-gradient-3"/>
    <linearGradient id="linear-gradient-27" x1="129.959" y1="-116.386" x2="130.232" y2="-114.701" xlink:href="#linear-gradient-3"/>
    <linearGradient id="linear-gradient-28" x1="-569.92" y1="-633.343" x2="-568.837" y2="-633.343" xlink:href="#linear-gradient-3"/>
    <linearGradient id="linear-gradient-29" x1="-172.659" y1="-1514.812" x2="-172.137" y2="-1514.812" xlink:href="#linear-gradient-3"/>
    <linearGradient id="linear-gradient-30" x1="1.037" y1="-0.3" x2="0.021" y2="1.592" xlink:href="#linear-gradient-3"/>
    <linearGradient id="linear-gradient-31" x1="0.118" y1="-0.466" x2="0.719" y2="0.964" xlink:href="#linear-gradient-3"/>
    <linearGradient id="linear-gradient-32" x1="-1.036" y1="-2.438" x2="1.423" y2="2.231" xlink:href="#linear-gradient-3"/>
    <linearGradient id="linear-gradient-33" x1="0.79" y1="-2.787" x2="0.649" y2="-1.198" xlink:href="#linear-gradient-3"/>
    <linearGradient id="linear-gradient-34" x1="0.029" y1="-0.344" x2="0.43" y2="0.45" xlink:href="#linear-gradient-3"/>
    <linearGradient id="linear-gradient-35" x1="-203.307" y1="-2628.115" x2="-202.763" y2="-2628.115" xlink:href="#linear-gradient-3"/>
    <linearGradient id="linear-gradient-36" x1="935.377" y1="-319.357" x2="936.077" y2="-319.357" xlink:href="#linear-gradient-3"/>
    <linearGradient id="linear-gradient-37" x1="0.688" y1="-2.404" x2="0.621" y2="-1.336" xlink:href="#linear-gradient-3"/>
    <linearGradient id="linear-gradient-38" x1="0.859" y1="-2.52" x2="0.686" y2="-1.059" xlink:href="#linear-gradient-3"/>
    <linearGradient id="linear-gradient-39" x1="0.276" y1="1.206" x2="0.6" y2="0.434" xlink:href="#linear-gradient-3"/>
    <linearGradient id="linear-gradient-40" x1="-0.233" y1="-0.932" x2="0.728" y2="0.83" xlink:href="#linear-gradient-3"/>
    <linearGradient id="linear-gradient-41" x1="-2.451" y1="-3.847" x2="1.481" y2="1.902" xlink:href="#linear-gradient-3"/>
    <linearGradient id="linear-gradient-42" x1="-0.596" y1="-0.338" x2="-2.337" y2="2.053" xlink:href="#linear-gradient-3"/>
    <linearGradient id="linear-gradient-43" x1="-102.961" y1="1.602" x2="-101.926" y2="-1.187" xlink:href="#linear-gradient-3"/>
    <linearGradient id="linear-gradient-44" x1="-43.93" y1="1.698" x2="-43.466" y2="-1.193" xlink:href="#linear-gradient-3"/>
    <linearGradient id="linear-gradient-45" x1="0.725" y1="-0.193" x2="0.204" y2="1.667" xlink:href="#linear-gradient-3"/>
    <linearGradient id="linear-gradient-46" x1="-98.285" y1="-9.604" x2="-97.659" y2="-7.634" xlink:href="#linear-gradient-3"/>
    <linearGradient id="linear-gradient-47" x1="-370.084" y1="-32.044" x2="-367.719" y2="-25.802" xlink:href="#linear-gradient-3"/>
    <linearGradient id="linear-gradient-48" x1="12.742" y1="0.5" x2="13.742" y2="0.5" xlink:href="#linear-gradient-3"/>
    <linearGradient id="linear-gradient-49" x1="-57.423" y1="-1.222" x2="-59.116" y2="3.818" xlink:href="#linear-gradient-3"/>
    <linearGradient id="linear-gradient-50" x1="-103.416" y1="0.5" x2="-102.416" y2="0.5" xlink:href="#linear-gradient-3"/>
    <linearGradient id="linear-gradient-51" x1="-111.798" y1="0.5" x2="-110.798" y2="0.5" xlink:href="#linear-gradient-3"/>
    <linearGradient id="linear-gradient-52" x1="-29.583" y1="0.5" x2="-28.583" y2="0.5" xlink:href="#linear-gradient-3"/>
    <linearGradient id="linear-gradient-53" x1="-47.97" y1="0.5" x2="-46.97" y2="0.5" xlink:href="#linear-gradient-3"/>
    <linearGradient id="linear-gradient-54" x1="0.535" y1="-2.765" x2="0.504" y2="0.396" xlink:href="#linear-gradient-3"/>
    <linearGradient id="linear-gradient-55" x1="3.358" y1="-0.013" x2="2.137" y2="0.199" xlink:href="#linear-gradient-3"/>
    <linearGradient id="linear-gradient-56" x1="-140.416" y1="-78.348" x2="-137.163" y2="-80.736" xlink:href="#linear-gradient-3"/>
  </defs>
  <g id="Grupo_86662" data-name="Grupo 86662" transform="translate(-126 -112.143)">
    <path id="Trazado_148333" data-name="Trazado 148333" d="M174.558,124.1c-21.181,17.043,7.133,38.92-7.536,48.47S91.6,200.751,152.781,237.7s64.273,54.895,107.946,31.5,39.122-21.061,75.061-5.244,73.5-8.791,60.732-38-20.9-28.841-6.32-47.492S379.393,98.3,329.191,138.191s-55.667,16.342-76.9-4.4C240.8,122.563,208.032,97.171,174.558,124.1Z" transform="translate(0)" fill="#ffeab2"/>
    <g id="Grupo_86662-2" data-name="Grupo 86662" transform="translate(162.603 123.136)">
      <path id="Trazado_148334" data-name="Trazado 148334" d="M478.627,299.729s-12.248-61.663-41.038-96.112a3.811,3.811,0,0,0-6.566,1.293C424.987,224.166,412.612,282.793,478.627,299.729Z" transform="translate(-425.988 -202.242)" fill="#8db6c3"/>
      <path id="Trazado_148335" data-name="Trazado 148335" d="M546.385,438.713a.166.166,0,0,1-.225.244c-5.045-4.047-31.693-53.452-31.693-53.452s-.932-3.539-2.007-8.046c-.928-3.893-1.978-8.6-2.523-12.038a.116.116,0,0,1,.227-.05C512.78,375.9,523.628,414.781,546.385,438.713Z" transform="translate(-499.692 -345.391)" fill="#86c3e0"/>
    </g>
    <g id="Grupo_86663" data-name="Grupo 86663" transform="translate(143.447 172.974)">
      <path id="Trazado_148336" data-name="Trazado 148336" d="M369.01,710.966s-42.141-70.084-92.548-99.574A4.958,4.958,0,0,0,269,615.866C270.085,642.094,280.751,719.3,369.01,710.966Z" transform="translate(-268.991 -610.702)" fill="#85cde2"/>
      <path id="Trazado_148337" data-name="Trazado 148337" d="M460.674,880.413a.216.216,0,0,1-.168.4c-9.473-3.252-48-21.789-76.714-74.062a.151.151,0,0,1,.256-.161C391.887,818.328,422.283,861.141,460.674,880.413Z" transform="translate(-369.766 -782.629)" fill="#8db6c3"/>
    </g>
    <g id="Grupo_86664" data-name="Grupo 86664" transform="translate(288.019 156.484)">
      <path id="Trazado_148338" data-name="Trazado 148338" d="M1453.864,597.624s26.659-79.81,70.694-120.7a5.1,5.1,0,0,1,8.5,2.824C1537.826,506.337,1544.372,586.267,1453.864,597.624Z" transform="translate(-1453.864 -475.553)" fill="#8db6c3"/>
      <path id="Trazado_148339" data-name="Trazado 148339" d="M1523.711,781.41a.223.223,0,0,0,.258.362c8.788-5.384,43.339-32.614,60.494-91.533a.156.156,0,0,0-.293-.1C1578.921,703.678,1557.962,753.472,1523.711,781.41Z" transform="translate(-1515.114 -663.867)" fill="#86c3e0"/>
    </g>
    <g id="Grupo_86665" data-name="Grupo 86665" transform="translate(292.875 233.101)">
      <path id="Trazado_148340" data-name="Trazado 148340" d="M1493.657,1149.706s6.942-35.486,44.177-36.966c23.269-.926,34.894-5.525,40.341-8.845,1.786-1.089,4.079.121,3.743,1.964C1579.41,1119.622,1565.928,1154.2,1493.657,1149.706Z" transform="translate(-1493.657 -1103.482)" fill="#85cde2"/>
      <path id="Trazado_148341" data-name="Trazado 148341" d="M1625.114,1226.309c.13-.1.3.046.185.161-4.231,4.233-24.474,20.445-61.539,25.271a.082.082,0,1,1-.028-.161C1572.405,1249.785,1604.485,1242.313,1625.114,1226.309Z" transform="translate(-1555.116 -1211.292)" fill="#8db6c3"/>
    </g>
    <path id="Trazado_148342" data-name="Trazado 148342" d="M702.144,905.592a.242.242,0,0,1,0-.485l137.84-.171h0a.243.243,0,0,1,0,.485l-137.84.171Z" transform="translate(-505.632 -696.061)" fill="url(#linear-gradient)"/>
    <path id="Trazado_148343" data-name="Trazado 148343" d="M696.661,922.437a.182.182,0,0,1,0-.364L834.5,921.9h0a.182.182,0,0,1,0,.364l-137.84.171Z" transform="translate(-500.872 -710.957)" fill="url(#linear-gradient-2)"/>
    <g id="Grupo_86703" data-name="Grupo 86703" transform="translate(182.659 127.641)">
      <g id="Grupo_86667" data-name="Grupo 86667">
        <path id="Trazado_148344" data-name="Trazado 148344" d="M1080.867,1113.8l-4.376,39.247h50.77l-6.613-39.247Z" transform="translate(-1017.176 -1007.078)" fill="#aedef5"/>
        <path id="Trazado_148345" data-name="Trazado 148345" d="M590.363,249.187v89.885A13.635,13.635,0,0,0,603.647,352.7c32.83.847,117.39,2.9,148.642,2.439a10.033,10.033,0,0,0,9.878-9.748c.6-20.882,1.581-71.095-2.041-94.407a10.325,10.325,0,0,0-9.872-8.739c-27.508-.88-118.964-3.674-150.2-2.973A9.911,9.911,0,0,0,590.363,249.187Z" transform="translate(-590.363 -239.165)" fill="#86c3e0"/>
        <path id="Trazado_148346" data-name="Trazado 148346" d="M636.587,273.879v85.4a7.9,7.9,0,0,0,7.782,7.9l144.008,2.153a7.689,7.689,0,0,0,7.8-7.659l.292-84.634a5.623,5.623,0,0,0-5.486-5.643l-148.158-3.6A6.093,6.093,0,0,0,636.587,273.879Z" transform="translate(-630.947 -264.294)" fill="#baedfc"/>
        <path id="Trazado_148347" data-name="Trazado 148347" d="M795.514,1101.56h-.006L634.6,1098.3a.275.275,0,0,1,.011-.55l160.906,3.257a.275.275,0,0,1-.005.55Z" transform="translate(-628.968 -992.992)" fill="#dbf3ff"/>
        <g id="Grupo_86666" data-name="Grupo 86666" transform="translate(79.253 108.018)">
          <path id="Trazado_148348" data-name="Trazado 148348" d="M1242.164,1128.978a2.264,2.264,0,1,1,2.264-2.264A2.267,2.267,0,0,1,1242.164,1128.978Zm0-3.978a1.714,1.714,0,1,0,1.714,1.714A1.716,1.716,0,0,0,1242.164,1125Z" transform="translate(-1239.9 -1124.45)" fill="#dbf3ff"/>
        </g>
        <path id="Trazado_148349" data-name="Trazado 148349" d="M862.625,447.16H725.256a4.123,4.123,0,0,1-4.329-3.879V379.987a4.123,4.123,0,0,1,4.389-3.872l137.56,1.932a3.647,3.647,0,0,1,3.777,3.438V443.55A3.837,3.837,0,0,1,862.625,447.16Z" transform="translate(-704.996 -359.405)" fill="#064a93"/>
        <path id="Trazado_148350" data-name="Trazado 148350" d="M887.091,483.174H755.776c-2.286,0-4.138-1.552-4.138-3.466V423.15c0-1.932,1.889-3.49,4.2-3.46l131.5,1.726a3.4,3.4,0,0,1,3.611,3.072v55.46C890.942,481.73,889.218,483.174,887.091,483.174Z" transform="translate(-731.96 -397.663)" fill="#f0fcff"/>
        <path id="Trazado_148351" data-name="Trazado 148351" d="M1024.465,1422.1H950.159c-2.019,0-3.535-1.437-3.144-2.981l.953-3.771a3.075,3.075,0,0,1,3.016-2.013l71.634-2.235a3.168,3.168,0,0,1,3.256,1.952l1.719,6.006C1028.04,1420.618,1026.517,1422.1,1024.465,1422.1Z" transform="translate(-903.444 -1268.104)" fill="#86c3e0"/>
        <path id="Trazado_148352" data-name="Trazado 148352" d="M1299.08,1433.793a.275.275,0,0,1,0-.55l3.07-.045a.275.275,0,1,1,.008.55l-3.07.045Z" transform="translate(-1212.364 -1287.508)" fill="#dbf3ff"/>
        <path id="Trazado_148353" data-name="Trazado 148353" d="M968.024,1440.266a.264.264,0,0,1-.044,0,.275.275,0,0,1-.228-.315l.438-2.743a3.092,3.092,0,0,1,3.014-2.609l32.558-.476a.275.275,0,1,1,.008.55l-32.558.476a2.543,2.543,0,0,0-2.478,2.146l-.438,2.742A.275.275,0,0,1,968.024,1440.266Z" transform="translate(-921.702 -1288.318)" fill="#dbf3ff"/>
      </g>
      <g id="Grupo_86698" data-name="Grupo 86698" transform="translate(22.207 35.433)">
        <g id="Grupo_86674" data-name="Grupo 86674" transform="translate(0 2.548)">
          <path id="Trazado_148354" data-name="Trazado 148354" d="M848.183,630.791a3.334,3.334,0,0,0-.5-1.679,11.333,11.333,0,0,1,7.077-6.256c0-1.022-1.46-1.716-1.576-2.428-2.152,1.4-4.945,2.117-6.349,8.609a2.421,2.421,0,0,0-.559,2.152C846.355,631.323,848.077,631.493,848.183,630.791Z" transform="translate(-837.187 -611.889)" fill="url(#linear-gradient-3)"/>
          <g id="Grupo_86669" data-name="Grupo 86669" transform="translate(0 19.793)">
            <g id="Grupo_86668" data-name="Grupo 86668" transform="translate(0 6.639)">
              <path id="Trazado_148355" data-name="Trazado 148355" d="M775.839,768.033a4.244,4.244,0,0,0-2.009-.944.537.537,0,0,0-.613.437l-.845,4.645a.226.226,0,0,0,.381.2,20.543,20.543,0,0,0,2.924-3.451Z" transform="translate(-772.368 -767.081)" fill="#86c3e0"/>
              <path id="Trazado_148356" data-name="Trazado 148356" d="M797.251,774.676l-1.812-.143a.367.367,0,0,0-.4.337,1.33,1.33,0,0,0,.052.447.421.421,0,0,0,.361.3l2.177.235Z" transform="translate(-792.272 -773.623)" fill="url(#linear-gradient-4)"/>
            </g>
            <path id="Trazado_148357" data-name="Trazado 148357" d="M821.432,712.679c.9-.508-2.022,14.321-7.426,13.469-2.54-.4-10.988-4.623-10.988-4.623l.639-1.35s6.825.043,9.528,2.061c2.832-1.042,1.652-8.518,1.652-8.518Z" transform="translate(-799.278 -712.666)" fill="#86c3e0"/>
          </g>
          <g id="Grupo_86671" data-name="Grupo 86671" transform="translate(15.553 19.722)">
            <g id="Grupo_86670" data-name="Grupo 86670" transform="translate(15.432 21.335)">
              <path id="Trazado_148358" data-name="Trazado 148358" d="M1034.283,899.609a4.245,4.245,0,0,0,.713,2.1.537.537,0,0,0,.74.139l3.933-2.611a.226.226,0,0,0-.119-.414,20.541,20.541,0,0,0-4.515.285Z" transform="translate(-1033.311 -897.363)" fill="#86c3e0"/>
              <path id="Trazado_148359" data-name="Trazado 148359" d="M1026.317,888.026l1.154,1.4a.367.367,0,0,0,.519.053,1.327,1.327,0,0,0,.286-.347.422.422,0,0,0-.034-.468l-1.34-1.732Z" transform="translate(-1026.317 -886.937)" fill="url(#linear-gradient-5)"/>
            </g>
            <path id="Trazado_148360" data-name="Trazado 148360" d="M900.122,712.085s-2.837,4.607,9.383,11.18c-.485,3.307,5.912,11.779,5.912,11.779a1.644,1.644,0,0,0,1.645-.508s-3.7-9.273-4.645-12.286c-.441-1.412-5.766-7.9-6.731-9.741A43.188,43.188,0,0,0,900.122,712.085Z" transform="translate(-899.837 -712.08)" fill="#86c3e0"/>
          </g>
          <g id="Grupo_86672" data-name="Grupo 86672" transform="translate(25.911 8.921)">
            <path id="Trazado_148361" data-name="Trazado 148361" d="M986.89,623.559l-2.162,3.327a7.338,7.338,0,0,0,3.241,3.556,5.98,5.98,0,0,1,1.436-2.837C987.411,626.471,986.89,623.559,986.89,623.559Z" transform="translate(-984.728 -623.559)" fill="#064a93"/>
            <path id="Trazado_148362" data-name="Trazado 148362" d="M1017.643,651.828c-2.214,1.31-3.8,1.233-4.915.6a5.98,5.98,0,0,0-1.436,2.837c3.554,1.635,7.112-2.48,7.112-2.48Z" transform="translate(-1008.051 -648.379)" fill="url(#linear-gradient-6)"/>
            <path id="Trazado_148363" data-name="Trazado 148363" d="M1062.876,640.125a1.528,1.528,0,0,1,.262-1.842s.277-.316.581.148c0,0,.925-.839,1.177-.5a1.718,1.718,0,0,1,.269,2.13A1.48,1.48,0,0,1,1062.876,640.125Z" transform="translate(-1053.163 -636.106)" fill="url(#linear-gradient-7)"/>
            <path id="Trazado_148364" data-name="Trazado 148364" d="M1068.188,644.146a.54.54,0,0,1-.277-.069.474.474,0,0,1-.221-.371.129.129,0,0,1,.256-.033c.017.134.076.169.1.181a.391.391,0,0,0,.257.022l-.2-.642a.129.129,0,1,1,.246-.078l.243.769a.129.129,0,0,1-.076.159A.951.951,0,0,1,1068.188,644.146Z" transform="translate(-1057.566 -640.685)" fill="#f79e6d"/>
          </g>
          <path id="Trazado_148365" data-name="Trazado 148365" d="M894.6,606.8a12.135,12.135,0,0,0-6.287,2.426,2.3,2.3,0,0,0,1.059,2.77c.5-.466,2.339-.841,3.342-1.09a56.042,56.042,0,0,1-2.815,8.516.335.335,0,0,0,.195.451c.966.337,3.818,1.14,6.1-.152l5.069-7.258a6.209,6.209,0,0,0,1.047-2.617h0a1.63,1.63,0,0,0-1.075-1.787A19.62,19.62,0,0,0,894.6,606.8Z" transform="translate(-874.047 -599.914)" fill="#064a93"/>
          <path id="Trazado_148366" data-name="Trazado 148366" d="M959.034,591.077l-1.324,2.592a.428.428,0,0,0,.062.481,2.147,2.147,0,0,0,2.4.522.4.4,0,0,0,.272-.324l.345-2.354Z" transform="translate(-935.054 -586.119)" fill="url(#linear-gradient-8)"/>
          <g id="Grupo_86673" data-name="Grupo 86673" transform="translate(21.679)">
            <path id="Trazado_148367" data-name="Trazado 148367" d="M964.581,566.409a11.439,11.439,0,0,1,.829,2.721c.052.936.254,1.544-.829,1.733a2.3,2.3,0,0,1-2.489-1.284s-.774-1.437-.6-2.026S964.581,566.409,964.581,566.409Z" transform="translate(-960.072 -564.461)" fill="url(#linear-gradient-9)"/>
            <path id="Trazado_148368" data-name="Trazado 148368" d="M952.434,554.893l.062-.027a.149.149,0,0,0,.073-.2c-.153-.3-.45-.971-.066-1.129.5-.2,2.459-.6,2.882-1.3a1.3,1.3,0,0,0-.5-1.78.075.075,0,0,0-.1.032l-.045.086a.074.074,0,0,1-.136-.014h0a.073.073,0,0,0-.132-.019,1.988,1.988,0,0,1-1.422.72c-1.336.247-2.219.787-2.241,1.71a.074.074,0,0,1-.114.061c-.1-.06-.256-.088-.467.089-.367.308-.217,1.109.587,1.767a.073.073,0,0,1,0,.118c-.146.095-.363.321.2.622a1.9,1.9,0,0,0,1.185.258.073.073,0,0,0,.059-.088l-.179-.811a.074.074,0,0,1,.072-.089Z" transform="translate(-950.044 -550.446)" fill="#12263f"/>
            <path id="Trazado_148369" data-name="Trazado 148369" d="M962.883,581.985s-.3-1.14-.807-.82.265,1.277.676,1.32Z" transform="translate(-960.46 -577.367)" fill="url(#linear-gradient-10)"/>
          </g>
        </g>
        <g id="Grupo_86681" data-name="Grupo 86681" transform="translate(39.223 0.563)">
          <g id="Grupo_86675" data-name="Grupo 86675" transform="translate(11.892 10.046)">
            <path id="Trazado_148370" data-name="Trazado 148370" d="M1197.357,616.506l-4.116,3.666a7.337,7.337,0,0,0-1.944,4.4,5.979,5.979,0,0,1,3.175.168A68.488,68.488,0,0,0,1197.357,616.506Z" transform="translate(-1191.296 -616.506)" fill="#064a93"/>
            <path id="Trazado_148371" data-name="Trazado 148371" d="M1197,685.987c-2.093-1.5-2.662-2.975-2.531-4.255a5.979,5.979,0,0,0-3.175-.168c-.061,3.911,5.141,5.5,5.141,5.5Z" transform="translate(-1191.293 -673.497)" fill="url(#linear-gradient-11)"/>
            <path id="Trazado_148372" data-name="Trazado 148372" d="M1233.16,717.129a1.529,1.529,0,0,1,1.791-.5s.4.126.1.592c0,0,1.141.507.934.875a1.718,1.718,0,0,1-1.841,1.106A1.48,1.48,0,0,1,1233.16,717.129Z" transform="translate(-1227.926 -704.298)" fill="url(#linear-gradient-12)"/>
            <path id="Trazado_148373" data-name="Trazado 148373" d="M1241.014,721.936a.541.541,0,0,1-.049-.281.474.474,0,0,1,.25-.352.129.129,0,0,1,.133.221c-.116.07-.124.138-.127.161a.391.391,0,0,0,.084.244l.506-.445a.129.129,0,1,1,.171.194l-.606.533a.129.129,0,0,1-.176-.005A.957.957,0,0,1,1241.014,721.936Z" transform="translate(-1234.901 -708.5)" fill="#f79e6d"/>
          </g>
          <path id="Trazado_148374" data-name="Trazado 148374" d="M1111.777,641.987a3.334,3.334,0,0,0-.777-1.571c-.032-.717,2.217-4.863,4.347-6.5-.171-1.008-1.528-1.022-1.761-1.7-1.68,1.7-3.036,3.239-3.435,8.268a2.422,2.422,0,0,0-.191,2.215C1110.064,642.817,1111.791,642.7,1111.777,641.987Z" transform="translate(-1107.831 -620.253)" fill="url(#linear-gradient-13)"/>
          <g id="Grupo_86677" data-name="Grupo 86677" transform="translate(0 19.687)">
            <g id="Grupo_86676" data-name="Grupo 86676" transform="translate(0 14.857)">
              <path id="Trazado_148375" data-name="Trazado 148375" d="M1096.5,819.372a4.245,4.245,0,0,0-2.163-.5.537.537,0,0,0-.508.557l.153,4.718a.226.226,0,0,0,.415.117,20.542,20.542,0,0,0,2.131-3.99Z" transform="translate(-1093.832 -818.677)" fill="#86c3e0"/>
              <path id="Trazado_148376" data-name="Trazado 148376" d="M1112.216,817.295l-1.733.547a.367.367,0,0,0-.243.462,1.328,1.328,0,0,0,.215.4.421.421,0,0,0,.447.143l2.107-.6Z" transform="translate(-1108.222 -817.295)" fill="url(#linear-gradient-14)"/>
            </g>
            <path id="Trazado_148377" data-name="Trazado 148377" d="M1131.365,695.552c.535,2.116,5.956,13.775,2.558,14.092-2.56.239-12.06,2.171-12.06,2.171l-.157-1.485s5.85-3.515,9.208-3.2c-.309-1.115-7-9.729-5.969-11.6Z" transform="translate(-1118.305 -695.528)" fill="#86c3e0"/>
          </g>
          <g id="Grupo_86679" data-name="Grupo 86679" transform="translate(6.842 17.598)">
            <g id="Grupo_86678" data-name="Grupo 86678" transform="translate(0.936 25.429)">
              <path id="Trazado_148378" data-name="Trazado 148378" d="M1158.071,901.3a4.245,4.245,0,0,0-.493,2.164.537.537,0,0,0,.558.506l4.718-.167a.226.226,0,0,0,.115-.415,20.552,20.552,0,0,0-4-2.12Z" transform="translate(-1157.574 -899.509)" fill="#86c3e0"/>
              <path id="Trazado_148379" data-name="Trazado 148379" d="M1162.819,886.857l-.636,1.7a.367.367,0,0,0,.214.475,1.332,1.332,0,0,0,.444.074.421.421,0,0,0,.388-.264l.825-2.029Z" transform="translate(-1161.6 -886.816)" fill="#86c3e0"/>
            </g>
            <path id="Trazado_148380" data-name="Trazado 148380" d="M1150.924,678.408s-4.945,2.906,6.942,14.216c-3.979,1.321-6.054,11.41-6.054,11.41.593.382,1.054.8,1.611.534,0,0,6.551-8.936,7.147-11.649.317-1.445-4.231-10.217-4.534-12.276A43.212,43.212,0,0,0,1150.924,678.408Z" transform="translate(-1149.904 -678.408)" fill="#86c3e0"/>
          </g>
          <path id="Trazado_148381" data-name="Trazado 148381" d="M1144.484,594.325c-1.728-.229-3.555.822-6.506,4.8,0,.607.787,1.453,1.342,2.312.5-.466,2.457-1.386,2.98-1.948-1.757,3.239-1.819,4.292-3.069,7.163-.078.179,4.323,1.6,6.61.3l4.68-7.342c.545-.781.411-3.7-.332-3.953A28.822,28.822,0,0,0,1144.484,594.325Z" transform="translate(-1132.591 -586.96)" fill="#064a93"/>
          <path id="Trazado_148382" data-name="Trazado 148382" d="M1205.623,574.806,1204.3,577.4a.428.428,0,0,0,.062.481,2.147,2.147,0,0,0,2.4.522.4.4,0,0,0,.272-.324l.345-2.354Z" transform="translate(-1190.778 -569.849)" fill="url(#linear-gradient-15)"/>
          <g id="Grupo_86680" data-name="Grupo 86680" transform="translate(12.543)">
            <path id="Trazado_148383" data-name="Trazado 148383" d="M1211.169,550.138a11.44,11.44,0,0,1,.829,2.721c.052.936.254,1.544-.829,1.733a2.3,2.3,0,0,1-2.489-1.284s-.774-1.437-.6-2.026S1211.169,550.138,1211.169,550.138Z" transform="translate(-1206.66 -548.19)" fill="url(#linear-gradient-16)"/>
            <path id="Trazado_148384" data-name="Trazado 148384" d="M1199.023,538.622l.062-.027a.149.149,0,0,0,.073-.2c-.153-.3-.45-.971-.066-1.129.5-.2,2.459-.6,2.882-1.3a1.3,1.3,0,0,0-.5-1.779.075.075,0,0,0-.1.032l-.045.086a.074.074,0,0,1-.136-.014h0a.073.073,0,0,0-.132-.019,1.989,1.989,0,0,1-1.422.72c-1.336.246-2.219.787-2.241,1.71a.074.074,0,0,1-.114.061c-.1-.06-.257-.088-.468.089-.367.308-.217,1.109.588,1.767a.073.073,0,0,1,0,.118c-.146.095-.363.321.2.622a1.9,1.9,0,0,0,1.185.258.073.073,0,0,0,.059-.088l-.179-.811a.074.074,0,0,1,.072-.089Z" transform="translate(-1196.633 -534.176)" fill="#12263f"/>
            <path id="Trazado_148385" data-name="Trazado 148385" d="M1209.472,565.714s-.3-1.14-.807-.82.265,1.277.676,1.32Z" transform="translate(-1207.048 -561.097)" fill="url(#linear-gradient-17)"/>
          </g>
        </g>
        <g id="Grupo_86689" data-name="Grupo 86689" transform="translate(62.021)">
          <g id="Grupo_86682" data-name="Grupo 86682" transform="translate(11.08 7.427)">
            <path id="Trazado_148386" data-name="Trazado 148386" d="M1377.293,649.7c-1.944-1.685-2.619-3.332-2.37-4.6-.737-.306-1.282-1.122-2.5-.924-1.743,3.043,4.21,6.544,4.21,6.544Z" transform="translate(-1372.024 -637.594)" fill="url(#linear-gradient-18)"/>
            <path id="Trazado_148387" data-name="Trazado 148387" d="M1377.757,594.931l1.246-4.5c-3.842.906-6.39,4.466-7.523,7.168a9.7,9.7,0,0,0,3.145.464C1375.069,595.815,1377.757,594.931,1377.757,594.931Z" transform="translate(-1371.48 -590.435)" fill="#064a93"/>
            <path id="Trazado_148388" data-name="Trazado 148388" d="M1409.075,688.307a1.529,1.529,0,0,1,1.83-.335s.388.163.043.6c0,0,1.089.611.849.958a1.718,1.718,0,0,1-1.936.93A1.48,1.48,0,0,1,1409.075,688.307Z" transform="translate(-1404.308 -675.909)" fill="url(#linear-gradient-19)"/>
            <path id="Trazado_148389" data-name="Trazado 148389" d="M1417.015,693.169a.54.54,0,0,1-.023-.285.473.473,0,0,1,.282-.327.129.129,0,1,1,.112.233c-.122.059-.136.126-.141.148a.39.39,0,0,0,.061.25l.545-.4A.129.129,0,1,1,1418,693l-.653.474a.129.129,0,0,1-.175-.022A.948.948,0,0,1,1417.015,693.169Z" transform="translate(-1411.431 -680.086)" fill="#f79e6d"/>
          </g>
          <g id="Grupo_86684" data-name="Grupo 86684" transform="translate(14.876 20.427)">
            <g id="Grupo_86683" data-name="Grupo 86683" transform="translate(3.171 18.383)">
              <path id="Trazado_148390" data-name="Trazado 148390" d="M1430.715,859a4.244,4.244,0,0,0-1.973,1.017.537.537,0,0,0-.027.753l3.167,3.5a.226.226,0,0,0,.392-.18,20.548,20.548,0,0,0-.953-4.422Z" transform="translate(-1428.574 -857.616)" fill="#86c3e0"/>
              <path id="Trazado_148391" data-name="Trazado 148391" d="M1443.329,847.645l-.969,1.538a.367.367,0,0,0,.113.509,1.328,1.328,0,0,0,.42.162.421.421,0,0,0,.434-.18l1.22-1.818Z" transform="translate(-1440.628 -847.645)" fill="url(#linear-gradient-20)"/>
            </g>
            <path id="Trazado_148392" data-name="Trazado 148392" d="M1405.221,696.983c1.777,1.269,14.015,7.865,11.628,10.3-1.8,1.837-7.8,9.453-7.8,9.453l-1.08-1.032s2.191-6.464,4.958-8.393c-.956-.651-10.816-4.513-10.325-5.863Z" transform="translate(-1402.588 -696.983)" fill="#86c3e0"/>
          </g>
          <g id="Grupo_86686" data-name="Grupo 86686" transform="translate(0 17.963)">
            <g id="Grupo_86685" data-name="Grupo 86685" transform="translate(0 24.806)">
              <path id="Trazado_148393" data-name="Trazado 148393" d="M1282.273,891.436c-.276-.153-1.385,1.309-1.6,1.42a4.908,4.908,0,0,0,1.606,1.555c.415.3,1.353,1.24,1.89,1.127a13.245,13.245,0,0,1,2.2-.271c-.3-.828-1.365-.811-1.929-1.335s-.848-1.45-1.377-2.058Z" transform="translate(-1280.671 -890.041)" fill="#86c3e0"/>
              <path id="Trazado_148394" data-name="Trazado 148394" d="M1293.175,880.084l-.717,1.67a.367.367,0,0,0,.191.485,1.327,1.327,0,0,0,.44.095.421.421,0,0,0,.4-.245l.922-1.986Z" transform="translate(-1290.993 -880.084)" fill="url(#linear-gradient-21)"/>
            </g>
            <path id="Trazado_148395" data-name="Trazado 148395" d="M1307.839,677.629s-4.7-.2-4.916,13.675c-3.16,1.089-7.744,10.665-7.744,10.665a1.644,1.644,0,0,0,1.207,1.227s6.533-7.551,8.776-9.773c1.051-1.041,5.883-12.331,7.078-14.036C1310.46,674.843,1307.839,677.629,1307.839,677.629Z" transform="translate(-1293.41 -676.784)" fill="#86c3e0"/>
          </g>
          <path id="Trazado_148396" data-name="Trazado 148396" d="M1388.672,588.429a3.972,3.972,0,0,0-3.66,3.233,71.933,71.933,0,0,1-3.517,9.615c-.078.18,4.321,2.528,6.608,1.236l4.321-8.336c.545-.781-.132-5.2-1.072-5.5C1389.865,588.192,1390.738,588.324,1388.672,588.429Z" transform="translate(-1369.192 -581.159)" fill="#064a93"/>
          <path id="Trazado_148397" data-name="Trazado 148397" d="M1440.135,570.2l-1.324,2.592a.428.428,0,0,0,.062.481,2.147,2.147,0,0,0,2.4.522.4.4,0,0,0,.272-.324l.345-2.354Z" transform="translate(-1419.474 -565.238)" fill="url(#linear-gradient-22)"/>
          <g id="Grupo_86687" data-name="Grupo 86687" transform="translate(18.36)">
            <path id="Trazado_148398" data-name="Trazado 148398" d="M1445.682,545.528a11.446,11.446,0,0,1,.829,2.721c.052.937.254,1.544-.829,1.733a2.3,2.3,0,0,1-2.489-1.284s-.774-1.437-.6-2.026S1445.682,545.528,1445.682,545.528Z" transform="translate(-1441.173 -543.58)" fill="url(#linear-gradient-23)"/>
            <path id="Trazado_148399" data-name="Trazado 148399" d="M1433.535,534.012l.062-.027a.149.149,0,0,0,.073-.2c-.153-.295-.45-.971-.066-1.129.5-.2,2.459-.6,2.882-1.3a1.3,1.3,0,0,0-.5-1.779.075.075,0,0,0-.1.032l-.045.085a.073.073,0,0,1-.136-.014h0a.073.073,0,0,0-.133-.019,1.988,1.988,0,0,1-1.422.72c-1.336.247-2.219.787-2.241,1.71a.074.074,0,0,1-.114.061c-.1-.06-.256-.088-.468.089-.367.308-.217,1.109.588,1.767a.073.073,0,0,1,0,.118c-.146.095-.363.321.2.622a1.9,1.9,0,0,0,1.185.258.073.073,0,0,0,.059-.089l-.179-.811a.074.074,0,0,1,.072-.089Z" transform="translate(-1431.146 -529.565)" fill="#12263f"/>
            <path id="Trazado_148400" data-name="Trazado 148400" d="M1443.984,561.1s-.3-1.14-.807-.82.265,1.277.676,1.32Z" transform="translate(-1441.561 -556.486)" fill="url(#linear-gradient-24)"/>
          </g>
          <g id="Grupo_86688" data-name="Grupo 86688" transform="translate(16.095 9.01)">
            <path id="Trazado_148401" data-name="Trazado 148401" d="M1442.28,679.451a3.332,3.332,0,0,0-1.626.655c-.717-.022-3.964-.688-4.659-3.185-1.018.094-2.552-.255-3.25-.074.639,2.386,3.172,5.227,7.911,4.111a2.422,2.422,0,0,0,2.194.358C1442.977,681.223,1442.989,679.492,1442.28,679.451Z" transform="translate(-1430.285 -667.84)" fill="url(#linear-gradient-25)"/>
            <path id="Trazado_148402" data-name="Trazado 148402" d="M1412.579,605.374a25.06,25.06,0,0,0,2.831,8.038,4.974,4.974,0,0,0,2.946-.709l-1.129-6.892C1416.04,603.523,1414.054,602,1412.579,605.374Z" transform="translate(-1412.579 -603.409)" fill="#064a93"/>
          </g>
        </g>
        <g id="Grupo_86697" data-name="Grupo 86697" transform="translate(91.818)">
          <g id="Grupo_86690" data-name="Grupo 86690" transform="translate(14.458 7.801)">
            <path id="Trazado_148403" data-name="Trazado 148403" d="M1645.223,622c-.294-2.556.793-4.949,1.83-5.711-.336-.724-.818-.623-1.851-1.3-3.261,2.369-1.16,7.32-1.16,7.32Z" transform="translate(-1643.376 -612.369)" fill="url(#linear-gradient-26)"/>
            <path id="Trazado_148404" data-name="Trazado 148404" d="M1660.427,597.636l3.461-3.955c-3.824-.712-8.958.83-10.257,2.662a7.8,7.8,0,0,0,2.123,2.034C1657.3,596.682,1660.427,597.636,1660.427,597.636Z" transform="translate(-1652.379 -593.504)" fill="#064a93"/>
            <path id="Trazado_148405" data-name="Trazado 148405" d="M1646.116,671.443a1.528,1.528,0,0,1,1.575.99s.176.382-.373.471c0,0,.39,1.187-.022,1.28a1.718,1.718,0,0,1-2.055-.623A1.48,1.48,0,0,1,1646.116,671.443Z" transform="translate(-1644.839 -661.93)" fill="url(#linear-gradient-27)"/>
            <path id="Trazado_148406" data-name="Trazado 148406" d="M1654.45,677.958a.539.539,0,0,1,.176-.225.473.473,0,0,1,.428-.05.129.129,0,1,1-.075.247.214.214,0,0,0-.2.014.39.39,0,0,0-.125.226l.669.077a.129.129,0,0,1-.029.257l-.8-.092a.129.129,0,0,1-.114-.134A.952.952,0,0,1,1654.45,677.958Z" transform="translate(-1653.032 -667.387)" fill="#f79e6d"/>
          </g>
          <g id="Grupo_86692" data-name="Grupo 86692" transform="translate(19.61 22.589)">
            <g id="Grupo_86691" data-name="Grupo 86691" transform="translate(10.603 17.556)">
              <path id="Trazado_148407" data-name="Trazado 148407" d="M1772.812,874.33a4.246,4.246,0,0,0-.265,2.2.537.537,0,0,0,.608.445l4.675-.657a.226.226,0,0,0,.071-.425,20.536,20.536,0,0,0-4.2-1.693Z" transform="translate(-1772.502 -872.299)" fill="#86c3e0"/>
              <path id="Trazado_148408" data-name="Trazado 148408" d="M1775.049,858.972l-.128,1.813a.367.367,0,0,0,.34.4,1.326,1.326,0,0,0,.447-.055.421.421,0,0,0,.3-.363l.217-2.179Z" transform="translate(-1774.625 -858.583)" fill="url(#linear-gradient-28)"/>
            </g>
            <path id="Trazado_148409" data-name="Trazado 148409" d="M1686.585,714.7c2.072.688,16.7,4.682,15.14,7.716-1.177,2.286-3.982,11.239-3.982,11.239l-1.308.1s-.892-7.126,1.575-10.818c-1.106-.34-12.481-.981-12.41-2.415Z" transform="translate(-1685.6 -714.7)" fill="#86c3e0"/>
          </g>
          <g id="Grupo_86694" data-name="Grupo 86694" transform="translate(0 19.507)">
            <g id="Grupo_86693" data-name="Grupo 86693" transform="translate(0 13.712)">
              <path id="Trazado_148410" data-name="Trazado 148410" d="M1527.757,802.486a4.245,4.245,0,0,0-2.119-.662.537.537,0,0,0-.548.517l-.2,4.716a.226.226,0,0,0,.4.147,20.54,20.54,0,0,0,2.428-3.817Z" transform="translate(-1524.885 -801.823)" fill="#86c3e0"/>
              <path id="Trazado_148411" data-name="Trazado 148411" d="M1545.2,806.393l-1.815.105a.367.367,0,0,0-.349.388,1.325,1.325,0,0,0,.112.436.421.421,0,0,0,.4.248l2.189-.063Z" transform="translate(-1540.825 -805.835)" fill="url(#linear-gradient-29)"/>
            </g>
            <path id="Trazado_148412" data-name="Trazado 148412" d="M1571.874,691.3c.819-.625-4.765,15.831-7.458,15.489-2.551-.324-12.4-1.757-12.4-1.757l.449-1.424s7.745-1.531,10.7.1c1.534-11.777.91-12.935,3.362-14.27Z" transform="translate(-1548.707 -689.44)" fill="#86c3e0"/>
          </g>
          <path id="Trazado_148413" data-name="Trazado 148413" d="M1673.192,588.429a3.972,3.972,0,0,0-3.66,3.233,68.9,68.9,0,0,1-3.623,9.383c-.078.18,3.725,3.45,6.011,2.158l5.023-9.026c.545-.781-.132-5.2-1.072-5.5C1674.385,588.192,1675.258,588.324,1673.192,588.429Z" transform="translate(-1648.701 -581.159)" fill="#064a93"/>
          <path id="Trazado_148414" data-name="Trazado 148414" d="M1725.416,570.2l-1.324,2.592a.428.428,0,0,0,.062.481,2.147,2.147,0,0,0,2.4.522.4.4,0,0,0,.272-.324l.345-2.354Z" transform="translate(-1699.744 -565.238)" fill="url(#linear-gradient-30)"/>
          <g id="Grupo_86695" data-name="Grupo 86695" transform="translate(23.371)">
            <path id="Trazado_148415" data-name="Trazado 148415" d="M1730.963,545.528a11.432,11.432,0,0,1,.829,2.721c.052.937.254,1.544-.829,1.733a2.3,2.3,0,0,1-2.489-1.284s-.774-1.437-.6-2.026S1730.963,545.528,1730.963,545.528Z" transform="translate(-1726.454 -543.58)" fill="url(#linear-gradient-31)"/>
            <path id="Trazado_148416" data-name="Trazado 148416" d="M1718.816,534.012l.062-.027a.149.149,0,0,0,.073-.2c-.153-.295-.45-.971-.066-1.129.5-.2,2.459-.6,2.882-1.3a1.3,1.3,0,0,0-.5-1.779.075.075,0,0,0-.1.032l-.045.085a.074.074,0,0,1-.136-.014h0a.073.073,0,0,0-.133-.019,1.988,1.988,0,0,1-1.422.72c-1.336.247-2.219.787-2.241,1.71a.074.074,0,0,1-.114.061c-.1-.06-.256-.088-.467.089-.367.308-.217,1.109.588,1.767a.073.073,0,0,1,0,.118c-.146.095-.363.321.2.622a1.9,1.9,0,0,0,1.185.258.073.073,0,0,0,.059-.089l-.179-.811a.074.074,0,0,1,.072-.089Z" transform="translate(-1716.426 -529.565)" fill="#12263f"/>
            <path id="Trazado_148417" data-name="Trazado 148417" d="M1729.265,561.1s-.3-1.14-.807-.82.265,1.277.676,1.32Z" transform="translate(-1726.842 -556.486)" fill="url(#linear-gradient-32)"/>
          </g>
          <g id="Grupo_86696" data-name="Grupo 86696" transform="translate(21.819 9.04)">
            <path id="Trazado_148418" data-name="Trazado 148418" d="M1761.7,641.967a3.334,3.334,0,0,0-1.024,1.423c-.618.365-3.718,1.537-5.64-.2-.81.624-2.293,1.149-2.786,1.675,1.816,1.675,5.475,2.722,8.884-.755a2.421,2.421,0,0,0,2.046-.87C1763.238,643.091,1762.322,641.622,1761.7,641.967Z" transform="translate(-1746.329 -637.246)" fill="url(#linear-gradient-33)"/>
            <path id="Trazado_148419" data-name="Trazado 148419" d="M1703.79,606.636a25.057,25.057,0,0,0,6.689,5.28,4.973,4.973,0,0,0,2.111-2.174l-4.638-5.221C1705.725,603.222,1703.235,603,1703.79,606.636Z" transform="translate(-1703.711 -603.656)" fill="#064a93"/>
          </g>
        </g>
      </g>
      <g id="Grupo_86702" data-name="Grupo 86702" transform="translate(20.091 86.886)">
        <path id="Trazado_148420" data-name="Trazado 148420" d="M1046.954,997.872l-104.4-1.262a2.258,2.258,0,0,1-2.231-2.258v-4.347a1.94,1.94,0,0,1,1.971-1.94l104.932,1.676a2.268,2.268,0,0,1,2.231,2.267V995.4A2.471,2.471,0,0,1,1046.954,997.872Z" transform="translate(-917.711 -983.575)" fill="#85cde2"/>
        <g id="Grupo_86699" data-name="Grupo 86699" transform="translate(0 0.321)">
          <path id="Trazado_148421" data-name="Trazado 148421" d="M755.29,954.241a.207.207,0,0,1,.222.2l-.007,3.566a.23.23,0,0,1-.223.231h-.04a.239.239,0,0,1-.222-.241l.007-3.548a.215.215,0,0,1,.223-.213Z" transform="translate(-755.02 -954.198)" fill="#86c3e0"/>
          <path id="Trazado_148422" data-name="Trazado 148422" d="M779.144,953.892a.242.242,0,0,1,.242.243l0,1.819a.243.243,0,0,1-.243.242h0a.242.242,0,0,1-.242-.243l0-1.819a.242.242,0,0,1,.243-.242Z" transform="translate(-775.984 -953.892)" fill="#86c3e0"/>
          <path id="Trazado_148423" data-name="Trazado 148423" d="M803.99,954.241a.212.212,0,0,1,.222.21l-.007,3.564a.228.228,0,0,1-.223.228h-.04a.234.234,0,0,1-.222-.236l.006-3.551a.217.217,0,0,1,.223-.215Z" transform="translate(-797.778 -954.198)" fill="#86c3e0"/>
          <path id="Trazado_148424" data-name="Trazado 148424" d="M829.832,954.093a.243.243,0,0,1,.242.243l0,1.819a.243.243,0,0,1-.243.242h0a.243.243,0,0,1-.242-.243l0-1.819a.242.242,0,0,1,.243-.242Z" transform="translate(-820.488 -954.068)" fill="#86c3e0"/>
          <path id="Trazado_148425" data-name="Trazado 148425" d="M852.689,954.241a.216.216,0,0,1,.222.215l-.006,3.561a.226.226,0,0,1-.223.226h-.04a.229.229,0,0,1-.222-.23l.007-3.553a.219.219,0,0,1,.223-.218Z" transform="translate(-840.535 -954.198)" fill="#86c3e0"/>
          <path id="Trazado_148426" data-name="Trazado 148426" d="M878.532,954.183a.243.243,0,0,1,.242.243l0,1.819a.242.242,0,0,1-.243.242h0a.243.243,0,0,1-.242-.243l0-1.819a.243.243,0,0,1,.243-.242Z" transform="translate(-863.246 -954.147)" fill="#86c3e0"/>
          <path id="Trazado_148427" data-name="Trazado 148427" d="M901.388,954.241a.22.22,0,0,1,.222.221l-.007,3.558a.223.223,0,0,1-.223.223h-.04a.224.224,0,0,1-.222-.225l.007-3.556a.222.222,0,0,1,.223-.221Z" transform="translate(-883.292 -954.198)" fill="#86c3e0"/>
          <path id="Trazado_148428" data-name="Trazado 148428" d="M927.231,954.273a.243.243,0,0,1,.242.243l0,1.819a.243.243,0,0,1-.243.242h0a.242.242,0,0,1-.242-.243l0-1.819a.242.242,0,0,1,.243-.242Z" transform="translate(-906.003 -954.226)" fill="#86c3e0"/>
          <path id="Trazado_148429" data-name="Trazado 148429" d="M950.088,954.241a.225.225,0,0,1,.222.226l-.007,3.555a.221.221,0,0,1-.223.22h-.04a.219.219,0,0,1-.222-.219l.007-3.559a.224.224,0,0,1,.223-.224Z" transform="translate(-926.049 -954.198)" fill="#86c3e0"/>
          <path id="Trazado_148430" data-name="Trazado 148430" d="M975.931,954.363a.243.243,0,0,1,.242.243l0,1.819a.242.242,0,0,1-.243.242h0a.243.243,0,0,1-.242-.243l0-1.819a.243.243,0,0,1,.243-.242Z" transform="translate(-948.761 -954.306)" fill="#86c3e0"/>
          <path id="Trazado_148431" data-name="Trazado 148431" d="M998.787,954.241a.23.23,0,0,1,.222.232L999,958.025a.219.219,0,0,1-.223.217h-.04a.215.215,0,0,1-.222-.214l.007-3.562a.226.226,0,0,1,.223-.226Z" transform="translate(-968.807 -954.198)" fill="#86c3e0"/>
          <path id="Trazado_148432" data-name="Trazado 148432" d="M1024.63,954.453a.243.243,0,0,1,.242.243l0,1.819a.243.243,0,0,1-.243.242h0a.242.242,0,0,1-.242-.243l0-1.819a.243.243,0,0,1,.243-.242Z" transform="translate(-991.518 -954.385)" fill="#86c3e0"/>
          <path id="Trazado_148433" data-name="Trazado 148433" d="M1047.487,954.241a.235.235,0,0,1,.222.237l-.006,3.55a.216.216,0,0,1-.223.215h-.04a.21.21,0,0,1-.222-.208l.007-3.565a.229.229,0,0,1,.223-.229Z" transform="translate(-1011.565 -954.198)" fill="#86c3e0"/>
          <path id="Trazado_148434" data-name="Trazado 148434" d="M1073.33,954.543a.243.243,0,0,1,.242.243l0,1.819a.242.242,0,0,1-.243.242h0a.243.243,0,0,1-.242-.243l0-1.819a.243.243,0,0,1,.243-.242Z" transform="translate(-1034.275 -954.464)" fill="#86c3e0"/>
          <path id="Trazado_148435" data-name="Trazado 148435" d="M1096.186,954.241a.24.24,0,0,1,.222.243l-.007,3.547a.214.214,0,0,1-.223.212h-.041a.206.206,0,0,1-.222-.2l.007-3.567a.231.231,0,0,1,.223-.232Z" transform="translate(-1054.322 -954.198)" fill="#86c3e0"/>
          <path id="Trazado_148436" data-name="Trazado 148436" d="M1114.078,954.6a.242.242,0,0,1,.242.243l0,1.819a.243.243,0,0,1-.243.242h0a.243.243,0,0,1-.242-.243l0-1.819a.242.242,0,0,1,.243-.242Z" transform="translate(-1070.051 -954.517)" fill="#86c3e0"/>
        </g>
        <g id="Grupo_86700" data-name="Grupo 86700" transform="translate(46.934 0.242)">
          <path id="Trazado_148437" data-name="Trazado 148437" d="M1139.949,953.247a.246.246,0,0,1,.222.248l-.007,3.544a.212.212,0,0,1-.223.209h-.04a.2.2,0,0,1-.222-.2l.007-3.57a.234.234,0,0,1,.223-.235Z" transform="translate(-1139.679 -953.247)" fill="#86c3e0"/>
          <path id="Trazado_148438" data-name="Trazado 148438" d="M1163.8,953.619a.243.243,0,0,1,.242.243l0,1.819a.242.242,0,0,1-.243.242h0a.242.242,0,0,1-.242-.243l0-1.819a.243.243,0,0,1,.243-.242Z" transform="translate(-1160.644 -953.574)" fill="#86c3e0"/>
          <path id="Trazado_148439" data-name="Trazado 148439" d="M1188.649,953.247a.251.251,0,0,1,.222.254l-.007,3.542a.21.21,0,0,1-.223.206h-.04a.2.2,0,0,1-.222-.192l.007-3.573a.236.236,0,0,1,.223-.237Z" transform="translate(-1182.437 -953.247)" fill="#86c3e0"/>
          <path id="Trazado_148440" data-name="Trazado 148440" d="M1214.492,953.821a.242.242,0,0,1,.242.243l0,1.819a.243.243,0,0,1-.243.242h0a.242.242,0,0,1-.242-.243l0-1.819a.243.243,0,0,1,.243-.242Z" transform="translate(-1205.148 -953.751)" fill="#86c3e0"/>
          <path id="Trazado_148441" data-name="Trazado 148441" d="M1237.348,953.247a.256.256,0,0,1,.222.259l-.007,3.539a.207.207,0,0,1-.223.2h-.041c-.123,0-.222-.063-.222-.186l.007-3.576a.239.239,0,0,1,.223-.24Z" transform="translate(-1225.194 -953.247)" fill="#86c3e0"/>
          <path id="Trazado_148442" data-name="Trazado 148442" d="M1263.191,953.911a.243.243,0,0,1,.242.243l0,1.819a.243.243,0,0,1-.243.242h0a.242.242,0,0,1-.242-.243l0-1.819a.242.242,0,0,1,.243-.242Z" transform="translate(-1247.905 -953.83)" fill="#86c3e0"/>
          <path id="Trazado_148443" data-name="Trazado 148443" d="M1286.047,954.241a.207.207,0,0,1,.222.2l-.007,3.566a.231.231,0,0,1-.223.231H1286a.239.239,0,0,1-.222-.241l.007-3.548a.215.215,0,0,1,.223-.213Z" transform="translate(-1267.952 -954.12)" fill="#86c3e0"/>
          <path id="Trazado_148444" data-name="Trazado 148444" d="M1311.891,954a.242.242,0,0,1,.242.243l0,1.819a.242.242,0,0,1-.243.242h0a.242.242,0,0,1-.242-.243l0-1.819a.243.243,0,0,1,.243-.242Z" transform="translate(-1290.663 -953.909)" fill="#86c3e0"/>
          <path id="Trazado_148445" data-name="Trazado 148445" d="M1334.747,954.241a.211.211,0,0,1,.222.21l-.006,3.564a.228.228,0,0,1-.223.228h-.04a.234.234,0,0,1-.222-.236l.006-3.551a.217.217,0,0,1,.223-.215Z" transform="translate(-1310.709 -954.12)" fill="#86c3e0"/>
          <path id="Trazado_148446" data-name="Trazado 148446" d="M1360.59,954.091a.242.242,0,0,1,.242.243l0,1.819a.243.243,0,0,1-.243.242h0a.243.243,0,0,1-.242-.243l0-1.819a.243.243,0,0,1,.243-.242Z" transform="translate(-1333.42 -953.988)" fill="#86c3e0"/>
          <path id="Trazado_148447" data-name="Trazado 148447" d="M1383.447,954.241a.216.216,0,0,1,.222.215l-.006,3.561a.226.226,0,0,1-.223.226h-.04a.229.229,0,0,1-.222-.23l.007-3.553a.219.219,0,0,1,.223-.218Z" transform="translate(-1353.466 -954.12)" fill="#86c3e0"/>
          <path id="Trazado_148448" data-name="Trazado 148448" d="M1409.289,954.181a.243.243,0,0,1,.242.243l0,1.819a.243.243,0,0,1-.243.242h0a.243.243,0,0,1-.242-.243l0-1.819a.243.243,0,0,1,.243-.242Z" transform="translate(-1376.177 -954.067)" fill="#86c3e0"/>
          <path id="Trazado_148449" data-name="Trazado 148449" d="M1432.146,954.241a.22.22,0,0,1,.222.221l-.007,3.558a.223.223,0,0,1-.223.223h-.04a.224.224,0,0,1-.222-.225l.007-3.556a.222.222,0,0,1,.223-.221Z" transform="translate(-1396.224 -954.12)" fill="#86c3e0"/>
          <path id="Trazado_148450" data-name="Trazado 148450" d="M1457.989,954.271a.242.242,0,0,1,.242.243l0,1.819a.243.243,0,0,1-.243.242h0a.243.243,0,0,1-.242-.243l0-1.819a.243.243,0,0,1,.243-.242Z" transform="translate(-1418.934 -954.146)" fill="#86c3e0"/>
          <path id="Trazado_148451" data-name="Trazado 148451" d="M1480.846,954.241a.225.225,0,0,1,.222.226l-.007,3.555a.221.221,0,0,1-.223.22h-.04a.219.219,0,0,1-.222-.219l.007-3.559a.224.224,0,0,1,.223-.224Z" transform="translate(-1438.981 -954.12)" fill="#86c3e0"/>
          <path id="Trazado_148452" data-name="Trazado 148452" d="M1498.737,954.331a.243.243,0,0,1,.242.243l0,1.819a.243.243,0,0,1-.243.242h0a.243.243,0,0,1-.242-.243l0-1.819a.243.243,0,0,1,.243-.242Z" transform="translate(-1454.71 -954.199)" fill="#86c3e0"/>
        </g>
        <g id="Grupo_86701" data-name="Grupo 86701" transform="translate(93.744)">
          <path id="Trazado_148453" data-name="Trazado 148453" d="M1523.588,951.26a.231.231,0,0,1,.222.233l-.007,3.552a.218.218,0,0,1-.223.217h-.041a.214.214,0,0,1-.222-.213l.007-3.562a.227.227,0,0,1,.223-.227Z" transform="translate(-1523.318 -951.26)" fill="#86c3e0"/>
          <path id="Trazado_148454" data-name="Trazado 148454" d="M1547.442,951.373a.243.243,0,0,1,.242.243l0,1.819a.243.243,0,0,1-.243.242h0a.243.243,0,0,1-.242-.243l0-1.819a.242.242,0,0,1,.243-.242Z" transform="translate(-1544.283 -951.359)" fill="#86c3e0"/>
          <path id="Trazado_148455" data-name="Trazado 148455" d="M1572.287,951.26a.236.236,0,0,1,.222.238l-.007,3.549a.216.216,0,0,1-.223.214h-.04a.21.21,0,0,1-.222-.207l.007-3.565a.229.229,0,0,1,.223-.229Z" transform="translate(-1566.075 -951.26)" fill="#86c3e0"/>
          <path id="Trazado_148456" data-name="Trazado 148456" d="M1598.13,951.574a.243.243,0,0,1,.242.243l0,1.819a.242.242,0,0,1-.243.242h0a.243.243,0,0,1-.242-.243l0-1.819a.243.243,0,0,1,.243-.242Z" transform="translate(-1588.786 -951.536)" fill="#86c3e0"/>
          <path id="Trazado_148457" data-name="Trazado 148457" d="M1620.987,951.26a.241.241,0,0,1,.222.244l-.007,3.547a.214.214,0,0,1-.223.211h-.041a.205.205,0,0,1-.222-.2l.007-3.567a.231.231,0,0,1,.223-.232Z" transform="translate(-1608.833 -951.26)" fill="#86c3e0"/>
          <path id="Trazado_148458" data-name="Trazado 148458" d="M1646.829,951.664a.242.242,0,0,1,.242.243l0,1.819a.243.243,0,0,1-.243.242h0a.243.243,0,0,1-.242-.243l0-1.819a.243.243,0,0,1,.243-.242Z" transform="translate(-1631.543 -951.615)" fill="#86c3e0"/>
          <path id="Trazado_148459" data-name="Trazado 148459" d="M1669.686,951.26a.246.246,0,0,1,.222.249l-.007,3.544a.212.212,0,0,1-.223.209h-.04a.2.2,0,0,1-.222-.2l.007-3.57a.234.234,0,0,1,.223-.235Z" transform="translate(-1651.59 -951.26)" fill="#86c3e0"/>
          <path id="Trazado_148460" data-name="Trazado 148460" d="M1695.529,951.754a.242.242,0,0,1,.242.243l0,1.819a.243.243,0,0,1-.243.242h0a.242.242,0,0,1-.242-.243l0-1.819a.243.243,0,0,1,.243-.242Z" transform="translate(-1674.301 -951.694)" fill="#86c3e0"/>
          <path id="Trazado_148461" data-name="Trazado 148461" d="M1718.385,951.26a.252.252,0,0,1,.222.255l-.007,3.541a.209.209,0,0,1-.223.206h-.041a.2.2,0,0,1-.222-.191l.007-3.573a.237.237,0,0,1,.223-.238Z" transform="translate(-1694.348 -951.26)" fill="#86c3e0"/>
          <path id="Trazado_148462" data-name="Trazado 148462" d="M1744.228,951.845a.243.243,0,0,1,.242.243l0,1.819a.243.243,0,0,1-.243.242h0a.242.242,0,0,1-.242-.243l0-1.819a.242.242,0,0,1,.243-.242Z" transform="translate(-1717.058 -951.774)" fill="#86c3e0"/>
          <path id="Trazado_148463" data-name="Trazado 148463" d="M1767.085,951.26a.257.257,0,0,1,.222.26l-.007,3.538a.207.207,0,0,1-.223.2h-.04c-.123,0-.222-.063-.222-.185l.007-3.576a.239.239,0,0,1,.223-.24Z" transform="translate(-1737.105 -951.26)" fill="#86c3e0"/>
          <path id="Trazado_148464" data-name="Trazado 148464" d="M1792.928,951.935a.243.243,0,0,1,.242.243l0,1.819a.242.242,0,0,1-.243.242h0a.243.243,0,0,1-.242-.243l0-1.819a.243.243,0,0,1,.243-.242Z" transform="translate(-1759.815 -951.853)" fill="#86c3e0"/>
          <path id="Trazado_148465" data-name="Trazado 148465" d="M1815.785,952.253a.208.208,0,0,1,.222.2l-.007,3.566a.23.23,0,0,1-.223.231h-.04a.238.238,0,0,1-.222-.241l.007-3.548a.215.215,0,0,1,.223-.213Z" transform="translate(-1779.862 -952.132)" fill="#86c3e0"/>
          <path id="Trazado_148466" data-name="Trazado 148466" d="M1841.627,952.025a.242.242,0,0,1,.242.243l0,1.819a.243.243,0,0,1-.243.242h0a.243.243,0,0,1-.242-.243l0-1.819a.243.243,0,0,1,.243-.242Z" transform="translate(-1802.572 -951.932)" fill="#86c3e0"/>
          <path id="Trazado_148467" data-name="Trazado 148467" d="M1864.484,952.253a.212.212,0,0,1,.222.21l-.007,3.563a.228.228,0,0,1-.223.228h-.04a.233.233,0,0,1-.222-.235l.007-3.551a.217.217,0,0,1,.223-.216Z" transform="translate(-1822.62 -952.132)" fill="#86c3e0"/>
          <path id="Trazado_148468" data-name="Trazado 148468" d="M1882.376,952.085a.242.242,0,0,1,.242.243l0,1.819a.242.242,0,0,1-.243.242h0a.243.243,0,0,1-.242-.243l0-1.819a.243.243,0,0,1,.243-.242Z" transform="translate(-1838.349 -951.984)" fill="#86c3e0"/>
        </g>
        <path id="Trazado_148469" data-name="Trazado 148469" d="M1164.574,976.989c-.1,0-.182-.061-.182-.136l-.061-14.156c0-.076.081-.137.181-.137h0a.164.164,0,0,1,.182.137l.061,14.156c0,.076-.081.137-.181.137Z" transform="translate(-1114.389 -961.18)" fill="#011224"/>
        <path id="Trazado_148470" data-name="Trazado 148470" d="M1150.705,957.772l3.1.043a.408.408,0,0,1,.35.608l-1.549,2.748a.408.408,0,0,1-.712,0l-1.549-2.791A.408.408,0,0,1,1150.705,957.772Z" transform="translate(-1102.062 -956.977)" fill="#011224"/>
      </g>
    </g>
    <g id="Grupo_86705" data-name="Grupo 86705" transform="translate(171.12 256.048)">
      <path id="Trazado_148471" data-name="Trazado 148471" d="M620.036,1317.979h-36.37v-21.513a4.911,4.911,0,0,1,4.911-4.911h26.547a4.911,4.911,0,0,1,4.911,4.911Z" transform="translate(-572.944 -1291.555)" fill="#19385f"/>
      <path id="Trazado_148472" data-name="Trazado 148472" d="M532.163,1317.979h-36.37v-21.513a4.911,4.911,0,0,1,4.911-4.911h26.547a4.911,4.911,0,0,1,4.911,4.911Z" transform="translate(-495.793 -1291.555)" fill="#086dd9"/>
      <g id="Grupo_86704" data-name="Grupo 86704" transform="translate(2.293 2.071)">
        <path id="Trazado_148473" data-name="Trazado 148473" d="M514.879,1321.2a.292.292,0,0,1-.292-.292v-6.3a6.082,6.082,0,0,1,6.075-6.075h9.563a.292.292,0,0,1,0,.585h-9.563a5.5,5.5,0,0,0-5.49,5.49v6.3A.292.292,0,0,1,514.879,1321.2Z" transform="translate(-514.587 -1308.529)" fill="#bdd0fb"/>
        <path id="Trazado_148474" data-name="Trazado 148474" d="M514.879,1444.44a.292.292,0,0,1-.292-.292v-2.567a.292.292,0,1,1,.585,0v2.567A.292.292,0,0,1,514.879,1444.44Z" transform="translate(-514.587 -1425.089)" fill="#bdd0fb"/>
      </g>
    </g>
    <g id="Grupo_86719" data-name="Grupo 86719" transform="translate(140.037 222.973)">
      <g id="Grupo_86713" data-name="Grupo 86713" transform="translate(28.567)">
        <path id="Rectngulo_32662" data-name="Rectngulo 32662" d="M15.808,0H26.876A24.181,24.181,0,0,1,51.057,24.181v0A8.958,8.958,0,0,1,42.1,33.139H10.6A10.6,10.6,0,0,1,0,22.534V15.808A15.808,15.808,0,0,1,15.808,0Z" fill="#86c3e0"/>
        <path id="Trazado_148475" data-name="Trazado 148475" d="M552.192,1078.057H515.4a2.36,2.36,0,0,1-2.36-2.36V1055.5a3.207,3.207,0,0,1,3.207-3.207h35.946a2.36,2.36,0,0,1,2.36,2.36v21.04A2.36,2.36,0,0,1,552.192,1078.057Z" transform="translate(-508.418 -1048.414)" fill="#fdcf57"/>
        <path id="Trazado_148648" data-name="Trazado 148648" d="M5.962,0H29.905a5.962,5.962,0,0,1,5.962,5.962V16.194a5.962,5.962,0,0,1-5.962,5.962H5.962A5.962,5.962,0,0,1,0,16.194V5.962A5.962,5.962,0,0,1,5.962,0Z" transform="translate(7.356 5.821)" fill="#f0fcff"/>
        <g id="Grupo_86712" data-name="Grupo 86712" transform="translate(16.063 5.82)">
          <path id="Trazado_148476" data-name="Trazado 148476" d="M645.4,1109.059a1.7,1.7,0,0,0-.256-.854,5.768,5.768,0,0,1,3.6-3.184c0-.52-.743-.873-.8-1.235-1.095.713-2.517,1.078-3.231,4.381a1.232,1.232,0,0,0-.284,1.095C644.469,1109.329,645.346,1109.416,645.4,1109.059Z" transform="translate(-639.804 -1099.44)" fill="url(#linear-gradient-34)"/>
          <g id="Grupo_86707" data-name="Grupo 86707" transform="translate(0 10.073)">
            <g id="Grupo_86706" data-name="Grupo 86706" transform="translate(0 3.379)">
              <path id="Trazado_148477" data-name="Trazado 148477" d="M608.585,1178.9a2.16,2.16,0,0,0-1.022-.48.273.273,0,0,0-.312.223l-.43,2.364a.115.115,0,0,0,.194.1,10.46,10.46,0,0,0,1.488-1.756Z" transform="translate(-606.818 -1178.415)" fill="#12263f"/>
              <path id="Trazado_148478" data-name="Trazado 148478" d="M619.481,1182.281l-.922-.073a.187.187,0,0,0-.2.172.675.675,0,0,0,.026.227.214.214,0,0,0,.184.153l1.108.12Z" transform="translate(-616.947 -1181.745)" fill="url(#linear-gradient-35)"/>
            </g>
            <path id="Trazado_148479" data-name="Trazado 148479" d="M631.787,1150.731c.456-.259-1.029,7.288-3.779,6.854a38.254,38.254,0,0,1-5.592-2.353l.325-.687s3.473.022,4.849,1.049c1.441-.53.841-4.335.841-4.335Z" transform="translate(-620.513 -1150.725)" fill="#12263f"/>
          </g>
          <g id="Grupo_86709" data-name="Grupo 86709" transform="translate(7.915 10.036)">
            <g id="Grupo_86708" data-name="Grupo 86708" transform="translate(7.853 10.857)">
              <path id="Trazado_148480" data-name="Trazado 148480" d="M740.1,1245.857a2.16,2.16,0,0,0,.363,1.07.273.273,0,0,0,.377.071l2-1.329a.115.115,0,0,0-.061-.211,10.45,10.45,0,0,0-2.3.145Z" transform="translate(-739.609 -1244.715)" fill="#12263f"/>
              <path id="Trazado_148481" data-name="Trazado 148481" d="M736.05,1239.963l.587.715a.187.187,0,0,0,.264.027.674.674,0,0,0,.146-.176.214.214,0,0,0-.017-.238l-.682-.881Z" transform="translate(-736.05 -1239.409)" fill="url(#linear-gradient-36)"/>
            </g>
            <path id="Trazado_148482" data-name="Trazado 148482" d="M671.83,1150.428s-1.444,2.344,4.775,5.689c-.247,1.683,3.008,5.994,3.008,5.994a.836.836,0,0,0,.837-.258s-1.885-4.719-2.364-6.252c-.224-.718-2.934-4.019-3.425-4.957A22.014,22.014,0,0,0,671.83,1150.428Z" transform="translate(-671.685 -1150.426)" fill="#12263f"/>
          </g>
          <g id="Grupo_86710" data-name="Grupo 86710" transform="translate(13.186 4.54)">
            <path id="Trazado_148483" data-name="Trazado 148483" d="M715.986,1105.379l-1.1,1.693a3.733,3.733,0,0,0,1.649,1.81,3.043,3.043,0,0,1,.731-1.443A3.289,3.289,0,0,1,715.986,1105.379Z" transform="translate(-714.886 -1105.379)" fill="#064a93"/>
            <path id="Trazado_148484" data-name="Trazado 148484" d="M731.636,1119.764a2.4,2.4,0,0,1-2.5.3,3.043,3.043,0,0,0-.731,1.443c1.808.832,3.619-1.262,3.619-1.262Z" transform="translate(-726.754 -1118.009)" fill="url(#linear-gradient-37)"/>
            <path id="Trazado_148485" data-name="Trazado 148485" d="M754.654,1113.809a.778.778,0,0,1,.133-.937s.141-.161.3.076c0,0,.471-.427.6-.255a.874.874,0,0,1,.137,1.084A.753.753,0,0,1,754.654,1113.809Z" transform="translate(-749.711 -1111.764)" fill="url(#linear-gradient-38)"/>
            <path id="Trazado_148486" data-name="Trazado 148486" d="M757.358,1115.854a.273.273,0,0,1-.141-.035.24.24,0,0,1-.112-.188.066.066,0,1,1,.13-.017c.009.068.039.086.049.092a.2.2,0,0,0,.131.011l-.1-.327a.066.066,0,1,1,.125-.04l.123.391a.066.066,0,0,1-.039.081A.483.483,0,0,1,757.358,1115.854Z" transform="translate(-751.952 -1114.094)" fill="#f79e6d"/>
          </g>
          <path id="Trazado_148487" data-name="Trazado 148487" d="M669.022,1096.849a6.174,6.174,0,0,0-3.2,1.235,1.172,1.172,0,0,0,.539,1.41,5.753,5.753,0,0,1,1.7-.555,28.521,28.521,0,0,1-1.433,4.334.17.17,0,0,0,.1.23,4.015,4.015,0,0,0,3.107-.078l2.58-3.694a3.16,3.16,0,0,0,.533-1.332h0a.829.829,0,0,0-.547-.909A9.985,9.985,0,0,0,669.022,1096.849Z" transform="translate(-658.561 -1093.345)" fill="#064a93"/>
          <path id="Trazado_148488" data-name="Trazado 148488" d="M701.811,1088.849l-.674,1.319a.218.218,0,0,0,.032.245,1.092,1.092,0,0,0,1.219.265.2.2,0,0,0,.138-.165l.175-1.2Z" transform="translate(-689.607 -1086.326)" fill="url(#linear-gradient-39)"/>
          <g id="Grupo_86711" data-name="Grupo 86711" transform="translate(11.032)">
            <path id="Trazado_148489" data-name="Trazado 148489" d="M704.633,1076.295a5.828,5.828,0,0,1,.422,1.385c.026.477.129.786-.422.882a1.172,1.172,0,0,1-1.267-.653s-.394-.731-.306-1.031S704.633,1076.295,704.633,1076.295Z" transform="translate(-702.339 -1075.304)" fill="url(#linear-gradient-40)"/>
            <path id="Trazado_148490" data-name="Trazado 148490" d="M698.452,1070.435l.031-.014a.076.076,0,0,0,.037-.1c-.078-.15-.229-.494-.033-.574.252-.1,1.251-.307,1.467-.662a.66.66,0,0,0-.252-.906.038.038,0,0,0-.05.016l-.023.044a.037.037,0,0,1-.069-.007h0a.037.037,0,0,0-.067-.01,1.012,1.012,0,0,1-.724.366c-.68.126-1.129.4-1.14.87a.038.038,0,0,1-.058.031c-.05-.031-.131-.045-.238.045-.187.157-.11.564.3.9a.037.037,0,0,1,0,.06c-.074.048-.185.163.1.316a.963.963,0,0,0,.6.131.037.037,0,0,0,.03-.045l-.091-.413a.038.038,0,0,1,.037-.046Z" transform="translate(-697.236 -1068.172)" fill="#12263f"/>
            <path id="Trazado_148491" data-name="Trazado 148491" d="M703.769,1084.222s-.151-.58-.411-.417.135.65.344.672Z" transform="translate(-702.536 -1081.872)" fill="url(#linear-gradient-41)"/>
          </g>
        </g>
      </g>
      <g id="Grupo_86718" data-name="Grupo 86718" transform="translate(0 3.339)">
        <path id="Trazado_148492" data-name="Trazado 148492" d="M392,1163.33s2.734,4.6,7.339,3.31l-.576,1.871s-5.9.863-7.627-2.3Z" transform="translate(-372.827 -1149.239)" fill="url(#linear-gradient-42)"/>
        <path id="Trazado_148493" data-name="Trazado 148493" d="M263.8,1074.282s.219.438-1.206,1.122c-.795.381-2.341.945-2.545,2.592a1.89,1.89,0,0,1-1.581,1.661c-2.109.323-5.36,1.419-5.88,5.081-.4,2.8,1.028,3.855,2.524,4.222a2.118,2.118,0,0,1,1.606,2.447c-.213,1.063.1,2.293,1.947,3.266,4.129,2.179,8.253-5.162,8.253-5.162l.845-12.818Z" transform="translate(-251.124 -1071.056)" fill="#12263f"/>
        <path id="Trazado_148494" data-name="Trazado 148494" d="M244.018,1479.216l-.169,1.392a.575.575,0,0,1-.5.5,8.9,8.9,0,0,1-1.863.029.492.492,0,0,1-.413-.639,5.068,5.068,0,0,1,.934-1.818h1.544A.476.476,0,0,1,244.018,1479.216Z" transform="translate(-241.045 -1426.114)" fill="#86c3e0"/>
        <path id="Trazado_148495" data-name="Trazado 148495" d="M343.087,1349.42l.261,1.533s-.873,8.84-1.028,12.376a2.77,2.77,0,0,0,.41,1.575l1.518,2.464-3.857-2.276-.077-.471.631-.868-.827-9.9a3.038,3.038,0,0,1,.346-1.68l.8-1.5Z" transform="translate(-328.021 -1312.623)" fill="url(#linear-gradient-43)"/>
        <path id="Trazado_148496" data-name="Trazado 148496" d="M343.8,1473.113H342.57a.741.741,0,0,1-.588-.288c-.384-.5-1.179-1.471-1.559-1.5-.512-.034-.446,1.785-.446,1.785h-.287l-.363-2.26a1.338,1.338,0,0,1,.7-1.4h0a1.893,1.893,0,0,0,.751,1.248c.634.383,2.581,1.753,2.581,1.753a1.755,1.755,0,0,1,.5.013A.325.325,0,0,1,343.8,1473.113Z" transform="translate(-327.32 -1418.011)" fill="#86c3e0"/>
        <path id="Trazado_148497" data-name="Trazado 148497" d="M254.72,1350.8s-5.113,9.7-5.926,11.912a21.267,21.267,0,0,0-1.108,4.236c-.017.273-.357.536-1.294.536a.9.9,0,0,1-.836-.381.547.547,0,0,1-.021-.529c.3-.6,1.234-2.511,1.582-3.379.415-1.036,1.308-5.73,1.8-7.362a8.656,8.656,0,0,1,3.175-5.033S253.553,1349.37,254.72,1350.8Z" transform="translate(-244.936 -1313.278)" fill="url(#linear-gradient-44)"/>
        <path id="Trazado_148498" data-name="Trazado 148498" d="M333.152,1141.556a9.294,9.294,0,0,0-2.022-8.749,14.477,14.477,0,0,1,5.547-2.836.812.812,0,0,1,.734.15c.892.72,3.253,2.812,2.9,4.519-.255,1.229-2.576,7.363-2.576,7.363A5.1,5.1,0,0,1,333.152,1141.556Z" transform="translate(-320.138 -1119.922)" fill="#fdcf57"/>
        <path id="Trazado_148499" data-name="Trazado 148499" d="M301.44,1227.915c.537-1.617,2.924-2.767,2.924-2.767a5.1,5.1,0,0,0,4.581.446,9.188,9.188,0,0,1,.149,3.55c-.332,1.71-2.417,12.7-2.417,12.7-3.285.666-8.336-.67-8.336-.67C300.433,1237.46,300.9,1229.531,301.44,1227.915Z" transform="translate(-291.35 -1203.514)" fill="#fdcf57"/>
        <path id="Trazado_148500" data-name="Trazado 148500" d="M352.413,1095.738l-1.072,4.816c-.1.424.284.355.713.274a2.859,2.859,0,0,0,1.91-.952.521.521,0,0,0,.055-.181l.461-3.34a.6.6,0,0,0-.351-.63l-.889-.394A.6.6,0,0,0,352.413,1095.738Z" transform="translate(-337.868 -1089.491)" fill="url(#linear-gradient-45)"/>
        <g id="Grupo_86714" data-name="Grupo 86714" transform="translate(12.421)">
          <path id="Trazado_148501" data-name="Trazado 148501" d="M356.956,1061.823a4.752,4.752,0,0,1,1.632,2.741c.49,1.968-.307,2.674-1.124,2.63a3.791,3.791,0,0,1-3.028-1.708C353.41,1064.075,355.46,1060.879,356.956,1061.823Z" transform="translate(-352.779 -1059.967)" fill="url(#linear-gradient-46)"/>
          <path id="Trazado_148502" data-name="Trazado 148502" d="M345.54,1052.568s-.418-2.82,1.923-2.388l.473.493a1.525,1.525,0,0,0-.122-2.266,2.591,2.591,0,0,0-4,1.05c-.974,1.776-1.327,3.024-.511,4.127s1.43.157,1.43.157-.374-.955-.064-1.365.711.238.711.238Z" transform="translate(-342.848 -1047.841)" fill="#12263f"/>
          <path id="Trazado_148503" data-name="Trazado 148503" d="M355.568,1082.565s-.207-1.451-.947-1.036.267,1.355.671,1.675Z" transform="translate(-352.952 -1077.353)" fill="url(#linear-gradient-47)"/>
        </g>
        <path id="Trazado_148504" data-name="Trazado 148504" d="M311.112,1154.114a22.452,22.452,0,0,0-2.731,6.373c-.455,2.731,3.869,3.869,5.462,2.276l-.228-1.138s-2.5.455-2.731-.911,2.048-4.1,2.048-4.1S312.25,1154.569,311.112,1154.114Z" transform="translate(-300.136 -1141.147)" fill="url(#linear-gradient-48)"/>
        <path id="Trazado_148505" data-name="Trazado 148505" d="M267.18,1111.045a.378.378,0,0,1-.194-.067,3.133,3.133,0,0,1-1.251-3.153,2.942,2.942,0,0,1,1.027-1.787A4.532,4.532,0,0,1,268,1105.4c.713-.27,1.446-.507,2.179-.7l.181-.048a6.665,6.665,0,0,0,1.276-.434,2.11,2.11,0,0,0,1.058-1.056,3.154,3.154,0,0,0,.162-.836,2.531,2.531,0,0,1,.245-1.007.016.016,0,0,1,.028.016,2.508,2.508,0,0,0-.241.995,3.181,3.181,0,0,1-.164.845,2.142,2.142,0,0,1-1.073,1.073,6.686,6.686,0,0,1-1.282.436l-.181.048c-.732.2-1.464.435-2.176.7a4.5,4.5,0,0,0-1.23.631,2.911,2.911,0,0,0-1.016,1.768,3.1,3.1,0,0,0,1.237,3.12c.071.046.208.1.267.021a.016.016,0,0,1,.022,0,.016.016,0,0,1,0,.022A.135.135,0,0,1,267.18,1111.045Z" transform="translate(-262.675 -1094.783)" fill="#91b3fa"/>
        <path id="Trazado_148506" data-name="Trazado 148506" d="M271.806,1148.206a.016.016,0,0,1-.013-.007,3.022,3.022,0,0,1-.56-1.688,1.9,1.9,0,0,1,.778-1.558.016.016,0,0,1,.022,0,.016.016,0,0,1,0,.022,1.87,1.87,0,0,0-.764,1.532,2.99,2.99,0,0,0,.555,1.67.016.016,0,0,1-.013.025Z" transform="translate(-267.55 -1133.101)" fill="#91b3fa"/>
        <g id="Grupo_86717" data-name="Grupo 86717" transform="translate(1.598 12.389)">
          <g id="Grupo_86716" data-name="Grupo 86716" transform="translate(0)">
            <path id="Trazado_148649" data-name="Trazado 148649" d="M1.355,0H3.689a1.355,1.355,0,0,1,0,2.709H1.355A1.355,1.355,0,0,1,0,1.355H0A1.355,1.355,0,0,1,1.355,0Z" transform="matrix(-0.923, 0.384, -0.384, -0.923, 5.698, 15.514)" fill="#2f94ff"/>
            <path id="Trazado_148507" data-name="Trazado 148507" d="M268.942,1165.339l32.984-11.731,1.745,4.847L270.7,1170.514a1.538,1.538,0,0,1-1.857-.672,6.54,6.54,0,0,1-.776-3.245A1.317,1.317,0,0,1,268.942,1165.339Z" transform="translate(-266.366 -1153.092)" fill="#19385f"/>
            <g id="Grupo_86715" data-name="Grupo 86715" transform="translate(35.544)">
              <path id="Trazado_148508" data-name="Trazado 148508" d="M545.463,1149.956a6.347,6.347,0,0,0,1.745,4.847l4.773-3.435a2.728,2.728,0,0,1-.781-1.92Z" transform="translate(-545.447 -1149.44)" fill="#011224"/>
              <path id="Trazado_148509" data-name="Trazado 148509" d="M591.87,1150.475c.215.53.531.9.705.832s.141-.558-.075-1.088-.531-.9-.706-.832S591.654,1149.945,591.87,1150.475Z" transform="translate(-586.042 -1149.378)" fill="#19385f"/>
              <rect id="Rectngulo_32665" data-name="Rectngulo 32665" width="1.769" height="0.823" rx="0.412" transform="matrix(-0.926, 0.377, -0.377, -0.926, 7.741, 0.763)" fill="#011224"/>
            </g>
          </g>
        </g>
        <path id="Trazado_148510" data-name="Trazado 148510" d="M346.7,1213.052l2.874-.234,1.245,1.147s-.295.407-1.215.173a13.176,13.176,0,0,0-2.181-.291s-1.271.573-1.286-.5Z" transform="translate(-333.316 -1192.688)" fill="url(#linear-gradient-49)"/>
      </g>
    </g>
    <g id="Grupo_86720" data-name="Grupo 86720" transform="translate(216.697 178.149)">
      <path id="Trazado_148511" data-name="Trazado 148511" d="M869.742,1087.91l.624-.115a.51.51,0,0,1,.186,1l-.624.117a.511.511,0,1,1-.188-1.005Z" transform="translate(-869.323 -1034.75)" fill="#fff"/>
      <path id="Trazado_148512" data-name="Trazado 148512" d="M886.865,1085.152l.628-.092a.507.507,0,0,1,.149,1l-.627.094a.508.508,0,1,1-.151-1.005Z" transform="translate(-884.343 -1032.351)" fill="#fff"/>
      <path id="Trazado_148513" data-name="Trazado 148513" d="M904.082,1083.006l.631-.07a.5.5,0,0,1,.112,1l-.63.072a.505.505,0,0,1-.114-1Z" transform="translate(-899.446 -1030.488)" fill="#fff"/>
      <path id="Trazado_148514" data-name="Trazado 148514" d="M921.37,1081.473l.633-.047a.5.5,0,0,1,.076,1l-.633.049a.5.5,0,1,1-.078-1Z" transform="translate(-914.612 -1029.164)" fill="#fff"/>
      <path id="Trazado_148515" data-name="Trazado 148515" d="M938.708,1080.55l.634-.025a.5.5,0,0,1,.041,1l-.634.027a.5.5,0,1,1-.042-1Z" transform="translate(-929.822 -1028.374)" fill="#fff"/>
      <path id="Trazado_148516" data-name="Trazado 148516" d="M956.075,1080.238l.634,0a.5.5,0,0,1,.006.99l-.635,0a.5.5,0,1,1-.007-.992Z" transform="translate(-945.056 -1028.12)" fill="#fff"/>
      <path id="Trazado_148517" data-name="Trazado 148517" d="M973.448,1080.392l.634.019a.492.492,0,0,1-.028.984l-.634-.017a.493.493,0,0,1,.027-.986Z" transform="translate(-960.297 -1028.258)" fill="#fff"/>
      <path id="Trazado_148518" data-name="Trazado 148518" d="M990.807,1081.133l.633.041a.489.489,0,0,1-.062.976l-.633-.04a.49.49,0,0,1,.061-.978Z" transform="translate(-975.526 -1028.907)" fill="#fff"/>
      <path id="Trazado_148519" data-name="Trazado 148519" d="M1008.13,1082.478l.631.063a.486.486,0,0,1-.1.967l-.631-.062a.487.487,0,0,1,.095-.969Z" transform="translate(-990.723 -1030.087)" fill="#fff"/>
      <path id="Trazado_148520" data-name="Trazado 148520" d="M1025.4,1084.427l.629.085a.483.483,0,0,1-.129.957l-.629-.084a.484.484,0,0,1,.128-.959Z" transform="translate(-1005.871 -1031.797)" fill="#fff"/>
      <path id="Trazado_148521" data-name="Trazado 148521" d="M1042.585,1086.978l.625.108a.48.48,0,0,1-.161.946l-.626-.106a.481.481,0,1,1,.16-.948Z" transform="translate(-1020.951 -1034.034)" fill="#fff"/>
      <path id="Trazado_148522" data-name="Trazado 148522" d="M1059.673,1090.129l.621.13a.477.477,0,0,1-.193.934l-.622-.128a.478.478,0,1,1,.192-.936Z" transform="translate(-1035.943 -1036.798)" fill="#fff"/>
      <path id="Trazado_148523" data-name="Trazado 148523" d="M1076.64,1093.877l.616.151a.474.474,0,0,1-.224.921l-.617-.15a.475.475,0,0,1,.224-.923Z" transform="translate(-1050.828 -1040.085)" fill="#fff"/>
      <path id="Trazado_148524" data-name="Trazado 148524" d="M1093.465,1098.224l.61.173a.471.471,0,0,1-.255.906l-.611-.171a.472.472,0,1,1,.255-.908Z" transform="translate(-1065.589 -1043.898)" fill="#fff"/>
      <path id="Trazado_148525" data-name="Trazado 148525" d="M1110.125,1103.165l.6.195a.468.468,0,0,1-.286.891l-.6-.193a.469.469,0,0,1,.285-.893Z" transform="translate(-1080.206 -1048.232)" fill="#fff"/>
      <path id="Trazado_148526" data-name="Trazado 148526" d="M1126.6,1108.7l.6.216a.465.465,0,0,1-.315.874l-.6-.214a.465.465,0,1,1,.314-.876Z" transform="translate(-1094.657 -1053.087)" fill="#fff"/>
      <path id="Trazado_148527" data-name="Trazado 148527" d="M1142.862,1114.8l.589.235a.462.462,0,0,1-.342.858l-.59-.234a.462.462,0,1,1,.341-.86Z" transform="translate(-1108.929 -1058.437)" fill="#fff"/>
      <path id="Trazado_148528" data-name="Trazado 148528" d="M1158.928,1121.416l.582.253a.458.458,0,0,1-.365.841l-.582-.252a.459.459,0,0,1,.364-.844Z" transform="translate(-1123.027 -1064.242)" fill="#fff"/>
      <path id="Trazado_148529" data-name="Trazado 148529" d="M1174.793,1128.5l.575.269a.455.455,0,0,1-.385.825l-.575-.267a.456.456,0,0,1,.385-.828Z" transform="translate(-1136.951 -1070.458)" fill="#fff"/>
      <path id="Trazado_148530" data-name="Trazado 148530" d="M1190.465,1136l.568.283a.452.452,0,0,1-.4.81l-.569-.281a.453.453,0,0,1,.4-.813Z" transform="translate(-1150.705 -1077.036)" fill="#fff"/>
      <path id="Trazado_148531" data-name="Trazado 148531" d="M1205.956,1143.859l.562.3a.449.449,0,0,1-.417.8l-.563-.294a.45.45,0,0,1,.417-.8Z" transform="translate(-1164.303 -1083.936)" fill="#fff"/>
      <path id="Trazado_148532" data-name="Trazado 148532" d="M1221.283,1152.035l.556.306a.446.446,0,0,1-.429.783l-.557-.3a.447.447,0,0,1,.429-.785Z" transform="translate(-1177.757 -1091.11)" fill="#fff"/>
      <path id="Trazado_148533" data-name="Trazado 148533" d="M1236.464,1160.477l.551.314a.443.443,0,0,1-.438.771l-.552-.313a.444.444,0,0,1,.438-.773Z" transform="translate(-1191.084 -1098.519)" fill="#fff"/>
      <path id="Trazado_148534" data-name="Trazado 148534" d="M1251.52,1169.137l.546.321a.44.44,0,0,1-.445.76l-.547-.319a.441.441,0,0,1,.444-.762Z" transform="translate(-1204.303 -1106.121)" fill="#fff"/>
      <path id="Trazado_148535" data-name="Trazado 148535" d="M1266.467,1177.966l.544.326a.437.437,0,0,1-.449.75l-.545-.325a.438.438,0,0,1,.448-.752Z" transform="translate(-1217.427 -1113.871)" fill="#fff"/>
      <path id="Trazado_148536" data-name="Trazado 148536" d="M1281.338,1186.925l.542.33a.434.434,0,0,1-.451.742l-.543-.329a.435.435,0,0,1,.45-.744Z" transform="translate(-1230.486 -1121.736)" fill="#fff"/>
      <path id="Trazado_148537" data-name="Trazado 148537" d="M1296.169,1195.979l.541.333a.431.431,0,0,1-.45.735l-.542-.331a.432.432,0,1,1,.45-.737Z" transform="translate(-1243.51 -1129.685)" fill="#fff"/>
      <path id="Trazado_148538" data-name="Trazado 148538" d="M1310.968,1205.072l.541.333a.428.428,0,0,1-.448.729l-.542-.332a.429.429,0,1,1,.448-.731Z" transform="translate(-1256.507 -1137.669)" fill="#fff"/>
      <path id="Trazado_148539" data-name="Trazado 148539" d="M1325.767,1214.17l.541.332a.425.425,0,0,1-.443.725l-.542-.33a.426.426,0,1,1,.443-.727Z" transform="translate(-1269.505 -1145.657)" fill="#fff"/>
      <path id="Trazado_148540" data-name="Trazado 148540" d="M1340.582,1223.222l.542.33a.422.422,0,0,1-.437.721l-.543-.328a.423.423,0,0,1,.437-.724Z" transform="translate(-1282.518 -1153.606)" fill="#fff"/>
      <path id="Trazado_148541" data-name="Trazado 148541" d="M1355.446,1232.192l.545.326a.419.419,0,0,1-.429.719l-.545-.324a.42.42,0,0,1,.428-.721Z" transform="translate(-1295.574 -1161.483)" fill="#fff"/>
      <path id="Trazado_148542" data-name="Trazado 148542" d="M1370.384,1241.036l.549.32a.416.416,0,0,1-.418.718l-.55-.319a.417.417,0,0,1,.418-.721Z" transform="translate(-1308.697 -1169.25)" fill="#fff"/>
      <path id="Trazado_148543" data-name="Trazado 148543" d="M1385.425,1249.715l.552.313a.413.413,0,0,1-.406.719l-.554-.312a.413.413,0,0,1,.406-.721Z" transform="translate(-1321.911 -1176.874)" fill="#fff"/>
      <path id="Trazado_148544" data-name="Trazado 148544" d="M1400.584,1258.179l.557.3a.41.41,0,0,1-.391.72l-.558-.3a.41.41,0,0,1,.391-.722Z" transform="translate(-1335.229 -1184.308)" fill="#fff"/>
      <path id="Trazado_148545" data-name="Trazado 148545" d="M1415.886,1266.385l.563.293a.406.406,0,0,1-.375.721l-.564-.292a.407.407,0,1,1,.374-.723Z" transform="translate(-1348.674 -1191.516)" fill="#fff"/>
      <path id="Trazado_148546" data-name="Trazado 148546" d="M1431.342,1274.282l.569.281a.4.4,0,0,1-.356.724l-.57-.279a.4.4,0,0,1,.356-.726Z" transform="translate(-1362.255 -1198.453)" fill="#fff"/>
      <path id="Trazado_148547" data-name="Trazado 148547" d="M1446.972,1281.823l.576.267a.4.4,0,0,1-.335.727l-.577-.265a.4.4,0,0,1,.335-.729Z" transform="translate(-1375.99 -1205.078)" fill="#fff"/>
      <path id="Trazado_148548" data-name="Trazado 148548" d="M1462.8,1288.953l.583.251a.4.4,0,0,1-.313.73l-.583-.249a.4.4,0,1,1,.313-.732Z" transform="translate(-1389.897 -1211.343)" fill="#fff"/>
      <path id="Trazado_148549" data-name="Trazado 148549" d="M1478.8,1295.65l.589.235a.394.394,0,0,1-.291.733l-.59-.233a.4.4,0,1,1,.29-.735Z" transform="translate(-1403.962 -1217.226)" fill="#fff"/>
      <path id="Trazado_148550" data-name="Trazado 148550" d="M1494.985,1301.91l.6.219a.391.391,0,0,1-.269.735l-.6-.217a.392.392,0,1,1,.268-.737Z" transform="translate(-1418.182 -1222.726)" fill="#fff"/>
      <path id="Trazado_148551" data-name="Trazado 148551" d="M1511.332,1307.728l.6.2a.388.388,0,0,1-.246.736l-.6-.2a.389.389,0,1,1,.246-.738Z" transform="translate(-1432.547 -1227.837)" fill="#fff"/>
      <path id="Trazado_148552" data-name="Trazado 148552" d="M1527.831,1313.1l.607.186a.385.385,0,0,1-.224.736l-.607-.184a.386.386,0,0,1,.224-.739Z" transform="translate(-1447.045 -1232.554)" fill="#fff"/>
      <path id="Trazado_148553" data-name="Trazado 148553" d="M1544.47,1318.009l.611.169a.382.382,0,0,1-.2.736l-.612-.167a.383.383,0,0,1,.2-.738Z" transform="translate(-1461.667 -1236.87)" fill="#fff"/>
      <path id="Trazado_148554" data-name="Trazado 148554" d="M1561.24,1322.459l.616.152a.379.379,0,0,1-.18.736l-.616-.15a.38.38,0,1,1,.179-.738Z" transform="translate(-1476.402 -1240.779)" fill="#fff"/>
      <path id="Trazado_148555" data-name="Trazado 148555" d="M1578.127,1326.437l.62.134a.376.376,0,0,1-.158.735l-.62-.132a.377.377,0,0,1,.157-.737Z" transform="translate(-1491.241 -1244.274)" fill="#fff"/>
      <path id="Trazado_148556" data-name="Trazado 148556" d="M1595.118,1329.936l.624.117a.373.373,0,0,1-.136.733l-.624-.115a.374.374,0,0,1,.135-.735Z" transform="translate(-1506.172 -1247.348)" fill="#fff"/>
      <path id="Trazado_148557" data-name="Trazado 148557" d="M1612.2,1332.947l.627.1a.37.37,0,0,1-.114.73l-.627-.1a.371.371,0,0,1,.113-.732Z" transform="translate(-1521.185 -1249.994)" fill="#fff"/>
      <path id="Trazado_148558" data-name="Trazado 148558" d="M1629.368,1335.46l.63.08a.367.367,0,0,1-.092.727l-.63-.078a.368.368,0,0,1,.091-.729Z" transform="translate(-1536.267 -1252.201)" fill="#fff"/>
      <path id="Trazado_148559" data-name="Trazado 148559" d="M1646.6,1337.465l.632.061a.364.364,0,0,1-.069.724l-.632-.059a.364.364,0,0,1,.068-.726Z" transform="translate(-1551.408 -1253.963)" fill="#fff"/>
      <path id="Trazado_148560" data-name="Trazado 148560" d="M1663.88,1338.954l.633.042a.36.36,0,0,1-.047.719l-.633-.04a.361.361,0,1,1,.046-.721Z" transform="translate(-1566.594 -1255.27)" fill="#fff"/>
      <path id="Trazado_148561" data-name="Trazado 148561" d="M1681.2,1339.913l.634.022a.357.357,0,0,1-.024.714l-.634-.021a.358.358,0,0,1,.023-.716Z" transform="translate(-1581.812 -1256.113)" fill="#fff"/>
      <path id="Trazado_148562" data-name="Trazado 148562" d="M1698.538,1340.337l.635,0a.354.354,0,0,1,0,.709h-.635a.355.355,0,1,1,0-.71Z" transform="translate(-1597.048 -1256.486)" fill="#fff"/>
      <path id="Trazado_148563" data-name="Trazado 148563" d="M1715.888,1340.082l.635-.018a.351.351,0,0,1,.021.7l-.635.02a.352.352,0,1,1-.022-.7Z" transform="translate(-1612.294 -1256.245)" fill="#fff"/>
      <path id="Trazado_148564" data-name="Trazado 148564" d="M1733.22,1339.248l.633-.039a.348.348,0,0,1,.043.7l-.633.04a.349.349,0,1,1-.044-.7Z" transform="translate(-1627.524 -1255.495)" fill="#fff"/>
      <path id="Trazado_148565" data-name="Trazado 148565" d="M1750.508,1337.844l.631-.06a.345.345,0,0,1,.066.687l-.631.062a.346.346,0,0,1-.067-.689Z" transform="translate(-1642.715 -1254.243)" fill="#fff"/>
      <path id="Trazado_148566" data-name="Trazado 148566" d="M1767.747,1335.859l.628-.081a.342.342,0,0,1,.088.678l-.628.083a.343.343,0,1,1-.09-.68Z" transform="translate(-1657.863 -1252.481)" fill="#fff"/>
      <path id="Trazado_148567" data-name="Trazado 148567" d="M1784.909,1333.285l.626-.1a.339.339,0,0,1,.111.669l-.626.1a.34.34,0,1,1-.112-.671Z" transform="translate(-1672.944 -1250.2)" fill="#fff"/>
      <path id="Trazado_148568" data-name="Trazado 148568" d="M1801.985,1330.114l.622-.125a.336.336,0,0,1,.133.659l-.622.126a.337.337,0,0,1-.134-.66Z" transform="translate(-1687.948 -1247.394)" fill="#fff"/>
      <path id="Trazado_148569" data-name="Trazado 148569" d="M1818.941,1326.339l.617-.147a.333.333,0,0,1,.155.647l-.617.149a.334.334,0,1,1-.156-.649Z" transform="translate(-1702.848 -1244.059)" fill="#fff"/>
      <path id="Trazado_148570" data-name="Trazado 148570" d="M1835.755,1321.956l.611-.169a.33.33,0,0,1,.177.635l-.61.171a.331.331,0,1,1-.178-.637Z" transform="translate(-1717.623 -1240.189)" fill="#fff"/>
      <path id="Trazado_148571" data-name="Trazado 148571" d="M1852.4,1316.96l.6-.192a.327.327,0,0,1,.2.623l-.6.193a.328.328,0,0,1-.2-.624Z" transform="translate(-1732.248 -1235.779)" fill="#fff"/>
      <path id="Trazado_148572" data-name="Trazado 148572" d="M1868.851,1311.34l.6-.215a.324.324,0,0,1,.22.609l-.6.217a.325.325,0,0,1-.222-.61Z" transform="translate(-1746.705 -1230.821)" fill="#fff"/>
      <path id="Trazado_148573" data-name="Trazado 148573" d="M1885.074,1305.066l.588-.239a.321.321,0,0,1,.242.594l-.587.24a.322.322,0,1,1-.244-.595Z" transform="translate(-1760.961 -1225.288)" fill="#fff"/>
      <path id="Trazado_148574" data-name="Trazado 148574" d="M1901.038,1298.153l.578-.262a.318.318,0,0,1,.263.578l-.577.264a.319.319,0,1,1-.265-.579Z" transform="translate(-1774.99 -1219.193)" fill="#fff"/>
      <path id="Trazado_148575" data-name="Trazado 148575" d="M1916.723,1290.618l.567-.285a.315.315,0,0,1,.283.562l-.566.286a.315.315,0,0,1-.285-.563Z" transform="translate(-1788.772 -1212.553)" fill="#fff"/>
      <path id="Trazado_148576" data-name="Trazado 148576" d="M1932.105,1282.479l.556-.307a.311.311,0,0,1,.3.545l-.555.308a.312.312,0,0,1-.3-.546Z" transform="translate(-1802.288 -1205.383)" fill="#fff"/>
      <path id="Trazado_148577" data-name="Trazado 148577" d="M1947.164,1273.751l.543-.328a.308.308,0,0,1,.32.527l-.542.33a.309.309,0,0,1-.321-.529Z" transform="translate(-1815.52 -1197.697)" fill="#fff"/>
      <path id="Trazado_148578" data-name="Trazado 148578" d="M1961.879,1264.45l.53-.349a.305.305,0,0,1,.336.51l-.529.35a.306.306,0,0,1-.338-.511Z" transform="translate(-1828.449 -1189.508)" fill="#fff"/>
      <path id="Trazado_148579" data-name="Trazado 148579" d="M1976.228,1254.592l.516-.369a.3.3,0,0,1,.352.491l-.515.37a.3.3,0,1,1-.354-.492Z" transform="translate(-1841.057 -1180.829)" fill="#fff"/>
      <path id="Trazado_148580" data-name="Trazado 148580" d="M1990.188,1244.19l.5-.389a.3.3,0,0,1,.367.472l-.5.39a.3.3,0,1,1-.369-.473Z" transform="translate(-1853.324 -1171.673)" fill="#fff"/>
      <path id="Trazado_148581" data-name="Trazado 148581" d="M2003.74,1233.258l.486-.408a.3.3,0,0,1,.382.453l-.485.409a.3.3,0,1,1-.384-.454Z" transform="translate(-1865.231 -1162.053)" fill="#fff"/>
      <path id="Trazado_148582" data-name="Trazado 148582" d="M2016.859,1221.809l.47-.427a.293.293,0,0,1,.395.433l-.468.428a.294.294,0,0,1-.4-.434Z" transform="translate(-1876.758 -1151.978)" fill="#fff"/>
      <path id="Trazado_148583" data-name="Trazado 148583" d="M2029.521,1209.858l.452-.445a.29.29,0,0,1,.407.413l-.451.446a.291.291,0,1,1-.409-.414Z" transform="translate(-1887.884 -1141.463)" fill="#fff"/>
      <path id="Trazado_148584" data-name="Trazado 148584" d="M2041.7,1197.417l.434-.463a.287.287,0,0,1,.419.392l-.433.464a.288.288,0,0,1-.421-.393Z" transform="translate(-1898.587 -1130.518)" fill="#fff"/>
      <path id="Trazado_148585" data-name="Trazado 148585" d="M2053.378,1184.5l.415-.48a.284.284,0,0,1,.43.371l-.414.481a.285.285,0,1,1-.432-.371Z" transform="translate(-1908.845 -1119.155)" fill="#fff"/>
      <path id="Trazado_148586" data-name="Trazado 148586" d="M2064.521,1171.122l.395-.5a.281.281,0,0,1,.44.349l-.393.5a.282.282,0,0,1-.442-.349Z" transform="translate(-1918.635 -1107.388)" fill="#fff"/>
      <path id="Trazado_148587" data-name="Trazado 148587" d="M2075.1,1157.3l.374-.513a.278.278,0,0,1,.45.326l-.372.514a.279.279,0,1,1-.452-.327Z" transform="translate(-1927.932 -1095.23)" fill="#fff"/>
      <path id="Trazado_148588" data-name="Trazado 148588" d="M2085.094,1143.043l.352-.529a.275.275,0,0,1,.458.3l-.35.53a.276.276,0,0,1-.46-.3Z" transform="translate(-1936.712 -1082.692)" fill="#fff"/>
      <path id="Trazado_148589" data-name="Trazado 148589" d="M2094.471,1128.379l.328-.543a.272.272,0,0,1,.466.28l-.326.544a.273.273,0,0,1-.468-.28Z" transform="translate(-1944.95 -1069.797)" fill="#fff"/>
      <path id="Trazado_148590" data-name="Trazado 148590" d="M2103.192,1113.33l.3-.556a.268.268,0,0,1,.472.256l-.3.557a.27.27,0,0,1-.474-.256Z" transform="translate(-1952.613 -1056.565)" fill="#fff"/>
      <path id="Trazado_148591" data-name="Trazado 148591" d="M2111.232,1097.907l.278-.57a.266.266,0,0,1,.478.232l-.276.571a.266.266,0,1,1-.48-.232Z" transform="translate(-1959.677 -1043.004)" fill="#fff"/>
      <path id="Trazado_148592" data-name="Trazado 148592" d="M2118.564,1082.139l.251-.583a.262.262,0,0,1,.482.207l-.249.583a.263.263,0,0,1-.484-.207Z" transform="translate(-1966.119 -1029.141)" fill="#fff"/>
      <path id="Trazado_148593" data-name="Trazado 148593" d="M2125.155,1066.055l.223-.594a.259.259,0,0,1,.486.182l-.222.595a.26.26,0,0,1-.488-.182Z" transform="translate(-1971.91 -1015)" fill="#fff"/>
      <path id="Trazado_148594" data-name="Trazado 148594" d="M2130.975,1049.684l.194-.6a.256.256,0,0,1,.488.156l-.193.6a.257.257,0,0,1-.49-.156Z" transform="translate(-1977.024 -1000.61)" fill="#fff"/>
      <path id="Trazado_148595" data-name="Trazado 148595" d="M2136,1033.061l.165-.613a.253.253,0,0,1,.49.131l-.163.613a.254.254,0,1,1-.491-.13Z" transform="translate(-1981.436 -985.999)" fill="#fff"/>
      <path id="Trazado_148596" data-name="Trazado 148596" d="M2140.194,1016.22l.134-.62a.25.25,0,0,1,.489.1l-.132.62a.251.251,0,1,1-.491-.1Z" transform="translate(-1985.124 -971.198)" fill="#fff"/>
      <path id="Trazado_148597" data-name="Trazado 148597" d="M2143.53,999.2l.1-.627a.247.247,0,0,1,.488.077l-.1.627a.248.248,0,1,1-.49-.077Z" transform="translate(-1988.055 -956.238)" fill="#fff"/>
      <path id="Trazado_148598" data-name="Trazado 148598" d="M2145.937,982.035l.066-.631a.244.244,0,0,1,.486.05l-.064.631a.245.245,0,0,1-.488-.05Z" transform="translate(-1990.17 -941.155)" fill="#fff"/>
      <path id="Trazado_148599" data-name="Trazado 148599" d="M2147.417,964.781l.033-.634a.241.241,0,0,1,.481.024l-.031.634a.242.242,0,0,1-.483-.023Z" transform="translate(-1991.47 -925.996)" fill="#fff"/>
      <path id="Trazado_148600" data-name="Trazado 148600" d="M2147.987,947.487v-.635a.238.238,0,0,1,.476,0l0,.635a.239.239,0,0,1-.478,0Z" transform="translate(-1991.97 -910.803)" fill="#fff"/>
      <path id="Trazado_148601" data-name="Trazado 148601" d="M2147.432,930.2l-.033-.634a.235.235,0,0,1,.469-.025l.034.634a.236.236,0,1,1-.471.026Z" transform="translate(-1991.455 -895.616)" fill="#fff"/>
      <path id="Trazado_148602" data-name="Trazado 148602" d="M2146,912.961l-.065-.631a.232.232,0,0,1,.461-.048l.066.631a.233.233,0,1,1-.463.049Z" transform="translate(-1990.172 -880.477)" fill="#fff"/>
      <path id="Trazado_148603" data-name="Trazado 148603" d="M2143.718,895.816l-.1-.627a.229.229,0,0,1,.452-.07l.1.627a.23.23,0,1,1-.454.071Z" transform="translate(-1988.136 -865.421)" fill="#fff"/>
      <path id="Trazado_148604" data-name="Trazado 148604" d="M2140.587,878.806l-.126-.622a.226.226,0,0,1,.442-.091l.128.621a.227.227,0,0,1-.444.092Z" transform="translate(-1985.359 -850.484)" fill="#fff"/>
      <path id="Trazado_148605" data-name="Trazado 148605" d="M2136.628,861.971l-.157-.615a.223.223,0,0,1,.431-.111l.159.614a.223.223,0,1,1-.433.112Z" transform="translate(-1981.854 -835.704)" fill="#fff"/>
      <path id="Trazado_148606" data-name="Trazado 148606" d="M2131.85,845.35l-.187-.607a.22.22,0,0,1,.419-.13l.188.606a.22.22,0,1,1-.421.131Z" transform="translate(-1977.631 -821.112)" fill="#fff"/>
      <path id="Trazado_148607" data-name="Trazado 148607" d="M2126.266,828.982l-.216-.6a.217.217,0,0,1,.407-.148l.218.6a.217.217,0,1,1-.408.149Z" transform="translate(-1972.699 -806.745)" fill="#fff"/>
      <path id="Trazado_148608" data-name="Trazado 148608" d="M2119.885,812.909l-.245-.585a.214.214,0,0,1,.394-.165l.246.585a.214.214,0,1,1-.4.167Z" transform="translate(-1967.068 -792.638)" fill="#fff"/>
      <path id="Trazado_148609" data-name="Trazado 148609" d="M2112.717,797.172l-.273-.572a.21.21,0,0,1,.379-.182l.275.572a.211.211,0,0,1-.381.183Z" transform="translate(-1960.746 -778.828)" fill="#fff"/>
      <path id="Trazado_148610" data-name="Trazado 148610" d="M2104.77,781.815l-.3-.558a.207.207,0,0,1,.365-.2l.3.557a.208.208,0,1,1-.365.2Z" transform="translate(-1953.74 -765.353)" fill="#fff"/>
      <path id="Trazado_148611" data-name="Trazado 148611" d="M2096.053,766.881l-.33-.542a.2.2,0,0,1,.349-.213l.332.541a.205.205,0,1,1-.35.215Z" transform="translate(-1946.058 -752.251)" fill="#fff"/>
      <path id="Trazado_148612" data-name="Trazado 148612" d="M2086.575,752.42l-.358-.524a.2.2,0,0,1,.332-.228l.359.523a.2.2,0,0,1-.333.229Z" transform="translate(-1937.707 -739.566)" fill="#fff"/>
      <path id="Trazado_148613" data-name="Trazado 148613" d="M2076.343,738.476l-.386-.5a.2.2,0,0,1,.314-.241l.387.5a.2.2,0,1,1-.316.243Z" transform="translate(-1928.694 -727.337)" fill="#fff"/>
      <path id="Trazado_148614" data-name="Trazado 148614" d="M2065.375,725.111l-.412-.482a.2.2,0,0,1,.3-.254l.413.481a.2.2,0,0,1-.3.256Z" transform="translate(-1919.036 -715.62)" fill="#fff"/>
      <path id="Trazado_148615" data-name="Trazado 148615" d="M2053.683,712.374l-.439-.458a.192.192,0,0,1,.277-.266l.44.457a.193.193,0,1,1-.278.268Z" transform="translate(-1908.742 -704.456)" fill="#fff"/>
      <path id="Trazado_148616" data-name="Trazado 148616" d="M2041.285,700.324l-.464-.433a.189.189,0,0,1,.257-.277l.465.431a.19.19,0,0,1-.258.279Z" transform="translate(-1897.828 -693.896)" fill="#fff"/>
      <path id="Trazado_148617" data-name="Trazado 148617" d="M2028.206,689.017l-.489-.4a.186.186,0,0,1,.237-.287l.49.4a.187.187,0,1,1-.237.289Z" transform="translate(-1886.317 -683.992)" fill="#fff"/>
      <path id="Trazado_148618" data-name="Trazado 148618" d="M2014.473,678.514l-.512-.374a.183.183,0,0,1,.215-.3l.513.373a.184.184,0,1,1-.216.3Z" transform="translate(-1874.232 -674.796)" fill="#fff"/>
      <path id="Trazado_148619" data-name="Trazado 148619" d="M2000.123,668.871l-.534-.342a.18.18,0,0,1,.193-.3l.535.34a.181.181,0,0,1-.194.3Z" transform="translate(-1861.606 -666.357)" fill="#fff"/>
      <path id="Trazado_148620" data-name="Trazado 148620" d="M1985.2,660.143l-.555-.308a.177.177,0,0,1,.171-.309l.556.306a.178.178,0,0,1-.172.311Z" transform="translate(-1848.477 -658.724)" fill="#fff"/>
      <path id="Trazado_148621" data-name="Trazado 148621" d="M1972.259,653.553l-.225-.108a.174.174,0,0,1,.151-.314l.225.107a.175.175,0,1,1-.151.315Z" transform="translate(-1837.4 -653.114)" fill="#fff"/>
    </g>
    <g id="Grupo_86727" data-name="Grupo 86727" transform="translate(308.936 223.743)">
      <g id="Grupo_86721" data-name="Grupo 86721" transform="translate(26.598 33.678)">
        <rect id="Rectngulo_32666" data-name="Rectngulo 32666" width="1.558" height="16.846" transform="translate(8.05 4.012)" fill="#8db6c3"/>
        <path id="Trazado_148622" data-name="Trazado 148622" d="M1873.379,1469.124h-13.644v-.378a.636.636,0,0,1,.636-.635h12.323a.685.685,0,0,1,.685.685Z" transform="translate(-1857.728 -1447.941)" fill="#85cde2"/>
        <rect id="Rectngulo_32667" data-name="Rectngulo 32667" width="18.231" height="5.171" rx="2.585" fill="#85cde2"/>
      </g>
      <g id="Grupo_86723" data-name="Grupo 86723" transform="translate(13.345)">
        <path id="Trazado_148623" data-name="Trazado 148623" d="M1817.437,1443.7s-4.448,3.206-3.676,5.36c0,0,4.867-2.1,5.455-3.754s-.1-2.385-.1-2.385Z" transform="translate(-1804.031 -1392.145)" fill="#12263f"/>
        <path id="Trazado_148624" data-name="Trazado 148624" d="M1835.837,1427.275l.727,2.1a.731.731,0,0,1-.284.858,1.912,1.912,0,0,1-.6.233.852.852,0,0,1-.942-.427l-.87-1.638Z" transform="translate(-1821.763 -1378.41)" fill="url(#linear-gradient-50)"/>
        <path id="Trazado_148625" data-name="Trazado 148625" d="M1805.934,1272.159s-9.136,1.583-13.056,5.2,3.6,15.17,3.6,15.17a4.68,4.68,0,0,0,2.724-1.287s-4.457-8.686-.616-11.219a24.74,24.74,0,0,1,9.295-3.489l-1.856-4.1Z" transform="translate(-1784.782 -1242.221)" fill="#639ab4"/>
        <path id="Trazado_148626" data-name="Trazado 148626" d="M1809.2,1465.577c.978-.453,3.748-2.392,4.215-2.477s1.277.463,1.277.463a1.263,1.263,0,0,1-.014.972,8.744,8.744,0,0,1-4.034,2.845,3.381,3.381,0,0,1-3.048-.42A4.123,4.123,0,0,1,1809.2,1465.577Z" transform="translate(-1798.699 -1409.856)" fill="#12263f"/>
        <path id="Trazado_148627" data-name="Trazado 148627" d="M1808.6,1477.774a8.744,8.744,0,0,0,4.034-2.845,3.931,3.931,0,0,1-1.172,1.586,9.961,9.961,0,0,1-5.771,2.019c-.567-.087-.514-.61-.139-1.18A3.381,3.381,0,0,0,1808.6,1477.774Z" transform="translate(-1796.655 -1420.25)" fill="#86c3e0"/>
        <path id="Trazado_148628" data-name="Trazado 148628" d="M1854.053,1450.085a7.515,7.515,0,0,1-.884,1.713.84.84,0,0,1-.711.4,2.17,2.17,0,0,1-.588-.071.545.545,0,0,1-.366-.678l.629-2.148Z" transform="translate(-1837.229 -1397.747)" fill="url(#linear-gradient-51)"/>
        <path id="Trazado_148629" data-name="Trazado 148629" d="M1867.176,1249.682s2.029,5.426,0,7.076-6.87,3.508-7.951,6.794-2.916,9.673-5.372,11.935a4.731,4.731,0,0,1-2.371-.855s1.4-9.535,2.321-11.981c.8-2.119,1.976-5.177,4.231-6.886.645-.489.533-1.264.234-2.017l-.545-1.371Z" transform="translate(-1837.229 -1222.486)" fill="#639ab4"/>
        <path id="Trazado_148630" data-name="Trazado 148630" d="M1806.1,1175.639c3.4.205,2.342-5.23,2.281-5.446l5.164,3.647s-.273,2.907-4.567,4.431a5.335,5.335,0,0,1-2.957.214A4.7,4.7,0,0,0,1806.1,1175.639Z" transform="translate(-1797.314 -1152.696)" fill="#064a93"/>
        <path id="Trazado_148631" data-name="Trazado 148631" d="M1736.872,1198.6a2.631,2.631,0,0,1,2.7,0,8.58,8.58,0,0,0,3.875,1.636,4.7,4.7,0,0,1-.079,2.846,7.307,7.307,0,0,1-3.848-2.488.613.613,0,0,0-.849-.093c-.264.208-.52.494-.474.794.092.593-.6.781-.648.566a8.854,8.854,0,0,1,.235-1.489s-1.375,1.383-1.912,1.914a.941.941,0,0,1-1.212,0S1735.6,1199.484,1736.872,1198.6Z" transform="translate(-1734.665 -1177.295)" fill="url(#linear-gradient-52)"/>
        <path id="Trazado_148632" data-name="Trazado 148632" d="M1832.466,1099.723s-4.95-1.982-14.161,5.623a3.462,3.462,0,0,0,.07,3.01c.839,1.417,8.837,8.325,9.936,12.155a11.311,11.311,0,0,0,9.692-2.123S1837.569,1107.728,1832.466,1099.723Z" transform="translate(-1807.817 -1090.62)" fill="#064a93"/>
        <path id="Trazado_148633" data-name="Trazado 148633" d="M1832.822,1086.9l2.437,2.954a.97.97,0,0,1,.128,1.043,2.77,2.77,0,0,1-2.92,1.555,1.5,1.5,0,0,1-1.229-.839l-1.7-3.522Z" transform="translate(-1817.958 -1079.568)" fill="url(#linear-gradient-53)"/>
        <path id="Trazado_148634" data-name="Trazado 148634" d="M1930.344,1114.048c.574-2.34-5.246-7.557-5.246-7.557l1.413-5.094s12.568,8.366,9.365,15.094a4.9,4.9,0,0,1-1.776,2.092A7.834,7.834,0,0,0,1930.344,1114.048Z" transform="translate(-1901.863 -1092.294)" fill="#064a93"/>
        <path id="Trazado_148635" data-name="Trazado 148635" d="M1929.387,1145.93a.137.137,0,0,0,.133-.1c.588-2.393-5.047-7.477-5.287-7.692a.138.138,0,1,0-.184.2c.058.052,5.752,5.188,5.2,7.422a.137.137,0,0,0,.134.17Z" transform="translate(-1900.901 -1124.517)" fill="#011224"/>
        <path id="Trazado_148636" data-name="Trazado 148636" d="M1854.037,1202.638s6.9,2.679,8.585.664a1.132,1.132,0,0,0,.23-.462,7.833,7.833,0,0,1,3.757,4.535c-3.629,2.319-9.833-1.29-11.51-2.354a1.251,1.251,0,0,0-.927-.17,8.563,8.563,0,0,1-2.367.239c-.882-.136-2.148,2.975-3.577,2.015C1848.228,1207.1,1849.452,1201.7,1854.037,1202.638Z" transform="translate(-1834.371 -1181.086)" fill="url(#linear-gradient-54)"/>
        <g id="Grupo_86722" data-name="Grupo 86722" transform="translate(8.059)">
          <path id="Trazado_148637" data-name="Trazado 148637" d="M1813.032,1046.125c-.025.095.571,6.552.571,6.552l3.68-.418.344-6.2S1813.442,1044.535,1813.032,1046.125Z" transform="translate(-1811.528 -1043.129)" fill="url(#linear-gradient-55)"/>
          <path id="Trazado_148638" data-name="Trazado 148638" d="M1805.856,1031l.074,3.28a.451.451,0,0,1-.014.124c-.064.249-.347,1.091-1.191.749a4.122,4.122,0,0,0-1.986-.484.458.458,0,0,0-.371.492,19.806,19.806,0,0,0,.5,3.034.457.457,0,0,0,.522.329,14.777,14.777,0,0,0,3.307-.948.459.459,0,0,0,.267-.386c.055-.82.232-3.311.389-4,.147-.644.991-.948,1.354-1.05a.45.45,0,0,0,.277-.223,1.188,1.188,0,0,0-.606-1.809.459.459,0,0,1-.224-.622,1.19,1.19,0,0,0-.484-1.708,1.678,1.678,0,0,0-2.044.261.458.458,0,0,1-.588,0,.363.363,0,0,0-.412-.031.451.451,0,0,1-.614-.262,1.369,1.369,0,0,0-1.494-.961c-1.639.1-2.017,1.862-1.707,2.953s2.081.883,3.005.451a1.96,1.96,0,0,1,1.859.45A.454.454,0,0,1,1805.856,1031Z" transform="translate(-1800.715 -1026.793)" fill="#12263f"/>
          <path id="Trazado_148639" data-name="Trazado 148639" d="M1854.242,1071.443s-.458-1.925.271-2.3,1.71-.033,1.341,1.284C1855.4,1072.063,1854.242,1071.443,1854.242,1071.443Z" transform="translate(-1847.586 -1063.846)" fill="url(#linear-gradient-56)"/>
        </g>
      </g>
      <g id="Grupo_86724" data-name="Grupo 86724" transform="translate(0.985 13.69)">
        <path id="Trazado_148640" data-name="Trazado 148640" d="M1757.79,1237.293h-.033l-14.478-.016a.648.648,0,1,1,0-1.3l14.478.016a.648.648,0,0,1,.032,1.3Z" transform="translate(-1729.299 -1224.148)" fill="#86c3e0"/>
        <path id="Trazado_148641" data-name="Trazado 148641" d="M1634.332,1138.993h12.057a2.3,2.3,0,0,1,2.079,1.318l5.574,11.82h-14.984a1.4,1.4,0,0,1-1.3-.883l-4.323-10.937A.963.963,0,0,1,1634.332,1138.993Z" transform="translate(-1633.368 -1138.993)" fill="#aedef5"/>
        <path id="Trazado_148642" data-name="Trazado 148642" d="M1697.035,1179.972c.261.812.068,1.6-.431,1.761s-1.116-.367-1.377-1.179-.068-1.6.431-1.761S1696.774,1179.16,1697.035,1179.972Z" transform="translate(-1687.577 -1173.911)" fill="#baedfc"/>
      </g>
      <g id="Grupo_86726" data-name="Grupo 86726" transform="translate(0 26.698)">
        <g id="Grupo_86725" data-name="Grupo 86725" transform="translate(3.296 1.295)">
          <path id="Trazado_148643" data-name="Trazado 148643" d="M1652.911,1286.11a.626.626,0,0,1-.24-.048.582.582,0,0,1-.318-.774l12.76-28.717a.616.616,0,0,1,.8-.308.582.582,0,0,1,.318.774l-12.76,28.717A.609.609,0,0,1,1652.911,1286.11Z" transform="translate(-1652.303 -1256.214)" fill="#8db6c3"/>
          <path id="Trazado_148644" data-name="Trazado 148644" d="M1678.9,1286.109a.609.609,0,0,1-.559-.356l-12.76-28.717a.582.582,0,0,1,.318-.774.616.616,0,0,1,.8.308l12.76,28.717a.582.582,0,0,1-.318.774A.622.622,0,0,1,1678.9,1286.109Z" transform="translate(-1663.917 -1256.214)" fill="#8db6c3"/>
          <path id="Trazado_148645" data-name="Trazado 148645" d="M1976.619,1286.11a.627.627,0,0,1-.24-.048.582.582,0,0,1-.318-.774l12.76-28.717a.616.616,0,0,1,.8-.308.582.582,0,0,1,.318.774l-12.76,28.717A.609.609,0,0,1,1976.619,1286.11Z" transform="translate(-1936.514 -1256.214)" fill="#8db6c3"/>
          <path id="Trazado_148646" data-name="Trazado 148646" d="M2002.608,1286.109a.61.61,0,0,1-.559-.356l-12.76-28.717a.582.582,0,0,1,.319-.774.616.616,0,0,1,.8.308l12.76,28.717a.582.582,0,0,1-.318.774A.623.623,0,0,1,2002.608,1286.109Z" transform="translate(-1948.128 -1256.214)" fill="#8db6c3"/>
        </g>
        <path id="Trazado_148647" data-name="Trazado 148647" d="M1684.564,1246.365a.7.7,0,0,0-.121-.531.552.552,0,0,0-.443-.234h-58.048a.647.647,0,0,0-.557.341.817.817,0,0,0-.043.709l.629,1.524a.88.88,0,0,0,.8.572H1683.6a.691.691,0,0,0,.655-.6Z" transform="translate(-1625.292 -1245.6)" fill="#fdcf57"/>
      </g>
    </g>
  </g>
</svg>
