<svg xmlns="http://www.w3.org/2000/svg" xmlns:xlink="http://www.w3.org/1999/xlink" width="414.107" height="410.211" viewBox="0 0 414.107 410.211">
  <defs>
    <linearGradient id="linear-gradient" x1="0.723" y1="0.099" x2="0.415" y2="0.757" gradientUnits="objectBoundingBox">
      <stop offset="0" stop-color="#ffc444"/>
      <stop offset="0.996" stop-color="#f36f56"/>
    </linearGradient>
    <clipPath id="clip-path">
      <path id="Trazado_162834" data-name="Trazado 162834" d="M-2080.187,1621.744c-12.916-12.12-29.958-31.806-37.67-59.639-10.116-36.5,4.707-54.952,3.036-116.752-1.056-39.077-2.188-66.337-21.889-80.918-15.438-11.426-40.431-13.7-55.6-3.107-12.612,8.807-19.908,27.536-22.135,40.9-1.815,10.9-.357,18.808-6.637,24.547-6.419,5.866-13.348,2.545-19.351,6.889-12.171,8.812-5.124,38-3.986,42.713,12.671,52.47,61.019,87.859,82.293,103.041A327.02,327.02,0,0,0-2080.187,1621.744Z" transform="translate(2247.48 -1354.501)" fill="#d8dee8"/>
    </clipPath>
    <clipPath id="clip-path-2">
      <path id="Trazado_162839" data-name="Trazado 162839" d="M-2118.824,1586.232c-27.966.24-63.624-3.446-97.8-18.829-8.722-3.927-62.6-28.179-56.284-52.71,2.226-8.639,10.038-10.018,13.215-21.518,3.762-13.627-4.8-20.416-10.758-37.38-3.554-10.122-13.957-39.746,3.772-56.189,10.594-9.827,30.755-14.5,46.114-10.947,22.529,5.218,30.311,27.123,42.834,64.416,11.1,33.057,8.28,41.181,16.689,64.846C-2154.8,1535.487-2143.059,1559.663-2118.824,1586.232Z" transform="translate(2276.724 -1387.474)" fill="url(#linear-gradient)"/>
    </clipPath>
    <linearGradient id="linear-gradient-3" x1="0.434" y1="1.819" x2="0.507" y2="0.645" gradientUnits="objectBoundingBox">
      <stop offset="0" stop-color="#444b8c"/>
      <stop offset="0.996" stop-color="#26264f"/>
    </linearGradient>
    <linearGradient id="linear-gradient-4" x1="0.378" y1="0.48" x2="0.132" y2="0.522" gradientUnits="objectBoundingBox">
      <stop offset="0" stop-color="#444b8c"/>
      <stop offset="0.395" stop-color="#383c74"/>
      <stop offset="0.996" stop-color="#26264f"/>
    </linearGradient>
    <linearGradient id="linear-gradient-5" x1="0.788" y1="-0.179" x2="0.128" y2="1.287" xlink:href="#linear-gradient-3"/>
    <linearGradient id="linear-gradient-6" x1="0.788" y1="-0.253" x2="-0.045" y2="1.885" gradientUnits="objectBoundingBox">
      <stop offset="0" stop-color="#084a93"/>
      <stop offset="0.996" stop-color="#2f94ff"/>
      <stop offset="1" stop-color="#80c559"/>
    </linearGradient>
    <linearGradient id="linear-gradient-7" x1="0.413" y1="-2.15" x2="0.584" y2="3.478" gradientUnits="objectBoundingBox">
      <stop offset="0" stop-color="#116dd9"/>
      <stop offset="0.996" stop-color="#116dd9"/>
      <stop offset="1" stop-color="#80c559"/>
    </linearGradient>
    <linearGradient id="linear-gradient-8" y1="0.5" x2="1" y2="0.5" gradientUnits="objectBoundingBox">
      <stop offset="0" stop-color="#67affc"/>
      <stop offset="0.996" stop-color="#71b4fc"/>
      <stop offset="1" stop-color="#80c559"/>
    </linearGradient>
    <linearGradient id="linear-gradient-9" y1="0.5" x2="1" y2="0.5" gradientUnits="objectBoundingBox">
      <stop offset="0" stop-color="#311944"/>
      <stop offset="1" stop-color="#893976"/>
    </linearGradient>
    <linearGradient id="linear-gradient-11" x1="0.42" y1="-0.384" x2="0.628" y2="1.969" gradientUnits="objectBoundingBox">
      <stop offset="0" stop-color="#ff9085"/>
      <stop offset="1" stop-color="#fb6fbb"/>
    </linearGradient>
    <linearGradient id="linear-gradient-12" x1="-0.459" y1="-4.298" x2="1.049" y2="3.284" xlink:href="#linear-gradient-11"/>
    <linearGradient id="linear-gradient-13" x1="0" y1="0.5" x2="1" y2="0.5" xlink:href="#linear-gradient-11"/>
    <linearGradient id="linear-gradient-14" x1="-0.008" y1="0.35" x2="0.749" y2="0.573" xlink:href="#linear-gradient-9"/>
    <linearGradient id="linear-gradient-15" x1="96.054" y1="0.094" x2="96.703" y2="1.596" xlink:href="#linear-gradient"/>
    <linearGradient id="linear-gradient-16" x1="139.451" y1="-0.027" x2="140.379" y2="2" xlink:href="#linear-gradient"/>
    <linearGradient id="linear-gradient-17" x1="-0.008" y1="0.35" x2="0.749" y2="0.573" xlink:href="#linear-gradient-9"/>
    <linearGradient id="linear-gradient-18" x1="96.018" y1="0.094" x2="96.667" y2="1.596" xlink:href="#linear-gradient"/>
    <linearGradient id="linear-gradient-19" x1="139.393" y1="-0.027" x2="140.321" y2="2" xlink:href="#linear-gradient"/>
    <linearGradient id="linear-gradient-21" x1="85.542" y1="0.094" x2="86.191" y2="1.596" xlink:href="#linear-gradient"/>
    <linearGradient id="linear-gradient-22" x1="124.105" y1="-0.027" x2="125.033" y2="2" xlink:href="#linear-gradient"/>
    <linearGradient id="linear-gradient-23" x1="1147.198" y1="0.5" x2="1148.197" y2="0.5" gradientUnits="objectBoundingBox">
      <stop offset="0" stop-color="#aa80f9"/>
      <stop offset="0.996" stop-color="#6165d7"/>
    </linearGradient>
    <linearGradient id="linear-gradient-24" x1="3298.196" y1="0.5" x2="3299.195" y2="0.5" gradientUnits="objectBoundingBox">
      <stop offset="0.004" stop-color="#f36f56"/>
      <stop offset="1" stop-color="#ffc444"/>
    </linearGradient>
    <linearGradient id="linear-gradient-25" x1="1488.524" y1="0.5" x2="1489.523" y2="0.5" xlink:href="#linear-gradient-23"/>
    <linearGradient id="linear-gradient-26" x1="1669.438" y1="0.5" x2="1670.438" y2="0.5" xlink:href="#linear-gradient-24"/>
    <linearGradient id="linear-gradient-27" x1="494.637" y1="0.046" x2="493.014" y2="0.301" xlink:href="#linear-gradient-9"/>
    <linearGradient id="linear-gradient-28" x1="341.197" y1="0.163" x2="340.082" y2="0.436" xlink:href="#linear-gradient-9"/>
    <linearGradient id="linear-gradient-29" x1="153.793" y1="0.683" x2="153.577" y2="0.44" xlink:href="#linear-gradient-3"/>
    <linearGradient id="linear-gradient-30" x1="119.277" y1="0.023" x2="119.415" y2="0.824" xlink:href="#linear-gradient-11"/>
    <linearGradient id="linear-gradient-31" x1="183.387" y1="-0.146" x2="183.6" y2="0.812" xlink:href="#linear-gradient-11"/>
    <linearGradient id="linear-gradient-32" x1="328.6" y1="-0.061" x2="328.982" y2="1.755" xlink:href="#linear-gradient-11"/>
    <linearGradient id="linear-gradient-33" x1="231.795" y1="0.162" x2="230.939" y2="2.45" xlink:href="#linear-gradient-3"/>
    <linearGradient id="linear-gradient-34" x1="488.054" y1="-262.855" x2="487.923" y2="-262.241" xlink:href="#linear-gradient-24"/>
    <linearGradient id="linear-gradient-35" x1="1648.048" y1="-450.88" x2="1646.554" y2="-449.23" xlink:href="#linear-gradient-24"/>
    <linearGradient id="linear-gradient-36" x1="252.454" y1="0.5" x2="253.454" y2="0.5" xlink:href="#linear-gradient-3"/>
    <linearGradient id="linear-gradient-37" x1="2008.682" y1="2.058" x2="2008.307" y2="1.072" xlink:href="#linear-gradient-24"/>
  </defs>
  <g id="Grupo_102182" data-name="Grupo 102182" transform="translate(2281.426 -1350.446)">
    <path id="Trazado_162827" data-name="Trazado 162827" d="M-1884.93,1467.02c10.916-99.433-85.482-133.977-153.823-108.517-68.893,25.665-84.865-16.88-181.742-4.724-98.092,12.308-48.288,166.287-48.288,166.287s15.608,133.9,34.1,195.613c18.392,61.384,194.434,39.175,237.26,37.344,42.578-1.822,79.577,1.694,116.621-65.706C-1843.825,1620.041-1895.811,1566.123-1884.93,1467.02Z" transform="translate(0 0)" fill="#f4f7fa"/>
    <path id="Trazado_162828" data-name="Trazado 162828" d="M-2030.455,1425.345l-7.954.538a62.039,62.039,0,0,0-3.6-10.245l6.6-4.43a3.916,3.916,0,0,0,1.034-5.462l-7.7-11.322a3.992,3.992,0,0,0-5.5-1.1l-6.686,4.463a63.845,63.845,0,0,0-8.25-7.125l3.526-7.24a3.98,3.98,0,0,0-1.858-5.3l-12.393-6.1a3.96,3.96,0,0,0-5.324,1.772l-3.551,7.263a63.5,63.5,0,0,0-10.746-2.127l-.617-8.145a4.071,4.071,0,0,0-4.3-3.725l-13.851.816a3.926,3.926,0,0,0-3.719,4.209l.622,8.169a63.046,63.046,0,0,0-10.416,3.425l-4.672-6.81a4.116,4.116,0,0,0-5.63-1.126l-11.592,7.611a3.931,3.931,0,0,0-1.071,5.54l4.687,6.814a62.53,62.53,0,0,0-7.273,8.194l-7.5-3.622a4.089,4.089,0,0,0-5.451,1.813l-6.137,12.415a4,4,0,0,0,1.909,5.37l7.446,3.573a61.2,61.2,0,0,0-2.1,10.8l-8.241.556a4.017,4.017,0,0,0-3.784,4.281l1.05,13.834a4.085,4.085,0,0,0,4.389,3.719l8.176-.576a61.931,61.931,0,0,0,3.669,10.462l-6.726,4.49a3.963,3.963,0,0,0-1.078,5.575l7.948,11.443a4.123,4.123,0,0,0,5.669,1.048l6.672-4.479a64.04,64.04,0,0,0,8.514,7.228l-3.487,7.134a3.964,3.964,0,0,0,1.9,5.335l12.62,5.944a4.084,4.084,0,0,0,5.4-1.885l3.441-7.068a63.752,63.752,0,0,0,11,2.006l.593,7.812a3.991,3.991,0,0,0,4.315,3.655l13.828-1.091a4,4,0,0,0,3.694-4.274l-.591-7.79a62.878,62.878,0,0,0,10.479-3.651l4.415,6.418a4,4,0,0,0,5.538,1.021l11.343-7.732a3.949,3.949,0,0,0,1.04-5.5l-4.427-6.455a62.809,62.809,0,0,0,7.147-8.307l7.077,3.4a3.955,3.955,0,0,0,5.277-1.842l5.907-12.261a3.946,3.946,0,0,0-1.848-5.263l-7.091-3.425a61.334,61.334,0,0,0,1.971-10.69l7.888-.556a3.913,3.913,0,0,0,3.632-4.2l-1.03-13.559A3.979,3.979,0,0,0-2030.455,1425.345Zm-71.695-24.364a40.709,40.709,0,0,1,43.283,37.27,40.034,40.034,0,0,1-37.206,42.818c-22.408,1.668-42.041-15-43.728-37.239A40.023,40.023,0,0,1-2102.15,1400.981Z" transform="translate(112.323 17.459)" fill="#bfc8d6" opacity="0.3" style="mix-blend-mode: multiply;isolation: isolate"/>
    <g id="Grupo_101522" data-name="Grupo 101522" transform="translate(-2271.781 1358.763)">
      <g id="Grupo_101514" data-name="Grupo 101514" transform="translate(59.98)">
        <g id="Grupo_101513" data-name="Grupo 101513">
          <path id="Trazado_162829" data-name="Trazado 162829" d="M-2080.187,1621.744c-12.916-12.12-29.958-31.806-37.67-59.639-10.116-36.5,4.707-54.952,3.036-116.752-1.056-39.077-2.188-66.337-21.889-80.918-15.438-11.426-40.431-13.7-55.6-3.107-12.612,8.807-19.908,27.536-22.135,40.9-1.815,10.9-.357,18.808-6.637,24.547-6.419,5.866-13.348,2.545-19.351,6.889-12.171,8.812-5.124,38-3.986,42.713,12.671,52.47,61.019,87.859,82.293,103.041A327.02,327.02,0,0,0-2080.187,1621.744Z" transform="translate(2247.48 -1354.501)" fill="#d8dee8"/>
          <g id="Grupo_101512" data-name="Grupo 101512" clip-path="url(#clip-path)">
            <g id="Grupo_101511" data-name="Grupo 101511" transform="translate(-58.607 -14.064)" opacity="0.5" style="mix-blend-mode: soft-light;isolation: isolate">
              <g id="Grupo_101507" data-name="Grupo 101507" transform="translate(132.921)">
                <path id="Trazado_162830" data-name="Trazado 162830" d="M-2103.5,1638.617c-22.516-8.557-41.9-18.765-57.606-30.339-23.249-17.135-37.729-36.817-43.039-58.5-4.152-16.96-2.611-35.34-.661-58.609a326.872,326.872,0,0,1,7.043-44.727c3.3-15.451,5.9-27.656,4.092-45.3-1.835-17.93-7.751-35.758-17.58-52.993l.88-.5c9.9,17.356,15.857,35.319,17.707,53.389,1.823,17.806-.8,30.079-4.11,45.618a326.211,326.211,0,0,0-7.023,44.6c-2.018,24.083-3.479,41.485.636,58.283,5.251,21.45,19.6,40.939,42.655,57.927,15.634,11.521,34.934,21.684,57.366,30.208Z" transform="translate(2211.248 -1347.644)" fill="#fff"/>
              </g>
              <g id="Grupo_101508" data-name="Grupo 101508" transform="translate(70.271 41.392)">
                <path id="Trazado_162831" data-name="Trazado 162831" d="M-2170.984,1456.433l-.163-.548c-10.4-34.9-29.065-56.734-42.9-68.906-14.973-13.176-27.625-18.162-27.75-18.211l.365-.944c.127.049,12.948,5.1,28.054,18.4,13.855,12.193,32.532,34.01,43.029,68.815a92.607,92.607,0,0,0,24.885-18.443c11.658-12.007,25.71-32.965,26.458-64.625l1.014.025c-.757,32.007-14.979,53.2-26.775,65.336-12.782,13.154-25.57,18.82-25.7,18.876Z" transform="translate(2241.793 -1367.825)" fill="#fff"/>
              </g>
              <g id="Grupo_101509" data-name="Grupo 101509" transform="translate(54.011 74.511)">
                <path id="Trazado_162832" data-name="Trazado 162832" d="M-2165.573,1491.529l-.353-.1c-16.975-4.982-36.24-24.518-57.263-58.07a466.077,466.077,0,0,1-26.533-48.967l.921-.416a465.669,465.669,0,0,0,26.475,48.856c14.28,22.785,35.611,51.19,56.334,57.52A266.79,266.79,0,0,1-2137,1455.9c16.454-16.144,54.75-21.719,55.135-21.774l.142,1c-.382.053-38.353,5.583-54.567,21.493a265.131,265.131,0,0,0-29.074,34.6Z" transform="translate(2249.721 -1383.972)" fill="#fff"/>
              </g>
              <g id="Grupo_101510" data-name="Grupo 101510" transform="translate(0 141.572)">
                <path id="Trazado_162833" data-name="Trazado 162833" d="M-2099.29,1530.992l-1-.119c-.188-.023-19.275-2.361-44.2-11.053-23.016-8.024-55.869-23.261-81.7-50.284l-49.864-52.168.732-.7,49.863,52.169c25.688,26.877,58.388,42.04,81.3,50.027a240.554,240.554,0,0,0,42.993,10.868,46.622,46.622,0,0,1-5.736-30.013c1.261-8.438,4.862-16.993,10.7-25.429a103.932,103.932,0,0,1,23.185-23.572l.577.834a102.72,102.72,0,0,0-22.944,23.337c-5.744,8.3-9.282,16.714-10.52,24.994-1.542,10.331.516,20.5,6.117,30.235Z" transform="translate(2276.054 -1416.668)" fill="#fff"/>
              </g>
            </g>
          </g>
        </g>
      </g>
      <g id="Grupo_101521" data-name="Grupo 101521" transform="translate(0 67.629)">
        <g id="Grupo_101520" data-name="Grupo 101520">
          <path id="Trazado_162835" data-name="Trazado 162835" d="M-2118.824,1586.232c-27.966.24-63.624-3.446-97.8-18.829-8.722-3.927-62.6-28.179-56.284-52.71,2.226-8.639,10.038-10.018,13.215-21.518,3.762-13.627-4.8-20.416-10.758-37.38-3.554-10.122-13.957-39.746,3.772-56.189,10.594-9.827,30.755-14.5,46.114-10.947,22.529,5.218,30.311,27.123,42.834,64.416,11.1,33.057,8.28,41.181,16.689,64.846C-2154.8,1535.487-2143.059,1559.663-2118.824,1586.232Z" transform="translate(2276.724 -1387.474)" fill="url(#linear-gradient)"/>
          <g id="Grupo_101519" data-name="Grupo 101519" clip-path="url(#clip-path-2)">
            <g id="Grupo_101518" data-name="Grupo 101518" transform="translate(-4.389 -29.39)" opacity="0.5" style="mix-blend-mode: soft-light;isolation: isolate">
              <g id="Grupo_101515" data-name="Grupo 101515" transform="translate(42.657)">
                <path id="Trazado_162836" data-name="Trazado 162836" d="M-2068.471,1616.282a168.1,168.1,0,0,1-39.229-4.584c-37.752-9.037-70.514-31.57-97.374-66.971-27.923-36.8-42.475-78.3-49.769-106.637-5.081-19.739-4.152-41.591,2.763-64.945l.97.287c-6.861,23.177-7.786,44.844-2.752,64.405,7.269,28.245,21.774,69.611,49.6,106.278,26.714,35.21,59.285,57.616,96.8,66.6,28.166,6.741,57.969,6,88.581-2.213l.262.978A192.322,192.322,0,0,1-2068.471,1616.282Z" transform="translate(2258.066 -1373.145)" fill="#fff"/>
              </g>
              <g id="Grupo_101516" data-name="Grupo 101516" transform="translate(6.937 23.573)">
                <path id="Trazado_162837" data-name="Trazado 162837" d="M-2216.435,1481.916l-.383-.246c-60.353-38.882-59.818-83.72-58.216-96.537.033-.252.054-.417.055-.488l1.014-.006c0,.1-.016.236-.063.622-1.58,12.641-2.088,56.806,57.37,95.306a115.883,115.883,0,0,0,13.8-24.242c5.762-13.643,11.4-34.546,5.526-56.648l.978-.26c5.949,22.391.247,43.535-5.583,57.329a114.913,114.913,0,0,1-14.213,24.816Z" transform="translate(2275.481 -1384.638)" fill="#fff"/>
              </g>
              <g id="Grupo_101517" data-name="Grupo 101517" transform="translate(0 42.557)">
                <path id="Trazado_162838" data-name="Trazado 162838" d="M-2206.155,1524.267c-24.03,0-40.827-6.268-51.44-12.323a72.792,72.792,0,0,1-16.27-12.477,41,41,0,0,1-5-6.073l.859-.535c.059.1,6.266,9.87,20.967,18.238,24.482,13.937,53.385,13.387,73.417,10.44,1.417-3.156,15.684-36.254,12.278-80.534l-3.619-47.031,1.01-.078,3.617,47.031c3.587,46.626-12.321,80.949-12.482,81.289l-.115.244-.269.041A155.978,155.978,0,0,1-2206.155,1524.267Z" transform="translate(2278.863 -1393.894)" fill="#fff"/>
              </g>
            </g>
          </g>
        </g>
      </g>
    </g>
    <g id="Grupo_101526" data-name="Grupo 101526" transform="translate(-2258.044 1474.437)">
      <g id="Grupo_101523" data-name="Grupo 101523" transform="translate(130.788 201.479)">
        <path id="Trazado_162840" data-name="Trazado 162840" d="M-2119.682,1556.732a14.672,14.672,0,0,1-9.728-11.045l-7.23-35.783-61.844,2.2-7.611,37.276c-1.067,5.221,3.2,10.458,8.114,12.382l25.876,10.124a33.647,33.647,0,0,0,15.127,2.193l54.683-4.678a3.393,3.393,0,0,0,3.066-3.005c.184-1.612,1.3-3.423-.22-3.927Z" transform="translate(2206.26 -1508.316)" fill="#97a6b7"/>
        <path id="Trazado_162841" data-name="Trazado 162841" d="M-2120.139,1555.369a14.547,14.547,0,0,1-9.718-10.906l-7.222-35.334-60.338,2.172-7.6,36.808a10.77,10.77,0,0,0,6.662,12.222l25.849,10a34,34,0,0,0,15.113,2.166l54.625-4.619a3.371,3.371,0,0,0,3.064-2.968,3.369,3.369,0,0,0-2.3-3.594Z" transform="translate(2207.328 -1509.13)" fill="url(#linear-gradient-3)"/>
      </g>
      <g id="Grupo_101525" data-name="Grupo 101525">
        <g id="Grupo_101524" data-name="Grupo 101524">
          <path id="Trazado_162842" data-name="Trazado 162842" d="M-2257.833,1637.747c-6.707.4-12.192-3.95-12.192-9.7V1420.811c0-5.749,5.486-10.19,12.192-9.9l310.155,13.438a9.375,9.375,0,0,1,8.912,9.254v176.253a9.565,9.565,0,0,1-8.912,9.4Z" transform="translate(2270.026 -1410.899)" fill="url(#linear-gradient-4)"/>
          <path id="Trazado_162843" data-name="Trazado 162843" d="M-2256.474,1637.747c-6.707.4-12.194-3.95-12.194-9.7V1420.811c0-5.749,5.487-10.19,12.194-9.9l310.155,13.438a9.375,9.375,0,0,1,8.912,9.254v176.253a9.566,9.566,0,0,1-8.912,9.4Z" transform="translate(2271.455 -1410.899)" fill="url(#linear-gradient-5)"/>
          <path id="Trazado_162844" data-name="Trazado 162844" d="M-1949.235,1426.02l-310.155-12.757c-3.585-.148-6.5,2.221-6.5,5.291v206.7c0,3.07,2.917,5.392,6.5,5.188l310.155-17.812a5.106,5.106,0,0,0,4.775-5.025V1430.967A5.006,5.006,0,0,0-1949.235,1426.02Z" transform="translate(2274.371 -1408.421)" fill="#d8dee8" opacity="0.3" style="mix-blend-mode: multiply;isolation: isolate"/>
          <path id="Trazado_162845" data-name="Trazado 162845" d="M-2261.424,1611.1a2.237,2.237,0,0,1-2.533-2.041v-192.09a2.265,2.265,0,0,1,2.533-2.065l310.155,12.284a1.956,1.956,0,0,1,1.866,1.932v164.7a1.98,1.98,0,0,1-1.866,1.949Z" transform="translate(2276.405 -1406.687)" fill="#d8dee8"/>
        </g>
        <path id="Trazado_162846" data-name="Trazado 162846" d="M-1978.7,1606.431c-26.093-16.142-7.868-62.034-37.171-85.092-29.544-23.247-71.114,5.265-91.81-18.81-15.409-17.924,2.621-39.569-12.091-56.428-23.075-26.436-82.139,9.923-109.277-16.121-3.852-3.7-7.74-9.308-9.953-18.31l-17.475-.757c-6.707-.291-12.194,4.149-12.194,9.9v207.237c0,5.749,5.487,10.1,12.194,9.7l310.155-18.488a9.566,9.566,0,0,0,8.912-9.4v-3.134C-1958,1613.713-1970.591,1611.444-1978.7,1606.431Z" transform="translate(2271.455 -1410.899)" fill="#fff" opacity="0.6" style="mix-blend-mode: soft-light;isolation: isolate"/>
      </g>
    </g>
    <g id="Grupo_101531" data-name="Grupo 101531" transform="translate(-2208.909 1452.908)">
      <g id="Grupo_101530" data-name="Grupo 101530">
        <path id="Trazado_162847" data-name="Trazado 162847" d="M-2008.016,1408.184l-224.376-7.773a13.279,13.279,0,0,0-13.679,13.5v167.393a13.4,13.4,0,0,0,13.679,13.607l224.376-6.067c6.475-.177,11.7-6.082,11.7-13.192v-154.19C-1996.313,1414.353-2001.541,1408.408-2008.016,1408.184Z" transform="translate(2246.07 -1400.402)" fill="url(#linear-gradient-6)"/>
        <path id="Trazado_162848" data-name="Trazado 162848" d="M-2243.934,1575.439V1415.147a12.3,12.3,0,0,1,12.644-12.516l218.135,7.249c6.013.2,10.871,5.71,10.871,12.308v148.045c0,6.6-4.858,12.07-10.871,12.224l-218.135,5.594A12.413,12.413,0,0,1-2243.934,1575.439Z" transform="translate(2248.315 -1398.068)" fill="#f0fcff" opacity="0.74" style="mix-blend-mode: soft-light;isolation: isolate"/>
        <path id="Trazado_162849" data-name="Trazado 162849" d="M-2008.016,1408.184l-224.376-7.773a13.279,13.279,0,0,0-13.679,13.5v10.028l249.757,6.758v-9.236C-1996.313,1414.353-2001.541,1408.408-2008.016,1408.184Z" transform="translate(2246.07 -1400.402)" fill="url(#linear-gradient-7)"/>
        <path id="Trazado_162850" data-name="Trazado 162850" d="M-2229.662,1409.095a4.332,4.332,0,0,1-4.435,4.41,4.664,4.664,0,0,1-4.446-4.682,4.332,4.332,0,0,1,4.446-4.41A4.664,4.664,0,0,1-2229.662,1409.095Z" transform="translate(2253.982 -1396.19)" fill="#fff"/>
        <path id="Trazado_162851" data-name="Trazado 162851" d="M-2222.163,1409.313a4.3,4.3,0,0,1-4.389,4.389,4.631,4.631,0,0,1-4.4-4.658,4.3,4.3,0,0,1,4.4-4.389A4.632,4.632,0,0,1-2222.163,1409.313Z" transform="translate(2261.957 -1395.934)" fill="#fff"/>
        <path id="Trazado_162852" data-name="Trazado 162852" d="M-2214.736,1409.531a4.271,4.271,0,0,1-4.348,4.369,4.6,4.6,0,0,1-4.358-4.635,4.269,4.269,0,0,1,4.358-4.369A4.6,4.6,0,0,1-2214.736,1409.531Z" transform="translate(2269.854 -1395.682)" fill="#fff"/>
        <path id="Trazado_162853" data-name="Trazado 162853" d="M-2018.146,1497.144l-220.151,1.6v-66.169l220.151,3.021Z" transform="translate(2254.241 -1366.584)" fill="url(#linear-gradient-8)"/>
        <path id="Trazado_162854" data-name="Trazado 162854" d="M-2018.146,1475.021l-220.151,2.769v-7.105l220.151-2.273Z" transform="translate(2254.241 -1328.92)" fill="#fff"/>
        <path id="Trazado_162855" data-name="Trazado 162855" d="M-2018.146,1482.926l-220.151,3.987v-7.105l220.151-3.491Z" transform="translate(2254.241 -1320.612)" fill="#fff"/>
        <g id="Grupo_101527" data-name="Grupo 101527" transform="translate(15.945 49.285)">
          <path id="Trazado_162856" data-name="Trazado 162856" d="M-2119.67,1426.688l-118.626-2.257v7.105l118.626,1.99Z" transform="translate(2238.296 -1424.431)" fill="#fff"/>
          <path id="Trazado_162857" data-name="Trazado 162857" d="M-2137.062,1426.357v6.637l12.514.21V1426.6Z" transform="translate(2344.699 -1422.407)" fill="#fff"/>
        </g>
        <g id="Grupo_101528" data-name="Grupo 101528" opacity="0.5" style="mix-blend-mode: soft-light;isolation: isolate">
          <path id="Trazado_162858" data-name="Trazado 162858" d="M-2095.118,1493.7c-26.2-38.851-71.582-26.518-100.311-69.484a94.82,94.82,0,0,1-11.111-22.908l-25.852-.9a13.279,13.279,0,0,0-13.679,13.5v167.393a13.4,13.4,0,0,0,13.679,13.607l170.82-4.619a146.429,146.429,0,0,1-13.785-25.127C-2090.632,1529.4-2079.317,1517.13-2095.118,1493.7Z" transform="translate(2246.07 -1400.402)" fill="#fff"/>
        </g>
        <g id="Grupo_101529" data-name="Grupo 101529" transform="translate(19.88 74.441)" style="mix-blend-mode: soft-light;isolation: isolate">
          <path id="Trazado_162859" data-name="Trazado 162859" d="M-2209.468,1444.805l-26.909-.25V1436.7l26.909.315Z" transform="translate(2236.377 -1436.696)" fill="#fff"/>
          <path id="Trazado_162860" data-name="Trazado 162860" d="M-2088.752,1445.873l-126.136-1.173v-7.753l126.136,1.476Z" transform="translate(2258.963 -1436.432)" fill="#fff"/>
          <path id="Trazado_162861" data-name="Trazado 162861" d="M-2188.7,1451.293l-26.192-.136V1443.4l26.192.2Z" transform="translate(2258.963 -1429.646)" fill="#fff"/>
          <path id="Trazado_162862" data-name="Trazado 162862" d="M-2071.1,1451.851l-122.867-.638v-7.65l122.867.933Z" transform="translate(2280.949 -1429.479)" fill="#fff"/>
          <path id="Trazado_162863" data-name="Trazado 162863" d="M-2188.7,1457.642l-26.192-.029v-7.752l26.192.091Z" transform="translate(2258.963 -1422.86)" fill="#fff"/>
          <path id="Trazado_162864" data-name="Trazado 162864" d="M-2071.1,1457.717l-122.867-.133v-7.65l122.867.428Z" transform="translate(2280.949 -1422.783)" fill="#fff"/>
          <path id="Trazado_162865" data-name="Trazado 162865" d="M-2209.468,1464.117l-26.909.082v-7.859l26.909-.017Z" transform="translate(2236.377 -1416.068)" fill="#fff"/>
          <path id="Trazado_162866" data-name="Trazado 162866" d="M-2088.752,1463.729l-126.136.381v-7.753l126.136-.078Z" transform="translate(2258.963 -1416.113)" fill="#fff"/>
        </g>
      </g>
    </g>
    <g id="Grupo_101534" data-name="Grupo 101534" transform="translate(-2143.269 1393.071)">
      <g id="Grupo_101532" data-name="Grupo 101532">
        <path id="Trazado_162867" data-name="Trazado 162867" d="M-2078.239,1386.332l-.056,47.763-.01,7.671c0,4.5-3.063,3.4-7.22,3.321l-15.3.183-1.995.025-13.8.166-2.271.029-86.321,1.034-.566.008a8.7,8.7,0,0,1-8.281-8.77l-.01-58.2a8.014,8.014,0,0,1,8.025-8.233l.26,0,3.288.183,116.713,6.289C-2081.622,1377.988-2078.232,1381.83-2078.239,1386.332Z" transform="translate(2214.067 -1371.126)" fill="url(#linear-gradient-9)"/>
        <path id="Trazado_162868" data-name="Trazado 162868" d="M-2149.505,1406.57l-2.083,2.944-2.854,4.028-10.961,15.482-2.209-1.051-.036-14.787-.01-3.476-.011-4.343,2.286.149Z" transform="translate(2262.835 -1335.347)" fill="url(#linear-gradient-9)"/>
        <path id="Trazado_162869" data-name="Trazado 162869" d="M-2076.757,1386.27l-.062,47.872-.01,7.843c0,4.519-3.415,8.137-7.589,8.04l-20.685-.56-1.536-.041-10.946-.294-2.26-.063-84.988-2.293a7.478,7.478,0,0,1-1.343-.15,8.8,8.8,0,0,1-6.962-8.657l-.01-58.47a8.154,8.154,0,0,1,6.14-8.054,7.761,7.761,0,0,1,2.171-.208l1.384.076,119.124,6.4C-2080.158,1377.892-2076.751,1381.748-2076.757,1386.27Z" transform="translate(2215.033 -1371.228)" fill="url(#linear-gradient-11)"/>
        <path id="Trazado_162870" data-name="Trazado 162870" d="M-2148.312,1406.521l-2.442,3.017-3.312,4.094-12.5,15.442.013-15.774v-7.977Z" transform="translate(2263.994 -1335.394)" fill="url(#linear-gradient-12)"/>
      </g>
      <g id="Grupo_101533" data-name="Grupo 101533" transform="translate(37.936 21.244)">
        <path id="Trazado_162871" data-name="Trazado 162871" d="M-2173.854,1410.422l-21.717-12.179v-3.7l21.717-11.3v6.055l-14.846,7.193,14.846,7.9Z" transform="translate(2195.571 -1379.839)" fill="#fff"/>
        <path id="Trazado_162872" data-name="Trazado 162872" d="M-2165.828,1382.013l-11.223,35.619-5.816-.2,11.371-35.85Z" transform="translate(2208.924 -1381.586)" fill="#fff"/>
        <path id="Trazado_162873" data-name="Trazado 162873" d="M-2172.583,1404.654l13.558-6.151-13.558-8.5v-5.882l19.542,13.25v3.425l-19.542,9.72Z" transform="translate(2219.733 -1378.926)" fill="#fff"/>
      </g>
      <path id="Trazado_162874" data-name="Trazado 162874" d="M-2075.853,1434.142l-.011,7.843c0,4.519-3.414,8.137-7.588,8.04l-20.685-.56-12.5,15.44-2.209-1.05-.034-14.788-84.988-2.293a7.474,7.474,0,0,1-1.344-.15l-.566.008a8.7,8.7,0,0,1-8.281-8.77l-.01-58.193a8.036,8.036,0,0,1,8.025-8.227,7.759,7.759,0,0,1,2.17-.208l1.385.076c-.006.1-.006.205-.006.312-.034,11.41,4.239,27.634,28.31,29.543,37.607,2.978,47.3,11.347,61.436,27.94,9.232,10.833,23.409,5.71,34.453,5.09C-2077.461,1434.15-2076.644,1434.13-2075.853,1434.142Z" transform="translate(2214.067 -1371.228)" opacity="0.2" fill="url(#linear-gradient-13)" style="mix-blend-mode: multiply;isolation: isolate"/>
    </g>
    <g id="Grupo_101537" data-name="Grupo 101537" transform="translate(-1967.02 1593.542)">
      <path id="Trazado_162875" data-name="Trazado 162875" d="M-2094.586,1468.988c16.109.5,29.638,10.329,32.273,22.779l.01.049q.215,1.021.328,2.067l.016.137c.033.324.06.652.078.98,0,.06,0,.119.008.179.016.334.027.671.027,1.009,0,14.466-14.766,25.431-32.741,24.5-.478-.025-.951-.06-1.426-.1l-.139-.01c-.447-.041-.892-.09-1.333-.143l-.207-.027c-.429-.054-.853-.117-1.276-.185l-.238-.039q-.625-.1-1.236-.225c-.084-.016-.166-.033-.249-.052q-.612-.123-1.214-.266l-.232-.057c-.4-.1-.8-.2-1.187-.308l-.212-.062q-.528-.151-1.052-.313c-.089-.029-.177-.055-.265-.082q-.53-.172-1.051-.357l-.227-.078,0,0c-11.949-4.31-20.348-14.011-20.348-24.857C-2126.473,1479.434-2112.3,1468.444-2094.586,1468.988Z" transform="translate(2129.884 -1468.969)" fill="url(#linear-gradient-14)"/>
      <path id="Trazado_162876" data-name="Trazado 162876" d="M-2128.136,1493.525c0,14.091,14.175,26.247,31.89,27.164,17.973.931,32.739-10.034,32.739-24.5s-14.765-26.649-32.739-27.2C-2113.961,1468.444-2128.136,1479.434-2128.136,1493.525Z" transform="translate(2128.136 -1468.969)" fill="url(#linear-gradient-15)"/>
      <g id="Grupo_101535" data-name="Grupo 101535" transform="translate(13.999 8.162)">
        <path id="Trazado_162877" data-name="Trazado 162877" d="M-2089.1,1481.62v20.645l-17.7,8.006-.091-.143-14.424-10.385.125-17.02,14.554-9.644-.023-.131Z" transform="translate(2121.311 -1472.948)" fill="#fff"/>
        <path id="Trazado_162878" data-name="Trazado 162878" d="M-2106.629,1473.009l-.141,37.073-14.534-10.4.119-17.019Z" transform="translate(2121.317 -1472.885)" fill="#f4f7fa"/>
      </g>
      <g id="Grupo_101536" data-name="Grupo 101536" transform="translate(20.346 11.093)" opacity="0.3" style="mix-blend-mode: multiply;isolation: isolate">
        <path id="Trazado_162879" data-name="Trazado 162879" d="M-2114.493,1508.037c3.878-7.431-.042-14.725,5.205-19.427,5.354-4.8,12.346.152,19.916-3.647,2.939-1.477,6.214-4.4,8.655-10.585a23.651,23.651,0,0,1,6.783,16.128c0,14.466-14.765,25.431-32.739,24.5a40.171,40.171,0,0,1-11.543-2.306A15.844,15.844,0,0,0-2114.493,1508.037Z" transform="translate(2118.216 -1474.377)" fill="url(#linear-gradient-16)"/>
      </g>
    </g>
    <g id="Grupo_101543" data-name="Grupo 101543" transform="translate(-1965.857 1449.033)">
      <path id="Trazado_162880" data-name="Trazado 162880" d="M-2094.017,1398.532c16.108.495,29.635,10.329,32.272,22.78l.01.049q.212,1.021.329,2.065l.014.137c.034.326.059.652.077.98,0,.06.007.119.009.179.016.336.026.673.026,1.009,0,14.468-14.765,25.431-32.738,24.5-.479-.025-.955-.059-1.426-.1l-.14-.012c-.447-.039-.892-.088-1.335-.144l-.206-.025q-.642-.083-1.275-.185l-.241-.039c-.413-.07-.826-.146-1.234-.226l-.25-.051c-.406-.084-.811-.172-1.212-.269-.078-.019-.156-.037-.232-.058-.4-.1-.8-.2-1.189-.308-.07-.018-.14-.041-.209-.06q-.532-.151-1.052-.316c-.088-.027-.178-.053-.266-.082-.354-.113-.7-.234-1.048-.357-.076-.026-.152-.049-.229-.076l0,0c-11.947-4.309-20.348-14.009-20.348-24.856C-2125.907,1408.976-2111.732,1397.989-2094.017,1398.532Z" transform="translate(2129.316 -1398.513)" fill="url(#linear-gradient-17)"/>
      <path id="Trazado_162881" data-name="Trazado 162881" d="M-2127.569,1423.067c0,14.093,14.173,26.249,31.888,27.166,17.976.929,32.741-10.033,32.741-24.5s-14.765-26.647-32.741-27.2C-2113.4,1397.989-2127.569,1408.976-2127.569,1423.067Z" transform="translate(2127.569 -1398.513)" fill="url(#linear-gradient-18)"/>
      <g id="Grupo_101538" data-name="Grupo 101538" transform="translate(20.345 11.091)" opacity="0.3" style="mix-blend-mode: multiply;isolation: isolate">
        <path id="Trazado_162882" data-name="Trazado 162882" d="M-2113.926,1437.58c3.878-7.431-.043-14.725,5.206-19.428,5.353-4.8,12.345.154,19.916-3.646,2.939-1.475,6.215-4.4,8.656-10.586a23.663,23.663,0,0,1,6.783,16.127c0,14.469-14.766,25.431-32.741,24.5a40.256,40.256,0,0,1-11.543-2.305A15.857,15.857,0,0,0-2113.926,1437.58Z" transform="translate(2117.65 -1403.92)" fill="url(#linear-gradient-19)"/>
      </g>
      <g id="Grupo_101542" data-name="Grupo 101542" transform="translate(13.461 8.835)">
        <g id="Grupo_101541" data-name="Grupo 101541" transform="translate(0 1.028)">
          <g id="Grupo_101539" data-name="Grupo 101539">
            <path id="Trazado_162883" data-name="Trazado 162883" d="M-2104.905,1436.8a17.056,17.056,0,0,1-16.1-17.075,16.209,16.209,0,0,1,16.1-16.4,17,17,0,0,1,16.736,17.089A16.165,16.165,0,0,1-2104.905,1436.8Zm0-32.025a14.8,14.8,0,0,0-14.73,14.979,15.576,15.576,0,0,0,14.73,15.6,14.766,14.766,0,0,0,15.262-14.967A15.531,15.531,0,0,0-2104.905,1404.771Z" transform="translate(2121.006 -1403.321)" fill="#f4f7fa"/>
          </g>
          <g id="Grupo_101540" data-name="Grupo 101540" transform="translate(7.944 8.339)">
            <path id="Trazado_162884" data-name="Trazado 162884" d="M-2100.66,1415.961a8.106,8.106,0,0,1-8.317,8.225,8.542,8.542,0,0,1-8.157-8.571,8.116,8.116,0,0,1,8.157-8.227A8.526,8.526,0,0,1-2100.66,1415.961Z" transform="translate(2117.134 -1407.387)" fill="#f4f7fa"/>
          </g>
        </g>
        <path id="Trazado_162885" data-name="Trazado 162885" d="M-2103.943,1406.434a3.562,3.562,0,0,1-3.577,3.583,3.6,3.6,0,0,1-3.546-3.614,3.563,3.563,0,0,1,3.546-3.583A3.6,3.6,0,0,1-2103.943,1406.434Z" transform="translate(2131.454 -1402.82)" fill="#f4f7fa"/>
      </g>
    </g>
    <g id="Grupo_101549" data-name="Grupo 101549" transform="translate(-1946.61 1516.724)">
      <path id="Trazado_162886" data-name="Trazado 162886" d="M-2080.787,1431.537c17.953.549,33.032,11.513,35.971,25.388l.01.055q.24,1.138.367,2.3l.016.154c.037.363.066.726.086,1.091,0,.068.008.133.01.2.019.373.031.747.031,1.124,0,16.125-16.457,28.345-36.492,27.308-.534-.026-1.063-.065-1.59-.111l-.156-.012c-.5-.046-.992-.1-1.487-.16l-.23-.029c-.478-.062-.952-.129-1.421-.205-.09-.014-.178-.029-.266-.045q-.7-.114-1.379-.25l-.277-.058q-.68-.138-1.351-.3l-.261-.066c-.443-.108-.886-.221-1.323-.342l-.236-.068q-.591-.167-1.171-.351c-.1-.031-.2-.06-.3-.092q-.588-.191-1.17-.4c-.084-.029-.17-.055-.251-.084v0c-13.318-4.8-22.68-15.615-22.68-27.705C-2116.332,1443.179-2100.533,1430.93-2080.787,1431.537Z" transform="translate(2120.133 -1431.516)" fill="url(#linear-gradient-14)"/>
      <path id="Trazado_162887" data-name="Trazado 162887" d="M-2118.185,1458.884c0,15.707,15.8,29.256,35.542,30.278,20.035,1.038,36.493-11.182,36.493-27.308s-16.458-29.7-36.493-30.317C-2102.386,1430.93-2118.185,1443.179-2118.185,1458.884Z" transform="translate(2118.185 -1431.516)" fill="url(#linear-gradient-21)"/>
      <g id="Grupo_101544" data-name="Grupo 101544" transform="translate(22.677 12.363)" opacity="0.3" style="mix-blend-mode: multiply;isolation: isolate">
        <path id="Trazado_162888" data-name="Trazado 162888" d="M-2102.978,1475.061c4.324-8.284-.047-16.412,5.8-21.655,5.966-5.347,13.76.17,22.2-4.065,3.275-1.645,6.926-4.9,9.647-11.8a26.374,26.374,0,0,1,7.559,17.976c0,16.125-16.458,28.345-36.492,27.308a44.79,44.79,0,0,1-12.866-2.568A17.665,17.665,0,0,0-2102.978,1475.061Z" transform="translate(2107.129 -1437.543)" fill="url(#linear-gradient-22)"/>
      </g>
      <g id="Grupo_101548" data-name="Grupo 101548" transform="translate(14.772 11.062)">
        <path id="Trazado_162889" data-name="Trazado 162889" d="M-2097.007,1447.226a2.848,2.848,0,0,1-2.89,2.89,2.983,2.983,0,0,1-2.885-2.99,2.849,2.849,0,0,1,2.873-2.89A2.984,2.984,0,0,1-2097.007,1447.226Z" transform="translate(2119.602 -1429.209)" fill="#fff"/>
        <g id="Grupo_101545" data-name="Grupo 101545" transform="translate(5.061)">
          <path id="Trazado_162890" data-name="Trazado 162890" d="M-2101.135,1472.647a7.187,7.187,0,0,1-4.19-1.432c-5.027-3.832-4.012-13.9,2.324-23.054,4.722-6.818,11.176-11.252,16.459-11.252a7.339,7.339,0,0,1,4.336,1.3c5.306,3.768,4.257,14.15-2.373,23.505C-2089.427,1468.557-2095.931,1472.829-2101.135,1472.647Zm14.6-33.885c-4.639-.008-10.667,4.215-15.007,10.472-5.592,8.059-6.847,17.414-2.757,20.521a5.419,5.419,0,0,0,3.165,1.054c4.563.152,10.615-3.932,15.049-10.2,5.813-8.214,7.113-17.822,2.82-20.879A5.536,5.536,0,0,0-2086.538,1438.761Z" transform="translate(2108.516 -1436.909)" fill="#fff"/>
        </g>
        <g id="Grupo_101546" data-name="Grupo 101546" transform="translate(5.053)">
          <path id="Trazado_162891" data-name="Trazado 162891" d="M-2086.445,1473.161h0c-5.3-.187-11.791-4.875-16.538-11.886-6.352-9.377-7.374-19.456-2.364-23.091a6.941,6.941,0,0,1,4.175-1.276c5.186,0,11.687,4.473,16.561,11.457,6.687,9.581,7.809,20.031,2.51,23.634A7.106,7.106,0,0,1-2086.445,1473.161Zm-14.724-34.427a5.252,5.252,0,0,0-3.155.938c-4.075,2.949-2.812,12.321,2.8,20.583,4.365,6.43,10.424,10.889,15.078,11.043a5.365,5.365,0,0,0,3.275-.86c4.285-2.923,2.923-12.6-2.937-21.017C-2090.57,1443.015-2096.621,1438.743-2101.169,1438.734Z" transform="translate(2108.52 -1436.909)" fill="#fff"/>
        </g>
        <g id="Grupo_101547" data-name="Grupo 101547" transform="translate(0 6.817)">
          <path id="Trazado_162892" data-name="Trazado 162892" d="M-2090.887,1461.975h0l-.539.256c-5.242-.224-10.123-1.383-13.759-3.5-3.791-2.209-5.839-5.017-5.8-8.042.088-5.952,8.477-10.524,19.3-10.452l.539.024c7.45.158,14.327,2.543,17.879,6.231a7.319,7.319,0,0,1,2.461,5.263C-2070.87,1457.948-2079.789,1462.955-2090.887,1461.975Zm-.792-19.866c-9.685-.082-17.488,3.821-17.557,8.7-.035,2.322,1.7,4.615,4.887,6.469a28.6,28.6,0,0,0,12.942,3.38l.515.019c9.9.262,18.152-3.641,18.209-8.7a5.966,5.966,0,0,0-1.92-4.186c-3.209-3.345-9.58-5.511-16.562-5.671Z" transform="translate(2110.984 -1440.233)" fill="#fff"/>
        </g>
      </g>
    </g>
    <g id="Grupo_101551" data-name="Grupo 101551" transform="translate(-2238.886 1525.134)">
      <path id="Trazado_162893" data-name="Trazado 162893" d="M-2220.847,1546.563a17.535,17.535,0,0,0-.119,3.823c.242.96,8.569,1.653,11.4,1.321s-1.684-3.222-3.484-3.764S-2220.847,1546.563-2220.847,1546.563Z" transform="translate(2302.347 -1319.004)" fill="url(#linear-gradient-23)"/>
      <path id="Trazado_162894" data-name="Trazado 162894" d="M-2216.7,1544.365l-.877,5.747s-2.238,1.007-3.314.013l-.119-6.016Z" transform="translate(2302.39 -1321.584)" fill="url(#linear-gradient-24)"/>
      <path id="Trazado_162895" data-name="Trazado 162895" d="M-2237.572,1544.3s1.768,1.313,1.3,2.882-4.594,7.864-7.533,9.648-2.017-1.934-1.161-4.252,3.04-7.423,3.893-8.278S-2237.572,1544.3-2237.572,1544.3Z" transform="translate(2276.318 -1321.779)" fill="url(#linear-gradient-25)"/>
      <path id="Trazado_162896" data-name="Trazado 162896" d="M-2235.852,1541.03c-.855,2.381-1.676,4.338-2.318,5.782a20.636,20.636,0,0,1-3.081,5.433c-.767.9-2.584,2.836-3.072,2.514s.834-2.675,3.4-9.552c.372-1,1.546-4.178,1.546-4.178h3.528Z" transform="translate(2277.777 -1324.82)" fill="url(#linear-gradient-26)"/>
      <path id="Trazado_162897" data-name="Trazado 162897" d="M-2195.977,1492.611a148.827,148.827,0,0,1,.32,26.547c-1.141,14.688-4.077,23.981-7.759,39.641-2.252,9.57-5.283,23.656-8.03,41.273a7.733,7.733,0,0,1-4.922.964,7.433,7.433,0,0,1-2.956-1.122c-7.2-22.005-5.074-35.641-1.6-44.136,1.481-3.622,3.278-6.479,4.237-12.046,1.269-7.365-.3-11.481-2.542-28.542-1.6-12.158-1.319-14.037-.257-15.861C-2215.238,1492.037-2202.25,1492.178-2195.977,1492.611Z" transform="translate(2299.109 -1375.887)" fill="url(#linear-gradient-27)"/>
      <path id="Trazado_162898" data-name="Trazado 162898" d="M-2200.936,1493.773c-4.411,22.781-8.741,34.747-12.017,41.516a113.52,113.52,0,0,0-6.053,14.774,120.673,120.673,0,0,0-3.679,14.072c-1.52,6.984-5.28,17.18-15.393,30.555a3.846,3.846,0,0,1-3.5.178,3.381,3.381,0,0,1-1.417-1.469c1.322-12.786,2.84-23.531,4.159-31.824.275-1.739,1.493-9.349,3.4-19.4.746-3.934,1.841-9.7,3.152-15.619,1.632-7.373,4.137-17.405,8-29.425Q-2212.61,1495.451-2200.936,1493.773Z" transform="translate(2279.281 -1374.49)" fill="url(#linear-gradient-28)"/>
      <path id="Trazado_162899" data-name="Trazado 162899" d="M-2178.583,1464.787c2.5-2.314,7.287-4.978,9.689-11.177.722-1.866,3.282-8.475-.495-13.531-2.242-3-6.4-5.04-10.074-4.317-3.137.615-3.626,2.8-8.955,7.195a37.7,37.7,0,0,1-9.119,5.991c-6.356,2.619-10.175.154-16.558.435-7.841.347-16.95,4.722-21.337,11.086-7.79,11.293,3.494,22.75-5.038,35.98-2.8,4.336-4.173,3.364-10.794,11.754s-9.945,12.6-9.355,17.75c.819,7.146,8.515,13.969,15.76,14.433,7.081.455,11.581-5.115,15.185-2.679,2.563,1.733,1.1,5.1,3.821,9.158,3.513,5.224,10.415,6.266,11.528,6.434,10.348,1.561,24.3-10.573,30.225-24.947C-2173.414,1502.432-2192.183,1477.359-2178.583,1464.787Z" transform="translate(2260.686 -1435.616)" fill="url(#linear-gradient-29)"/>
      <path id="Trazado_162900" data-name="Trazado 162900" d="M-2138.489,1461.793c.072-7.234-16.365-13.018-23.884-14.881a53.229,53.229,0,0,0-23.343-.6,52.13,52.13,0,0,0-27.095,15.526,36.562,36.562,0,0,1,14.355,17.943c1.19,3.284,4.708,14.511-.322,25.027-2.9,6.059-8.028,10.608-11.923,14.064-5.841,5.183-8.867,5.979-10.825,10.623-2.133,5.056.016,7.521-2.632,10.981-2.844,3.719-6.178,1.99-11,5.75-4.939,3.85-3.181,7.019-7.675,11.274-6.53,6.182-15.188,4.174-15.592,6.955-.347,2.394,5.806,5.64,11.034,6.957,10.352,2.607,19.383-1.77,22.067-3.117,7.435-3.735,6.151-6.154,11.818-9,9.492-4.768,15.978.538,37.6,1.083,11.707.3,17.627.363,20.87-3.6,2.961-3.619,1.4-7.587-.374-24.689-.845-8.14-1.151-16.326-1.774-24.487-1.763-23.08-1.817-25.111-.252-28.3C-2151.828,1467.873-2138.55,1468.287-2138.489,1461.793Z" transform="translate(2263.049 -1425.428)" fill="url(#linear-gradient-30)"/>
      <g id="Grupo_101550" data-name="Grupo 101550" transform="translate(4.611 35.445)" opacity="0.3" style="mix-blend-mode: multiply;isolation: isolate">
        <path id="Trazado_162901" data-name="Trazado 162901" d="M-2242.833,1549.529c4.494-4.256,2.736-7.425,7.675-11.275,4.822-3.759,8.155-2.031,11-5.749,2.647-3.46.5-5.925,2.632-10.981,1.958-4.643,4.984-5.439,10.825-10.622,3.9-3.456,9.023-8.005,11.923-14.064,5.029-10.516,1.512-21.743.322-25.027a36.56,36.56,0,0,0-14.354-17.943c.268-.291.586-.621.926-.97,18.452,2.535,29.207,13.2,30.538,16.353,3.077,7.3-1.792,9.978-1.917,31.024-.062,10.061,1.023,14.031-2.24,18.23-3.732,4.8-8.033,3.316-13.432,9.594-4.147,4.824-3.485,7.882-7.357,9.915-4.163,2.184-6.815-.361-11.512.64-7.847,1.674-9.525,10.721-14.712,15.672-3.923,3.743-11.176,6.36-25.48,3.55a2,2,0,0,1-.426-1.393C-2258.02,1553.7-2249.363,1555.71-2242.833,1549.529Z" transform="translate(2258.438 -1452.897)" fill="url(#linear-gradient-31)"/>
      </g>
      <path id="Trazado_162902" data-name="Trazado 162902" d="M-2201.43,1480.834c1.963,4.166-7.052,13.865-17.069,18.472-2.041.939-16.7,7.677-23.228,1.2-5.4-5.355-1.916-16.427-.671-20.382,6.107-19.411,24.861-29.285,32.72-32.845,5.866,14.667,2.412,21.2,1.052,23.243a78.176,78.176,0,0,1-9.595,10.555c-2.962,2.775-4.805,4.124-4.557,4.557.308.539,3.78-.478,17.263-7.042C-2203.951,1478.843-2202.1,1479.413-2201.43,1480.834Z" transform="translate(2277.536 -1423.359)" fill="url(#linear-gradient-32)"/>
      <path id="Trazado_162903" data-name="Trazado 162903" d="M-2164.66,1453.631l-6.617,32.948a2.7,2.7,0,0,1-2.082,2.11l-49.33,10.588a2.7,2.7,0,0,1-3.263-2.853l2.6-33.508a2.708,2.708,0,0,1,2.047-2.417c7.824-1.93,37.945-9.164,53.83-10.1A2.7,2.7,0,0,1-2164.66,1453.631Z" transform="translate(2297.185 -1420.085)" fill="url(#linear-gradient-33)"/>
      <path id="Trazado_162904" data-name="Trazado 162904" d="M-2214.242,1440.24s-.931,7.437-3.675,9.141-7.185,3.93-7.673,4.535,17.008,2.486,25.679-1.891h0c-2.858-.594-3.635-.814-3.635-.814a16.1,16.1,0,0,1-3.673-1.454,12.472,12.472,0,0,1-4.036-3.733l.03-4.12Z" transform="translate(2297.563 -1430.756)" fill="url(#linear-gradient-34)"/>
      <path id="Trazado_162905" data-name="Trazado 162905" d="M-2219.4,1445.031a4.119,4.119,0,0,0,4.6,1.434c2.513-.917,1.013-7.41-.98-8.151a3.527,3.527,0,0,0-2.7.374,3.911,3.911,0,0,0-1.229,4.4c-.634-.185-1.194-.018-1.333.3-.178.4.359.941.482,1.064A2.132,2.132,0,0,0-2219.4,1445.031Z" transform="translate(2302.307 -1432.913)" fill="url(#linear-gradient-35)"/>
      <path id="Trazado_162906" data-name="Trazado 162906" d="M-2211.746,1482.118c5.3-1.493,9.691,2.215,13.913-.72,4.324-3.007,1.5-8.143,6-13.192,4.806-5.4,10.9-2.755,15.352-7.675,1.651-1.827,3.136-4.806,3.159-9.88,1.116-.108,2.183-.194,3.191-.254a2.7,2.7,0,0,1,2.812,3.234l-6.617,32.948a2.7,2.7,0,0,1-2.082,2.11l-47.408,10.174C-2220.081,1487.12-2215.614,1483.209-2211.746,1482.118Z" transform="translate(2299.846 -1420.085)" opacity="0.3" fill="url(#linear-gradient-36)" style="mix-blend-mode: multiply;isolation: isolate"/>
      <path id="Trazado_162907" data-name="Trazado 162907" d="M-2195.962,1467.314s3.146-2.908,3.489-6.286a6.522,6.522,0,0,0-4.332-6.773c-2.3-.689-3.53.328-1.985,3.655S-2194.8,1463.4-2195.962,1467.314Z" transform="translate(2325.019 -1416.24)" fill="url(#linear-gradient-37)"/>
    </g>
  </g>
</svg>
