<svg xmlns="http://www.w3.org/2000/svg" width="274.672" height="229.203" viewBox="0 0 274.672 229.203">
  <g id="Grupo_101200" data-name="Grupo 101200" transform="translate(-88.085 278.876)">
    <path id="Trazado_162387" data-name="Trazado 162387" d="M99.7-81.335H95.272V-85.76H92.51v4.425H88.085v2.761H92.51v4.425h2.761v-4.427H99.7Z" transform="translate(0 -16.064)" fill="#30c9cc"/>
    <path id="Trazado_162388" data-name="Trazado 162388" d="M104.649-90.063a2.736,2.736,0,0,1-2.736,2.735,2.734,2.734,0,0,1-2.735-2.735A2.734,2.734,0,0,1,101.91-92.8h0a2.736,2.736,0,0,1,2.736,2.736Z" transform="translate(-0.923 -15.479)" fill="#3de3ff"/>
    <rect id="Rectángulo_24451" data-name="Rectángulo 24451" width="238.484" height="191.168" rx="18.482" transform="translate(108.797 -261.297)" fill="#30c9cc"/>
    <rect id="Rectángulo_24452" data-name="Rectángulo 24452" width="224.069" height="177.552" rx="12.013" transform="translate(116.005 -254.489)" fill="#0b899b"/>
    <rect id="Rectángulo_24453" data-name="Rectángulo 24453" width="212.323" height="167.285" rx="7.76" transform="translate(121.877 -249.355)" fill="#c6fbff"/>
    <path id="Trazado_162389" data-name="Trazado 162389" d="M95.06-64.618a27.294,27.294,0,0,0,23.308,13.187h220.5A27.3,27.3,0,0,0,362.18-64.618Z" transform="translate(-0.58 -17.823)" fill="#0b899b"/>
    <path id="Trazado_162390" data-name="Trazado 162390" d="M97.911-60.748H359.327a27.632,27.632,0,0,0,2.851-3.87H95.06A27.434,27.434,0,0,0,97.911-60.748Z" transform="translate(-0.58 -17.823)" fill="#30c9cc"/>
    <rect id="Rectángulo_24454" data-name="Rectángulo 24454" width="59.366" height="33.223" transform="translate(138.57 -149.919)" fill="#db5a28"/>
    <g id="Grupo_101200-2" data-name="Grupo 101200-2" transform="translate(136.632 -234.962)">
      <rect id="Rectángulo_24455" data-name="Rectángulo 24455" width="22.333" height="3.077" transform="translate(60.006)" fill="#30c9cc"/>
      <rect id="Rectángulo_24456" data-name="Rectángulo 24456" width="13.633" height="3.077" transform="translate(31.129)" fill="#30c9cc"/>
      <rect id="Rectángulo_24457" data-name="Rectángulo 24457" width="27.01" height="3.077" fill="#30c9cc"/>
      <rect id="Rectángulo_24458" data-name="Rectángulo 24458" width="5.858" height="3.077" transform="translate(49.031)" fill="#30c9cc"/>
      <rect id="Rectángulo_24459" data-name="Rectángulo 24459" width="13.586" height="3.077" transform="translate(88.021)" fill="#30c9cc"/>
    </g>
    <g id="Grupo_101201" data-name="Grupo 101201" transform="translate(136.632 -225.976)">
      <rect id="Rectángulo_24460" data-name="Rectángulo 24460" width="8.378" height="3.076" transform="translate(60.006)" fill="#30c9cc"/>
      <rect id="Rectángulo_24461" data-name="Rectángulo 24461" width="8.378" height="3.076" transform="translate(71.716)" fill="#30c9cc"/>
      <rect id="Rectángulo_24462" data-name="Rectángulo 24462" width="13.633" height="3.076" transform="translate(17.242)" fill="#30c9cc"/>
      <rect id="Rectángulo_24463" data-name="Rectángulo 24463" width="13.375" height="3.076" fill="#30c9cc"/>
      <rect id="Rectángulo_24464" data-name="Rectángulo 24464" width="22.451" height="3.076" transform="translate(34.616)" fill="#30c9cc"/>
    </g>
    <g id="Grupo_101204" data-name="Grupo 101204" transform="translate(129.117 -149.465)">
      <path id="Trazado_162391" data-name="Trazado 162391" d="M180.557-38.667c-1.412-4.53-4.152-23.7-4.767-31.207-.129-1.591-17.6-8.415-17.6-8.415-10.226-.259-15.489,3.752-15.489,3.752l24.555,8.294c0,11.074,9.443,27.779,9.443,27.779Z" transform="translate(-133.66 132.78)" fill="#2f2f8e"/>
      <path id="Trazado_162392" data-name="Trazado 162392" d="M159.109-64.167l-7.292,25.4,4.165.908c1.816-5.991,12.311-26.52,12.6-28.961.121-1.041.047-1.844-.342-2.169s-12.161-7.361-15.579-8.129c-4.579-1.029-11.379-2.677-11.379-2.677a13.708,13.708,0,0,0-3.086,10.53C138.937-62.752,159.109-64.167,159.109-64.167Z" transform="translate(-133.276 132.905)" fill="#4c49a2"/>
      <path id="Trazado_162393" data-name="Trazado 162393" d="M149.5-111.456s-7.992.709-8.355,2.887S144.961-92.6,144.961-92.6L140.9-81.768s11.526,2.837,17.144.721c.534.245,1.441-11.374,1.441-11.374l2-5.709,2.538,8.618,5.81,8.17,3.812-3.087-4.233-7.441s-6.553-14.954-8.294-16.694C157.851-111.837,149.5-111.456,149.5-111.456Z" transform="translate(-133.511 135.539)" fill="#fff"/>
      <path id="Trazado_162394" data-name="Trazado 162394" d="M156.577-111.57l-.62-8.217h-5.99v7.676c-.759.085.817,6.212,5.644,6.212C155.61-105.9,157.864-106.72,156.577-111.57Z" transform="translate(-134.25 136.231)" fill="#e67750"/>
      <path id="Trazado_162395" data-name="Trazado 162395" d="M143.694-95.643c.7,2.475,1.267,4.357,1.267,4.357L140.9-80.451s8.77,2.157,14.739,1.3c-.534-.391-7.61-5.159-7.955-7.243C146.956-90.742,143.694-95.643,143.694-95.643Z" transform="translate(-133.511 134.223)" fill="#efefef"/>
      <path id="Trazado_162396" data-name="Trazado 162396" d="M161.6-129.052c-.506-2.1-3.788-2.713-8.977-2.1-3.528.414-4.321,3.662-4.42,6.076-.053.013-.105.019-.159.036a2.867,2.867,0,0,0-2.017,2.842,2.79,2.79,0,0,0,.7,1.748,2.931,2.931,0,0,0,2.134,1.362,2.768,2.768,0,0,0,.733-.016c1.467,3.058,4.164,6.868,7.945,6.413C163.085-116.568,161.6-129.052,161.6-129.052Z" transform="translate(-133.937 137.195)" fill="#fd9e71"/>
      <path id="Trazado_162397" data-name="Trazado 162397" d="M149.726-123.73a4.019,4.019,0,0,1,1.438-4.689c2.585-1.941,2.76.924,5.484,1.275s5.415.129,5.122,1.931c1.65-4.07-.733-6.4-3.4-7.672s-6.841-1.826-9.742.594-2.508,8.233-2.508,8.233C148.03-124.982,148.544-124.233,149.726-123.73Z" transform="translate(-133.943 137.411)" fill="#201251"/>
      <path id="Trazado_162398" data-name="Trazado 162398" d="M147.525-132.6s-2.408-6.467-6.968-4.866-2.5,10.793-3.008,14.793-3.368,4.174-4.4,2.4c-1.906,3.625,5.566,7.31,8,3.825s1.031-12.313,2.587-13.214a3.027,3.027,0,0,1,3.123.27Z" transform="translate(-132.84 137.723)" fill="#201251"/>
      <path id="Trazado_162399" data-name="Trazado 162399" d="M140.875-109.15c-1.92,1.108-5.447,14.332-5.447,16.511s17.007,13.025,17.007,13.025.785-2.677,2.6-3.222c-.367-.183-12.708-11.983-12.708-11.983l3.268-9.249S145.595-111.873,140.875-109.15Z" transform="translate(-133.056 135.394)" fill="#fff"/>
      <path id="Trazado_162400" data-name="Trazado 162400" d="M152.56-75.112l17.335-.532,11.256,4.175L162.1-70.46Z" transform="translate(-134.481 132.559)" fill="#30c9cc"/>
      <path id="Trazado_162401" data-name="Trazado 162401" d="M162.1-70.409,152.562-74.1v-.961l10.291,3.712Z" transform="translate(-134.481 132.511)" fill="#0b899b"/>
      <path id="Trazado_162402" data-name="Trazado 162402" d="M162.962-71.406l5.73-15.644,18.952,1.017-5.628,13.98Z" transform="translate(-135.346 133.508)" fill="#0b899b"/>
      <path id="Trazado_162403" data-name="Trazado 162403" d="M175.628-79.634c-.564,1.127-.393,2.354.38,2.741s1.857-.213,2.421-1.339.393-2.353-.38-2.741S176.192-80.761,175.628-79.634Z" transform="translate(-136.372 133.012)" fill="#30c9cc"/>
      <path id="Trazado_162404" data-name="Trazado 162404" d="M156.578-80.4s6.9,5.446,6.173,5.809a8.569,8.569,0,0,1-5.447-.545c-1.634-.908-3.326-2.043-3.326-2.043S154.581-80.214,156.578-80.4Z" transform="translate(-134.599 132.954)" fill="#fd9e71"/>
      <g id="Grupo_101202" data-name="Grupo 101202" transform="translate(16.738 93.678)">
        <path id="Trazado_162405" data-name="Trazado 162405" d="M157.247-35.454c1.225,1.24,5.391,3.123,7.444,3.631,2.2.546,1.815,2.393.207,2.393-3.158,0-10.177-.4-13.641-.4-.545-1.634.393-3.818,1.5-5.291C153.087-35.566,157.071-35.631,157.247-35.454Z" transform="translate(-151.097 35.545)" fill="#201251"/>
      </g>
      <g id="Grupo_101203" data-name="Grupo 101203" transform="translate(41.609 93.678)">
        <path id="Trazado_162406" data-name="Trazado 162406" d="M184.375-35.454c1.225,1.24,5.391,3.123,7.444,3.631,2.2.546,1.815,2.393.207,2.393-3.158,0-10.177-.4-13.642-.4-.545-1.634.394-3.818,1.5-5.291C180.214-35.566,184.2-35.631,184.375-35.454Z" transform="translate(-178.224 35.545)" fill="#201251"/>
      </g>
    </g>
    <g id="Grupo_101205" data-name="Grupo 101205" transform="translate(138.891 -162.832)">
      <rect id="Rectángulo_24465" data-name="Rectángulo 24465" width="16.648" height="4.587" fill="#31b5d0"/>
      <rect id="Rectángulo_24466" data-name="Rectángulo 24466" width="16.648" height="4.587" transform="translate(42.397)" fill="#31b5d0"/>
      <rect id="Rectángulo_24467" data-name="Rectángulo 24467" width="16.648" height="4.587" transform="translate(21.199)" fill="#31b5d0"/>
    </g>
    <g id="Grupo_101206" data-name="Grupo 101206" transform="translate(194.824 -251.306)">
      <rect id="Rectángulo_24468" data-name="Rectángulo 24468" width="54.314" height="20.233" transform="matrix(0.971, -0.238, 0.238, 0.971, 0, 12.935)" fill="#feba40"/>
      <rect id="Rectángulo_24469" data-name="Rectángulo 24469" width="40.006" height="2.797" transform="matrix(0.971, -0.238, 0.238, 0.971, 3.441, 14.916)" fill="#fedb9b"/>
      <rect id="Rectángulo_24470" data-name="Rectángulo 24470" width="33.429" height="2.797" transform="matrix(0.971, -0.238, 0.238, 0.971, 4.624, 19.745)" fill="#fedb9b"/>
      <rect id="Rectángulo_24471" data-name="Rectángulo 24471" width="15.857" height="2.796" transform="translate(5.922 25.035) rotate(-13.772)" fill="#fedb9b"/>
      <rect id="Rectángulo_24472" data-name="Rectángulo 24472" width="8.495" height="2.796" transform="matrix(0.971, -0.238, 0.238, 0.971, 38.71, 11.462)" fill="#fff"/>
    </g>
    <rect id="Rectángulo_24473" data-name="Rectángulo 24473" width="59.246" height="48.345" transform="translate(138.264 -216.235)" fill="#fff"/>
    <g id="Grupo_101207" data-name="Grupo 101207" transform="translate(201.946 -188.351)">
      <rect id="Rectángulo_24474" data-name="Rectángulo 24474" width="116.515" height="21.803" transform="translate(0)" fill="#4cd9dd"/>
      <rect id="Rectángulo_24475" data-name="Rectángulo 24475" width="31.531" height="15.492" transform="translate(81.498 3.156)" fill="#fff"/>
      <rect id="Rectángulo_24476" data-name="Rectángulo 24476" width="72.88" height="2.988" transform="translate(4.261 4.095)" fill="#75ecef"/>
      <rect id="Rectángulo_24477" data-name="Rectángulo 24477" width="72.88" height="2.988" transform="translate(4.261 9.407)" fill="#75ecef"/>
      <rect id="Rectángulo_24478" data-name="Rectángulo 24478" width="49.066" height="2.988" transform="translate(4.261 14.72)" fill="#75ecef"/>
    </g>
    <g id="Grupo_101211" data-name="Grupo 101211" transform="translate(201.972 -150.974)">
      <g id="Grupo_101208" data-name="Grupo 101208" transform="translate(0 0)">
        <rect id="Rectángulo_24479" data-name="Rectángulo 24479" width="111.971" height="52.537" fill="#fff"/>
        <rect id="Rectángulo_24480" data-name="Rectángulo 24480" width="111.971" height="8.711" fill="#fdbe44"/>
        <rect id="Rectángulo_24481" data-name="Rectángulo 24481" width="64.656" height="4.435" transform="translate(2.717 21.097)" fill="#98e5df"/>
        <rect id="Rectángulo_24482" data-name="Rectángulo 24482" width="57.982" height="4.435" transform="translate(2.717 28.981)" fill="#98e5df"/>
        <rect id="Rectángulo_24483" data-name="Rectángulo 24483" width="39.106" height="4.435" transform="translate(2.717 36.864)" fill="#98e5df"/>
        <rect id="Rectángulo_24484" data-name="Rectángulo 24484" width="23.305" height="4.435" transform="translate(2.717 13.834)" fill="#98e5df"/>
      </g>
      <g id="Grupo_101209" data-name="Grupo 101209" transform="translate(73.67 13.617)">
        <rect id="Rectángulo_24485" data-name="Rectángulo 24485" width="33.819" height="33.819" fill="#86e7e8"/>
        <path id="Trazado_162407" data-name="Trazado 162407" d="M313.638-107.172a4.276,4.276,0,0,0,.85-2.56v-2.584a4.309,4.309,0,0,0-4.309-4.309,4.309,4.309,0,0,0-4.309,4.309v2.584a4.276,4.276,0,0,0,.931,2.671,10.158,10.158,0,0,0-6.784,9.583h21.3S320.5-105.183,313.638-107.172Z" transform="translate(-293.272 123.859)" fill="#f6fffa"/>
      </g>
      <g id="Grupo_101210" data-name="Grupo 101210" transform="translate(3.588 2.376)">
        <circle id="Elipse_5309" data-name="Elipse 5309" cx="2.198" cy="2.198" r="2.198" fill="#db5a28"/>
        <circle id="Elipse_5310" data-name="Elipse 5310" cx="2.198" cy="2.198" r="2.198" transform="translate(7.042)" fill="#ffe780"/>
        <circle id="Elipse_5311" data-name="Elipse 5311" cx="2.198" cy="2.198" r="2.198" transform="translate(15.212)" fill="#1fa4b2"/>
      </g>
    </g>
    <rect id="Rectángulo_24486" data-name="Rectángulo 24486" width="39.214" height="39.214" transform="translate(275.819 -237.061)" fill="#db5a28"/>
    <g id="Grupo_101214" data-name="Grupo 101214" transform="translate(304.918 -197.574)">
      <path id="Trazado_162408" data-name="Trazado 162408" d="M351.728-43.278s.338,1.031-2.825,2.475-6.5.933-7.323,2.145a6.628,6.628,0,0,0-1.009,2.362h18s-.137-4.97-2.175-7.176C356.654-43,351.728-43.278,351.728-43.278Z" transform="translate(-325.921 177.991)" fill="#9e472d"/>
      <path id="Trazado_162409" data-name="Trazado 162409" d="M373.148-43.285s.325.992-2.717,2.384-6.253.9-7.04,2.063a6.4,6.4,0,0,0-.972,2.27h17.306s-.131-4.778-2.091-6.9C377.884-43.015,373.148-43.285,373.148-43.285Z" transform="translate(-327.739 177.991)" fill="#9e472d"/>
      <g id="Grupo_101212" data-name="Grupo 101212" transform="translate(0 21.546)">
        <path id="Trazado_162410" data-name="Trazado 162410" d="M346.851-148.171l-13.068,2.3-9.191-19.674,14.072-1.149Z" transform="translate(-324.592 166.696)" fill="#fff"/>
      </g>
      <g id="Grupo_101213" data-name="Grupo 101213" transform="translate(5.916 38.082)">
        <path id="Trazado_162411" data-name="Trazado 162411" d="M331.073-148.66h.01C331.038-148.641,331.031-148.639,331.073-148.66Z" transform="translate(-331.045 148.66)" fill="#262845"/>
      </g>
      <path id="Trazado_162412" data-name="Trazado 162412" d="M358.583-186.878a17.453,17.453,0,0,0-1.724,6.607c0,2.208.281,5.4.45,7.119a.993.993,0,0,0,1.083.894,1.014,1.014,0,0,0,.2-.04l2.578-.793-.144,3.734,7.191-.125,1.57-15.1S363.753-191.186,358.583-186.878Z" transform="translate(-327.276 190.042)" fill="#fd9e71"/>
      <path id="Trazado_162413" data-name="Trazado 162413" d="M359.092-179.106s.4-2.99,2.659-2.371-.329,3.635-.329,3.635l2.154,3.877a6.618,6.618,0,0,0,5.027-.143S371-181.385,371-183.682a5.4,5.4,0,0,0-2.094-3.851s-5.613-2.8-8.628-2.659a3.5,3.5,0,0,0-3.3,3.159s-1.149,2.3,0,3.3S359.092-179.106,359.092-179.106Z" transform="translate(-327.243 190.197)" fill="#201251"/>
      <path id="Trazado_162414" data-name="Trazado 162414" d="M368.9-170.039l-.325,2.077-7.426.028S362.575-170.231,368.9-170.039Z" transform="translate(-327.633 188.521)" fill="#6ac8cc"/>
      <path id="Trazado_162415" data-name="Trazado 162415" d="M334.405-150.341s.521-1.628-1.58-2.584a6.061,6.061,0,0,0-.861-2.728c-.442-.44-.719,2.011-.719,2.011s-2.056-3.662-2.585-2.728,4.644,8.138,4.787,8.425S334.405-150.341,334.405-150.341Z" transform="translate(-324.927 187.396)" fill="#fd9e71"/>
      <path id="Trazado_162416" data-name="Trazado 162416" d="M355.572-124.012l-4.978,42.125L351.6-49.235l6.266-.447s1.771-17.175,1.915-21.483a62.111,62.111,0,0,0-1.149-10.91l6.319-26.038,1.05.192.291,25.658,5.756,32.588,5.267.254s.13-16.806-.3-20.97a113.271,113.271,0,0,0-2.681-12.494l2.3-26.567a20.506,20.506,0,0,0-1.819-14.84C374.289-124.252,355.572-124.012,355.572-124.012Z" transform="translate(-326.755 184.715)" fill="#201251"/>
      <path id="Trazado_162417" data-name="Trazado 162417" d="M358.778-167.744s-8.9,2.872-10.531,4.5-6.295,18.4-6.295,18.4l-7.034-7.048-2.181,5.112s8.234,12.255,10.818,12.637,8.426-15.509,8.426-15.509a110.039,110.039,0,0,0,1.531,13.019,27.158,27.158,0,0,1,.575,9c7.967,1.447,14.743,1.149,19.243-.287l2.23-16.725s3.036.354,3.994-.7-3.446-18.382-4.4-19.723-8.941-2.709-8.941-2.709Z" transform="translate(-325.27 188.332)" fill="#96e8ea"/>
      <path id="Trazado_162418" data-name="Trazado 162418" d="M370.442-155.218c-.048-.34-.609-.258-.6.081a109.061,109.061,0,0,1-1.107,21.341c-.075.478.635.7.743.2A62.122,62.122,0,0,0,370.442-155.218Z" transform="translate(-328.264 187.305)" fill="#6ac8cc"/>
      <path id="Trazado_162419" data-name="Trazado 162419" d="M379.237-149.4c-.049-.24-.413-.177-.418.057a71.379,71.379,0,0,1-1.394,12.356,43.755,43.755,0,0,0-1.119,11.093c.033.524.845.533.825,0-.183-4.334.7-8.518,1.488-12.754C379.276-142.16,379.952-145.837,379.237-149.4Z" transform="translate(-328.892 186.816)" fill="#6ac8cc"/>
      <path id="Trazado_162420" data-name="Trazado 162420" d="M353.753-149.527c-2.391,1.519-3.289,4.492-4.2,7.024-1.239,3.423-2.475,6.784-5.172,9.352-.4.382.2.973.606.606,4.977-4.481,4.741-11.807,8.985-16.7C354.1-149.389,353.934-149.64,353.753-149.527Z" transform="translate(-326.227 186.816)" fill="#6ac8cc"/>
      <path id="Trazado_162421" data-name="Trazado 162421" d="M375.363-125.727s-12.063,1.532-19.339-.766c.192,0,0,2.3,0,2.3a36.547,36.547,0,0,0,19.913.766C375.853-123.463,375.363-125.727,375.363-125.727Z" transform="translate(-327.207 184.898)" fill="#9e472d"/>
    </g>
    <g id="Grupo_101215" data-name="Grupo 101215" transform="translate(208.164 -237.152)">
      <path id="Trazado_162422" data-name="Trazado 162422" d="M240.025-72.179s-1,2.179-2.723,2.542-6.264,1.361-6.99,2a3.643,3.643,0,0,0-.726,2.269H244A25.892,25.892,0,0,0,243.135-72C243.475-72,240.025-72.179,240.025-72.179Z" transform="translate(-219.935 219.958)" fill="#1a133a"/>
      <path id="Trazado_162423" data-name="Trazado 162423" d="M270.322-72.179s-1,2.179-2.723,2.542-6.264,1.361-6.99,2a3.643,3.643,0,0,0-.726,2.269h14.406A25.921,25.921,0,0,0,273.427-72C273.771-72,270.322-72.179,270.322-72.179Z" transform="translate(-222.455 219.958)" fill="#1a133a"/>
      <path id="Trazado_162424" data-name="Trazado 162424" d="M268.956-227.175s-4.013-1.024-4.256-.385,6.2,2.545,6.2,2.545l5.8,16.093-2.173,5.149,3.995,4.357s4.357-5.9,4.72-7.625S272.9-226.1,272.9-226.1s-2.126-6.755-2.451-7.08-4.162-.121-5.031-.106,2.529,3.455,2.529,3.455Z" transform="translate(-222.855 233.366)" fill="#e79673"/>
      <path id="Trazado_162425" data-name="Trazado 162425" d="M252.091-213.875a14.713,14.713,0,0,0-2.32,5.543,18.625,18.625,0,0,0,.137,5.582l3.509-.116v3.283h6.975a36.4,36.4,0,0,1,.409-3.851,15.538,15.538,0,0,1,2.177-3.949l-3.132-8.85-4.492-.409Z" transform="translate(-221.602 231.975)" fill="#e79673"/>
      <path id="Trazado_162426" data-name="Trazado 162426" d="M254.052-210.01s1.226-2.86,2.724-1.769-.409,3.4-.409,3.4.953,3.949,2.587,4.492l1.634.545a59.608,59.608,0,0,0,4.9-5.042c.68-1.089-1.09-7.352-2.315-8.71s-6.536-1.226-6.944-1.907-1.77-1.906-3.132-1.361-1.089,5.038-1.089,5.038,1.683,1.449,1.794,2.495a5.14,5.14,0,0,1-.667,2.43Z" transform="translate(-221.798 232.296)" fill="#201251"/>
      <path id="Trazado_162427" data-name="Trazado 162427" d="M246.045-198.17S253-199.186,257-199.277s10.348,2,10.348,2l4.624-4.951,5.891,5.537s-5.014,7.4-6.629,9.126-2.8,9.81-3.159,12.256-1.271,16.793-1.271,16.793-4.267,5.083-21.785-.458c-.183-.183.726-10.53.635-13.072s-2.362-11.165-2.816-13.253-7.69-6.266-7.69-6.266-.894-5.086,2.445-7.534C238.028-198.823,246.045-198.17,246.045-198.17Z" transform="translate(-220.389 230.776)" fill="#201251"/>
      <path id="Trazado_162428" data-name="Trazado 162428" d="M228.529-221.13s-2.632,2.451-2.814,3.449,3.621,12.372,3.621,12.372l6.927,4.055-2.445,7.534s-7.558-5.263-8.647-6.806-3-16.975-3-16.975-2.451-3.086-2.632-3.9-.753-3.489-.331-4.014,3.231-3.432,3.642-2.567,1.925,7.151,1.925,7.151S227.893-222.219,228.529-221.13Z" transform="translate(-219.059 232.932)" fill="#e79673"/>
      <path id="Trazado_162429" data-name="Trazado 162429" d="M245.379-155.076l-3.949,37.217-2.043,39.486,6.808.275s4.217-26.2,4.289-30.188-.068-8.754-.068-8.754l4.357-19.879h2.451l5.038,25.87,5.174,32.133,5.446.275s.817-20.015,0-24.1-2.042-8.034-2.042-8.034L268.39-137.6s2.179-9.535-1.225-17.02C266.484-155.983,245.379-155.076,245.379-155.076Z" transform="translate(-220.75 226.878)" fill="#4c49a2"/>
    </g>
    <path id="Trazado_162430" data-name="Trazado 162430" d="M199.5-201.626h-4.425v-4.425h-2.761v4.425h-4.425v2.761h4.425v4.425h2.761v-4.425H199.5Z" transform="translate(-8.302 -6.058)" fill="#fdbe44"/>
    <path id="Trazado_162431" data-name="Trazado 162431" d="M155-165.238a6.926,6.926,0,0,1-6.92-6.919,6.928,6.928,0,0,1,6.92-6.918,6.927,6.927,0,0,1,6.918,6.918A6.927,6.927,0,0,1,155-165.238Zm0-10.227a3.312,3.312,0,0,0-3.309,3.308A3.312,3.312,0,0,0,155-168.848a3.314,3.314,0,0,0,3.308-3.309A3.313,3.313,0,0,0,155-175.465Z" transform="translate(-4.991 -8.302)" fill="#30c9cc"/>
    <path id="Trazado_162432" data-name="Trazado 162432" d="M386.625-233.71H382.2v-4.425h-2.761v4.425h-4.425v2.761h4.425v4.425H382.2v-4.425h4.425Z" transform="translate(-23.868 -3.389)" fill="#30c9cc"/>
    <path id="Trazado_162433" data-name="Trazado 162433" d="M363.063-266.5a2.737,2.737,0,0,1-2.736,2.736,2.735,2.735,0,0,1-2.735-2.736,2.735,2.735,0,0,1,2.734-2.736h0A2.736,2.736,0,0,1,363.063-266.5Z" transform="translate(-22.419 -0.802)" fill="#3de3ff"/>
    <path id="Trazado_162434" data-name="Trazado 162434" d="M304.7-215.138a6.927,6.927,0,0,1-6.92-6.918,6.928,6.928,0,0,1,6.92-6.918,6.927,6.927,0,0,1,6.918,6.918A6.926,6.926,0,0,1,304.7-215.138Zm0-10.226a3.311,3.311,0,0,0-3.309,3.308,3.311,3.311,0,0,0,3.309,3.308,3.313,3.313,0,0,0,3.308-3.308A3.313,3.313,0,0,0,304.7-225.365Z" transform="translate(-17.444 -4.151)" fill="#feba40"/>
    <path id="Trazado_162435" data-name="Trazado 162435" d="M344.8-265.039a6.927,6.927,0,0,1-6.92-6.918,6.928,6.928,0,0,1,6.92-6.918,6.927,6.927,0,0,1,6.918,6.918A6.926,6.926,0,0,1,344.8-265.039Zm0-10.226a3.312,3.312,0,0,0-3.31,3.308,3.312,3.312,0,0,0,3.31,3.308,3.313,3.313,0,0,0,3.308-3.308A3.313,3.313,0,0,0,344.8-275.266Z" transform="translate(-20.779)" fill="#feba40"/>
  </g>
</svg>
