<svg xmlns="http://www.w3.org/2000/svg" xmlns:xlink="http://www.w3.org/1999/xlink" width="412.847" height="410.21" viewBox="0 0 412.847 410.21">
  <defs>
    <linearGradient id="linear-gradient" x1="0.394" y1="0.009" x2="0.609" y2="0.999" gradientUnits="objectBoundingBox">
      <stop offset="0" stop-color="#2292ff"/>
      <stop offset="1" stop-color="#6fe9fb"/>
    </linearGradient>
    <linearGradient id="linear-gradient-2" x1="-33.532" y1="5.026" x2="-32.319" y2="5.026" gradientUnits="objectBoundingBox">
      <stop offset="0.004" stop-color="#2a88e3"/>
      <stop offset="1" stop-color="#71d1f6"/>
    </linearGradient>
    <linearGradient id="linear-gradient-3" x1="0.896" y1="1.084" x2="0.741" y2="0.837" gradientUnits="objectBoundingBox">
      <stop offset="0" stop-color="#311944"/>
      <stop offset="1" stop-color="#893976"/>
    </linearGradient>
    <linearGradient id="linear-gradient-4" x1="0.44" y1="0.652" x2="0.712" y2="-0.121" xlink:href="#linear-gradient-3"/>
    <linearGradient id="linear-gradient-5" x1="0.5" y1="0.42" x2="0.497" y2="1.113" xlink:href="#linear-gradient-3"/>
    <linearGradient id="linear-gradient-6" y1="0.5" x2="1" y2="0.5" gradientUnits="objectBoundingBox">
      <stop offset="0" stop-color="#ffc444"/>
      <stop offset="0.996" stop-color="#f36f56"/>
    </linearGradient>
    <linearGradient id="linear-gradient-7" y1="0.5" x2="1" y2="0.5" gradientUnits="objectBoundingBox">
      <stop offset="0" stop-color="#311944"/>
      <stop offset="1" stop-color="#6b3976"/>
    </linearGradient>
    <linearGradient id="linear-gradient-8" x1="-0.735" y1="3.029" x2="5.073" y2="-10.028" gradientUnits="objectBoundingBox">
      <stop offset="0" stop-color="#311944"/>
      <stop offset="1" stop-color="#a03976"/>
    </linearGradient>
    <linearGradient id="linear-gradient-10" x1="-0.735" y1="3.029" x2="5.073" y2="-10.027" xlink:href="#linear-gradient-8"/>
    <linearGradient id="linear-gradient-11" x1="0.272" y1="1.063" x2="0.465" y2="0.488" gradientUnits="objectBoundingBox">
      <stop offset="0" stop-color="#444b8c"/>
      <stop offset="0.996" stop-color="#3e4177"/>
    </linearGradient>
    <linearGradient id="linear-gradient-12" x1="0.017" y1="0.45" x2="0.664" y2="0.533" xlink:href="#linear-gradient-11"/>
    <linearGradient id="linear-gradient-15" x1="0.271" y1="-0.093" x2="0.827" y2="1.322" gradientUnits="objectBoundingBox">
      <stop offset="0" stop-color="#311944"/>
      <stop offset="0.216" stop-color="#49204e"/>
      <stop offset="0.31" stop-color="#532353"/>
      <stop offset="1" stop-color="#a03976"/>
    </linearGradient>
    <linearGradient id="linear-gradient-16" x1="-60.608" y1="15.907" x2="-61.415" y2="14.08" gradientUnits="objectBoundingBox">
      <stop offset="0" stop-color="#444b8c"/>
      <stop offset="0.996" stop-color="#26264f"/>
    </linearGradient>
    <linearGradient id="linear-gradient-17" x1="2.434" y1="-1.343" x2="-0.547" y2="1.306" xlink:href="#linear-gradient-15"/>
    <linearGradient id="linear-gradient-18" y1="0.5" x2="1" y2="0.5" gradientUnits="objectBoundingBox">
      <stop offset="0" stop-color="#2d9af9"/>
      <stop offset="0.996" stop-color="#619bd7"/>
    </linearGradient>
    <linearGradient id="linear-gradient-21" x1="0.515" y1="0.512" x2="0.394" y2="-0.716" xlink:href="#linear-gradient-18"/>
    <linearGradient id="linear-gradient-22" x1="0.847" y1="-0.031" x2="-0.07" y2="1.058" xlink:href="#linear-gradient-18"/>
    <linearGradient id="linear-gradient-23" x1="0.731" y1="0.517" x2="0.051" y2="0.386" xlink:href="#linear-gradient-18"/>
    <linearGradient id="linear-gradient-26" x1="0.558" y1="0.207" x2="0.234" y2="2.464" xlink:href="#linear-gradient-15"/>
    <linearGradient id="linear-gradient-27" x1="-0.164" y1="-0.988" x2="0.574" y2="0.666" xlink:href="#linear-gradient-6"/>
    <linearGradient id="linear-gradient-28" x1="0.306" y1="0.097" x2="1.026" y2="1.586" xlink:href="#linear-gradient-6"/>
    <linearGradient id="linear-gradient-29" x1="0.162" y1="-0.012" x2="1.216" y2="1.958" xlink:href="#linear-gradient-6"/>
    <linearGradient id="linear-gradient-30" x1="0.031" y1="-0.637" x2="0.745" y2="1.094" xlink:href="#linear-gradient-6"/>
    <linearGradient id="linear-gradient-31" x1="0.311" y1="0.078" x2="1.011" y2="1.639" xlink:href="#linear-gradient-6"/>
    <linearGradient id="linear-gradient-32" x1="0.172" y1="-0.017" x2="1.202" y2="1.997" xlink:href="#linear-gradient-6"/>
    <linearGradient id="linear-gradient-33" x1="0.963" y1="-0.162" x2="0.436" y2="0.737" gradientUnits="objectBoundingBox">
      <stop offset="0" stop-color="#1b79f9"/>
      <stop offset="0.996" stop-color="#3ea6d7"/>
    </linearGradient>
    <linearGradient id="linear-gradient-34" x1="0.909" y1="0.239" x2="-0.214" y2="1.175" gradientUnits="objectBoundingBox">
      <stop offset="0.004" stop-color="#435be3"/>
      <stop offset="1" stop-color="#71bcf6"/>
    </linearGradient>
  </defs>
  <g id="Chatbot_app_development" data-name="Chatbot app development" transform="translate(-1648.577 -1649.895)">
    <path id="Trazado_163697" data-name="Trazado 163697" d="M2011.752,2002.687a157.824,157.824,0,0,1-27.723,22.5c-71.8,47.94-153.87,34.123-179.245,29.4-40.939-7.62-75.5-13-105.189-39.82-67.468-60.955-64.186-188.112-12.632-266.88,6.112-9.339,57.588-85.643,139.838-96.4,2.012-.263,3.513-.412,4.828-.552,12.724-1.347,91.571-8.457,155.863,45.407a191.8,191.8,0,0,1,37.748,42.829C2075.458,1816.737,2075.617,1936.857,2011.752,2002.687Z" fill="#f4f7fa"/>
    <g id="Grupo_102231" data-name="Grupo 102231">
      <g id="Grupo_102216" data-name="Grupo 102216">
        <g id="Grupo_102215" data-name="Grupo 102215">
          <path id="Trazado_163698" data-name="Trazado 163698" d="M1833.218,1659.813l39.706,326.816c.6,4.915-2.686,9.256-7.3,9.645l-155.478,14.785c-9.262.417-14.353-4.664-14.953-9.734l-39.91-337.059c-.593-5.011,3.865-9.756,13.074-10.137l155.39-2.953C1828.367,1651.067,1832.627,1654.954,1833.218,1659.813Z" fill="#bfc8d6"/>
          <path id="Trazado_163699" data-name="Trazado 163699" d="M1840.363,1658.968l39.995,328.854c.6,4.946-2.7,9.313-7.347,9.7l-161.436,13.608a9.582,9.582,0,0,1-10.05-8.523l-40.2-339.165a8.141,8.141,0,0,1,7.872-9.377l161.627-3.793C1835.481,1650.168,1839.768,1654.078,1840.363,1658.968Z" fill="#d8dee8"/>
          <path id="Trazado_163700" data-name="Trazado 163700" d="M1837.319,1677.245l37.027,304.677a7.852,7.852,0,0,1-6.866,9.05l-151.806,12.61a8.937,8.937,0,0,1-9.358-7.951l-37.2-313.646a7.614,7.614,0,0,1,7.327-8.77l151.972-4.063C1832.759,1669.036,1836.764,1672.678,1837.319,1677.245Z" fill="url(#linear-gradient)"/>
        </g>
        <path id="Trazado_163701" data-name="Trazado 163701" d="M1755.338,1662.094a2.743,2.743,0,0,1-2.627,3.193,3.444,3.444,0,0,1-3.379-3.041,2.742,2.742,0,0,1,2.63-3.192A3.445,3.445,0,0,1,1755.338,1662.094Z" fill="#fff"/>
      </g>
      <g id="Grupo_102217" data-name="Grupo 102217" opacity="0.55">
        <path id="Trazado_163702" data-name="Trazado 163702" d="M1719.538,1821.653l-14.926.271-.963-7.321,14.921-.27Z" fill="#fff"/>
        <path id="Trazado_163703" data-name="Trazado 163703" d="M1803.368,1820.134l-74.18,1.344-.973-7.321,74.15-1.342Z" fill="#fff"/>
        <path id="Trazado_163704" data-name="Trazado 163704" d="M1745.787,1833.726l-14.935.271-.974-7.331,14.929-.271Z" fill="#fff"/>
        <path id="Trazado_163705" data-name="Trazado 163705" d="M1829.663,1832.2l-74.22,1.347-.984-7.33,74.191-1.345Z" fill="#fff"/>
        <path id="Trazado_163706" data-name="Trazado 163706" d="M1747.462,1846.261l-14.945.272-.975-7.341,14.939-.271Z" fill="#fff"/>
        <path id="Trazado_163707" data-name="Trazado 163707" d="M1831.4,1844.734l-74.27,1.351-.985-7.34,74.241-1.349Z" fill="#fff"/>
        <path id="Trazado_163708" data-name="Trazado 163708" d="M1724.515,1859.261l-14.957.272-.967-7.351,14.951-.272Z" fill="#fff"/>
        <path id="Trazado_163709" data-name="Trazado 163709" d="M1808.516,1857.731l-74.33,1.354-.977-7.351,74.3-1.352Z" fill="#fff"/>
        <path id="Trazado_163710" data-name="Trazado 163710" d="M1750.821,1871.381l-14.965.273-.978-7.361,14.959-.273Z" fill="#fff"/>
        <path id="Trazado_163711" data-name="Trazado 163711" d="M1834.867,1869.848,1760.5,1871.2l-.988-7.36,74.341-1.355Z" fill="#fff"/>
        <path id="Trazado_163712" data-name="Trazado 163712" d="M1752.5,1883.968l-14.975.274-.979-7.371,14.969-.273Z" fill="#fff"/>
        <path id="Trazado_163713" data-name="Trazado 163713" d="M1836.607,1882.43l-74.421,1.361-.989-7.37,74.392-1.359Z" fill="#fff"/>
      </g>
      <g id="Grupo_102258" data-name="Grupo 102258" transform="translate(-13 -80)" opacity="0.55">
        <path id="Trazado_163702-2" data-name="Trazado 163702" d="M1719.538,1821.653l-14.926.271-.963-7.321,14.921-.27Z" fill="#fff"/>
        <path id="Trazado_163703-2" data-name="Trazado 163703" d="M1803.368,1820.134l-74.18,1.344-.973-7.321,74.15-1.342Z" fill="#fff"/>
        <path id="Trazado_163704-2" data-name="Trazado 163704" d="M1745.787,1833.726l-14.935.271-.974-7.331,14.929-.271Z" fill="#fff"/>
        <path id="Trazado_163705-2" data-name="Trazado 163705" d="M1829.663,1832.2l-74.22,1.347-.984-7.33,74.191-1.345Z" fill="#fff"/>
        <path id="Trazado_163706-2" data-name="Trazado 163706" d="M1747.462,1846.261l-14.945.272-.975-7.341,14.939-.271Z" fill="#fff"/>
        <path id="Trazado_163708-2" data-name="Trazado 163708" d="M1724.515,1859.261l-14.957.272-.967-7.351,14.951-.272Z" fill="#fff"/>
        <path id="Trazado_163709-2" data-name="Trazado 163709" d="M1808.516,1857.731l-74.33,1.354-.977-7.351,74.3-1.352Z" fill="#fff"/>
        <path id="Trazado_163710-2" data-name="Trazado 163710" d="M1750.821,1871.381l-14.965.273-.978-7.361,14.959-.273Z" fill="#fff"/>
        <path id="Trazado_163711-2" data-name="Trazado 163711" d="M1834.867,1869.848,1760.5,1871.2l-.988-7.36,74.341-1.355Z" fill="#fff"/>
        <path id="Trazado_163712-2" data-name="Trazado 163712" d="M1752.5,1883.968l-14.975.274-.979-7.371,14.969-.273Z" fill="#fff"/>
        <path id="Trazado_163713-2" data-name="Trazado 163713" d="M1836.607,1882.43l-74.421,1.361-.989-7.37,74.392-1.359Z" fill="#fff"/>
      </g>
      <g id="Grupo_102259" data-name="Grupo 102259" transform="translate(-23 -160)" opacity="0.55">
        <path id="Trazado_163708-3" data-name="Trazado 163708" d="M1724.515,1859.261l-14.957.272-.967-7.351,14.951-.272Z" fill="#fff"/>
        <path id="Trazado_163709-3" data-name="Trazado 163709" d="M1808.516,1857.731l-74.33,1.354-.977-7.351,74.3-1.352Z" fill="#fff"/>
        <path id="Trazado_163710-3" data-name="Trazado 163710" d="M1750.821,1871.381l-14.965.273-.978-7.361,14.959-.273Z" fill="#fff"/>
        <path id="Trazado_163712-3" data-name="Trazado 163712" d="M1752.5,1883.968l-14.975.274-.979-7.371,14.969-.273Z" fill="#fff"/>
        <path id="Trazado_163713-3" data-name="Trazado 163713" d="M1836.607,1882.43l-74.421,1.361-.989-7.37,74.392-1.359Z" fill="#fff"/>
      </g>
    </g>
    <g id="Grupo_102234" data-name="Grupo 102234">
      <g id="Grupo_102232" data-name="Grupo 102232">
        <path id="Trazado_163724" data-name="Trazado 163724" d="M1961.382,1990.681c-8.221,7.268-32.74-4.76-47.406-19.509-5.674-5.706-11.317-11.382-13.324-20.457-3.386-15.315,7.9-20.807,5.618-33.719-3.371-19.065-30.326-20.36-31.872-37.346-1.137-12.5,13.088-15.753,12.476-30.066-.71-16.6-20.3-22.567-17.33-33.981,1.722-6.631,8.784-6.364,18.448-20.3,3.78-5.453,5.67-8.179,6.143-11.682,1.659-12.282-12.84-17.346-14.437-29.522-1.759-13.4,13.169-27.381,24.915-33.393,21.046-10.773,45.991-3.193,61.2,8.6,3.258,2.526,24.213,19.313,23.244,43.224-.7,17.387-12.731,31.864-14.681,34.212-7.6,9.148-11.781,8.844-12.478,13.7-2.015,14.032,32.456,19.883,37.881,44.239,2.215,9.944-.744,21.477-6.424,29.253-9.184,12.572-22.14,10.756-24.308,19.614-2.8,11.46,17.637,19.584,15.128,32.6-1.775,9.211-12.68,8.625-18.553,21.842C1960.409,1979.722,1966.25,1986.377,1961.382,1990.681Z" fill="#d8dee8"/>
        <path id="Trazado_163725" data-name="Trazado 163725" d="M1946.559,1977.995c4.042-3.081-4.76-13.521-7.932-37.666-3.464-26.368,4.58-32.586,1.824-56.755-3.148-27.592-14.255-24.947-15.913-47.281-2.247-30.27,17.923-38.266,15.734-74.256-.657-10.8-1.75-25.344-12.366-31.646-9.206-5.464-24.364-4.012-31.925,5.366-.317.392-6.551,8.379-4.529,18.3,2.481,12.166,14.5,13.068,15.541,23.338.546,5.379-2.873,10.338-9.71,20.256-9.833,14.263-14.484,14.219-14.983,19.882-1.127,12.794,22.2,17.833,22.308,31.832.092,12.019-17.046,15.449-16.478,26.37.686,13.18,25.942,13.793,31.036,30.9,4.386,14.728-11.844,22.644-8.917,40.092C1913.7,1967.326,1940.725,1982.441,1946.559,1977.995Z" fill="#d8dee8" opacity="0.3" style="mix-blend-mode: multiply;isolation: isolate"/>
      </g>
      <g id="Grupo_102233" data-name="Grupo 102233">
        <path id="Trazado_163726" data-name="Trazado 163726" d="M1970.751,2011.7c-6.775-.047-18.181-.126-28.639-7.506-19.011-13.417-22.543-42.255-18.061-62.6,3.85-17.473,16.322-31.784,41.266-60.407,23.491-26.957,32.746-32,31.887-43.95-1.225-17.033-21.272-24.011-19.722-44.095.186-2.41.826-10.687,6.785-15.5,10.2-8.241,28.836-.549,38.53,6.328,9.351,6.634,21.357,20.292,19.674,34.719-1.22,10.452-8.589,12.428-7.6,21.415.992,9.043,8.752,9.77,16.158,22.936,2.959,5.259,8.9,15.816,6.8,27.042-2.706,14.515-16.392,17.007-15.692,28.2.505,8.088,7.816,9.431,10.28,18.236,3.244,11.593-5.472,23.39-12.857,33.11C2030.864,1981.079,2007.4,2011.96,1970.751,2011.7Z" fill="url(#linear-gradient-2)"/>
        <path id="Trazado_163727" data-name="Trazado 163727" d="M1990.173,1781.224c-4.822,6.416,19.656,19.835,22.983,47.1,3.579,29.333-19.512,56.8-30.183,69.492-18.206,21.656-28.924,21.872-38.393,42.633-3.747,8.216-11.554,25.334-4.2,43.091.684,1.649,8.579,19.928,26.041,24.053,19.808,4.678,36.864-12.411,51.562-27.135,8.88-8.9,26.621-26.671,21.185-37.982-3.323-6.916-14.541-9.824-22.72-9.038-11.673,1.121-18.751,9.921-20.354,8.357-1.444-1.41,2.909-9.9,10.2-17.54,14.59-15.271,26.028-11.49,36.279-24.6,1.242-1.589,10.9-14.326,6.817-27.544-2.357-7.624-9.348-15.606-15.979-15.134-7.5.535-11.3,11.654-13.4,10.7-2.006-.914.252-11.636,4.031-21.906,5.552-15.091,9.763-16.633,10.783-25.365,1.557-13.322-6.574-24.022-7.765-25.544C2015.908,1780.6,1994.3,1775.739,1990.173,1781.224Z" fill="#fff" opacity="0.16" style="mix-blend-mode: screen;isolation: isolate"/>
      </g>
    </g>
    <g id="Grupo_102246" data-name="Grupo 102246">
      <g id="Grupo_102245" data-name="Grupo 102245">
        <g id="Grupo_102237" data-name="Grupo 102237">
          <ellipse id="Elipse_5358" data-name="Elipse 5358" cx="28.814" cy="11.76" rx="28.814" ry="11.76" transform="translate(1890.623 1995.387)" fill="#b7c0ce"/>
          <path id="Trazado_163728" data-name="Trazado 163728" d="M1948.251,2005.767c0,6.131-12.9,11.1-28.814,11.1s-28.814-4.97-28.814-11.1,12.9-16.162,28.814-16.162S1948.251,1999.637,1948.251,2005.767Z" fill="#fff"/>
          <path id="Trazado_163729" data-name="Trazado 163729" d="M1948.251,2005.767c0-6.13-12.9-16.162-28.814-16.162a39.1,39.1,0,0,0-19.139,5.047,4.189,4.189,0,0,0-.455,2.193c.331,3.449,5.957,5.57,9.186,6.269,8.132,1.761,12.1-3.1,18.808-2.916,4.146.114,9.89,2.2,16.7,11.017C1946.9,2009.6,1948.251,2007.748,1948.251,2005.767Z" fill="#d8dee8"/>
          <path id="Trazado_163730" data-name="Trazado 163730" d="M1921.015,1995.174a6.533,6.533,0,0,1-3.236.018,2.083,2.083,0,0,1-1.545-2.027v-32.49h6.407v32.452A2.123,2.123,0,0,1,1921.015,1995.174Z" fill="#fff"/>
          <g id="Grupo_102235" data-name="Grupo 102235">
            <path id="Trazado_163731" data-name="Trazado 163731" d="M1885.582,1947l9.789-6.187c.407-2.312,5.02-26.492,23.752-34.086,7.617-3.087,15.814-2.721,20.313-2.52,8.98.4,15.386.687,18.467,4.971,3.956,5.5-2.679,10.489-1.3,26.223.56,6.417,1.985,9.266.21,13.517-2.126,5.092-7.056,7.914-10.889,9.5a55.779,55.779,0,0,1-23.1,7.376,57.479,57.479,0,0,1-35.559-8.972,5.864,5.864,0,0,1-3.979-4.4A5.172,5.172,0,0,1,1885.582,1947Z" fill="url(#linear-gradient-3)"/>
            <path id="Trazado_163732" data-name="Trazado 163732" d="M1941.41,1905.5c6.641.2,10.769.119,13.052,3.085,2.4,3.113-.026,5.766-.475,16.849-.409,10.1,1.373,14.1-1.893,19.7a20.818,20.818,0,0,1-4.278,4.983c-9.257,7.553-33.139,7.461-43.19-8.307-8.019-12.58-4.676-31.123,4.746-37.259C1913.988,1901.545,1915.048,1904.72,1941.41,1905.5Z" fill="url(#linear-gradient-4)"/>
            <path id="Trazado_163733" data-name="Trazado 163733" d="M1884.87,1941.445l9.789-6.188s26.217-8.62,50.475,3.534a8.054,8.054,0,0,1,4.407,7.209,5.784,5.784,0,0,1-3.551,5.334,52.7,52.7,0,0,1-23.882,8.908c-18.1,1.984-31.576-6.307-35.559-8.972a5.864,5.864,0,0,1-3.979-4.405A5.171,5.171,0,0,1,1884.87,1941.445Z" fill="url(#linear-gradient-5)"/>
          </g>
          <g id="Grupo_102236" data-name="Grupo 102236">
            <path id="Trazado_163734" data-name="Trazado 163734" d="M1820.032,1906.7s41.714,13.094,40.671-34.955l23.107,6.835s2.241,55.778-55.341,35.236Z" fill="url(#linear-gradient-6)"/>
            <path id="Trazado_163735" data-name="Trazado 163735" d="M1881.672,2018.807h3.772c.933,1.505,1.969,3.646,1.139,5.021-.575.953-1.544.7-4.267,1.569-3.807,1.208-4.727,2.585-7.985,2.815-1.194.084-2.067.145-2.3-.28C1871.36,2026.712,1876.531,2022.56,1881.672,2018.807Z" fill="url(#linear-gradient-7)"/>
            <path id="Trazado_163736" data-name="Trazado 163736" d="M1882.255,2020.068c.319.13.635.271.944.382a1.616,1.616,0,0,0,2.141-1.538v-.107a13.028,13.028,0,0,1,.614-3.792l-4.162-.193a8.833,8.833,0,0,1-.087,4.113A.935.935,0,0,0,1882.255,2020.068Z" fill="url(#linear-gradient-8)"/>
            <path id="Trazado_163737" data-name="Trazado 163737" d="M1852.563,2008.685h3.772c.933,1.5,1.969,3.646,1.139,5.021-.576.953-1.544.7-4.267,1.569-3.807,1.208-4.727,2.585-7.985,2.815-1.2.084-2.067.146-2.3-.28C1842.251,2016.59,1847.422,2012.438,1852.563,2008.685Z" fill="url(#linear-gradient-7)"/>
            <path id="Trazado_163738" data-name="Trazado 163738" d="M1853.146,2009.946c.318.13.635.271.944.383a1.617,1.617,0,0,0,2.141-1.539v-.107a12.958,12.958,0,0,1,.614-3.792l-4.162-.193a8.832,8.832,0,0,1-.087,4.113A.934.934,0,0,0,1853.146,2009.946Z" fill="url(#linear-gradient-10)"/>
            <path id="Trazado_163739" data-name="Trazado 163739" d="M1852.6,2006.743a117.976,117.976,0,0,1-1.75-34.263c1.487-15.358,2.275-23.494,8.44-31.023,5.8-7.079,11.187-7.324,24.085-19.31a133.761,133.761,0,0,0,9.466-9.738c19.341-5.673,37.181-3.374,45.053,7a15.055,15.055,0,0,1,3.627,7.632c.994,8.649-7.505,19.062-17.041,21.237-12.12,2.763-19.151-9.681-29.89-5.541-3,1.158-5.55,4.029-10.643,9.769a81.137,81.137,0,0,0-11.5,16.737c-4.1,8.028-7.215,13.955-7.669,21.636a20.764,20.764,0,0,1-2.265,9.3,19.4,19.4,0,0,1-5.412,6.222Z" fill="url(#linear-gradient-11)"/>
            <path id="Trazado_163740" data-name="Trazado 163740" d="M1879.005,2014.293c1.168,2.179,3.465,3.467,8.456,2.625,7.05-8.008,9.38-15.115,10.206-20.121,1.784-10.811-2.7-16.37,1.458-25.078,2.7-5.666,7.259-8.884,11.07-11.577,9.186-6.49,13.045-3.961,20.9-9.936,2.946-2.243,10-7.612,10.948-16.461a20.911,20.911,0,0,0-4.14-14.337c-5.527-7.2-15.9-10.124-26.234-7.468a64.1,64.1,0,0,1-8.748,15.455c-5.891,7.668-9.724,8.981-15.746,16.622-2.814,3.569-7.618,9.663-10.153,18.28-1.473,5.009-1.664,9.118-.054,29.251C1877.468,1997.851,1878.133,2005.529,1879.005,2014.293Z" fill="url(#linear-gradient-12)"/>
            <path id="Trazado_163741" data-name="Trazado 163741" d="M1860.7,1871.744c.929-12.042,33.87-27.771,59.981-16.794,30.925,13,31.244,54.619,31.221,57.618-.1,12.855-4.3,27.462-9.027,27.786-3.461.237-3.659-7.438-10.8-11.627-7.643-4.486-13.473.757-31.42.231-8.168-.239-17.411-.51-19.537-5.248-2.144-4.782,5.364-8.751,6.167-16.471C1888.939,1891.374,1859.8,1883.405,1860.7,1871.744Z" fill="url(#linear-gradient-6)"/>
            <path id="Trazado_163742" data-name="Trazado 163742" d="M1946.176,1920.929a22.041,22.041,0,0,0-13.5-10.5c-8.274-1.97-11.949,3.411-17.994.9-7.425-3.084-4.54-12.306-12-16.8-6.36-3.829-12.541.419-20.731.1,3.481,3.69,5.833,7.782,5.332,12.606-.8,7.72-8.311,11.689-6.167,16.471,2.126,4.738,11.369,5.009,19.537,5.248,17.947.526,23.777-4.717,31.42-.231,7.139,4.189,7.337,11.864,10.8,11.627,1.991-.136,3.888-2.815,5.426-6.824A20.852,20.852,0,0,0,1946.176,1920.929Z" opacity="0.3" fill="url(#linear-gradient-6)" style="mix-blend-mode: multiply;isolation: isolate"/>
            <path id="Trazado_163743" data-name="Trazado 163743" d="M1879.853,1853.587l1.152.561a11.6,11.6,0,0,0,7.215.977l3.276-.612a.84.84,0,0,1,.871,1.269c-1.847,2.912-6.608,8.4-14.414,4Z" fill="url(#linear-gradient-15)"/>
            <path id="Trazado_163744" data-name="Trazado 163744" d="M1871.731,1853.66c-4.022-1.459-5.392-10.976-3.4-12.02,1.142-.6,2.182,2.24,6.418,3.33,3.3.849,5.4-.171,6.807,1.48a4.972,4.972,0,0,1,1.046,3.1,12.5,12.5,0,0,1-.523,2.776c-.336,1.3-.3,1.25-.41,1.633a17.454,17.454,0,0,1-2.186,4.622,12.212,12.212,0,0,0-1.248-1.7,10.73,10.73,0,0,0-2.048-1.808C1874.338,1853.881,1872.884,1854.079,1871.731,1853.66Z" fill="url(#linear-gradient-16)"/>
            <path id="Trazado_163745" data-name="Trazado 163745" d="M1881.363,1856.3a6.579,6.579,0,0,1-4.617,4.554c-3.353.841-6.2-6.37-4.6-8.607a4.358,4.358,0,0,1,3.107-1.459c.734-.027,1.051.179,2.249.111,1.1-.063,1.357-.269,1.748-.108.489.2,1.027.9,1.075,3.264a1.875,1.875,0,0,1,1.71-1.24,1.176,1.176,0,0,1,.575.285C1883.336,1853.8,1882.913,1855.117,1881.363,1856.3Z" fill="url(#linear-gradient-17)"/>
          </g>
        </g>
        <g id="Grupo_102244" data-name="Grupo 102244">
          <g id="Grupo_102238" data-name="Grupo 102238">
            <path id="Trazado_163746" data-name="Trazado 163746" d="M1814.193,2019.093a.215.215,0,0,1-.212-.176l-20.029-107.684a.215.215,0,0,1,.423-.079l19.6,105.389V1904.072a.215.215,0,1,1,.43,0v114.806a.215.215,0,0,1-.195.214Z" fill="#fff"/>
          </g>
          <g id="Grupo_102239" data-name="Grupo 102239">
            <path id="Trazado_163747" data-name="Trazado 163747" d="M1709.647,2022.315h-.018a.215.215,0,0,1-.2-.215V1916.655a.216.216,0,0,1,.431,0v102.834L1727,1916.238a.215.215,0,1,1,.425.071l-17.57,105.826A.216.216,0,0,1,1709.647,2022.315Z" fill="#fff"/>
          </g>
          <g id="Grupo_102240" data-name="Grupo 102240">
            <path id="Trazado_163748" data-name="Trazado 163748" d="M1964.271,2034.3a.216.216,0,0,1-.21-.166l-21.681-93.185a.215.215,0,1,1,.419-.1l21.307,91.573,2.781-91.655a.219.219,0,0,1,.221-.209.215.215,0,0,1,.209.221l-2.831,93.309a.215.215,0,0,1-.194.208Z" fill="#c47eb7"/>
          </g>
          <g id="Grupo_102241" data-name="Grupo 102241">
            <path id="Trazado_163749" data-name="Trazado 163749" d="M1845.164,2053.743l-.026,0a.215.215,0,0,1-.189-.213V1960.62a.215.215,0,0,1,.43,0v91.144l26.449-106.718a.215.215,0,1,1,.418.1l-26.873,108.43A.216.216,0,0,1,1845.164,2053.743Z" fill="#c47eb7"/>
          </g>
          <g id="Grupo_102242" data-name="Grupo 102242">
            <path id="Trazado_163750" data-name="Trazado 163750" d="M1968.191,1939.358v2l-123.307,20.114-136.35-44.374v-2C1729.887,1908.8,1968.191,1939.358,1968.191,1939.358Z" fill="#b7c0ce"/>
            <path id="Trazado_163751" data-name="Trazado 163751" d="M1821.773,1904.724l146.418,34.634-123.307,20.114-136.35-44.374Z" fill="#d8dee8"/>
          </g>
          <path id="Trazado_163752" data-name="Trazado 163752" d="M1854.242,1916.274l25.538,3.937v1.739l-10.627,5.119-22.255-5.62Z" fill="#b7c0ce"/>
          <path id="Trazado_163753" data-name="Trazado 163753" d="M1853.64,1912.486l26.14,7.725-10.627,5.118-22.255-5.619Z" fill="#fff"/>
          <g id="Grupo_102243" data-name="Grupo 102243">
            <path id="Trazado_163754" data-name="Trazado 163754" d="M1860.682,1932.742l-4.081-53.849a2.332,2.332,0,0,0-1.761-1.919l-69.848-19.634a3.775,3.775,0,0,0-2.3.291c-.476.3-1.016.232-.992.781l2.919,49.765a2.3,2.3,0,0,0,1.661,1.915l72.9,23.681Z" fill="url(#linear-gradient-18)"/>
            <path id="Trazado_163755" data-name="Trazado 163755" d="M1859.181,1933.773l-4.229-54.3a2.332,2.332,0,0,0-1.76-1.915l-69.851-19.636a2.2,2.2,0,0,0-1.741.189,1.47,1.47,0,0,0-.715,1.335l2.1,49.271a2.3,2.3,0,0,0,1.7,1.952Z" fill="url(#linear-gradient-18)"/>
            <path id="Trazado_163756" data-name="Trazado 163756" d="M1859.181,1933.773l-74.5-23.1a2.3,2.3,0,0,1-1.7-1.952l-.634-14.859c22.114,14.111,49.96,19.56,75.877,27.709Z" opacity="0.3" fill="url(#linear-gradient-18)" style="mix-blend-mode: multiply;isolation: isolate"/>
            <path id="Trazado_163757" data-name="Trazado 163757" d="M1822.112,1935.427l2.642,1.641,13.3-5.9c.119-.053.635-.7,0-.96-3.362-1.4-16.191-4.715-16.191-4.715l-6.676,3.171Z" fill="url(#linear-gradient-21)"/>
            <path id="Trazado_163758" data-name="Trazado 163758" d="M1822.112,1934.467l2.642,1.641,13.3-5.9c.751-.334-16.191-5.675-16.191-5.675l-6.676,3.171Z" fill="url(#linear-gradient-22)"/>
            <path id="Trazado_163759" data-name="Trazado 163759" d="M1809.065,1892.892s-6.343,33.939-7.011,35.83c-.616,1.747,17.348,7.411,21.643,8.485a2.049,2.049,0,0,0,1.057-.139c1.225.111-4.478-40.977-4.478-40.977l-.418-.083Z" fill="url(#linear-gradient-23)"/>
            <path id="Trazado_163760" data-name="Trazado 163760" d="M1809.065,1892.892s-7.456,34.05-8.123,35.942,20.808,8.012,22.7,8.345c1.224.112-3.784-41.171-3.784-41.171Z" fill="url(#linear-gradient-18)"/>
          </g>
        </g>
      </g>
      <path id="Trazado_163761" data-name="Trazado 163761" d="M1875.356,1914.816l-.642,5.687s26.065,11.233,48.154,0,13.266-52.956,13.266-52.956a23.778,23.778,0,0,0-23.267-11.061c-16.195,1.8-7.211,22.194-4.355,35.689S1906.224,1918.262,1875.356,1914.816Z" fill="url(#linear-gradient-6)"/>
      <path id="Trazado_163762" data-name="Trazado 163762" d="M1875.356,1914.816l-4.143-.765a3.336,3.336,0,0,0-2.373.45l-4.55,2.477a1.218,1.218,0,0,0,.407,2.278,13.508,13.508,0,0,0,2.96.01c4-.4,5.217,1.075,7.057,1.237S1878.957,1917.064,1875.356,1914.816Z" fill="url(#linear-gradient-26)"/>
    </g>
    <g id="Grupo_102255" data-name="Grupo 102255">
      <g id="Grupo_102250" data-name="Grupo 102250">
        <path id="Trazado_163763" data-name="Trazado 163763" d="M1929.887,1727.166c0-14.884-13.729-26.5-30.081-25.972a30.178,30.178,0,0,0-22.473,10.7l0-.006c-.032.039-.061.079-.092.117-.088.109-.172.219-.258.329-.156.2-.31.4-.46.6-.089.12-.176.242-.263.364-.144.2-.284.409-.423.616-.079.118-.159.237-.236.356-.154.24-.3.482-.447.726-.053.089-.109.175-.16.264q-.288.5-.553,1.005c-.046.09-.089.182-.135.272-.128.254-.254.51-.373.768-.059.127-.114.255-.17.383-.1.229-.2.458-.293.69-.055.135-.108.27-.16.405-.092.238-.178.478-.262.719-.044.126-.089.251-.131.378q-.15.454-.28.917c-.019.064-.04.127-.057.191-.1.371-.195.746-.28,1.123-.025.111-.045.224-.068.335-.057.271-.11.542-.157.815-.024.139-.045.279-.067.419q-.058.38-.1.762c-.017.143-.034.286-.049.43-.027.269-.048.54-.066.811-.009.127-.02.252-.026.379-.02.4-.033.795-.033,1.2,0,9.551,5.785,17.976,14.457,22.487q1.2.621,2.465,1.144.634.26,1.286.494a31.912,31.912,0,0,0,9.87,1.849h0c.482.014.96.017,1.437.01.161,0,.32-.012.481-.016.315-.009.63-.019.943-.037.192-.011.381-.028.571-.043.28-.021.56-.042.837-.07.2-.021.405-.047.607-.071.262-.032.524-.064.785-.1.207-.031.414-.065.62-.1q.378-.063.753-.133c.209-.04.417-.083.624-.127.245-.051.488-.106.73-.163.207-.049.414-.1.62-.153.24-.061.477-.127.714-.194.2-.058.408-.115.609-.177.075-.023.151-.042.226-.065l-.005-.006C1921.671,1748.247,1929.887,1738.64,1929.887,1727.166Z" fill="url(#linear-gradient-27)"/>
        <g id="Grupo_102249" data-name="Grupo 102249">
          <path id="Trazado_163764" data-name="Trazado 163764" d="M1927.64,1727.169c0,14.846-13.659,26.481-29.929,26.006-15.664-.458-27.941-12.051-27.941-25.91s12.277-25.493,27.941-26C1913.981,1700.734,1927.64,1712.324,1927.64,1727.169Z" fill="url(#linear-gradient-28)"/>
          <g id="Grupo_102247" data-name="Grupo 102247">
            <path id="Trazado_163765" data-name="Trazado 163765" d="M1890.37,1734.36l-11.615-5.912v-1.9l11.615-6.726v3.24l-8.036,4.292,8.036,3.782Z" fill="#fff"/>
            <path id="Trazado_163766" data-name="Trazado 163766" d="M1902.726,1717.195l-6.606,19.964-3.318-.034,6.554-19.885Z" fill="#fff"/>
            <path id="Trazado_163767" data-name="Trazado 163767" d="M1905.182,1731.178l8.489-3.875-8.489-4.343v-3.3l12.38,6.785v1.994l-12.38,6.021Z" fill="#fff"/>
          </g>
          <g id="Grupo_102248" data-name="Grupo 102248" opacity="0.3" style="mix-blend-mode: multiply;isolation: isolate">
            <path id="Trazado_163768" data-name="Trazado 163768" d="M1904.787,1746.715c-3.531-7.773.039-14.956-4.729-19.941-4.788-5.008-10.929-.327-17.44-4.334-2.489-1.533-5.24-4.465-7.272-10.512a24.184,24.184,0,0,0-5.576,15.337c0,13.859,12.277,25.452,27.941,25.91a31.93,31.93,0,0,0,10.5-1.438A17.863,17.863,0,0,1,1904.787,1746.715Z" fill="url(#linear-gradient-29)"/>
          </g>
        </g>
      </g>
      <g id="Grupo_102254" data-name="Grupo 102254">
        <path id="Trazado_163769" data-name="Trazado 163769" d="M1961.478,1794.242c0-16.173-16.189-29.567-35.414-29.9-10.92-.191-20.4,3.9-26.32,10.314l0-.006c-.037.04-.071.081-.107.121-.1.113-.2.227-.3.341-.183.207-.363.416-.538.628q-.156.188-.307.378-.252.318-.494.642c-.093.124-.186.247-.276.372-.18.25-.353.5-.523.759-.062.093-.126.183-.186.276q-.337.521-.646,1.054c-.054.095-.1.192-.158.287-.149.267-.3.536-.435.809-.069.133-.133.268-.2.4-.118.242-.233.484-.342.73q-.1.213-.187.428c-.107.252-.208.506-.306.761-.051.134-.1.267-.153.4q-.174.482-.327.974c-.021.068-.046.135-.067.2q-.178.593-.326,1.2c-.029.118-.053.239-.08.358-.066.289-.128.579-.183.871-.028.149-.053.3-.078.449q-.067.406-.122.817-.03.231-.056.462c-.032.289-.057.58-.078.873-.01.135-.022.271-.03.407-.023.427-.038.857-.038,1.29,0,10.319,6.756,19.77,16.9,25.173q1.4.745,2.886,1.388.744.321,1.507.614a41.409,41.409,0,0,0,11.573,2.606h0c.565.045,1.128.077,1.687.1.189.007.376.007.564.012.371.009.741.019,1.109.018.224,0,.447-.007.67-.011.329-.006.657-.012.983-.025.239-.01.476-.026.713-.04.308-.018.616-.037.922-.063.244-.02.487-.044.729-.069.3-.03.592-.061.885-.1.246-.03.49-.063.734-.1q.43-.061.858-.133.366-.06.729-.127c.282-.052.561-.109.84-.167.239-.05.479-.1.716-.155.088-.02.178-.036.265-.057l-.006-.006C1951.784,1816.648,1961.478,1806.711,1961.478,1794.242Z" fill="url(#linear-gradient-30)"/>
        <g id="Grupo_102253" data-name="Grupo 102253">
          <path id="Trazado_163770" data-name="Trazado 163770" d="M1956.708,1794.1c0,16.092-16.028,27.865-35.065,26.355-18.272-1.449-32.554-14.693-32.554-29.632s14.282-26.8,32.554-26.477C1940.68,1764.679,1956.708,1778.006,1956.708,1794.1Z" fill="url(#linear-gradient-31)"/>
          <g id="Grupo_102251" data-name="Grupo 102251">
            <path id="Trazado_163771" data-name="Trazado 163771" d="M1907.581,1797.851l-2.439-.135v-5.28l-4.535-.224v5.254l-2.409-.134v-12.14l2.409.1v4.771l4.535.213v-4.8l2.439.1Z" fill="#fff"/>
            <path id="Trazado_163772" data-name="Trazado 163772" d="M1915.852,1798.309l-2.492-.138V1788l-3.172-.14v-2.171l8.876.369v2.193l-3.212-.141Z" fill="#fff"/>
            <path id="Trazado_163773" data-name="Trazado 163773" d="M1926.814,1798.915l-2.9-9.961-.074,0q.156,3,.156,4v5.812l-2.268-.126v-12.463l3.46.144,2.856,9.716.05,0,3.049-9.47,3.532.147v12.64l-2.421-.134v-5.967q0-.422.012-.974t.113-2.927l-.075,0-3.141,9.7Z" fill="#fff"/>
            <path id="Trazado_163774" data-name="Trazado 163774" d="M1938.646,1799.57v-12.695l2.635.11v10.5l5.081.269V1800Z" fill="#fff"/>
          </g>
          <g id="Grupo_102252" data-name="Grupo 102252" opacity="0.3" style="mix-blend-mode: multiply;isolation: isolate">
            <path id="Trazado_163775" data-name="Trazado 163775" d="M1929.914,1813.9c-4.128-8.617.046-16.173-5.528-21.844-5.594-5.69-12.761-.99-20.349-5.693-2.9-1.8-6.1-5.119-8.466-11.758a23.8,23.8,0,0,0-6.482,16.218c0,14.939,14.282,28.183,32.554,29.632a39.507,39.507,0,0,0,12.283-.913A20.812,20.812,0,0,1,1929.914,1813.9Z" fill="url(#linear-gradient-32)"/>
          </g>
        </g>
      </g>
    </g>
    <g id="Grupo_102257" data-name="Grupo 102257">
      <g id="Grupo_102256" data-name="Grupo 102256">
        <path id="Trazado_163776" data-name="Trazado 163776" d="M1689.751,2036.266a37.814,37.814,0,0,1-17.8-5.888c-6.744-4.408-15.527-13.469-13.234-19.178.856-2.131,3.32-3.956,5.486-3.782,3.2.257,3.573,4.7,9.13,9.537,1.026.893,6.336,5.513,8.976,3.956,1.312-.774,1.7-2.918,1.486-4.549-.626-4.767-6.446-5.5-12.042-10.659-5.673-5.233-10.4-14.36-7.7-20.53,1.553-3.546,5.662-6.347,8.363-5.56,1.154.337,1.886,1.28,5.39,8.851,2.877,6.214,3.517,8.026,5.371,8.615,1.909.607,4.877-.154,6.005-2.035,2.938-4.9-9.759-12.13-10.912-25.837-.517-6.143,1.145-15.247,6.707-17.2,3.761-1.32,9.118.695,11.055,4.145,1.746,3.11-.375,5.45.957,12.437.4,2.12,1.236,6.482,2.991,6.711,2.061.269,4.366-5.294,4.9-6.649,4.012-10.2-.588-15.444,3.195-20.395,2.949-3.861,9.368-5.412,14.452-3.462,4.45,1.707,8.009,6.145,8.247,10.744.242,4.679-3.694,9.337-11.565,18.653-3.732,4.418-6.7,7.4-6.533,11.794.082,2.14.931,5.151,2.464,5.426,3.384.607,5.05-13.019,13.07-15.124a10.943,10.943,0,0,1,11.448,4.741c2.746,4.533.906,10.959-2.544,14.338-4.5,4.409-9.119,1.059-17.59,5.794-3.758,2.1-9.663,6.57-8.8,10.265a4.8,4.8,0,0,0,3.914,3.4c4.149.471,5.519-6.328,12.189-9.317,4.806-2.153,11.45-1.92,13.029.79,2.228,3.826-5.686,12.512-9.894,16.35C1724.875,2027.285,1712.879,2036.083,1689.751,2036.266Z" fill="url(#linear-gradient-33)"/>
        <path id="Trazado_163777" data-name="Trazado 163777" d="M1692.03,2034.087c-.671-11.372,6.861-34.535,12.341-45.486,5.363-10.715,10.493-27.666,10.544-27.836l.334.1c-.052.17-5.19,17.15-10.566,27.891-5.463,10.917-12.973,33.994-12.3,45.309Z" fill="#fff" opacity="0.5"/>
      </g>
      <path id="Trazado_163778" data-name="Trazado 163778" d="M1677.787,2037.749a55.012,55.012,0,0,1-10.434-27.689c-.414-5.278-1.223-15.587,5.083-24.479,3.144-4.432,9.809-10.987,14.313-9.1,2.9,1.216,4.7,5.844,3.879,9.363-.824,3.549-3.823,3.877-7.089,9.9-1.209,2.228-2.589,4.844-1.529,6.321.886,1.234,3.32,1.459,5.144.719,3.769-1.529,2.592-6.221,6.666-9.587,2.9-2.393,7.727-3.518,9.811-1.558,1.81,1.7,1.495,5.678-.1,8.328-2.561,4.244-7.152,3-10.146,7.639-1.328,2.059-2.272,5.168-1.109,6.4,1.324,1.4,5.221.189,7.719-1.359,3.3-2.044,3.42-4.22,5.592-4.492,2.423-.3,5.451,2,5.925,4.555.663,3.575-3.722,7.43-7.2,9.106-4.447,2.144-7.75.885-9.922,3.815-.8,1.075-1.527,2.83-.873,3.9.932,1.519,4.3,1.017,6.54.684,5.445-.81,6.945-2.785,8.9-1.826,1.976.972,2.995,4.253,2.14,6.555-.475,1.279-1.9,3.26-8.969,4.5C1697.178,2040.309,1688.866,2040.92,1677.787,2037.749Z" fill="url(#linear-gradient-34)"/>
    </g>
  </g>
</svg>
