<svg xmlns="http://www.w3.org/2000/svg" width="352.911" height="261.811" viewBox="0 0 352.911 261.811">
  <g id="Grupo_101464" data-name="Grupo 101464" transform="translate(-875.949 -168.937)">
    <path id="Trazado_162596" data-name="Trazado 162596" d="M1017.577,235.083l6.126-.69a1.367,1.367,0,0,1,1.286.616q.531.825,1.14,1.618a22.9,22.9,0,0,0,2.425,2.708,1.347,1.347,0,0,1,.332,1.483l-2.349,6a1.325,1.325,0,0,0,.652,1.678l5.278,2.614a1.31,1.31,0,0,0,1.678-.465l3.191-5a1.314,1.314,0,0,1,1.471-.569,23.8,23.8,0,0,0,7.472.744,1.355,1.355,0,0,1,1.358.942l1.082,3.443a1.37,1.37,0,0,0,1.557.924l5.732-1.159a1.183,1.183,0,0,0,.331-.11,1.316,1.316,0,0,0,.733-1.343l-.51-4.576-.127-1.115a23.633,23.633,0,0,0,2.78-1.836,23.964,23.964,0,0,0,3.261-3.019,1.313,1.313,0,0,1,1.467-.354l4.83,1.9a1.361,1.361,0,0,0,1.718-.666l2-4.035.57-1.158a1.379,1.379,0,0,0-.49-1.777l-4.177-2.67a1.312,1.312,0,0,1-.588-1.43,23.666,23.666,0,0,0,.636-5.015,4.01,4.01,0,0,0,.013-.425.691.691,0,0,1,.009-.143,1.345,1.345,0,0,1,.948-1.151l5.586-1.768a.989.989,0,0,0,.182-.072,1.367,1.367,0,0,0,.737-1.481l-1.147-5.716a1.36,1.36,0,0,0-1.484-1.083l-6.389.722a1.315,1.315,0,0,1-1.319-.692,24.11,24.11,0,0,0-2-3.06q-.6-.785-1.256-1.5a1.386,1.386,0,0,1-.262-1.435l2.256-5.766a1.322,1.322,0,0,0-.644-1.668l-5.224-2.578a1.382,1.382,0,0,0-1.783.5l-2.526,3.956a1.358,1.358,0,0,1-1.58.56,23.751,23.751,0,0,0-7.207-1.294,1.35,1.35,0,0,1-1.271-.949l-1.592-5.035a1.4,1.4,0,0,0-1.6-.944l-5.7,1.14a1.334,1.334,0,0,0-1.065,1.462l.027.267.6,5.317a1.363,1.363,0,0,1-.737,1.371h-.005a23.671,23.671,0,0,0-3.533,2.245c-.6.463-1.171.949-1.722,1.457a1.337,1.337,0,0,1-1.408.275l-4.9-1.927a1.385,1.385,0,0,0-1.748.672l-2.571,5.2a1.525,1.525,0,0,0-.132.458,1.378,1.378,0,0,0,.617,1.29l3.342,2.124a1.374,1.374,0,0,1,.624,1.2,1.408,1.408,0,0,1-.069.375,23.7,23.7,0,0,0-1.2,9.282,1.323,1.323,0,0,1-.928,1.365l-4.524,1.429a1.356,1.356,0,0,0-.919,1.553l.026.133,1.113,5.572A1.38,1.38,0,0,0,1017.577,235.083Zm39.189-17.394a15.743,15.743,0,0,1,.831,2.829,12.436,12.436,0,0,1-.885,6.724c-.092.189-.188.373-.284.557-5.993,11.126-21.7,8.913-24.292-3.64a12.9,12.9,0,0,1,.461-5.864,8.383,8.383,0,0,1,.469-1.156,14.615,14.615,0,0,1,2.923-4.024,12.769,12.769,0,0,1,20.775,4.574Z" fill="#30b7fd"/>
    <path id="Trazado_162597" data-name="Trazado 162597" d="M1212.074,213.633c-5.881-11.852-26.241-3.739-26.241-3.739s-10,24.772-14.07,26.123,4.413-22.849,4.413-22.849c-8.245.824-26.891,14.836-26.891,14.836s6.385,25.315,2.106,25.622-4.51-22.7-4.51-22.7c-7.362,3.9-12.855,14.489-12.855,14.489-6.178,16.689,15.571,23.761,15.571,23.761a42.442,42.442,0,0,1-1.435,20.087h0a30.809,30.809,0,0,0-1.486,5.569l2.134-.424q.091-.91.25-1.772v-.01a.048.048,0,0,1,0-.025c.081-.359.2-.87.346-1.494h0c.4-1.406.652-2.437.8-3.173v-.007c1.158-4.4,2.936-10.175,4.595-11.643a4.227,4.227,0,0,1-.651-.888l.651.888c5.209,7.1,23.735,4.779,33.5.669s4.756-6.1-1.649-9.669-17.644-.061-21.4-1.214.84-3.965,7.729-4.79,11.629,5.285,22.8,4.151,15.423-23.408,15.423-23.408c-7.1,3.852-21.5,2.372-22.541-.133s19.1-6.237,22.082-7.642S1217.954,225.48,1212.074,213.633Z" fill="#30b7fd"/>
    <path id="Trazado_162598" data-name="Trazado 162598" d="M876.138,304.724c-2.394-13.012,18.768-18.717,18.768-18.717s22.848,13.841,26.917,12.483S904.6,282.842,904.6,282.842c7.095-4.281,30.419-4.236,30.419-4.236s10.057,24.093,13.667,21.775-9.993-20.879-9.993-20.879c8.233-1.286,18.973,3.9,18.973,3.9,14.947,9.659,1.772,28.354,1.772,28.354a42.457,42.457,0,0,0,13.185,15.221h0a30.8,30.8,0,0,1,4.527,3.567l-1.963.94q-.618-.675-1.262-1.269l-.008-.007-.019-.017c-.28-.239-.679-.578-1.172-.989h0c-1.161-.887-1.982-1.56-2.537-2.064h-.005c-3.56-2.825-8.447-6.387-10.655-6.568a4.222,4.222,0,0,0-.011-1.1c0,.351.007.717.011,1.1.086,8.807-16.139,18.048-26.417,20.608s-7.462-2.033-4.473-8.729,14.089-10.621,16.405-13.794-3.048-2.671-9.058.8-6.143,11.2-15.763,16.984-26.374-9.5-26.374-9.5c7.994-1.171,18.635-10.984,17.966-13.614s-19.033,6.455-22.257,7.113S878.538,317.737,876.138,304.724Z" fill="#30b7fd"/>
    <path id="Trazado_162599" data-name="Trazado 162599" d="M1224.627,388.244c10.413-8.162-1.661-26.454-1.661-26.454s-26.285-4.766-28.434-8.479S1217.8,353,1217.8,353c-2.479-7.907-19.981-23.324-19.981-23.324s-23.493,11.387-24.663,7.259,21.317-9.021,21.317-9.021c-5.316-6.418-16.8-9.649-16.8-9.649-17.6-2.665-20.11,20.066-20.11,20.066a42.449,42.449,0,0,1-19.96,2.669h0a30.772,30.772,0,0,0-5.754-.326l.848,2c.607-.064,1.2-.1,1.786-.115h.036c.368.006.892.017,1.533.036h.005c1.458.1,2.518.144,3.268.135h.007c4.538.242,10.559.811,12.333,2.138a4.223,4.223,0,0,1,.738-.818l-.738.818c-5.9,6.541.134,24.211,6.138,32.937s6.937,3.42,9.134-3.576-3.519-17.29-3.151-21.2,4.052.018,6.259,6.6-2.817,12.459.558,23.165,26.049,10.355,26.049,10.355c-5.212-6.172-6.684-20.573-4.441-22.1s9.982,17.444,11.961,20.073S1214.214,396.407,1224.627,388.244Z" fill="#30b7fd"/>
    <g id="Grupo_101413" data-name="Grupo 101413">
      <path id="Trazado_162600" data-name="Trazado 162600" d="M1130.09,235.059s1.221-24.38,12.617-39.664a2.711,2.711,0,0,1,4.872,1.5,1.1,1.1,0,0,0,.005.128C1147.721,201.352,1135.1,220.5,1130.09,235.059Z" fill="#30b7fd"/>
      <path id="Trazado_162601" data-name="Trazado 162601" d="M1129.066,242.086s10.265-31.074,30.434-45.894a2.875,2.875,0,0,1,3.94.467c.617.779.958,2.038.465,4.075C1162.586,206.166,1140.3,225.678,1129.066,242.086Z" fill="#30b7fd"/>
    </g>
    <g id="Grupo_101414" data-name="Grupo 101414">
      <path id="Trazado_162602" data-name="Trazado 162602" d="M954.465,274.66s-10.23-17.844-24.628-24.969a2.284,2.284,0,0,0-3.084,2.99l.045.1C928.348,256.079,945.141,265.637,954.465,274.66Z" fill="#30b7fd"/>
      <path id="Trazado_162603" data-name="Trazado 162603" d="M957.921,279.545s-19.579-19.417-40.387-22.843a2.423,2.423,0,0,0-2.781,1.856,3.843,3.843,0,0,0,1.207,3.238C919.022,265.374,943.215,271.516,957.921,279.545Z" fill="#30b7fd"/>
    </g>
    <path id="Trazado_162604" data-name="Trazado 162604" d="M1180.357,236.087V390.874a4.658,4.658,0,0,1-4.365,4.9H952.668a4.66,4.66,0,0,1-4.365-4.9V236.087a4.658,4.658,0,0,1,4.365-4.9h223.324A4.658,4.658,0,0,1,1180.357,236.087Z" fill="#8ec3f1"/>
    <g id="Grupo_101416" data-name="Grupo 101416">
      <path id="Trazado_162605" data-name="Trazado 162605" d="M1169.318,227.252V239.8H920.089V227.252a4.688,4.688,0,0,1,4.688-4.688H1164.63A4.688,4.688,0,0,1,1169.318,227.252Z" fill="#fac551"/>
      <g id="Grupo_101415" data-name="Grupo 101415">
        <path id="Trazado_162606" data-name="Trazado 162606" d="M927.713,231.183a2.183,2.183,0,1,1,2.183,2.183h0A2.184,2.184,0,0,1,927.713,231.183Z" fill="#fff"/>
        <path id="Trazado_162607" data-name="Trazado 162607" d="M936.314,231.183a2.183,2.183,0,1,1,2.183,2.183h0A2.183,2.183,0,0,1,936.314,231.183Z" fill="#fff"/>
        <path id="Trazado_162608" data-name="Trazado 162608" d="M945.134,231.183a2.183,2.183,0,1,1,2.183,2.183h0A2.183,2.183,0,0,1,945.134,231.183Z" fill="#fff"/>
      </g>
    </g>
    <path id="Trazado_162609" data-name="Trazado 162609" d="M1081.547,209.042l2.983-.336a.667.667,0,0,1,.626.3q.259.4.555.788a11.185,11.185,0,0,0,1.181,1.319.656.656,0,0,1,.162.722l-1.144,2.922a.645.645,0,0,0,.317.817l2.571,1.273a.637.637,0,0,0,.817-.226l1.554-2.435a.64.64,0,0,1,.716-.277,11.625,11.625,0,0,0,3.639.362.66.66,0,0,1,.661.458l.527,1.677a.669.669,0,0,0,.759.45l2.791-.565a.609.609,0,0,0,.161-.053.641.641,0,0,0,.357-.654l-.249-2.229-.062-.543a11.477,11.477,0,0,0,1.354-.894,11.7,11.7,0,0,0,1.588-1.471.639.639,0,0,1,.714-.172l2.352.924a.663.663,0,0,0,.837-.324l.973-1.965.278-.564a.673.673,0,0,0-.239-.865l-2.034-1.3a.638.638,0,0,1-.287-.7,11.553,11.553,0,0,0,.31-2.442q.008-.1.006-.207a.383.383,0,0,1,0-.069.654.654,0,0,1,.462-.561l2.72-.861a.518.518,0,0,0,.089-.035.665.665,0,0,0,.359-.721l-.558-2.784a.663.663,0,0,0-.722-.527l-3.112.352a.641.641,0,0,1-.644-.337,11.636,11.636,0,0,0-.974-1.49q-.293-.382-.611-.732a.677.677,0,0,1-.128-.7l1.1-2.808a.642.642,0,0,0-.313-.812l-2.543-1.256a.672.672,0,0,0-.868.241l-1.23,1.926a.662.662,0,0,1-.769.273,11.6,11.6,0,0,0-3.51-.63.657.657,0,0,1-.619-.462l-.775-2.452a.679.679,0,0,0-.778-.46l-2.774.555a.65.65,0,0,0-.519.712l.013.13.29,2.589a.666.666,0,0,1-.359.668h0a11.555,11.555,0,0,0-1.721,1.093c-.293.225-.57.462-.838.71a.652.652,0,0,1-.686.134l-2.388-.938a.675.675,0,0,0-.851.327l-1.252,2.533a.763.763,0,0,0-.065.223.671.671,0,0,0,.3.628l1.628,1.034a.669.669,0,0,1,.3.584.706.706,0,0,1-.033.183,11.507,11.507,0,0,0-.586,4.52.649.649,0,0,1-.348.622.59.59,0,0,1-.1.042l-2.2.7a.659.659,0,0,0-.448.756l.012.065.542,2.714A.672.672,0,0,0,1081.547,209.042Zm19.085-8.471a7.675,7.675,0,0,1,.4,1.378,6.051,6.051,0,0,1-.431,3.274c-.045.092-.092.182-.138.271a6.263,6.263,0,0,1-11.606-4.628,4.211,4.211,0,0,1,.228-.563,7.13,7.13,0,0,1,1.424-1.959,6.217,6.217,0,0,1,10.127,2.226Z" fill="#30b7fd"/>
    <g id="Grupo_101420" data-name="Grupo 101420">
      <path id="Trazado_162610" data-name="Trazado 162610" d="M943.375,349.089s.332-3.622-3.715-3.622a4.736,4.736,0,0,1,1.861,1,4.785,4.785,0,0,0-5.39.813c-2.809,2.328-1.064,8.169-1.918,9.278s-4.181,1.33-3.774,4.916,10.558,8.076,9.906,11.042c0,0,3.978-5.848,1.134-8.517a5.266,5.266,0,0,1,1.528,2.858s.376-3.031-1.552-4c-1.707-.858-3.1-4-2.957-4.557S943.375,349.089,943.375,349.089Z" fill="#7d6614"/>
      <path id="Trazado_162611" data-name="Trazado 162611" d="M939.391,366.481s3.024,12.509,5.992,15.01c1.784,1.5,7.089,4.952,7.089,4.952l-2.206.8s-7.358-2.485-9-4.421-6.157-11.641-6.157-11.641Z" fill="#fceabe"/>
      <path id="Trazado_162612" data-name="Trazado 162612" d="M910.973,388.458l.083.147c.662,1.15,2.18,3.968,3.851,7.052.791,1.463,1.619,2.986,2.4,4.419,1.354,2.473,2.585,4.676,3.3,5.84.73,1.183,1.268,2.015,1.486,2.348h0a.541.541,0,0,1,.071.343,18.034,18.034,0,0,0,.048,3.1,23.8,23.8,0,0,0,7.774,15.409l2.011.3s-2.847-10.546-3.685-16.508a11.484,11.484,0,0,1-.154-2.364,24.661,24.661,0,0,0-.649-6.452,144.442,144.442,0,0,0-4.113-14.935c-.094-.292-2.923-10.524-2.923-10.524-2.374,2.075-11.034,2.931-11.034,2.931S907.98,383.135,910.973,388.458Z" fill="#327290"/>
      <path id="Trazado_162613" data-name="Trazado 162613" d="M936.228,429.96h-8.4a4.619,4.619,0,0,1,.237-2.25c.42-.932,1.019-.961.077-2.421.533.549,2.249.776,3.463.613a10.274,10.274,0,0,0,1.456,2.216C933.611,428.512,936.059,428.371,936.228,429.96Z" fill="#8ec3f1"/>
      <path id="Trazado_162614" data-name="Trazado 162614" d="M910.97,388.457l.083.147c.662,1.15,4.24,7.759,5.912,10.843a44.73,44.73,0,0,1-.59-15.94Z" fill="#1a5470"/>
      <path id="Trazado_162615" data-name="Trazado 162615" d="M942.226,348.58a33.635,33.635,0,0,0-5.041,2.465c-2.275,2.523-1.626,5.815-.325,5.847.835.02.673,1.408.673,1.408l9.3-3.934S945.717,347.837,942.226,348.58Z" fill="#7d6614"/>
      <path id="Trazado_162616" data-name="Trazado 162616" d="M939.106,364.6a11.9,11.9,0,0,1,1.238,5.121s-1.706,2.693-6.131,3.375C934.213,373.1,938.018,364.6,939.106,364.6Z" fill="#fbd775"/>
      <path id="Trazado_162617" data-name="Trazado 162617" d="M917.518,380.189l.029-1.57c-3.129.4-10.787-3.738-10.787-3.738s-3.273,2.177-3.721,8.393c-.218,3.034-1.6,15.866-1.755,19.7-.056,1.389-.074,2.38-.081,2.776h0a.539.539,0,0,1-.133.323,17.99,17.99,0,0,0-1.7,2.6c-4.774,8.882-2.277,20.95-2.277,20.95l1.108-.281s4.036-12.511,6.675-17.922a11.371,11.371,0,0,1,1.2-2.045,24.658,24.658,0,0,0,3.068-5.713C911.093,399.006,917.518,380.189,917.518,380.189Z" fill="#327290"/>
      <path id="Trazado_162618" data-name="Trazado 162618" d="M903.774,429.96h-8.392a4.619,4.619,0,0,1,.237-2.25c.42-.931,1.078-1.354.921-2.482a3.024,3.024,0,0,0,2.617,1,9.242,9.242,0,0,0,1.457,1.888C901.159,428.512,903.6,428.374,903.774,429.96Z" fill="#8ec3f1"/>
      <path id="Trazado_162619" data-name="Trazado 162619" d="M933.646,374.9c-1.127.192.184,1.089-1.366,1.257a28,28,0,0,0-5.681.882,1.281,1.281,0,0,0-.817.662c-.518,1.556-3.8,4.23-3.8,4.23-14.618-.665-15.56-7.181-15.56-7.181,9.488-9.214,17.559-14.237,24.229-14.858a11.851,11.851,0,0,1,4.838.509c2.333,1.039,3.612,4.2,3.612,4.2S937.929,374.171,933.646,374.9Z" fill="#fbd775"/>
      <path id="Trazado_162620" data-name="Trazado 162620" d="M932.283,376.159a28,28,0,0,0-5.68.882,23.277,23.277,0,0,1,2.953-12.775S931.795,373.4,932.283,376.159Z" fill="#fac551"/>
      <path id="Trazado_162621" data-name="Trazado 162621" d="M935.372,361c.417,1.307,1.809,5.032,3.738,3.6a4.739,4.739,0,0,1,.817-1.907c.61-1.049,1.338-2.121,1.338-2.121l-3.142-2.753-.187-.164a8.024,8.024,0,0,1-2.337,2.653A.63.63,0,0,0,935.372,361Z" fill="#fceabe"/>
      <path id="Trazado_162622" data-name="Trazado 162622" d="M941.26,360.576s-.726,1.07-1.337,2.12c-1.953-1.2-1.955-3.622-1.8-4.874Z" fill="#edd5a2"/>
      <path id="Trazado_162623" data-name="Trazado 162623" d="M941.348,361.955s-4.742-2.639-3.053-5.566,2.214-5.24,5.313-3.679,3.037,3.014,2.711,4.129S942.624,362.566,941.348,361.955Z" fill="#fceabe"/>
      <path id="Trazado_162624" data-name="Trazado 162624" d="M947.119,355.131c-.217-1.3-.877-1.424-1.338-1.337a3.792,3.792,0,0,0-4.612-1.766,6.455,6.455,0,0,1-3.737,2.245s.55,1.024,2.817,1.658a3.874,3.874,0,0,0,2.236-.179,12.64,12.64,0,0,1-3.218,1.213c2.988.274,5.831-2.458,6.125-2.75a4.251,4.251,0,0,1,.235,1.958c-.2.88-.978,2.475-.5,2.681C945.127,358.853,947.445,357.08,947.119,355.131Z" fill="#7d6614"/>
      <g id="Grupo_101419" data-name="Grupo 101419">
        <rect id="Rectángulo_24565" data-name="Rectángulo 24565" width="10.323" height="39.363" transform="matrix(0.438, -0.899, 0.899, 0.438, 954.461, 402)" fill="#327290"/>
        <g id="Grupo_101417" data-name="Grupo 101417">
          <path id="Trazado_162625" data-name="Trazado 162625" d="M943.392,403.94a11.7,11.7,0,0,1-6.332-8.049,2.658,2.658,0,0,1,5.186-1.171l.006.03a6.439,6.439,0,1,0,4.915-7.666c-.15.033-.3.071-.446.114a2.659,2.659,0,0,1-1.506-5.1,11.755,11.755,0,1,1-1.824,21.841Z" fill="#327290"/>
        </g>
        <g id="Grupo_101418" data-name="Grupo 101418">
          <path id="Trazado_162626" data-name="Trazado 162626" d="M993.444,428.341a11.755,11.755,0,1,1,16.083-14.889,2.659,2.659,0,0,1-4.945,1.954,6.438,6.438,0,1,0-3.618,8.355c.142-.056.281-.117.418-.183a2.658,2.658,0,1,1,2.3,4.793h0A11.7,11.7,0,0,1,993.444,428.341Z" fill="#327290"/>
        </g>
        <path id="Trazado_162627" data-name="Trazado 162627" d="M981.629,411.025l-18.639-9.087a1.084,1.084,0,0,1-.5-1.446l.474-.972a1.085,1.085,0,0,1,1.446-.5l18.639,9.087a1.083,1.083,0,0,1,.5,1.446l-.474.972A1.085,1.085,0,0,1,981.629,411.025Z" fill="#1a5470"/>
      </g>
      <path id="Trazado_162628" data-name="Trazado 162628" d="M938.632,394.515a3.138,3.138,0,0,0,.476,1.34c.373.456,1.46,1.56,1.479,2.206,0,0-.055.287-.288.235s-1.042-.854-1.457-.8a8.147,8.147,0,0,0,.441,1.66,4.537,4.537,0,0,1,.492,2.054c-.132.315-2.33-1.517-3-2.413s-.01-4.529-.01-4.529Z" fill="#fceabe"/>
      <path id="Trazado_162629" data-name="Trazado 162629" d="M934.184,363.033s-5.551-.3-6.538,3.182,1.85,17.4,2.462,18.833c1.113,2.614,6.532,10.074,6.532,10.074l1.992-.606s-3.613-11.4-4.42-12.526C932.947,380.219,935.845,364.549,934.184,363.033Z" fill="#fceabe"/>
      <path id="Trazado_162630" data-name="Trazado 162630" d="M926.551,370.875c.015.082,5.253.964,8.53-.7,0,0,2.737-8.575-1.174-8.165s-6.228,1.642-6.327,3.515A35.914,35.914,0,0,1,926.551,370.875Z" fill="#fbd775"/>
      <path id="Trazado_162631" data-name="Trazado 162631" d="M949.744,380.867a2.167,2.167,0,0,0-.92.232c-.3.233-.643.639.035.977,1.018.507,3.052.282,2.973-.023C951.582,381.091,951.214,380.8,949.744,380.867Z" fill="#fceabe"/>
    </g>
    <g id="Grupo_101423" data-name="Grupo 101423">
      <path id="Trazado_162632" data-name="Trazado 162632" d="M978.993,244.352a.95.95,0,0,0-.169,1.016v.005a6.316,6.316,0,0,0,1.995,2.188c.12.1.227.186.32.267l.072.065.055.05c.877.808.547.993,2.122,2.633,1.8,1.869,3.032,1.9,3.384,1.732.3-.145-.307-1.136-.977-2.25l-.1-.162c-.089-.148-.178-.3-.266-.447-.785-1.34-.584-1.97-.4-3.965.151-1.621,2.522-9.057,2.522-9.057l-3.442-.593s-1.036,5.921-2.178,6.833c-.611.486-1.294.492-1.881.853l-.122.077A4.534,4.534,0,0,0,978.993,244.352Z" fill="#fceabe"/>
      <path id="Trazado_162633" data-name="Trazado 162633" d="M978.993,244.352a.95.95,0,0,0-.169,1.016h0a7.312,7.312,0,0,0,2,2.181c.119.1.224.189.317.274l.072.065.055.05c.877.808.547.993,2.122,2.633,1.8,1.869,3.032,1.9,3.384,1.732.3-.145-.307-1.136-.977-2.25a7.67,7.67,0,0,1-3.2-2.359c-1.081-1.38-1.8-3.153-2.539-4.18-.041.025-.082.051-.121.077A4.5,4.5,0,0,0,978.993,244.352Z" fill="#1a5470"/>
      <path id="Trazado_162634" data-name="Trazado 162634" d="M1006.744,242.2c.213,1.062,1.727.885,3.419.472s1.29.078,3.7-.188,3.137-1.164,3.211-1.522c.065-.318-1.125-.43-2.4-.577-.16-.018-.322-.038-.483-.058-1.441-.181-2.5-1.11-3.8-1.874-1.24-.723-3.09-3.67-3.09-3.67l-3.3.261s1.733,2.632,2.4,3.776a3.984,3.984,0,0,1,.324,2.25A4.277,4.277,0,0,0,1006.744,242.2Z" fill="#fceabe"/>
      <path id="Trazado_162635" data-name="Trazado 162635" d="M1010.163,242.674c1.692-.413,1.29.078,3.7-.188s3.137-1.164,3.211-1.523c.065-.317-1.124-.43-2.4-.577l-.012.025a6.792,6.792,0,0,1-3.448,1.072c-1.633.04-3.364-.428-4.492-.41a4.277,4.277,0,0,0,.025,1.13C1006.958,243.264,1008.471,243.087,1010.163,242.674Z" fill="#1a5470"/>
      <path id="Trazado_162636" data-name="Trazado 162636" d="M994.089,221.088,991,229.394l-4.031,10.846a6.549,6.549,0,0,1-2.141-.2,9.331,9.331,0,0,1-2.07-1.008s1.12-11.645,3.208-18.33a11.872,11.872,0,0,1,1.8-3.885C991,213,994.089,221.088,994.089,221.088Z" fill="#1a5470"/>
      <path id="Trazado_162637" data-name="Trazado 162637" d="M990.951,207.9c-2.022-.652-7.79.185-13.584,1.32l-1.213-2-12.515-.977s-4.13,9.158-1.869,14.994a2.115,2.115,0,0,0,2.118,1.426h10.05c6.224,0,13.172-4.278,14.071-4.458,1.471-.294,2.06,2.648,3.531,5.737s13.829,13.682,13.829,13.682a10.865,10.865,0,0,0,2.684-.275,2.637,2.637,0,0,0,1.152-.727S995.511,209.367,990.951,207.9Z" fill="#327290"/>
      <path id="Trazado_162638" data-name="Trazado 162638" d="M972.007,169.116a13.206,13.206,0,0,0-4.552.037c-4.762.469-6.362,5.781-5.642,9.9.665,3.8-1.264,4.856-3.5,7.86-4.483,6.023-1.553,11.1,1.984,12.412,2.122.786,5.069-1.2,5.069-1.2.053.021,9.259-6.031,13.032-9.443C984.684,186.232,976.476,170.266,972.007,169.116Z" fill="#7d6614"/>
      <path id="Trazado_162639" data-name="Trazado 162639" d="M972.71,186.538c.125.441-1.958,1.251-3.548.953-1.5-.279-3.172-2.03-2.827-2.195.573-.272.958-.948.645-4.606l.285.032,4.786.546s.014,1.491.126,2.887A9.454,9.454,0,0,0,972.71,186.538Z" fill="#fceabe"/>
      <path id="Trazado_162640" data-name="Trazado 162640" d="M972.051,181.268s.015,1.491.126,2.888c-2.641.142-4.232-2.148-4.912-3.434Z" fill="#edd5a2"/>
      <path id="Trazado_162641" data-name="Trazado 162641" d="M973.039,182.519s-6.227.614-6.55-3.27-1.344-6.42,2.618-6.976,4.858.862,5.281,2.132S974.651,182.259,973.039,182.519Z" fill="#fceabe"/>
      <path id="Trazado_162642" data-name="Trazado 162642" d="M972.373,171.66s-.784,4.744-4.331,5.87c-2.587.821-3.759.28-3.759.28a10.534,10.534,0,0,0,1.688-3.948,1.9,1.9,0,0,1,1.267-1.449C969.076,171.809,971.306,170.156,972.373,171.66Z" fill="#7d6614"/>
      <path id="Trazado_162643" data-name="Trazado 162643" d="M971.2,172.674a4.114,4.114,0,0,1,2.213,1.776,7.941,7.941,0,0,1,1.114,3.837s1.09-4.391-.5-6.025C972.342,170.527,971.2,172.674,971.2,172.674Z" fill="#7d6614"/>
      <path id="Trazado_162644" data-name="Trazado 162644" d="M961.5,199.295c.111.472.206.906.283,1.306.127.646.214,1.2.275,1.694.19,1.532.133,2.439.262,3.432a8.6,8.6,0,0,0,.466,1.869c.258.711,7.024,1.345,10.874,1.09a5.276,5.276,0,0,0,2.485-.537c1.373-1.193,1.236,1.43,1.425-11.122.091-6.122-5.2-11.575-5.2-11.575s-.422,2.615-5.665-.5c-.187-.109-2.251,2.948-4.239,6.713C960.279,195.826,960.879,196.706,961.5,199.295Z" fill="#fbd775"/>
      <path id="Trazado_162645" data-name="Trazado 162645" d="M991,229.394l-4.031,10.846a6.549,6.549,0,0,1-2.141-.2,9.287,9.287,0,0,1-2.07-1.008s1.12-11.645,3.208-18.33Z" fill="#1a5470"/>
      <path id="Trazado_162646" data-name="Trazado 162646" d="M972.372,185.45s5.394.915,6.028,3.237S983.41,204,983.41,204s-3.391,1.157-4.658-.109-4.408-11.754-4.408-11.754Z" fill="#fbd775"/>
      <path id="Trazado_162647" data-name="Trazado 162647" d="M971.6,180.228a1.072,1.072,0,0,0,.95.639c.689,0,.875-.1,1.006-.249a2.117,2.117,0,0,0,.26-.427A5.859,5.859,0,0,0,971.6,180.228Z" fill="#fff"/>
      <path id="Trazado_162648" data-name="Trazado 162648" d="M962.056,202.295c.19,1.532.133,2.439.261,3.432,4.9.016,11.447-3.782,11.447-3.782Z" fill="#fac551"/>
      <path id="Trazado_162649" data-name="Trazado 162649" d="M973.765,198.732s-7.631-.227-8.917-4.564c-1.413-4.765-3,1.959-3,1.959l.842,4.292h8.372Z" fill="#fac551"/>
      <g id="Grupo_101422" data-name="Grupo 101422">
        <path id="Trazado_162650" data-name="Trazado 162650" d="M987.066,186.96l-.412-1.021a2.9,2.9,0,0,0-2.686-1.812h-7.606V209.56h31.466v-20.6H990.022A3.188,3.188,0,0,1,987.066,186.96Z" fill="#359ee7"/>
        <g id="Grupo_101421" data-name="Grupo 101421">
          <path id="Trazado_162651" data-name="Trazado 162651" d="M981.108,199.6v-1.833l6.43-2.816v1.873l-4.49,1.847,4.49,1.846v1.9Z" fill="#fff"/>
          <path id="Trazado_162652" data-name="Trazado 162652" d="M994.221,192.755h1.715l-5.886,12.3h-1.715Z" fill="#fff"/>
          <path id="Trazado_162653" data-name="Trazado 162653" d="M1003.081,197.763V199.6l-6.43,2.816V200.54l4.49-1.847-4.49-1.847v-1.9Z" fill="#fff"/>
        </g>
      </g>
      <path id="Trazado_162654" data-name="Trazado 162654" d="M973.764,199.733l.552-.867a4.441,4.441,0,0,0,1.05-.573c.729-.512.634-1.278,1-1.2v1.685l-.038.006c1.563.417,3.391-.036,3.428.353.1,1.071-.728,1.553-1.422,1.889a2.517,2.517,0,0,1-2.094.343c-.7-.218-1.806-.44-1.806-.44Z" fill="#fceabe"/>
      <path id="Trazado_162655" data-name="Trazado 162655" d="M966.7,184.955s-4.953.324-6.191,2.256-2.774,11.74-2.13,15.108,16.506-.644,16.506-.644l-.506-2.923s-9.154.053-9.676-1.139C964.015,196.028,966.7,184.955,966.7,184.955Z" fill="#fbd775"/>
      <path id="Trazado_162656" data-name="Trazado 162656" d="M990.616,188.946a1.844,1.844,0,0,0,1.869,1.2c.7-.141,1.613-1.651.812-1.984A2.278,2.278,0,0,0,990.616,188.946Z" fill="#fceabe"/>
    </g>
    <g id="Grupo_101429" data-name="Grupo 101429">
      <g id="Grupo_101424" data-name="Grupo 101424">
        <rect id="Rectángulo_24566" data-name="Rectángulo 24566" width="39.06" height="0.189" transform="matrix(0.471, -0.882, 0.882, 0.471, 1038.876, 256.982)" fill="#327290"/>
      </g>
      <g id="Grupo_101425" data-name="Grupo 101425">
        <rect id="Rectángulo_24567" data-name="Rectángulo 24567" width="0.189" height="30.42" transform="translate(1103.96 222.626) rotate(-42.827)" fill="#327290"/>
      </g>
      <g id="Grupo_101428" data-name="Grupo 101428">
        <path id="Trazado_162657" data-name="Trazado 162657" d="M1137.561,251.384a8.277,8.277,0,0,1-1.543,6.06,7.892,7.892,0,0,1-5.278,3.156l-92.455,12.7a8.465,8.465,0,0,1-9.7-6.947,7.968,7.968,0,0,1,1.732-6.084,8.875,8.875,0,0,1,5.731-3.219l92.455-12.7A8.132,8.132,0,0,1,1137.561,251.384Z" fill="#fff"/>
        <path id="Trazado_162658" data-name="Trazado 162658" d="M1137.559,251.384a8.277,8.277,0,0,1-1.543,6.06,7.886,7.886,0,0,1-5.276,3.156l-16.729,2.3-2.233-16.25,16.73-2.3A8.13,8.13,0,0,1,1137.559,251.384Z" fill="#327290"/>
        <g id="Grupo_101427" data-name="Grupo 101427">
          <g id="Grupo_101426" data-name="Grupo 101426">
            <path id="Trazado_162659" data-name="Trazado 162659" d="M1127.381,255.793a4.181,4.181,0,0,1-3.5-7.13h0a4.18,4.18,0,1,1,3.5,7.13Zm-3.018-6.638a3.491,3.491,0,1,0,4.937.057A3.491,3.491,0,0,0,1124.363,249.155Z" fill="#fff"/>
          </g>
          <rect id="Rectángulo_24568" data-name="Rectángulo 24568" width="5.704" height="0.688" transform="matrix(0.715, -0.699, 0.699, 0.715, 1119.736, 258.073)" fill="#fff"/>
          <path id="Trazado_162660" data-name="Trazado 162660" d="M1118.557,259.7h0a.615.615,0,0,1,.01-.869l2.4-2.348a.615.615,0,0,1,.869.01h0a.613.613,0,0,1-.009.868h0l-2.4,2.348A.615.615,0,0,1,1118.557,259.7Z" fill="#fff"/>
        </g>
      </g>
    </g>
    <g id="Grupo_101432" data-name="Grupo 101432">
      <path id="Rectángulo_24569" data-name="Rectángulo 24569" d="M963.138,337.92h19.01a.88.88,0,0,1,.881.881h0a.881.881,0,0,1-.881.881h-19.01a.882.882,0,0,1-.881-.881h0A.881.881,0,0,1,963.138,337.92Z" fill="#fbd775"/>
      <g id="Grupo_101431" data-name="Grupo 101431">
        <path id="Trazado_162661" data-name="Trazado 162661" d="M972.389,345.742h-9.531a.6.6,0,0,1-.6-.6h0a.6.6,0,0,1,.6-.6h9.531a.6.6,0,0,1,.6.6h0A.6.6,0,0,1,972.389,345.742Z" fill="#327290"/>
        <g id="Grupo_101430" data-name="Grupo 101430">
          <path id="Rectángulo_24570" data-name="Rectángulo 24570" d="M962.857,342.017h16.788a.6.6,0,0,1,.6.6h0a.6.6,0,0,1-.6.6H962.857a.6.6,0,0,1-.6-.6h0a.6.6,0,0,1,.6-.6Z" fill="#327290"/>
          <rect id="Rectángulo_24571" data-name="Rectángulo 24571" width="16.798" height="1.203" rx="0.601" transform="translate(981.886 342.017)" fill="#327290"/>
          <path id="Trazado_162662" data-name="Trazado 162662" d="M984.277,345.742h-9.531a.6.6,0,0,1-.6-.6h0a.6.6,0,0,1,.6-.6h9.531a.6.6,0,0,1,.6.6h0A.6.6,0,0,1,984.277,345.742Z" fill="#327290"/>
        </g>
      </g>
      <path id="Rectángulo_24572" data-name="Rectángulo 24572" d="M986.659,337.92h19.01a.88.88,0,0,1,.881.881h0a.881.881,0,0,1-.881.881h-19.01a.882.882,0,0,1-.881-.881h0a.881.881,0,0,1,.881-.881Z" fill="#fbd775"/>
    </g>
    <g id="Grupo_101435" data-name="Grupo 101435">
      <path id="Rectángulo_24573" data-name="Rectángulo 24573" d="M963.138,351.19h19.01a.88.88,0,0,1,.881.881h0a.881.881,0,0,1-.881.881h-19.01a.882.882,0,0,1-.881-.881h0a.881.881,0,0,1,.881-.881Z" fill="#fbd775"/>
      <g id="Grupo_101434" data-name="Grupo 101434">
        <path id="Trazado_162663" data-name="Trazado 162663" d="M972.389,359.012h-9.531a.6.6,0,0,1-.6-.6h0a.6.6,0,0,1,.6-.6h9.531a.6.6,0,0,1,.6.6h0A.6.6,0,0,1,972.389,359.012Z" fill="#327290"/>
        <g id="Grupo_101433" data-name="Grupo 101433">
          <path id="Rectángulo_24574" data-name="Rectángulo 24574" d="M962.857,355.287h16.788a.6.6,0,0,1,.6.6h0a.6.6,0,0,1-.6.6H962.857a.6.6,0,0,1-.6-.6h0a.6.6,0,0,1,.6-.6Z" fill="#327290"/>
          <path id="Rectángulo_24575" data-name="Rectángulo 24575" d="M982.486,355.287h15.6a.6.6,0,0,1,.6.6h0a.6.6,0,0,1-.6.6h-15.6a.6.6,0,0,1-.6-.6h0a.6.6,0,0,1,.6-.6Z" fill="#327290"/>
          <path id="Trazado_162664" data-name="Trazado 162664" d="M984.277,359.012h-9.531a.6.6,0,0,1-.6-.6h0a.6.6,0,0,1,.6-.6h9.531a.6.6,0,0,1,.6.6h0A.6.6,0,0,1,984.277,359.012Z" fill="#327290"/>
        </g>
      </g>
      <path id="Rectángulo_24576" data-name="Rectángulo 24576" d="M986.659,351.19h19.01a.88.88,0,0,1,.881.881h0a.881.881,0,0,1-.881.881h-19.01a.882.882,0,0,1-.881-.881h0a.881.881,0,0,1,.881-.881Z" fill="#fbd775"/>
    </g>
    <g id="Grupo_101436" data-name="Grupo 101436">
      <path id="Trazado_162665" data-name="Trazado 162665" d="M1082.7,272.3l-11.031,2.567-5.455,9.926-4.165-22.622Z" fill="#1a5470"/>
      <rect id="Rectángulo_24577" data-name="Rectángulo 24577" width="2.017" height="11.667" transform="translate(1069.46 273.91) rotate(-37.154)" fill="#1a5470"/>
    </g>
    <g id="Grupo_101438" data-name="Grupo 101438">
      <path id="Rectángulo_24578" data-name="Rectángulo 24578" d="M1055.548,287.962h12.736a9.184,9.184,0,0,1,9.181,9.184v12.735a9.183,9.183,0,0,1-9.181,9.181h-12.736a9.183,9.183,0,0,1-9.183-9.181V297.145A9.183,9.183,0,0,1,1055.548,287.962Z" fill="#e5effd"/>
      <g id="Grupo_101437" data-name="Grupo 101437">
        <path id="Trazado_162666" data-name="Trazado 162666" d="M1050.34,312.559l6.043-10.9a1.988,1.988,0,0,1,3.342-.211l3.486,4.755a1.987,1.987,0,0,0,2.778.427,2.011,2.011,0,0,0,.292-.261h0a1.989,1.989,0,0,1,3.135.261l3.762,5.808a1.989,1.989,0,0,1-1.669,3.069h-19.431a1.987,1.987,0,0,1-1.738-2.948Z" fill="#327290"/>
        <path id="Trazado_162667" data-name="Trazado 162667" d="M1062.265,296.574a2.377,2.377,0,1,1,2.377,2.377h0A2.377,2.377,0,0,1,1062.265,296.574Z" fill="#327290"/>
      </g>
    </g>
    <g id="Grupo_101440" data-name="Grupo 101440">
      <path id="Trazado_162668" data-name="Trazado 162668" d="M1115.268,319.9l-26.877,3.666a1.987,1.987,0,0,1-2.238-1.7h0l-3.666-26.877a1.988,1.988,0,0,1,1.7-2.238l26.878-3.667a1.988,1.988,0,0,1,2.238,1.7l3.666,26.878A1.987,1.987,0,0,1,1115.268,319.9Z" fill="#e5effd"/>
      <g id="Grupo_101439" data-name="Grupo 101439">
        <path id="Trazado_162669" data-name="Trazado 162669" d="M1089.478,316.854l4.516-11.613a1.988,1.988,0,0,1,3.282-.661l4.1,4.24a1.988,1.988,0,0,0,2.811.048,2.061,2.061,0,0,0,.253-.3h0a1.988,1.988,0,0,1,3.142-.165l4.512,5.246a1.989,1.989,0,0,1-1.238,3.266l-19.253,2.626a1.988,1.988,0,0,1-2.126-2.689Z" fill="#327290"/>
        <path id="Trazado_162670" data-name="Trazado 162670" d="M1099.136,299.4a2.377,2.377,0,1,1,2.677,2.034A2.376,2.376,0,0,1,1099.136,299.4Z" fill="#327290"/>
      </g>
    </g>
    <g id="Grupo_101441" data-name="Grupo 101441">
      <rect id="Rectángulo_24579" data-name="Rectángulo 24579" width="15.674" height="13.439" transform="translate(1020.565 415.985)" fill="#fbd775"/>
      <rect id="Rectángulo_24580" data-name="Rectángulo 24580" width="16.838" height="1.038" transform="translate(1019.932 415.41)" fill="#8ec3f1"/>
      <rect id="Rectángulo_24581" data-name="Rectángulo 24581" width="15.674" height="4.269" transform="translate(1020.565 419.621)" fill="#8ec3f1"/>
    </g>
    <path id="Trazado_162671" data-name="Trazado 162671" d="M1055.309,429.435h-14.8a.981.981,0,0,1-.981-.981v-1.642a.981.981,0,0,1,.981-.981.961.961,0,0,1,.108.006l14.8,1.641a.981.981,0,0,1,.874.975h0a.982.982,0,0,1-.98.982Z" fill="#fbd775"/>
    <path id="Trazado_162672" data-name="Trazado 162672" d="M1213.853,430.747l-331.081-.114a.463.463,0,0,1-.4-.5v-.257a.462.462,0,0,1,.4-.5l331.081.114a.462.462,0,0,1,.4.5v.257A.463.463,0,0,1,1213.853,430.747Z" fill="#1a5470"/>
    <g id="Grupo_101442" data-name="Grupo 101442">
      <path id="Trazado_162673" data-name="Trazado 162673" d="M1029.456,320.286h-1.706a.281.281,0,0,1,0-.561h1.694a.284.284,0,0,1,.286.28.274.274,0,0,1-.269.281Zm-3.4,0h-1.694a.281.281,0,0,1,0-.561h1.694a.281.281,0,1,1,0,.561Zm-3.388,0h-1.7a.281.281,0,0,1,0-.561h1.7a.281.281,0,1,1,0,.561Zm-3.389,0h-1.694a.281.281,0,0,1,0-.561h1.694a.281.281,0,1,1,0,.561Zm-3.388,0H1014.2a.281.281,0,0,1,0-.561h1.694a.281.281,0,1,1,0,.561Zm-3.388,0h-1.694a.281.281,0,0,1,0-.561h1.694a.281.281,0,1,1,0,.561Zm-3.388,0h-1.693a.281.281,0,1,1,0-.561h1.693a.281.281,0,1,1,0,.561Zm-3.387,0h-1.694a.281.281,0,1,1,0-.561h1.694a.281.281,0,0,1,0,.561Zm-3.388,0h-1.694a.281.281,0,1,1,0-.561h1.694a.281.281,0,0,1,0,.561Zm-3.388,0h-1.694a.281.281,0,1,1,0-.561h1.694a.281.281,0,0,1,0,.561Zm-3.388,0h-1.7a.281.281,0,0,1,0-.561h1.694a.281.281,0,1,1,0,.561Zm-3.388,0h-1.694a.281.281,0,1,1,0-.561h1.694a.281.281,0,0,1,0,.561Zm-3.388,0h-1.694a.281.281,0,1,1,0-.561h1.694a.281.281,0,0,1,0,.561Zm-3.388,0h-1.694a.281.281,0,1,1,0-.561H985.4a.281.281,0,0,1,0,.561Zm-3.388,0h-1.694a.281.281,0,1,1,0-.561h1.694a.281.281,0,0,1,0,.561Zm-3.388,0H976.93a.281.281,0,0,1,0-.561h1.694a.281.281,0,1,1,0,.561Zm-3.388,0h-1.694a.281.281,0,0,1,0-.561h1.694a.281.281,0,1,1,0,.561Zm-3.388,0h-1.51c-.066,0-.133,0-.2-.006a.281.281,0,0,1,.035-.56c.055,0,.11.005.166.005h1.51a.281.281,0,1,1,0,.561Zm59.2-.493a.28.28,0,0,1-.158-.512,2.576,2.576,0,0,0,.946-1.172.28.28,0,1,1,.52.209,3.135,3.135,0,0,1-1.151,1.426.281.281,0,0,1-.154.049Zm-62.46-.1a.279.279,0,0,1-.171-.059,3.134,3.134,0,0,1-1.063-1.492.28.28,0,1,1,.532-.178,2.573,2.573,0,0,0,.874,1.226.28.28,0,0,1-.171.5Zm63.715-2.865a.281.281,0,0,1-.281-.28v-1.694a.281.281,0,0,1,.561,0v1.694a.281.281,0,0,1-.277.279Zm-64.83-.172a.281.281,0,0,1-.281-.281h0v-1.7a.28.28,0,1,1,.561,0v1.694a.28.28,0,0,1-.275.285h0Zm64.83-3.216a.281.281,0,0,1-.281-.281h0v-1.694a.281.281,0,0,1,.561,0v1.694a.281.281,0,0,1-.277.279Zm-64.83-.172a.28.28,0,0,1-.281-.279v-1.7a.28.28,0,0,1,.561,0h0v1.694a.28.28,0,0,1-.277.279Zm64.83-3.216a.281.281,0,0,1-.281-.28v-1.7a.281.281,0,0,1,.561,0v1.694a.281.281,0,0,1-.277.281Zm-64.83-.172a.28.28,0,0,1-.281-.279h0v-1.694a.28.28,0,0,1,.561,0V309.6a.28.28,0,0,1-.277.275Zm64.83-3.216a.281.281,0,0,1-.281-.28V304.69a.281.281,0,0,1,.561,0v1.694a.28.28,0,0,1-.277.278Zm-64.83-.172a.28.28,0,0,1-.281-.279h0v-1.694a.28.28,0,0,1,.561,0v1.694a.28.28,0,0,1-.277.278Zm64.83-3.216a.281.281,0,0,1-.281-.28V301.3a.281.281,0,0,1,.561,0V303a.28.28,0,0,1-.277.279Zm-64.83-.172a.28.28,0,0,1-.281-.279h0V301.13a.28.28,0,0,1,.561,0v1.694a.28.28,0,0,1-.277.278Zm64.83-3.216a.281.281,0,0,1-.281-.281h0v-1.694a.281.281,0,0,1,.561,0v1.694a.281.281,0,0,1-.277.279Zm-64.83-.172a.281.281,0,0,1-.281-.281h0v-1.694a.28.28,0,0,1,.561,0v1.694a.281.281,0,0,1-.277.279Zm64.83-3.216a.281.281,0,0,1-.281-.281h0v-1.694a.281.281,0,0,1,.561,0v1.694a.281.281,0,0,1-.277.279Zm-64.83-.172a.281.281,0,0,1-.281-.281h0v-1.694a.28.28,0,0,1,.561,0v1.694a.281.281,0,0,1-.277.279Zm64.83-3.216a.281.281,0,0,1-.281-.281h0v-1.694a.281.281,0,0,1,.561,0v1.694a.281.281,0,0,1-.277.279Zm-64.83-.172a.28.28,0,0,1-.281-.279h0v-1.694a.28.28,0,0,1,.561,0v1.694a.281.281,0,0,1-.277.277Zm64.83-3.216a.281.281,0,0,1-.281-.281h0v-1.694a.281.281,0,0,1,.561,0v1.694a.281.281,0,0,1-.277.279Zm-64.83-.172a.281.281,0,0,1-.281-.281h0v-1.7a.28.28,0,1,1,.561,0v1.694a.28.28,0,0,1-.277.28Zm64.83-3.216a.281.281,0,0,1-.281-.281h0v-.765a2.592,2.592,0,0,0-.134-.824.28.28,0,0,1,.531-.178h0a3.119,3.119,0,0,1,.164,1v.765a.28.28,0,0,1-.277.28Zm-64.83-.172a.281.281,0,0,1-.281-.281h0v-.592a3.12,3.12,0,0,1,.229-1.18.281.281,0,0,1,.52.211,2.6,2.6,0,0,0-.188.969v.592a.28.28,0,0,1-.277.278Zm63.71-2.863a.272.272,0,0,1-.171-.058,2.568,2.568,0,0,0-1.409-.527.281.281,0,1,1,.034-.56,3.125,3.125,0,0,1,1.716.642.28.28,0,0,1-.171.5Zm-62.449-.1a.28.28,0,0,1-.157-.512,3.117,3.117,0,0,1,1.751-.538h0a.281.281,0,1,1,0,.561,2.564,2.564,0,0,0-1.439.441.282.282,0,0,1-.153.045Zm59.193-.49h-1.694a.281.281,0,0,1,0-.561h1.694a.281.281,0,1,1,0,.561Zm-3.388,0h-1.694a.281.281,0,0,1,0-.561h1.694a.281.281,0,1,1,0,.561Zm-3.388,0h-1.694a.281.281,0,0,1,0-.561h1.694a.281.281,0,1,1,0,.561Zm-3.388,0h-1.7a.281.281,0,0,1,0-.561h1.7a.281.281,0,1,1,0,.561Zm-3.388,0h-1.694a.281.281,0,0,1,0-.561h1.694a.281.281,0,1,1,0,.561Zm-3.388,0h-1.694a.281.281,0,0,1,0-.561h1.694a.281.281,0,1,1,0,.561Zm-3.388,0h-1.693a.281.281,0,1,1,0-.561h1.693a.281.281,0,1,1,0,.561Zm-3.387,0h-1.694a.281.281,0,1,1,0-.561h1.694a.281.281,0,0,1,0,.561Zm-3.388,0H999.13a.281.281,0,1,1,0-.561h1.694a.281.281,0,0,1,0,.561Zm-3.388,0h-1.694a.281.281,0,1,1,0-.561h1.694a.281.281,0,0,1,0,.561Zm-3.388,0h-1.694a.281.281,0,1,1,0-.561h1.694a.281.281,0,0,1,0,.561Zm-3.388,0h-1.692a.281.281,0,0,1,0-.561h1.694a.281.281,0,1,1,0,.561Zm-3.388,0h-1.694a.281.281,0,1,1,0-.561h1.694a.281.281,0,0,1,0,.561Zm-3.388,0H982.19a.281.281,0,1,1,0-.561h1.694a.281.281,0,0,1,0,.561Zm-3.388,0H978.8a.281.281,0,1,1,0-.561H980.5a.281.281,0,0,1,0,.561Zm-3.388,0h-1.694a.281.281,0,0,1,0-.561h1.694a.281.281,0,1,1,0,.561Zm-3.388,0h-1.694a.281.281,0,0,1,0-.561h1.694a.281.281,0,1,1,0,.561Z" fill="#327290"/>
    </g>
    <g id="Grupo_101443" data-name="Grupo 101443">
      <path id="Trazado_162674" data-name="Trazado 162674" d="M1125.756,367.3h-1.511a.25.25,0,0,1,0-.5h1.5a.252.252,0,0,1,.253.248.244.244,0,0,1-.235.252Zm-3.011,0h-1.5a.25.25,0,0,1,0-.5h1.5a.25.25,0,0,1,0,.5Zm-3,0h-1.5a.25.25,0,0,1,0-.5h1.5a.25.25,0,0,1,0,.5Zm-3,0h-1.5a.25.25,0,0,1,0-.5h1.5a.25.25,0,0,1,0,.5Zm-3,0h-1.5a.25.25,0,0,1,0-.5h1.5a.25.25,0,0,1,0,.5Zm-3,0h-1.5a.25.25,0,0,1,0-.5h1.5a.25.25,0,0,1,0,.5Zm-3,0h-1.5a.25.25,0,0,1,0-.5h1.5a.25.25,0,0,1,0,.5Zm-3,0h-1.5a.25.25,0,0,1,0-.5h1.5a.25.25,0,0,1,0,.5Zm-3,0h-1.5a.25.25,0,0,1,0-.5h1.5a.25.25,0,0,1,0,.5Zm-3,0h-1.513a.25.25,0,1,1,.024-.5h1.489a.25.25,0,0,1,0,.5Zm27.995-.951h-.008a.249.249,0,0,1-.24-.256V364.6a.25.25,0,1,1,.5,0v1.509a.248.248,0,0,1-.255.241h0Zm-30.426-.04a.248.248,0,0,1-.249-.247h0v-1.5a.25.25,0,0,1,.5,0v1.5a.248.248,0,0,1-.243.253h-.022Zm30.426-2.961a.249.249,0,0,1-.249-.249h0v-1.5a.25.25,0,0,1,.5,0v1.5a.248.248,0,0,1-.247.249h0Zm-30.426-.04a.248.248,0,0,1-.249-.247h0v-1.5a.25.25,0,0,1,.5,0v1.5a.248.248,0,0,1-.248.248h0Zm30.426-2.961a.249.249,0,0,1-.249-.249h0v-1.5a.25.25,0,0,1,.5,0v1.5a.248.248,0,0,1-.247.249h0Zm-30.426-.04a.248.248,0,0,1-.249-.247h0v-1.511a.244.244,0,0,1,.249-.239h.009a.25.25,0,0,1,.238.258v1.491a.249.249,0,0,1-.249.247h0Zm29.49-2.445h-1.5a.25.25,0,0,1,0-.5h1.512a.25.25,0,0,1-.011.5Zm-3,0h-1.5a.25.25,0,0,1,0-.5h1.5a.25.25,0,0,1,0,.5Zm-3,0h-1.5a.25.25,0,0,1,0-.5h1.5a.25.25,0,0,1,0,.5Zm-3,0h-1.5a.25.25,0,0,1,0-.5h1.5a.25.25,0,0,1,0,.5Zm-3,0h-1.5a.25.25,0,0,1,0-.5h1.5a.25.25,0,0,1,0,.5Zm-3,0h-1.5a.25.25,0,0,1,0-.5h1.5a.25.25,0,0,1,0,.5Zm-3,0h-1.5a.25.25,0,0,1,0-.5h1.5a.25.25,0,0,1,0,.5Zm-3,0h-1.5a.25.25,0,0,1,0-.5h1.5a.25.25,0,0,1,0,.5Zm-3,0h-1.5a.25.25,0,0,1,0-.5h1.5a.25.25,0,0,1,0,.5Zm-3,0h-1.5a.251.251,0,0,1-.251-.248.245.245,0,0,1,.244-.248h1.5a.25.25,0,0,1,0,.5Z" fill="#327290"/>
    </g>
    <g id="Grupo_101444" data-name="Grupo 101444">
      <path id="Trazado_162675" data-name="Trazado 162675" d="M1018.563,277.742h-1.671a.281.281,0,0,1,0-.561h1.661a.284.284,0,0,1,.286.281.276.276,0,0,1-.272.28Zm-3.332,0h-1.661a.281.281,0,0,1,0-.561h1.661a.281.281,0,0,1,0,.561Zm-3.322,0h-1.66a.281.281,0,0,1,0-.561h1.66a.281.281,0,1,1,.034.561A.192.192,0,0,1,1011.909,277.742Zm-3.321,0h-1.66a.281.281,0,0,1,0-.561h1.66a.281.281,0,1,1,.034.561A.192.192,0,0,1,1008.588,277.742Zm-3.321,0h-1.661a.281.281,0,0,1,0-.561h1.661a.281.281,0,0,1,0,.561Zm-3.321,0h-1.661a.281.281,0,0,1-.034-.561.192.192,0,0,1,.034,0h1.661a.281.281,0,0,1,0,.561Zm-3.322,0h-1.661a.281.281,0,0,1,0-.561h1.661a.281.281,0,0,1,0,.561Zm-3.29-.179a.28.28,0,0,1-.138-.037,1.664,1.664,0,0,1-.842-1.445v-.2a.28.28,0,1,1,.561,0v.2a1.1,1.1,0,0,0,.558.957.28.28,0,0,1-.138.524Zm24.509-.715a.28.28,0,0,1-.279-.282.292.292,0,0,1,.017-.1,1.09,1.09,0,0,0,.07-.387v-1.164a.281.281,0,1,1,.561-.033.175.175,0,0,1,0,.033v1.164a1.623,1.623,0,0,1-.106.585.279.279,0,0,1-.262.181Zm-25.209-2.35a.28.28,0,0,1-.28-.28h0v-1.661a.28.28,0,1,1,.561,0h0v1.661a.281.281,0,0,1-.28.281Zm25.3-.96a.281.281,0,0,1-.28-.281V271.6a.281.281,0,0,1,.561-.033.186.186,0,0,1,0,.033v1.661a.281.281,0,0,1-.282.28h0Zm-25.3-2.361a.28.28,0,0,1-.28-.28h0v-1.661a.28.28,0,1,1,.561,0h0V270.9a.281.281,0,0,1-.28.281Zm25.3-.96a.28.28,0,0,1-.28-.28h0v-1.661a.281.281,0,0,1,.561-.033.186.186,0,0,1,0,.033v1.661a.281.281,0,0,1-.282.28h0Zm-25.3-2.361a.28.28,0,0,1-.28-.28h0v-1.661a.28.28,0,1,1,.561,0v1.661a.28.28,0,0,1-.28.28Zm25.3-.96a.28.28,0,0,1-.28-.28h0v-1.661a.281.281,0,0,1,.561-.033.186.186,0,0,1,0,.033v1.661a.28.28,0,0,1-.282.274Zm-25.3-2.361a.281.281,0,0,1-.28-.28h0V262.59a.28.28,0,1,1,.561,0v1.661a.279.279,0,0,1-.277.283h0Zm25.3-.96a.281.281,0,0,1-.28-.28h0v-1.661a.281.281,0,0,1,.561-.033.186.186,0,0,1,0,.033v1.656a.281.281,0,0,1-.279.283h0Zm-25.3-2.361a.281.281,0,0,1-.28-.28h0v-1.661a.28.28,0,1,1,.561,0h0v1.661a.281.281,0,0,1-.28.28Zm25.3-.96a.281.281,0,0,1-.28-.28h0v-1.661a.281.281,0,0,1,.561-.033.186.186,0,0,1,0,.033v1.661a.28.28,0,0,1-.282.279Zm-25.3-2.361a.281.281,0,0,1-.28-.28h0v-1.159a1.655,1.655,0,0,1,.108-.591.28.28,0,0,1,.524.2h0a1.087,1.087,0,0,0-.072.391v1.159a.281.281,0,0,1-.279.277Zm25.3-.96a.281.281,0,0,1-.28-.28h0v-.2a1.1,1.1,0,0,0-.562-.959.281.281,0,1,1,.275-.489,1.664,1.664,0,0,1,.848,1.448v.2a.28.28,0,0,1-.282.279Zm-2.334-1.578h-1.661a.28.28,0,0,1,0-.561h1.661a.28.28,0,1,1,0,.561Zm-3.321,0h-1.661a.28.28,0,0,1,0-.561h1.661a.28.28,0,1,1,0,.561Zm-3.321,0H1009.3a.28.28,0,0,1,0-.561h1.661a.28.28,0,1,1,0,.561Zm-3.321,0h-1.661a.28.28,0,0,1,0-.561h1.661a.28.28,0,1,1,0,.561Zm-3.322,0h-1.66a.28.28,0,0,1,0-.561h1.66a.28.28,0,1,1,0,.561Zm-3.321,0h-1.661a.28.28,0,0,1,0-.561h1.661a.28.28,0,1,1,0,.561Zm-3.321,0h-1.655a.283.283,0,0,1-.283-.281.277.277,0,0,1,.276-.28h1.663a.28.28,0,0,1,0,.561Z" fill="#327290"/>
    </g>
    <g id="Grupo_101445" data-name="Grupo 101445">
      <path id="Trazado_162676" data-name="Trazado 162676" d="M1125.756,381.151h-1.511a.25.25,0,0,1,0-.5h1.5a.252.252,0,0,1,.253.249.244.244,0,0,1-.236.251Zm-3.011,0h-1.5a.25.25,0,0,1,0-.5h1.5a.25.25,0,0,1,0,.5Zm-3,0h-1.5a.25.25,0,0,1,0-.5h1.5a.25.25,0,0,1,0,.5Zm-3,0h-1.5a.25.25,0,0,1,0-.5h1.5a.25.25,0,0,1,0,.5Zm-3,0h-1.5a.25.25,0,0,1,0-.5h1.5a.25.25,0,0,1,0,.5Zm-3,0h-1.5a.25.25,0,0,1,0-.5h1.5a.25.25,0,0,1,0,.5Zm-3,0h-1.5a.25.25,0,0,1,0-.5h1.5a.25.25,0,0,1,0,.5Zm-3,0h-1.5a.25.25,0,0,1,0-.5h1.5a.25.25,0,0,1,0,.5Zm-3,0h-1.5a.25.25,0,0,1,0-.5h1.5a.25.25,0,0,1,0,.5Zm-3,0h-1.513a.249.249,0,0,1-.237-.259v0a.246.246,0,0,1,.254-.236h1.495a.25.25,0,0,1,0,.5Zm27.995-.951h-.008a.249.249,0,0,1-.24-.256v-1.493a.25.25,0,0,1,.5,0h0v1.508a.248.248,0,0,1-.254.242h0Zm-30.426-.04a.248.248,0,0,1-.249-.247h0v-1.5a.25.25,0,0,1,.5,0h0v1.5a.248.248,0,0,1-.248.248h0Zm30.426-2.961a.248.248,0,0,1-.249-.247h0v-1.5a.25.25,0,0,1,.5,0h0v1.5a.248.248,0,0,1-.248.248h0Zm-30.426-.04a.248.248,0,0,1-.249-.247h0v-1.5a.25.25,0,0,1,.5,0h0v1.5a.248.248,0,0,1-.247.248h0Zm30.426-2.961a.248.248,0,0,1-.249-.247h0v-1.5a.25.25,0,0,1,.5,0v1.5a.249.249,0,0,1-.248.248h0Zm-30.426-.04a.248.248,0,0,1-.249-.247V372.4a.245.245,0,0,1,.25-.239h.008a.25.25,0,0,1,.238.26v1.49a.249.249,0,0,1-.248.249h0Zm29.49-2.445h-1.5a.25.25,0,0,1,0-.5h1.512a.25.25,0,0,1-.011.5Zm-3,0h-1.5a.25.25,0,0,1,0-.5h1.5a.25.25,0,0,1,0,.5Zm-3,0h-1.5a.25.25,0,0,1,0-.5h1.5a.25.25,0,0,1,0,.5Zm-3,0h-1.5a.25.25,0,0,1,0-.5h1.5a.25.25,0,0,1,0,.5Zm-3,0h-1.5a.25.25,0,0,1,0-.5h1.5a.25.25,0,0,1,0,.5Zm-3,0h-1.5a.25.25,0,0,1,0-.5h1.5a.25.25,0,0,1,0,.5Zm-3,0h-1.5a.25.25,0,0,1,0-.5h1.5a.25.25,0,0,1,0,.5Zm-3,0h-1.5a.25.25,0,0,1,0-.5h1.5a.25.25,0,0,1,0,.5Zm-3,0h-1.5a.25.25,0,0,1,0-.5h1.5a.25.25,0,0,1,0,.5Zm-3,0h-1.5a.251.251,0,0,1-.251-.248.245.245,0,0,1,.243-.249h1.5a.25.25,0,0,1,0,.5Z" fill="#327290"/>
    </g>
    <g id="Grupo_101446" data-name="Grupo 101446">
      <path id="Trazado_162677" data-name="Trazado 162677" d="M1007.324,370.716h-1.5a.25.25,0,0,1,0-.5h1.488a.252.252,0,0,1,.254.248.244.244,0,0,1-.236.252Zm-2.986,0h-1.488a.25.25,0,0,1,0-.5h1.488a.25.25,0,0,1,0,.5Zm-2.975,0h-1.485a.25.25,0,0,1,0-.5h1.488a.25.25,0,0,1,0,.5h0Zm-2.976,0H996.9a.25.25,0,0,1,0-.5h1.488a.25.25,0,0,1,0,.5Zm-2.975,0h-1.488a.25.25,0,0,1,0-.5h1.488a.25.25,0,0,1,0,.5Zm-2.976,0h-1.488a.25.25,0,0,1,0-.5h1.488a.25.25,0,0,1,0,.5Zm-2.976,0h-1.488a.25.25,0,0,1,0-.5h1.488a.25.25,0,0,1,0,.5Zm-2.975,0H985a.25.25,0,0,1,0-.5h1.489a.25.25,0,0,1,0,.5Zm-2.975,0h-1.489a.25.25,0,0,1,0-.5h1.489a.25.25,0,0,1,0,.5Zm-2.976,0h-1.488a.25.25,0,0,1,0-.5h1.488a.25.25,0,0,1,0,.5Zm-2.975,0h-1.488a.25.25,0,0,1,0-.5h1.488a.25.25,0,0,1,0,.5Zm-2.975,0H973.1a.25.25,0,0,1,0-.5h1.488a.25.25,0,0,1,0,.5Zm-2.976,0H970.12a.25.25,0,0,1,0-.5h1.488a.25.25,0,0,1,0,.5Zm-2.975,0h-1.488a.25.25,0,0,1,0-.5h1.488a.25.25,0,0,1,0,.5Zm-2.976,0h-1.488a.25.25,0,0,1,0-.5h1.488a.25.25,0,0,1,0,.5Zm-2.976,0h-1.187a2.78,2.78,0,0,1-.329-.019.248.248,0,1,1,.058-.493h0a2.435,2.435,0,0,0,.27.016h1.188a.25.25,0,0,1,0,.5Zm46.044-.429a.249.249,0,0,1-.139-.455,2.292,2.292,0,0,0,.839-1.023.248.248,0,0,1,.458.191h0a2.781,2.781,0,0,1-1.021,1.245.248.248,0,0,1-.137.042Zm-48.875-.175a.25.25,0,0,1-.161-.059,2.772,2.772,0,0,1-.872-1.353.249.249,0,1,1,.478-.137,2.275,2.275,0,0,0,.717,1.111.248.248,0,0,1-.161.438Zm50-2.421a.249.249,0,0,1-.249-.249h0v-1.488a.25.25,0,0,1,.5,0v1.488a.25.25,0,0,1-.249.249h0Zm-50.89-.29a.248.248,0,0,1-.249-.247h0v-1.488a.25.25,0,0,1,.5,0h0v1.488a.249.249,0,0,1-.249.247h0Zm50.89-2.685a.248.248,0,0,1-.249-.247h0V362.98a.25.25,0,0,1,.5,0v1.488a.248.248,0,0,1-.248.248h0Zm-50.89-.29a.248.248,0,0,1-.249-.247h0V362.69a.25.25,0,0,1,.5,0v1.488a.248.248,0,0,1-.248.248h0Zm50.89-2.685a.248.248,0,0,1-.249-.247h0V360a.25.25,0,0,1,.5,0v1.488a.248.248,0,0,1-.244.252h-.007Zm-50.89-.29a.249.249,0,0,1-.249-.248v-1.488a.25.25,0,0,1,.5,0V361.2a.25.25,0,0,1-.248.25h0Zm50.89-2.686a.249.249,0,0,1-.249-.248v-1.488a.25.25,0,1,1,.5,0v1.488a.25.25,0,0,1-.25.248h0Zm-50.89-.29a.249.249,0,0,1-.249-.248v-1.489a.25.25,0,0,1,.5,0v1.489a.25.25,0,0,1-.25.248h0Zm50.89-2.686a.249.249,0,0,1-.249-.249v-1.488a.25.25,0,0,1,.5,0v1.488a.25.25,0,0,1-.25.249h0Zm-50.89-.291a.247.247,0,0,1-.249-.246v-1.49a.25.25,0,0,1,.5,0v1.488a.249.249,0,0,1-.247.25h-.006Zm50.89-2.686a.247.247,0,0,1-.249-.247h0v-1.488a.25.25,0,0,1,.5,0h0v1.488a.249.249,0,0,1-.247.25h-.006Zm-50.89-.29a.247.247,0,0,1-.249-.247h0v-1.488a.25.25,0,0,1,.5,0v1.488a.249.249,0,0,1-.247.25h-.006Zm50.89-2.685a.248.248,0,0,1-.249-.249h0V348.1a.25.25,0,0,1,.5,0v1.488a.25.25,0,0,1-.248.25h0Zm-50.89-.29a.248.248,0,0,1-.249-.249h0V347.81a.25.25,0,1,1,.5,0V349.3a.249.249,0,0,1-.248.251h-.005Zm50.89-2.686a.249.249,0,0,1-.249-.248v-1.488a.25.25,0,0,1,.5,0v1.488a.25.25,0,0,1-.249.25h0Zm-50.89-.29a.249.249,0,0,1-.249-.248v-1.488a.25.25,0,0,1,.5,0v1.488a.249.249,0,0,1-.248.25h-.005Zm50.89-2.686a.249.249,0,0,1-.249-.248v-1.488a.25.25,0,0,1,.5,0v1.488a.249.249,0,0,1-.248.25h-.005Zm-50.89-.29a.247.247,0,0,1-.249-.247h0v-1.488a.25.25,0,0,1,.5,0v1.488a.249.249,0,0,1-.243.253h-.01Zm50.89-2.686a.247.247,0,0,1-.249-.247h0v-1.488a.25.25,0,0,1,.5,0v1.488a.249.249,0,0,1-.245.251h-.008Zm-50.89-.29a.247.247,0,0,1-.249-.247h0v-1.487a.25.25,0,0,1,.5,0v1.487a.249.249,0,0,1-.245.251h-.008Zm50.89-2.685a.248.248,0,0,1-.249-.249h0V336.2a.25.25,0,0,1,.5,0v1.487a.249.249,0,0,1-.249.249h0Zm-50.89-.29a.247.247,0,0,1-.249-.247h0v-1.488a.25.25,0,0,1,.5,0V337.4a.248.248,0,0,1-.246.25h-.007Zm50.791-2.676a.249.249,0,0,1-.239-.18,2.283,2.283,0,0,0-.719-1.11.249.249,0,1,1,.322-.379,2.781,2.781,0,0,1,.875,1.351.248.248,0,0,1-.169.307h0a.286.286,0,0,1-.071.012Zm-50.6-.273a.241.241,0,0,1-.1-.019.248.248,0,0,1-.134-.325,2.776,2.776,0,0,1,1.024-1.243.248.248,0,0,1,.276.413,2.288,2.288,0,0,0-.842,1.021.249.249,0,0,1-.222.158Zm48.455-1.541h-.029a2.377,2.377,0,0,0-.266-.015h-1.193a.25.25,0,0,1,0-.5h1.193a2.907,2.907,0,0,1,.323.018.25.25,0,0,1-.028.5h0Zm-2.975-.017h-1.488a.25.25,0,0,1,0-.5h1.488a.25.25,0,0,1,0,.5Zm-2.976,0h-1.488a.25.25,0,0,1,0-.5h1.488a.25.25,0,0,1,0,.5Zm-2.976,0h-1.488a.25.25,0,0,1,0-.5h1.488a.25.25,0,0,1,0,.5Zm-2.975,0h-1.488a.25.25,0,0,1,0-.5H995.7a.25.25,0,0,1,0,.5Zm-2.976,0H991.24a.25.25,0,0,1,0-.5h1.488a.25.25,0,0,1,0,.5Zm-2.976,0h-1.488a.25.25,0,0,1,0-.5h1.488a.25.25,0,0,1,0,.5Zm-2.976,0h-1.488a.25.25,0,0,1,0-.5h1.488a.25.25,0,0,1,0,.5Zm-2.975,0h-1.488a.25.25,0,0,1,0-.5H983.8a.25.25,0,0,1,0,.5Zm-2.976,0h-1.488a.25.25,0,0,1,0-.5h1.488a.25.25,0,0,1,0,.5Zm-2.976,0h-1.488a.25.25,0,0,1,0-.5h1.488a.25.25,0,0,1,0,.5Zm-2.976,0h-1.488a.25.25,0,0,1,0-.5h1.488a.25.25,0,0,1,0,.5Zm-2.975,0H970.41a.25.25,0,0,1,0-.5H971.9a.25.25,0,0,1,0,.5Zm-2.976,0h-1.488a.25.25,0,0,1,0-.5h1.488a.25.25,0,0,1,0,.5Zm-2.976,0h-1.488a.25.25,0,0,1,0-.5h1.488a.25.25,0,0,1,0,.5Zm-2.976,0h-1.482a.251.251,0,0,1-.251-.249.246.246,0,0,1,.244-.248h1.49a.25.25,0,0,1,0,.5Z" fill="#327290"/>
    </g>
    <g id="Grupo_101448" data-name="Grupo 101448">
      <path id="Rectángulo_24582" data-name="Rectángulo 24582" d="M970.159,287.537h43.121a10.854,10.854,0,0,1,10.854,10.855V314.26a10.855,10.855,0,0,1-10.854,10.855H970.158A10.855,10.855,0,0,1,959.3,314.261V298.392A10.855,10.855,0,0,1,970.159,287.537Z" fill="#e5effd"/>
      <path id="Trazado_162678" data-name="Trazado 162678" d="M984.4,298.873v14.91a1.171,1.171,0,0,0,1.815.979l11.329-7.454a1.17,1.17,0,0,0,0-1.957L986.218,297.9a1.171,1.171,0,0,0-1.815.976Z" fill="#fbd775"/>
      <g id="Grupo_101447" data-name="Grupo 101447">
        <path id="Trazado_162679" data-name="Trazado 162679" d="M962.674,321.728a1.163,1.163,0,1,1,1.164,1.163A1.163,1.163,0,0,1,962.674,321.728Z" fill="#327290"/>
        <path id="Trazado_162680" data-name="Trazado 162680" d="M1016.776,322.039H964.151a.313.313,0,0,1-.313-.313h0a.313.313,0,0,1,.313-.313h52.625a.313.313,0,0,1,.313.313h0A.313.313,0,0,1,1016.776,322.039Z" fill="#327290"/>
      </g>
    </g>
    <rect id="Rectángulo_24583" data-name="Rectángulo 24583" width="33.54" height="50.067" transform="translate(1019.932 332.891)" fill="#e5effd"/>
    <g id="Grupo_101454" data-name="Grupo 101454">
      <g id="Grupo_101450" data-name="Grupo 101450">
        <g id="Grupo_101449" data-name="Grupo 101449">
          <path id="Trazado_162681" data-name="Trazado 162681" d="M1039.922,348.976h-.459v-2.063a1.343,1.343,0,0,1,1.342-1.342h5.675a.883.883,0,0,0,.854-.659l.9-3.412a.882.882,0,0,0-.629-1.079.9.9,0,0,0-.225-.029h-7.4v-.459h7.4a1.34,1.34,0,0,1,1.3,1.684l-.9,3.412a1.343,1.343,0,0,1-1.3,1h-5.675a.884.884,0,0,0-.883.883Z" fill="#327290"/>
        </g>
        <path id="Rectángulo_24584" data-name="Rectángulo 24584" d="M1035.951,338.228h8.864a1.936,1.936,0,0,1,1.936,1.936h0a1.935,1.935,0,0,1-1.936,1.935h-8.864a1.937,1.937,0,0,1-1.936-1.935h0A1.936,1.936,0,0,1,1035.951,338.228Z" fill="#fbd775"/>
        <path id="Trazado_162682" data-name="Trazado 162682" d="M1039.693,357.54h0a1.262,1.262,0,0,1-1.262-1.262v-7.647a1.262,1.262,0,0,1,1.262-1.262h0a1.262,1.262,0,0,1,1.262,1.262v7.647A1.262,1.262,0,0,1,1039.693,357.54Z" fill="#327290"/>
      </g>
      <g id="Grupo_101451" data-name="Grupo 101451">
        <path id="Trazado_162683" data-name="Trazado 162683" d="M1087.977,374.121a17.345,17.345,0,0,1,.793,3.285,11.892,11.892,0,0,1-1.009,3.235c-.389.535-.582-2.178-.889-2.586s-.063,1.021-.28,1.154-.67-1.052-.865-1.469.476-1.958.478-3.031S1087.977,374.121,1087.977,374.121Z" fill="#fceabe"/>
        <path id="Trazado_162684" data-name="Trazado 162684" d="M1067.562,352.885a3.8,3.8,0,0,1,5.719-3.573c.054.032.107.066.16.1,3.936,2.534,12.43,14.357,13.014,15.541s2.31,10.607,2.31,10.607-2.132.78-3.129-.029c0,0-3.458-8.936-3.969-9.383s-13.831-7.92-13.944-10.722C1067.693,354.686,1067.633,353.8,1067.562,352.885Z" fill="#1a5470"/>
      </g>
      <g id="Grupo_101452" data-name="Grupo 101452">
        <path id="Trazado_162685" data-name="Trazado 162685" d="M1091.33,422.088s1.587,1.448,1.278,2.478-1.742,1.715-1.936,2.973-.968,1.944-1.664,1.944h-3.322s-.513-.885.725-1.152,1.707-1.746,1.628-3.118a24.253,24.253,0,0,1,.116-3.2l2.632-.61Z" fill="#327290"/>
        <path id="Trazado_162686" data-name="Trazado 162686" d="M1071.859,425.834s.285,3.3-.412,3.639l-8.917-.018s0-1.029,1.432-1.258,3.949-1.067,4.375-2.935S1071.859,425.834,1071.859,425.834Z" fill="#327290"/>
        <path id="Trazado_162687" data-name="Trazado 162687" d="M1064.33,379.27s.47,5.778,1.023,12.724c.751,9.435,1.655,21.024,1.744,23.22.154,3.812.775,9.911.775,9.911a4.924,4.924,0,0,0,4.413.838,98.393,98.393,0,0,0,3.371-17.916c.011-.151.023-.3.035-.455.7-9.377,1.781-29.121,1.781-29.121Z" fill="#fbd775"/>
        <path id="Trazado_162688" data-name="Trazado 162688" d="M1064.33,379.27s.47,5.778,1.023,12.724l10.3,16.052c.011-.151.023-.3.035-.455.7-9.377,1.781-29.121,1.781-29.121Z" fill="#fac551"/>
        <path id="Trazado_162689" data-name="Trazado 162689" d="M1066.477,379.957s8.478,20.926,14.052,30.76,7.316,12.578,7.316,12.578,3.194-1.258,3.484-2.116c0,0-2.132-18.985-5.865-23.613-2.109-2.615-4.587-10.463-4.7-13.207s-.755-8.176-.755-8.176Z" fill="#fbd775"/>
      </g>
      <path id="Trazado_162690" data-name="Trazado 162690" d="M1073.788,348.566s-5.68,2.881-9.007,1.92a7.82,7.82,0,0,1,2.2-1.835c-.127-.662-.228-1.236-.289-1.723a16.026,16.026,0,0,1-.175-1.763l2.178-1.784,2.065-1.707A8.459,8.459,0,0,0,1073.788,348.566Z" fill="#fceabe"/>
      <path id="Trazado_162691" data-name="Trazado 162691" d="M1079.429,377.838a23.4,23.4,0,0,1-7.006,3.018c-3,.711-6.68.5-7.913.689a.511.511,0,0,1-.359-.091c-.1-.05-.641-3.705-1.185-8.319-.024-.186-.05-.373-.06-.561l-.008-.062c-.212-1.8-.4-3.7-.559-5.6-.131-1.478-.24-2.939-.314-4.312-.095-1.717-.134-3.3-.095-4.593.017-.593.052-1.126.1-1.589a11.319,11.319,0,0,1,2.821-6.055l1-1.143a5.509,5.509,0,0,0,3.475-.887c1.227-.808,2.55-1.676,2.8-1.531,1.88,1.029,3.411,3.694,4.5,7.214a39.973,39.973,0,0,1,1.416,6.76c.1.756.184,1.531.249,2.3.012.143.022.285.033.426.148,2.11.388,4.088.656,5.854.361,2.382.77,4.377,1.059,5.782.145.715.254,1.268.321,1.664C1080.43,377.151,1079.739,377.646,1079.429,377.838Z" fill="#327290"/>
      <path id="Trazado_162692" data-name="Trazado 162692" d="M1070.837,343.464a7.6,7.6,0,0,1-4.142,3.464,16.056,16.056,0,0,1-.175-1.763l2.178-1.784Z" fill="#edd5a2"/>
      <path id="Trazado_162693" data-name="Trazado 162693" d="M1065.511,345.109s5.489.787,5.936-2.587,1.456-5.544-2.03-6.188-4.337.555-4.766,1.646S1064.094,344.818,1065.511,345.109Z" fill="#fceabe"/>
      <path id="Trazado_162694" data-name="Trazado 162694" d="M1073.3,335.853c.049-.058.162-.106.417-.125a1.027,1.027,0,0,0-.479-.125,1.282,1.282,0,0,0-.875-1.118.765.765,0,0,1,.382.544c-.721-.712-2.246-1.21-6.432-.8-5.517.546-3.626,4.048-2.9,4.455s2.5-.784,3.835-.7,1.627,2,2.084,2.255.271-.208.877-.5.685.724.521,1.386.694,1.516.694,1.516l.832-.932c.832-.932,1.554-4.822,1.152-5.641Z" fill="#7d6614"/>
      <path id="Trazado_162695" data-name="Trazado 162695" d="M1071.559,358.309s-4.628,3.521-9.533,4.293c-.095-1.717-.134-3.3-.095-4.593Z" fill="#1a5470"/>
      <g id="Grupo_101453" data-name="Grupo 101453">
        <path id="Trazado_162696" data-name="Trazado 162696" d="M1043.138,353.765c-.073-.078-1.017-3.233-2.648-3-1.064.15-2.8.766-2.343,2.169.182.552,3.426,2.451,3.426,2.451Z" fill="#fceabe"/>
        <path id="Trazado_162697" data-name="Trazado 162697" d="M1072.131,351.505a3.8,3.8,0,0,1-.4,6.731l-.176.073c-4.344,1.743-18.9,1.824-20.206,1.615s-9.986-4.257-9.986-4.257.6-2.19,1.835-2.534c0,0,9.288,2.354,9.948,2.2s14.466-6.692,16.816-5.163C1070.588,350.569,1071.348,351.036,1072.131,351.505Z" fill="#327290"/>
      </g>
    </g>
    <g id="Grupo_101455" data-name="Grupo 101455">
      <path id="Trazado_162698" data-name="Trazado 162698" d="M1170.063,247.937h-11.589a.889.889,0,0,1-.885-.886h0a.889.889,0,0,1,.885-.885h11.589a.887.887,0,0,1,.885.885h0A.888.888,0,0,1,1170.063,247.937Z" fill="#fff"/>
      <path id="Trazado_162699" data-name="Trazado 162699" d="M1170.063,251.4h-11.589a.889.889,0,0,1-.885-.886h0a.889.889,0,0,1,.885-.886h11.589a.887.887,0,0,1,.885.886h0A.888.888,0,0,1,1170.063,251.4Z" fill="#fff"/>
      <path id="Trazado_162700" data-name="Trazado 162700" d="M1170.063,254.944h-11.589a.889.889,0,0,1-.885-.885h0a.889.889,0,0,1,.885-.886h11.589a.887.887,0,0,1,.885.886h0A.887.887,0,0,1,1170.063,254.944Z" fill="#fff"/>
    </g>
    <path id="Trazado_162701" data-name="Trazado 162701" d="M1124.684,338.5H1097.1a1.179,1.179,0,0,1-1.174-1.174h0a1.179,1.179,0,0,1,1.174-1.174h27.587a1.178,1.178,0,0,1,1.174,1.174h0A1.178,1.178,0,0,1,1124.684,338.5Z" fill="#fff"/>
    <path id="Trazado_162702" data-name="Trazado 162702" d="M989.83,257.9H962.245a1.179,1.179,0,0,1-1.174-1.174h0a1.178,1.178,0,0,1,1.174-1.174h27.588a1.177,1.177,0,0,1,1.174,1.174h0A1.178,1.178,0,0,1,989.83,257.9Z" fill="#fff"/>
    <path id="Trazado_162703" data-name="Trazado 162703" d="M1124.684,350.15H1097.1a1.178,1.178,0,0,1-1.174-1.174h0a1.178,1.178,0,0,1,1.174-1.174h27.587a1.177,1.177,0,0,1,1.174,1.174h0A1.176,1.176,0,0,1,1124.684,350.15Z" fill="#fff"/>
    <path id="Trazado_162704" data-name="Trazado 162704" d="M1124.684,344.325h-33a1.179,1.179,0,0,1-1.175-1.174h0a1.179,1.179,0,0,1,1.175-1.174h33a1.176,1.176,0,0,1,1.174,1.174h0A1.178,1.178,0,0,1,1124.684,344.325Z" fill="#fff"/>
    <g id="Grupo_101456" data-name="Grupo 101456">
      <path id="Rectángulo_24585" data-name="Rectángulo 24585" d="M966.355,262.934h15.006a1.174,1.174,0,0,1,1.174,1.174h0a1.174,1.174,0,0,1-1.173,1.175H966.355a1.174,1.174,0,0,1-1.174-1.174h0A1.174,1.174,0,0,1,966.355,262.934Z" fill="#fff"/>
      <path id="Trazado_162705" data-name="Trazado 162705" d="M960.026,264.108a1.174,1.174,0,1,1,1.174,1.174h0A1.174,1.174,0,0,1,960.026,264.108Z" fill="#fff"/>
    </g>
    <g id="Grupo_101457" data-name="Grupo 101457">
      <path id="Rectángulo_24586" data-name="Rectángulo 24586" d="M966.355,267.608h18.036a1.174,1.174,0,0,1,1.174,1.174h0a1.174,1.174,0,0,1-1.173,1.175H966.355a1.174,1.174,0,0,1-1.174-1.174h0A1.174,1.174,0,0,1,966.355,267.608Z" fill="#fff"/>
      <path id="Trazado_162706" data-name="Trazado 162706" d="M960.026,268.782a1.174,1.174,0,1,1,1.174,1.174h0A1.174,1.174,0,0,1,960.026,268.782Z" fill="#fff"/>
    </g>
    <g id="Grupo_101458" data-name="Grupo 101458">
      <path id="Rectángulo_24587" data-name="Rectángulo 24587" d="M966.355,272.681h15.006a1.174,1.174,0,0,1,1.174,1.174h0a1.174,1.174,0,0,1-1.173,1.175H966.355a1.174,1.174,0,0,1-1.174-1.174h0A1.174,1.174,0,0,1,966.355,272.681Z" fill="#fff"/>
      <path id="Trazado_162707" data-name="Trazado 162707" d="M960.026,273.855a1.174,1.174,0,1,1,1.174,1.174h0A1.174,1.174,0,0,1,960.026,273.855Z" fill="#fff"/>
    </g>
    <g id="Grupo_101460" data-name="Grupo 101460">
      <g id="Grupo_101459" data-name="Grupo 101459">
        <path id="Trazado_162708" data-name="Trazado 162708" d="M1009.957,267.913a4.284,4.284,0,0,1-.621.039,4.143,4.143,0,0,1-2.847-7.106h0a4.143,4.143,0,1,1,3.468,7.067Zm-2.99-6.579a3.46,3.46,0,1,0,4.894.056h0A3.464,3.464,0,0,0,1006.967,261.334Z" fill="#327290"/>
      </g>
      <rect id="Rectángulo_24588" data-name="Rectángulo 24588" width="5.654" height="0.682" transform="matrix(0.715, -0.699, 0.699, 0.715, 1002.383, 270.173)" fill="#327290"/>
      <path id="Trazado_162709" data-name="Trazado 162709" d="M1001.216,271.79h0a.61.61,0,0,1,.01-.861l2.383-2.327a.61.61,0,0,1,.862.01h0a.609.609,0,0,1-.009.861h0l-2.382,2.327a.609.609,0,0,1-.861-.009Z" fill="#327290"/>
    </g>
    <g id="Grupo_101461" data-name="Grupo 101461">
      <path id="Trazado_162710" data-name="Trazado 162710" d="M1160.761,429.561h0a1.362,1.362,0,0,1-1.239-.853l-31.832-96.922a.638.638,0,0,1,.674-.864h0a1.359,1.359,0,0,1,1.239.853l31.833,96.922a.638.638,0,0,1-.363.826A.65.65,0,0,1,1160.761,429.561Z" fill="#327290"/>
      <path id="Trazado_162711" data-name="Trazado 162711" d="M1186.42,429.412h0a1.362,1.362,0,0,1-1.238-.853l-31.832-96.922a.638.638,0,0,1,.674-.864h0a1.359,1.359,0,0,1,1.239.853l31.837,96.922a.639.639,0,0,1-.68.864Z" fill="#327290"/>
      <path id="Trazado_162712" data-name="Trazado 162712" d="M1158.8,345.142l-25.762.149a1.29,1.29,0,0,1-1.169-.8h0a.6.6,0,0,1,.337-.779.592.592,0,0,1,.3-.037l25.762-.149a1.287,1.287,0,0,1,1.169.8h0a.6.6,0,0,1-.336.779A.607.607,0,0,1,1158.8,345.142Z" fill="#327290"/>
      <path id="Trazado_162713" data-name="Trazado 162713" d="M1164.355,362.064l-25.761.149a1.29,1.29,0,0,1-1.169-.805h0a.6.6,0,0,1,.337-.779.591.591,0,0,1,.3-.037l25.762-.149a1.29,1.29,0,0,1,1.169.806h0a.6.6,0,0,1-.638.815Z" fill="#327290"/>
      <path id="Trazado_162714" data-name="Trazado 162714" d="M1169.708,378.363l-25.762.149a1.29,1.29,0,0,1-1.169-.806h0a.6.6,0,0,1,.337-.779.591.591,0,0,1,.3-.037l25.762-.149a1.287,1.287,0,0,1,1.169.806h0a.6.6,0,0,1-.336.779A.606.606,0,0,1,1169.708,378.363Z" fill="#327290"/>
      <path id="Trazado_162715" data-name="Trazado 162715" d="M1175.734,396.711l-25.762.149a1.292,1.292,0,0,1-1.169-.806h0a.6.6,0,0,1,.337-.779.591.591,0,0,1,.3-.037l25.762-.149a1.287,1.287,0,0,1,1.169.806h0a.6.6,0,0,1-.336.779A.607.607,0,0,1,1175.734,396.711Z" fill="#327290"/>
      <path id="Trazado_162716" data-name="Trazado 162716" d="M1182.041,415.915l-25.762.149a1.29,1.29,0,0,1-1.169-.8h0a.6.6,0,0,1,.337-.779.591.591,0,0,1,.3-.037l25.762-.149a1.287,1.287,0,0,1,1.169.8h0a.6.6,0,0,1-.336.779A.607.607,0,0,1,1182.041,415.915Z" fill="#327290"/>
    </g>
    <g id="Grupo_101462" data-name="Grupo 101462">
      <path id="Trazado_162717" data-name="Trazado 162717" d="M1126.584,287.395h0a.375.375,0,0,1-.437-.3h0l-.412-2.13a.375.375,0,0,1,.3-.438h0a.374.374,0,0,1,.438.3h0l.412,2.13a.375.375,0,0,1-.3.438Z" fill="#327290"/>
      <rect id="Rectángulo_24589" data-name="Rectángulo 24589" width="0.257" height="3.136" transform="matrix(0.982, -0.19, 0.19, 0.982, 1125.208, 280.964)" fill="#327290"/>
      <path id="Trazado_162718" data-name="Trazado 162718" d="M1125.462,263.59a9.875,9.875,0,0,0-.757-2.93,3.988,3.988,0,0,0-2.579-1.212c-.38.368,1.123,1.67,1.182,2.15s-.763.148-.368,1.084a7.3,7.3,0,0,0,1.433,1.815Z" fill="#fceabe"/>
      <path id="Trazado_162719" data-name="Trazado 162719" d="M1124.525,263.354c.708-.556.859-.545.859-.545s6.551,5.675,7.188,6.18,10.477,3.359,10.477,3.359l1.563,8s-13.313-6.43-14.9-7.742c-2.629-2.169-5.946-8.237-5.946-8.237A2.514,2.514,0,0,1,1124.525,263.354Z" fill="#fac551"/>
      <path id="Trazado_162720" data-name="Trazado 162720" d="M1143.259,340.22s-.113,2.734-.637,3.4l-7.3.042a1.142,1.142,0,0,1,1.091-1.11,4.9,4.9,0,0,0,3.546-2.8C1140.771,337.978,1143.259,340.22,1143.259,340.22Z" fill="#fff"/>
      <path id="Trazado_162721" data-name="Trazado 162721" d="M1157.59,339.826s.509,3.632-.182,3.7c-.092.009-2.943.054-4.177.075-1.451.025-3.836-.027-3.836-.027a.38.38,0,0,1-.4-.361.384.384,0,0,1,.052-.21,1.529,1.529,0,0,1,1.1-.7c1.272-.245,3.392-1.179,4.135-2.878C1155.062,337.628,1157.59,339.826,1157.59,339.826Z" fill="#fff"/>
      <path id="Trazado_162722" data-name="Trazado 162722" d="M1139.464,302.612s2.031,7.1,7.85,19.442,6.071,18.284,6.071,18.284a5.111,5.111,0,0,0,2.05.187,5.513,5.513,0,0,0,2.156-.7s-.377-14.685-3.125-20.911-3.309-23.264-3.309-23.264Z" fill="#1a5470"/>
      <path id="Trazado_162723" data-name="Trazado 162723" d="M1136.2,296.5a177.248,177.248,0,0,0,1.741,24.509c1.9,13.508,1.013,19.79,1.013,19.79a3.8,3.8,0,0,0,2.056.361,4.61,4.61,0,0,0,2.747-.758s2.725-13.512,1.943-20.273,3.731-23.2,3.731-23.2Z" fill="#327290"/>
      <path id="Trazado_162724" data-name="Trazado 162724" d="M1145.2,270.755l-2.15,1.592-3.107-.654c.043-.283.248-1.458.435-2.522q.018-.094.033-.186c.159-.9.3-1.683.3-1.683l2.9-1.447,1.082-.539c0,.019-.084,1-.1,1.149A9.307,9.307,0,0,0,1145.2,270.755Z" fill="#fceabe"/>
      <path id="Trazado_162725" data-name="Trazado 162725" d="M1151.358,297.856c-.7,3.215-15.75,1.8-15.554-.159.008-.066.047-.974.1-2.2.114-2.649.289-6.788.311-7.111v-.017c.271-2.733.531-5.407.549-7.153a24.763,24.763,0,0,1,.5-4.468c.256-1.3.571-2.475.844-3.393a3.75,3.75,0,0,1,2.2-2.41,3.263,3.263,0,0,1,.364-.127c1.771-.514,4.22-1.15,4.885-.955,1.8.529,3.135,3.7,4.081,7.732C1151.408,285.156,1151.818,295.762,1151.358,297.856Z" fill="#fbd775"/>
      <path id="Trazado_162726" data-name="Trazado 162726" d="M1144.38,266.51c-.637,1.22-3.012,2.274-4,2.662.011-.063.022-.125.032-.187.16-.9.3-1.683.3-1.683l2.9-1.447C1144.251,265.85,1144.642,266.008,1144.38,266.51Z" fill="#edd5a2"/>
      <path id="Trazado_162727" data-name="Trazado 162727" d="M1139.3,267.132s5.236,1.633,6.2-1.643,2.294-5.272-1.008-6.454-4.324-.124-4.913.891S1137.96,266.622,1139.3,267.132Z" fill="#fceabe"/>
      <path id="Trazado_162728" data-name="Trazado 162728" d="M1139.785,259.611s.334,3.813,1.123,3.647,1.5-.288,1.388.861-1.209,2.476,1.221,2.68,5.924-6.063,5.256-7.25C1146.846,256.125,1137,255.434,1139.785,259.611Z" fill="#7d6614"/>
      <path id="Trazado_162729" data-name="Trazado 162729" d="M1135.905,295.5c.114-2.649.288-6.788.31-7.111v-.017l8.889-5.315S1145.451,295.466,1135.905,295.5Z" fill="#fac551"/>
      <path id="Trazado_162730" data-name="Trazado 162730" d="M1128.839,284.379a23.467,23.467,0,0,0-2.149-1.329,4.516,4.516,0,0,0-1.518-.133c-.052.089-.206.36-.01.451s.441.059.367.124-.812-.287-.982.089-.321,1.667.546,2.058,3.006.038,3.16.083C1129.561,286.105,1128.839,284.379,1128.839,284.379Z" fill="#fceabe"/>
      <path id="Trazado_162731" data-name="Trazado 162731" d="M1128.823,284.052s8.817,1.5,9.6,1.119c1.248-.607-.483-9.553-.483-9.553a2.572,2.572,0,0,1,2.294-2.505,5.7,5.7,0,0,1,4.042,1.126s1.806,1.616,1.575,3.408c-.511,3.973-1.306,12.053-3.964,13.291-3.427,1.6-13.344-4.43-13.344-4.43a1.742,1.742,0,0,1-.283-1.155A2.7,2.7,0,0,1,1128.823,284.052Z" fill="#fbd775"/>
      <path id="Trazado_162732" data-name="Trazado 162732" d="M1122.9,262.577s-.564-1.122-.655-1.332.13-.165.347-.047.513.768.848.69C1123.7,261.823,1122.9,262.577,1122.9,262.577Z" fill="#fceabe"/>
    </g>
  </g>
</svg>
