<svg xmlns="http://www.w3.org/2000/svg" width="123.444" height="76.472" viewBox="0 0 123.444 76.472">
  <g id="Grupo_102212" data-name="Grupo 102212" transform="translate(-208.752 -111.831)">
    <path id="Trazado_163653" data-name="Trazado 163653" d="M326.355,186.192H213.994a3.732,3.732,0,0,1-3.731-3.732V117.073a3.731,3.731,0,0,1,3.731-3.731H326.355a3.731,3.731,0,0,1,3.731,3.731V182.46A3.732,3.732,0,0,1,326.355,186.192Z" transform="translate(0.3 0.3)" fill="#e5eef8"/>
    <path id="Trazado_163654" data-name="Trazado 163654" d="M312.347,173.29a22.475,22.475,0,0,1-22.474-22.475V113.342H276.287v72.85H313.25a3.732,3.732,0,0,0,3.731-3.732v-9.17Z" transform="translate(13.405 0.3)" fill="#d5e2f3"/>
    <path id="Trazado_163655" data-name="Trazado 163655" d="M264.734,174.673h-6.817a38.2,38.2,0,0,1-38.2-38.2V113.342h-5.726a3.731,3.731,0,0,0-3.731,3.731V182.46a3.732,3.732,0,0,0,3.731,3.732h50.74Z" transform="translate(0.3 0.3)" fill="#d5e2f3"/>
    <path id="Trazado_163656" data-name="Trazado 163656" d="M308.445,168.086v2.119a1.709,1.709,0,0,1-1.709,1.709H286.912a1.715,1.715,0,0,1-1.71-1.709V154.794a1.71,1.71,0,0,1,1.71-1.707h19.824a1.709,1.709,0,0,1,1.709,1.707Z" transform="translate(15.175 8.189)" fill="#65daf9"/>
    <path id="Trazado_163657" data-name="Trazado 163657" d="M286.912,171.914h19.824a1.709,1.709,0,0,0,1.709-1.709V165.3a22.483,22.483,0,0,1-17.919-12.213h-3.615a1.709,1.709,0,0,0-1.71,1.707v15.411a1.715,1.715,0,0,0,1.71,1.709Z" transform="translate(15.175 8.189)" fill="#1acff8"/>
    <path id="Trazado_163658" data-name="Trazado 163658" d="M239.255,141.985V144.1a1.709,1.709,0,0,1-1.709,1.71H217.72a1.717,1.717,0,0,1-1.707-1.71V128.7a1.707,1.707,0,0,1,1.707-1.709h19.827a1.709,1.709,0,0,1,1.709,1.709Z" transform="translate(1.441 3.008)" fill="#65daf9"/>
    <path id="Trazado_163659" data-name="Trazado 163659" d="M217.72,145.814h2.8a38.169,38.169,0,0,1-1.94-12.046v-6.782h-.859a1.708,1.708,0,0,0-1.707,1.709V144.1a1.717,1.717,0,0,0,1.707,1.71Z" transform="translate(1.441 3.008)" fill="#1acff8"/>
    <path id="Trazado_163660" data-name="Trazado 163660" d="M241.146,113.342H286.7v72.85H241.146Z" transform="translate(6.43 0.3)" fill="#c5e1ff"/>
    <path id="Trazado_163661" data-name="Trazado 163661" d="M255.117,141.707V113.342H241.146v72.85H286.7v-12.9a31.584,31.584,0,0,1-31.584-31.584Z" transform="translate(6.43 0.3)" fill="#b4d9fd"/>
    <path id="Trazado_163662" data-name="Trazado 163662" d="M253.829,148.03a12.555,12.555,0,1,1,8.4,3.228,12.514,12.514,0,0,1-8.4-3.228Z" transform="translate(8.124 2.844)" fill="#65daf9"/>
    <path id="Trazado_163663" data-name="Trazado 163663" d="M253.829,147.432a12.685,12.685,0,0,0,1.14.91,31.539,31.539,0,0,1-1.545-9.777v-9.39a12.544,12.544,0,0,0,.405,18.258Z" transform="translate(8.124 3.442)" fill="#1acff8"/>
    <path id="Trazado_163664" data-name="Trazado 163664" d="M326.355,113.342H213.994a3.731,3.731,0,0,0-3.731,3.731v5.959H330.086v-5.959a3.731,3.731,0,0,0-3.731-3.731Z" transform="translate(0.3 0.3)" fill="#fd6773"/>
    <path id="Trazado_163665" data-name="Trazado 163665" d="M219.72,113.342h-5.726a3.731,3.731,0,0,0-3.731,3.731v5.959h9.457Z" transform="translate(0.3 0.3)" fill="#fc4d5a"/>
    <circle id="Elipse_5348" data-name="Elipse 5348" cx="1.673" cy="1.673" r="1.673" transform="translate(215.78 116.813)" fill="#f93442"/>
    <circle id="Elipse_5349" data-name="Elipse 5349" cx="1.673" cy="1.673" r="1.673" transform="translate(222.7 116.813)" fill="#fcb64d"/>
    <circle id="Elipse_5350" data-name="Elipse 5350" cx="1.673" cy="1.673" r="1.673" transform="translate(229.62 116.813)" fill="#05f2a7"/>
    <path id="Trazado_163666" data-name="Trazado 163666" d="M231.371,133.941a.4.4,0,0,0-.588-.018l-3.87,3.993-.018.014-.047-.014v6.545H235.4a1.709,1.709,0,0,0,1.709-1.71v-2.119Z" transform="translate(3.592 4.361)" fill="#10a66e"/>
    <path id="Trazado_163667" data-name="Trazado 163667" d="M234.053,144.4H217.645a1.682,1.682,0,0,1-1.257-.559l9.027-9.59a.4.4,0,0,1,.6.024l2.906,3.633Z" transform="translate(1.516 4.425)" fill="#26b280"/>
    <path id="Trazado_163668" data-name="Trazado 163668" d="M217.645,143.32h2.8a38.113,38.113,0,0,1-1.038-3.766l-3.019,3.207A1.682,1.682,0,0,0,217.645,143.32Z" transform="translate(1.516 5.503)" fill="#10a66e"/>
    <path id="Trazado_163669" data-name="Trazado 163669" d="M300.772,160.255a.684.684,0,0,0-1.009-.03l-3.764,3.9.111,6.018,4.691.4h3.793a1.709,1.709,0,0,0,1.709-1.709V166.71Z" transform="translate(17.317 9.565)" fill="#10a66e"/>
    <path id="Trazado_163670" data-name="Trazado 163670" d="M304.594,170.267a1.709,1.709,0,0,0,1.709-1.709v-2.119l-2.761-3.223a22.3,22.3,0,0,1-5.157-1.834L296,163.854l.111,6.018,4.691.4Z" transform="translate(17.317 9.836)" fill="#08905e"/>
    <path id="Trazado_163671" data-name="Trazado 163671" d="M303.243,170.473h-16.4a1.7,1.7,0,0,1-1.261-.557l8.806-9.353a.684.684,0,0,1,1.03.042l2.7,3.375Z" transform="translate(15.249 9.63)" fill="#1db22e"/>
    <path id="Trazado_163672" data-name="Trazado 163672" d="M265.4,136.426a.689.689,0,0,0-1.165-.022l-2.855,4.337v6.105l3.889,1.237a12.587,12.587,0,0,0,4.889-4.111Z" transform="translate(10.446 4.816)" fill="#10a66e"/>
    <path id="Trazado_163673" data-name="Trazado 163673" d="M263.018,140.794l3.889,7.342a12.555,12.555,0,0,1-13.765-2.025l6.248-9.957a.69.69,0,0,1,1.194.044Z" transform="translate(8.811 4.764)" fill="#26b280"/>
    <path id="Trazado_163674" data-name="Trazado 163674" d="M253.742,143.608l-.6.958c.173.157.351.307.532.452l.064.049q.266.212.543.41c-.2-.614-.375-1.238-.538-1.868Z" transform="translate(8.811 6.307)" fill="#10a66e"/>
    <path id="Trazado_163675" data-name="Trazado 163675" d="M326.655,111.831H214.294a5.548,5.548,0,0,0-5.542,5.542V182.76a5.549,5.549,0,0,0,5.542,5.543H326.655a5.549,5.549,0,0,0,5.542-5.543V117.373a5.548,5.548,0,0,0-5.542-5.542Zm-112.361,3.622H326.655a1.924,1.924,0,0,1,1.921,1.92v4.148h-67.15a1.811,1.811,0,0,0,0,3.622h29.894v59.54H249.387V125.141h4.8a1.81,1.81,0,0,0,0-3.621H212.373v-4.148A1.923,1.923,0,0,1,214.294,115.453Zm-1.921,67.307V125.141h33.394v59.54H214.294a1.923,1.923,0,0,1-1.921-1.921Zm114.282,1.921H294.941v-59.54h33.633V182.76a1.923,1.923,0,0,1-1.92,1.921Z" transform="translate(0 0)"/>
    <path id="Trazado_163676" data-name="Trazado 163676" d="M237.846,125.475H218.02a3.523,3.523,0,0,0-3.519,3.519v15.411a3.5,3.5,0,0,0,.846,2.282,1.694,1.694,0,0,0,.171.189h0a3.508,3.508,0,0,0,2.5,1.046h19.827a3.523,3.523,0,0,0,3.519-3.519V128.994A3.523,3.523,0,0,0,237.846,125.475Zm-.1,3.622v8.292l-2.832-3.3a1.81,1.81,0,0,0-2.675-.081l-2.8,2.891-1.916-2.395a1.811,1.811,0,0,0-2.731-.109l-6.665,7.079V129.1ZM230.729,144.3h-10.3l5.566-5.913Zm4.638,0-3.651-4.56,1.739-1.794,4.289,5V144.3Z" transform="translate(1.141 2.708)"/>
    <path id="Trazado_163677" data-name="Trazado 163677" d="M262.529,153.367a14.358,14.358,0,1,0-14.359-14.359A14.375,14.375,0,0,0,262.529,153.367Zm-6-5.458,4.35-6.93,1.526,2.882.007.012,2.914,5.5a10.715,10.715,0,0,1-8.8-1.466Zm12.087-.061-2.508-4.734,1.291-1.961,3.079,5.07a10.837,10.837,0,0,1-1.861,1.625Zm-6.086-19.577A10.735,10.735,0,0,1,272.6,142.739l-3.589-5.912a1.81,1.81,0,0,0-3.06-.056l-1.775,2.694-1.562-2.949a1.812,1.812,0,0,0-3.134-.115l-5.613,8.942a10.731,10.731,0,0,1,8.664-17.071Z" transform="translate(7.824 2.544)"/>
    <path id="Trazado_163678" data-name="Trazado 163678" d="M216.312,155.586h2.51a1.81,1.81,0,1,0,0-3.621h-2.51a1.81,1.81,0,1,0,0,3.621Z" transform="translate(1.141 7.966)"/>
    <path id="Trazado_163679" data-name="Trazado 163679" d="M238.23,151.965h-15.25a1.81,1.81,0,1,0,0,3.621h15.25a1.81,1.81,0,1,0,0-3.621Z" transform="translate(2.465 7.966)"/>
    <path id="Trazado_163680" data-name="Trazado 163680" d="M218.822,165.688h-2.51a1.81,1.81,0,1,0,0,3.621h2.51a1.81,1.81,0,1,0,0-3.621Z" transform="translate(1.141 10.69)"/>
    <path id="Trazado_163681" data-name="Trazado 163681" d="M238.23,165.688h-15.25a1.81,1.81,0,1,0,0,3.621h15.25a1.81,1.81,0,1,0,0-3.621Z" transform="translate(2.465 10.69)"/>
    <path id="Trazado_163682" data-name="Trazado 163682" d="M236.121,158.826h-2.51a1.811,1.811,0,0,0,0,3.622h2.51a1.811,1.811,0,0,0,0-3.622Z" transform="translate(4.575 9.328)"/>
    <path id="Trazado_163683" data-name="Trazado 163683" d="M216.312,162.448h15.251a1.811,1.811,0,0,0,0-3.622H216.312a1.811,1.811,0,0,0,0,3.622Z" transform="translate(1.141 9.328)"/>
    <path id="Trazado_163684" data-name="Trazado 163684" d="M250.855,155.586h2.511a1.81,1.81,0,0,0,0-3.621h-2.511a1.81,1.81,0,0,0,0,3.621Z" transform="translate(7.998 7.966)"/>
    <path id="Trazado_163685" data-name="Trazado 163685" d="M272.773,151.965h-15.25a1.81,1.81,0,1,0,0,3.621h15.25a1.81,1.81,0,1,0,0-3.621Z" transform="translate(9.321 7.966)"/>
    <path id="Trazado_163686" data-name="Trazado 163686" d="M253.366,165.688h-2.511a1.81,1.81,0,0,0,0,3.621h2.511a1.81,1.81,0,0,0,0-3.621Z" transform="translate(7.998 10.69)"/>
    <path id="Trazado_163687" data-name="Trazado 163687" d="M272.773,165.688h-15.25a1.81,1.81,0,1,0,0,3.621h15.25a1.81,1.81,0,1,0,0-3.621Z" transform="translate(9.321 10.69)"/>
    <path id="Trazado_163688" data-name="Trazado 163688" d="M270.664,158.826h-2.51a1.811,1.811,0,1,0,0,3.622h2.51a1.811,1.811,0,1,0,0-3.622Z" transform="translate(11.431 9.328)"/>
    <path id="Trazado_163689" data-name="Trazado 163689" d="M250.855,162.448h15.251a1.811,1.811,0,0,0,0-3.622H250.855a1.811,1.811,0,0,0,0,3.622Z" transform="translate(7.998 9.328)"/>
    <path id="Trazado_163690" data-name="Trazado 163690" d="M285.3,131.88h2.51a1.811,1.811,0,0,0,0-3.622H285.3a1.811,1.811,0,1,0,0,3.622Z" transform="translate(14.835 3.261)"/>
    <path id="Trazado_163691" data-name="Trazado 163691" d="M291.97,131.88h15.25a1.811,1.811,0,0,0,0-3.622H291.97a1.811,1.811,0,1,0,0,3.622Z" transform="translate(16.158 3.261)"/>
    <path id="Trazado_163692" data-name="Trazado 163692" d="M285.3,145.6h2.51a1.81,1.81,0,1,0,0-3.621H285.3a1.81,1.81,0,1,0,0,3.621Z" transform="translate(14.835 5.984)"/>
    <path id="Trazado_163693" data-name="Trazado 163693" d="M307.219,141.981H291.97a1.81,1.81,0,1,0,0,3.621h15.25a1.81,1.81,0,1,0,0-3.621Z" transform="translate(16.158 5.984)"/>
    <path id="Trazado_163694" data-name="Trazado 163694" d="M305.11,135.12H302.6a1.81,1.81,0,1,0,0,3.621h2.51a1.81,1.81,0,1,0,0-3.621Z" transform="translate(18.268 4.623)"/>
    <path id="Trazado_163695" data-name="Trazado 163695" d="M285.3,138.741h15.25a1.81,1.81,0,1,0,0-3.621H285.3a1.81,1.81,0,1,0,0,3.621Z" transform="translate(14.835 4.623)"/>
    <circle id="Elipse_5351" data-name="Elipse 5351" cx="1.673" cy="1.673" r="1.673" transform="translate(215.78 116.813)"/>
    <circle id="Elipse_5352" data-name="Elipse 5352" cx="1.673" cy="1.673" r="1.673" transform="translate(222.7 116.813)"/>
    <circle id="Elipse_5353" data-name="Elipse 5353" cx="1.673" cy="1.673" r="1.673" transform="translate(229.62 116.813)"/>
    <circle id="Elipse_5354" data-name="Elipse 5354" cx="1.996" cy="1.996" r="1.996" transform="translate(228.677 132.531)"/>
    <path id="Trazado_163696" data-name="Trazado 163696" d="M307.036,151.576h-8.818a1.81,1.81,0,1,0,0,3.621h8.717v8.294l-2.832-3.305a1.813,1.813,0,0,0-1.32-.63,1.789,1.789,0,0,0-1.355.549l-2.8,2.891-1.916-2.395a1.811,1.811,0,0,0-2.731-.109l-6.665,7.079V155.2h3.663a1.81,1.81,0,1,0,0-3.621h-3.764a3.523,3.523,0,0,0-3.519,3.519v15.411a3.5,3.5,0,0,0,.845,2.281,1.843,1.843,0,0,0,.173.191h0a3.512,3.512,0,0,0,2.5,1.046h19.825a3.523,3.523,0,0,0,3.519-3.519V155.095a3.523,3.523,0,0,0-3.519-3.519ZM295.184,164.49l4.734,5.913h-10.3Zm9.372,5.913-3.651-4.56,1.739-1.793,4.289,5V170.4Z" transform="translate(14.875 7.889)"/>
    <circle id="Elipse_5355" data-name="Elipse 5355" cx="1.996" cy="1.996" r="1.996" transform="translate(311.6 163.812)"/>
    <circle id="Elipse_5356" data-name="Elipse 5356" cx="1.999" cy="1.999" r="1.999" transform="translate(270.162 133.166)"/>
  </g>
</svg>
